<?xml version='1.0' encoding='utf-8'?>
<COLLADA xmlns="http://www.collada.org/2005/11/COLLADASchema" version="1.4.1">
  <asset>
    <created>2026-09-14T00:00:00Z</created>
    <modified>2026-09-14T00:00:00Z</modified>
    <unit name="metre" meter="1" />
    <up_axis>Z_UP</up_axis>
  </asset>
  <library_effects>
    <effect id="scout_1a1a1a_effect">
      <profile_COMMON>
        <technique sid="common">
          <lambert>
            <emission>
              <color>0 0 0 1</color>
            </emission>
            <ambient>
              <color>0.05 0.05 0.05 1</color>
            </ambient>
            <diffuse>
              <color>0.1 0.1 0.1 1</color>
            </diffuse>
          </lambert>
        </technique>
      </profile_COMMON>
    </effect>
  </library_effects>
  <library_materials>
    <material id="scout_1a1a1a" name="scout_1a1a1a">
      <instance_effect url="#scout_1a1a1a_effect" />
    </material>
  </library_materials>
  <library_geometries>
    <geometry id="geometry" name="left_shoulder_pitch_link">
      <mesh>
        <source id="positions">
          <float_array id="positions_array" count="408">0.0134368455 0.0169080663 -0.0326661095 0.0259038731 0.0164523851 -0.0280794781 0.0243832432 0.0155329015 -0.0360833295 -0.0299819987 0.0282699298 -0.0273209438 -0.0371108912 0.0280009527 -0.024782151 -0.0372394063 0.0350693278 -0.036155127 -0.0300798789 0.0490024462 -0.045550447 0.00145391957 0.0249664783 0.0089970082 0.0244683493 0.0131159779 0.000928082794 0.024326032 0.0196374115 0.00208893581 0.0134560373 0.0959177166 -0.000338030164 0.0266605113 0.0955477506 -0.00536242919 0.0246418305 0.0997727513 0.00123420451 -0.0372801833 0.055693835 -0.0462210737 -0.0371545255 0.0723762363 -0.0400494933 -0.0375848189 0.0823144689 -0.0327295959 -0.0299803056 0.0708914474 -0.0423627906 -0.0300120581 0.0805587694 -0.0340502337 -0.0373132303 0.0742410794 0.00674798992 -0.0299795642 0.0716578364 0.0100098262 -0.0371941738 0.0846666098 -0.00665748026 -0.0292276051 0.0985894352 -0.0408417471 -0.0301131457 0.0842049792 -0.00595367793 -0.0281964317 0.0137827452 0.00700828154 -0.00274810893 0.0289799403 0.0230515637 -0.0282313377 0.037802279 0.0280404054 -0.0279923715 0.102170952 -0.0320514627 -0.0033471752 0.101709262 -0.033704523 -0.00252669863 0.0109547721 -0.0336765721 -0.00274504395 0.00727534667 -0.0132621359 -0.0283350386 0.0114360349 -0.0333458669 0.00228219479 0.0135825593 0.000231508719 0.0264294632 0.0174915474 -0.00470007956 0.00246878178 0.0385542251 0.02739143 0.0241033379 0.0375401974 0.025835773 0.0256350208 0.0441491082 0.0229486059 -0.0108414013 0.0114598442 -0.0359285139 -0.0296587907 0.0156452172 -0.0429334641 -0.0103800567 0.0207721461 -0.0500028469 0.00240172422 0.100716256 0.00125699816 0.0242387187 0.0934140086 0.00219584024 -0.0125701837 0.00399583951 -0.0295231268 0.00464492803 0.00539252115 -0.0319945589 -0.0166739747 0.000200585928 -0.0280674584 0.00798795652 0.000553816091 -0.0310128145 -0.00240942114 0.00348416413 -0.0281694997 0.00922770705 0.0153631493 -0.0438494906 -0.00679458957 0.036088191 -0.0617432483 -0.0300574563 0.0412241742 0.00950369425 -0.0301490147 0.0283529032 -0.00796879176 -0.0293903798 0.00924781151 -0.00449743681 -0.0371354036 0.0556739941 0.0126397302 -0.0371834263 0.0370217226 0.00557380123 -0.0280085579 0.0998037457 0.00482234638 -0.0296257492 0.10396298 -0.00506167952 0.00249165297 0.0383989364 -0.0607272089 0.0187542718 0.0395896696 -0.0578623302 0.0258288607 0.0362640247 -0.0521968417 -0.0295747742 0.0822605491 0.0249538217 -0.0031106954 0.100879058 0.0033777596 0.00235994859 0.0749550164 0.0277481489 -0.00310397125 0.081196934 0.0250073988 -0.00028653015 0.0669557005 0.030900823 0.00118520937 0.0150501588 -0.0166066568 0.00313570513 0.00568211824 -0.0131042209 0.00671519479 0.0357481577 -0.0625676662 0.00234029233 0.0222511049 -0.0508724302 -3.39122089e-05 0.0663846433 -0.0640635714 0.00110663834 0.0548697822 -0.0558709987 0.00081880152 0.0836795121 -0.0565881543 0.00258616125 0.0743243396 -0.059827134 0.00117963925 0.0950318277 -0.0457048342 0.00146437564 0.0857744813 -0.0457043163 0.00149423047 0.104979239 -0.0183567498 0.00273896917 0.0999702662 -0.0341703445 0.0262762997 0.0211965051 -0.0361765586 0.00237737363 0.0360640995 -0.0519171245 0.0242979545 0.00162618223 -0.0219646189 0.0133622801 0.0172145795 -0.000228097066 0.0259937253 0.0446833782 -0.0554566719 0.0134022236 0.0730234385 -0.0554405674 0.0246831384 0.0736526772 -0.0601004623 0.0263311006 0.0761913061 -0.0522570685 0.0134855341 0.095711045 -0.0328735411 0.0267382972 0.0959450901 -0.027085105 0.0261039026 0.092708379 -0.035994865 0.0242340546 0.0999434218 -0.033841107 -0.00548387691 0.0413000621 0.0304467902 0.0266261008 0.0681734532 -0.0544771776 0.000845992239 0.0559918769 0.0227376353 0.00711619388 0.0338212475 0.0309339371 0.0014712034 0.0916995332 0.0166973956 -0.00251452439 0.0037493147 0.0151584893 -0.00257472601 0.0174406562 0.0121974871 -0.0156391785 0.00429477775 0.0131167537 0.00245981338 0.0360551663 0.0188998543 0.0261482093 0.0773132518 0.018458508 0.00257137278 0.0770558938 0.018691523 0.0132693285 0.0402491614 0.0229115915 0.0261665918 0.0371669792 0.0191936195 0.0270224623 0.0282379948 0.0114242695 0.0147175472 0.0733401179 0.0230061077 0.0262281634 0.0679873675 0.0216787998 0.0248113591 0.0739530325 0.0267251246 -0.010499387 0.00208586245 0.00167441217 -0.00763720879 0.000287697185 0.0311796628 -0.0320262387 0.00186507381 -0.00844152551 -0.0288966056 0.00183655613 0.0150936535 -0.00190791348 0.00287139625 -0.00986224972 -0.037241783 0.0278784819 -0.00886166096 -0.00276812306 0.0116183404 0.00118267804 0.00192446809 0.0130672669 -0.0365322791 0.0152342431 0.00455493201 0.0125405947 0.00262256665 0.00379034993 0.015086255 0.00227550603 0.00396620436 0.0284464955 0.0089776963 0.00305270171 0.0302962624 0.0265453551 0.00123430288 0.0200401675 0.0322283804 0.0017936693 -0.0051117884 0.0104698939 0.00188638887 -0.00297583384 0.000892221229 0.0027855325 0.0101977391 -0.0279815998 0.0374873728 -0.0608423986 -0.0280926749 0.0758681074 -0.0608145818 0.00113537721 0.0139893908 0.0322811417 0.00245881383 0.0899093375 0.00637468789 0.00258855941 0.0151832374 -0.0293905567 0.0280694216 0.0902872607 -0.0145677226 0.00187245081 0.0253367741 -0.0418311283 -0.0277518388 0.0736126453 0.0283187348 0.00199307944 0.0958012491 -0.0120717045 0.00273566321 0.0164083634 0.0132382344 -0.00242859591 0.004054619 0.0287875962 -0.012996749 0.0038165783 0.0292579979 -0.00141483801 0.0036069958 0.0411856733 0.0025455181 0.0958578438 -0.0268231519 0.0279855281 0.026497351 -0.00299823214 0.0281105116 0.0336133316 -0.0418194048</float_array>
          <technique_common>
            <accessor source="#positions_array" count="136" stride="3">
              <param name="X" type="float" />
              <param name="Y" type="float" />
              <param name="Z" type="float" />
            </accessor>
          </technique_common>
        </source>
        <source id="normals">
          <float_array id="normals_array" count="987">0.0837257355 0.988049567 -0.129414171 0.00707852887 -0.925257504 -0.379273623 -0.0354169458 -0.976007402 -0.214837536 0.195626169 -0.692886353 -0.694002092 0.284786195 -0.632217824 -0.720553577 0.0197838321 -0.536169589 0.843878388 0.155375198 -0.331799746 0.930466294 0.249896884 -0.164401993 0.95421356 0.194757074 -0.797814012 0.570580781 -0.30857861 -0.417694956 -0.854581833 -0.173596859 0.491135389 -0.853610098 -0.0358591042 0.630203664 -0.775601327 -0.10523501 0.430981845 -0.89620322 0.0189368092 0.651898205 -0.758069992 0.00498414738 0.789347768 0.613926113 0.00032466292 0.788380444 0.615187883 -0.00668599876 0.786889017 0.617058337 0.0990049168 0.987562954 -0.122137196 0.185872853 0.977686405 -0.0978805646 0.209834874 0.973495662 -0.0909696147 -0.996157885 0.0754805654 -0.0444083698 -0.998304605 0.0363807641 -0.0454346351 -0.997543693 0.0501213484 0.0489324071 0.0771859512 0.988761187 -0.128037512 -0.0224496592 -0.835326612 0.549295425 -0.0480674654 -0.62015003 0.783009231 -0.0814019814 -0.361190617 0.92893219 0.00348015409 0.975373745 -0.220531166 0.0847370178 0.943716764 -0.319715947 -0.0250420514 0.820776582 -0.570700169 -0.0205778629 -0.984731555 -0.172859371 -0.0282383375 -0.998827517 0.0393208899 -0.0606521368 -0.965471089 -0.253351271 0.119471744 -0.974918962 -0.187775344 0.0667796806 -0.966539025 -0.247674644 0.00264016911 -0.789923549 -0.613199651 0.112960652 0.28752169 0.951089442 0.0840899125 0.382478535 0.920129895 0.0668766573 0.2277973 0.971409261 -0.0660880655 -0.891047716 -0.449072719 -0.059160687 -0.80378902 -0.591965616 -0.0278564524 -0.697709441 -0.715839088 0.0867253095 0.377861351 0.921791494 0.0300082918 0.458330929 0.888274908 0.00733755762 0.14907147 0.988799214 -0.100622438 -0.383924216 -0.917865634 -0.0965198651 -0.529212892 -0.842981398 -0.116107337 -0.250273317 -0.961188018 -0.110354334 -0.270297378 -0.956431508 -0.999508917 -0.0271830093 -0.015589755 -0.116056055 0.627180219 0.770179152 -0.117149591 0.628175318 0.769201994 -0.157665938 0.663872302 0.731036961 0.00297859102 -0.719348609 -0.694642842 -0.0470809452 -0.368551493 -0.928414345 -0.995755553 -0.0266736094 0.0880871341 -0.998868823 -0.0474728085 0.0027141727 -0.998078644 -0.0580593981 0.0216369871 -0.293793857 -0.337960988 0.894129515 0.376917034 -0.0163664334 0.9261024 -0.303713262 0.285527945 0.908973098 -0.994140625 0.0472750254 0.0972084105 -0.99703747 0.0389075242 0.0663516223 0.032108672 -0.945361078 -0.3244403 0.270542443 -0.643819869 -0.715753317 0.192509875 -0.666477799 -0.720241189 0.219670728 0.139609665 -0.965532959 0.136753932 0.181542963 -0.973827779 -0.00323599717 0.578326643 0.815798879 0.0717645213 0.905357897 0.418541461 -0.00566762825 0.846469998 0.532406271 0.0238491334 0.419352829 0.907509983 0.0804536045 0.511282027 0.855638921 -0.052418001 0.174121365 0.983328104 0.978282511 0.204185218 0.0356614254 0.999793053 -0.00415499695 0.0199147686 0.987104297 0.157911181 0.0262509603 0.256623089 0.750448823 0.609074056 -0.0854600891 0.668141544 0.739109933 -0.00513454154 0.711403549 0.702764928 0.571909487 0.423420399 0.702591419 -0.0623548664 -0.0623740777 -0.996103108 -0.0191096608 0.150923952 -0.988360643 0.959577501 0.219964445 0.175575227 0.00385173317 0.560957611 -0.82783556 0.316403508 0.363186747 -0.876347065 0.980175376 0.17551738 -0.0919235423 0.991826952 0.0304995347 -0.123891354 0.993931413 0.0628317222 -0.0902915895 -0.00181437342 0.998788774 -0.0491701923 0.232612029 0.907668531 -0.349327236 0.153477639 0.932353437 0.327355623 0.28780061 -0.0804881528 0.954302073 0.00111504819 -0.855428517 -0.517919719 -0.0772389099 0.590809047 0.803105712 0.472078204 0.149897844 -0.868719041 0.204864413 0.736863971 0.644253075 0.494857967 -0.322164893 -0.807047307 0.165274575 -0.947970152 0.2720972 0.135080233 0.928162158 -0.346797258 0.259011954 -0.786088526 -0.561228693 0.136831552 0.284150839 -0.94896543 0.0830093846 0.148063987 -0.985487938 0.151619539 0.237637833 -0.959447622 0.17955257 -0.237761557 0.954583824 0.021430634 0.792975366 -0.608876646 -0.127841085 -0.114542522 0.985158205 0.223182157 0.735578001 0.639620721 0.167685047 0.268801481 -0.948486924 0.964127243 0.215244949 -0.155332968 0.00870172959 0.742022336 0.670318723 -0.141860485 0.208647668 0.967647552 -0.0246534012 -0.95901984 0.282264382 -0.011165984 -0.970076144 0.24254401 0.0316567905 -0.992996633 0.113822624 0.007231839 0.96465838 0.263404369 0.0263952259 0.837176919 0.546294928 -0.00465740077 0.871179044 0.490943372 0.237636909 0.971163332 0.0192473605 0.136062503 -0.422914952 -0.895896137 0.19081986 -0.158598363 -0.968728185 0.144854099 0.939129114 0.311534643 0.16607596 0.176329106 -0.97021997 0.650120914 -0.643091083 0.404693216 0.468677729 -0.790156186 0.394961178 0.301661283 -0.878246188 0.371058136 -0.061725758 -0.679178298 -0.731373191 0.253111839 0.317705482 0.91378206 0.18290399 -0.920729458 -0.3446787 0.783790767 0.484880894 0.388023943 0.0523016229 -0.997115314 -0.0550051704 0.123483978 -0.992106557 0.0218243152 0.016486017 -0.999691904 0.01855666 -0.0797283128 -0.996772349 0.00939421356 -0.0186930187 -0.997694731 0.0652363077 0.0343663432 -0.992451489 0.117724247 -0.00625011511 0.987568438 0.157065243 0.0330274962 -0.967270076 0.251590461 0.0443555415 -0.950184464 0.308515906 -0.0376747735 -0.611374676 0.790443897 0.0244502462 -0.925795615 0.37723285 -0.0348027796 -0.98379612 0.175880402 0.430761397 0.644166529 0.632055521 0.487951249 0.565897346 0.664577901 0.14839457 0.987010598 0.0615558587 -0.0634800643 0.997873604 -0.0147836041 0.0422018133 0.996564031 0.0712682828 0.127987906 0.983441532 0.128303692 0.212288991 0.971022785 0.109763794 0.165958568 0.985901654 -0.0213453099 0.163378149 0.986169696 -0.0278739445 -0.750806272 -0.572734654 0.329036415 -0.0988374576 0.985332072 -0.139110953 0.166156739 0.984626651 -0.053872548 0.188225538 0.982125819 -1.83368338e-05 0.936543882 -0.13685292 -0.322733313 -0.0912684426 -0.335479826 -0.937615812 -0.0707361475 0.368740499 -0.926837027 0.0285721309 0.0125301434 0.999513209 0.140064344 0.0250004437 0.989826739 0.682780325 -0.0499748252 -0.728912592 0.270466298 0.0363015644 -0.962044775 0.342521399 0.0227181539 -0.93923533 0.992882133 0.0885638818 0.0796335042 0.995930433 0.0716164336 0.054714486 0.994825363 0.0619401895 0.0805353746 0.998669386 0.0399706848 0.0325857177 0.108201846 0.0140468143 0.994029701 0.0542071834 -0.293910235 0.954294682 0.00603589276 -0.644979596 0.764175951 0.136807337 -0.341381878 0.92991513 0.0506931618 0.592438757 0.804018974 0.712252021 -0.0571964644 -0.69958967 0.0796678066 -0.993912101 0.0761037469 0.0457032137 -0.988502204 0.14413406 0.0521367565 -0.969303548 0.240275592 0.106806487 -0.9898808 0.0934255794 -0.0101723718 0.786131203 0.617975891 -0.987147927 -0.0815345123 0.137445077 -0.960348606 -0.248645082 0.126119688 -0.977665007 -0.173686996 0.118338436 -0.957849026 -0.246685132 0.147213057 -0.953158438 -0.281156868 0.111533724 0.989975452 0.117255427 0.0787383318 0.999037027 0.02172748 0.0381175838 0.997760177 0.0130908322 0.0655993819 0.994365454 0.105562329 0.0096892938 0.0148081305 -0.705041349 -0.709011555 0.0353455059 -0.727487862 -0.685209513 -0.187301487 0.867541075 0.460750043 -0.858304262 0.505961657 -0.0855370685 -0.000761825358 0.970134377 0.242567033 -0.00675577065 0.859465241 0.511149526 0.000376927521 0.87003231 0.492994577 -0.98979938 -0.0697989464 0.124198765 -0.997058332 0.0140023455 0.0753568709 0.0445704199 0.988886535 -0.141833976 0.0363415815 0.96702379 -0.252079815 0.99891901 -0.0375894979 -0.0273457263 0.999752879 0.019019587 0.0115103861 0.998158038 0.057451345 -0.019489903 0.987511754 0.121291786 0.100542806 0.999647737 -0.00514674746 0.0260357149 0.992075562 -0.120811298 0.0345067605 0.994778275 -0.0959445685 0.0347974934 0.119615264 0.701290548 -0.702768683 0.111053862 0.563062191 -0.818918765 0.0725987926 0.546869695 -0.834064126 0.0240182113 -0.694115162 0.719463229 0.0213648044 -0.655104041 0.755236566 0.0164253656 -0.663608253 0.74789989 0.0191041231 -0.687738001 0.725707591 -0.0154417148 -0.77975297 0.625896871 0.0458628349 -0.996475458 0.0702373683 -0.164679632 0.0950069427 -0.9817608 0.0611917377 0.984788775 -0.16262427 -0.0453456193 0.0407449119 -0.998140097 0.0150228273 0.288843513 -0.957258463 0.146617666 -0.796791792 0.586196303 0.117586143 -0.807528377 0.577989101 -0.804584384 0.487929225 0.338480413 0.0598598942 -0.99726665 0.0433128625 0.171394452 -0.962003052 0.212541834 -0.000812435232 0.968848169 0.2476542 0.00450826064 -0.996909857 0.0784248933 0.0224612169 -0.99929601 0.030050287 -0.0356480293 -0.999169767 0.0197224412 -0.00488061225 -0.999968171 -0.006310103 -0.049475763 -0.998685122 0.0134225208 0.00818724837 -0.999958336 0.00403733971 -0.998107135 -0.0580885261 0.0201955419 -0.999947488 -0.0095691001 0.00367294881 -0.999999404 -0.000417363859 -0.00103384163 -0.999999225 -0.00113724393 0.000474753528 -0.999996245 -0.00273023546 0.000181162352 -0.999932706 0.00343197305 0.0110825133 -0.999981284 -0.00444488507 0.00420252746 -0.999458849 -0.031786181 -0.00846166443 -0.999999881 -0.000424573984 0.000193395506 -0.99999404 0.0013717846 0.00317323417 -0.554720342 -0.467793077 0.688080668 0.452510387 -0.889240801 -0.0669712946 0.976003885 0.217746049 -0.001763087 0.95636338 0.24372603 -0.161141947 0.979151368 0.202860162 0.0105033694 0.090983212 0.91883862 -0.384002209 0.999087036 0.00801414531 0.0419628434 0.999741733 -0.000966676685 0.0227042604 0.998801529 0.0141554549 0.0468518622 0.999920249 -0.00173818495 0.0125097279 -0.267832607 0.0312700272 0.962957859 0.970888436 0.217876434 -0.0995262042 0.988716722 0.030402597 -0.146679863 0.0888547525 -0.344005346 -0.934754074 0.172286034 -0.172952384 -0.969744802 0.0617383458 -0.395500213 -0.916388571 0.998890221 0.045179449 -0.013307537 0.997975767 0.0605629198 0.0194037277 0.998828113 0.0266011413 -0.0404322967 0.117598318 0.0492006503 -0.991841674 0.0868069306 -0.0623463131 -0.994272351 0.161344662 -0.2084319 -0.964636743 -0.182640031 0.983161747 -0.00596308708 -0.176599562 0.983614028 0.0362774655 -0.132231534 0.988132238 -0.0781636387 -0.0813781098 0.985397398 -0.149564475 0.0811634883 0.966387808 -0.243940681 -0.128821403 0.991247475 0.0288694482 -0.0655432791 0.997036874 0.0402680002 0.00748136593 0.999931335 0.00901731197 0.0450318828 0.998728573 -0.0226563215 0.897447109 -0.116168931 0.425550729 0.660604358 0.533407271 0.528278828 -0.0321910679 0.223697647 0.974126816 0.030788308 -0.739523947 0.672425807 0.134873778 -0.932018399 0.336378962 -0.997329414 -0.0440408289 0.0582615547 -0.994879663 -0.0222624373 0.09858419 -0.978110969 -0.137881711 0.155844554 -0.99768734 -0.0678794831 0.00351077761 -0.994460642 -0.100102045 0.0320558026 -0.998089314 -0.0617394447 0.00245055067 -0.994522691 -0.00574892387 -0.104362451 -0.992038608 -0.014668026 -0.125076964 -0.994942009 0.045682732 -0.0894621834 -0.995127797 0.0220899154 -0.0960867852 -0.92272377 0.0169028658 0.385091037 0.210925847 -0.0865293667 -0.973664701 0.0763137639 0.828435957 -0.554860413 0.11492534 0.818821549 -0.562426388 0.0249963384 0.949559212 -0.312589914 0.921367824 -0.166376442 0.35128364 0.998772979 0.023142986 0.0437830351 0.142570347 -0.460368246 0.876204729 0.996431649 0.0659351572 0.0526924506 0.996446133 0.0595531873 0.0595699213 0.998408496 -0.0139685208 0.0546381958 0.997564077 -0.0547463 0.0432289764 0.998912394 0.0188230108 -0.0426587798 0.985441685 -0.110283561 -0.129391849 -0.999049127 -0.0183418505 -0.0395525657 -0.967412174 -0.0684985369 -0.243765533 -0.983360708 -0.0526194125 -0.173876137 -0.999975145 -0.0030188465 0.00637224363 -0.999949217 -0.0100559406 0.000693993876 0.680477798 0.373534203 0.630414307 -0.317638189 0.0336108692 0.9476161 0.150672257 -0.855968654 -0.4945862 -0.660971045 0.500125468 -0.559456706 0.995109439 0.0465215184 0.0871377215 0.134103745 0.198543638 -0.970874131 0.237825692 -0.00574142206 0.971290886 0.0921211392 -0.99547112 -0.0234723371 -0.0304807648 -0.721131861 -0.69212693 0.985589206 -0.0155508853 0.168439984 0.991499126 -0.0124243433 0.129518822 0.984717667 -0.173336893 0.0168959815 0.987956226 -0.152385965 -0.026852075 0.979316413 -0.183452025 -0.0853502452 0.958644331 -0.14152658 -0.246923506 0.982379258 -0.0376686491 -0.183062956 0.989630699 0.0992663354 -0.103813916 0.992560029 0.101289339 -0.0675648972 0.998424709 0.0457347147 -0.0325027034 0.0586226247 0.921456218 0.38403368 0.224163637 0.659876287 -0.717156887 0.18768841 0.140690506 0.972100437 0.247428536 -0.254807502 0.934800625 0.0353644826 0.846440613 -0.531307459</float_array>
          <technique_common>
            <accessor source="#normals_array" count="329" stride="3">
              <param name="X" type="float" />
              <param name="Y" type="float" />
              <param name="Z" type="float" />
            </accessor>
          </technique_common>
        </source>
        <vertices id="vertices">
          <input semantic="POSITION" source="#positions" />
        </vertices>
        <triangles material="scout_1a1a1a" count="276">
          <input semantic="VERTEX" source="#vertices" offset="0" />
          <input semantic="NORMAL" source="#normals" offset="1" />
          <p>0 0 1 0 2 0 3 1 4 2 5 3 5 3 6 4 3 1 7 5 8 6 9 7 10 8 11 8 12 8 13 9 6 9 5 9 14 10 15 11 16 12 15 11 17 13 16 12 18 14 19 15 20 16 20 17 17 18 15 19 21 20 17 21 22 22 22 23 17 18 20 17 23 24 24 25 25 26 26 27 27 28 21 29 28 30 29 31 30 32 31 33 32 34 8 35 33 36 34 37 35 38 36 39 37 40 38 41 39 42 40 43 12 44 41 45 42 46 43 47 42 46 44 48 43 47 29 49 28 49 45 49 41 50 28 51 36 52 42 46 41 45 36 39 46 53 38 41 47 54 48 55 49 56 50 57 51 58 52 58 48 58 19 59 51 59 48 59 19 60 18 60 51 60 53 61 54 62 22 22 55 63 56 64 57 65 6 66 13 67 16 12 58 68 59 69 53 70 60 71 61 72 62 73 63 74 31 75 64 76 46 77 65 78 66 79 65 80 55 80 66 80 65 81 47 54 67 82 67 83 68 83 65 83 69 84 70 85 67 82 69 86 71 87 72 88 27 28 73 89 74 90 59 69 39 91 73 89 0 92 2 92 75 92 76 93 55 63 57 65 45 94 28 51 41 50 42 95 77 95 44 95 32 96 78 96 8 96 57 65 56 64 79 97 80 98 81 98 82 98 83 99 84 99 85 99 83 100 86 100 84 100 55 101 79 102 56 103 86 104 83 104 85 104 71 105 27 28 74 90 25 26 24 25 87 106 80 107 88 107 81 107 88 108 80 108 82 108 89 109 62 109 90 109 91 110 61 72 60 71 92 111 93 111 94 111 33 112 95 113 34 114 60 115 96 116 97 117 98 118 34 118 99 118 98 119 35 119 34 119 40 120 10 120 12 120 10 121 40 121 11 121 9 122 8 122 78 122 100 123 9 124 32 125 28 30 30 32 36 39 47 54 65 126 46 53 96 127 101 127 102 127 96 128 103 128 101 128 96 129 11 129 40 129 104 130 105 131 106 132 105 131 107 133 106 132 108 134 104 130 106 132 108 134 106 132 43 135 14 10 16 12 13 67 54 136 73 89 27 28 109 137 4 2 49 138 7 5 31 139 8 6 110 140 50 141 29 31 38 41 42 46 36 39 46 77 66 79 111 142 111 142 42 143 46 77 112 144 113 145 114 146 112 144 114 146 115 147 115 147 116 148 112 144 112 144 116 148 117 149 112 144 117 149 64 150 112 151 64 151 118 151 119 152 112 152 118 152 117 149 77 153 64 150 77 153 42 154 64 150 70 155 68 155 67 155 47 54 120 156 67 82 120 156 121 157 67 82 62 73 122 158 90 159 90 160 115 161 114 162 91 163 60 164 123 165 123 165 60 164 97 166 59 69 54 136 53 70 33 36 35 38 89 167 121 157 69 84 67 82 102 168 103 169 60 170 102 168 89 167 35 38 37 40 120 156 38 41 39 42 123 171 40 43 114 162 89 172 90 160 54 136 59 69 73 89 1 173 124 174 111 175 2 176 1 173 111 175 22 177 20 16 19 15 108 178 119 179 29 180 93 181 110 182 119 179 110 182 29 180 119 179 11 183 96 184 102 185 102 185 125 186 11 183 126 187 57 65 75 188 118 189 64 189 108 189 54 62 26 190 21 20 84 191 86 192 74 193 54 136 27 28 26 27 127 194 19 195 48 55 84 191 128 196 11 197 50 141 30 32 29 31 33 198 114 199 7 200 7 200 114 199 129 201 114 199 113 202 129 201 95 203 33 198 7 200 119 204 64 76 31 75 129 201 119 204 31 75 7 200 129 201 31 75 72 205 74 206 85 207 100 208 99 209 95 210 7 211 100 208 95 210 24 25 23 24 93 212 62 73 87 106 122 158 95 113 99 213 34 114 76 93 57 65 126 187 61 72 91 110 58 68 4 2 3 1 49 138 119 214 94 214 93 214 94 215 119 215 104 215 87 216 130 216 131 216 58 68 91 110 59 69 120 156 47 54 38 41 85 207 74 206 86 217 49 138 48 218 52 219 105 220 132 220 122 220 115 221 132 222 105 131 133 223 84 191 74 193 21 29 27 28 71 105 44 224 77 225 118 226 77 225 117 227 118 226 44 224 118 226 108 134 43 135 44 224 108 134 117 227 116 228 118 226 118 226 116 228 119 229 116 228 115 221 119 229 115 221 105 131 104 130 115 221 104 130 119 229 15 230 14 231 20 232 20 232 14 231 18 233 18 233 14 231 5 234 14 231 13 235 5 234 18 233 5 234 51 236 5 234 4 237 109 238 51 236 5 234 109 238 109 238 52 239 51 236 107 240 105 240 131 240 64 241 119 241 108 241 110 140 23 24 50 141 42 242 111 243 124 244 64 76 42 242 63 74 63 74 42 242 124 244 11 197 128 196 39 245 66 246 76 247 126 248 66 246 55 249 76 247 87 106 105 250 122 158 70 251 69 86 72 88 71 87 74 252 72 88 126 253 2 254 111 255 128 256 73 257 39 258 96 116 40 43 123 171 69 84 21 29 71 105 68 259 88 260 79 102 46 53 42 46 38 41 70 261 88 260 68 259 37 40 36 39 30 32 106 262 107 263 29 264 41 265 106 262 29 264 45 266 41 265 29 264 29 264 107 263 94 267 131 268 130 269 94 267 94 267 130 269 92 270 107 263 131 268 94 267 29 271 94 271 104 271 108 272 29 272 104 272 61 72 127 273 62 73 100 208 7 211 9 274 32 125 9 124 78 275 91 110 39 91 59 69 58 276 53 61 19 195 19 195 53 61 22 22 54 62 21 20 22 22 127 194 58 276 19 195 25 277 127 194 48 55 23 278 25 277 50 57 25 277 48 55 50 57 49 56 3 279 30 280 50 57 49 56 30 280 30 280 3 279 37 281 3 279 6 282 37 281 6 282 120 283 37 281 6 282 16 284 121 285 120 283 6 282 121 285 16 284 17 21 121 285 21 20 121 285 17 21 114 286 33 286 89 286 2 254 126 253 75 287 72 205 85 207 82 288 70 289 72 205 82 288 82 288 81 290 70 289 89 291 60 291 62 291 79 102 55 101 68 259 111 292 66 246 126 248 35 293 98 293 99 293 52 219 109 137 49 138 128 256 133 294 73 257 133 294 74 295 73 257 100 296 134 297 88 298 100 296 88 298 125 186 102 185 100 296 125 186 134 297 135 299 88 298 130 300 87 301 24 302 92 303 130 300 93 304 130 300 24 302 93 304 122 305 132 305 115 305 58 68 127 273 61 72 87 106 131 306 105 250 0 307 75 307 1 307 43 308 106 308 41 308 123 165 39 309 91 163 127 273 25 26 62 73 25 26 87 106 62 73 133 223 128 196 84 191 21 29 69 84 121 157 129 310 112 310 119 310 115 311 90 159 122 158 102 168 60 170 89 167 63 312 1 173 32 34 31 33 63 312 32 34 88 313 70 313 81 313 110 140 93 212 23 24 35 314 99 315 102 185 102 185 99 315 100 296 32 316 134 297 100 296 32 316 1 317 134 297 134 297 1 317 135 299 1 317 75 318 135 299 75 318 57 319 135 299 57 319 79 320 135 299 88 298 135 299 79 320 85 321 84 322 88 298 82 323 85 321 88 298 125 186 88 298 84 322 125 186 84 322 11 183 103 324 96 116 60 115 63 312 124 174 1 173 101 325 103 325 102 325 113 326 112 326 129 326 68 327 55 327 65 327 11 197 39 245 12 328 123 171 97 117 96 116</p>
        </triangles>
      </mesh>
    </geometry>
  </library_geometries>
  <library_visual_scenes>
    <visual_scene id="scene">
      <node id="left_shoulder_pitch_link">
        <instance_geometry url="#geometry">
          <bind_material>
            <technique_common>
              <instance_material symbol="scout_1a1a1a" target="#scout_1a1a1a" />
            </technique_common>
          </bind_material>
        </instance_geometry>
      </node>
    </visual_scene>
  </library_visual_scenes>
  <scene>
    <instance_visual_scene url="#scene" />
  </scene>
</COLLADA>