<?xml version='1.0' encoding='utf-8'?>
<COLLADA xmlns="http://www.collada.org/2005/11/COLLADASchema" version="1.4.1">
  <asset>
    <created>2026-09-14T00:00:00Z</created>
    <modified>2026-09-14T00:00:00Z</modified>
    <unit name="metre" meter="1" />
    <up_axis>Z_UP</up_axis>
  </asset>
  <library_effects>
    <effect id="scout_1a1a1a_effect">
      <profile_COMMON>
        <technique sid="common">
          <lambert>
            <emission>
              <color>0 0 0 1</color>
            </emission>
            <ambient>
              <color>0.05 0.05 0.05 1</color>
            </ambient>
            <diffuse>
              <color>0.1 0.1 0.1 1</color>
            </diffuse>
          </lambert>
        </technique>
      </profile_COMMON>
    </effect>
  </library_effects>
  <library_materials>
    <material id="scout_1a1a1a" name="scout_1a1a1a">
      <instance_effect url="#scout_1a1a1a_effect" />
    </material>
  </library_materials>
  <library_geometries>
    <geometry id="geometry" name="left_shoulder_yaw_link">
      <mesh>
        <source id="positions">
          <float_array id="positions_array" count="747">-0.0292932391 -0.0157009792 -0.174824104 -0.0292988587 -0.0205057245 -0.203924894 -0.0285068713 -0.0209853277 -0.189574391 -0.0276066326 -0.01990797 -0.169852749 -0.0188186858 -0.0209100451 -0.16981943 -0.0198885854 -0.027177142 -0.164935827 -0.0254016388 -0.0226336475 -0.165927455 -0.0132883517 -0.0228885114 -0.16235128 -0.0232647397 -0.0163451135 -0.130820096 -0.0185561329 -0.02202476 -0.131154209 -0.0209987834 -0.0176821761 -0.0940731019 -0.0180243813 -0.0220503788 -0.0643114522 -0.014295321 -0.0233792774 -0.113957308 -0.0240663011 -0.0173253436 -0.0466712043 -0.0140234632 -0.0261071958 -0.042084001 -0.0219192393 -0.0224826392 -0.0228256881 -0.0256144442 -0.019229902 -0.000491322367 -0.0162317306 -0.0274395216 -0.000367924193 0.0490959845 0.0220366754 -0.203818783 0.0661222488 0.0204090215 -0.203337103 0.0646007434 0.015771566 -0.206567228 -0.0280731078 -0.0106527321 -0.206000298 -0.0146488035 -0.0113555649 -0.205578089 -0.014529177 -0.0164213479 -0.203819573 -0.0248955525 -0.00881989207 -0.126048923 -0.0255872384 -0.0103551829 -0.0675523281 -0.0300099477 -0.00879506767 -0.0053929016 0.0203013271 0.0167370215 -0.246060908 0.0248023849 0.0159800127 -0.229025438 0.0272744 0.0148993414 -0.24532181 -0.0280111674 -0.0138152353 -0.000108479275 -0.0117034642 -0.0171995852 -0.199891433 -0.00968067721 -0.0191552695 -0.204768419 0.00350705814 -0.00328379474 -0.00876982044 -0.00324611808 0.00323674292 -0.00940935779 -0.00335024646 -0.00338473311 -0.00842925999 -0.0119611584 -0.028652424 -0.15830332 -0.0025619138 -0.0208653249 -0.156555176 -0.00991733186 -0.0259070806 -0.128774881 -0.0033819247 -0.0278827846 -0.15325895 -0.0090596145 -0.0244882014 -0.0889101923 -0.0103751943 -0.0250082761 -0.0738800988 -0.00625838479 -0.0255303122 -0.0696366206 -0.00939323287 -0.028432589 -0.0286978204 -0.00537912128 -0.0301449765 -0.000969396438 -0.00871624984 -0.0106779719 -0.210445166 -0.00513112778 -0.0177757069 -0.21375373 -0.00113568257 -0.0109043559 -0.220294684 0.00173217198 -0.0180499628 -0.220610201 -0.0111675914 -0.0118999351 -0.199478284 0.0239997655 -0.0280000325 -0.197999582 0.021870615 -0.0277281664 -0.201554984 0.0239997078 -0.0280000716 -0.198000506 -0.00581501098 8.29927449e-05 -0.000481188064 -0.00317152822 -0.00461568311 -0.000309310737 0.0290497597 0.0214772653 -0.138552815 0.0230491385 0.0170164853 -0.112817019 0.0274736993 0.0101875793 -0.120212294 -0.024091037 -0.00978856068 -0.220411211 -0.01874757 0.0155366007 -0.228176028 -0.0169497691 -0.00993731245 -0.230836272 -0.0190068781 0.020039903 -0.0893635899 -0.0254783612 0.010584319 -0.0677805245 -0.0237749144 0.020221781 -0.0238120556 -0.0277404264 0.0156292003 -0.206788197 -0.0259445533 0.014621485 -0.216667593 0.00615565665 0.0152895711 -0.244515523 0.0176925082 0.0179222263 -0.228890777 0.0155365355 0.0162132438 -0.245946527 -0.0238542818 0.0160776675 -0.134565696 -0.0289643146 0.0186289977 -0.17525579 -0.0256844647 0.0107907653 -0.138104394 -0.0241666622 0.0122480448 -0.106457271 0.0654245913 -0.0201007407 -0.204036608 0.0651440844 -0.0102530932 -0.20804064 -0.0269159786 0.0176192559 -0.000861895795 -0.0291140955 0.00904893037 -0.0198531691 -0.0288081989 0.0128987487 -0.000793131476 -0.0249513853 0.021506656 -0.168907344 -0.029070938 0.0207214393 -0.203405023 -0.0253152922 0.0223335642 -0.163511992 -0.0195224769 0.0258570295 -0.165949598 -0.0186516438 0.0276375879 -0.162427336 -0.0161815025 0.0217369162 -0.167747185 -0.0188558325 0.0238973722 -0.141552374 -0.0172582567 0.0225209314 -0.122279026 -0.0181505308 0.025183009 -0.0253735241 -0.0196885988 0.0250115041 -0.000526581309 -0.0137622887 0.0284634996 -0.000623054453 -0.0154211484 0.0171998292 -0.232122093 -0.0112004094 0.0155561464 -0.23569496 -0.00217003468 0.0143982796 -0.241550893 -0.00443397136 -0.00997708831 -0.240291342 -0.00164751126 0.00532268034 -0.000314038305 -0.00433951197 0.0176900029 -0.221053571 -0.0061706542 0.0161483642 -0.216096476 -0.000808612327 0.0163455419 -0.222519368 -0.00643492071 0.0235523712 -0.212502927 0.00175047398 0.0235071629 -0.221450627 -0.0115214903 0.0164132081 -0.206459537 -0.0118808653 0.0216248818 -0.188676268 -0.00789085776 0.0239008088 -0.185980752 -0.0119795091 0.0216574445 -0.203651413 0.000154522379 0.0217154603 -0.171118051 -0.0128673734 0.0234769881 -0.161620885 -0.00736533524 0.0275017284 -0.155840069 -0.00116246915 0.0217143409 -0.156010509 0.00637164386 0.0238690451 -0.172059491 -0.0118674831 0.02810858 -0.153559551 0.000102301921 0.0278310012 -0.15170297 -0.00879748259 0.0251645464 -0.11549814 0.0114609953 0.0246710386 -0.109779537 -0.00914900657 0.0251703616 -0.0752793178 0.00928001571 0.0259885769 -0.060112413 -0.00930724014 0.0300103184 -0.00511105172 0.00992180407 0.0291351136 -0.0199843384 -0.0148366597 0.0235961638 -0.0709524453 0.0127260191 0.0285662822 -0.000509343226 0.0115635386 -0.022346532 -0.19948329 0.0137897022 -0.021187393 -0.191782862 0.0142379068 -0.0215367991 -0.203951612 0.0148647493 -0.0282278154 -0.20157966 0.0163228493 -0.0278051775 -0.193920806 0.00888866466 -0.0186184254 -0.208389401 0.0185094066 -0.0187987667 -0.212281868 0.00642677536 -0.0263110902 -0.149723336 0.00411352189 -0.0223407373 -0.152509451 0.0143174147 -0.021921644 -0.148525655 0.0181468315 -0.0269941147 -0.142533883 0.0200580917 -0.0206479989 -0.113271669 0.0082215229 -0.0246751048 -0.0899930894 0.0134098595 -0.0256817546 -0.124397218 0.0180610493 -0.0203558896 -0.0819334686 0.0105103841 -0.0244714841 -0.0862587243 0.00984074082 -0.025536349 -0.0679081157 0.00885167997 -0.0242470838 -0.0710177422 0.0168989599 -0.0262677334 -0.0231665205 0.0162732359 -0.0273173768 -0.000103984654 0.00566773443 -0.03021577 -0.00107218965 0.00555230258 -0.0096672764 -0.244424328 0.00217918307 -0.0102201896 -0.239986986 0.0186199583 -0.00994760916 -0.246172175 0.00738623552 -0.0107810926 -0.227603093 0.00834996253 -0.0181311909 -0.225961357 0.0103172241 -0.0130315972 -0.225554615 0.0170467105 -0.0178706851 -0.227555677 0.0259538572 -0.0140293539 -0.225783959 0.0265354253 -0.0180926826 -0.227978155 0.0191068687 -0.0257558227 -0.198070183 0.023326315 -0.0210998319 -0.191352621 0.0218549017 -0.0278223641 -0.194269046 0.0220590327 -0.0219644979 -0.204298884 0.0253772195 -0.0224785078 -0.198312804 0.0240370017 -0.0280026253 -0.197999135 0.0277468618 -0.0201540273 -0.20526354 0.0040309811 -0.00394031033 -0.000459507137 0.003562083 0.00328585086 -0.00823603198 0.0226645004 -0.0258972757 -0.13863793 0.0281549934 -0.0215227865 -0.139973447 0.0424421914 -0.0215563513 -0.153024867 0.0231432244 -0.022141289 -0.127232015 0.0304806195 -0.0195414331 -0.136649504 0.0287966672 -0.0121793104 -0.125226483 0.0211913306 -0.0174113102 -0.0996419638 0.0250472073 -0.0113832699 -0.107226133 0.0262663066 -0.0169896409 -0.0236581415 0.0225667935 -0.0228157975 -0.00400419906 0.0247936975 0.0101745389 -0.0744554028 0.0301131196 -0.0052537811 -0.013950428 0.024441747 -0.00844302215 -0.0819322169 0.0275072847 -0.0158892684 -0.00018502411 0.0242899898 -0.010807476 -0.226973847 0.0335071646 -0.0127612548 -0.222097307 0.0349320471 -0.0180926081 -0.224036068 0.0374758318 -0.0110425251 -0.221912369 0.0366904885 -0.0130399931 -0.14208509 0.0231154673 -0.0145519013 -0.0746662989 0.0339881517 0.0122987833 -0.137058675 0.0420182385 0.0132637024 -0.148558035 0.0258026235 0.0191256776 -0.000877109007 0.028299436 0.0133575378 -0.000658253732 0.0274079517 0.0131353643 -0.0314486139 0.0305483658 -0.00401049992 -0.000820329995 0.0361258723 -0.0208863057 -0.145938084 0.0473194979 -0.0209869947 -0.15832673 0.0369619168 -0.00574338064 -0.242444962 0.0354521312 -0.0101128779 -0.239507407 0.0315200463 -0.00995277986 -0.244491383 0.0466632918 -0.0101874927 -0.237107232 0.0397678986 -0.0176487807 -0.21626313 0.0478257053 -0.0123671573 -0.203560069 0.046747949 -0.0196144357 -0.204506725 0.0507887378 -0.0109707518 -0.204936475 0.0363509245 -0.00388625148 -0.00782736111 0.0403733514 0.00295510562 -0.00260472251 0.0397245027 -0.00310344319 -0.00213898462 0.0621706694 -0.0210408047 -0.176461771 0.05760267 -0.0207614042 -0.170172572 0.0570222884 -0.0161584355 -0.166259646 0.052331727 -0.0209767446 -0.164442882 0.0659720302 -0.0157533307 -0.181211993 0.0561516248 -0.00977583695 -0.228103459 0.0622228943 -0.00648352737 -0.218171522 0.06008422 -0.0100258561 -0.221381098 0.00372177176 0.00402325299 -0.00057364325 0.0668236539 -0.019987382 -0.196173534 0.0104836421 0.0232171547 -0.226139829 0.00757711055 0.0163808744 -0.226387188 0.0137826176 0.0219179578 -0.14842011 0.0110827312 0.0271692537 -0.146748856 0.0213931315 0.0266376194 -0.13983193 0.0136770913 0.0232863557 -0.0848936364 0.0167135075 0.0238509849 -0.0536704138 0.0247092396 0.00849686377 -0.0983158648 0.0208622273 0.0174602345 -0.0835966244 0.022769535 0.0183317605 -0.0522083081 0.0298763439 0.00582447974 -0.0137425652 0.0307521801 0.00417816918 -0.000858185987 0.0339636393 0.00349669834 -0.0100441054 0.0363886505 0.0158994067 -0.223508924 0.0290946048 0.0235907342 -0.224794582 0.0294598937 0.0216895379 -0.167965218 0.0264524277 0.0239447765 -0.171060935 0.0194245093 0.0227303412 -0.121668532 0.0351462401 0.0199736543 -0.143717974 0.019571621 0.0196946282 -0.10335061 0.019184649 0.0256021246 -0.000844816444 0.0406144336 0.0151616773 -0.240805209 0.0491758734 0.0153944707 -0.23515363 0.0396174677 0.0182944033 -0.220019996 0.0539101511 0.0168348532 -0.230510935 0.0376368985 0.0233664401 -0.219588771 0.0437814109 0.0160941184 -0.214914188 0.0438192151 0.0235665571 -0.211487845 0.0477613918 0.0165684447 -0.206784621 0.0429872349 0.0239049513 -0.182394207 0.0477594398 0.0216352139 -0.184195146 0.0524009392 0.020304732 -0.162819549 0.0615147054 0.0213663429 -0.176176131 0.0643629208 0.0141415438 -0.212775931 0.060581442 0.0151524749 -0.221395746 0.0612129606 0.0146545963 -0.171695709 0.0663333088 0.0195315126 -0.18519859 0.0220285375 0.0224069674 -0.0236485414 -0.00872348435 -0.0113865612 -0.0715227574 0.00874277856 -0.0112303765 -0.0716422945 -0.00863772724 -0.0113251116 -0.0887573808 0.00861519575 -0.0113865575 -0.0885368213 -0.0268048923 -0.00910131261 -0.213734269</float_array>
          <technique_common>
            <accessor source="#positions_array" count="249" stride="3">
              <param name="X" type="float" />
              <param name="Y" type="float" />
              <param name="Z" type="float" />
            </accessor>
          </technique_common>
        </source>
        <source id="normals">
          <float_array id="normals_array" count="1437">-0.988331556 -0.139933199 0.0601616502 -0.9979105 -0.0243152827 -0.0598619506 -0.957237244 -0.28546235 0.0469902568 -0.907982528 -0.406915545 0.0999374092 0.0739673972 -0.996565878 -0.0372190177 0.09766341 -0.994241655 -0.0441071503 0.000414540322 -0.999981344 -0.00609667599 -0.313779771 -0.549710214 -0.774184048 0.550765634 -0.610181689 -0.569504678 0.498643219 -0.584083736 -0.640469432 0.57711035 -0.498204112 -0.647098362 -0.884107888 -0.456759572 0.098610051 -0.794766009 -0.592160106 0.133016586 -0.608924448 -0.786604345 0.102296464 -0.539621413 -0.830915093 0.135605544 -0.802351177 -0.596469223 -0.0213785749 -0.57280004 -0.817924261 -0.053851191 -0.461119801 -0.886295319 0.0430020764 -0.84816426 -0.525840282 -0.0641044229 -0.388415903 -0.918769538 -0.0706795081 -0.683800638 -0.727918148 -0.0505164452 -0.815627277 -0.577989399 -0.0260837842 -0.459864289 -0.887767851 -0.0198247563 0.0422759578 0.487264574 -0.87223047 0.0763305724 0.552898765 -0.829744935 0.0674354658 0.536041081 -0.841494143 0.0540846325 -0.239481226 -0.969393432 0.0125587992 -0.327648401 -0.944716275 -0.019062778 0.0087802615 -0.999779761 -0.990277588 -0.127579361 0.0554415099 -0.97903949 -0.197565243 -0.0494943112 -0.983775198 -0.155135557 0.0901070535 0.0892821699 0.994538784 -0.054048948 0.178114533 0.958581805 -0.222252473 0.136211812 0.989658713 -0.0449657291 -0.948199034 -0.311404854 0.0628142208 0.461171567 0.872986555 -0.158793107 -0.063908346 0.0316423103 0.997453988 -0.0588192903 0.0369258113 0.997585475 0.0469374843 0.145538971 0.988238454 0.505829632 -0.414738089 -0.756391883 0.437442869 -0.45399034 -0.776232243 -0.206944481 -0.97570467 0.071932897 -0.179980054 -0.978220105 0.103405245 0.426542491 -0.441644609 -0.789310813 -0.0390472189 -0.999174356 -0.0112232156 -0.302080959 -0.952937663 -0.0256292373 -0.0491340868 -0.995979846 -0.0748999491 -0.165481657 -0.984428108 -0.0593049787 -0.117142446 -0.992126107 -0.0443112738 0.0482743457 -0.149095103 -0.987643778 -0.884344995 -0.133409843 -0.447365314 -0.794342935 -0.182101309 -0.579532921 -0.934817135 -0.0617281012 -0.349723607 -0.689713478 -0.209567472 -0.693092227 -0.646109104 -0.227138564 -0.728663921 0.836011469 -0.104313239 -0.538705468 0.83278656 -0.0956066176 -0.545276046 0.807885468 -0.035829775 -0.588249326 0.852264047 -0.15347378 -0.500091851 -0.954019129 0.0224257428 -0.298905611 -0.898069322 0.123714663 -0.422097415 0.0277606938 -0.994130671 -0.104563847 -0.0146412803 -0.987749398 -0.155360132 -0.027038496 -0.997419417 -0.0665089116 -0.0927997082 -0.995550692 0.0163398739 -0.105122961 -0.994373143 -0.0130827464 -0.131566197 -0.991019368 0.0238933153 0.935574412 0.319302797 0.150818452 0.869337142 0.491113991 0.0553168803 0.958790541 0.182609096 0.217657149 0.5331195 0.785914063 0.313245416 0.832098246 0.533725083 0.150831372 0.94701308 0.183047637 0.263931453 -0.877063036 -0.00229266309 -0.480369806 -0.804571271 0.0124689424 -0.593725204 -0.72643733 -0.00550114922 -0.687210739 -0.696454704 0.717201352 -0.0239401422 -0.967715919 0.246517226 -0.0524894148 -0.785835624 0.616079986 -0.0539240912 -0.954634666 0.00315736188 -0.297762811 -0.934244394 0.0105268322 -0.356478095 -0.926829696 0.0115429712 -0.37530449 -0.102919057 0.993551314 -0.0475755408 -0.168170527 0.981812775 0.0881043598 -0.373776615 0.913418353 -0.161114886 -0.0818399638 0.994564354 -0.0643739998 0.0464676432 0.995061755 -0.0877089575 -0.110691763 0.990193963 -0.0852249712 -0.881069005 0.463160425 0.0959157646 -0.995989084 0.0679229721 0.058243122 -0.988091111 0.125684261 0.0887658596 -0.94689554 0.321538061 0.00145779294 0.958662927 0.00314503256 -0.284526885 0.986791432 -0.00790399965 -0.161802977 0.993928432 -0.00921434537 -0.109641887 -0.843293548 0.535768569 -0.0425214395 -0.982129395 0.180519372 -0.0532410629 -0.973643422 0.228024766 -0.00482124789 -0.621282816 0.782666922 0.0379484966 -0.473569959 0.870199025 -0.135960221 -0.641938627 0.764462829 0.0592570193 -0.742881835 0.668682992 0.031458348 -0.573312879 0.788485348 -0.222717702 -0.497436821 0.867453218 0.0090277046 0.103875056 0.467292875 -0.8779791 -0.581095457 0.802206457 0.137087017 -0.585098505 0.807050705 0.0795544013 -0.529103756 0.847007811 -0.0512541011 -0.612222433 0.790329397 -0.0237291604 -0.347675174 0.935966313 0.0555787832 -0.705204427 0.00613090862 -0.70897752 0.958066523 0.0271565765 0.285256177 -0.603650272 -0.000322184525 -0.797249138 -0.435204506 -0.0061007319 -0.900310934 -0.492069721 -0.00531870499 -0.870539546 -0.293160737 0.74486506 -0.599360287 0.782540441 -0.622577727 0.00524272071 -0.00538798328 0.99976927 -0.0207926631 -0.0302558355 0.999444544 -0.013969711 -0.105894983 0.992566288 0.059987288 0.0974797904 0.984399498 -0.146476328 0.0960231423 0.985377908 -0.14074783 0.469222844 0.779147446 0.415643036 -0.800533533 0.247934923 -0.545595407 -0.588253081 0.304257095 -0.749256968 -0.786570549 0.244682431 -0.566954374 -0.554973364 0.298538446 -0.776453018 -0.016577201 0.532479763 -0.846280396 -0.0320774727 0.48782739 -0.872350574 -0.00976069551 0.551582813 -0.834063053 -0.251579642 0.967133224 0.0368916392 -0.385134518 0.900120735 0.203602552 -0.261463046 0.965061784 -0.0171127338 -0.853525937 0.193191424 -0.483911663 -0.857413888 0.182726607 -0.481095076 -0.0715164393 0.997306705 -0.016268909 -0.309662968 0.902187228 0.300278187 0.434825569 0.680469751 -0.589819968 0.173271164 0.969081998 -0.17566213 0.55700928 0.673362613 -0.486131102 0.529431462 0.624809086 -0.573860526 0.431307405 0.480177432 -0.763808608 0.241520777 0.856528223 -0.456099927 -0.0783024132 0.99385339 0.0782567039 -0.0986899212 0.99463582 0.0309815221 0.0576416999 0.987171769 -0.148893863 0.00874186028 0.995673776 0.0925058797 -0.172141761 0.983820021 0.0496529415 0.233073309 0.97026509 0.0652880743 -0.145688459 0.988899827 -0.0291885734 0.169775844 0.983660102 -0.0599079616 -0.138330907 0.986825228 0.0839076862 0.221178845 0.974113584 -0.0467188284 -0.393997103 0.917411387 -0.0558806621 0.252490193 0.967519462 0.0124431467 -0.349820048 0.93597281 -0.0397597589 -0.805964172 -0.2634314 -0.530118525 -0.844770253 -0.474164188 0.248055458 -0.778811157 -0.546742082 0.307451278 -0.838335216 -0.482116044 0.254476219 -0.894072294 -0.404432684 0.192533076 -0.111839578 -0.911765516 -0.395190477 -0.0713721961 -0.960495949 -0.268986195 -0.0124630388 -0.984348118 -0.175793707 0.363999575 -0.565484703 -0.740088761 0.368533581 -0.471859634 -0.800956607 0.429591 -0.524258316 -0.735258341 0.602763236 -0.382023156 -0.700524628 0.660808027 -0.737972736 0.136854157 0.257720977 -0.96621877 0.00110728818 0.192638099 -0.974394619 0.115955316 0.630297422 -0.775729895 -0.0311165489 0.558530271 -0.792675436 -0.244355455 -0.707536221 -0.703527629 -0.066643998 0.427045166 -0.902756155 -0.0516113713 0.124412298 -0.984331012 -0.12495628 -0.0455934368 0.998927534 -0.00806035008 -0.0294697639 0.999474406 -0.0135072246 0.447347134 -0.89412266 0.0206192937 0.131674781 -0.989607394 -0.0577836335 -0.0312806889 -0.998024464 -0.0544860065 -0.0396220237 -0.987407625 -0.153154403 -0.0254720021 -0.996045172 -0.0851187557 -0.00113915768 -0.998523891 -0.0543025844 -0.62874037 -0.247124121 -0.737302661 -0.62414223 -0.23493515 -0.745152295 0.501882613 -0.125349492 -0.855804503 -0.122978739 0.22835052 -0.965780675 -0.0340433046 0.360738486 -0.93204546 -0.182620436 0.147974208 -0.971984267 -0.0357244201 -0.635948479 -0.770904243 0.253901631 0.16565308 -0.952939153 -0.0556350462 -0.710750401 -0.701240778 -0.0209706388 -0.998856544 -0.0429632291 -0.0377858244 -0.932755411 -0.358524203 0.00813730527 -0.99878186 -0.0486684591 0.536707819 -0.841926396 -0.0557193011 0.0586349405 -0.848131597 0.526530802 0.00115254591 -0.358720869 0.933444142 -0.0397484787 -0.320916742 0.946272969 0.000839033688 -0.358435512 0.933554113 0.0561052449 -0.407672346 0.911403 -0.0602070019 -0.338524371 -0.939029515 -0.0135243554 -0.385088772 -0.922780454 -0.0192624442 -0.379464269 -0.925005853 0.145496085 -0.925340593 -0.350108147 -0.0316904671 -0.887551069 -0.459618121 0.0338837057 -0.430499345 -0.901954651 0.83535862 -0.258311719 -0.485232919 0.830765426 -0.246792465 -0.498921096 0.82994628 -0.244801313 -0.501259863 0.928370476 -0.158777848 0.33603251 0.901487768 -0.288357586 0.32275328 0.872879326 -0.265624642 0.40929842 -0.0669666156 -0.997097552 -0.0362202451 -0.0683214888 -0.997580826 -0.0128309606 -0.0695338473 -0.997551203 0.00752418488 0.823287308 -0.229226887 -0.519281268 0.845837653 -0.176629633 0.503349423 0.114598505 -0.959431171 -0.257602513 0.26065436 -0.938823342 -0.22510016 0.951385558 -0.082643427 0.296707988 -0.998923719 -0.0195585378 0.0420574173 -0.998865306 -0.0168987159 0.044525478 -0.997997344 0.0032259163 0.0631735027 0.0549544618 -0.994516969 0.0889716372 0.373322695 -0.911898553 0.170502812 0.350973517 -0.928827584 0.118730672 -0.0015035579 -0.996236324 -0.0866654888 0.437925279 -0.833519399 0.336848468 0.603665292 -0.744576395 0.284946054 0.397208244 -0.684998274 -0.610739648 0.466372639 -0.611216903 -0.63946104 0.681266785 -0.638241887 0.358500838 0.898106933 -0.279820502 0.339270473 0.861134052 -0.505538464 0.0536565147 0.953745484 -0.27806294 0.114238977 0.873731911 -0.482610911 -0.0606567301 0.703973889 -0.703041494 0.100763999 0.973426878 0.221376434 -0.0585886687 0.983679175 -0.171675071 -0.0538790934 0.988761425 -0.146412089 -0.030237345 0.896275699 -0.442368537 0.031622272 0.167637527 -0.291492999 -0.941769361 0.181493998 0.487243205 -0.85419786 0.230254725 -0.0504553728 -0.971821487 0.234769076 0.406174541 -0.883122683 0.284454256 -0.574212611 -0.767701566 0.816594243 -0.188027099 0.545728505 0.890718102 -0.450293899 -0.0621022917 0.840026021 0.240041107 0.486555785 0.766490102 0.140180379 0.62677139 0.827931464 0.560187399 -0.0268247537 0.944499075 0.327083975 -0.0306201596 0.932932496 0.354543 -0.0627394468 -0.0165802706 -0.973210633 -0.229316607 0.968611002 -0.248433128 -0.00858426746 0.565420806 -0.637789309 0.522995353 0.695142806 -0.36503619 0.619293988 0.391257346 -0.602726758 -0.695440948 0.405575037 -0.602349162 -0.687520504 0.636267126 -0.569625676 -0.520279527 0.165430695 -0.588968992 -0.791042447 -0.0937639847 0.31802246 -0.943435252 0.846975923 -0.135441706 -0.514088809 0.839043081 -0.154888585 -0.521551728 0.843421876 -0.148817077 -0.51622957 0.86722225 -0.064474158 -0.493729323 0.86285156 -0.0800608471 -0.499076635 0.156622678 -0.980381072 -0.119675696 0.317707896 -0.915913939 -0.245282233 0.0382332504 -0.998021543 -0.0499122664 0.120158352 -0.989365697 0.0819603205 0.118603535 -0.989659488 0.0806675479 0.128917664 -0.987631321 0.0892447382 0.813598871 -0.0353244208 -0.580352485 0.860559702 -0.130019858 -0.492475212 0.762219429 -0.00512100011 -0.647298515 -0.115841791 -0.992131591 -0.0474927686 -0.00238037086 -0.99965179 -0.0262795426 0.0206610691 -0.999582708 -0.0201861709 0.776941121 -0.202719703 0.596042931 0.684232056 -0.449592024 0.574189484 0.720202863 -0.394385636 0.570760667 0.857717216 -0.26499483 0.44056654 0.944219291 -0.180122882 0.275691211 0.779558182 -0.0129322344 -0.626196325 0.913327217 -0.0898138806 -0.397198766 0.877013743 -0.10460262 -0.468940496 -0.484010011 0.18373327 -0.85555619 -0.164462984 -0.0714648068 -0.983790994 -0.00889431313 0.176478252 -0.984264374 -0.135663524 -0.971679628 0.193478957 -0.215871081 -0.942763925 0.254157156 -0.0949200541 -0.982168376 0.162282109 0.161740914 -0.986725926 -0.0145530747 0.997486651 -0.0589090586 -0.0393713862 -0.239510685 -0.00878105499 -0.970854044 -0.261951208 0.00280635897 -0.965077043 -0.0880110562 -0.00178105943 -0.99611789 -0.00174918084 -0.00278444868 -0.999994576 -0.168764055 -0.0784179419 0.982532084 -0.271871507 0.264897078 -0.925156951 0.0188449826 0.371919096 -0.928073823 -0.374447942 0.211019322 -0.902917266 0.400179774 0.46829772 -0.787752151 0.452657044 0.483337402 -0.749324083 0.0311567448 0.998976529 0.0327896103 0.436976016 0.468944758 -0.767556369 0.2641339 0.952349484 0.152524501 0.563635707 0.825983405 -0.00813640468 0.518311799 0.852188349 -0.0716093406 0.0426084101 -0.00304146647 -0.999087214 0.217694938 0.00483486755 -0.976004899 0.193348259 0.000246846175 -0.981130183 0.985360861 0.159978628 0.0589137003 0.79279983 0.609098256 -0.0216267537 -0.993935227 0.00624669576 -0.109789573 0.799084127 0.596125424 -0.0780963525 0.983857512 0.171595648 -0.0507872887 0.965416133 0.258670956 -0.0325739384 0.679494858 0.0282787941 -0.733135104 0.710901558 0.0305238198 -0.702628791 0.691463232 0.0181236994 -0.7221843 -0.0624104738 0.977629423 -0.200862393 0.320100248 0.235420108 -0.91766727 0.470803261 0.30830875 -0.826613545 -0.0853992701 0.595674992 0.798672855 0.182672873 0.850132942 0.49386695 -0.0825914294 0.608176112 0.789493799 0.0498305634 0.944586694 0.324457824 0.478909612 0.517755091 -0.708925426 0.472433656 0.525599122 -0.707497001 0.559628069 0.797554195 0.225219309 0.66661185 0.458837807 0.587449193 0.606343925 0.793662369 0.0494675599 0.557966828 0.829375625 -0.0284443665 0.44440946 0.0114813205 -0.895750225 0.400778323 0.00183973636 -0.91617322 0.60190773 -0.00987107586 -0.798504651 -0.0544659458 0.992080212 0.11318285 -0.0912889317 0.992263138 0.0841441974 -0.0458465144 0.99172312 0.119930685 0.637706876 -2.09770005e-05 -0.770279109 -0.21199514 0.886132181 -0.412101716 -0.141450897 0.963996172 -0.225173265 -0.0676394999 0.990797639 -0.117238902 0.636197031 0.288718671 -0.715468287 0.679340661 0.347872287 -0.64612776 0.819584489 0.253986478 -0.513587534 0.823783219 0.20307301 -0.529285014 0.828869104 0.0965772644 -0.551043391 0.851520061 0.140110672 -0.505254984 0.325355589 0.904632032 0.275290042 0.218854874 0.97568661 0.0117543666 0.0655373931 0.997800469 -0.00995094702 0.209283695 0.975540578 0.0672381595 0.631080389 0.566675246 0.529732764 0.0855098292 0.99626714 0.0118282456 0.753710926 0.00403025839 -0.65719378 0.672591627 0.709023893 -0.211909607 0.841815889 0.272991598 0.465641081 0.843211651 0.136574879 0.519943655 0.979696155 0.0543592647 0.192977875 0.418570787 0.907345295 0.0390253887 0.113438539 0.993513644 0.00789212156 -0.021813415 -0.995762229 -0.0893406346 0.701167345 0.710799932 -0.0559270568 -0.0415298231 -0.99891448 -0.0210981071 -0.0229610205 -0.995086014 -0.0963152647 0.0403896421 -0.993072987 -0.110338941 0.0410581939 -0.999153197 -0.00266071153 -0.0104209017 -0.416457474 -0.909095466 -0.108025283 -0.262065321 -0.958985031 0.0120125888 -0.999892771 -0.00837444607 0.0234415941 -0.999424279 -0.0245270077 -8.67441195e-05 -0.999643385 -0.0267030168 0.0246637706 -0.99896282 -0.0382750258 -0.00346355722 -0.999910891 -0.0128928926 -0.00870947633 -0.999922156 0.00893412251 -0.0236499198 -0.999333084 0.0278230067 0.974855483 0.0117045492 -0.222530544 -0.0578490645 0.234218106 -0.970461428 -0.105122969 -0.994373143 -0.0130827464 -0.00559203839 -0.133140117 -0.991081476 -0.0478511564 -0.0893376619 -0.994851291 -0.038844157 -0.0987169817 -0.994357109 -0.0868347436 -0.0484694652 -0.99504292 0.719365299 0.0328492299 -0.693854749 -0.0343803801 0.998991311 -0.0288853124 -0.0865333527 0.994832695 -0.0531023815 0.996074319 -0.0745013729 0.0478065498 0.992625058 -0.121141344 0.00450724037 0.995670736 -0.0846260637 0.0384473726 0.995749712 -0.0329131782 0.0860188305 -0.00936229713 -0.995338917 0.0959831774 -0.590594828 -0.806883335 -0.011706206 0.199670583 -0.975324035 -0.0942052975 -0.0384101085 0.469095588 -0.882311702 0.0212950204 -0.996062338 0.0860599428 0.989247799 0.00593339559 -0.146128833 -0.986317515 -0.123927966 0.108717911 -0.851373494 -0.0321556367 0.523573518 -0.972640693 -0.0660760477 0.222719729 0.0525419042 -0.997907043 -0.0376940481 0.0427361652 -0.998534024 -0.0332180709 0.0314069837 -0.998495817 -0.0449413136 0.00842595939 -0.998784363 -0.0485669114 0.00337685551 -0.998850584 -0.047813639 0.00931742508 -0.998948276 -0.0448939614 -0.0119784046 -0.999015212 -0.0427214466 -0.0377484336 -0.99883163 -0.0301730745 -0.0327684246 -0.998718202 -0.0385772772 -0.757383823 -0.605035365 -0.245564595 -0.0418071821 -0.998751462 -0.0273438338 0.0115717147 0.999927044 0.00346768531 0.00933179725 0.99995631 -0.000556557789 -0.00109983003 0.999991417 -0.00399030792 0.863610506 0.00872399658 -0.504084051 0.00275253342 -0.99999243 0.00273990072 -0.00367983151 -0.99995023 0.00927167665 0.00261498359 -0.99999243 0.00287958095 0.00891756453 -0.999954045 -0.00352084544 -0.00710165221 0.988655567 0.150032327 -0.998960197 -0.0384362824 0.0245178994 0.030916797 -0.0533429235 0.998097539 0.0623892657 -0.013585005 0.997959435 0.0182378776 -0.0692927465 0.997429669 -0.0130939716 -0.108543359 0.994005501 -0.9958781 -0.0718800575 -0.0553177446 -0.994060695 -0.0134977363 -0.107986681 0.108378902 -0.991486669 0.0721680447 -0.177980244 -0.374986619 -0.909784615 -0.966289878 0.00321169454 -0.257436574 0.0352627113 -0.982079446 -0.185139 0.041959729 -0.91814661 -0.394012988 0.00707977219 0.998779595 -0.0488789305 0.0310598481 0.259896874 -0.965136707 0.1725052 -0.975407541 -0.137193516 0.216980159 0.976169944 0.00343909697 0.326809168 0.944055319 0.0442185141 0.433816224 0.896971405 0.0851218775 0.0767336562 0.993582189 -0.0831048712 0.0059296824 0.999830902 -0.0174065288 -0.0136980126 0.996104002 -0.0871160999 -0.00540773291 0.999800384 -0.019233061 0.120413199 0.992223561 -0.0315123051 0.124929525 0.989908755 0.0668827891 0.0365082324 0.99724251 -0.0646102652 0.0683823377 0.997453809 0.0202418678 0.0479026176 0.997357309 -0.0546237044 0.134505793 0.98181349 0.133979127 0.247791618 0.946685076 0.205880299 0.0336330272 0.470140666 -0.881950438 0.0265111793 -0.00643531699 0.999627829 0.0255647283 -0.00746439956 0.999645293 0.024042286 -0.00241182698 0.999708056 0.00211239466 -0.00664878497 0.999975681 0.0160484593 -0.0193180442 0.999684572 0.0104051074 -0.0284277368 0.9995417 0.0133099677 -0.00581428828 0.9998945 0.0179861486 -0.0128594451 0.999755561 -0.00249281526 0.0198633093 0.999799609 -0.0110311965 0.0144188385 0.999835193 0.0292596053 -0.0267095752 0.999214947 -0.0348403305 -0.0254662279 0.999068379 0.00345754647 -0.000242174108 0.99999398 -0.0187028274 -0.000798727793 0.999824762 0.00198628008 0.0143921822 0.99989444 -0.0126757883 0.00011170291 0.999919653 -0.0457482524 -0.00876607746 0.99891454 0.00448066136 0.0317626894 0.999485373 0.0636131763 0.0239913464 0.997686207 0.0688411891 -0.00350846071 0.997621477 0.000324932305 0.0196149088 0.999807537 0.136021361 0.0614442937 0.988798678 0.155932695 0.0329545029 0.987217784 0.000421397301 0.00795463752 0.99996829</float_array>
          <technique_common>
            <accessor source="#normals_array" count="479" stride="3">
              <param name="X" type="float" />
              <param name="Y" type="float" />
              <param name="Z" type="float" />
            </accessor>
          </technique_common>
        </source>
        <vertices id="vertices">
          <input semantic="POSITION" source="#positions" />
        </vertices>
        <triangles material="scout_1a1a1a" count="494">
          <input semantic="VERTEX" source="#vertices" offset="0" />
          <input semantic="NORMAL" source="#normals" offset="1" />
          <p>0 0 1 1 2 2 0 0 2 2 3 3 4 4 2 5 1 6 4 7 5 7 6 7 4 8 7 9 5 10 8 11 3 3 6 12 9 13 6 12 5 14 10 15 8 11 9 13 11 16 10 15 12 17 13 18 10 15 11 16 14 19 15 20 11 16 16 21 15 20 17 22 18 23 19 24 20 25 21 26 22 27 23 28 0 0 3 3 8 11 24 29 0 0 8 11 24 29 8 11 10 15 24 29 10 15 25 30 26 31 25 30 13 18 27 32 28 33 29 34 30 35 26 31 16 21 23 36 31 36 32 36 33 37 34 38 35 39 36 40 5 10 7 9 37 41 7 9 4 8 38 42 5 14 36 43 7 9 39 44 36 40 7 9 37 41 39 44 38 42 9 13 5 14 38 42 12 17 9 13 40 45 12 17 38 42 14 19 11 16 41 46 42 47 14 19 41 46 43 48 14 19 42 47 44 49 17 22 43 48 1 50 21 26 23 28 45 51 46 52 32 53 45 51 47 54 46 52 47 54 48 55 46 52 23 56 49 57 31 58 22 59 49 57 23 56 49 60 32 53 31 61 49 62 22 63 45 64 49 60 45 51 32 53 50 65 51 66 52 67 53 68 54 69 35 70 55 71 56 72 57 73 58 74 59 75 60 76 61 77 62 78 63 79 64 80 65 81 21 82 65 81 59 75 58 74 64 83 59 84 65 85 66 86 67 87 68 88 69 89 70 90 71 91 69 89 71 91 72 92 20 93 73 94 74 95 75 96 62 78 76 97 8 11 6 12 9 13 77 98 75 96 76 97 70 99 78 100 79 101 80 102 78 100 70 99 80 102 81 103 78 100 80 102 82 104 81 103 81 105 83 105 78 105 80 102 70 90 69 89 80 102 84 106 82 104 84 106 80 102 69 89 85 107 84 106 69 89 61 77 72 92 62 78 24 29 25 30 62 78 63 79 86 108 61 77 87 109 63 79 75 96 87 109 88 110 86 108 59 75 89 111 60 76 35 70 34 112 53 68 90 113 91 114 92 115 90 116 66 116 91 116 93 117 53 117 34 117 59 84 94 118 89 119 94 118 59 84 95 120 89 119 94 118 90 121 94 118 96 122 90 121 95 123 96 123 94 123 97 124 96 125 95 126 97 124 98 127 96 125 79 128 99 129 64 130 100 131 101 132 102 133 102 134 97 124 95 126 102 134 95 126 99 135 101 132 97 136 102 133 103 137 101 132 100 131 104 138 83 139 81 140 81 140 82 141 104 138 82 141 105 142 104 138 104 138 106 143 83 139 107 144 101 132 103 137 84 106 108 145 82 104 108 145 105 146 82 104 108 145 109 147 105 146 110 148 108 145 84 106 85 107 110 148 84 106 61 77 110 148 85 107 111 149 112 150 113 151 112 150 114 152 115 153 86 108 114 152 116 154 86 108 88 110 114 152 114 152 117 155 115 153 118 156 119 156 120 156 118 157 120 157 121 157 119 158 118 159 121 160 122 161 119 158 121 160 120 162 123 163 124 164 37 41 125 165 39 44 37 41 126 166 125 165 127 167 126 166 37 41 128 168 39 44 125 165 126 166 127 167 125 165 127 167 128 168 125 165 129 169 130 170 131 171 132 172 130 170 129 169 132 172 133 173 130 170 133 174 134 174 135 174 3 3 2 2 6 12 136 175 134 176 133 173 79 177 78 178 100 131 136 175 137 179 134 176 137 179 138 180 134 176 92 181 139 182 140 183 140 183 139 182 141 184 47 54 142 185 143 186 142 187 144 187 143 187 144 188 145 189 143 190 142 191 146 192 144 193 47 54 143 186 48 55 143 194 145 195 147 196 122 197 121 197 148 197 148 198 121 198 51 198 149 199 119 200 122 201 149 199 122 201 150 202 120 203 151 204 121 205 151 206 120 162 124 164 150 207 122 207 148 207 121 205 151 204 51 208 151 209 152 210 51 211 152 212 149 213 150 214 51 215 153 216 52 67 153 216 150 217 50 65 152 210 153 218 51 211 152 212 150 214 153 219 154 220 152 221 151 206 149 213 152 212 154 222 155 223 156 224 33 225 128 226 157 227 131 171 158 228 127 229 159 230 160 231 131 171 157 227 158 232 157 233 127 167 160 231 157 227 161 234 161 234 157 227 158 228 161 234 162 235 160 231 129 169 131 171 160 231 162 235 129 169 160 231 163 236 132 172 129 169 164 237 163 236 129 169 132 172 136 175 133 173 13 18 25 30 10 15 165 238 166 239 132 172 167 240 168 241 169 242 166 239 137 179 136 175 170 243 137 179 166 239 165 238 170 243 166 239 142 191 171 244 146 192 144 188 146 192 145 189 146 192 147 245 145 189 171 244 172 246 146 192 146 192 173 247 147 245 172 246 171 244 174 248 175 249 162 235 161 234 162 235 164 237 129 169 163 236 176 250 132 172 164 237 169 242 163 236 169 242 176 250 163 236 169 242 165 238 176 250 177 251 175 249 178 252 179 253 180 254 181 255 168 241 170 243 165 238 32 256 123 163 120 162 168 241 182 257 170 243 159 230 175 249 183 258 175 249 159 230 184 259 161 234 158 228 183 258 175 249 161 234 183 258 185 260 186 261 187 262 185 260 188 263 186 261 146 192 172 246 173 247 172 246 174 264 173 247 174 265 189 266 173 267 174 265 190 268 191 269 174 265 191 269 189 266 192 270 190 271 174 272 193 273 182 274 168 275 194 276 195 277 193 278 196 279 197 280 73 281 198 282 184 259 199 283 198 282 199 283 197 284 196 285 198 282 197 284 200 286 198 282 196 285 198 282 175 249 184 259 201 287 202 288 203 289 202 288 74 95 203 289 190 290 192 291 191 292 60 76 89 111 90 113 204 293 93 294 34 295 205 296 196 279 73 281 200 286 196 285 205 297 91 114 66 298 92 115 92 115 66 298 139 299 66 298 68 300 141 301 156 302 34 38 33 37 206 303 67 304 207 305 98 127 207 305 96 125 98 127 206 303 207 305 109 306 106 143 105 142 109 306 208 307 106 143 108 145 209 308 109 147 109 306 209 309 208 307 209 308 108 145 210 310 110 148 111 149 210 310 113 151 211 311 111 149 113 151 212 312 211 311 68 300 27 313 141 301 27 313 187 314 141 301 27 313 29 315 187 314 57 73 162 235 175 249 56 72 213 316 57 73 56 72 214 317 213 316 214 317 167 240 213 316 167 240 169 242 213 316 1 1 79 318 21 82 134 176 138 180 43 48 167 240 215 319 181 255 216 320 180 254 217 321 181 255 180 254 216 320 216 322 218 323 168 324 67 87 219 325 28 33 206 303 220 326 67 304 67 304 220 326 219 327 103 328 221 329 107 330 221 329 222 331 107 330 209 309 210 332 208 307 210 332 55 333 208 307 154 220 151 206 124 164 223 334 55 71 210 310 224 335 55 71 177 251 111 149 223 334 210 310 223 334 56 72 55 71 55 71 57 73 177 251 111 149 225 336 223 334 211 311 225 336 111 149 225 336 56 72 223 334 108 145 110 148 210 310 211 311 214 317 225 336 212 312 214 317 211 311 215 319 167 240 214 317 115 153 226 337 212 312 187 314 227 338 185 339 29 315 227 338 187 314 227 338 188 340 185 339 54 341 155 342 33 343 70 90 79 318 0 0 227 338 228 344 188 340 229 345 230 346 219 325 219 325 230 346 228 347 220 326 231 348 229 349 220 326 229 349 219 327 229 349 231 348 232 350 231 348 233 351 232 350 233 351 18 352 234 353 235 354 18 355 233 356 221 329 235 354 222 331 235 354 221 329 236 357 224 335 177 251 178 252 237 358 224 335 178 252 224 335 237 358 55 71 55 71 237 358 238 359 228 344 230 360 201 287 20 361 239 361 240 361 235 354 236 357 18 355 238 362 237 358 241 363 242 364 238 362 241 363 238 359 242 365 19 366 16 21 13 18 15 20 116 154 110 148 61 77 45 64 22 63 21 367 43 48 42 47 134 176 14 19 17 22 15 20 241 363 178 252 198 282 198 282 178 252 175 249 212 312 243 368 215 319 60 76 90 113 92 115 72 92 71 91 24 29 124 164 123 163 48 369 123 163 46 370 48 369 124 164 48 369 143 194 143 194 147 196 124 164 154 220 124 164 189 371 189 371 124 164 173 372 124 164 147 196 173 372 106 143 104 138 105 142 12 17 40 45 41 46 136 175 132 172 166 239 120 373 1 373 32 373 191 292 192 291 73 374 197 280 199 375 149 376 199 375 184 377 149 376 197 280 149 376 154 378 184 377 37 379 119 380 37 379 4 4 119 380 154 378 73 281 197 280 4 4 1 6 119 380 184 377 119 380 149 376 1 6 120 381 119 380 77 98 76 97 26 31 27 32 67 87 28 33 128 226 131 171 38 42 43 48 17 22 14 19 74 95 202 288 239 382 23 28 32 383 1 50 50 65 150 384 51 66 244 385 245 386 42 387 245 386 135 388 42 387 42 389 41 389 244 389 59 84 64 83 99 390 99 390 95 120 59 84 66 86 207 391 67 87 0 0 71 91 70 90 0 0 24 29 71 91 200 286 242 364 241 363 76 97 62 78 25 30 26 31 76 97 25 30 72 92 61 77 85 107 62 78 75 96 63 79 246 392 244 393 41 394 246 392 41 394 40 395 72 92 24 29 62 78 11 16 12 17 41 46 234 353 232 350 233 351 156 396 204 293 34 295 86 108 63 79 87 109 51 397 150 397 148 397 6 398 2 5 4 4 79 128 102 399 99 129 131 171 130 170 40 45 40 45 38 42 131 171 183 258 158 228 159 230 128 226 38 42 39 400 38 42 36 43 39 400 194 276 193 278 218 323 193 278 168 324 218 323 73 94 20 93 19 401 115 153 113 151 112 150 132 172 176 250 165 238 114 152 88 110 117 155 164 237 213 316 169 242 114 152 112 150 116 154 26 31 30 35 77 98 167 240 216 320 168 241 247 402 130 403 133 404 215 319 214 317 212 312 192 270 174 272 203 405 74 406 192 270 203 405 188 407 203 405 174 272 174 272 186 408 188 407 174 272 171 409 186 408 186 408 171 409 187 410 171 409 142 411 141 184 141 184 187 410 171 409 141 184 142 411 140 183 142 411 47 412 92 181 45 64 21 367 58 413 21 414 248 414 58 414 47 412 60 415 92 181 47 412 45 64 60 415 140 183 142 411 92 181 45 64 58 413 60 415 10 15 9 13 12 17 238 359 19 366 236 357 55 71 238 359 221 416 55 71 221 416 208 417 19 366 18 355 236 357 238 359 236 357 221 416 106 143 208 417 103 418 208 417 221 416 103 418 83 139 106 143 103 418 83 139 103 418 100 131 78 178 83 139 100 131 100 131 102 133 79 177 230 360 240 419 201 287 188 340 228 344 201 287 246 420 247 421 245 422 245 422 244 423 246 420 35 424 54 341 33 343 155 223 204 425 156 224 159 230 127 229 184 377 127 229 37 379 184 377 85 107 69 89 72 92 246 426 40 427 130 428 130 428 247 429 246 426 169 242 168 241 165 238 245 430 247 402 133 404 245 430 133 404 135 431 61 77 86 108 116 154 11 16 15 20 13 18 193 273 195 432 182 274 139 299 66 298 141 301 74 433 73 374 192 291 16 21 26 31 13 18 248 434 21 82 65 81 96 122 66 86 90 121 207 391 66 86 96 122 112 150 110 148 116 154 128 168 127 167 157 233 189 371 191 435 154 220 212 312 113 151 115 153 164 237 162 235 57 73 115 153 117 155 226 337 135 436 134 176 42 47 175 249 177 251 57 73 227 437 29 34 28 33 219 325 228 347 227 437 227 437 28 33 219 325 73 374 154 438 191 292 65 81 58 74 248 434 203 405 188 407 201 439 181 255 216 320 167 240 217 440 218 441 216 442 243 368 226 337 179 253 79 318 64 80 21 82 225 336 214 317 56 72 110 148 112 150 111 149 44 49 43 48 138 180 212 312 226 337 243 368 243 368 181 255 215 319 57 73 213 316 164 237 79 318 1 1 0 0 27 32 68 88 67 87 179 253 181 255 243 368 222 331 235 354 233 356 222 331 233 356 107 144 107 144 233 356 101 132 233 356 231 443 220 444 233 356 220 444 101 132 101 132 220 444 97 136 220 444 206 445 98 446 220 444 98 446 97 136 32 256 46 370 123 163 194 447 218 441 217 440 232 448 234 449 240 450 234 449 20 451 240 450 240 450 230 452 232 448 240 419 202 288 201 287 240 419 239 382 202 288 241 363 198 282 200 286 19 401 205 297 73 94 232 448 230 452 229 453 234 454 18 23 20 25 20 93 74 95 239 382 237 358 178 252 241 363 200 286 205 297 242 364 205 297 19 401 242 364 226 455 117 456 204 457 93 458 204 457 117 456 30 459 16 460 54 461 54 461 16 460 17 462 77 463 30 459 53 464 30 459 54 461 53 464 17 462 44 465 54 461 44 465 138 466 155 467 44 465 155 467 54 461 75 468 77 463 53 464 88 469 87 470 93 458 87 470 75 468 53 464 87 470 53 464 93 458 117 456 88 469 93 458 155 467 137 471 170 472 155 467 138 466 137 471 155 467 170 472 182 473 155 467 182 473 217 474 204 457 155 467 217 474 226 455 204 457 179 475 182 473 195 476 194 477 217 474 182 473 194 477 179 475 204 457 180 478 180 478 204 457 217 474 50 65 52 67 153 216</p>
        </triangles>
      </mesh>
    </geometry>
  </library_geometries>
  <library_visual_scenes>
    <visual_scene id="scene">
      <node id="left_shoulder_yaw_link">
        <instance_geometry url="#geometry">
          <bind_material>
            <technique_common>
              <instance_material symbol="scout_1a1a1a" target="#scout_1a1a1a" />
            </technique_common>
          </bind_material>
        </instance_geometry>
      </node>
    </visual_scene>
  </library_visual_scenes>
  <scene>
    <instance_visual_scene url="#scene" />
  </scene>
</COLLADA>