<?xml version='1.0' encoding='utf-8'?>
<COLLADA xmlns="http://www.collada.org/2005/11/COLLADASchema" version="1.4.1">
  <asset>
    <created>2026-09-14T00:00:00Z</created>
    <modified>2026-09-14T00:00:00Z</modified>
    <unit name="metre" meter="1" />
    <up_axis>Z_UP</up_axis>
  </asset>
  <library_effects>
    <effect id="scout_1a1a1a_effect">
      <profile_COMMON>
        <technique sid="common">
          <lambert>
            <emission>
              <color>0 0 0 1</color>
            </emission>
            <ambient>
              <color>0.05 0.05 0.05 1</color>
            </ambient>
            <diffuse>
              <color>0.1 0.1 0.1 1</color>
            </diffuse>
          </lambert>
        </technique>
      </profile_COMMON>
    </effect>
  </library_effects>
  <library_materials>
    <material id="scout_1a1a1a" name="scout_1a1a1a">
      <instance_effect url="#scout_1a1a1a_effect" />
    </material>
  </library_materials>
  <library_geometries>
    <geometry id="geometry" name="left_hip_yaw_link">
      <mesh>
        <source id="positions">
          <float_array id="positions_array" count="504">-0.10233821 -0.0402191691 -0.0201540682 -0.102070652 -0.0192440953 -0.0406894796 -0.0954838991 -0.0323852226 -0.0350417644 -0.0877235755 -0.0519668981 0.0145251621 -0.0953927934 -0.0466157384 -0.0126887839 -0.0881285891 -0.0472844504 -0.0221079569 -0.0882916078 -0.0308983009 -0.0414520204 -0.0953192785 -0.0107724555 -0.0470739864 -0.0625303835 -0.0244528819 -0.0490800068 -0.0622480921 -0.0507692434 -0.0217565931 -0.061610762 -0.0288552418 -0.0555184111 -0.0623759069 0.0168492366 -0.05272438 -0.0408808477 0.000263002235 0.0805162564 -0.0372826941 0.0202195197 0.0631647259 -0.0415285863 0.00197399152 0.0654916763 0.0244746991 -0.0277650002 0.0849513784 0.0335584916 -0.0224117823 0.0764106885 0.0154483849 -0.0358119458 0.0731114 -0.0476237647 0.020937223 -0.0519329868 -0.0290365256 -0.00354557321 -0.0535827391 -0.0488693193 -0.0184064321 -0.0559299141 -0.0476261862 -0.0493554473 -0.0262129065 -0.0296188332 -0.0365770236 -0.0410263091 -0.101482429 -0.0427883938 0.0128241908 -0.0293938369 0.0426923074 0.0335292183 -0.0169394128 0.0529340729 0.0359896831 -0.0128623014 0.0446838513 0.0416526869 -0.0950327888 -0.0442505293 0.0226002093 -0.0883458331 0.028123619 0.0444962792 -0.0956041291 0.029459523 0.0370743722 -0.0988541916 0.0144027816 0.043986965 -0.0878398195 -0.0398216657 0.0357526839 -0.0949134007 -0.0184459444 0.0471107475 -0.101599507 -0.02126728 0.040260043 -0.087762557 -0.0235127583 0.0474187918 -0.0876509622 0.00816215761 0.0531908236 -0.0661214665 -0.0160441492 0.0518487208 -0.0647490844 -0.0573643558 0.032132607 -0.0263442285 -0.0425141454 0.0509482138 -0.0649785772 -0.0333348215 0.0562199354 -0.0584385023 -0.0085833678 0.0911908001 -0.0377365127 -0.0393431708 0.0893900245 -0.0420988984 -0.0319009982 0.0942124873 -0.0486482792 -0.011324523 0.0936052427 -0.0442084186 -0.0534978695 0.0123063764 -0.0421353988 -0.0492131785 0.0345014818 -0.0455484763 -0.0613086224 0.0101351915 -0.0290135052 -0.0426502638 0.0324213989 -0.0163118094 -0.0511931628 0.0348777138 -0.0209012534 -0.0503634252 0.0928674713 -0.0413863137 -0.00535283377 0.055387523 -0.0414372943 -0.0219726209 0.0571148694 -0.0428074487 -0.0430800095 0.0410107076 -0.0265873075 -0.0296229627 0.0616308786 -0.0373195708 -0.00434932159 0.0654653087 -0.0326885432 -0.0260930844 0.0877261683 -0.0417839736 -0.00255442318 0.0659633353 -0.0341841802 -0.0254628789 0.0626179278 -0.0237748157 -0.0294651557 0.0845790952 -0.0305316728 -0.00587315857 0.0544655249 -0.0369294696 0.0171958096 0.0882337987 -0.0274037961 -0.0616035461 0.0167882964 -0.0147667928 -0.0378029495 0.0675151125 -0.0206531789 -0.043638546 0.0931273475 -0.0326212272 -0.0198125187 0.0948706791 -0.00572700473 -0.0384977385 0.0937474743 -0.0294260662 0.00670986995 0.0543464944 -0.0293647517 -0.0243905 0.0481362268 -0.0196227953 0.000263455178 0.0560197085 -0.0312024299 -0.0069702561 0.0849501416 0.00136251305 -0.0376961641 0.0646300986 -0.0127601288 -0.0442547053 0.0435611866 0.00300864992 -0.053347908 0.094256103 0.0219519138 -0.043358352 0.0931419358 0.00362023106 -0.0403978229 0.0881580263 -0.00617547287 -0.00067729631 0.0629239827 -0.00688113598 -0.00240475987 0.0849844962 -0.000994676957 0.00238193455 0.0873345807 -0.00134653877 -0.00719783362 0.0654787868 -0.102032267 0.0148339132 -0.0416085944 -0.028208755 1.75198547e-05 0.0874451324 -0.0955620706 0.0393824801 -0.0290617291 -0.102072611 0.0414892063 -0.019854214 -0.0951817706 0.0186106302 -0.046149943 -0.0881976187 -0.0064603975 -0.0520336963 -0.0882449597 0.0252415854 -0.045923356 -0.0882775038 0.050928805 -0.0159968287 -0.0623539947 0.0513510182 -0.0219320338 -0.0615356266 0.0325094052 -0.0543446392 -0.0485212058 0.0319134742 -0.0544862263 -0.0487593822 0.0556323044 -0.019409867 -0.10203208 0.0381787419 0.0247756932 -0.0952595621 0.0463774614 0.014903645 -0.0877805948 0.0475566164 0.0226424634 -0.0660701096 0.0392516106 0.0377008021 -0.0661497489 0.0143950544 0.0521532483 -0.00639167149 0.0029235757 0.0847205296 -0.00102481258 0.00694792019 0.0651507303 -0.0648875758 0.0299563892 0.0587616675 -0.0644333139 -0.000484179211 0.0650971085 -0.0637891591 0.0628880411 0.0125852264 -0.0650471225 0.0526683666 0.0121110491 -0.0459285602 0.0550604388 0.0105736125 -0.0396810509 0.0620703213 0.0103643695 -0.0313651636 0.0392461754 0.05286742 -0.0649820045 0.0545320548 0.035892617 -0.046535138 0.0285728648 0.091817297 -0.0585983209 0.00950751733 0.091342479 -0.0478321388 0.0125936195 0.0937977657 -0.033429537 0.0262123048 0.0916502848 -0.0433629565 0.0277959816 0.0509981588 -0.0425129794 0.0432997607 0.0404931307 -0.0322591923 0.0266489685 0.0588468537 -0.0391272604 0.00256624143 0.0608408861 -0.0257159658 0.0273968466 0.0845779702 -0.0218105596 0.0486977696 0.0944041163 -0.0222965982 0.0499086678 0.0894077271 -0.0425431468 0.0475924537 0.033727359 -0.0257681999 0.0615526922 0.0206200667 -0.0310007799 0.00648175739 0.0842631012 -0.0194912869 0.0359321646 0.0665408149 -0.0185006894 0.0335377455 0.0628200695 0.00552108558 0.0382622369 0.0852406695 0.0103523275 0.000835066894 0.0842491314 -0.00174590526 0.00824394543 0.0846738443 0.00121197512 0.0365159176 0.0652528256 0.00745559437 0.0400380082 0.0697061792 -0.000855006801 0.0357011482 0.0845867395 0.0120001687 0.000577120052 0.0711971745 0.0100850249 -0.00050963799 0.0844362155 0.0405477323 -0.0377534479 0.0920617059 0.0227018669 -0.0495564416 0.0893605351 0.0214157812 -0.00655438192 0.0817431286 0.0163999368 0.00228157872 0.0849308372 0.0255737156 0.00392917218 0.0823147595 0.0464268364 -0.0205414947 0.0935671329 0.0353200622 -0.0007185578 0.0833857507 0.0380652547 0.00682193646 0.0818560123 0.0409143642 0.0021871361 0.0882599726 0.0594497509 -0.00906021893 0.0910719186 0.0254847333 0.00545441965 0.0848613828 0.0295619816 0.0257053301 0.0760544613 -0.0101551926 0.0412101783 0.0882244483 0.0275884308 0.0305739865 0.0883346274 0.0105554024 0.0514891408 0.0941238254 0.0328855328 0.0394726098 0.0937318727 0.0263406094 0.0483138971 0.0894873366 0.0467245318 0.0270120166 0.0925189257 0.0479962975 0.00833402388 0.0929838791 0.0568406843 0.010119942 0.0936552435 -0.0292937271 0.0513065532 -0.017066462 -0.0298737306 0.0300856959 -0.0460915938 -0.0642337427 -0.0526254661 0.0105141234 -0.00175004965 -0.00850968901 0.0845328793 -0.0487665571 -0.0482983105 -0.0386595204 -0.0614936464 -0.0590975396 -0.0193408411 -0.0293872133 -0.0549300164 -0.000230718331 -0.0659849271 -0.0431710631 0.0338900611 -0.0625901744 -0.0626908094 0.0111118574 0.0303216297 -0.028509574 0.0884265825 -0.0293808505 0.052050665 0.0132268956 -0.00060398574 -0.035461437 0.0843618438 -0.0615171604 0.0586315431 -0.0179831553 0.0290375091 -0.0237914044 0.0940116644 0.00307411025 -0.0359209776 0.084838286 0.0181684941 0.0312905982 0.0949768573 -0.00910787005 0.0362277701 0.0940363109 0.0366683379 0.00945501309 0.0941872522</float_array>
          <technique_common>
            <accessor source="#positions_array" count="168" stride="3">
              <param name="X" type="float" />
              <param name="Y" type="float" />
              <param name="Z" type="float" />
            </accessor>
          </technique_common>
        </source>
        <source id="normals">
          <float_array id="normals_array" count="1179">-0.278899252 -0.790958345 -0.544610023 -0.303109586 -0.500460327 -0.810964882 -0.493616551 -0.604018509 -0.625703037 -0.319139898 -0.930407524 0.180254176 -0.469022453 -0.866961837 -0.168508649 -0.309784114 -0.858549058 -0.408567339 -0.294874102 -0.573254406 -0.764479339 -0.439917028 -0.282420903 -0.852473736 -0.0465950221 -0.44735986 -0.893139422 -0.0828322321 -0.913492024 -0.398335457 -0.989911795 -0.113324225 -0.0850429535 -0.992856324 -0.0470273793 -0.109657638 -0.992336035 -0.0577404387 -0.109248765 -0.948928237 0.0164936464 -0.315060645 -0.974176466 0.21995987 0.0509695001 -0.973922372 0.220835194 0.0520289354 -0.969724119 0.234398991 0.0684998631 -0.578446925 0.808473527 -0.108488172 0.0663335174 0.362762153 -0.929517865 0.178932518 -0.0138908261 -0.983763278 0.169627056 -0.304979265 -0.937130868 0.118521482 -0.887211323 -0.445879728 0.109816961 -0.691280484 -0.714192927 -0.362753838 -0.930377424 0.0529862642 -0.652010202 -0.757042766 -0.0420588627 0.447066963 -0.345429003 -0.825112104 -0.606334567 -0.687149584 0.400229782 -0.279155433 0.571091235 0.77196312 -0.552569687 0.54887861 0.627215326 -0.61616993 0.434574485 0.65687108 -0.379091054 -0.642926991 0.665533483 -0.286732495 -0.754369915 0.590517163 -0.512204409 -0.579294384 0.634085715 -0.522846758 -0.585787714 0.619260848 -0.711688817 -0.0185986031 0.702248633 -0.0545795821 0.101322576 0.993355334 -0.16663976 -0.176199764 0.970146835 -0.0653967559 -0.378457963 0.923305392 -0.897060454 0.149848998 0.415725708 -0.0392284207 -0.296931148 0.954092801 -0.00164570275 -0.873712063 0.486440659 -0.106678694 -0.809416652 0.577463686 -0.0802788213 -0.504881024 0.859447777 -0.820236146 -0.55911237 0.120855115 -0.596429467 -0.652508914 0.467444062 -0.784328878 -0.587951243 0.197842076 -0.173595965 -0.018756602 0.984638333 -0.23931101 -0.0158672333 0.970813334 -0.0502966456 -0.0393091887 0.997960448 0.985949576 -0.147208795 -0.0789493844 0.986416936 -0.151768491 -0.0628325865 0.985527575 -0.14433746 -0.0888939947 0.140245393 -0.973552287 0.180353045 0.367203414 -0.905862629 0.211126983 0.459711969 -0.878976762 0.126746953 -0.00808213931 -0.287402779 -0.957775712 -0.539043486 -0.657274127 0.526709437 0.952019632 -0.034525048 -0.304083347 0.991293073 -0.0166169368 -0.130621478 0.997410297 -0.0104553401 -0.0711571798 0.450477719 0.404641449 -0.795823514 0.329242051 0.77839607 -0.534508348 0.247571751 0.710662961 -0.658533454 0.418252707 0.30729115 -0.854772925 -0.94642055 -0.264321566 0.185532376 -0.952902198 -0.291802317 0.0826368704 -0.945897996 -0.320850313 0.0482916422 0.916619956 0.356146395 -0.181569889 0.915412545 0.365718871 -0.168135762 0.908098221 0.40292272 -0.11406558 0.927970946 -0.0413389057 -0.370352626 -0.211872399 -0.977286339 0.00464168238 -0.0378923491 -0.992741227 0.114144847 -0.129626721 -0.989914834 0.0571445152 -0.897896349 -0.167759523 0.406987518 -0.798565269 -0.0852210522 0.595844686 0.134424582 0.851438761 -0.506933987 0.124453932 0.858239114 -0.497932583 0.227806568 0.776994348 -0.586842299 -0.251559138 -0.945488989 0.206805751 -0.316729754 -0.621767461 0.716301203 -0.00501651829 -0.0568313301 0.998371184 -0.0305578485 -0.0374715514 0.998830378 -0.0250750519 -0.00616940297 0.999666512 0.00485160574 -0.0825085118 0.996578574 0.999415159 -0.0336985998 0.00580576062 0.96494776 -0.0824280381 0.249161392 0.999384224 -0.000428949774 0.035086263 0.49239561 -0.870130539 -0.0204805061 0.27958858 -0.956720829 -0.0807184875 0.265267789 -0.955011308 -0.132613704 0.0367346071 -0.879561305 0.474365294 0.0487053692 -0.998184323 0.0354384258 0.192083076 0.829392254 -0.524607122 0.28120169 0.933160305 -0.223914042 -0.458513081 -0.88249588 0.104722559 -0.0052752262 0.0940768197 0.99555099 0.0399687216 -0.0200382508 0.999000013 0.663273692 0.428420335 -0.613615572 0.709298372 0.379974306 -0.593730032 0.539087534 0.536554813 -0.649225295 0.269065082 0.961396217 -0.0576310381 0.0679139346 -0.997590125 0.0141990213 -0.0291689523 -0.996450901 -0.0789608061 0.124919415 -0.981460392 -0.145363674 0.822764397 0.515582681 -0.239234582 -0.674171686 -0.0191539954 -0.738326311 -0.52520442 -0.83764267 -0.150050208 0.469951451 0.300361365 -0.830017269 -0.665768445 0.471181959 -0.578567147 -0.307137847 0.28966108 -0.906511307 -0.283019304 -0.101170145 -0.953763425 -0.999562562 0.00559116947 -0.0290417261 -0.230235651 0.511816621 -0.827668607 -0.0954407826 0.741939664 -0.663638949 -0.132182926 0.752077103 -0.645683885 -0.979658544 0.16471307 -0.114624321 -0.995666564 0.0518836714 -0.0771760568 0.99504441 0.0635733381 -0.0764528587 0.996546865 0.0717659369 -0.0417613983 0.967831016 0.020806592 -0.250739396 -0.637562215 0.43083477 0.638667226 -0.739301622 0.671479702 0.0504788533 -0.0797470808 0.793048799 0.603915572 -0.45226866 0.712406516 0.536591053 -0.300982088 0.861226082 0.409511238 -0.242800236 0.966127455 0.0874399617 -0.104065955 0.99440521 0.018127298 0.0959598199 0.982918441 -0.157044575 -0.0552379861 0.725089431 0.686435759 0.00496084103 0.269732058 0.962922633 -0.957098961 0.231588945 -0.174149677 -0.929699957 0.315475166 -0.190088019 -0.809955299 0.577303648 -0.103406683 -0.0701240525 0.177548036 0.981610596 -0.0458212644 0.458325148 0.887602687 -0.0386467092 0.203053579 0.978404641 -0.99215281 0.118148491 -0.0409117229 -0.992077053 0.123246297 -0.0243600607 -0.0899185911 0.0504488349 -0.99467057 -0.196119651 0.71890372 0.666869164 -0.0247920211 0.835939884 0.548260748 -0.0307880901 0.0519679449 0.998174071 -0.231260076 0.0331977606 0.972325385 -0.102933079 0.0770163611 0.991702199 -0.014590214 -0.00469923904 0.999882519 0.45637846 0.44181937 0.772343397 0.451902181 0.467321098 0.759865403 0.425994456 0.491373301 0.759658456 0.497389048 -0.411376745 -0.76378876 0.499778539 -0.410106838 -0.762911379 0.547237277 -0.222863913 -0.806760848 0.931064129 -0.28444612 -0.228495017 0.931503177 -0.258359581 -0.256031483 0.931521654 -0.261661947 -0.252587438 0.461461097 -0.513364792 -0.723540068 -0.627759933 0.740325868 0.240489244 -0.364981413 0.896072149 0.252672315 -0.377779603 0.890763879 0.2526308 0.503894746 -0.744605005 -0.437782407 0.320667833 -0.822220385 -0.470240086 0.705427825 -0.637928009 -0.308900386 0.270974517 -0.805152357 -0.527543843 0.0143184718 0.927060187 0.374639034 0.0342635475 0.999404967 0.00396041246 -0.0254267585 0.959715903 0.27981931 -0.400729239 0.916087925 -0.0141079668 0.994644463 -0.0879083127 -0.0543559045 -0.660843432 0.688446105 0.298877656 -0.594014943 0.733063817 0.33130613 0.260172784 -0.933319807 -0.247435331 0.367667705 -0.91971308 -0.137653023 0.467156976 -0.879244506 -0.0932390392 0.504674733 0.561909378 -0.655409217 0.464680612 -0.510975242 -0.723170936 -0.0367407314 0.84018749 0.541049957 -0.0650961697 0.018029185 -0.997716129 -0.0634929836 0.018238768 -0.997815609 -0.0204930622 0.0238341782 -0.999505877 0.0592347011 -0.889690399 -0.452705443 0.104990266 -0.891192436 -0.441308439 0.168757349 -0.96881783 -0.181419477 0.430103034 -0.65926373 -0.61675173 0.838279247 -0.533820331 -0.111012183 0.1156343 0.990376055 0.0760523006 -0.176960379 0.942288518 0.284213632 -0.160119519 0.983185172 0.0877992064 0.684711039 0.611040652 0.397240609 0.672615528 -0.476600319 -0.566074669 0.238966778 -0.966099918 -0.0977028459 0.368872434 -0.926421463 -0.0753421336 0.502789378 -0.864407122 0.001775885 0.534582794 -0.844765961 -0.0243258718 0.53272444 -0.845982194 -0.0227761548 0.408575416 -0.0304478686 -0.912216544 0.120077215 -0.122829475 0.985136747 0.299644023 -0.619167924 0.725840628 -0.491945386 -0.859020829 -0.141678959 0.77174747 0.552004278 -0.315748513 -0.298304856 0.16952835 -0.939294577 -0.0573220178 0.0770097226 -0.995381176 -0.0284737479 -0.0203547552 -0.999387264 0.190524533 -0.107421771 0.975787342 -0.842555463 0.225664824 -0.489055902 -0.748401701 0.257323235 -0.611293435 -0.738331497 0.260041416 -0.622290134 0.140386388 -0.0562430471 -0.988498032 0.0838631839 -0.137194157 -0.98698771 -0.858828127 0.218685299 -0.46323961 0.939567506 0.239390686 -0.244754866 0.9619174 0.0406117737 -0.270306528 0.956398308 -0.29181543 0.0120857432 0.276433468 -0.105964087 0.955173373 0.47727257 0.878750026 -0.00305391848 0.482335269 0.875959039 -0.006963138 0.425611824 0.904194832 0.0358648784 -0.289460778 0.955583572 -0.0554304123 0.43702963 0.298213422 -0.848571658 0.0378355719 0.998912394 -0.027247915 0.674205065 0.736614227 -0.0533579849 0.199803606 0.84366101 -0.498311758 0.334350973 0.813628733 -0.475623459 0.299917787 0.822987735 -0.482431918 0.220782802 -0.797650576 0.56125617 0.423606575 0.78357172 -0.454502821 -0.515215933 -0.455125064 -0.726232529 0.334278435 0.597409666 0.728944182 0.586932242 0.659774005 0.46926412 0.373395294 0.611372054 0.697710633 -0.218719706 -0.116904862 -0.968759477 0.780407667 0.612624645 -0.125119746 0.0840171576 0.0305141266 0.995997012 0.0577679127 0.0380648412 0.997604072 0.0106656216 0.0219905283 0.999701262 0.631184518 0.661600769 0.404833943 -0.0200047418 0.00177307974 0.999798298 0.190229341 0.913991511 -0.358374476 0.241447315 0.921183109 -0.305163622 0.0527586676 0.568074584 -0.821284235 -0.00567966653 -0.991557777 0.129541054 0.559195161 -0.827805579 -0.0451514535 0.356411219 -0.466495544 -0.809538722 0.36100477 -0.894882202 -0.262414634 0.100443214 -0.974642932 -0.199955747 0.30452773 -0.923314035 -0.233995914 -0.305774868 -0.730975509 -0.610062778 0.946949959 0.00266957772 -0.321369886 0.028243497 -0.999178529 -0.0290613081 -0.783006549 -0.426468313 0.452797413 0.0292839743 0.868393719 -0.495009899 -0.022402484 -0.772589266 0.634510815 0.918901682 0.307489753 -0.247123048 0.0641201735 -0.931020677 0.359289646 -0.990358055 -0.11831364 -0.0720612928 -0.984771907 -0.164196417 -0.0571295097 -0.987703025 -0.146241575 -0.0552827679 0.0346549898 -0.998235285 0.0482215062 -0.0778254643 0.978935719 0.188753814 -0.994856715 -0.100587457 -0.0119302562 -0.995194912 -0.0855012164 0.0477139875 -0.994864523 -0.0513344929 0.0872313976 -0.990489364 -0.0025453316 0.137565672 -0.991029441 -0.0265987106 0.130970225 -0.991626918 0.020759834 0.127456352 -0.994261563 0.0458823182 0.0966373533 -0.997460842 0.0712019429 0.00146670977 -0.99516052 0.0762547255 0.0619738735 0.987279534 -0.12286754 -0.100909241 0.993670166 -0.0583459809 -0.0959965587 -0.104948469 -0.227375314 0.968135476 0.941696882 -0.324474663 0.0890121907 -0.107968479 0.987236023 0.117080495 0.261822671 0.960887969 0.0902397558 0.351128727 0.93514061 -0.0471242741 0.14405942 0.961428463 0.234312102 0.0408380926 -0.333025187 0.942033172 0.315773934 -0.52775389 0.788519323 0.108426549 -0.409779996 0.905717432 0.248894766 0.964840174 -0.0844682902 0.390975684 0.390745252 0.833340347 0.419862568 0.406374067 0.811526656 0.0650149211 -0.319076926 0.945496142 -0.976889193 0.210137874 0.0391102359 0.999985576 0.00460581295 0.00276280497 0.999983132 0.00403231382 0.00417432468 0.999969006 -0.00110860215 -0.00779126678 0.999998868 3.85550666e-05 0.00150410668 0.999966383 0.00665642228 -0.00478946883 0.999949992 0.00920247287 0.00391649175 0.999764442 -0.0193440933 -0.00983920321 0.999936759 -0.00698284572 -0.00881846715 0.0503816791 0.174956769 -0.983286202 -0.0452807024 -0.269664675 -0.961889088 0.0568659939 -0.166373685 -0.98442167 -0.0449299812 -0.694202542 -0.718375981 0.341956496 0.907806158 0.242803842 0.249214992 0.916104913 0.314075977 -0.664416194 0.740814745 0.0987151936 -0.666673243 0.738143682 0.103395663 -0.473279864 0.872355759 -0.122481003 -0.992323637 -0.085662365 -0.0891949907 -0.0942880884 0.722676337 -0.684725285 -0.0477012619 0.314847827 -0.947942734 0.0490777791 0.824525833 -0.563691914 0.181421012 0.927365839 -0.327229351 0.0318276063 0.828066051 -0.559726417 0.520927131 0.852782726 -0.0373706184 -0.980486512 0.168037057 -0.102028035 -0.00955845695 0.0287431553 -0.999541104 -0.0437176488 0.0202235114 -0.9988392 -0.0157302953 0.0272066928 -0.999506056 -0.147190362 0.0761230215 0.986174583 -0.999144018 0.0356419198 0.0209983904 -0.999289036 0.00651428895 0.037135385 -0.999893129 -0.00144839811 0.0145493336 -0.995880008 -0.0855442211 0.0300857369 -0.999953508 -0.000445309881 0.00962935854 -0.999997437 -0.00212670257 0.000750457344 -0.025580734 0.998844922 -0.0406754315 -0.792932093 0.602564573 -0.090413332 -0.0449256189 0.303086549 0.951903462 0.0305033028 0.994644523 0.0987512469 0.994086206 -0.0517434329 -0.0954739004 0.930538714 -0.23084861 -0.284265012 0.00961085502 0.00176411192 -0.999952257 0.00181864749 -0.00438892841 -0.999988735 0.0104852533 0.00245460868 -0.999942005 0.0200273562 0.00999029912 -0.999749541 0.02349516 -0.0333982669 0.999165893 -0.281184047 -0.95879072 -0.0406924337 -0.00473373011 0.0179338269 -0.999827981 -0.00344521902 0.0171298627 -0.999847353 -0.00307776965 0.0169005878 -0.999852419 -0.00158498483 0.0159691107 -0.999871254 -0.981565714 -0.18552503 -0.0459256284 -0.304877371 -0.534605145 -0.788192272 0.249304265 0.961842835 -0.112720013 0.340607345 0.937653661 -0.069226414 0.544908047 0.837762058 0.0350701027 0.976220071 -0.0731453225 -0.204069078 0.984711409 -0.136057302 -0.108774565 0.98322016 -0.176866993 -0.0446784124 0.970412791 -0.235895216 0.0515022092 -0.0892124847 0.0148680676 -0.995901644 0.00354368822 -0.125923157 -0.99203366 -0.14284572 -0.00767162954 -0.989715219 -0.0978991836 -0.100475952 -0.990111291 -0.165193781 0.085034892 -0.98258847 -0.201085553 0.135786369 -0.970116854 -0.156990349 0.0435258821 -0.986640513 0.0397423618 -0.986171663 0.160891309 0.144169509 0.976548672 -0.159899563 0.146471336 0.976636171 -0.15725103 -0.027996514 -0.0707261264 0.997102797 -0.981356144 0.16536741 -0.0979476348 -0.979339123 0.133797452 -0.151634753 -0.0966698602 -0.976035953 0.19495824 -0.999719858 0.022877967 0.00606692117 -0.0812840909 0.966810822 0.24221842 0.991584599 0.120196983 -0.0480907783 0.991629481 0.0906414986 -0.0919516236 0.98991257 0.140602902 -0.017433336 0.984271944 0.17358917 0.0327954441 -0.0299506914 -0.0613452494 -0.997667134 -0.134821981 0.0154435756 -0.990749478 -0.000566954957 -0.0112410011 -0.99993664 -0.0605783798 -0.259454936 0.963853419 0.605726957 -0.763419092 -0.224245623 0.540904284 -0.831131518 -0.129007697 0.328710556 0.645561874 -0.689346969 0.0747445449 0.888998151 -0.451769412 -0.355405092 0.933271468 -0.0518808439 0.00773394899 0.065714784 0.997808456 -0.0297808275 -0.0606921464 0.997712195 0.192933559 -0.979391456 0.0597415268 0.00893519539 -0.0172455311 0.999811351 0.0653940663 0.00666316459 0.997837245 -0.0511947237 -0.222749025 -0.97353065 0.20436582 -0.0963821784 -0.974138141 0.209414437 -0.109647684 -0.971659899 0.211501732 0.0502175763 -0.976086676 0.150828794 0.00141363568 -0.988558888 0.260430723 0.128002003 -0.956969857 0.242584467 0.101379499 -0.964818597 0.165940315 0.0833681226 -0.982605517 -0.0117294574 0.107605644 -0.994124472 0.0818331018 0.077849254 -0.993600965 -0.0679607838 0.0935089216 -0.993296266 0.443651646 -0.579683602 0.683476508 -0.405952692 -0.898684919 0.166035548 -0.0479668565 0.0191610139 -0.998665154 -0.999694467 0.0135988751 0.020640282 -0.999925077 0.000797109038 -0.0122141642</float_array>
          <technique_common>
            <accessor source="#normals_array" count="393" stride="3">
              <param name="X" type="float" />
              <param name="Y" type="float" />
              <param name="Z" type="float" />
            </accessor>
          </technique_common>
        </source>
        <vertices id="vertices">
          <input semantic="POSITION" source="#positions" />
        </vertices>
        <triangles material="scout_1a1a1a" count="332">
          <input semantic="VERTEX" source="#vertices" offset="0" />
          <input semantic="NORMAL" source="#normals" offset="1" />
          <p>0 0 1 1 2 2 3 3 4 4 5 5 2 2 6 6 5 5 5 5 4 4 2 2 4 4 0 0 2 2 1 1 7 7 2 2 6 6 8 8 9 9 9 10 8 11 10 12 8 11 11 13 10 12 12 14 13 15 14 16 15 17 16 17 17 17 18 18 19 19 20 20 21 21 20 20 22 22 4 4 23 23 0 24 24 25 25 25 26 25 23 23 4 4 27 26 28 27 29 28 30 29 31 30 27 26 3 3 32 31 33 31 23 31 34 32 27 26 31 30 34 32 32 33 27 26 30 34 33 34 32 34 35 35 32 36 34 37 28 38 32 38 35 38 36 39 35 35 34 37 37 40 38 41 39 42 40 43 41 44 42 45 43 46 40 47 42 48 44 49 45 50 46 51 44 52 47 53 45 54 45 55 47 55 48 55 49 56 42 45 41 44 50 57 51 58 52 59 51 60 53 61 52 62 54 63 53 61 51 60 55 64 56 65 57 66 54 67 58 68 53 69 50 57 54 70 51 58 54 71 50 72 59 73 12 74 56 65 55 64 60 75 12 74 55 64 46 76 48 77 61 78 62 79 57 80 38 41 63 81 42 48 49 82 64 83 42 48 65 84 66 85 59 86 67 87 59 88 68 89 69 90 48 91 38 41 37 40 70 92 38 41 48 91 53 61 71 93 52 62 53 61 70 94 71 93 55 95 57 80 62 79 63 81 49 82 72 96 73 97 63 81 72 96 71 98 70 99 48 100 62 79 38 41 70 92 53 61 58 101 70 94 74 102 55 95 62 79 75 103 76 104 68 89 77 105 78 105 75 105 79 106 7 106 1 106 80 107 66 107 68 107 79 108 81 108 7 108 82 109 81 109 79 109 83 110 84 111 7 7 81 112 83 112 7 112 85 113 84 111 83 110 81 114 85 113 83 110 81 114 86 115 85 113 87 116 88 117 11 13 89 118 90 119 18 120 29 28 91 121 30 29 82 122 91 122 92 122 91 123 29 28 92 124 93 125 29 28 28 27 92 126 93 125 86 127 81 128 82 128 92 128 94 129 28 27 95 130 96 131 97 132 75 133 14 134 98 135 99 136 100 137 87 116 101 138 102 139 100 139 103 139 104 140 105 141 98 135 106 142 107 143 108 144 109 145 106 142 108 144 110 146 24 147 111 148 110 149 112 150 113 151 112 152 114 153 113 154 111 155 112 150 110 149 106 156 115 157 116 158 103 159 117 160 102 161 25 162 117 160 103 159 118 163 103 164 100 165 113 166 119 166 66 166 80 167 59 86 66 85 13 168 120 169 104 140 121 170 114 171 112 172 71 98 48 100 47 173 111 155 121 174 112 150 104 140 120 169 25 175 122 176 123 177 124 178 121 170 111 179 26 180 125 181 121 170 26 180 118 182 25 162 103 159 97 183 77 183 75 183 126 184 26 185 120 186 120 187 26 187 25 187 125 188 26 188 126 188 127 189 121 170 125 181 17 190 74 102 70 92 128 191 129 192 78 193 97 194 128 194 78 194 73 97 72 96 130 195 130 196 72 196 131 196 132 197 129 197 128 197 133 198 132 198 128 198 133 199 134 200 132 201 135 202 73 97 130 195 136 203 16 204 15 205 132 201 136 206 15 207 136 203 137 208 16 204 137 209 138 210 16 211 139 212 135 202 130 195 97 213 123 214 128 215 123 216 140 216 128 216 126 217 141 217 125 217 142 218 143 219 126 184 128 220 140 221 134 222 137 223 140 223 123 223 134 200 136 206 132 201 134 222 140 221 136 224 122 225 141 225 137 225 144 226 145 227 146 228 140 229 137 229 136 229 141 230 138 210 137 209 147 231 145 232 148 233 146 228 145 227 147 234 147 231 148 233 149 235 90 236 150 237 151 238 9 9 152 239 3 3 2 2 7 7 6 6 57 80 39 42 38 41 78 193 129 192 153 240 6 6 84 111 8 8 6 6 9 9 5 5 20 241 154 241 10 241 154 242 46 243 155 244 10 245 154 245 155 245 20 246 89 118 18 120 93 125 28 27 94 129 156 247 21 21 22 22 23 248 27 26 32 33 146 249 116 249 144 249 92 124 29 28 93 125 3 3 27 26 4 4 3 3 157 250 31 30 3 3 152 239 157 250 69 251 58 68 54 67 61 252 48 91 37 40 151 238 19 19 18 18 155 253 158 254 152 255 155 253 152 255 9 10 158 256 61 252 37 40 86 127 93 125 101 257 152 255 158 254 37 258 157 259 152 255 37 258 37 258 39 260 157 259 39 260 99 261 36 262 157 259 39 260 36 262 36 262 99 261 95 263 99 261 98 264 95 263 98 264 105 265 94 266 95 263 98 264 94 266 101 138 94 266 100 137 100 137 94 266 105 265 44 49 46 51 21 267 46 51 154 268 21 267 57 80 56 269 39 42 159 270 16 211 138 210 44 52 156 247 47 53 99 271 12 271 14 271 102 272 90 236 100 273 90 236 102 272 160 274 90 236 160 274 150 237 50 275 52 276 67 277 70 94 58 101 161 278 113 279 66 280 110 146 50 275 67 277 59 281 60 282 13 15 12 14 160 283 24 284 150 285 24 284 66 85 67 87 150 285 24 284 47 286 24 284 67 87 47 286 151 287 150 285 47 286 151 287 47 286 19 288 19 288 47 286 22 289 22 289 47 286 156 290 66 280 24 147 110 146 18 18 90 236 151 238 25 291 24 291 117 291 68 89 76 104 69 90 49 292 131 293 72 294 70 92 74 102 62 79 102 272 117 295 24 296 102 272 24 296 160 274 13 168 60 297 142 298 80 299 68 299 59 299 78 300 70 300 161 300 85 113 86 115 87 301 11 302 85 113 87 301 11 302 8 8 84 111 88 303 162 304 90 236 90 236 89 305 88 303 123 214 97 213 124 306 87 116 100 137 162 307 88 117 10 12 11 13 162 307 88 117 87 116 84 111 85 113 11 302 148 233 135 202 149 235 6 6 7 7 84 111 162 304 100 273 90 236 5 5 9 9 3 3 89 308 20 309 88 310 155 253 9 10 10 12 30 311 32 311 28 311 33 312 30 313 79 314 79 314 30 313 91 315 79 314 23 316 33 312 82 317 79 314 91 315 35 35 95 130 28 27 87 318 86 127 101 257 35 35 36 39 95 130 107 143 40 47 108 144 40 47 43 46 108 144 86 319 81 319 92 319 14 134 13 320 98 135 22 22 20 20 19 19 25 175 118 163 105 141 100 165 105 141 118 163 46 243 61 252 158 256 47 321 52 321 71 321 104 140 98 135 13 320 104 140 25 175 105 141 20 322 21 267 154 268 113 154 114 153 119 323 114 324 127 325 96 326 119 327 114 324 96 326 157 250 36 39 31 30 34 37 31 30 36 39 46 243 158 256 155 244 42 48 64 83 43 46 73 97 65 84 63 81 163 328 65 84 73 97 73 97 135 202 163 328 42 48 63 81 65 84 44 52 21 21 156 247 59 73 69 329 54 71 161 330 58 331 76 332 58 331 69 333 76 332 161 334 76 334 75 334 78 335 161 335 75 335 119 336 68 337 66 338 125 339 122 340 97 341 122 340 124 342 97 341 101 257 93 125 94 129 13 168 142 298 120 169 122 176 137 343 123 177 41 344 40 345 55 346 55 346 40 345 60 347 106 348 60 347 107 349 60 347 40 345 107 349 24 350 26 350 111 350 96 351 75 352 119 336 75 352 68 337 119 336 115 353 106 142 109 145 96 131 127 354 125 355 125 355 97 132 96 131 12 356 99 356 56 356 142 218 126 184 120 186 114 171 121 170 127 189 78 357 77 357 97 357 116 158 115 157 144 358 164 359 70 360 78 361 164 359 78 361 153 362 132 201 15 207 164 363 129 364 132 201 164 363 153 365 129 364 164 363 56 269 99 366 39 42 17 190 16 367 159 368 17 369 70 369 15 369 46 76 45 370 48 77 164 371 15 371 70 371 17 190 159 368 74 102 165 372 145 232 166 373 133 374 128 374 134 374 135 202 139 212 149 235 109 145 166 373 115 353 166 373 145 232 144 375 64 83 109 145 108 144 167 376 163 328 135 202 148 233 167 376 135 202 43 46 64 83 108 144 145 232 167 376 148 233 165 372 167 376 145 232 166 373 144 375 115 353 49 292 41 344 55 346 131 293 49 292 74 377 49 292 55 346 74 377 131 293 74 377 159 378 131 293 159 378 130 379 130 379 159 378 138 380 139 381 130 379 138 380 139 381 138 380 149 382 147 383 138 380 143 384 143 384 142 385 146 386 116 387 142 385 60 347 149 382 138 380 147 383 143 384 146 386 147 383 116 387 146 386 142 385 116 387 60 347 106 348 67 277 52 276 47 388 163 328 64 83 65 84 64 83 163 328 167 376 64 83 167 376 165 372 64 83 165 372 109 145 166 373 109 145 165 372 122 389 125 389 141 389 141 230 143 219 138 210 126 184 143 219 141 230 10 390 88 310 20 309 0 391 23 316 79 314 1 392 0 391 79 314</p>
        </triangles>
      </mesh>
    </geometry>
  </library_geometries>
  <library_visual_scenes>
    <visual_scene id="scene">
      <node id="left_hip_yaw_link">
        <instance_geometry url="#geometry">
          <bind_material>
            <technique_common>
              <instance_material symbol="scout_1a1a1a" target="#scout_1a1a1a" />
            </technique_common>
          </bind_material>
        </instance_geometry>
      </node>
    </visual_scene>
  </library_visual_scenes>
  <scene>
    <instance_visual_scene url="#scene" />
  </scene>
</COLLADA>