<?xml version='1.0' encoding='utf-8'?>
<COLLADA xmlns="http://www.collada.org/2005/11/COLLADASchema" version="1.4.1">
  <asset>
    <created>2026-09-14T00:00:00Z</created>
    <modified>2026-09-14T00:00:00Z</modified>
    <unit name="metre" meter="1" />
    <up_axis>Z_UP</up_axis>
  </asset>
  <library_effects>
    <effect id="scout_1a1a1a_effect">
      <profile_COMMON>
        <technique sid="common">
          <lambert>
            <emission>
              <color>0 0 0 1</color>
            </emission>
            <ambient>
              <color>0.05 0.05 0.05 1</color>
            </ambient>
            <diffuse>
              <color>0.1 0.1 0.1 1</color>
            </diffuse>
          </lambert>
        </technique>
      </profile_COMMON>
    </effect>
  </library_effects>
  <library_materials>
    <material id="scout_1a1a1a" name="scout_1a1a1a">
      <instance_effect url="#scout_1a1a1a_effect" />
    </material>
  </library_materials>
  <library_geometries>
    <geometry id="geometry" name="left_hip_pitch_link">
      <mesh>
        <source id="positions">
          <float_array id="positions_array" count="945">-0.021589743 -0.0272464789 -0.395016313 -0.0249991249 -0.0202567913 -0.399184197 -0.0181040615 -0.0295140035 -0.406399488 -0.0199721344 -0.0238965973 -0.413947165 -0.0204963982 -0.0201155823 -0.412593454 -0.0213432647 -0.0199392885 -0.385702431 -0.0159951262 -0.0245715715 -0.370674968 -0.0104373116 -0.029446587 -0.370028555 -0.010102991 -0.0237971749 -0.342258841 -0.00754831778 -0.0208368767 -0.428965181 0.00269725081 -0.0229347385 -0.438923925 0.00619836664 -0.0274774022 -0.441052675 -0.00152922189 -0.0278126132 -0.431690484 0.0118739447 -0.0297277253 -0.434685767 0.00262642466 -0.0202230942 -0.424243867 -0.00231587887 -0.0265374426 -0.427254438 -0.0506261736 0.0189907439 -0.0341044851 -0.0312958471 0.0182600114 -0.0578299686 -0.0301175192 -0.0199082531 -0.0594846047 -0.00457498152 -0.0203849413 -0.401002586 -0.00125567336 -0.0203777347 -0.395153016 -0.0054624239 -0.0297723133 -0.400064081 -0.00197482808 -0.0293442234 -0.334622294 -0.00211737212 -0.0221510939 -0.30972746 0.00366354315 -0.022550676 -0.302827209 -0.0035612022 -0.0182089861 -0.29897508 -0.0005293992 -0.0240729377 -0.129193574 0.00163056341 -0.0236571748 -0.153973684 -0.000352560484 -0.0292125531 -0.151887774 -0.00277004368 -0.0440695919 -0.114807732 -0.00051578501 -0.0403302647 -0.130945861 -0.005068989 -0.0119467769 -0.293039083 -0.052591227 -0.048640091 -0.010923597 -0.0593172088 -0.0461854376 -0.0150706731 -0.0514261648 -0.0462254472 -0.0324367918 -0.0472590178 -0.0484780073 -0.0253878441 0.0232784394 -0.0487594567 -0.0483651049 0.0359084979 -0.0485017598 -0.0397477411 0.0211083572 -0.072567001 -0.0497725494 -0.0213115141 0.020079663 -0.385757148 -0.012234835 -0.0188176502 -0.384467542 -0.0467776246 -0.0743517503 -0.0276614092 -0.037121851 -0.0734454915 -0.0395741202 0.0189669859 -0.029232325 -0.150798261 0.0416804254 -0.0283387508 -0.146391422 0.0234629642 -0.0406731591 -0.130422026 -0.0401797704 -0.0481295325 -0.0358420163 -0.0260399263 -0.0485012531 -0.0469610877 -0.0249100197 -0.0738216564 -0.048252847 -0.0220379028 -0.0288120955 -0.0575004704 -0.0270595104 -0.0462130308 -0.0545164794 -0.0401794687 -0.0460632332 -0.0459131412 -0.0428539217 -0.0280364547 -0.0437501781 -0.01137162 -0.0484981239 -0.0526785068 -0.0145227518 -0.0452437252 -0.0602624528 -0.0189856924 -0.0338386148 -0.060102649 -0.0202180278 -0.0468423478 -0.0654950216 -0.0222183187 -0.0305922721 -0.064412795 -0.0220679194 -0.017892804 -0.0731783584 -0.0185671207 -0.024706101 -0.0698636323 0.0532295108 -0.0291859824 -0.328518122 0.0527214892 -0.0227366909 -0.298742414 -0.0115106627 -0.0244208723 -0.0843293816 -0.0154667525 -0.0941842422 -0.0519747771 -0.00930080935 -0.0731222481 -0.0534877926 0.00286889332 -0.0941536874 -0.054293897 -0.00565623213 -0.0482461452 -0.100579053 -0.00816467032 -0.0249980148 -0.0944965631 0.000382079335 -0.0468789153 -0.113893695 -0.012393673 -0.0468846262 -0.0829374418 -0.00926618744 -0.0494477972 -0.0824404955 -0.000758970389 0.0207721572 -0.404406786 -0.00339663075 0.020637216 -0.396451086 -0.00876779482 0.0203453302 -0.427039921 -0.00655534631 -0.0174601357 -0.119568393 -0.00414820062 -0.0182612557 -0.162462369 -0.00265003368 -0.0240560975 -0.112890795 -0.0133887446 -0.0180130545 -0.0922431946 0.000597856881 -0.0203154702 -0.404886872 -0.01084093 0.0294878185 -0.372230381 -0.0138912303 0.0238395594 -0.360819876 -0.00683676684 0.026795892 -0.336442679 -0.0530594289 -0.0482491516 0.00825522374 -0.0602468364 -0.0461310335 0.00861561671 -0.0556944534 -0.0462772176 0.0247385502 -0.0489245616 -0.0486662313 0.022109367 -0.0414872915 -0.0482155755 0.0341660045 -0.0566572919 0.0189618692 0.0226348061 -0.039878387 -0.0939618573 0.0371686518 -0.0426515341 -0.0745058432 0.0338213071 -0.0483438037 -0.0941804126 0.0248457696 -0.0270554908 -0.0938777402 0.0471412838 -0.0500902757 -0.0735986158 0.0208543669 -0.0430293716 -0.0461034775 0.0435534194 -0.0289579779 -0.0485141426 0.0451743528 -0.0243869275 -0.0462902226 0.0558981039 -0.0311826579 0.0220385846 0.0509929024 -0.0444660522 0.0197128803 0.0411409028 -0.0161052234 -0.0481154844 0.0511694923 0.00478645973 -0.0938001573 0.0541732907 -0.013902938 -0.0940588638 0.0525256693 0.0187927894 -0.0941151753 0.050880149 -0.000167363498 -0.0482527204 0.0538892634 -0.000214539905 -0.0463682897 0.0613432489 -0.015978571 0.0266722236 -0.416020453 -0.0202414989 0.0201978609 -0.413586915 -0.0253342297 0.0210899282 -0.402479738 -0.0175373033 0.0295307655 -0.406731635 -0.0210924689 0.0262384675 -0.38976559 -0.00442363089 0.0138676679 -0.285945326 -0.00398507295 0.0225038603 -0.31580466 -0.00656706607 0.015814364 -0.315621197 0.00287337066 0.0237865206 -0.440450788 -0.00352728483 0.0215138402 -0.43236661 -0.00194900099 0.0266423933 -0.427033752 0.0037945027 0.0289201383 -0.434584022 0.00125196064 0.0295910798 -0.404862702 -0.00522780744 0.0296935271 -0.399693459 0.000356094941 0.029333597 -0.333457708 0.0327420123 0.0195798725 0.0511680543 0.025212178 -0.0461993441 0.055455219 0.0431581885 -0.0461287908 0.0433075652 0.00158508297 0.022049984 -0.302375168 -0.057037212 0.0196030047 -0.020916285 -0.0543749966 0.0257091802 -0.0118217329 -0.0439933464 0.0230517704 -0.0387234241 -0.0609542616 0.0182169341 -0.00161655212 -0.0329704247 0.0259147938 -0.0447815508 -0.0316256061 0.0288470518 0.000764325028 -0.0221541561 0.0201687496 -0.0692954361 -0.0166537147 0.0151484692 -0.0839626193 -0.000475279638 0.0213428512 -0.0918540582 -0.0149345035 0.0287770182 -0.0276234131 -3.97870317e-05 0.0299935024 1.5634052e-05 0.0179765727 0.0222577546 -0.434371382 0.0195110515 0.0268451124 -0.429533541 0.0143916812 0.0286120754 -0.438373059 -0.00597577309 0.0186938867 -0.0999884531 -0.00349590159 0.0158525705 -0.134142131 -0.00536377029 0.0113591468 -0.130031139 -0.00921702571 0.0129780583 -0.106753945 0.0562014058 0.0251621585 -0.404898852 0.0549079254 -0.0255733244 -0.411753774 0.0558538437 -0.0244781468 -0.389061987 0.00681532081 0.0196971092 0.0604389571 -0.0142002646 0.0192185175 0.0591684952 -0.0553743355 0.0253668651 0.0103362361 -0.0476576202 0.0254087076 0.030125523 -0.0126576396 0.025939703 0.0540571958 0.0131126586 -0.0279421825 -0.439425051 0.0110844513 -0.0251659118 -0.444237798 0.0242325421 -0.0285173748 -0.444219649 0.012158935 -0.0273381229 -0.422879338 0.0130761024 -0.0202521253 -0.420768231 0.0217231791 -0.0272624064 -0.429163605 0.022683559 -0.0275867227 -0.413102716 0.00528943585 -0.0201135781 -0.399695903 0.00444645574 -0.0295458436 -0.400786996 0.000778615125 -0.0293909926 -0.395576775 0.00794003531 -0.0264186393 -0.366993666 0.0105004972 -0.0270449985 -0.363366842 0.018014295 -0.0280583855 -0.37978816 0.0196036156 -0.0197820272 -0.383058429 0.00718959142 -0.0207416564 -0.36729148 0.023501439 -0.0200909674 -0.39328444 -0.00014679486 -0.0192866493 -0.356583565 0.00971223135 -0.0185797438 -0.362439632 0.0248567611 -0.0264323466 -0.373399854 -0.0012688844 -0.0208127964 -0.251222998 0.0179884676 -0.0223078206 -0.433193415 0.025221454 -0.0273369327 -0.439046711 0.0245034322 -0.0221596025 -0.432808012 0.0339884348 -0.0256395917 -0.443235159 0.0450614244 -0.0280145779 -0.427649796 0.0225684084 -0.0201714411 -0.410167068 0.0257031713 -0.0271353368 -0.402555525 0.0215311404 -0.0272831842 -0.384471864 0.0264788754 -0.0190606825 -0.374418855 0.0277967583 -0.027234979 -0.375867158 0.0343856215 -0.0270410944 -0.379910022 0.0516381823 -0.0941017941 0.0168535672 0.0542686656 -0.0733524039 0.00159100175 0.0485436097 -0.0728784949 0.0238614734 0.0391021073 -0.0284406617 -0.439445853 0.035071224 -0.0296280328 -0.431867808 0.0439072624 -0.0250279997 -0.436612099 0.0538170934 -0.0246497001 -0.424210429 0.0508885272 -0.0230618753 -0.428448826 0.0513844639 -0.0286070183 -0.42035538 0.0456147194 -0.0295310635 -0.418792784 0.0567495078 -0.0201960225 -0.417827666 0.0572435744 -0.0269798469 -0.406147242 0.04945869 -0.0298076775 -0.399836183 0.0599575266 -0.019734107 -0.403857827 0.0502968058 -0.0272042472 -0.382970512 0.0596184805 -0.0235104971 -0.331260592 0.0595075749 -0.0163537879 -0.296914846 0.055856213 -0.020790102 -0.29180631 0.0559482314 0.021476537 -0.419146061 0.0255792644 0.0260493979 0.0485029966 -0.00214218791 0.029172577 0.0294505395 0.000547638396 -0.0358311608 -0.14108552 0.028028734 -0.0469964556 -0.0618312806 0.0171931032 -0.0452657863 -0.0611114576 0.0104145724 -0.0480477065 -0.0531855747 0.0277149938 -0.0245121196 -0.151377618 0.0311514176 -0.0755024552 -0.0448529311 0.0205321666 -0.0940801427 -0.0503071658 0.0307741128 -0.0472246818 -0.0473156944 -0.0167037603 -0.0731856227 0.051491905 -0.00107195694 -0.0729568005 0.0541273504 0.0329102501 -0.0939107984 -0.043188341 0.0439811051 -0.0939481929 -0.0322885476 0.0393129289 -0.0725596175 -0.0368396863 0.0493400246 -0.0728133097 -0.0221269466 0.0454952307 -0.0488737077 -0.0283487141 0.0554463118 -0.0483776815 -0.055031579 0.0207951069 -0.0489577577 -0.0782194734 0.0534431599 -0.0491283759 -0.0838161707 0.0480757616 -0.0449259691 -0.0400388762 0.0512615591 -0.0462837294 -0.0324513093 0.0547751784 -0.0237160195 -0.143883407 0.0424000695 -0.0486223139 0.0327378623 0.0342519134 -0.072995171 0.0420776159 0.0515246205 -0.0481328741 -0.0146866115 0.0557261035 -0.0392999537 -0.122658983 0.0555157401 -0.0463570543 -0.0407378599 0.0559314974 -0.0254157837 -0.0374318473 0.0511920899 -0.0288019925 -0.0338528864 0.0592232496 -0.046211347 -0.015083109 0.0540949851 -0.0481707864 0.00159427896 0.0564814545 -0.0288733188 -0.140806049 0.0602887869 -0.0189128462 -0.035276752 0.0563692264 -0.028365016 -0.0238988735 0.0609983541 -0.0290072411 -0.00527114002 0.0213146154 -0.074233979 0.0504509844 0.0351834632 0.0272168685 -0.380199403 0.0254510455 0.0263250135 -0.403075933 0.0209283177 0.0273592249 -0.415402681 0.021510791 0.0274398047 -0.384996474 0.0172341075 -0.0484920107 0.050770361 0.0332812741 -0.0940736309 0.0429426096 0.0315951779 -0.0481896959 0.043531023 0.0446881801 -0.0940008685 0.0308454372 0.0492784753 -0.0481724516 0.0214108806 0.0492387973 0.0191019326 0.035872262 0.0605632924 -0.046161864 0.00729444344 0.0556881092 -0.0462011024 0.0247493722 0.00919878855 0.0181804672 -0.361843616 0.0116110863 0.0253040679 -0.444435537 0.0203255042 0.0285436902 -0.444195181 0.010238138 0.0204374455 -0.422644645 0.0124251787 0.0278542377 -0.42303586 0.01965685 0.0198412482 -0.382885277 0.00870438386 0.0262798239 -0.368721664 0.00702365767 0.0204920303 -0.367059082 -0.00116551027 0.0190168265 -0.357685775 0.0106864944 0.0276644118 -0.364047438 0.00213763001 0.0197098181 -0.280525774 0.0233686212 0.0298171844 -0.434625477 0.0241751056 0.0274296682 -0.439865232 0.0235453229 0.0224086009 -0.432073236 0.0359581299 0.0256545506 -0.442609549 0.0409756564 0.0282319468 -0.438559562 0.0230372977 0.0200722963 -0.409861505 0.0235344004 0.020206878 -0.392968059 0.0193804763 0.0273845829 -0.380352288 0.0251148995 0.0259712823 -0.373399049 0.0277202222 0.0268295333 -0.376069874 0.0267805103 0.0191100519 -0.374613494 0.0389667675 0.0293068029 -0.431609482 0.0480334237 0.0278150067 -0.422610611 0.0493275076 0.0235153884 -0.430445403 0.0497027338 0.0274798833 -0.427345186 0.0452555902 0.0296482313 -0.420126498 0.0506688282 0.0276574716 -0.383131176 0.0542705581 0.0286696255 -0.408344269 0.0593843907 0.0236757472 -0.406249583 0.0553109162 0.0247325711 -0.38817963 0.0597019084 0.0227254052 -0.326413751 0.0530900136 0.0226697791 -0.300989568 0.0597651675 0.0136549128 -0.288694352 0.052797839 0.0295371357 -0.33086589 0.00339652086 0.019951053 -0.121926695 0.00391744031 0.0292361714 -0.397274882 0.00547766313 0.0201801155 -0.399936199 0.0539653413 0.0245949756 -0.035908211 0.0596675053 0.0182757806 -0.0468015783 0.056445621 0.019101752 -0.0786055028 0.0208567213 0.0288984943 -0.0229736678 0.0510725453 0.0205315873 -0.0829394683 0.0601780005 0.0140220728 -0.0867420211 0.0603903569 0.020267196 -0.0104433428 0.0552601367 0.0257222112 0.00594900548 0.0174607635 0.0225228947 0.0564323626 0.0448929518 0.0256307162 0.033108715 0.0283727925 0.028868163 0.0114625096 0.0584921762 0.0200520828 0.0157081597 -0.0540132895 -0.0740461871 0.00535353646 -0.0118139684 0.019345073 -0.384298176 -0.0495596491 -0.0941343382 -0.0223906431 -0.0530892909 -0.0733500868 -0.0114277555 -0.0535862371 -0.0940330252 -0.00905243121 -0.00660810294 -0.0194849018 -0.371727794 -0.0305852611 -0.0735154897 0.0446625687 0.00703770388 -0.0742663369 -0.0538491495 0.0533149838 -0.0446855426 -0.109145142 -0.0421634577 -0.0941212475 -0.0344066881 8.52944213e-05 -0.0296875779 -0.404722393 -0.0528757274 -0.0941060856 0.0118278535 -0.0291790385 -0.0941535532 -0.0458613709 0.0533700027 0.0197840519 -0.276533574 0.0543405972 -0.0940373763 -0.000921690953 0.0515578277 -0.0941346586 -0.0171926413 0.0559745654 0.0283992589 -0.344701022</float_array>
          <technique_common>
            <accessor source="#positions_array" count="315" stride="3">
              <param name="X" type="float" />
              <param name="Y" type="float" />
              <param name="Z" type="float" />
            </accessor>
          </technique_common>
        </source>
        <source id="normals">
          <float_array id="normals_array" count="1794">-0.736842752 -0.668930352 0.0979539528 -0.911924064 -0.409045666 -0.0328042954 -0.486563593 -0.862901926 -0.136587575 -0.815527022 -0.335862905 -0.47128734 -0.897227287 0.0332391784 -0.44031623 -0.949693441 -0.190443397 0.24862349 -0.800190389 -0.563532472 0.205247268 -0.346989602 -0.932856143 0.0968383327 -0.884530842 -0.425192028 0.191877514 -0.703048706 -0.314634681 -0.637751997 -0.674586177 -0.18502827 -0.714631438 -0.602517426 -0.110225432 -0.790457547 -0.492483348 -0.752533257 -0.437211484 -0.0691278577 -0.98987329 -0.123984538 0.413105667 0.107804656 -0.904279768 0.327706188 0.192213237 -0.925020397 0.369037658 0.148581311 -0.917461038 0.582377493 0.671882331 0.457614034 0.533782542 0.715764463 0.450286001 0.447712272 0.79312557 0.412923187 -0.803233683 0.344639629 -0.485838592 -0.771473527 0.334966898 -0.540948927 -0.816433489 -0.00118567876 -0.577438295 0.862368345 -0.130432591 -0.489191383 0.762535453 -0.00326274754 -0.646938205 0.710619628 0.0487111136 -0.701888144 -0.34011817 -0.928343892 0.149990961 -0.502902985 -0.832890332 0.231045946 -0.221885815 -0.965007067 0.139742568 -0.758893847 -0.640604496 0.117072895 -0.992720306 -0.00247226516 -0.120417088 -0.947815955 0.309273094 -0.0774275288 -0.982017696 0.182333544 -0.0489456877 -0.979839802 -0.0338193029 -0.196901485 -0.992682338 0.0121185211 -0.120145395 -0.992353439 -0.114991285 0.0448516458 -0.322047532 -0.945765615 -0.0425771251 -0.295932233 -0.952452779 -0.0725112334 -0.243396521 -0.956095994 -0.163213313 -0.27450335 -0.951095283 -0.14165327 0.467038721 0.00969974697 -0.884183645 0.662366569 0.00840041135 -0.749132812 0.404335678 0.0284263697 -0.914168775 0.134526223 -0.00146156899 -0.99090898 0.149327189 0.00206236169 -0.988785684 0.13702704 -0.000866709335 -0.990566909 -0.86247766 0.0254053026 -0.505457103 -0.883767545 0.0127489073 -0.467752486 -0.681710541 0.0272772145 -0.731113315 0.0949977934 -0.621905148 -0.77730912 0.222943783 -0.599100351 -0.769008994 0.0784666836 -0.91257441 -0.401311487 -0.738900483 0.00165254402 -0.673812509 -0.494554341 0.0128786694 -0.869051278 -0.454655528 0.0249753594 -0.890317142 -0.500001192 -0.00329369958 -0.866018414 -0.498108029 -0.00494897692 -0.867100835 -0.652653217 -0.00684545701 -0.757625818 -0.851306021 -0.0142146861 -0.524476886 -0.736016572 -0.00320166349 -0.676955998 -0.209402472 -0.958602607 -0.192955166 -0.191375047 -0.958933711 -0.209336385 -0.152789891 -0.954512656 -0.256048411 -0.13326247 -0.948621929 -0.286980033 -0.560167789 -0.609493077 -0.561008275 -0.568241179 -0.632840514 -0.525941908 -0.46636039 -0.5733096 -0.673664629 -0.0385548882 -0.928581715 -0.369119883 -0.414042771 -0.0364841074 -0.90952599 -0.928303361 -0.358080029 0.100157604 -0.683784008 -0.223271146 0.694686592 -0.615632176 -0.251367986 0.746867537 -0.855387449 -0.368649215 0.363881916 -0.706690729 -0.576499403 -0.410166681 -0.689567804 -0.591703415 -0.417592257 0.35620144 -0.927032709 0.117178716 0.35312897 -0.932023764 0.0814351216 -0.752135754 -0.582377791 -0.308428198 -0.843224823 -0.535624504 0.0455883406 -0.866388559 -0.333823621 -0.371392816 -0.883045912 0.45950973 -0.0952926502 -0.90752846 0.25135377 -0.336471885 -0.934375167 0.230384663 -0.271782964 -0.27358222 -0.0158578642 -0.961717904 -0.170910552 0.0187550504 -0.985108018 0.0494753681 -0.0160850491 -0.998645842 -0.960510015 -0.0313012898 -0.276479274 -0.946454942 -0.0251587834 -0.321854204 -0.570603311 -0.749462843 -0.33573398 -0.587887883 -0.754524946 -0.291684747 -0.583167017 -0.753275573 -0.30412513 -0.596502066 -0.771042526 -0.222887248 -0.607869744 -0.775111079 -0.172328755 -0.59941721 -0.772224605 -0.210637525 -0.586676061 -0.766502917 -0.261313081 -0.049293343 -0.927569389 -0.37038514 0.00118083321 -0.999984503 -0.0054445006 0.0153693529 -0.999791801 -0.0134194056 0.0137724876 -0.999862611 0.00922462251 -0.778857768 -0.616139889 -0.11726997 -0.907468677 -0.419909 -0.0133064985 -0.761452496 -0.64633137 -0.04945549 -0.771318138 -0.610781133 -0.178926557 -0.781453252 -0.564283788 -0.266297877 -0.293948621 0.955016077 -0.0392231867 -0.811761141 -0.523847163 -0.258124113 -0.426183134 0.884360969 -0.190456182 0.626831114 -0.00434843218 0.779143035 0.618534029 0.00433715526 0.785746038 0.600103617 0.0232081041 0.799585581 -0.324292332 0.940770447 0.0989212766 -0.901862919 0.378575474 0.208143756 -0.677568913 0.709284544 0.19446288 -0.291108519 -0.956109881 0.0333130509 -0.281235933 -0.959208071 0.028743891 -0.27907604 -0.952119708 0.124838457 -0.28408128 -0.949739456 0.131501958 -0.229770973 -0.956335545 0.180631042 -0.885260224 0.305507421 0.350684345 -0.99252677 -0.00816844869 0.121753417 -0.905847311 0.000290763099 0.42360428 -0.725418031 -0.0044866479 0.688293993 -0.779846668 0.0219197907 0.625586629 -0.892445743 -0.00877890456 0.451069385 -0.0308549181 -0.998597682 0.0430194624 -0.0155234113 -0.999476314 0.028392667 0.00393760018 -0.999991417 -0.00128345378 -0.926887989 0.0228098035 0.374644279 -0.204710379 -0.958283603 0.199464768 -0.167433649 -0.953144073 0.251957029 -0.0982511565 -0.962756276 0.251887083 -0.704487681 0.00593503844 0.709691405 -0.518515289 0.0176752247 0.854885638 -0.687037587 0.337628722 0.643417597 -0.0620465912 -0.962804556 0.262978286 0.00390953012 -0.993735552 0.111688815 -0.00336646847 -0.999946535 0.00978027005 0.00109674386 -0.999977887 0.00656196848 0.00244580628 -0.966576993 0.256364763 0.00211465312 -0.969493151 0.245109349 -0.658019602 0.587797165 -0.470642895 -0.803529263 0.347372472 -0.483397454 -0.824132681 0.556959867 -0.102961332 -0.459428966 0.877812147 -0.13553904 -0.776161849 0.608967483 0.163497344 -0.957830369 0.130488798 0.255995423 -0.917496622 0.393661052 0.0568410121 -0.920344591 0.359459192 0.154126346 -0.974791825 0.181702107 0.129480585 -0.760754704 0.205330536 -0.615704179 -0.272687256 -0.848079085 -0.454316616 -0.486429691 0.667000473 -0.564355016 0.519055724 -0.687637329 0.507677138 0.605136991 -0.655711651 0.451499164 0.517751276 -0.741277158 0.42713204 -0.294004291 0.899042368 -0.324475467 0.619457126 -0.101004638 0.778505564 -0.19356598 0.969783008 0.148502812 -0.459330678 0.859472215 0.224327564 0.509031475 0.0211145058 0.860488892 0.399259269 -0.00618642103 0.916817188 0.706728458 -0.00854567159 0.707433343 -0.282964408 0.938159287 0.199469939 -0.865571201 0.38144052 -0.324483633 -0.51167196 0.851978183 -0.111018039 -0.553862929 0.721681416 -0.41522494 -0.95437932 0.29818204 -0.0157361031 -0.283830523 0.917587519 -0.278340399 -0.0870428309 0.996191263 0.0051541836 -0.578757703 0.700069964 -0.418260127 -0.777779698 0.462642431 -0.425465256 -0.105015978 0.987438381 -0.118055642 -0.038067814 0.996449828 -0.0750901401 -0.000494204636 0.999995887 -0.00282986765 -0.864926696 -0.197348416 0.461470872 -0.713868916 0.648547471 -0.264153928 -0.755289197 0.654960871 -0.0237580799 -0.981570482 0.173050433 -0.0810738653 -0.731200397 0.652016938 -0.200548917 -0.299179286 0.947675467 -0.111368693 -0.943741143 0.00807993766 -0.330586344 -0.883695185 -0.000498140173 -0.46806258 -0.91391927 -0.0104484409 -0.40576151 -0.999890566 0.00864229817 -0.012005263 -0.997585058 0.00618346734 -0.0691798776 -0.999662459 0.0139842788 0.0218943823 0.156285688 0.0213351175 0.987481415 0.00387035054 -0.00944249891 0.999947906 -0.972055852 -0.00849005021 -0.234596014 -0.256925464 0.0173600968 0.966275275 -0.832971036 0.536531687 0.135251656 -0.460968018 0.834440231 0.302023113 -0.283745408 0.858575225 0.427009493 -0.106418841 0.865695655 0.489127874 -0.156545356 0.620373964 0.768524349 -0.154479757 -0.933896422 -0.322449267 0.17597267 0.872846842 0.455161572 0.22892715 0.888801634 0.39701885 -0.53902477 -0.0208566189 -0.842031658 -0.166840509 -0.658516347 -0.733839571 -0.0139641874 -0.980856001 -0.194233254 0.474770337 0.189506948 -0.859465122 0.542591035 0.202567965 -0.81520623 0.0175019931 0.999738097 -0.0147462012 0.00830170885 0.99996531 -0.00067530782 0.0187324546 0.999197662 -0.0353993736 0.826443851 0.191662565 -0.529392123 -0.741624951 -0.0113059497 0.670719504 -0.717480421 0.0102151847 0.696503818 -0.699605823 0.025473455 0.714074731 -0.565508187 -0.0890846178 -0.819917321 -0.673421264 -0.000800057838 -0.739258528 -0.718240678 0.0408233516 -0.694596112 0.19740878 0.979866445 0.0298580695 0.0901739746 0.9957214 -0.0201871376 -0.0726631135 0.992867649 -0.0945194066 0.78488338 0.100620307 0.61141938 0.778053284 0.123543233 0.615930319 0.78807044 0.0893297791 0.609069049 0.774520278 0.134805337 0.618017733 -0.0273064356 0.999620736 0.00357288145 0.00489236042 0.999836206 -0.0174231958 -0.0124332337 0.999867558 -0.0105013959 -0.00064891472 0.990834355 -0.135081068 -0.238271758 0.927131355 -0.289230138 -0.0115370946 0.99637723 -0.0842573643 0.84410423 0.117678814 -0.52310586 0.853338778 0.134630084 -0.50367415 0.837535739 0.106225841 -0.535957038 0.820752442 0.0788126215 -0.565821528 -0.555532634 0.0134705398 -0.831385612 -0.579261839 0.0202148464 -0.814890862 -0.573495984 0.0362381265 -0.818406463 -0.592267573 -0.805697322 -0.00842215866 -0.00168186496 0.757458389 -0.652881265 -0.000757086033 0.758024693 -0.652225435 -0.0166716501 0.74810946 -0.663365841 0.0201662127 0.770511448 -0.637107074 -0.0117674535 0.966169894 0.257637799 0.0467066802 0.177917778 -0.982936263 -0.0998356417 0.959029078 0.265134096 -0.304126412 0.936694682 0.17352289 -0.763326108 -0.0516404137 0.643946111 0.889593959 0.245664835 -0.385060251 -0.060806077 0.60183996 0.796298504 0.908630252 -0.263941705 0.323613673 0.970450699 0.235830143 -0.0510836877 0.972899199 0.121823922 0.19653517 0.922255397 0.171724811 0.346345961 0.946272552 0.112322614 0.303235739 -0.124277085 0.985246122 -0.117665768 -0.719931662 0.305343688 0.623268485 -0.74325496 0.364416391 0.561046124 -0.72645098 0.320711285 0.607793689 -0.69204849 0.246088266 0.678608477 0.762836039 0.273071885 -0.586099803 0.759584665 0.259607166 -0.596351683 0.76942867 0.303603798 -0.561964691 0.751901805 0.230651021 -0.617611408 -0.523254871 0.0661699325 -0.849603355 -0.571218014 0.0120456424 -0.820709944 -0.378215283 0.0143602695 -0.925606251 0.95441854 0.00792932324 0.298366129 0.999552786 0.0142602688 0.0262841247 0.898131728 0.0178180356 0.439365417 0.310390502 -0.514607787 -0.799272537 0.413659871 -0.700236619 -0.581854045 0.250528038 -0.585565746 -0.770940006 0.0518963449 -0.996603251 -0.0639429763 -0.362012058 0.86938405 0.336331218 0.675902784 -0.444117188 -0.588145733 0.835472405 -0.320092916 -0.446683824 0.788961053 -0.141135842 -0.598014295 0.448831469 -0.874039352 -0.186025769 0.0792760178 -0.995859027 -0.0444981679 -0.627141774 0.725378275 0.283759683 -0.427725405 0.899204493 0.0920990929 -0.773395121 0.572455823 0.272312939 0.725455463 -0.682020843 -0.0925311148 0.956983805 -0.156698376 -0.244187668 0.165106788 -0.986221373 -0.010349567 0.982715368 -0.153942376 -0.10282132 -0.140855014 0.989886582 -0.0168653447 -0.461031288 0.887070119 -0.0235945359 0.906127751 -0.420496702 0.0459889323 0.704971611 -0.708741546 0.0264667869 0.666372955 -0.744880795 -0.0331622213 -0.999723136 0.0202118438 -0.0120475162 -0.949407279 -0.0281508453 -0.312783182 0.224569917 0.889585435 0.397751331 -0.0115996413 0.996787548 0.0792465806 0.0229807086 -0.880322516 -0.47381869 -0.599636137 -0.757135868 -0.259194344 0.0234762318 -0.976881087 -0.21249041 -0.00486328034 -0.924040854 -0.382262796 -0.0943603367 -0.979419231 0.178421095 -0.0272568334 -0.947332621 0.319089353 -0.0153349089 -0.977316558 0.211227819 0.0257962737 -0.241912991 0.969954967 0.0391685851 -0.943529189 -0.328965873 0.0848260224 -0.952640533 -0.292028308 -0.447642684 -0.893396437 -0.0381946042 0.0573645309 -0.353424937 -0.93370235 0.051995229 -0.367252797 -0.928666711 0.17743209 -0.405427694 -0.896741986 0.564648867 0.223812237 -0.794405282 0.360817194 -0.0120841824 -0.932558239 0.251849383 -0.897764921 -0.361372501 0.237737939 -0.702232003 -0.671081841 -0.306106806 0.0188971572 0.951809585 -0.239856526 -0.00370862172 0.970801234 -0.00767362211 0.0162090752 0.999839187 0.613124728 -0.0128444619 -0.789881647 0.807165623 0.0123355687 -0.590196133 0.0251614004 -0.999359965 -0.0254269559 0.00832618028 -0.99991858 -0.00966869388 0.0375835113 -0.998427153 -0.0416021869 0.730834186 0.034203317 -0.681697547 0.919831097 0.016932318 -0.391949087 0.846632302 0.0254216455 -0.531570733 -0.0601722337 -0.992295265 0.108302332 -0.00888398848 -0.995693266 0.0922818556 0.0197610967 -0.998288989 -0.055032663 0.52553302 -0.705434084 -0.475581527 -0.159487203 -0.958144128 0.237746954 -0.13957645 -0.96543467 0.220123529 0.240899622 -0.92954421 -0.279132545 0.269366562 -0.94307667 -0.195059106 0.299171269 -0.93602854 -0.185329825 0.302718401 -0.384327829 -0.872154653 0.78777349 0.0145117482 0.615794063 0.657681644 0.0209897477 0.753003538 0.962797403 0.0114003895 -0.269983709 0.991352558 -0.130336598 -0.0152468784 0.997635305 -0.0687077269 -0.00174957945 0.903672636 -0.424759001 -0.0543651506 -0.119977266 -0.975215316 0.185904756 0.0624320954 -0.156844363 0.985648036 0.781455457 -0.559400022 0.276403725 0.718331158 -0.416120857 0.557533681 0.713193476 -0.366970569 0.597233355 0.251803577 -0.964760423 -0.076369673 0.247828692 -0.966644645 -0.0646453053 0.281767547 -0.95946449 0.00591183314 0.3090536 -0.40984118 -0.85820514 0.950323284 0.3112185 -0.00535343587 0.99994576 -0.00877415296 0.00561324228 0.971881688 0.235424936 -0.00459117675 0.813225389 -0.576993287 0.0757841691 0.752019584 -0.610621095 -0.248210534 0.673527598 -0.665784955 -0.321077883 0.716440737 -0.637690485 -0.28295508 0.78331387 -0.583346128 -0.214771181 0.0789742544 0.00355345756 0.996870339 0.348409742 -0.0239666831 0.937035859 0.374736786 0.024659019 0.926803231 -0.188381821 -0.00230768998 -0.982093155 -0.355762541 -0.0218946617 -0.934319854 0.241512716 0.970370948 -0.00719816098 0.122220807 -0.957157373 0.262510687 0.0783975646 -0.941656232 0.32731846 0.618767858 -0.0134346085 0.785458982 0.31936276 0.0198780354 0.947424054 0.575702727 0.0137577327 0.817543328 0.168195039 -0.955980897 0.240439028 0.206533879 -0.955213904 0.211920276 0.817461789 0.0110959876 0.575875998 0.927083552 0.0130951777 0.374626011 0.320110351 -0.926943302 0.195717946 0.255115449 -0.960764825 0.108844049 0.810856283 0.0161600225 0.585022211 0.999142826 0.00688597094 0.0408195183 0.262391955 -0.964046478 0.0420099348 0.237465486 -0.965248585 0.109111644 -0.485937983 -0.00149157329 -0.873992026 -0.512925386 -0.0321162306 -0.857832193 0.169016495 -0.895271242 0.412216961 0.36692515 -0.923609734 0.110955156 0.175958917 -0.89660126 0.406379968 -0.309664667 0.786475599 -0.534381807 -0.0658885464 0.972883821 -0.221710995 0.232463792 -0.21446012 -0.948666155 0.444563746 -0.210198075 -0.870735228 0.219966978 -0.23726733 -0.946212828 0.501211822 -0.192297876 -0.843687296 0.756944895 -0.221720487 -0.61471498 0.745432377 -0.157041594 0.647818327 0.771327853 -0.077532649 0.631697714 0.779726803 -0.0470775664 0.624347508 -0.204542622 -0.923655748 -0.324071586 0.0129021313 -0.989428282 -0.144447938 -0.00962563232 -0.993806601 -0.110706128 0.897535086 -0.340956509 -0.279605895 0.882475853 -0.297792524 -0.364082426 0.871226192 -0.273863077 -0.40738672 0.853024542 -0.241333127 -0.462717414 -0.367321253 0.92902267 0.0446312279 -0.0696884394 -0.997392118 -0.0187759567 -0.0445319638 -0.998949051 -0.0108477501 -0.0393271036 -0.9977476 -0.0543429479 0.00565769989 0.997020066 -0.0769347921 -0.190996438 -0.597973406 -0.778426766 -0.0110022277 -0.721850216 -0.691961825 0.024114944 -0.741344154 -0.670691669 -0.0211055744 -0.95320183 0.301597178 0.234142601 -0.825733662 -0.513167739 0.0760192573 -0.131153807 -0.988443077 0.11335364 0.986015975 -0.122161441 -0.148340032 -0.95874995 0.242474154 0.198667094 0.69657743 -0.68942827 0.906311095 -0.175987929 -0.384224474 -0.273696333 -0.653090835 0.706089675 0.782110989 0.493115366 0.380972028 0.980662405 -0.185506061 -0.0623595826 0.976381481 -0.0680552348 0.205055222 0.95071286 -0.0675447583 0.302626371 0.927180529 -0.128442943 0.351907134 0.123184927 -0.988935471 0.0826563165 0.276099592 -0.9471246 0.163474843 -0.0814342201 -0.996331096 -0.0263223536 -0.752589941 -0.263668507 0.603396475 -0.77348572 -0.227044493 0.591752172 -0.75890094 -0.252922088 0.600083172 -0.159849823 -0.984773397 -0.0683329403 0.73957175 -0.289521903 -0.607627153 0.797014534 -0.204253316 -0.568373501 0.758519351 -0.263204843 -0.59613049 -0.738212585 -0.287240088 0.610356688 0.109789751 0.989225924 -0.0968415365 -0.353647143 -0.921526194 0.160384491 -0.532772958 -0.775910735 0.33780995 0.232071623 0.963780165 -0.131417513 0.133213893 0.988886297 -0.0660150871 -0.735535443 0.00391610386 -0.677474976 -0.739134908 0.00311253453 -0.673550248 -0.739445925 0.00304287742 -0.673209071 0.680801809 -0.0514676608 -0.73065722 0.821385562 0.359581769 -0.442749053 0.787409008 0.293740273 -0.541944325 0.487806737 0.865754664 -0.111863598 0.808633804 0.518869996 -0.277282 -0.666567266 -0.712437332 0.219365135 -0.425105572 -0.903963566 0.0462075099 -0.166673079 -0.98585093 -0.017831888 0.917130053 0.373625755 -0.138839126 -0.571870267 -0.818726242 -0.0514953062 0.902985692 0.422568589 0.077798523 0.679828525 0.717331886 0.152538836 0.725773454 0.683995128 0.0735086724 0.325125307 0.937938571 0.120684527 -0.191345349 0.98031497 -0.0486771166 -0.917279065 -0.249298394 0.310563147 0.412558168 0.908686578 -0.0639102086 0.775460124 0.629440427 -0.0496621802 0.56637466 0.821782887 -0.0623908602 0.0559150651 0.996530652 -0.0616459027 0.1539177 0.98677671 -0.0508037992 0.948422015 0.316807777 -0.0113352193 0.914454579 0.404688478 -0.000339304795 0.502672076 0.862658918 0.0560387336 0.116716221 0.836693704 0.535089731 0.0219424628 0.747335374 0.664084613 0.336243898 0.0653753355 0.939503133 0.434517205 0.688319266 0.580871284 0.419217497 0.853493154 0.309525609 0.0801880434 0.99638319 0.0281138569 0.633698285 0.618493736 0.46464172 0.890493214 0.379987299 0.250262856 -0.0279271528 0.998967886 -0.0358228274 0.118945435 0.991621614 0.0503843389 0.0108702499 0.999884963 -0.0105770351 -0.995352507 0.013779371 0.0953072906 -0.989468515 0.0204682592 0.143293619 -0.981134236 0.0298889354 -0.191003442 0.968033493 0.00112985808 -0.250818431 0.152042389 0.00270967744 -0.98837024 -0.913544238 -0.00296070683 -0.406728685 -0.977788329 0.0188612808 -0.208744347 -0.99032402 -0.014498597 -0.138014853 -0.0132449297 0.999836504 -0.0123080555 -0.007187251 0.999974012 -0.000570847944 -0.002820455 0.999993026 -0.00245420029 0.0075912769 0.999861658 0.0147998687 -0.0274368972 0.998394012 -0.0495647453 -0.0195398461 0.995951831 -0.0877389908 0.0153554371 0.991527498 -0.128986195 0.0931025892 0.995554566 -0.014246176 -0.562736034 0.0197290815 0.826401174 -0.997677624 -0.0612482801 -0.0297987945 0.167467654 0.0195703171 -0.985683322 0.126031324 0.0111073367 -0.991964102 -0.204194739 0.0142274052 -0.97882688 0.999552011 0.00510085747 -0.0294911042 0.99229002 -0.0171705689 0.122742556 0.0804520994 -0.965134621 -0.249083549 -0.0010249269 -0.998008013 0.0630786046 -0.915376365 -0.0438023731 -0.400209308 -0.909197628 -0.084768787 -0.407644361 -0.0339131691 -0.9980914 -0.0516089574 -0.0203384068 -0.999780536 -0.00502822408 -0.0150196142 -0.999887228 4.32731758e-05 -0.00848503318 -0.999955416 -0.00414897827 0.00702602603 -0.999872088 -0.0143666361 -0.0333160907 -0.999428332 -0.00574977184 0.0253559239 -0.995475531 -0.0915728882 -0.0183706544 -0.999820709 -0.00459380681 -0.766258001 -0.0102857118 -0.642450631 0.999673367 -0.0250066239 0.00527830934 -0.197336257 -0.980265439 -0.0117505165 -0.498606026 0.0010555468 0.866828084 0.643090129 -0.021736782 0.765481889 0.152931035 -0.859606922 -0.487532616 0.137971863 -0.89927727 -0.415047169 -0.988438427 0.0102459285 -0.151276216 0.57282424 -0.819636405 -0.00827802904 -0.970649421 -0.00793099217 -0.240367994 -0.765720785 0.022614276 0.642775476 -0.913277566 0.01370015 0.407107383 0.0131445127 0.999814212 0.0140963821 0.0069454629 0.999974787 -0.00145873381 -0.00115745584 0.999998868 0.000977146439 0.00372610753 0.0130494945 0.999907911 -0.295646697 0.0190024022 0.955108345 -0.132645845 0.990675867 0.0310873538 -0.397409499 -0.00234398386 0.917638361 -0.98102349 -0.0186648779 0.192988276 -0.120173261 -0.972367823 0.200147927 0.00473638205 -0.999988139 -0.00114864996 -0.00141887891 -0.999998808 0.000582369103 0.658657551 -0.113379821 -0.743851602 0.91379106 -0.0288517755 -0.40515855 0.919891179 -0.0277080107 -0.391193658 0.903484046 -0.0494534597 -0.425759196 0.922011137 -0.0426385663 -0.384808213 0.967817724 -0.0287431199 -0.250005394 -0.0155228414 0.985216856 0.17060706 0.231590852 -0.28606382 -0.929802775 0.56893146 0.16627185 -0.805400968 -0.540033937 -0.0130941821 -0.841541409 -0.348168015 0.208592743 -0.913930058 -0.807881713 0.138467982 -0.572847068 -0.670004606 0.0496413596 0.740695357 -0.00026488959 0.999982178 -0.00596277416 -0.563414872 -0.011207629 -0.826098084 -0.477157593 -0.106493674 -0.872341514 -0.374621302 -0.0366227403 -0.926454365 0.0650413632 0.997347891 -0.0326626785 0.695977867 -0.344810307 -0.6298576 0.0573864207 0.998308778 0.00929129869 -0.00309084775 0.999962866 -0.00804793835 -0.00803492498 0.999884248 -0.0129199708 -0.022707615 0.999682367 0.0109346425 0.00622784719 0.99991715 -0.0112672979 0.00283743069 -0.999965906 -0.00775540294 -0.076821357 -0.996713936 -0.0256865621 0.706074476 0.708015501 0.0131476251 0.00798373483 -0.996714175 -0.0806048885 0.767297208 -0.630976319 -0.114559747 -0.54464376 0.0226814542 0.838360727 -0.00556540117 0.99857676 0.0530425981 0.999746084 0.00611108821 -0.0216884036 -0.00386176771 -0.999797106 0.0197686926 0.012088771 -0.9966591 -0.0807741582 0.00858575851 -0.999632597 -0.0257089455 0.0941877291 -0.994863629 -0.0370813981 0.010131428 -0.997115791 -0.0752162039 0.953785777 0.019241143 -0.299870849 0.607778251 0.794068336 0.00781066064 -0.185977414 -0.00161631568 -0.982552707 -0.00703756092 -0.9999699 -0.00325888488 -0.00344459387 -0.999989092 0.00316283875 -0.00275782496 -0.99999398 0.00209604739 -0.0075471173 -0.999955058 -0.00573394308 -0.000520695816 -0.999999285 0.00107023248 9.49767855e-05 -0.999999404 0.00108262605 -0.0002728322 -0.999998033 0.00195197889 -0.000884979381 -0.999976158 -0.00684789056 -0.00112060574 -0.99999243 0.00372172054 0.00429878477 -0.999988556 -0.00210168189 0.00202920614 -0.999997139 -0.00124874827 0.0297117997 -0.999558091 0.000894817756 0.908887386 -0.00583565282 0.417000771 0.0286773257 -0.851259053 -0.523961484 -0.57911098 -0.025512768 -0.814849377 -0.549564064 -0.106349908 -0.828654945 -0.998520374 -0.010058281 -0.0534410626 -0.73493135 0.0040504802 -0.678129375 -0.563371718 0.170258164 0.808470428 0.731938481 -0.192646176 0.653569818 0.919839084 0.00284915511 -0.392285466 0.914559603 -0.00829139072 -0.404366165 0.925498903 0.00146874576 -0.378747374 0.926270187 0.00648742728 -0.376804292 0.919641554 0.0131630814 -0.39253816 0.999950647 0.00329334149 -0.00937254168 0.999967515 -0.00738570374 -0.00322678871 0.999982536 -0.00584264565 -0.000913145836 0.906167924 0.292564005 0.305394828</float_array>
          <technique_common>
            <accessor source="#normals_array" count="598" stride="3">
              <param name="X" type="float" />
              <param name="Y" type="float" />
              <param name="Z" type="float" />
            </accessor>
          </technique_common>
        </source>
        <vertices id="vertices">
          <input semantic="POSITION" source="#positions" />
        </vertices>
        <triangles material="scout_1a1a1a" count="634">
          <input semantic="VERTEX" source="#vertices" offset="0" />
          <input semantic="NORMAL" source="#normals" offset="1" />
          <p>0 0 1 1 2 2 1 1 3 3 2 2 4 4 3 3 1 1 5 5 1 1 0 0 5 5 0 0 6 6 7 7 6 6 0 0 8 8 5 5 6 6 9 9 10 10 11 11 9 9 11 11 12 12 4 4 9 9 3 3 2 2 3 3 12 12 9 9 12 12 3 3 2 2 12 12 13 13 9 14 14 15 15 16 9 17 15 18 10 19 7 7 0 0 2 2 16 20 17 21 18 22 19 23 20 24 21 25 8 8 7 7 22 26 8 8 6 6 7 7 22 26 23 27 8 8 23 27 22 26 24 28 23 27 25 29 8 8 26 30 27 31 28 32 29 33 26 30 30 34 31 35 8 8 25 29 32 36 33 37 34 38 35 39 32 36 34 38 36 40 37 41 38 42 5 43 39 44 40 45 41 46 35 47 42 48 43 49 44 50 45 51 46 52 47 53 48 54 49 55 50 56 51 57 34 58 52 59 51 57 35 39 34 38 46 60 46 60 34 38 51 61 46 60 51 61 47 62 47 62 51 61 50 63 18 64 49 65 52 66 47 62 50 63 53 67 49 55 54 68 50 56 55 69 56 70 54 71 55 69 57 72 56 70 18 64 58 73 59 74 60 75 61 76 22 26 58 73 62 77 59 74 49 78 55 69 54 79 49 78 57 72 55 69 49 80 59 81 57 82 49 65 18 64 59 74 63 83 64 84 65 85 29 33 66 86 67 87 66 88 29 89 68 90 69 91 66 92 70 93 56 94 69 91 70 93 53 67 50 63 54 95 71 96 72 97 73 98 74 99 75 100 26 101 74 99 26 101 76 102 77 103 74 99 76 102 76 104 26 104 67 104 62 77 58 73 77 103 62 77 77 103 67 105 59 106 62 106 67 106 21 107 78 108 19 109 79 110 80 111 81 112 82 113 83 114 33 37 84 115 83 114 82 113 85 116 84 115 82 113 86 117 84 115 85 116 87 118 83 119 84 120 88 121 89 122 90 123 91 124 88 125 90 126 90 123 89 122 92 127 93 128 84 115 86 117 94 129 93 128 86 117 95 130 93 128 94 129 93 131 96 132 97 133 95 130 94 129 98 134 99 135 100 136 101 137 102 138 95 130 98 134 103 139 95 130 102 138 104 140 105 141 106 142 107 143 104 140 106 142 108 144 106 142 39 145 108 144 107 143 106 142 108 144 79 110 107 143 80 111 108 144 39 145 109 146 110 147 111 148 104 140 73 149 105 141 73 150 112 150 113 150 104 140 112 151 73 149 114 152 73 153 113 154 104 140 115 155 112 151 104 140 107 143 115 155 116 156 117 156 71 156 80 111 79 110 108 144 81 112 118 157 79 110 110 147 81 112 111 148 110 158 118 157 81 112 119 159 120 160 121 161 110 158 109 146 122 162 123 163 124 164 16 20 124 164 125 165 16 20 124 164 123 163 126 166 125 165 17 21 16 20 124 164 127 167 125 165 124 164 128 168 127 167 17 21 129 169 130 170 127 167 131 171 129 169 17 21 127 167 129 169 128 168 132 172 127 167 128 168 133 173 132 172 134 174 135 174 136 174 137 175 138 176 139 177 137 175 139 177 140 178 130 170 129 169 137 175 129 169 131 171 137 179 77 180 58 181 130 182 141 183 142 184 143 185 144 186 103 187 120 160 57 82 59 81 67 87 126 166 33 188 83 119 87 118 84 120 93 131 103 187 144 186 145 189 146 190 126 166 87 118 146 190 124 164 126 166 87 118 147 191 146 190 147 191 87 118 97 133 96 192 147 191 97 133 96 192 148 193 147 191 96 192 145 194 148 193 13 13 12 12 11 195 10 19 149 196 150 197 10 10 150 198 11 11 11 195 150 199 151 200 15 18 149 196 10 19 14 15 152 201 15 16 14 15 153 202 152 201 152 203 154 204 149 205 153 202 155 206 152 201 156 207 78 208 157 209 20 210 156 211 158 212 159 213 160 214 161 215 162 216 159 217 161 218 163 219 159 217 162 216 162 220 164 221 156 222 165 223 166 224 163 225 163 226 166 227 160 228 163 226 160 228 159 229 166 230 167 231 160 232 24 28 25 29 23 27 24 28 168 233 25 29 140 178 130 170 137 175 13 13 11 195 151 200 169 234 170 235 149 236 169 234 171 237 170 235 149 196 170 238 150 197 150 239 172 239 151 239 172 240 150 197 170 238 170 238 173 241 172 240 154 242 169 242 149 242 153 202 174 243 155 206 171 244 169 244 154 244 171 245 154 245 170 245 174 243 175 246 155 206 174 243 164 247 175 246 164 247 162 248 176 249 175 246 164 247 176 249 160 214 167 250 161 215 177 251 162 252 161 253 177 251 161 253 167 254 162 255 178 256 176 257 162 255 177 258 178 256 178 259 177 260 179 261 180 262 181 263 182 264 172 265 183 266 151 267 183 266 184 268 151 200 173 241 185 269 172 240 172 265 185 270 183 266 186 271 183 266 185 270 185 270 187 272 186 271 188 273 184 268 183 266 189 274 184 268 188 273 173 241 187 275 185 269 186 271 188 273 183 266 173 241 142 276 187 275 190 277 187 275 142 276 191 278 188 273 186 271 187 272 190 279 186 271 188 273 192 280 189 274 191 278 192 280 188 273 190 279 191 278 186 271 190 279 193 281 191 278 60 75 192 280 191 278 194 282 142 276 173 241 194 282 143 283 142 276 195 284 61 76 60 75 196 285 61 76 195 284 196 285 197 286 61 76 142 184 198 287 190 288 198 287 142 184 141 183 199 289 200 290 148 193 45 51 201 291 43 49 68 90 29 89 30 292 45 51 68 293 30 294 202 295 54 296 56 297 203 298 54 298 202 298 204 299 54 95 203 300 27 301 168 233 24 28 27 302 43 49 28 303 43 49 27 302 205 304 38 42 206 305 207 306 33 37 32 36 82 113 208 307 204 299 203 300 36 308 204 299 208 307 209 309 100 310 210 311 211 312 206 305 212 313 212 314 207 315 211 316 213 317 214 318 212 313 38 42 213 317 206 305 213 317 215 319 214 318 216 320 217 321 218 322 38 42 37 41 213 317 37 323 36 308 208 307 37 41 215 319 213 317 18 22 17 21 58 181 219 324 203 325 202 295 203 300 219 326 208 307 220 327 208 307 219 326 215 328 37 323 208 307 205 304 44 50 43 49 221 329 44 50 205 304 182 264 222 330 223 331 215 319 224 332 214 318 225 333 216 334 218 335 226 336 202 295 216 320 226 336 219 324 202 295 227 337 219 337 226 337 227 338 228 339 219 340 224 341 215 328 220 327 229 342 224 341 220 327 230 343 224 341 229 342 44 50 221 329 231 344 221 345 227 346 231 347 232 348 228 339 227 338 233 349 228 350 232 351 232 351 234 352 233 349 99 353 101 354 235 355 194 356 179 261 236 357 237 358 238 358 239 358 103 139 102 138 120 359 120 359 102 138 240 360 235 355 101 354 241 361 240 362 223 331 242 363 120 359 240 360 242 364 120 359 242 364 121 365 182 264 223 331 243 366 222 330 182 264 244 367 121 365 242 364 222 368 121 365 222 368 244 369 245 370 119 159 121 161 33 188 126 166 123 163 230 371 244 367 181 263 246 372 247 373 230 343 121 365 244 369 247 373 165 374 248 375 166 230 136 376 113 154 112 377 114 152 113 154 136 376 136 376 112 377 249 378 115 155 249 379 112 151 115 155 250 380 249 379 114 381 251 382 73 383 114 381 252 384 251 382 252 384 238 385 251 382 253 386 254 387 255 388 248 389 256 390 255 391 254 392 257 393 255 394 257 393 248 395 255 394 110 158 122 162 118 157 258 396 122 162 109 146 135 397 252 398 136 399 115 155 259 400 250 380 136 401 260 402 134 403 260 404 136 376 249 378 261 405 134 403 260 402 249 406 250 406 262 406 250 380 259 400 263 407 260 404 249 378 262 408 250 409 263 409 262 409 238 385 264 410 251 382 261 411 135 411 134 411 135 412 261 412 260 412 238 385 237 413 264 410 265 414 239 415 253 416 264 410 237 413 265 414 237 413 239 415 265 414 257 417 254 418 266 419 267 420 266 421 253 422 267 423 257 417 266 419 239 424 268 425 269 426 267 420 253 422 269 427 259 400 270 428 263 407 271 429 260 404 262 408 272 430 271 429 262 408 270 428 273 431 263 407 274 432 273 431 270 428 275 433 143 434 194 435 263 436 273 437 272 438 274 432 276 439 273 431 273 437 198 440 272 438 271 429 272 430 198 441 273 437 276 439 198 440 141 442 275 443 271 429 276 439 277 444 198 440 141 442 271 429 198 441 278 445 275 443 141 442 279 446 280 447 281 448 280 447 279 446 282 449 283 450 258 396 138 176 138 176 137 179 283 450 210 311 100 310 99 353 284 451 116 451 285 451 131 171 283 450 137 179 286 452 287 453 288 454 289 455 290 456 131 171 288 454 287 453 291 457 290 456 286 452 288 454 292 458 287 453 286 452 286 452 293 459 292 458 287 453 292 458 291 457 76 102 67 105 77 103 294 460 148 193 144 461 148 193 294 460 199 289 294 462 144 186 119 159 199 289 294 460 119 463 295 464 199 289 119 463 296 465 199 289 295 464 295 464 119 463 245 466 293 459 297 467 292 458 295 464 245 466 297 467 293 459 295 464 297 467 63 83 48 54 64 84 9 468 4 469 1 470 298 471 82 472 32 473 277 444 193 281 198 474 193 281 190 279 198 474 40 45 39 44 299 475 41 46 300 476 301 477 301 477 302 478 298 471 300 476 302 478 301 477 32 473 301 477 298 471 33 188 123 163 34 58 14 479 9 468 1 470 14 479 1 470 78 480 153 481 14 479 78 480 156 222 153 481 78 480 1 470 19 482 78 480 19 482 1 470 20 483 5 484 40 485 20 483 1 470 5 484 20 483 20 483 40 485 303 486 156 222 20 483 303 486 89 122 88 121 304 487 26 30 28 32 201 488 201 488 30 34 26 30 258 396 109 146 138 176 204 489 305 490 53 491 42 48 46 52 48 54 52 59 49 55 51 57 47 53 64 84 48 54 234 492 292 458 297 467 297 467 246 493 234 492 68 293 306 494 218 322 56 297 70 495 217 321 69 496 56 497 57 82 57 82 67 87 69 496 67 87 66 86 69 496 54 95 204 299 53 67 39 498 105 499 73 98 73 98 251 500 71 96 264 501 265 502 285 503 264 501 285 503 251 500 71 96 251 500 285 503 39 498 73 98 72 97 299 504 39 498 72 97 265 502 253 505 285 503 72 97 285 503 255 391 72 97 255 391 299 504 255 391 256 390 299 504 42 48 307 506 41 46 31 35 25 29 75 100 231 347 227 346 226 507 216 334 225 333 231 347 231 347 226 507 216 334 105 499 39 498 106 508 100 310 209 309 91 509 8 8 80 111 39 145 39 145 5 5 8 8 21 107 308 510 78 108 44 50 231 511 225 512 45 51 44 50 225 512 74 513 139 177 75 100 87 118 126 166 83 119 227 338 221 514 232 348 148 193 145 194 144 461 140 515 74 513 77 180 304 487 88 121 91 509 86 516 85 517 92 127 282 449 274 432 284 518 79 110 282 449 284 518 117 519 79 110 284 518 259 400 116 520 274 432 116 520 284 518 274 432 270 428 259 400 274 432 74 513 140 515 139 177 102 521 98 522 210 311 146 523 128 168 124 164 95 524 103 187 145 189 195 284 191 278 193 281 230 343 229 342 246 372 200 290 199 289 296 465 293 459 296 465 295 464 302 478 309 525 298 471 133 173 128 168 200 290 30 294 201 291 45 51 21 526 2 2 308 527 157 528 308 527 13 13 308 527 2 2 13 13 7 7 157 528 192 280 157 528 13 13 189 274 192 280 157 528 189 274 13 13 184 268 189 274 22 26 7 7 192 280 60 75 22 26 192 280 300 476 41 46 307 506 35 47 46 52 42 48 232 348 197 286 196 285 298 471 309 525 92 127 127 167 17 21 125 165 272 438 262 529 263 436 82 472 298 471 85 517 45 51 225 512 306 494 220 530 219 531 228 532 233 533 229 534 228 532 229 534 220 530 228 532 138 176 109 146 139 177 98 522 209 309 210 311 222 330 242 363 223 331 282 449 118 157 280 535 72 536 117 536 284 536 20 24 158 537 21 25 52 59 16 20 18 22 147 191 200 290 128 168 147 191 128 168 146 523 97 133 87 118 93 131 63 83 310 538 48 54 145 189 96 132 95 524 182 264 243 366 180 262 58 181 17 21 130 182 148 193 200 290 147 191 285 539 72 539 284 539 156 211 157 540 158 212 78 208 308 541 157 209 165 223 163 225 303 486 303 486 163 225 156 222 163 225 162 220 156 222 153 481 156 222 174 542 164 221 174 542 156 222 269 543 268 544 236 357 256 545 248 375 165 374 152 203 149 205 15 546 239 424 269 426 253 547 173 241 175 548 176 549 173 241 176 549 179 550 194 282 173 241 179 550 178 551 179 550 176 549 175 548 173 241 155 552 173 241 170 238 154 204 173 241 154 204 155 552 155 552 154 204 152 203 22 26 61 76 24 28 205 553 61 76 221 514 27 301 24 28 205 553 61 76 205 553 24 28 310 538 307 506 42 48 244 369 230 343 247 373 157 528 7 7 158 554 7 7 2 2 158 554 21 526 158 554 2 2 291 457 311 555 288 454 306 494 68 293 45 51 290 456 283 450 131 171 131 171 132 172 289 455 38 42 207 306 305 490 305 490 65 85 64 84 65 85 305 490 207 306 66 556 218 322 70 495 202 295 56 297 217 321 36 40 38 42 204 489 116 520 259 400 115 155 116 520 115 155 107 143 117 519 116 520 107 143 117 519 107 143 79 110 274 432 282 449 276 439 282 449 79 110 118 157 225 333 218 335 306 557 304 487 94 558 86 516 48 54 310 538 42 48 64 84 53 491 305 490 217 321 216 320 202 295 311 559 280 535 122 162 181 263 180 262 312 560 260 404 271 429 135 397 135 397 271 429 238 561 271 429 275 443 238 561 135 397 238 561 252 398 275 443 236 562 239 563 252 398 114 564 136 399 236 562 268 565 239 563 275 443 239 563 238 561 224 332 230 371 181 263 13 13 151 200 184 268 131 171 127 167 132 172 214 318 224 332 181 263 313 566 181 263 312 560 214 318 181 263 313 566 89 122 304 487 86 516 132 172 133 173 289 455 229 534 233 533 234 492 8 8 31 35 111 148 197 286 232 348 221 514 75 100 25 29 168 233 215 328 208 307 220 327 96 132 93 131 95 524 276 439 282 449 314 567 109 146 111 148 31 35 209 309 94 558 304 487 314 567 277 444 276 439 279 446 314 567 282 449 99 353 235 355 210 311 92 127 85 517 298 471 111 148 80 111 8 8 275 568 194 356 236 357 213 317 212 313 206 305 90 126 309 569 302 570 91 124 90 126 100 136 100 136 90 126 302 570 100 136 302 570 101 137 302 570 300 571 101 137 300 571 307 572 310 573 300 571 310 573 101 137 101 137 310 573 243 574 243 574 310 573 63 575 241 576 101 137 243 574 180 577 243 574 63 575 313 578 180 577 65 579 180 577 313 578 312 580 63 575 65 579 180 577 313 578 65 579 207 315 212 314 313 578 207 315 210 311 235 355 102 521 94 558 209 309 98 522 235 355 223 331 240 362 120 160 119 159 144 186 243 366 223 331 241 361 241 361 223 331 235 355 244 367 182 264 181 263 311 555 291 457 281 448 297 467 245 370 247 581 297 467 247 581 246 493 245 370 121 161 247 581 47 53 53 491 64 84 43 49 201 291 28 582 311 559 122 162 258 396 305 490 204 489 38 42 255 391 285 503 253 505 221 514 61 76 197 286 27 301 26 101 75 100 140 515 77 180 130 182 229 534 234 492 246 493 70 495 218 322 217 321 206 305 211 312 207 306 236 357 179 261 269 543 269 543 179 261 177 260 248 375 267 583 269 543 269 543 177 260 248 375 248 375 177 260 166 230 166 230 177 260 167 231 257 584 267 583 248 375 278 585 141 183 143 185 275 433 278 586 143 434 75 100 168 233 27 301 296 465 289 455 133 173 102 521 235 355 240 362 289 455 296 465 293 459 293 459 286 452 289 455 286 452 290 456 289 455 279 446 277 444 314 567 281 448 280 447 311 555 116 587 71 587 285 587 253 386 266 588 254 387 92 127 309 525 90 123 303 589 40 590 299 591 303 589 299 591 256 592 165 593 303 589 256 592 35 47 41 46 301 477 234 492 232 594 292 458 292 458 232 594 291 457 291 457 232 594 281 595 279 446 281 595 196 596 193 281 279 446 195 284 277 444 279 446 193 281 195 284 279 446 196 596 232 594 196 596 281 595 304 487 91 509 209 309 111 148 81 112 80 111 290 456 311 559 283 450 258 396 283 450 311 559 60 75 191 278 195 284 313 566 212 313 214 318 29 33 67 87 26 30 118 157 122 162 280 535 117 597 72 597 71 597 89 122 86 516 92 127 133 173 200 290 296 465 34 58 123 163 16 20 301 477 32 473 35 47 52 59 34 58 16 20 288 454 311 559 290 456 139 177 109 146 31 35 31 35 75 100 139 177 68 293 218 322 66 556</p>
        </triangles>
      </mesh>
    </geometry>
  </library_geometries>
  <library_visual_scenes>
    <visual_scene id="scene">
      <node id="left_hip_pitch_link">
        <instance_geometry url="#geometry">
          <bind_material>
            <technique_common>
              <instance_material symbol="scout_1a1a1a" target="#scout_1a1a1a" />
            </technique_common>
          </bind_material>
        </instance_geometry>
      </node>
    </visual_scene>
  </library_visual_scenes>
  <scene>
    <instance_visual_scene url="#scene" />
  </scene>
</COLLADA>