<?xml version='1.0' encoding='utf-8'?>
<COLLADA xmlns="http://www.collada.org/2005/11/COLLADASchema" version="1.4.1">
  <asset>
    <created>2026-09-14T00:00:00Z</created>
    <modified>2026-09-14T00:00:00Z</modified>
    <unit name="metre" meter="1" />
    <up_axis>Z_UP</up_axis>
  </asset>
  <library_effects>
    <effect id="scout_1a1a1a_effect">
      <profile_COMMON>
        <technique sid="common">
          <lambert>
            <emission>
              <color>0 0 0 1</color>
            </emission>
            <ambient>
              <color>0.05 0.05 0.05 1</color>
            </ambient>
            <diffuse>
              <color>0.1 0.1 0.1 1</color>
            </diffuse>
          </lambert>
        </technique>
      </profile_COMMON>
    </effect>
  </library_effects>
  <library_materials>
    <material id="scout_1a1a1a" name="scout_1a1a1a">
      <instance_effect url="#scout_1a1a1a_effect" />
    </material>
  </library_materials>
  <library_geometries>
    <geometry id="geometry" name="left_hip_roll_link">
      <mesh>
        <source id="positions">
          <float_array id="positions_array" count="468">-0.0676804557 -0.0526778996 -0.0107834926 -0.067815572 -0.039661821 -0.0354659148 -0.0571720749 -0.0450666286 -0.0282059368 -0.0644367039 -0.0528503433 0.00328993052 -0.0644950941 -0.0387107581 -0.0343516842 -0.0560463034 -0.0278466549 -0.0453683957 -0.0627398491 -0.0196556821 -0.0450070873 -0.0684322417 0.00399723044 -0.0530062132 -0.040564511 -0.00378740579 -0.0561916716 -0.0683628917 -0.0167615581 -0.0494885854 -0.0571979098 -0.0516109243 -0.0097419247 -0.0381508544 -0.0258285142 -0.0496007726 -0.042892281 0.00571516529 -0.0508328229 -0.0450767912 -0.0152872093 -0.047282014 0.0395821705 -0.0123617547 -0.0470690504 0.0424685702 0.000466148427 -0.0449360982 0.0578472354 -0.0124392537 -0.0209065862 -0.0548673458 0.00994016882 0.00649605272 -0.0558111966 0.0295379777 -0.00623447262 -0.0588188544 0.0221832693 0.00109725131 -0.0443940125 -0.040318802 -0.0251243897 -0.0272284746 -0.046239581 -0.0391115025 -0.039715223 -0.0464969873 -0.0250720493 -0.0468311831 -0.0464661159 -0.00781998504 -0.0446679369 -0.052762907 -0.00827200897 -0.0519358888 -0.0386667326 -0.0145588676 -0.0331002027 -0.0384704135 -0.0436133146 -0.0482979827 -0.0394366421 0.0208230074 -0.0123065943 -0.0402574912 -0.0491986871 -0.0397306457 -0.0189889222 -0.0365114696 -0.0126789482 -0.0189442448 -0.0533016436 -0.000256867323 -0.0463718772 -0.0482175872 0.0149036497 -0.0529335663 -0.0436532199 -0.0267115459 -0.0530284792 -0.0368202552 0.0132318325 -0.039394021 -0.0506146923 -0.0574112982 0.0513614565 0.0137052815 -0.0562815517 0.0257031787 0.0468330421 -0.0644364432 0.047164347 0.0219968092 -0.0644637942 0.0468967743 -0.0226379707 -0.0112384902 -0.0163233057 -0.0629178658 -0.0073943641 -0.013061177 -0.0544905551 0.0509771891 -0.0393003672 0.00893320702 0.0444085225 -0.0390701182 0.0272492953 0.0461481027 -0.045854453 0.0199264344 -0.0394723415 -0.0247065555 0.0504495651 -0.0665407628 -0.00387579319 0.052788198 -0.0677058473 -0.029380044 0.0446559526 -0.0553870648 -0.0148381786 0.0336217657 -0.0677808449 0.00641480321 0.0353190862 -0.0677457973 -0.0145373568 0.0327556804 -0.0684461743 0.00707682129 0.0521878786 -0.0674958751 -0.0146125769 0.0494536236 -0.0644124523 -0.0186985359 0.00876496639 -0.0643651187 -0.0291576013 0.00051144656 -0.0542057902 -0.029007297 0.000893227116 -0.0543223657 -0.0181661807 0.0127332304 -0.0323858596 0.0163107086 0.0554562993 -0.0540849492 0.0061700237 0.0359085239 -0.0444061123 -0.0462332331 0.0194807276 -0.0388348103 -0.0528857261 0.0227502845 -0.0616960935 -0.0200765561 0.0458510257 -0.0546384789 -0.0290294997 0.0442293286 -0.0122428769 0.00974265952 0.0644113272 -0.0220340807 -0.0457747094 0.0453192256 -0.0255169272 -0.0203192458 0.0570510961 -0.0181332827 -0.0467003509 0.0421129689 -0.0129242819 -0.0528587438 0.0436994135 -0.0156148067 -0.0391790867 0.0502828248 -0.034177132 -0.0382081307 0.0414753221 -0.0572835617 0.0371255763 -0.037225496 -0.067863524 0.0221611876 -0.0486037284 -0.0676641539 0.0433712453 -0.0311973747 -0.00921712816 -0.0139861843 0.0532202758 -0.0287268646 -0.0191192161 0.0460855514 -0.0116384942 -0.0160515402 0.0625906065 0.026117634 -0.0468902253 0.0392448157 -0.0678566471 0.00595809286 -0.035293106 -0.0532588065 0.02154449 -0.048471991 -0.0650594458 0.0134742763 -0.0501429215 -0.0678530782 0.0555708297 -0.00838907436 -0.0574666411 0.0513837673 -0.0125881732 -0.056543041 0.0596558526 0.00209663715 -0.064222075 0.0141828638 -0.0289991386 -0.0653874055 0.00744269229 -0.0118007436 -0.049321007 0.0138603654 -0.0231589973 -0.0545593016 0.0202046689 -0.00432165852 -0.0552472025 0.00994400773 -0.00694151362 -0.0630031303 -0.0387221463 0.0357107446 -0.0551821813 0.0330931656 0.00509192841 -0.0658214018 0.0321938582 -0.000595811347 -0.0292870011 0.0193008725 -0.0464871116 -0.0420131683 0.0101847006 -0.0344603509 -0.0358731374 0.0177066792 -0.0536237806 -0.0348549671 0.0101636462 -0.0530238599 -0.0175362546 0.00989927724 -0.0527847223 -0.0131678879 0.0108316401 -0.063237384 -0.00735136028 0.00100050692 -0.0551110581 -0.0678108558 0.0372770317 0.0383936167 -0.0643220171 0.0258484427 0.0446474403 -0.0679187849 0.0557970665 0.00748600159 0.0301449094 -0.0530612096 0.0350155383 -0.0508409813 0.010978126 0.0196138863 -0.0541424341 -0.0185368285 -0.00964564458 -0.0643112883 -0.0186503567 -0.00883468892 -0.0443405807 0.00595941162 0.0508890972 -0.0448955037 -0.0150502762 0.0475378074 -0.0474910997 0.0183313098 0.0262842365 -0.0331101455 0.0102389939 0.0535249151 -0.0643690601 0.0102466 0.0492649227 -0.0309538655 0.0194885768 0.0442908034 -0.0393119343 0.00967075676 0.0376252495 -0.00401610183 0.0195485447 0.0541424267 -0.0125340438 0.0100396313 0.053466063 0.0238171406 -0.0458575711 -0.0435900092 0.0394806825 -0.0464472771 -0.0269122254 0.0476973429 -0.0476487353 -0.00449692318 0.0410674959 -0.0527456552 -0.0187666975 0.0195452143 -0.046077054 0.0465362929 0.0302298237 -0.013238092 0.0464180298 0.0232312493 -0.0394401215 0.047039967 0.048673775 -0.0133449333 -0.0250623729 0.0353731327 -0.0393539108 -0.0385308415 0.0254621748 -0.013146976 -0.0476820655 0.0231533255 0.00132655096 -0.0495706201 0.0122551797 0.000426930957 -0.0601619296 -0.0219559055 -0.0205688495 -0.0582066774 0.0460424237 0.00130187336 -0.0294003431 0.0583455488 0.000414604641 -0.0183766335 0.0536903776 0.0191325452 -0.010817267 0.054264538 0.00137986755 -0.00449604774 -0.00727892062 0.00119664962 0.0541901253 0.0241637938 0.00144111342 0.0489884093 0.0482211709 0.00112361461 0.0273259096 0.0476537384 0.0197706688 0.0274404101 -0.0649281144 -0.0596785545 -0.0105099408 0.0524253659 -0.0130739836 0.0144381067 0.0129015213 -0.0122764055 -0.0600409247 0.05784522 -0.0123123825 0.0236419849 0.0297555737 -0.012342697 0.0541145355 0.00745981652 0.0195168145 -0.0537253879 0.0592121445 0.000327843532 0.0210561007 -0.0677660108 -0.0149492957 -0.0325145535 -0.0678885952 -0.0557802245 0.00845973752 -0.0677377135 -0.0465226285 0.0258240737 -0.0650962144 0.0081443591 0.0106730033 0.0486894287 -0.039245557 -0.0194462445 -0.056477908 -0.0539030284 0.00916744489 -0.0558339283 -0.0149217164 -0.0333729498 -0.0542938635 0.00617086887 -0.0357001983 0.0289964955 0.000494667562 0.0544816554 -0.00935463514 0.000341783365 0.0614960194 0.0360122174 0.0197467618 -0.040839728 -0.063244015 0.0367520414 -0.000469539693 -0.0215445571 -0.0526152924 -0.0097694546 -0.0641761422 0.01461922 0.0275687519 0.0215551686 0.019377796 0.0497781858</float_array>
          <technique_common>
            <accessor source="#positions_array" count="156" stride="3">
              <param name="X" type="float" />
              <param name="Y" type="float" />
              <param name="Z" type="float" />
            </accessor>
          </technique_common>
        </source>
        <source id="normals">
          <float_array id="normals_array" count="1194">0.0471534394 -0.925473094 -0.375867158 -0.015878059 -0.731141925 -0.682040572 -0.0173495226 -0.853842616 -0.520242035 0.142273381 0.975259662 0.169194907 0.454372048 0.834726036 0.311092496 0.460098147 0.831396997 0.311590672 0.324273527 0.304479003 0.895622253 0.381339401 0.316509604 0.868563116 0.121141203 0.658758402 0.742537677 -0.0940616801 0.0696592703 -0.993126392 -0.223560199 -0.0402746536 -0.973857701 -0.120232619 -0.346740931 -0.930222988 -0.12077406 -0.464011312 -0.877557456 0.345573843 0.896508813 0.277219564 0.272292167 0.452859133 0.848985016 -0.0995794907 0.171461627 0.980145335 -0.0987567827 0.170543909 0.980388641 -0.103915922 0.176297471 0.978836417 0.620945454 -0.014273582 -0.783723772 0.692980826 -0.0114720277 -0.720864713 0.949245274 -0.00550011545 -0.314488739 0.530884087 0.4794752 0.698760033 0.525247931 0.483357787 0.700342715 0.528628111 0.481034279 0.699398577 -0.721761465 -0.550153852 -0.419989496 -0.497639388 -0.366288751 -0.786249042 -0.709663868 -0.528918028 -0.465427697 -0.915742695 -0.388911694 -0.100811779 -0.923150182 -0.361157924 -0.131752223 -0.794252098 -0.319075435 -0.51706332 -0.937115073 -0.0816819295 -0.339327902 -0.600585401 -0.0546865836 -0.797688246 -0.21310848 -0.97702831 0.000651357986 -0.131593034 -0.975214303 -0.177877441 -0.593776882 0.147256404 -0.791040182 -0.779540837 -0.0373884626 -0.625234485 -0.177087113 -0.180829138 -0.967440426 -0.216851428 -0.556092739 -0.802331805 -0.0853433535 -0.525234878 -0.846666932 -0.109815441 -0.725972414 -0.678899586 -0.526727438 -0.396910578 -0.751678228 -0.05654395 0.870443881 -0.48900944 -0.235125721 -0.7722978 -0.590145767 0.179363281 -0.395506382 -0.900779366 -0.196583599 -0.772893786 -0.603315949 0.53378278 -0.845621586 0.000300538493 0.519415855 -0.85451138 0.00418091612 0.517055333 -0.855938435 0.00481435703 0.507839143 -0.84741205 -0.154894233 0.734434664 -0.674647927 -0.073863633 0.377367139 -0.924037993 -0.0612193123 0.986886799 -0.0836853981 0.138026163 0.791568875 -0.24037461 0.561817408 0.859499276 -0.25672698 0.44198674 -0.19282712 -0.240773603 0.951233804 -0.139291391 -0.287390113 0.94763118 -0.145069584 -0.294553876 0.944559574 -0.0622464642 -0.115471773 0.991358459 -0.0540075637 -0.110748708 0.992379904 -0.0723280609 -0.121241301 0.989984453 -0.806896627 -0.108550616 0.580632925 -0.150126114 -0.689609289 0.708449841 -0.0203285906 -0.619404316 0.784808934 -0.105250739 -0.667252302 0.737357914 -0.220571324 -0.720449209 0.657496214 -0.266443551 0.331175327 0.905168891 -0.202501625 0.333735079 0.920659542 -0.0795624256 0.238945544 0.967767954 -0.0349176414 -0.999081254 0.0248476714 -0.0334629714 -0.999098241 0.0261318963 -0.0195102058 -0.999070466 0.0384391733 -0.785100996 -0.516941607 0.341156542 -0.790932894 -0.560166001 0.246250242 -0.816882908 -0.569063783 0.0941740572 0.30259183 0.403507799 -0.863492727 0.267594844 0.426137239 -0.864175916 0.306290716 0.398078918 -0.86470753 -0.264242649 -0.166640788 0.949950874 -0.655170619 -0.488910586 0.57594955 0.268664926 0.437021285 -0.858388901 -0.0365745239 -0.971099675 0.235855207 -0.0848784447 -0.982016802 0.168637633 -0.127958819 -0.983453155 0.128243774 -0.602213681 -0.300188541 0.739746928 -0.640490055 -0.187589645 0.744702995 -0.596634924 -0.314454496 0.738339484 -0.117224693 -0.983379483 0.138647586 0.0330756456 0.695272207 -0.717985094 -0.00638678763 0.445731789 -0.895143747 0.135848999 0.805839956 -0.576339304 -0.05314124 -0.0698430315 0.996141553 -0.548220336 -0.00594250532 0.83631283 -0.123744242 -0.293918103 0.947786629 -0.399954915 -0.0474959314 0.915303349 -0.349945664 -0.0741155446 0.93383342 -0.00816349778 -0.993021667 0.117649034 -0.999965906 0.00480969297 0.00671054469 -0.999836564 0.0112215457 0.0141766779 -0.999265969 0.024062911 0.0298077893 -0.0296350289 0.373332441 -0.927224159 0.563425422 -0.530942917 0.632970333 0.233142376 -0.440495312 0.866953552 0.511657536 -0.535279453 0.672073305 0.154293001 0.863780856 -0.479662687 0.166900456 0.862455547 -0.477822781 0.146730378 0.857869208 -0.49247396 -0.119176477 0.927133501 0.355275095 -0.217008084 0.948885381 0.22918129 -0.184153244 0.944218576 0.273018003 -0.972117007 0.217624664 -0.0873383209 -0.725929558 0.542819917 -0.422342032 -0.981878698 0.105947524 -0.157128438 0.999116242 -0.00516197132 -0.0417148359 0.996811509 -0.0295714214 -0.074109979 0.997929692 -0.0141805103 -0.0627314523 0.167547077 -0.372119397 0.912937641 -0.0815005079 -0.949626923 0.3025994 -0.1606462 -0.854786038 0.493491322 0.0214137118 0.999768436 0.00213145628 0.0240432154 0.999702334 0.0041435156 0.0214742161 0.999767005 0.00217775255 -0.64778471 -0.0671872273 -0.758854985 -0.74592334 0.205497369 -0.633537114 0.350758731 0.121199489 0.928589761 0.33664149 0.063309364 0.939502239 -0.587409973 -0.210798487 -0.781353652 -0.288854569 0.175485507 -0.941152394 -0.276737571 0.0562792607 -0.959296107 0.419323891 0.128081664 0.898756087 0.841486514 0.0534628518 -0.537626445 0.0573322512 0.998158157 0.019830497 0.0142293191 0.997301877 0.0720169395 0.0138888201 0.995419025 0.0945944116 -0.236208975 0.407821864 0.88197881 0.178167433 0.162637383 0.970466614 0.212726846 -0.534284592 -0.818099797 -0.000598866667 0.813671589 0.581324458 0.0256920345 0.833893061 0.551327705 0.0747404173 0.835408866 0.544523537 0.0630047619 0.298609048 0.952293575 0.171401918 -0.478398412 0.861252785 0.999157608 0.0297788586 -0.0282359421 -0.948949635 0.241865247 0.202474177 -0.94233036 0.235965699 0.237347066 -0.0482441597 -0.708434224 -0.70412606 0.00350673124 -0.682801783 -0.730595231 -0.015541642 -0.692557931 -0.721194804 -0.836929381 -0.0645868927 0.543486655 -0.820947707 -0.0434954278 0.569344342 -0.81624186 -0.0375420414 0.57648921 -0.947249413 0.220830232 0.232276902 0.386394143 0.145919695 -0.910717845 0.167269781 -0.238052502 -0.956740201 -0.54424578 -0.0221213549 0.838634133 -0.730821669 0.174071237 0.659999192 -0.678247631 0.0815922394 0.730289578 -0.0198701713 0.0566125885 0.99819845 -0.252762288 0.098414056 0.962510228 0.431228161 0.226377994 -0.873381555 0.455303878 0.220108002 -0.862699747 0.206133232 -0.298738182 -0.93180716 0.453120798 -0.333488911 -0.826720417 0.0342657268 -0.997134864 -0.0674383044 0.037882179 -0.664248288 -0.746551454 0.336125374 0.750112355 0.569518387 0.296671212 0.770326972 0.564431131 0.475684583 -0.874846756 0.0914731845 0.0521791354 -0.998601615 0.00849587377 0.128781691 -0.991464436 0.0203369725 0.864101052 0.275030613 0.421529949 0.626317203 -0.426558763 0.652513921 0.613274276 -0.503117144 0.608906984 0.534667134 -0.0552054532 0.843257606 0.422353297 -0.211269826 0.881466269 0.12902905 -0.988344014 0.0807939619 0.903758645 -0.0376950949 -0.426379353 0.642862082 -0.270407706 -0.716664493 0.468985647 -0.0261583235 -0.882818341 0.0688158572 0.987167597 -0.144099072 0.0737181231 0.994113445 -0.0793985724 0.0158801656 0.994776309 -0.100835994 -0.263712019 -0.112972267 -0.957963049 -0.275348455 -0.313410938 -0.908821642 0.128038749 0.98877883 -0.0769575387 0.124767132 0.991397321 -0.0395535976 0.984302342 0.037346527 -0.172493726 0.999536157 0.0286641307 -0.0102883903 0.841221154 0.0266338233 -0.540034831 0.0737685263 -0.010523634 0.997219861 0.449941754 0.0162633769 0.892909825 -0.00206711609 -0.722330391 0.691545069 -0.0683331117 -0.740507364 0.668565154 0.0406315736 -0.820253134 0.570555747 0.985302508 0.0479924865 0.163937971 0.98743552 0.0290939827 0.155321151 0.0988761932 -9.9609324e-06 -0.995099723 -0.644500494 -0.173805416 0.74458766 0.969966352 -0.0324276909 0.241067752 0.0532194823 -0.99228543 -0.111970201 0.0999088734 -0.968425632 0.228407472 0.0359702334 -0.998748899 -0.034738671 0.122873291 -0.989791512 -0.072214596 0.0659540892 -0.994495511 -0.0814171135 0.121179007 -0.94305712 0.309772283 0.0971839502 -0.988538384 0.115530021 0.112602644 -0.993538678 0.014198415 0.0869275108 -0.995484352 0.0381380804 0.111208379 -0.99350971 -0.0238981042 0.0661177561 -0.993700743 0.0904838592 0.173932821 -0.971253991 -0.16252099 0.215077788 -0.96391356 -0.156882867 0.149870604 0.988696039 -0.00434716977 0.129084647 0.988646865 -0.0769060478 0.105345584 0.993729293 -0.0374746509 -0.152249902 0.303709298 -0.940521479 -0.180820331 0.381281555 -0.906602681 0.155260161 0.0831482336 -0.984368145 -0.939734578 -0.0494434945 -0.338310957 0.969225049 0.010831872 -0.245937914 0.995450675 -0.095217146 -0.00340890861 -0.0644685254 0.141493291 -0.987837791 -0.062737301 0.139571488 -0.988222539 -0.0477134027 0.122873604 -0.991274714 0.42592153 0.0165841058 -0.904608071 0.00644679973 0.0694958493 -0.997561395 -0.999981642 -0.000370071124 -0.00604638364 -0.999999821 -0.000515179592 -0.000303005101 -0.999931872 -0.000449148851 -0.0116650667 -0.999214113 0.00296589709 -0.0395268649 -0.999977827 0.00322923134 -0.00582308182 -0.999900579 0.00772930915 0.0117936628 -0.9999336 -0.00226585637 0.0112975463 -0.999949872 0.00602021534 -0.00799740199 -0.992230594 -0.122013725 -0.0243122075 -0.998925269 -0.0442282557 -0.0138634816 -0.999962986 -0.00206280244 0.008354038 -0.999776721 0.0115139438 0.0177168567 -0.998562038 0.0318722129 0.0431047902 -0.999371469 -0.00222073263 0.0353793763 -0.999906778 0.000375455187 0.013647371 -0.927497566 -0.367358059 -0.0692559332 -0.181603894 0.983124554 -0.0220490396 -0.0719424114 0.978101373 -0.195299894 -0.119300626 0.890909851 -0.438231647 0.0173002668 0.705249131 0.7087484 0.948084831 -0.0711840689 -0.309948385 0.368096024 0.0612699986 0.92776686 0.205851242 -0.964434862 -0.165803209 0.242058992 -0.959218562 -0.145969912 0.0976996794 -0.988944829 -0.111547619 0.0470140129 -0.996345401 -0.0713129342 0.00490263477 -0.999284983 -0.0374898836 0.14709577 -0.914892673 0.375944436 0.172774836 -0.825441122 0.537397265 -0.0464359336 -0.811078846 -0.583090782 -0.791117311 -0.00971631799 -0.611587286 -0.79546386 -0.0146946236 -0.605822802 -0.794661939 -0.0137708923 -0.606895983 0.687567234 0.0363455527 -0.725210488 0.453495085 0.169232532 -0.875044286 0.571213484 0.107540794 -0.813726068 0.0395889319 -0.86316967 0.503359556 0.277829558 0.493280113 0.824309111 0.392711878 0.836601555 -0.381936163 0.994242311 -0.107133165 -0.00218360964 0.103402883 0.993998706 0.0356997475 0.188273132 0.982099593 -0.00579457311 0.0643196255 0.991235375 0.115392558 0.125791714 0.987178504 0.0982599035 0.00580398273 0.995873988 -0.0905611366 0.050073076 0.990684628 0.126635775 0.0182004087 0.992092252 0.124184161 0.018230414 0.992447674 0.1213063 0.0609261766 -0.0984739587 -0.993272841 0.144972339 -0.964478076 0.220828146 0.131697312 -0.929952025 0.34328562 0.664740205 0.0386125371 -0.746076107 0.541688561 -0.840577185 -0.00185350492 -0.211832285 0.440639317 -0.872332573 0.205648735 0.114234328 -0.971935749 -0.093344368 0.287745953 -0.953146935 0.279034078 0.00505023124 -0.960267901 0.996358156 -0.0838842466 -0.0152906133 -0.280157775 0.356195897 0.891423643 0.0436345302 0.991985023 0.118581995 -0.900266707 -0.11560984 0.419707298 -0.917767048 -0.0977870449 0.384891361 -0.968520045 -0.241455719 0.0605646633 -0.0362797789 0.995680273 -0.0854664743 -0.0365674719 0.995688856 -0.0852438062 -0.0564424805 0.995961308 -0.0698233321 -0.00991047919 0.994336605 -0.105813563 -0.0454645045 -0.99884522 0.0155303087 0.775671899 -0.0276909862 -0.630528569 -0.0803312063 0.159079954 -0.9839921 0.116607659 -0.987450063 0.106512859 0.0211343523 -0.998809397 0.0439669117 0.0182909146 -0.99944967 0.027672505 0.0155832916 -0.99953872 0.0260671731 0.013060431 -0.999630749 0.0238276329 0.994211257 -0.107442357 0.00035096705 -0.667036712 0.0929035768 0.739209712 0.812106609 0.506353974 0.289980173 0.912307799 0.393362284 0.113844551 0.902587712 0.408477187 0.135947615 0.954242587 0.298533708 -0.017284913 -0.675788999 -0.00635605538 0.737067699 -0.0102112927 -0.994759083 0.101735607 0.0707177222 -0.173096806 0.982362688 -0.0279997289 -0.583531976 0.811607301 -0.605985641 0.0112590892 -0.795395911 0.345369846 0.316328675 -0.883547306 -0.0946959257 0.166012496 0.98156637 -0.0555277988 -0.123093195 -0.990840435 -0.0420831665 -0.115496479 -0.992416024 -0.0281417165 -0.107595719 -0.993796349 0.000438182964 -0.999988377 -0.00479634898 0.00653849589 -0.999975741 0.0023915295 0.00117490417 -0.999995351 0.00280704489 0.0055053588 -0.999883711 0.0142212175 -0.292490691 0.948434114 0.122155175 0.578525484 -0.58908242 -0.564172149 -0.00355469086 -0.999977529 0.00568397855 0.000248646073 -0.999996066 0.00279750419 0.523371816 0.484640926 0.700860262 0.0435281433 -0.995042682 0.0894166604 0.0188750401 -0.993818164 0.109403566 0.0418628231 -0.994991541 0.0907707438 0.0605178326 -0.995302379 0.0755693093 0.0194142554 0.999811351 0.000601606967 0.938299954 -0.0219578613 -0.345124632 0.924699128 -0.155891061 -0.347317636 0.840806365 -0.283504635 -0.461161405 0.837696075 -0.34083119 -0.42673102 0.551205158 -0.604672015 -0.574930131 0.6620152 0.669749737 0.336409301 0.997962236 -0.00460192282 0.063641496 0.751191497 -0.657182574 -0.0618250743 -0.0562707558 0.868781805 -0.491987586 0.740415573 0.0305536725 0.671454549 0.735643089 0.0518882424 0.675379038 0.741663694 0.0246850923 0.670317531 -0.0446385853 -0.105368957 0.993430793 -0.209382728 0.70759809 -0.674880564 -0.417347312 0.353152812 0.837319732 0.722866893 -0.682141602 -0.110210106 0.00832474325 0.999522567 -0.0297547895 0.00976188015 0.99959147 0.0268616527 0.00971709657 0.999901235 0.0101526203 0.0100587243 0.989721119 0.142656788 0.0366930179 0.929611802 0.366709083 0.0783876404 0.989700437 0.119784892 -0.00494855735 0.999751925 -0.0217164941 0.0184674263 0.999275684 0.0332725942 0.00361195696 0.999992728 -0.00123760477 -0.0110200485 0.999912083 0.00737618329 -0.00653778808 0.999972999 -0.00335830124 -0.0198831391 0.999694169 -0.0147048449 -0.00218992913 0.999996483 0.00148869073 0.00384385162 0.999854863 -0.0165971406 0.0496784002 0.998726308 -0.00881974772 -0.00496255746 0.999987543 0.000495930028 -0.115894206 0.747323096 0.654275775 -0.3274872 0.944739401 -0.0148189319 0.426529109 0.433161467 -0.794005096 0.996885061 -0.0745585784 -0.0257136058 0.999213278 0.039503295 -0.00350754219 0.999549091 -0.0296484362 0.00474873371 0.999848366 0.00265332521 0.017210247 0.998110056 0.0549513437 0.0275078863 0.999961138 -0.000407407031 0.00880923308 0.998683929 0.03560647 -0.0369127765 0.995730996 -0.0858883113 0.0338085853 0.999701142 -0.0143282488 -0.0198077578 0.999081373 0.0151750138 -0.0400758088 0.351753384 0.428079188 -0.832476914 -0.0708264038 -0.131710544 -0.988754749 0.733958304 0.0590499714 0.676622689 0.551539242 -0.742247164 -0.380622655 0.196866214 -0.00298711238 0.980425835 0.251447529 0.0193400998 0.967677653 0.201958433 -0.0160628632 0.979262352 -0.798510551 -0.0160102602 0.601767898 0.549340487 0.7880463 -0.277863383 0.114695787 0.964121222 -0.23940587 0.47417289 -0.00727503235 0.880401731 -0.985338211 0.147033557 -0.0865433067 -0.798808753 -0.0185734387 -0.601298213 0.996759832 -0.0665666834 0.0451523587 0.999655545 -0.0236459021 0.0113892332 0.998858988 -0.0405881405 0.0251661409 0.999990046 -0.00350186229 0.00277313869 0.999794483 0.00110809971 -0.0202430654 0.644493759 -0.0388005674 0.763624489 0.401521593 0.0180771388 0.91567111 0.669181764 0.0158016253 0.74293071 0.66271621 0.0303470343 0.748255491 0.128058732 -0.93484354 -0.331162453</float_array>
          <technique_common>
            <accessor source="#normals_array" count="398" stride="3">
              <param name="X" type="float" />
              <param name="Y" type="float" />
              <param name="Z" type="float" />
            </accessor>
          </technique_common>
        </source>
        <vertices id="vertices">
          <input semantic="POSITION" source="#positions" />
        </vertices>
        <triangles material="scout_1a1a1a" count="308">
          <input semantic="VERTEX" source="#vertices" offset="0" />
          <input semantic="NORMAL" source="#normals" offset="1" />
          <p>0 0 1 1 2 2 3 3 2 4 4 5 5 6 6 7 4 8 7 9 8 10 9 11 9 11 8 10 5 12 3 3 10 13 2 4 6 7 5 6 11 14 12 15 9 16 13 17 14 18 15 19 16 20 17 21 18 22 19 23 20 24 21 25 22 26 23 27 22 26 24 28 20 29 25 30 26 31 20 32 27 32 25 32 28 33 20 33 26 33 20 34 28 34 21 34 29 35 30 36 26 31 21 25 28 37 31 38 31 38 32 39 33 40 21 25 31 38 33 40 28 41 26 41 34 41 35 42 36 43 37 44 38 45 35 46 37 47 39 48 40 49 30 50 41 51 42 52 43 53 44 54 45 55 46 56 47 57 48 58 49 59 50 60 51 60 45 60 52 61 53 62 54 63 55 64 52 61 54 63 56 65 36 66 45 67 57 68 50 69 48 70 27 71 23 27 58 72 23 27 24 28 59 73 23 27 20 24 22 26 60 74 44 75 61 76 45 55 44 54 62 77 58 72 23 27 59 73 27 71 58 72 63 78 60 74 64 79 44 75 65 80 63 81 58 82 65 83 59 84 66 85 67 86 68 86 27 86 69 87 70 88 71 89 72 90 73 91 67 92 62 77 64 93 74 94 75 95 63 81 65 80 76 96 70 97 7 98 69 87 77 99 70 88 38 100 78 101 69 102 79 103 80 104 71 89 79 103 81 105 80 104 82 106 83 107 84 108 85 109 84 110 86 111 52 112 60 113 87 114 69 102 78 101 77 115 88 116 89 116 18 116 80 117 38 117 69 117 47 118 49 119 51 120 22 26 33 40 24 28 84 110 90 121 91 122 85 109 90 121 84 110 92 123 77 115 93 124 90 121 94 125 91 122 92 126 95 127 8 10 95 128 92 123 93 124 95 129 96 129 39 129 93 130 94 131 95 132 97 133 50 134 36 66 98 135 37 44 36 43 81 136 99 137 35 138 66 139 75 139 65 139 100 140 75 140 66 140 18 141 17 141 86 141 17 142 85 109 86 111 85 109 17 142 101 143 102 144 54 145 103 146 104 147 57 148 105 149 106 150 85 109 101 143 36 43 107 151 108 152 109 153 106 154 110 155 111 156 109 153 112 157 56 158 62 159 107 151 34 160 31 38 28 37 34 160 113 161 31 38 114 162 31 162 113 162 103 146 54 145 53 163 36 164 35 138 97 165 115 166 100 167 116 168 115 169 75 169 100 169 43 53 117 170 75 171 118 172 119 173 42 52 43 174 75 174 115 174 120 175 121 176 122 177 123 178 15 179 124 180 5 12 39 181 125 182 126 183 127 184 15 179 128 185 129 186 126 187 111 156 130 188 131 189 46 190 87 191 61 192 132 193 128 185 133 194 0 195 10 195 134 195 65 83 58 196 59 84 135 197 118 172 42 52 122 198 40 199 136 200 120 201 122 198 14 202 40 199 39 203 136 200 118 204 135 205 137 206 14 202 122 198 136 200 14 202 16 207 120 201 120 201 16 207 135 205 16 207 137 206 135 205 138 208 118 204 137 206 72 209 118 204 138 208 74 210 72 209 138 208 99 137 97 165 35 138 91 211 94 131 93 130 91 211 93 130 82 212 82 212 93 130 78 213 94 214 90 215 139 216 26 31 25 30 102 217 102 217 29 35 26 31 16 20 127 218 140 219 104 220 51 221 50 222 123 223 96 224 139 216 97 225 99 226 48 227 97 225 48 227 50 228 48 227 99 226 76 96 99 226 79 229 76 96 49 230 48 227 141 231 76 96 79 229 71 232 76 96 71 232 70 97 48 227 76 96 141 231 49 230 141 231 0 233 49 230 0 233 142 234 49 230 142 234 143 235 46 236 45 237 49 230 143 235 46 236 49 230 9 238 1 239 141 231 141 231 1 239 0 233 134 240 142 234 0 233 17 241 144 242 101 243 2 244 5 6 4 8 120 175 145 245 121 176 88 246 144 246 17 246 117 170 43 53 42 52 73 247 72 209 64 248 74 210 64 248 72 209 73 247 64 248 55 249 52 250 55 249 64 248 64 248 60 251 52 250 146 252 87 191 143 253 125 254 11 254 5 254 147 255 148 256 13 257 19 258 89 259 88 260 44 261 46 190 61 192 11 14 125 262 6 7 3 263 87 263 146 263 35 264 80 264 81 264 140 265 127 184 129 266 126 183 15 179 123 178 149 267 140 265 132 268 124 180 96 269 123 178 149 267 132 268 131 270 130 271 150 272 149 267 131 270 130 271 149 267 129 266 132 268 140 265 126 183 129 266 127 184 40 273 34 160 30 36 26 31 30 36 34 160 134 274 146 252 142 275 78 101 93 124 77 115 143 253 142 275 146 252 50 134 45 67 36 66 126 187 123 223 151 276 38 45 80 277 35 46 96 278 124 279 39 280 136 281 39 280 124 279 49 282 45 282 51 282 8 10 95 127 39 181 56 65 45 67 62 283 3 3 146 284 10 13 132 193 129 186 128 185 27 285 55 286 54 287 25 30 27 285 54 287 9 288 147 289 13 290 9 288 141 291 147 289 104 292 50 69 57 68 17 293 19 258 88 260 54 287 102 217 25 30 33 40 22 26 21 25 51 221 104 220 105 294 125 295 39 48 30 50 6 296 125 295 30 50 6 296 30 50 29 297 103 298 29 297 102 299 29 297 103 298 6 296 140 219 137 300 16 20 63 301 67 301 27 301 130 302 112 303 150 304 112 303 62 305 150 304 130 188 111 156 112 157 67 92 73 91 68 306 117 307 63 81 75 95 15 19 14 18 124 279 119 173 67 92 117 308 67 92 63 309 117 308 8 10 70 88 77 99 152 310 18 310 86 310 83 311 152 311 86 311 128 185 126 187 151 276 40 273 122 177 34 160 12 15 7 312 9 16 147 313 76 314 148 315 59 316 24 317 153 318 24 317 33 319 153 318 100 167 59 316 153 318 84 108 83 107 86 320 114 321 113 161 121 176 66 322 59 316 100 167 32 323 100 167 153 318 33 319 32 323 153 318 18 22 89 324 19 23 8 10 7 9 70 88 148 325 76 326 7 327 12 328 148 325 7 327 51 120 105 329 47 118 8 10 77 99 92 126 121 330 115 331 114 332 41 51 145 245 135 197 114 332 116 333 32 334 94 335 96 335 95 335 94 214 139 216 96 224 43 336 115 336 145 336 43 337 145 337 41 337 154 338 101 243 144 242 109 153 110 155 112 157 138 339 140 340 149 341 123 223 139 216 151 276 48 58 47 57 57 342 113 161 34 160 121 176 101 243 154 338 106 343 5 12 8 10 39 181 5 12 2 2 1 1 107 151 36 43 56 158 36 43 108 152 98 135 55 286 27 285 68 306 55 286 68 306 73 91 144 344 88 344 152 344 146 345 134 345 10 345 114 332 115 331 116 333 107 346 62 347 112 348 112 348 110 349 107 346 110 349 154 350 108 351 107 346 110 349 108 351 90 352 85 353 151 354 85 353 106 355 151 354 139 356 90 352 151 354 106 355 109 357 151 354 151 354 109 357 155 358 155 358 109 357 111 359 128 360 151 354 133 361 151 354 155 358 133 361 110 349 106 362 154 350 5 12 1 1 9 11 79 363 99 363 81 363 31 364 114 364 32 364 34 160 122 177 121 176 144 365 152 366 154 367 98 368 154 367 152 366 98 368 152 366 37 369 108 370 154 367 98 368 38 371 37 369 152 366 152 366 83 372 82 373 152 366 82 373 38 371 78 374 38 371 82 373 120 175 135 197 145 245 60 74 61 76 87 375 119 173 72 90 67 92 72 90 119 173 118 172 147 313 141 376 76 314 137 377 140 340 138 339 115 378 121 378 145 378 16 20 15 19 127 218 149 379 74 380 138 381 124 279 14 18 136 281 143 253 87 191 46 190 57 148 47 382 105 149 152 383 88 383 18 383 91 211 82 212 84 384 150 385 74 380 149 379 20 386 23 386 27 386 62 77 44 54 64 93 117 170 42 52 119 173 80 104 69 87 71 89 32 323 116 168 100 167 135 197 42 52 41 51 13 257 148 256 12 387 6 388 103 389 4 390 103 389 53 391 4 390 53 391 3 392 4 390 53 391 52 112 3 392 3 392 52 112 87 114 74 380 150 385 62 393 131 189 155 394 111 156 131 189 132 395 133 396 131 189 133 396 155 394 2 2 10 397 0 0</p>
        </triangles>
      </mesh>
    </geometry>
  </library_geometries>
  <library_visual_scenes>
    <visual_scene id="scene">
      <node id="left_hip_roll_link">
        <instance_geometry url="#geometry">
          <bind_material>
            <technique_common>
              <instance_material symbol="scout_1a1a1a" target="#scout_1a1a1a" />
            </technique_common>
          </bind_material>
        </instance_geometry>
      </node>
    </visual_scene>
  </library_visual_scenes>
  <scene>
    <instance_visual_scene url="#scene" />
  </scene>
</COLLADA>