<?xml version='1.0' encoding='utf-8'?>
<COLLADA xmlns="http://www.collada.org/2005/11/COLLADASchema" version="1.4.1">
  <asset>
    <created>2026-09-14T00:00:00Z</created>
    <modified>2026-09-14T00:00:00Z</modified>
    <unit name="metre" meter="1" />
    <up_axis>Z_UP</up_axis>
  </asset>
  <library_effects>
    <effect id="scout_1a1a1a_effect">
      <profile_COMMON>
        <technique sid="common">
          <lambert>
            <emission>
              <color>0 0 0 1</color>
            </emission>
            <ambient>
              <color>0.05 0.05 0.05 1</color>
            </ambient>
            <diffuse>
              <color>0.1 0.1 0.1 1</color>
            </diffuse>
          </lambert>
        </technique>
      </profile_COMMON>
    </effect>
  </library_effects>
  <library_materials>
    <material id="scout_1a1a1a" name="scout_1a1a1a">
      <instance_effect url="#scout_1a1a1a_effect" />
    </material>
  </library_materials>
  <library_geometries>
    <geometry id="geometry" name="left_shoulder_roll_link">
      <mesh>
        <source id="positions">
          <float_array id="positions_array" count="390">-0.0489289276 0.00478971889 -0.126701161 -0.0374317355 -0.0306460559 -0.127093926 -0.0451590605 -0.0185905658 -0.100760326 -0.0375571437 -0.0199681781 -0.0953616202 -0.0355304405 -0.0338271558 -0.0972660929 -0.0242807139 -0.0189025924 -0.0796931684 -0.0258827042 -0.0177972913 -0.092717573 -0.0170685519 -0.0259335376 -0.097422272 -0.0188322961 -0.0228891708 -0.0858390927 -0.0172510445 -0.0148190148 -0.0859951004 -0.030609278 0.000208940153 -0.127808645 -0.0235308222 0.0194686446 -0.13421759 -0.0239433218 -0.0200640839 -0.133888558 -0.019909516 -0.0241365097 -0.128757089 -0.0288617201 0.0143011408 -0.0997546017 -0.0272692796 -0.0157404207 -0.0995372757 -0.0157510377 -0.0455186144 -0.0976346359 -0.0312468521 -0.0373037457 -0.130182788 -0.000811286853 -0.0312111769 -0.0920514911 0.039145261 -0.0159583502 -0.0969516933 0.0385156982 -0.0172979217 -0.0865701213 0.0464026779 -0.00187551952 -0.0857200325 -0.00573377917 -0.0308513828 -0.128959224 -0.00291890441 -0.0349406451 -0.140691161 -0.00947108958 -0.0467867702 -0.130703107 -0.00120983052 -0.041990567 -0.128981113 0.0131177865 -0.0475159846 -0.12998049 0.00453226501 -0.0387113504 -0.13773714 0.00421711337 -0.0311706662 -0.131024212 -0.00437849527 -0.0313547775 -0.0970005989 0.0360875577 -0.0311272256 -0.0166572556 0.0383499973 -0.0165748894 -0.026603017 0.0418633856 -0.0201022644 0.000434847636 -0.0345779173 0.0174165983 -0.0842991173 -0.0311317723 0.0211249888 -0.0845191404 -0.0379342847 0.02050207 -0.0972691625 -0.0343927965 0.0342929885 -0.127261639 -0.0448425934 0.0188894533 -0.101608478 -0.0333070755 0.0349969789 -0.096993424 -0.0224987864 0.0208403766 -0.127762988 -0.024274813 0.0199974123 -0.0949863121 -0.0232754275 0.0161658842 -0.0859104544 0.0432295576 0.0167819876 -0.0840129182 -0.00119034911 0.0309346542 -0.127574325 0.00232178485 0.0313882045 -0.0923792496 0.00244310382 0.0318969451 -0.096965909 0.019310208 0.024398217 -0.134099856 0.0452032238 0.000112577713 -0.0971279293 0.018398704 -0.0252646208 -0.12795344 0.023694681 -0.0194318537 -0.134110913 -0.000179971088 -0.0454760119 -0.0967318639 0.0173277818 -0.0255268924 -0.0969690606 0.022069091 -0.0433690026 -0.0966325924 0.0385930315 -0.00522290822 -8.92852258e-05 0.0390148871 -0.0103715966 0.00178417074 0.0471709967 -0.00159343285 -0.000411748333 0.0411880314 -0.0151882078 -0.0852200538 0.0284122489 -0.0138948709 -0.0859548599 0.0254375488 -0.023114901 -0.12994048 0.0267469119 -0.0175963379 -0.0931133851 0.0484431721 -0.00359842717 -0.126860678 0.0356421694 -0.0324977934 -0.128006622 0.045698069 0.0120327612 0.000283565809 0.0466906242 0.0134358322 -0.0290025044 0.0418373495 0.017806584 0.000145955288 0.0427662358 -0.020936396 -0.0910871327 0.0303070042 -0.0303079206 -0.0979530439 0.0353275463 -0.032022763 -0.0869462788 0.0270398986 -0.0221297406 -0.0865318179 0.0309910215 -0.000438526651 -0.12753582 0.0273760203 -0.0148281446 -0.099516809 0.0330030359 -0.0282024965 -0.0580452345 0.0286747254 -0.017180685 -0.0571939461 0.0180750098 -0.0191581696 -0.0654130876 0.0403407551 -0.0222301353 -0.0623118691 0.0408116691 -0.0220696218 -0.0548939854 0.0271424036 0.0157468598 -0.0985053778 0.0304679759 0.0056635621 -0.0923762098 0.0406727046 0.0265261047 -0.0223416183 0.0448161066 0.019800622 -0.101437874 0.0396715291 -0.0212253686 -0.0839666277 0.0362300165 -0.0193427298 -0.030763872 0.0436881036 -0.0160305761 -0.0329616964 0.0464600213 -0.00188141002 -0.059185382 0.0432579517 -0.016064655 -0.0571728125 0.0467254147 -0.0138878906 -0.0278190169 0.0394846536 -0.00856908504 -0.0328645222 0.0462672338 -0.0126537858 0.000776048633 0.0481364653 -0.00266002701 -0.0341374092 0.0340857767 0.0173627827 -0.0330732241 0.0435666405 -0.0159792788 -0.0613812506 0.0481766984 -8.10897473e-05 1.55250916e-06 0.047291398 0.00287985383 0.000557255757 0.0218223594 0.021757748 -0.127074212 0.0185544211 0.0243954714 -0.0970336646 0.0256385542 0.0184879582 -0.0899201706 0.0390196629 0.0164797641 -0.0974253342 0.0402997993 0.0229995046 -0.0954955146 0.0393226817 0.0232008304 -0.0856850669 0.0312949121 0.0188475866 -0.0522831008 0.0189750027 0.0191211347 -0.0649575964 0.0284578297 0.013467798 -0.0589384623 0.0181845278 0.0449315794 -0.0951387882 0.030354932 0.0303991083 -0.0975037441 0.0389487706 0.0236484464 -0.0591289289 0.0368330777 0.0323820785 -0.127283201 0.0333408304 0.0350087136 -0.0777706578 0.0425605178 0.0145094134 -0.0865473896 0.0440866165 0.0127941659 -0.059821412 0.0437422656 0.0157830305 -0.0570438243 0.0395548977 0.00861133169 -0.0330952145 0.0431083515 0.0164300762 -0.0328004025 0.0455052666 -0.0181216039 -0.1013088 0.038303148 0.015709877 -0.0263818689 0.0387047231 0.0102504566 -0.00184877694 0.0351214632 0.0192015115 0.0295058079 0.0360016562 -0.0126888454 0.031281963 0.0400171205 0.012984124 0.0241233408 0.0344512872 0.0322197191 0.0130008208 0.0293423533 0.0125030233 -0.0853631869 -0.0190385897 0.0445093364 -0.125782803 -0.000143566402 0.0461768098 -0.127347738 -0.0124080414 0.0471168533 -0.098146297 0.0378293991 -5.03086267e-06 -0.0592673495 0.0352904424 -0.0301692598 0.0175495297 0.0178251192 0.0452016443 -0.125681341 0.0384277999 0.0236075129 -0.0276657809 -0.00793629512 0.0191184785 -0.0740007162 0.0338854901 0.0314547271 -0.0597248562 -2.27351484e-05 0.0424230658 -0.0976185873</float_array>
          <technique_common>
            <accessor source="#positions_array" count="130" stride="3">
              <param name="X" type="float" />
              <param name="Y" type="float" />
              <param name="Z" type="float" />
            </accessor>
          </technique_common>
        </source>
        <source id="normals">
          <float_array id="normals_array" count="1083">-0.997140348 0.07470534 -0.0114141172 -0.836619675 -0.544814587 -0.0569615178 -0.945957899 -0.324004918 -0.0135826999 -0.591145813 -0.194029003 0.782878876 -0.177782729 -0.912920773 0.367381185 -0.449804991 -0.780470073 0.434214205 -0.431047648 -0.798848331 0.419570327 -0.145833015 -0.60886699 0.779752314 0.0153601728 -0.278929174 0.960188806 -0.203317344 -0.443700343 0.872807026 -0.108212613 -0.877351284 0.467487752 -0.177666277 0.954861939 0.238061741 -0.177091077 0.971027315 0.160451427 -0.123039901 0.972245097 0.198999241 0.281212717 -0.610652804 -0.740285456 0.381724268 -0.511449993 -0.769873679 0.562562883 -0.274524361 -0.779845774 -0.154967159 0.897070706 0.413822889 -0.672459006 0.000856573228 -0.740133882 -0.848832965 -0.387088507 0.360062629 -0.96391207 -0.0315051228 0.264349967 -0.789848149 0.0604957566 0.610311568 -0.981565416 -0.0506974757 0.184280038 -0.265324414 -0.963999331 0.017556997 -0.692546725 -0.721326649 0.00818016008 -0.563634515 -0.825784981 -0.0198812652 -0.395791739 -0.838837087 0.373766363 0.637971938 -0.139642954 -0.75729233 -0.906303048 0.418158501 0.0613050573 -0.890427053 0.45510152 0.00472581247 -0.915664494 0.387910426 0.105280474 -0.918491662 0.249028683 -0.307177126 0.0396402739 0.276464164 -0.96020633 0.510850251 -0.701515496 -0.496898383 -0.285756111 -0.820705891 -0.494757801 -0.301863313 -0.810734093 -0.501586258 -0.240295947 -0.846717417 -0.474686652 -0.199654981 -0.665618241 -0.719089866 -0.404841453 -0.844073236 -0.351630181 -0.110555448 -0.294794768 -0.949143589 -0.0315962248 -0.323963732 -0.945541739 -0.383036971 -0.873171866 0.301419199 0.938238859 -0.329908103 -0.104251809 0.933379292 -0.319740742 -0.162999988 0.876132429 -0.480354637 -0.0406380221 -0.681207657 0.652707458 0.331555694 -0.736362994 0.676008761 -0.0279584099 -0.931082547 0.364164233 0.0216734335 -0.121443078 0.0994054154 0.987608314 -0.551603377 0.160517618 0.818515599 -0.409936905 0.11364805 0.905005991 -0.928381324 0.364800781 0.0709122419 -0.0546977669 0.00418799696 -0.998494148 -0.0266492777 0.0194643941 -0.999455333 -0.0641121566 0.00606745435 -0.997924268 -0.75994736 0.0711130276 0.646082759 0.848742783 -0.447183967 -0.28224501 -0.272025645 -0.953417122 0.130375832 -0.0334639251 -0.889503777 0.455700845 -0.00878981967 -0.818853676 0.573935032 -0.423980922 0.897293329 -0.122901924 -0.399565667 0.912215352 0.0906112269 -0.0660878643 0.593501925 -0.802114606 -0.92339325 0.349807292 0.158050001 -0.339182407 -0.786040962 -0.516812205 0.692190409 0.495808125 -0.524448991 0.806168795 0.411865205 -0.424804509 0.69324559 0.495157868 -0.523669004 0.424845487 -0.810797036 -0.402634472 -0.0279049035 0.0107304631 0.999552965 -0.0220951755 -0.100027353 0.994739354 -0.030437164 0.00285465899 0.99953258 0.256299824 -0.953751564 -0.157061458 0.235844105 -0.971539617 0.0220989212 0.447690785 -0.893617213 0.0319568552 0.0294881389 -0.997534215 0.0636859611 -0.105408967 0.332394749 0.937231362 -0.103786856 0.672758162 0.732546806 -0.0276545081 0.27314049 0.961576581 -0.338263869 0.918564081 -0.204493389 0.382350206 -0.729712188 0.566858411 0.0253525563 0.0135863395 -0.999586225 0.0114175053 0.0345687903 -0.999337077 0.0199371688 0.0227657352 -0.999541998 0.824830055 0.554197192 0.11189682 0.829435289 0.555913806 0.0547443591 0.898817897 0.424590379 0.108854823 -0.720791161 0.566175044 0.399882376 -0.672020733 0.480799317 0.563223004 -0.71375072 0.551941156 0.431185395 -0.737062097 0.606167138 0.298832595 -0.261169314 -0.179049954 -0.94854188 0.844156802 -0.43347919 0.315428317 -0.0377406403 0.957301319 0.286617935 -0.063424401 0.97534889 0.211357221 0.00162683649 0.917842329 0.396941841 -0.977095306 0.152430788 0.148491204 -0.373031497 -0.216180488 0.902282357 -0.459807605 -0.246461436 0.853131711 -0.555499196 -0.278656632 0.783435464 0.027746696 -0.603420854 -0.796940029 -0.249743044 -0.171679854 0.952971399 0.789355576 -0.107120663 -0.604518771 0.995016456 0.00430740789 0.0996180475 0.90314573 0.42909947 -0.0141939977 0.958624184 0.284674525 0.000206184632 0.92863071 0.370390028 -0.0213590842 -0.181998417 -0.19285956 0.964200079 -0.746109664 0.656798422 -0.109252982 -0.93106097 0.362006545 0.0455707572 -0.878931224 0.476828933 -0.0106819738 -0.193794191 -0.981013596 0.00749128917 -0.675067604 0.722390711 -0.14978455 -0.794561803 -0.606963754 0.0163244884 -0.990945935 -0.10571374 -0.0827691406 -0.96931839 -0.183740422 -0.16328305 -0.998005807 -0.0431188345 -0.0461000837 -0.0928217694 0.988194883 0.121881239 -0.956158578 0.287788421 0.0542091243 -0.999356508 0.0241287109 0.0265399385 -0.974787772 0.22248514 0.0170056093 -0.0638743192 0.569852352 0.819260895 0.630134225 0.775791049 -0.0328489654 0.681972146 0.72974211 -0.048891902 0.602973282 0.797377348 -0.024751693 -0.591125309 0.260221988 0.763449669 -0.997110546 0.060581211 0.0458307788 -0.242678285 -0.0739378408 -0.967285097 -0.111819424 -0.0500683449 -0.99246639 -0.188921332 -0.0936983526 -0.977511823 -0.0234441534 0.00264858734 -0.999721646 -0.266321778 -0.106337629 -0.958000541 -0.995823443 -0.0453746915 0.0792260468 -0.966909528 0.252862394 0.0338606946 0.00808112044 -0.107427686 -0.994180083 0.365413398 -0.0755859166 -0.927771449 0.0546525083 -0.111032642 -0.992312908 0.325627327 0.0410547815 -0.944606423 -0.667602718 0.74422574 0.0208469275 -0.450168878 0.200601622 -0.870118976 0.259614289 -0.0642199442 0.963574708 0.289141893 -0.0923722014 0.952819169 0.168419912 0.0207698829 0.985496521 0.149359539 0.0381813124 0.988045514 0.357844383 0.909004211 0.213679075 0.426173687 0.892995238 0.144690856 0.343829304 0.867247045 0.360088915 0.419867218 0.900770068 0.111017227 0.118546866 0.818702579 0.561847627 0.580339015 0.0582582392 -0.812288523 0.907443225 0.378628939 -0.18217285 0.937852323 0.342668712 0.0548736714 0.0305730104 -0.950613201 0.308868706 -0.136656433 -0.990388334 0.0213547088 -0.0770815685 -0.988881469 0.127168745 -0.311218292 0.9489972 -0.0504726283 -0.652349114 -0.428970158 0.62484014 -0.541003168 -0.555789948 0.631199777 -0.338362426 0.937125921 0.0854744762 -0.137059405 0.982795894 0.123802245 -0.47501117 0.868301451 0.14288789 -0.0739096701 -0.995147705 0.064949438 0.776600122 0.628247559 -0.0468748547 0.380516797 0.924773633 0.000811781152 0.744181395 0.667971849 -0.00276244851 -0.859223425 -0.497503698 0.119269595 -0.74267 -0.646554589 0.174380213 -0.788421512 -0.612911403 0.0522600263 0.976415932 -0.0544628911 -0.208915591 -0.971960485 -0.17923075 0.152214155 -0.918113589 -0.197954938 0.3433384 -0.947003365 -0.267489821 0.177859053 -0.935049534 -0.352595031 0.0368655547 -0.98672384 -0.159868047 0.0286046863 -0.981626093 -0.187956825 0.0329001844 -0.0223989412 0.0192051157 -0.999564648 0.00512498245 0.0353528596 -0.999361753 -0.0449158065 0.0580174699 -0.997304618 -0.0398353823 0.940523565 -0.33738485 0.0425391346 -0.785779357 0.617042303 -0.967172444 -0.253444791 -0.0185251869 0.746377349 -0.663605213 -0.0504866987 0.918619514 -0.394835144 -0.0156008136 0.770921707 -0.636905134 0.0056137098 0.180927336 -0.378684103 0.907669365 0.509766519 -0.860294342 -0.00563668786 0.299200326 -0.953236938 0.0426436067 0.230138883 -0.971473932 0.0572232902 0.311203867 -0.949231505 0.0459532626 0.272670716 0.0782471299 -0.95892024 0.272503257 0.0780826658 -0.958981276 -0.0875783861 0.0145383272 0.99605155 0.770277917 0.0566373393 0.635188282 0.916972578 0.367476732 0.155313179 0.891054869 0.414878368 0.184111953 0.855553806 0.163621023 0.491178006 -0.355526924 0.917809486 0.176709816 -0.27748087 0.952337801 0.126716718 -0.14161323 0.989081144 0.0407944694 -0.076305151 0.997084498 -4.77530375e-05 -0.170303762 0.933308959 0.316118598 -0.129792482 0.113048665 -0.985075593 -0.0515571386 0.0814352632 -0.995344222 -0.0926689059 0.185709491 -0.978225172 0.0336318128 0.100926518 -0.99432528 0.0248161685 0.0969211906 -0.99498266 0.0299249832 0.0267949495 0.999192953 -0.03315093 -0.287028819 0.957348168 -0.0261977036 -0.00695262058 0.999632597 0.0419390984 -0.0783803314 0.996041 -0.141294241 -0.385407597 0.911864519 0.999614894 -0.00397581281 0.0274643339 0.999612868 -0.00371663528 0.027573077 0.999613702 -0.00382293994 0.0275284741 0.999615788 -0.00409761397 0.0274132285 -0.378752261 -0.92492348 0.0326089375 -0.0837657824 0.0145683819 -0.996378958 -0.0531664751 0.00747459754 -0.998557687 0.152100921 -0.0111617139 -0.988301933 0.488311589 -0.0614744723 -0.870501399 0.535903275 0.573765039 -0.619355559 -0.0751218125 -0.0700880811 0.99470818 -0.0257233568 -0.223953828 0.974260211 -0.048355449 -0.14527002 0.988209665 -0.00851781387 0.0347773395 -0.999358773 -0.0190271139 0.0457577705 -0.998771369 -0.0203898568 0.104417875 -0.994324446 -0.007398705 0.0330322348 -0.999426901 -0.0314857028 0.919564128 0.391676545 0.472758085 0.831112146 -0.292835027 0.83715719 0.520449102 0.168227822 -0.000859029649 -0.0707521439 -0.997493565 -0.00112373824 -0.00410679681 -0.99999094 0.0026880356 0.00052116916 -0.999996245 -0.57233876 -0.818689227 -0.0466507487 -0.375209779 -0.925705135 0.0478291176 0.846684992 -0.531948328 0.0124689145 0.922171235 -0.386719167 0.00696795341 -0.209604159 0.977781296 0.00313466112 -0.354683429 0.934733868 -0.0217327401 -0.0748307183 0.993401289 0.0869148523 -0.125332892 0.992061913 0.0102395006 0.085671559 -0.041622173 -0.995453656 0.0622613616 -0.0297987852 -0.99761492 0.104860403 -0.0513144135 -0.993162215 0.129095629 -0.0635566711 -0.989593267 -0.00239014416 0.131807715 0.991272449 -0.0123949349 0.143221945 0.989612997 0.00380586064 0.124723747 0.992184222 0.0149127208 0.111996248 0.993596733 0.79161042 -0.365438133 0.489701837 0.795900226 -0.36599794 0.482274115 0.795575678 -0.365956306 0.482840925 0.790764928 -0.36532554 0.491149724 0.0190283787 -0.598202825 -0.801118791 -0.000498419278 -0.605988622 -0.795473158 -0.0189831294 -0.613094509 -0.789781511 -0.124774575 0.064740248 0.990070701 -0.0474253669 0.0203261115 0.998667955 -0.0749995857 -0.00415764796 0.997174919 0.00592575967 0.00493906299 0.999970257 -0.094519861 -0.0906343982 0.991388619 0.0211587939 -0.0227953903 0.999516249 0.28464815 -0.07582362 0.955628693 -0.000537014101 0.0699805096 -0.997548223 -0.00200694031 0.061117813 -0.998128533 -0.0133556481 -0.00750764273 -0.999882638 -0.0148254912 -0.0164218005 -0.999755263 0.892540097 -0.450830787 0.0111271674 0.905700743 -0.37177825 0.203683734 0.318407416 0.947953939 0.000149869986 0.000268537086 0.99948585 -0.0320624076 -0.130821988 -0.990519345 -0.0419163704 -0.0598926656 -0.997345626 0.0414067656 0.00601800391 0.0264602378 -0.999631763 0.0508511215 0.0678690821 -0.996397495 -0.0266885944 0.0180468094 -0.999480903 0.982523382 -0.129565835 0.133643031 0.898350954 -0.374845833 0.229033202 0.967200875 -0.227065474 0.113858156 0.992552638 -0.108038157 0.0562767088 0.986513555 0.120955974 0.110275276 0.0422691926 0.0200324319 -0.99890542 0.999718189 -0.0212019775 -0.0106794704 -0.706696451 0.674992502 -0.21205005 -0.736681342 0.665696383 -0.118949078 -0.847270668 0.526162624 0.072700128 -0.998895943 -0.045230478 0.0126910238 -0.998050272 -0.0566559024 0.0261867903 -0.999657929 -0.02480077 0.00830685534 -0.999986351 -0.00518514169 -0.000605196983 -0.996458292 -0.0229982659 0.0808822811 -0.107680857 0.989230573 -0.0991346911 0.251296312 0.834684968 -0.490052223 -0.131090492 0.0554130077 0.98982054 -0.0827887729 -0.994710386 -0.0608052313 -0.0528908558 -0.997899055 -0.037416663 -0.141788393 -0.987199664 -0.0730261877 -0.0577647127 -0.996360421 -0.0626827776 -0.187907845 -0.949570775 -0.251009852 -0.942687273 -0.333657146 -0.00368227251 -0.838634431 -0.544623554 -0.00879985839 0.995097637 -0.0555549748 -0.0818187967 -0.100271724 -0.821469843 -0.561366975 0.151870519 0.35527125 0.922343612 0.69774574 0.714311361 -0.0539458394 -0.0978269801 -0.0152294217 0.995086908 -0.172126547 0.0137155959 0.984979331 -0.00954505242 0.0145622101 0.999848425 -0.00316443969 0.0621565804 0.998061419 -0.217625931 0.499296427 0.838654876 -0.0326713063 0.718857825 -0.694388926 -0.27324298 -0.674629152 0.685721338 -0.108567923 0.0234061331 0.993813455 -0.0816418305 0.00997913443 0.996611774 -0.0978338867 0.0180501174 0.995039046 -0.0687723532 0.0035715003 0.997626007 0.311860174 0.944193304 0.106029525 -0.129510745 0.988480389 0.0783166885 -0.02930074 0.97460562 0.222002968 -0.0246340167 0.970589936 0.239475042 -0.000288832525 0.0786242709 0.996904254 -0.0330562033 -0.0710165352 0.996927261 0.00768888043 -0.0367560498 0.999294698 -0.0501070209 0.0223620851 0.998493493 -0.0861457214 -0.0483789369 0.995107234 -0.0116500417 0.0489549004 0.998733044 -0.0533513203 0.100811809 0.993474007 -0.0687865391 -0.778977811 -0.623267233 -0.18504861 0.00317153032 0.982724249 -0.0526314564 0.0242304616 -0.998319983 0.00452608522 0.7715078 0.636203706 0.0197423957 -0.969432652 0.244561911 -0.924688697 0.366126418 0.104413979 -0.0571952388 0.189175293 0.980276167 -0.0874345377 0.138262391 -0.986528635 -0.881304085 -0.472459555 0.00922251865 -0.910966575 -0.412321866 0.0114243487 -0.00923560932 0.0179820322 -0.999795675 -0.0570565425 -0.015319569 -0.998253405 0.171187714 0.162271902 -0.971783221 0.0935826227 0.163571611 -0.982082784 0.041031111 0.145546526 -0.988500178 -0.0884497911 -0.033607807 0.995513499 -0.206919566 -0.972293913 -0.108760454 -0.639490664 0.762067676 0.101511598 -0.266009599 -0.056656979 -0.962303936 -0.231834561 -0.972551763 0.0198949818 -0.149917483 -0.988189697 -0.0317163095 -0.202680558 -0.979243934 0.00138689275 -0.100769974 -0.992969155 -0.0621102303 0.97837168 -0.170686692 -0.116854027 -0.703524828 -0.708497703 -0.0555315167 0.22890465 0.967553735 -0.106969491 0.567903221 -0.822848082 -0.020174738 -0.0349308252 -0.619018257 -0.784599423 -0.303476542 -0.314229906 0.899534047 0.910639048 -0.277536184 0.306121141 -0.173669964 -0.256056637 0.950933099 -0.407625049 -0.182829469 0.894659281 0.177425101 -0.112454638 -0.977688253</float_array>
          <technique_common>
            <accessor source="#normals_array" count="361" stride="3">
              <param name="X" type="float" />
              <param name="Y" type="float" />
              <param name="Z" type="float" />
            </accessor>
          </technique_common>
        </source>
        <vertices id="vertices">
          <input semantic="POSITION" source="#positions" />
        </vertices>
        <triangles material="scout_1a1a1a" count="280">
          <input semantic="VERTEX" source="#vertices" offset="0" />
          <input semantic="NORMAL" source="#normals" offset="1" />
          <p>0 0 1 1 2 2 3 3 2 3 4 3 5 4 2 5 3 6 6 7 3 8 7 9 8 10 5 4 3 6 5 11 6 12 2 13 3 14 6 15 8 16 5 11 9 17 6 12 10 18 11 18 12 18 10 19 12 19 13 19 6 20 14 21 15 22 16 23 4 24 17 25 6 7 7 9 18 26 6 15 9 27 8 16 19 28 20 29 21 30 22 31 23 31 24 31 24 32 25 32 26 32 25 33 24 33 23 33 27 34 25 35 23 36 22 37 13 38 12 39 22 37 12 39 28 40 29 41 18 26 7 9 30 42 31 43 32 44 33 45 34 45 35 45 36 46 0 0 37 47 38 48 37 49 35 50 39 51 11 51 10 51 0 52 39 53 10 54 40 55 14 21 6 20 40 56 41 56 14 56 33 57 41 58 42 59 39 60 43 60 11 60 44 61 45 61 40 61 43 62 46 62 11 62 21 30 47 63 19 28 25 35 27 34 26 64 28 65 26 66 27 67 48 68 28 68 49 68 50 69 51 70 29 71 51 72 18 72 29 72 26 73 52 74 50 75 53 76 54 76 55 76 9 17 56 77 57 78 48 79 58 79 28 79 59 80 18 80 51 80 60 81 61 82 48 83 62 84 63 85 64 86 65 87 66 88 52 89 65 87 52 89 67 90 68 91 65 91 67 91 49 92 69 92 48 92 59 93 19 94 70 95 57 96 59 96 68 96 71 97 72 98 73 99 71 100 73 100 74 100 75 101 72 98 71 97 76 102 77 102 59 102 76 103 59 103 70 103 78 104 63 105 79 106 80 107 68 107 67 107 74 108 80 109 67 110 24 111 26 73 50 75 74 108 67 110 71 112 67 113 30 113 71 113 81 114 75 115 30 116 59 93 20 117 19 94 82 118 83 119 84 120 85 121 31 121 30 121 86 122 87 123 85 124 56 125 21 125 20 125 88 126 83 119 82 118 86 127 88 128 82 129 89 130 86 127 81 131 81 131 86 127 82 129 83 119 21 132 90 133 53 134 55 135 87 136 55 135 91 137 87 136 36 46 37 47 38 138 92 139 55 139 54 139 91 140 92 141 54 142 91 140 54 142 87 143 43 144 93 144 46 144 44 145 94 146 45 147 94 146 44 145 95 148 46 149 69 149 49 149 46 150 93 150 69 150 76 151 95 151 77 151 76 152 96 153 95 154 97 155 95 155 98 155 99 156 100 156 101 156 97 157 102 157 103 157 104 158 100 159 99 160 5 4 8 10 80 161 105 162 102 163 106 164 106 165 102 166 98 167 107 168 42 168 56 168 42 169 107 170 21 132 21 132 96 171 47 172 107 170 96 171 21 132 42 169 21 132 108 173 108 173 21 132 83 119 109 174 108 173 83 119 88 126 109 174 83 119 89 130 110 175 86 127 111 176 88 177 110 175 89 130 111 176 110 175 28 178 23 178 22 178 109 179 99 179 101 179 111 180 109 174 88 126 61 181 112 182 67 183 78 184 113 184 63 184 110 185 62 186 114 187 87 188 31 188 85 188 114 189 62 190 91 137 114 189 91 137 55 135 62 191 53 191 92 191 115 192 116 192 117 192 118 193 115 194 64 86 62 195 92 195 91 195 81 196 82 197 72 198 82 197 84 199 72 198 17 25 24 111 16 23 26 73 61 181 52 74 2 13 6 12 15 200 1 201 13 202 17 203 13 202 22 204 24 205 13 202 24 205 17 203 52 206 66 207 51 70 52 206 51 70 50 69 16 208 50 69 29 71 16 208 29 71 7 9 4 209 16 208 7 9 65 210 51 70 66 207 7 9 3 8 4 209 53 211 86 212 110 213 110 213 114 214 53 211 17 25 4 24 1 1 75 215 81 215 72 215 50 75 16 23 24 111 119 216 107 217 20 218 107 217 56 219 20 218 27 67 23 220 28 65 42 221 41 222 119 223 43 224 39 53 36 225 43 224 36 225 120 226 121 227 43 224 120 226 41 228 40 228 35 228 35 229 34 229 41 229 117 230 64 86 115 194 28 40 12 39 49 231 49 231 12 39 11 232 46 233 49 231 11 232 35 234 14 235 33 57 14 235 41 58 33 57 118 193 64 86 78 104 106 164 118 193 78 104 30 236 112 182 85 237 2 2 1 1 4 24 122 238 120 239 38 138 73 240 90 241 56 77 73 240 56 77 5 11 26 242 28 243 58 244 61 245 26 242 58 244 5 11 56 77 9 17 72 246 84 247 83 248 72 246 83 248 123 249 109 250 72 251 123 252 123 252 108 253 109 250 107 254 119 255 95 256 40 257 6 258 44 259 18 260 44 259 6 258 95 261 44 259 59 262 44 259 18 260 59 262 77 263 95 261 59 262 57 264 68 265 9 266 68 265 8 267 9 266 32 44 87 268 124 269 122 238 125 270 121 271 80 161 74 272 73 273 5 4 80 161 73 273 43 224 121 227 93 274 121 227 125 275 93 274 125 275 105 276 93 274 53 277 62 278 117 279 53 277 117 279 116 280 116 280 54 281 53 277 69 282 60 81 48 83 61 181 67 183 52 74 112 182 88 283 85 237 118 284 126 285 89 286 118 287 89 288 81 114 115 289 124 290 116 291 81 114 115 289 118 287 115 289 81 114 124 290 30 116 124 290 81 114 90 241 73 240 72 292 20 293 59 293 57 293 36 46 38 138 120 239 72 294 109 294 101 294 122 238 102 163 125 270 100 295 127 296 42 297 127 296 34 298 42 297 42 297 108 299 100 295 128 300 98 167 104 301 126 285 104 158 99 160 99 160 89 286 126 285 32 44 124 269 30 42 61 181 60 302 112 182 112 182 30 236 67 183 59 303 65 303 68 303 58 304 48 304 61 304 86 122 53 305 87 123 96 306 19 307 47 308 105 162 125 270 102 163 42 309 34 309 33 309 86 310 85 310 88 310 37 47 0 0 2 2 98 311 95 311 34 311 88 283 112 182 60 302 35 312 37 312 14 312 37 313 2 314 14 315 14 315 2 314 15 316 54 317 116 317 87 317 122 238 121 271 120 239 98 318 127 319 100 159 104 158 98 318 100 159 34 320 127 319 98 318 103 321 102 322 94 323 102 322 45 324 94 323 102 322 129 325 45 324 129 325 102 322 122 326 129 325 122 326 45 324 122 326 38 48 45 324 38 48 40 327 45 324 38 48 35 50 40 327 13 202 1 201 10 54 10 54 1 201 0 52 101 328 100 295 108 299 19 307 96 306 70 329 20 218 57 330 119 216 97 331 94 146 95 148 80 161 8 10 68 332 21 132 56 333 90 133 97 334 103 321 94 323 95 335 41 335 34 335 128 300 126 336 118 337 118 337 106 165 128 300 60 81 69 282 93 274 60 81 93 274 105 276 101 338 108 339 123 340 90 341 101 338 123 340 123 340 83 342 90 341 70 329 96 306 76 343 107 344 95 154 96 153 63 105 88 283 79 106 88 283 60 302 79 106 71 345 30 345 75 345 90 346 72 346 101 346 78 104 79 106 106 164 109 347 111 348 99 349 111 348 89 350 99 349 64 86 113 351 78 104 98 167 102 166 97 352 63 353 113 353 64 353 110 185 63 354 62 186 79 106 105 162 106 164 41 355 95 256 119 255 88 356 63 356 110 356 87 268 116 357 124 269 59 358 51 70 65 210 39 53 0 52 36 225 87 268 32 44 31 43 106 165 98 167 128 300 79 106 60 302 105 162 126 336 128 300 104 301 119 223 57 78 56 77 56 77 42 221 119 223 55 359 92 359 114 359 53 360 114 360 92 360 117 230 62 84 64 86</p>
        </triangles>
      </mesh>
    </geometry>
  </library_geometries>
  <library_visual_scenes>
    <visual_scene id="scene">
      <node id="left_shoulder_roll_link">
        <instance_geometry url="#geometry">
          <bind_material>
            <technique_common>
              <instance_material symbol="scout_1a1a1a" target="#scout_1a1a1a" />
            </technique_common>
          </bind_material>
        </instance_geometry>
      </node>
    </visual_scene>
  </library_visual_scenes>
  <scene>
    <instance_visual_scene url="#scene" />
  </scene>
</COLLADA>