<?xml version='1.0' encoding='utf-8'?>
<COLLADA xmlns="http://www.collada.org/2005/11/COLLADASchema" version="1.4.1">
  <asset>
    <created>2026-09-14T00:00:00Z</created>
    <modified>2026-09-14T00:00:00Z</modified>
    <unit name="metre" meter="1" />
    <up_axis>Z_UP</up_axis>
  </asset>
  <library_effects>
    <effect id="scout_1a1a1a_effect">
      <profile_COMMON>
        <technique sid="common">
          <lambert>
            <emission>
              <color>0 0 0 1</color>
            </emission>
            <ambient>
              <color>0.05 0.05 0.05 1</color>
            </ambient>
            <diffuse>
              <color>0.1 0.1 0.1 1</color>
            </diffuse>
          </lambert>
        </technique>
      </profile_COMMON>
    </effect>
  </library_effects>
  <library_materials>
    <material id="scout_1a1a1a" name="scout_1a1a1a">
      <instance_effect url="#scout_1a1a1a_effect" />
    </material>
  </library_materials>
  <library_geometries>
    <geometry id="geometry" name="left_ankle_link">
      <mesh>
        <source id="positions">
          <float_array id="positions_array" count="618">-0.0982828587 -0.0145874489 -0.0598569885 -0.100622401 -0.0117311431 -0.0639808998 -0.0981125608 -0.0140557745 -0.0687634125 0.0251117479 -0.00890644826 -0.013096014 0.0321887173 -0.0035605405 -0.00951369479 0.0235374924 -0.00356521341 -0.0149616487 -0.0751293823 -0.0147042023 -0.0468415655 -0.0883131772 -0.0136136916 -0.0537010171 0.0370321162 -0.010061102 -0.0119213732 0.032128118 -0.00835032761 -0.0092795426 -0.0680383369 -0.00938504376 -0.0417555124 0.198721126 0.015127535 -0.0591028333 0.199777946 -0.0295585711 -0.055774767 0.198639408 -0.0151245017 -0.0591003075 -0.0651394725 -0.0108163273 -0.0416923575 -0.05263035 -0.00961311441 -0.0331860557 -0.0257089287 -0.0107932463 -0.019380644 -0.0288525578 -0.0147640668 -0.0613534525 -0.0479591601 -0.0145845925 -0.067648977 -0.0356630683 -0.0134001058 -0.0653370395 -0.0507097282 -0.0124884378 -0.0694147944 -0.0422107242 -0.00933618937 -0.0268986169 -0.0337192081 -0.00958365202 -0.0222238358 -0.0216654986 -0.0134251649 -0.0606168658 0.00228045974 -0.0149337808 -0.0518830456 -0.0229512397 -0.00821695197 -0.0152436653 -0.0174096059 -0.00949498918 -0.00998937059 -0.0223863274 0.00801280607 -0.0148764402 -0.0156084551 0.0103551997 -0.00762508996 -0.0114806769 -0.0134090418 -0.0580626093 -0.00101281831 -0.0136261433 -0.0560613275 0.00864868145 0.0121226413 -0.0552050546 -0.0121634258 -0.010602003 -0.00194272329 -0.00535003236 0.00123639265 -0.00283677271 -0.00669706101 -0.00319415308 0.000351293798 -0.00653610704 -0.0100020254 -0.00349003216 -0.000427730381 -0.0031582918 -0.00669749826 0.00326490286 -0.0107242474 -0.00707018794 -0.00315152667 -0.0100411363 0.00693387724 -0.00725421403 -0.00968726352 0.00826540589 -0.000488880032 -9.11812749e-05 0.00601539062 -0.00116628676 0.00982105266 0.0107697928 -0.00898595899 0.00990812946 0.00574607262 -0.00477966759 0.000720511423 0.00367490551 0.0018982786 -0.00978592318 0.0107839555 -0.0992581993 0.0145954089 -0.0662592426 -0.0990900695 0.0129811028 -0.0597353354 -0.0894391835 0.0146584045 -0.0554101951 -0.0818646252 0.0145950504 -0.0504051633 -0.0746414438 0.0144114457 -0.0464311242 -0.0693708584 0.0101165073 -0.0425338671 -0.0653348565 0.0106201367 -0.0414423533 -0.0560352132 0.00934670214 -0.0349377468 -0.0459251069 0.013427278 -0.0685193688 -0.0493184887 0.010188533 -0.0314067453 -0.0396619812 0.0147795668 -0.065118514 -0.0200734735 0.0123632308 -0.0601493008 0.0666117817 -0.00818714779 -0.0362146348 0.0633492395 0.00927141029 -0.0345869511 0.0571526811 0.00155563571 -0.0309669524 -0.0411948226 0.0107766781 -0.028108146 -0.0358391441 0.0093477089 -0.0233007949 -0.0249378122 0.0107315732 -0.0187835377 -0.0256140307 0.0147054652 -0.0602005683 0.00723857712 0.0103366124 -0.00926913414 0.0108142598 0.00979220215 -0.00113069452 0.0107586579 -0.00985908881 -0.00096612575 0.00410634372 0.000147494749 0.00425791275 0.00694111409 -0.0101666041 0.0032154324 0.0145508982 -0.00986072049 -0.0360435881 0.00481252046 -0.0105385343 -0.0331187919 -0.00441265758 0.0147326114 -0.0550274029 0.00571212871 0.000313523895 -0.00219462602 -0.000314778619 0.00351522677 -0.00692526018 -0.00201577554 0.0106974626 -0.00746046379 -0.00779834623 0.00974777155 0.000519960129 0.0447934568 0.00380045781 -0.0197401084 0.0525562763 0.0037813182 -0.0271728337 0.0546008758 0.0105246045 -0.0296860263 -0.000402795296 0.0100315679 0.00769150583 0.0257970225 -0.0129234977 -0.0545342416 0.0343706384 0.0135449795 -0.0552392229 0.0560969487 -0.0135656362 -0.0589310676 0.0187235437 -0.0109455474 -0.0382694378 0.00307430234 -0.00945724454 -0.0299426876 0.00131888746 -0.0104288766 -0.0242533255 0.00305580813 -0.009503874 -0.0183903985 0.00716835773 -0.00977026206 -0.00951658189 0.0450774729 -0.0146511653 -0.0552369431 0.181346223 -0.0392915532 -0.0450464003 0.174898922 0.0400867313 -0.0417230912 0.174994871 -0.0399834439 -0.0417284966 0.0238264315 -0.00961957499 -0.0300301109 0.02348377 0.00335089304 -0.0293984655 0.0233235806 -0.00341940532 -0.0292204935 0.0243051872 -0.00974251982 -0.0194820613 0.0273213834 -0.0107702576 -0.0247674901 0.0302456822 -0.00470481254 -0.0212290492 0.0288393795 -0.00548355421 -0.0188224241 0.0345836356 -0.00395758543 -0.0186074134 0.0319899693 -0.00478441315 -0.0153356446 0.0269171856 -0.0102432268 -0.0127451979 0.0376648046 -0.0103773121 -0.0230819713 0.037894588 -0.00982530136 -0.013996887 0.0419412106 -0.0109538268 -0.0215483867 0.047428824 -0.00977073517 -0.0233503282 0.0473166406 -0.0041958997 -0.0222989954 0.0390681699 -0.00399642764 -0.0133032184 0.0549443252 -0.00341067556 -0.0289693885 0.0570556819 -0.0105720349 -0.0316869095 0.0673209056 -0.0122665009 -0.0625261217 0.0863427445 -0.0128085576 -0.0687384903 0.074661091 -0.0146835055 -0.063502863 0.070516035 -0.0105565442 -0.039998401 0.0782643259 -0.00853891484 -0.0411512926 0.0769430995 -0.0138432849 -0.0455606021 0.0888339877 -0.0147229536 -0.0677149594 0.0937327892 -0.00908465683 -0.0446206406 0.0831597224 0.0086873658 -0.0425669663 0.0930096582 0.0101778423 -0.0445851721 0.0815402269 0.0142988376 -0.0459932461 0.126617357 0.0148260454 -0.0470259935 0.0381119996 0.00351922307 -0.012627203 0.0283258352 0.00363961421 -0.0180553235 0.0336470976 0.00444029784 -0.0163242314 0.125689149 -0.0138852438 -0.0455261916 0.129634336 -0.0179485399 -0.0412667356 0.126672283 -0.01492461 -0.0479269922 0.136488602 -0.0225148518 -0.0411473326 0.130443588 -0.0193194356 -0.0442752466 0.139609352 -0.0251264609 -0.0439942926 0.144720972 -0.0276151318 -0.0413392 0.14910984 -0.0305774547 -0.0444108061 0.130054072 0.0186391156 -0.0411396064 0.126325816 0.0123041011 -0.0448406823 0.155649364 -0.0336218961 -0.0412336662 0.160718173 -0.0374134295 -0.0444497541 0.00637569139 -0.00293513876 0.000816150336 0.163250953 -0.0374551788 -0.041062206 0.17494905 -0.0401224047 -0.0450779907 0.173472688 -0.0179573353 -0.0451163761 0.189974472 -0.0371633917 -0.0498229004 0.182566017 -0.0388484448 -0.0494647771 0.189423129 -0.0369878411 -0.0534862615 0.1836036 -0.0165584069 -0.0510305427 0.17707178 -0.0151516134 -0.0489392616 0.193009213 -0.0154582337 -0.0571572818 0.197260484 -0.0319483094 -0.0578458123 0.00746570807 0.00971188582 0.00811261032 0.0166680813 0.0104752844 -0.0358532034 0.0748722702 0.0111510288 -0.0426299162 0.197868809 -0.0141616557 -0.0686470643 0.200251549 0.0118628368 -0.0643101782 0.20011273 -0.0119435973 -0.0627457276 0.00885502342 -0.0098579945 0.00616337964 0.0616110228 0.0144886235 -0.0603262223 0.0798390806 0.0148618994 -0.0652332231 0.0714031309 0.013424892 -0.063835308 0.00954970811 0.0106672067 -0.0366647169 0.00488370843 0.00955413375 -0.0325509943 0.00135723944 0.0105348658 -0.0198169425 0.00170674035 0.00800315477 -0.0240886677 0.00690895598 0.00998747721 -0.00318444171 -0.097770825 0.0139503423 -0.0690509677 0.0426676534 0.0146704512 -0.0550567545 0.0202375446 0.00909935031 -0.0328958295 0.0252693668 0.010819233 -0.0275556501 0.023751758 0.0100320717 -0.0181530416 0.0249818396 0.0100746937 -0.0215103198 0.0244637858 0.0037266959 -0.0132407676 0.0286945105 0.00605379697 -0.0164634231 0.0297857858 0.00564568816 -0.0216282755 0.034695264 0.0106662828 -0.025209669 0.0341413654 0.00402809307 -0.0205130856 0.0257617459 0.0102115823 -0.013483664 0.0317911915 0.00835976098 -0.00934925955 0.0319177546 0.00375804049 -0.00944681 0.0354876518 0.00968264509 -0.0117947031 0.0514723137 0.0134077892 -0.0580622405 0.039407596 0.0104557266 -0.0183247589 0.0382899344 0.00947140157 -0.012596189 0.0465007089 0.0101499613 -0.022678379 0.0715972334 0.00909603853 -0.0385936573 0.186930835 0.0381258577 -0.0520864762 0.192728832 0.0161465202 -0.0566038676 0.184784546 0.0175675396 -0.0512827747 0.0871435627 0.0135652544 -0.0686126575 0.129558191 0.0187802128 -0.0441345721 0.137741134 0.0240902361 -0.0420518704 0.136727363 0.0228679124 -0.044432614 0.163065016 0.0375495479 -0.0410769731 0.146110073 0.0289463997 -0.042113848 0.148185402 0.0295298826 -0.0446213223 0.15563871 0.0343881063 -0.041934818 0.161434934 0.0376323164 -0.0444585569 0.174792632 0.0398153253 -0.0450614393 0.175174758 0.0162944347 -0.0459539518 0.183192149 0.015105376 -0.052977927 0.190642715 0.0367288962 -0.0502371341 0.193706632 0.0348496176 -0.0556755662 0.197833017 0.0143738938 -0.0684335306 0.0997097194 0.0123852054 -0.0698876902 0.180419609 0.0392615013 -0.0444335528 0.199782997 0.0293884855 -0.0555424653 0.198031396 0.0305939112 -0.0582729168 0.00511631696 0.0100833802 0.00489419047</float_array>
          <technique_common>
            <accessor source="#positions_array" count="206" stride="3">
              <param name="X" type="float" />
              <param name="Y" type="float" />
              <param name="Z" type="float" />
            </accessor>
          </technique_common>
        </source>
        <source id="normals">
          <float_array id="normals_array" count="1452">-0.732444406 -0.678640604 -0.0545167699 -0.501363456 -0.0205499921 0.864992678 -0.498885036 0.0822945088 0.862752199 -0.527891219 0.137171552 0.838161588 -0.262722999 -0.776996255 0.572060645 -0.488933057 -0.215626478 0.845251262 -0.682147026 -0.0387340076 0.73018837 0.59840852 -0.018432498 0.800979078 0.483889252 0.0366876908 0.874359846 0.483823329 0.0366247855 0.874399006 -0.423492551 -0.242346615 0.872881532 0.951392472 0.00563636469 -0.307929575 0.72761637 -0.0992735252 -0.678763032 0.931660235 -0.0101887528 -0.36318782 -0.191168293 -0.723897517 0.662892938 -0.341416419 -0.720436215 0.603660941 -0.388169229 -0.650606811 0.652713835 0.203194931 -0.761392117 -0.615624726 0.162248269 -0.520659089 -0.838206172 0.267069012 -0.431177825 -0.861835182 0.0914561674 -0.300289124 -0.949453652 -0.328912437 -0.747527301 0.577078402 -0.305076271 -0.797752202 0.520115256 0.199112579 -0.721519232 -0.663147211 0.05050347 -0.937217116 -0.345070302 -0.644945741 -0.185701266 0.741323173 -0.00376552809 -0.999961853 -0.00788279809 0.00257964944 -0.9964571 0.0840632245 -0.752223194 0.251546264 0.609003067 -0.673831642 0.141122892 0.725282907 -0.817623258 0.00813604239 0.575696111 0.118006378 -0.870615721 -0.477601022 0.0434333421 -0.943186343 -0.329413265 0.203624889 -0.0172772296 -0.978896499 0.0419845805 0.0148256747 -0.999008238 0.137305737 -0.0185862407 -0.9903543 -0.873299003 0.0162627362 0.486913174 -0.660070121 0.554629266 0.506649613 0.964022517 -0.262368739 0.0426997803 0.97021383 -0.215864196 0.109944314 0.962413132 -0.115849093 0.245641932 0.510816514 0.00516588381 0.859674215 0.653890193 0.0132549498 0.756473303 0.348696977 -0.281698287 0.89389962 0.347619116 0.091705367 0.933140457 0.281705558 -0.429736793 0.857885897 -0.0204525627 -0.995610714 0.0913288742 0.0604702868 -0.998168588 0.00167722953 0.0964215398 -0.994723618 -0.0350395814 -0.048035074 -0.992125928 0.115666449 0.9335078 0.192688107 -0.302381307 0.717959762 -0.252025306 -0.648858249 -0.650974214 -0.0198134109 0.758841217 -0.134754658 0.0424610749 0.989968836 -0.765630305 0.0130488379 0.643148422 0.495448232 0.408277601 -0.76670754 0.55499047 0.236579776 -0.797505856 0.498669177 0.214312956 -0.839880347 0.00487978477 -0.997456133 0.0711160377 -0.968904853 0.0289409645 -0.245735228 -0.999834776 -0.0079042213 0.0163694955 -0.854756415 0.0279428791 0.518276632 -0.276384741 0.9258641 0.257657051 -0.217707589 0.922064364 0.320001155 -0.0773210004 0.996592224 -0.0287294667 -0.390024036 0.699247181 0.599111557 -0.25954926 0.76269275 0.592396796 -0.502345741 0.0321756266 0.864067972 -0.427551627 0.221004263 0.876559615 -0.138677701 0.820188999 0.555030167 -0.485057414 0.252683342 0.837180018 0.167729899 0.0139518688 -0.985734284 -0.411773145 0.537488341 0.735900223 0.136196598 0.90451926 -0.404098243 0.212012172 0.510373712 -0.833408356 0.0388205498 0.90193218 -0.430129439 0.458901435 -0.239725918 0.855535448 0.448224276 -0.233282417 0.862945139 0.555433929 -0.015949022 0.831407726 -0.148288235 0.947986603 0.281659395 -0.336685777 0.727081656 0.598326743 -0.439007849 0.582614064 0.683983147 0.256876051 0.590899944 -0.764756143 0.248607352 -0.00749130268 -0.968575358 0.283172935 -9.27849687e-05 -0.959068835 0.923134983 -0.0146198226 -0.384197921 0.915368617 -0.00596135529 -0.402572602 0.920282483 -0.000451496599 -0.391254246 -0.349133313 0.00259104068 -0.937069476 -0.355940402 0.0487836115 -0.933234453 -0.345715791 -0.00017690075 -0.938339233 0.00518649351 -0.99998492 -0.00181175501 -0.0444923341 -0.947921455 0.315381229 0.0192591492 -0.994698524 -0.101014614 0.133117661 0.679599285 -0.721404493 0.12831223 0.690574527 -0.711788416 -0.556661427 0.00505380193 0.830724061 -0.536245763 0.0499173254 0.84258455 -0.530514419 -0.145005137 0.835181415 -0.0257033855 0.998605192 0.0461190194 0.000301522174 0.999943554 0.0106178243 -0.00891171582 0.999667287 0.0242056753 0.286910683 -0.953289866 0.0944496095 0.720932305 0.082214959 0.688111424 0.591669261 0.122302301 0.796849847 0.809683144 0.00145784614 0.586865425 0.727875531 0.081048578 0.680902541 0.635912418 0.045679979 0.770408154 0.566893935 0.143239975 0.811241984 -0.0109139858 0.99982357 -0.0152872829 0.00800030399 0.99820751 0.0593105406 -0.00705908099 0.9994542 -0.032271672 0.696393132 -0.0178671461 -0.717438042 0.637215257 0.0326227956 -0.769995093 0.00105839386 0.997651279 0.0684892088 0.0434845388 -0.943171561 -0.32944876 -0.0470831953 0.0786466599 -0.995790064 -0.239953548 -0.273019403 -0.93160224 -0.0398425497 0.00414463738 -0.999197364 -0.030105833 -0.998710752 0.0408720672 0.916352212 0.153487191 0.369784176 0.950199187 0.00925650075 0.311505675 0.884550989 0.0653770193 0.461839139 0.632107794 -0.769085884 -0.0945867449 0.188217387 -0.979175031 -0.076095365 0.688221812 -0.719856799 -0.090316087 0.177167743 -0.979173958 -0.0991463959 -0.466055065 -0.268981576 0.842876971 0.119683102 -0.992811918 -0.000645871158 0.0783709511 -0.996011496 0.0426512063 -0.0690409765 -0.398496896 -0.914567411 -0.0705919713 -0.419739842 -0.904895127 -0.099971965 -0.822089195 -0.560513139 0.477935374 0.00553504517 0.878377557 0.258654684 -0.00087289355 0.965969443 0.274336547 0.000410338485 0.961633682 -0.12620452 -0.964173257 0.233328789 -0.677892208 0.0471783541 0.733645976 -0.609172523 -0.0157270804 0.792881787 -0.601411879 -0.0267318487 0.798491776 -0.534897387 -0.151912928 0.831148148 -0.97965008 -0.178421199 0.0919323936 -0.994513214 -0.102267399 0.0220201891 -0.98172754 -0.175621599 0.0732674822 -0.99647814 -0.0826585218 0.0141039491 -0.83877933 -0.0989404395 0.535406411 -0.317269176 -0.948329628 0.00334660243 0.572589636 -0.79961139 0.181004748 0.572675943 -0.811345339 -0.11730729 0.713197112 -0.696561933 0.078430213 0.64458698 -0.592581928 0.483067602 0.0369410738 -0.975491881 0.216912299 0.522438526 -0.793138564 -0.31303224 0.136926681 0.984070003 -0.113390222 0.136206672 0.982726693 -0.125283495 0.141470328 0.989531994 -0.0285061747 -0.961227655 -0.230368733 0.151563808 -0.607664824 -0.773971319 0.178078085 0.63625282 -0.692115545 -0.340820312 -0.477630407 -0.00314637995 0.878555238 -0.424788833 -0.355182707 0.832706273 0.0796138272 -0.486783564 -0.869886994 -0.208281711 -0.539007127 0.816143394 -0.214107558 -0.544859171 0.810732007 -0.12651974 -0.453634113 0.882161438 -0.313850731 -0.639681518 0.701644719 -0.886239707 -0.460477591 0.0503938012 0.0192396641 -0.987275302 0.157852039 -0.0486015566 -0.998809338 0.00421442697 0.0658668056 -0.993080437 0.0972256511 0.323728919 -0.840833366 0.433818877 0.694198251 -0.113768466 0.710735857 0.647040427 -0.0464030616 0.761042356 0.684704065 -0.119627811 0.718936443 0.469765365 -0.760896623 0.447612405 -0.0259620901 -0.860391378 0.508972108 -0.342552483 -0.898028314 -0.27604875 -0.488337368 -0.707633674 -0.510667384 -0.468480796 -0.693959832 -0.546759069 -0.49758327 -0.814156651 -0.299265563 -0.140799284 0.989263535 -0.0391570777 -0.0558909141 0.998271346 -0.0181814097 -0.481853098 0.860676646 -0.164479062 0.182113767 0.958261728 0.220383793 -0.000227387936 0.999404073 0.0345173106 -0.172796577 -0.968037188 -0.181783766 0.328643233 -0.825497925 0.458853781 0.533558607 -0.183677197 0.825577319 0.590143621 -0.050881125 0.805693269 -0.281267256 -0.193588927 -0.939900041 -0.179387823 -0.323076278 -0.92921567 -0.271184206 -0.51627928 -0.812351465 0.184268281 -0.742509842 0.643990934 0.21144928 -0.656146407 0.724403977 0.0699067041 -0.726899266 0.683176816 -0.0618060641 -0.531950951 -0.844516575 0.0681189224 -0.122888036 0.990079939 0.206367552 0.292177051 0.93383348 0.305763453 0.00958277658 0.952059269 0.0674862415 0.214291438 0.974435627 0.0459093824 0.851125419 0.522951126 -0.00494954316 0.999972522 0.00551665807 0.000297994964 0.999259531 0.0384742841 0.296956867 -0.778717637 -0.552644074 0.0141393915 -0.0342047997 0.999314845 -0.00475027924 -0.999882817 -0.0145508638 -0.0065693385 -0.999062359 -0.042793639 -0.00919675641 -0.998170257 -0.05976215 -0.676701784 -0.724443316 0.131364465 -0.720250666 -0.693693161 0.00536982482 -0.739883304 -0.672313809 0.0238070246 -0.528761208 -0.827311635 0.189649731 -0.661791325 -0.734484792 0.150214538 -0.512600482 -0.837731659 0.188272148 -0.490482569 -0.858984649 0.146874845 -0.428966045 -0.704444587 -0.565460861 -0.709355474 0.00568882609 0.704827964 -0.711295664 0.00524582993 0.702873409 -0.729445159 0.00103668461 0.68403852 -0.483423799 -0.846901476 0.221493289 -0.481661737 -0.862004876 0.157954156 -0.372859627 -0.896727622 0.238443375 -0.956067443 -0.0929590464 -0.278017282 -0.997030556 -0.0360074304 -0.0680702552 -0.979594588 -0.17434144 -0.0999976546 0.0425287485 0.0608885512 0.997238159 0.00154759176 0.321842492 0.946791947 0.0478566624 0.0251163989 0.998538375 -0.276923746 -0.940803707 0.195452318 -0.0597911626 -0.996919155 0.0507657975 -0.00491213705 -0.999639094 0.0264104046 -0.0182968508 -0.0205656085 -0.999621093 -0.199672028 -0.400619566 -0.894223154 -0.0287793521 -0.0153781958 -0.999467492 0.343562573 -0.93653667 -0.0697413385 0.197312847 -0.979066551 -0.0499628596 0.390027493 -0.915074766 -0.102551065 0.152172431 -0.987503707 -0.0409872904 -0.496818423 -0.0363087803 -0.867094636 -0.291236043 -0.0210551433 -0.956419468 -0.461590081 -0.366339177 -0.807917178 -0.273951501 -0.641020119 -0.716968417 -0.354248077 -0.660128415 -0.662373602 0.952785492 0.29768303 -0.059871912 0.626527429 -0.776761711 0.0640669987 0.644638062 -0.758918226 0.0921131447 0.691609681 -0.109915324 -0.713858962 0.160188094 -0.0319113284 0.986570537 0.360881507 0.024683414 0.932284951 0.00507203164 -0.636501312 -0.77125895 0.00300335558 -0.654408753 -0.756135046 0.00555885816 0.990817904 0.135088816 0.00282861292 0.99938041 0.0350822173 -0.00605374575 0.999026775 0.0436909795 0.93472451 -0.179638088 -0.306627125 0.873848736 0.00101447804 -0.486196786 0.924964845 -0.293565273 -0.241369873 0.840505481 -0.528094649 -0.121105567 0.931305826 -0.00114032964 0.364236444 0.957375526 0.0103706419 0.288659871 0.927887499 -0.00247549824 0.372851998 0.0662563741 -0.995921314 0.0612435676 -0.891291142 -0.204038501 -0.404930174 0.946447909 0.025113726 0.321878284 0.959404349 0.00897887349 0.281891316 0.966152608 -0.000573296216 0.257970512 -0.270085603 0.0615063794 -0.960869789 -0.124096625 0.909323573 -0.397153139 -0.285704762 0.285067767 -0.914936662 -0.946602166 0.0531482361 0.317993015 -0.940929294 0.0615416244 0.332963556 0.277317226 -0.0315032788 0.960261762 0.283577144 -0.0352900252 0.958299875 0.28992185 -0.0391360819 0.956249833 -0.00156296964 0.993418872 0.114527307 -0.00332383579 0.966227889 0.25766772 0.935480833 -0.0761355832 0.34507817 0.899166822 -0.340231895 0.275211453 0.927474082 -0.209256887 0.309844047 0.647814572 0.677419364 -0.348481387 0.370081455 -0.912789345 0.17278707 0.0365234576 0.998467565 0.0415756851 0.0408067107 0.998590231 0.0339464545 -0.504101276 0.0648743883 0.861204505 0.049683664 0.998484015 0.0236908793 -0.00344534451 0.0654621199 -0.997849107 0.00165208266 0.973273158 -0.229644582 -0.000399839366 0.162909493 -0.98664093 -0.676049054 -0.0674328506 0.733764589 -0.721857607 -0.0342161804 0.69119519 -0.637275815 0.00313190627 0.770629466 -0.805337012 0.51788336 -0.288494498 -0.865975916 0.449665517 -0.218830109 -0.94572252 0.313048154 -0.0872338265 -0.982922316 0.0303981472 0.18149291 -0.996012151 -0.0642459467 0.061905589 -0.825879931 0.0670057088 0.559850514 -0.97148478 0.236485794 -0.0170802083 0.0165142901 -0.999814987 0.00986391306 -0.00826852862 -0.999784648 0.0190342125 0.0229317714 -0.99704504 0.0733168125 0.614298105 0.772018254 0.163173825 0.625374734 0.780285954 0.00776526518 0.663278997 0.747887671 -0.0269271191 0.676501632 0.731503546 0.0851362571 0.932326615 -0.287236542 0.219686821 0.175235316 0.452406436 0.874426067 0.319601983 0.322933197 0.890824735 0.183212966 0.59765619 0.780538321 -0.0165980998 -0.999655545 0.0203290489 0.170583621 0.827790797 0.534475088 0.0702099055 0.687406003 0.72287178 -0.0141501967 0.992483139 0.121560417 0.00813110452 0.999387622 0.0340339169 -0.000198357055 0.999877512 0.0156481005 -0.752470016 0.174396679 0.635117829 0.65817827 0.686211407 -0.3097018 -0.487831205 0.0390438475 0.872064352 -0.0163098443 -0.999559283 0.0248040333 -0.0170641858 -0.998981118 0.0417792462 0.164335012 0.64855653 -0.743214965 0.189747557 0.622080982 -0.759612441 0.188151076 0.587129533 -0.787323356 -0.511937559 -0.00492592109 0.859008551 -0.0937699154 0.789592445 -0.606424689 -0.101451837 0.775580704 -0.623042583 -0.221190751 0.226236507 -0.94862622 -0.0784505829 -0.996609271 -0.0248096138 -0.253052413 -0.965257943 0.0651272908 -0.7395823 0.626036286 -0.247177109 -0.737259507 0.60813719 -0.294308633 -0.73860693 0.656826019 -0.151787475 -0.739270568 0.428959727 0.519107521 0.135247722 0.971760809 0.19336234 0.231366277 0.921398103 0.312242121 0.108749211 0.984372675 0.138506502 0.20982185 0.57587719 -0.790152073 0.193680957 0.710126102 0.676911116 -0.0280846264 0.896357954 0.442440629 -0.00268839858 0.881244481 0.472653031 0.256605983 0.633058131 0.73033607 -0.729417384 0.575545967 -0.369725823 0.62138468 0.00135832827 0.783504486 0.599896252 -0.0221009813 0.799772501 0.128316388 0.972928524 0.192210689 -0.0361423567 0.656821728 0.753179193 -0.0314153917 0.633225501 0.773329496 0.685894668 0.145523161 0.713001788 0.552426398 -0.0436934568 0.83241576 -0.968661427 0.105993867 -0.224633723 0.386430949 -0.0126541974 0.922231555 0.374270439 -0.483009815 0.79159534 0.39558357 0.647971392 0.650881529 0.361547202 0.67892164 0.639021993 0.135748371 0.724130571 0.676171005 -0.489981592 0.0381032899 -0.870899618 -0.458188146 0.0368270054 -0.888091981 -0.518472373 0.0207094401 -0.854843557 -0.0224102158 0.908607066 -0.417050302 -0.0131388018 -0.99979043 -0.0156979635 0.00368602877 -0.999977887 -0.00553220231 0.0106918523 -0.999907553 0.00840031728 -0.778317928 0.608178318 0.156013951 -0.856634736 0.390849084 0.336769819 -0.869325042 0.402650565 0.286612093 -0.717360616 0.680181921 0.150818646 -0.500075638 0.844706357 -0.190776125 -0.49020654 0.842565536 -0.22311613 -0.356217921 0.619562328 0.699464977 -0.356048256 0.619214594 0.699859202 -0.336666435 0.574074447 0.746387482 -0.490463018 0.845764101 -0.210069299 -0.489448249 0.849907219 -0.195187435 -0.364296049 0.635944307 0.680340528 -0.502245367 0.862556875 -0.0611979105 -0.315076709 0.525709808 0.790161908 -0.343762696 0.930020928 0.129954889 0.0334366634 -0.000598163228 0.99944067 0.0265175235 0.000262537185 0.999648333 -0.274804741 0.948810995 0.155692354 -0.0546849854 0.996631563 -0.061115019 -0.0106160911 0.997030914 -0.0762672573 -0.421281636 0.683151484 -0.596511364 -0.370358229 0.677236736 -0.635755599 -0.194997758 0.916089594 -0.350365192 -0.135729209 0.959833682 -0.245554239 0.419157952 0.9079054 0.00378580811 0.623066902 0.78052336 0.0507046841 0.307243288 0.950995922 0.0347609967 -0.00124376384 0.993754566 -0.111580901 -0.00407913653 0.713548243 -0.700594187 0.127858356 0.990844309 -0.0433572046 0.129493371 0.9872967 -0.0920692235 0.80823946 0.57577157 -0.123434305 0.668519378 0.743127882 -0.0290307589 0.666241646 0.738834262 -0.101222634 -0.42330575 0.134469643 -0.895952106 -0.37368536 0.0575518124 -0.925768375 -0.448109776 0.149743572 -0.881348133 0.0629874021 0.995752335 0.0671557039 0.0644626766 0.996274054 0.0572933964 0.00751457643 -0.999971747 0.000119142554 -0.0120301051 -0.921766222 0.387559444 0.869684994 0.0576347858 -0.490230769 -0.197147802 0.0106634488 -0.980315804 -0.0348188952 -0.0217712279 -0.999156475 0.938682437 -0.0162233189 -0.344401062 0.942638457 -0.0354007035 -0.331933022 -0.00670591416 -0.993647754 0.112335138 0.000143770099 0.999835253 0.0181503445 -0.00134540221 0.999992788 0.00354596041 -0.013405622 -0.010102557 -0.999859095 -0.00575442612 0.00351815065 -0.999977231 -0.00368533516 -0.999973893 -0.00621922361 -0.00867015123 -0.999801815 0.0179198887 0.86384654 0.00485221995 -0.503731668 -2.8789138e-05 0.590274751 -0.807202399 0.00833318941 0.999948144 0.00585822947 0.00463412283 0.999949336 0.0089334948 -0.49856922 0.000338640501 0.86684984 -0.503193915 -0.0105302604 0.864109397 -0.517068267 -0.00141096779 0.855943024 0.914849222 0.00177439209 -0.403791785 -0.0253470745 0.980492592 -0.194914907 0.465160489 -0.00268546678 0.885222316 0.130603209 0.969321728 -0.208226174 0.00143940072 -0.998571038 -0.0534206629 0.00682778843 -0.996312618 -0.0855248719 0.00985215511 -0.99410063 -0.108013526 0.0236748829 -0.994481087 -0.102210172 -0.00296875346 -0.999980092 -0.00556579372 0.00246525439 -0.99998039 0.00575655419 0.0399927758 -0.999121845 -0.0124956965 0.501726449 0.00334599731 0.865019858 0.497626752 -0.00292524742 0.867386341 0.465493113 0.0890855119 0.880556583 0.489837736 -0.0200025253 0.871584117 0.926267147 -0.360549331 -0.109696865 -0.43234852 -0.0530674905 -0.900143683 -0.490967542 -0.0522483625 -0.869609654 -0.323582143 -0.0439573266 -0.945178449 -0.426846355 -0.0724059641 -0.901420891 -0.45328036 -0.0313505568 0.89081651 0.00935075339 -0.0263921879 0.999607921 -0.733631253 4.85524724e-05 0.679547727 -0.0030635267 -0.000666777836 0.999995112 0.00422176765 -0.00590165146 0.999973655 -0.0195817668 -0.00324932043 0.999803007 0.0014171066 -0.00442289747 0.999989212 -0.0178750623 -0.000338783575 0.9998402 0.0121378303 -0.00705152284 -0.999901474 0.0146657899 0.00750043849 -0.99986434 -0.00746195158 0.376011819 0.92658484 0.0104341665 -0.636192679 -0.771459699 -0.0192700475 -0.999400496 -0.0287620761 -0.0194227193 -0.929138243 0.369221956 -0.0189285334 -0.0193471722 -0.99963361 0.0196582321 0.999361932 0.0298201572 0.0386737846 0.99920541 0.00963749364 0.961433113 0.0124502396 0.274756879 0.271757513 -0.028146632 0.961954057 0.959415257 -0.017674135 -0.281442761 -0.882330298 0.00506369025 -0.470603406 -0.884254217 0.00599522376 -0.466967374 -0.000832281774 0.999772847 -0.0212960541 0.00127513427 0.999464631 -0.0326934494 0.192646042 0.519505501 -0.832467139 -0.0240977388 -0.874761641 0.483953863 -0.434121221 -0.0357378349 0.900145292 0.451448441 -0.0116869956 0.892220676 0.447843164 -0.00663696323 0.894087493 -0.969779491 0.112443127 -0.21652779 -0.437036037 0.062422622 -0.897275269 -0.379959881 0.0326597802 -0.924426198 -0.415394694 0.127548695 -0.900654495 -0.2706514 0.0306069255 -0.962190747 -0.281673998 0.0318129957 -0.958982646 0.00840008352 -0.99995923 -0.00330935675 -0.0399996005 -0.0027012052 -0.999196053 -0.0387404449 0.00467288448 -0.999238372 -0.0303488914 0.0386782549 -0.998790741 -0.034196917 0.0479401536 -0.99826467 0.852824748 0.0658311248 -0.51803112 0.939609706 0.0327728465 0.340675086</float_array>
          <technique_common>
            <accessor source="#normals_array" count="484" stride="3">
              <param name="X" type="float" />
              <param name="Y" type="float" />
              <param name="Z" type="float" />
            </accessor>
          </technique_common>
        </source>
        <vertices id="vertices">
          <input semantic="POSITION" source="#positions" />
        </vertices>
        <triangles material="scout_1a1a1a" count="420">
          <input semantic="VERTEX" source="#vertices" offset="0" />
          <input semantic="NORMAL" source="#normals" offset="1" />
          <p>0 0 1 0 2 0 3 1 4 2 5 3 6 4 7 5 0 6 8 7 4 8 9 9 10 10 7 5 6 4 11 11 12 12 13 13 14 14 10 10 6 4 10 10 14 14 15 15 15 15 14 14 16 16 17 17 18 18 19 19 20 20 19 19 18 18 21 21 15 15 16 16 22 22 21 21 16 16 19 19 23 23 17 17 24 24 17 17 23 23 25 25 22 22 16 16 6 4 17 26 24 27 26 28 25 25 16 16 27 29 25 25 28 30 29 31 24 24 23 23 30 32 24 24 29 31 29 33 31 34 30 35 32 36 26 28 16 37 33 38 34 39 35 40 36 41 33 42 35 43 37 44 35 43 32 45 38 46 32 47 35 48 39 49 32 47 38 46 34 50 38 50 35 50 34 51 40 51 38 51 39 52 41 53 42 54 34 55 43 56 40 57 44 58 39 49 38 46 45 59 1 60 46 61 46 62 47 63 45 64 48 65 47 63 46 62 49 66 48 67 50 68 51 69 50 68 52 70 49 66 50 68 51 69 19 19 20 20 53 71 54 72 51 69 52 70 55 73 56 74 53 75 57 76 58 77 59 78 60 79 54 72 61 80 61 80 62 81 60 79 55 73 63 82 56 74 56 83 23 84 19 19 28 30 26 28 32 36 64 85 65 86 66 87 38 88 67 89 68 90 62 81 61 80 27 29 14 91 69 92 70 93 28 30 62 81 27 29 71 94 56 74 63 82 71 94 31 95 56 74 72 96 73 97 36 98 42 99 74 100 28 101 42 102 75 102 74 102 74 103 33 42 73 104 74 103 75 105 33 42 76 106 77 107 78 108 42 109 79 110 75 111 75 112 79 113 43 56 42 109 41 114 79 110 24 24 30 32 80 115 81 116 82 117 80 118 83 119 69 92 14 91 84 120 85 121 70 122 86 123 37 124 85 125 87 126 37 124 86 123 72 96 36 98 37 127 66 128 37 124 87 126 66 128 68 129 37 124 24 130 80 131 88 132 89 133 90 134 91 135 92 136 69 92 83 119 93 137 69 138 94 139 94 139 69 138 92 140 5 141 92 142 95 143 5 141 94 144 92 142 96 145 92 145 83 145 92 146 96 146 95 146 97 147 98 148 95 149 96 150 97 147 95 149 5 151 97 151 99 151 97 147 100 152 98 148 5 153 100 154 97 155 3 156 5 141 95 143 101 157 3 157 95 157 98 148 101 158 95 149 9 159 3 1 101 160 100 152 101 158 98 148 101 161 100 161 8 161 80 131 82 117 88 132 37 44 36 41 35 43 102 162 97 163 96 164 99 165 97 163 102 162 99 166 102 166 103 166 103 167 102 168 104 169 105 170 103 167 104 169 106 171 107 172 105 173 107 174 106 174 108 174 9 175 101 175 8 175 103 176 100 177 99 178 100 177 103 176 8 179 4 180 99 181 100 182 107 172 8 7 105 173 107 183 108 184 4 180 105 185 8 179 103 176 105 170 104 169 109 186 109 187 106 171 105 173 108 188 106 171 109 187 57 76 108 188 109 187 59 78 108 188 57 76 110 189 111 190 112 191 82 117 110 189 112 191 88 132 82 117 112 191 57 76 109 187 113 192 114 193 57 76 113 192 114 193 113 192 115 194 111 190 116 195 112 191 117 196 114 193 115 194 117 196 118 197 114 198 119 199 118 197 117 196 120 200 121 201 71 202 122 203 123 203 124 203 119 199 117 196 125 204 18 205 0 206 2 207 126 208 125 209 127 210 128 211 126 208 129 212 128 211 129 212 130 213 131 214 128 211 130 213 129 215 132 215 130 215 126 208 127 210 129 212 133 216 134 217 126 218 135 219 132 220 136 221 131 214 130 213 132 220 135 219 131 214 132 220 67 222 72 223 137 224 94 225 59 226 93 227 138 228 135 219 136 221 91 229 138 228 136 221 91 229 136 221 139 230 132 231 140 232 136 233 141 234 142 235 143 236 89 237 91 229 139 230 140 232 142 238 139 239 89 237 139 230 142 235 141 234 89 237 142 235 144 240 145 241 146 242 145 241 144 240 140 232 33 243 75 243 43 243 141 234 143 236 147 244 12 245 141 234 147 244 147 246 13 13 12 12 41 53 44 247 148 248 129 249 127 250 140 232 149 251 78 252 150 253 151 254 152 255 153 256 153 256 13 257 151 254 153 258 11 259 13 260 44 58 38 46 68 129 154 261 44 58 68 129 67 222 137 224 68 262 154 261 68 129 66 128 65 263 154 264 66 265 44 247 41 53 39 52 155 266 156 267 157 268 43 56 79 113 40 57 68 269 72 223 37 270 149 271 70 272 69 273 158 274 159 275 149 251 159 276 160 277 161 278 160 279 64 279 161 279 160 280 159 280 158 280 74 100 162 281 64 282 162 283 73 97 72 96 162 281 65 284 64 282 71 285 81 116 31 34 163 286 55 73 53 75 71 285 164 287 81 116 165 288 166 289 149 290 167 291 168 292 93 293 167 294 93 295 169 296 166 289 165 288 93 137 168 292 166 297 93 293 123 298 169 299 93 300 168 301 167 302 170 303 168 301 170 303 171 304 171 305 170 305 123 305 172 306 168 307 171 308 173 309 123 298 93 300 171 308 123 310 173 311 168 312 172 313 166 314 174 315 167 294 169 296 174 316 170 303 167 302 174 315 169 296 175 317 122 318 169 299 123 298 176 319 169 299 122 318 174 320 177 321 170 322 25 25 27 29 22 323 81 324 164 325 178 326 172 306 171 308 173 311 122 327 124 328 173 309 124 329 179 330 173 331 179 332 172 332 173 332 180 333 181 334 179 335 179 335 181 334 78 252 177 321 124 336 170 322 177 337 174 338 175 339 177 337 175 339 180 340 177 341 179 330 124 329 180 342 122 343 76 106 177 344 180 333 179 335 119 199 134 345 121 346 178 326 110 189 82 117 164 325 155 266 178 326 78 108 181 347 76 106 148 248 44 247 154 348 67 222 162 349 72 223 58 77 78 108 77 107 58 77 77 107 59 78 58 77 182 350 78 351 78 352 182 353 150 354 183 355 184 356 185 357 181 347 180 342 76 106 118 197 150 354 182 353 156 267 186 358 157 268 85 121 159 276 161 278 37 359 32 360 85 361 120 200 150 354 118 197 119 199 120 200 118 197 187 362 121 363 134 364 133 365 187 362 134 364 187 362 188 366 189 367 133 365 188 366 187 362 188 368 133 369 190 370 188 366 191 371 189 367 191 371 192 372 189 367 191 373 188 368 190 370 191 371 193 374 192 372 193 375 191 373 190 370 193 374 194 376 192 372 91 135 190 377 138 378 193 374 190 379 194 376 190 379 90 380 194 376 194 376 90 380 195 381 196 382 185 383 197 384 185 383 184 385 197 384 198 386 199 387 183 388 186 358 200 389 201 390 202 391 183 388 195 381 202 391 198 386 183 388 184 385 200 389 197 384 184 385 11 392 200 389 200 393 11 393 152 393 199 387 198 386 203 394 199 387 203 394 204 395 205 396 67 89 40 397 79 398 205 396 40 397 79 110 148 399 205 400 41 114 148 399 79 110 205 400 65 284 162 281 148 399 65 284 205 400 3 1 9 159 4 2 14 91 113 401 83 119 8 7 107 172 4 8 125 402 115 194 6 4 203 403 12 12 11 11 163 286 45 64 55 73 53 71 56 83 19 19 111 190 186 404 201 405 18 205 6 4 0 206 6 4 18 205 17 26 26 28 28 30 25 25 29 33 56 83 31 34 32 36 39 52 42 54 1 60 0 6 46 61 86 406 161 407 64 85 24 27 127 408 125 402 125 402 6 4 24 27 47 63 48 409 55 73 55 73 45 64 47 63 63 410 55 73 48 409 48 409 71 202 63 410 20 20 2 411 163 412 163 412 53 71 20 20 56 83 29 33 23 84 116 413 145 414 127 408 69 138 93 137 165 288 51 69 120 200 49 66 182 350 58 77 57 76 80 118 30 35 31 34 200 415 152 255 151 254 121 416 187 416 196 416 158 274 51 69 60 79 51 69 54 72 60 79 160 417 158 274 62 418 158 274 60 79 62 418 160 417 62 418 28 101 74 100 64 282 160 417 74 100 160 417 28 101 50 68 48 67 7 5 48 67 46 61 7 5 0 6 7 5 46 61 50 68 7 5 10 10 52 70 50 68 10 10 21 419 52 70 15 420 54 72 52 70 21 419 61 421 54 72 21 419 10 10 15 420 52 70 61 421 22 323 27 29 21 419 22 323 61 421 182 350 114 198 118 197 38 88 40 397 67 89 127 250 145 241 140 232 28 30 32 36 42 54 64 85 66 87 87 422 87 422 86 406 64 85 81 116 178 326 82 117 196 423 197 384 121 201 197 384 156 267 121 201 111 190 157 268 186 404 78 252 149 251 166 314 78 252 166 314 172 313 179 335 78 252 172 313 51 69 150 354 120 200 89 133 202 424 90 134 100 154 5 153 4 425 127 408 24 27 88 426 145 414 116 413 146 427 151 428 13 429 146 427 116 413 151 428 146 427 127 408 88 426 112 430 112 430 116 413 127 408 83 119 113 401 109 431 102 168 96 432 83 119 83 119 109 431 102 168 109 431 104 169 102 168 12 433 203 434 89 133 141 435 12 433 89 133 203 434 198 436 202 424 89 133 203 434 202 424 34 39 33 38 43 437 144 240 146 438 143 439 142 238 144 240 143 439 146 438 13 440 147 441 146 438 147 441 143 439 57 76 114 198 182 350 71 202 48 409 49 66 49 66 120 200 71 202 176 442 175 317 169 296 125 204 134 443 119 199 134 217 125 444 126 218 190 377 133 445 128 446 133 445 126 447 128 446 128 446 131 448 190 377 138 378 190 377 135 449 190 377 131 448 135 449 151 450 111 190 201 405 201 405 200 451 151 450 94 225 108 452 59 226 136 233 140 232 139 239 2 453 20 20 18 18 76 454 122 327 173 309 93 300 77 455 173 309 77 455 76 454 173 309 129 456 140 232 132 231 140 232 144 240 142 238 159 276 84 120 70 122 116 195 111 190 151 450 36 41 73 104 33 42 150 253 158 274 149 251 108 184 94 457 99 181 99 181 4 180 108 184 94 457 5 458 99 181 153 258 152 459 11 259 68 269 137 224 72 223 149 271 159 460 70 272 111 190 110 189 157 268 161 407 86 406 85 461 31 34 81 116 80 118 163 462 2 463 1 60 1 60 45 59 163 462 156 267 197 384 200 389 121 201 156 267 155 464 71 202 121 201 164 465 121 201 155 464 164 465 124 336 123 466 170 322 93 300 59 467 77 455 73 97 162 283 74 468 176 469 180 342 175 470 121 346 120 200 119 199 176 469 122 343 180 342 178 326 155 266 110 189 67 222 205 471 162 349 110 189 155 266 157 268 150 253 51 69 158 274 113 192 14 14 115 194 204 472 11 473 184 356 183 355 199 474 204 472 183 355 204 472 184 356 196 475 195 476 183 355 185 357 196 475 183 355 85 121 84 120 159 276 16 477 14 91 70 93 16 477 70 93 85 361 32 360 16 477 85 361 6 4 115 194 14 14 186 358 156 267 200 389 196 475 187 478 189 479 91 135 90 134 190 377 125 204 117 196 115 194 196 475 189 479 192 480 195 476 196 475 194 481 192 480 194 481 196 475 69 138 165 288 149 290 202 391 195 381 90 380 11 11 204 482 203 403 154 264 65 263 148 483</p>
        </triangles>
      </mesh>
    </geometry>
  </library_geometries>
  <library_visual_scenes>
    <visual_scene id="scene">
      <node id="left_ankle_link">
        <instance_geometry url="#geometry">
          <bind_material>
            <technique_common>
              <instance_material symbol="scout_1a1a1a" target="#scout_1a1a1a" />
            </technique_common>
          </bind_material>
        </instance_geometry>
      </node>
    </visual_scene>
  </library_visual_scenes>
  <scene>
    <instance_visual_scene url="#scene" />
  </scene>
</COLLADA>