<?xml version='1.0' encoding='utf-8'?>
<COLLADA xmlns="http://www.collada.org/2005/11/COLLADASchema" version="1.4.1">
  <asset>
    <created>2026-09-14T00:00:00Z</created>
    <modified>2026-09-14T00:00:00Z</modified>
    <unit name="metre" meter="1" />
    <up_axis>Z_UP</up_axis>
  </asset>
  <library_effects>
    <effect id="scout_1a1a1a_effect">
      <profile_COMMON>
        <technique sid="common">
          <lambert>
            <emission>
              <color>0 0 0 1</color>
            </emission>
            <ambient>
              <color>0.05 0.05 0.05 1</color>
            </ambient>
            <diffuse>
              <color>0.1 0.1 0.1 1</color>
            </diffuse>
          </lambert>
        </technique>
      </profile_COMMON>
    </effect>
  </library_effects>
  <library_materials>
    <material id="scout_1a1a1a" name="scout_1a1a1a">
      <instance_effect url="#scout_1a1a1a_effect" />
    </material>
  </library_materials>
  <library_geometries>
    <geometry id="geometry" name="left_knee_link">
      <mesh>
        <source id="positions">
          <float_array id="positions_array" count="828">-0.015327557 -0.0153535744 -0.401550144 -0.00821924489 -0.0160910934 -0.413323611 -0.0127230128 -0.0217157193 -0.402619809 -0.0082918955 -0.0241563525 -0.407772481 -0.00258648931 -0.0237629171 -0.400085956 0.0015235591 -0.0237423554 -0.401785195 -9.27126748e-05 -0.0154203502 -0.402956575 -0.002814312 -0.0153437518 -0.39979285 -0.0100085055 -0.0170909595 -0.361148924 -0.0140077434 -0.0143273361 -0.396786332 -0.00747548975 -0.0221030898 -0.361183345 -0.000118092779 -0.0242876653 -0.397273809 -0.000238658235 -0.0242943894 -0.346576959 0.00183064456 -0.0155956335 -0.398269296 -0.00517257862 -0.0159259047 -0.313049197 -0.0443608314 -0.0399403684 -0.148671687 -0.040817041 0.013231094 -0.15227966 -0.0303998217 -0.0360340551 -0.158959702 -0.00116593635 -0.0194366015 -0.301301479 0.000699735247 -0.0183234625 -0.276599437 -0.00186551735 -0.0151527198 -0.259825766 -0.00582682667 -0.0141635556 -0.38982439 -0.0540235974 -0.0364091918 -0.0959638879 -0.0557606481 -0.0396976136 -0.101275779 -0.0514876395 -0.0399080366 -0.0909299925 -0.0560368262 -0.00348193524 -0.128900215 -0.0522306636 -0.0397165865 -0.138090894 -0.0551630408 -0.0390479937 -0.130711421 -0.0560890213 -0.00276514562 -0.101398088 -0.0517670289 0.000841874862 -0.138348907 -0.050188534 -0.00514458725 -0.141799748 -0.0498630963 -0.00262091542 -0.0879480839 -0.0517161377 0.000423830905 -0.0921663493 -0.030478362 -0.0395790823 -0.156814143 -0.0390530676 -0.0405583456 -0.122767158 -0.0307545867 -0.0406519845 -0.13624911 -0.0318460166 -0.0477962382 -0.132991582 -0.039372012 -0.0421113335 -0.11207325 -0.0370625667 -0.0475806519 -0.123173349 -0.0345136635 -0.0477336459 -0.10043022 -0.0330663323 -0.040606916 -0.0956556424 0.043734204 -0.0178295933 0.0144031262 0.0478513949 0.0158769824 0.00785620417 0.0370079651 -0.0152466912 0.0291384924 0.0123670865 -0.0299808662 -0.157889977 0.00537397992 -0.0272260923 -0.165315449 0.0250246916 -0.0283186659 -0.149160936 -0.0218613688 -0.0399024859 -0.161960229 0.00160490756 -0.0399141721 -0.161760598 0.00747532351 -0.0388109237 -0.158157885 -0.0290223546 -0.0142636113 -0.0702193677 -0.0391900949 0.0131550208 -0.0767501965 -0.0434055589 -0.0396283269 -0.0802941844 -0.0191045031 -0.040435154 -0.145064116 -0.0193553641 -0.0475144461 -0.143780127 -0.0179139078 -0.0435852073 -0.141953513 -0.0241139382 -0.0476823747 -0.0910982266 -0.0188156031 -0.0406067669 -0.0856174529 -0.0170754567 -0.0476721749 -0.0857923701 -0.0262796115 -0.0388575196 -0.0705445856 -0.0183167942 -0.0397694968 -0.0675998256 -0.00687773852 -0.0131780934 -0.0665748492 -0.0135791702 -0.00708426861 -0.167714998 -0.00687446306 -0.0104782302 -0.164379686 -0.0280979536 -0.0143767586 -0.160115987 -0.0135587882 -0.00762172043 -0.0626129806 -0.0285153631 0.0156022664 -0.0718437135 0.00226810086 0.0165975224 -0.0737269744 -0.0198144577 0.0182476975 -0.0748986229 -0.00608805427 -0.0440868028 -0.143634439 0.00250514341 -0.0481821448 -0.143272385 0.00441623246 -0.0433301404 -0.139202684 -0.00333623867 -0.0477982387 -0.0858232602 -0.00326401484 -0.0397265255 -0.0674779192 -0.000992713147 -0.040749602 -0.0856048688 -0.00110515556 -0.0201238953 -0.163090438 0.000624925073 -0.014689167 -0.169684559 0.00411573658 -0.0163766555 -0.0632108748 0.00292278361 -0.019652959 -0.0682895184 -0.0108603407 -0.0184498206 0.00886488147 -0.0126811424 -0.0182527974 -0.00684712688 -0.00666726148 -0.0180675145 0.000460705953 -0.00956521183 -0.0146749103 -0.0156438425 0.00166634761 -0.0182705894 -0.0256777275 0.00382217159 -0.0182043351 -0.00535490038 0.000442756456 -0.00752995582 -0.175230876 0.00329557527 -0.00953655597 -0.0626549572 0.00431819353 -0.00843247864 -0.0543751642 0.000661888509 -0.015581686 -0.031176161 -0.0171937533 -0.0147877028 -0.00398522522 -0.0136813633 0.0169852283 -0.010087519 -0.0155917332 -0.0154023441 0.00770278182 0.00233268132 -0.0182847679 0.00564267719 0.00185065961 -0.0170100648 0.029729208 -0.0106598502 0.0235369131 -0.402072817 -0.00619580643 0.0230548196 -0.410092443 -0.0145063158 0.0158818979 -0.405291647 -0.00420378288 0.0155804567 -0.414563626 -3.21817679e-05 0.0242419709 -0.402746737 -0.00195077574 0.0243154168 -0.398301214 -0.0145318704 0.014501866 -0.396673262 -0.0114226211 0.0179322045 -0.37339139 -0.00173884747 0.0155422175 -0.401853383 -0.000227401339 0.0153409066 -0.39719674 -0.00841953326 0.0217877608 -0.366684258 -0.00198845658 0.0234874934 -0.335844636 -0.00683580898 0.0173189379 -0.332213461 -0.00418164814 0.0151425805 -0.298442602 -0.00185015623 0.0192127563 -0.303895205 -0.00225551473 0.0153040513 -0.267761976 0.000636631448 0.0182673577 -0.276635945 -0.054606799 0.0139658768 -0.132490411 -0.0452661067 0.0160175674 -0.136572927 -0.0480766632 0.0129439831 -0.14465031 -0.0499778055 0.0160657726 -0.122959755 -0.0564089753 0.0119002555 -0.101841047 -0.0504056551 0.0122331753 -0.115049213 -0.0540261157 0.0145250782 -0.0974889919 -0.0498578139 0.0160637982 -0.107040629 -0.0484308004 0.0132235205 -0.0863121524 -0.0443512015 0.0153911728 -0.0928563029 -0.0497200191 0.0341557078 -0.124196775 -0.0535438918 0.0346755721 -0.0973791257 -0.0497278385 0.0340575725 -0.10615848 -0.0412719175 0.0125823738 -0.145605609 -0.0337169953 -0.0397420153 -0.0734245926 -0.0281575769 0.0152478088 -0.158570275 -0.029495867 0.0134198898 -0.159303293 -0.0337301642 0.0159283951 -0.147605628 0.0158907268 -0.0399838537 -0.0745610669 0.00581768528 -0.0393641852 -0.0713504553 -0.0414832234 0.011742332 -0.0841708407 -0.0329797007 0.0155426431 -0.0816854388 0.0115618436 0.0146596823 0.0437652618 -0.0138827851 0.0145914927 0.0107788071 -0.0454771854 0.035234075 -0.135982469 -0.0334586203 0.034668386 -0.147412062 -0.0439624414 0.0350402966 -0.0930890739 -0.0330335796 0.0350093804 -0.082424663 -0.0534542762 0.0346188694 -0.132828683 -0.00888900924 0.0117853489 -0.163491338 -0.0129340375 0.00720731169 -0.168029711 -0.0199952424 0.0163876005 -0.155487671 -0.020853024 0.0105074728 -0.066411078 -0.00983490888 0.00786892511 -0.0605104193 -0.0194053333 0.0349959359 -0.0752721429 -0.0281314235 0.0344120152 -0.0719970465 -0.0193708315 0.0351593867 -0.154681981 -0.0278269909 0.0341314413 -0.158550933 -0.00195497554 0.0182541516 -0.0195150636 -0.000665110012 0.0151414303 -0.027562134 0.000160408323 0.0085031027 -0.173298538 0.000236199223 0.0160738528 -0.168458059 -0.00956490636 0.015019726 -0.0686129257 0.00316340057 0.00948337093 -0.062591657 0.00427057128 0.0165993944 -0.0636037886 -0.0174577069 0.0168943275 -0.000710422115 -0.00563355815 0.0182256121 -0.00231174496 -0.000227554818 0.0351357237 -0.154709548 -0.0043731858 0.0184388217 0.0165242329 -0.00223114667 0.0179594215 0.00564263295 0.00665985793 0.0181807391 0.000493124069 0.00417048857 0.017626686 0.0321738832 0.043972224 -0.023942966 -0.341011554 -0.00208280678 0.0134218903 -0.380616814 0.0225116201 -0.013955906 -0.377190113 -0.00248334464 -0.0143843144 -0.381670296 0.0355751775 -0.0283081904 -0.095930025 0.0353498235 -0.0396284014 -0.129269525 0.0357942171 -0.0283011477 -0.133750781 0.0346334167 0.0283545703 -0.132669717 0.0306111444 0.028291354 -0.106174678 0.034589462 0.0284164976 -0.0973362699 0.0492667332 -0.0209618323 -0.403470606 0.0430498645 -0.024362186 -0.405691922 0.0422506146 -0.0210267846 -0.412354439 0.0425302647 -0.0153382234 -0.413713157 0.0500619523 -0.0154029801 -0.405515254 0.0479125455 -0.0208214261 -0.318456918 0.049137 -0.0165714771 -0.292701483 0.0457304828 -0.0183663946 -0.283512861 0.0331847295 0.0346825346 -0.0975259021 0.0397769995 -0.0139821926 -0.374873221 0.00257311086 0.0239808261 -0.400044709 0.0432990827 0.0241173096 -0.408741713 0.0507307127 -0.0154455965 -0.378134936 0.00500686979 -0.0216301233 -0.0437938198 0.0132932225 -0.0397200063 -0.156893417 0.00832695141 -0.0408230498 -0.140068591 0.0100994129 -0.0475967117 -0.134700343 0.0136581333 -0.041878745 -0.131992385 0.0197429154 -0.0405232124 -0.12181098 0.0167487431 -0.0476563834 -0.124326102 0.0100035332 -0.0407767594 -0.0931173787 0.00829145685 -0.0477002189 -0.0934750587 0.0171899442 -0.0475590974 -0.105677411 0.0181708355 -0.0405584052 -0.105548657 0.0452050306 0.0143198632 -0.379094243 0.0207256991 -0.0299163312 -0.0771201029 0.00527452864 -0.025724465 -0.0686325282 0.00139778026 -0.0222343672 -0.183348134 -0.000267542695 -0.0153332446 -0.214537472 0.00239107618 -0.0183662605 -0.210755557 0.00359659805 -0.0214769822 -0.195095837 0.0473306291 -0.0261500757 -0.17047973 0.00283781136 -0.0269979164 -0.1622518 0.00839318894 -0.0276761651 -0.0677914619 0.0250551347 -0.039790649 -0.147925109 0.0305583943 -0.0391015112 -0.0982214361 0.0309859551 -0.0400043502 -0.0901575759 0.02970393 -0.0276872572 -0.0832383931 0.035575334 -0.0389924757 -0.100169398 0.0448174402 -0.0188018568 -0.210063726 0.048995357 -0.0164443646 -0.208140582 0.0490116626 -0.01600172 -0.0338239782 0.0456807502 -0.0187384747 -0.0320499763 0.0466433279 -0.0231891088 -0.0486492291 0.0480959341 -0.0263630152 -0.0617959052 0.0483361222 -0.0166546758 0.00152383663 0.0166872796 -0.0179937314 0.0446168631 0.0290949792 -0.018419398 0.0372723825 0.0129144853 -0.0149695026 0.0450398289 0.0290191844 -0.0149412621 0.0432727672 0.022765046 -0.0138368942 0.0469306186 0.0203239061 0.0143644903 -0.377997398 -0.0059473305 0.0143121546 -0.389961988 0.00299536996 0.0153765967 -0.399939418 0.0498775207 0.0153406532 -0.406616926 0.0407699198 0.0156123051 -0.414545894 0.0496565886 0.0205559283 -0.40271011 0.0505056977 0.0151312156 -0.378196537 0.049741514 0.0163495149 -0.323733419 0.0479203276 0.0214487426 -0.34856692 0.0467515029 0.0183365606 -0.291362315 0.000871199009 0.0182789527 -0.00584247755 0.00437016739 0.00886822958 -0.0542011708 0.00278656813 0.0183491968 -0.21420081 -0.000225370575 0.0153718824 -0.214214355 0.00331647927 0.0249210391 -0.179429784 0.00160616916 0.0244982913 -0.156390324 -5.18439629e-05 0.0168401618 -0.155943066 0.00773234572 0.0283553433 -0.159465089 0.00529965898 0.0259799566 -0.0712084249 0.0106539084 0.0276488047 -0.0710323527 0.00808993727 0.0336395688 -0.0719242394 0.0134895332 0.0283793099 -0.0813654885 0.00381881953 0.0193689372 -0.0351005048 0.00742774084 0.0252414923 -0.0556617491 0.00800622255 0.0344708115 -0.157933995 0.0126585765 0.0351234861 -0.14745982 0.0142423138 0.0283166226 -0.147847906 0.0221251082 0.034389358 -0.091777429 0.00906217285 0.0353545658 -0.0773485601 -0.000565487891 0.0342463888 -0.0752024055 0.0332781859 -0.038871713 -0.135001704 0.0231395364 0.0350932777 -0.137193948 0.0249785334 0.0280819517 -0.137728006 0.0320383497 0.0347280055 -0.132377014 0.0305981319 0.0282604285 -0.123847015 0.029403355 0.0353135988 -0.104200482 0.0244043563 0.0284673981 -0.0922220051 0.0453523993 0.0265548527 -0.171082094 0.0486231335 0.0244218837 -0.172234327 0.0471430272 0.0222656131 -0.190060169 0.0462791026 0.0186424181 -0.0311121196 0.0488432832 0.0241262503 -0.0615673549 0.0456676371 0.0262751766 -0.0599496476 0.0439286493 0.0183474906 0.00844264589 0.0490560643 0.0152451172 -0.207434565 0.0462747887 0.0185729563 -0.210844845 0.0490911044 0.0154447332 -0.0353794098 0.0394051522 0.0140554067 -0.374530315 0.0185062755 0.0170790646 0.0469470359 0.0278614406 0.0169275757 0.0442397222 0.0350442603 0.0168159213 0.0309142563 0.0435476564 0.0239904039 -0.341676503</float_array>
          <technique_common>
            <accessor source="#positions_array" count="276" stride="3">
              <param name="X" type="float" />
              <param name="Y" type="float" />
              <param name="Z" type="float" />
            </accessor>
          </technique_common>
        </source>
        <source id="normals">
          <float_array id="normals_array" count="1719">-0.833860397 -0.259454966 -0.487196028 -0.809669733 -0.305403233 -0.501162469 -0.817042232 -0.291953772 -0.497197092 -0.786156952 -0.345577687 -0.512380064 0.0200031698 -0.999140918 0.0362939127 -0.0233683884 -0.83577317 -0.548577368 -0.00988415815 -0.999941051 -0.00448817573 0.740072072 0.232561767 0.631037533 0.650222659 0.159643397 0.742781579 0.503075957 0.0552438907 0.86247474 -0.966401637 -0.231972724 0.110709123 -0.941871047 0.30991748 0.129730776 -0.863604307 0.485872805 0.134592846 -0.91425699 -0.39168486 0.103523351 -0.911920846 -0.396979213 0.103960849 -0.282228589 -0.958870173 0.0302488226 -0.673077285 -0.734902203 0.0829797834 -0.43921265 -0.897140503 0.0472350381 0.721720576 0.411268681 -0.556756258 -0.0133296056 -0.999584794 -0.0255450606 -0.212733179 -0.974841177 0.0665527061 0.31344375 0.0415094495 -0.948699117 0.434634835 -0.0348861516 -0.899930835 0.608415365 -0.155968666 -0.778141677 -0.949408054 -0.298852116 0.0964976624 -0.698544204 -0.0461947881 -0.714074194 -0.646091521 -0.0167784002 -0.763075471 -0.47254011 -0.192086861 -0.860121191 -0.41964063 -0.90454793 0.0754636824 -0.285660803 -0.956993759 0.0506048836 -0.708774984 -0.704935431 0.0265353806 0.113052852 0.991671205 -0.0617030822 0.0178797822 0.998791933 -0.0457714982 0.0415658094 0.996364415 -0.0743654668 -0.922351182 -0.0410115905 0.384169728 -0.98603791 -0.0291762911 0.163945213 -0.857287109 -0.0271569714 0.51412189 -0.979027212 0.00590345729 -0.203643948 -0.873332322 -0.00839954894 -0.4870525 -0.979034603 -0.00953420158 -0.203470662 -0.976885498 -0.00747698871 0.213632479 -0.875935376 0.0174897406 -0.482111305 -0.83793509 0.0228605624 -0.545290947 -0.843442678 0.012164237 0.53708142 -0.902535081 0.0233436339 0.429983109 -0.453183442 -0.454189926 -0.767030835 -0.934453249 -0.230155319 -0.271708757 -0.715857625 -0.175396234 -0.675857961 -0.781267703 -0.177358642 -0.598468661 -0.900752962 -0.421303004 0.10558372 -0.920568943 -0.296266109 -0.254517615 -0.862318695 -0.229288921 0.45147872 -0.493629515 0.862617433 0.110548854 -0.729585111 -0.232829466 0.643036544 0.923490942 -0.0386705659 0.381666154 0.871767461 0.436410695 0.222637013 0.883523881 0.0123521322 0.468223184 0.496420145 -0.279689252 -0.821791291 0.538218081 -0.487285972 -0.687658072 0.699052155 -0.0973866358 -0.708408058 -0.00296817045 -0.999880672 -0.0151592903 -0.0030047663 -0.954786897 0.297275871 -0.0407860726 -0.998148024 -0.0451327115 -0.440450698 0.00259291963 0.897773087 -0.601912618 0.0346455649 0.797810078 -0.692082942 -0.00538809877 0.721797884 -0.205380782 -0.0886173248 -0.974661827 -0.597385287 -0.122574344 -0.79253161 -0.608295321 -0.156503603 -0.778128147 0.884055257 -0.113557763 -0.453377277 -0.586291492 -0.221079066 0.779349923 -0.580943704 -0.179873571 0.793819785 -0.593487263 -0.165669292 0.787608147 -0.353305161 -0.0517529026 0.934075534 -0.171732232 -0.0229977947 0.984875202 -0.0198305584 0.00501442607 0.999790788 -0.0105085848 -0.711362779 -0.702746391 -0.123646878 -0.561847806 0.817947745 -0.0860709772 -0.644945145 0.759366572 -0.0924029872 -0.649344802 0.754859626 -0.336242557 0.432552606 0.836563885 -0.0919962227 0.987581611 0.127354667 0.0182407517 0.729535162 0.683699965 0.00664447993 0.0167742372 -0.99983722 0.0219056178 -0.0423388183 -0.998863161 -0.0806658417 0.351869404 -0.932566881 -0.106810905 0.451093286 -0.886062264 -0.127408788 -0.720875978 -0.68125236 0.259030402 0.640156269 -0.723258734 0.28625384 0.563771307 -0.774739087 0.265551388 0.622982681 -0.735781968 0.00106406887 -0.0263198819 0.999652982 0.0020269528 -0.0242507495 0.999703825 -0.000278461259 -0.0292045865 0.99957341 0.159053013 -0.0730244815 0.984565675 -0.000952413364 -0.0306526013 0.99952966 -0.0722723603 -0.0451169908 -0.996363997 0.0444277972 -0.086526975 -0.995258391 -0.67012012 -0.4768444 -0.568821967 -0.674691141 -0.472862214 -0.566739082 -0.681245446 -0.467075318 -0.563689053 -0.385005176 -0.731708467 0.562471151 -0.336906791 -0.928814411 0.154264718 0.0142983878 -0.999885261 0.00500396499 0.0209679287 -0.99971205 -0.0116698183 -0.690416694 -0.551052213 -0.468685627 -0.774879515 -0.32713303 -0.540874958 -0.635902226 -0.723946154 -0.267451674 0.00147199526 -0.999975443 0.00685548363 -0.467242986 -0.883199215 0.04053583 -0.439587951 -0.253608465 -0.861652553 -0.403117746 -0.566851139 -0.718453765 -0.469269902 -0.0777000859 -0.879629731 -0.255901217 -0.280816138 0.925017238 -0.321084619 -0.114900962 0.940054476 -0.111337826 -0.983169079 0.1448531 -0.908648789 -0.279778779 -0.309969753 -0.954861283 -0.11676687 -0.273139834 -0.868748724 0.0121496795 -0.495104045 -0.577378452 -0.814795673 0.0523651242 -0.584775388 -0.809146225 0.0576207563 -0.84339124 -0.439415008 0.309201717 0.0103468448 -0.999893844 -0.0102596385 -0.600313425 -0.648014545 0.468722731 -0.57984376 0.806488037 -0.115577884 -0.684459031 0.374265641 -0.625652492 -0.84375757 0.452291697 -0.288973004 -0.641624868 0.2605474 -0.721410096 -0.0327905156 0.996729732 -0.0738556311 -0.0494805351 0.991690457 -0.118750401 -0.0566419177 0.998231471 -0.0180458352 -0.959932208 0.26682964 0.0856278464 -0.955234468 0.276643366 0.104859844 0.943026006 0.144187286 -0.299853325 -0.740500689 0.665857315 0.0910642669 -0.390642792 0.915170074 0.0993074998 -0.931662202 0.347882003 0.104803078 -0.956002474 0.28544417 0.0676824376 -0.796233177 0.598259747 0.0899887756 -0.914312124 0.402496547 0.0450539701 -0.596526325 0.799312174 0.0725006536 -0.308156043 0.919833601 -0.242787883 -0.262644827 0.909645915 -0.321810424 -0.0762657374 0.971583903 -0.224071965 -0.466967434 0.883691728 0.0320990533 0.709385574 0.618480027 0.338015556 -0.626666665 0.757495582 -0.183001012 -0.607449353 0.782084882 -0.139098972 -0.653412402 0.71399045 -0.251535088 -0.664892614 0.69051224 -0.284799218 -0.814402401 0.0186321866 0.580001354 -0.970062613 0.0152605688 0.242375121 -0.889979124 0.0580165386 0.452295572 -0.0282164738 0.954019129 0.298414707 -0.170865268 0.93380934 0.314332932 -0.18374525 0.961580276 0.20396325 -0.99920249 0.0372509621 0.0143798031 -0.974689364 0.0375209115 0.220392495 -0.984861434 0.0257565621 0.171419337 -0.916648805 0.0255173352 -0.398878276 -0.976658106 0.0175497774 -0.214081749 -0.985490024 0.0300751999 -0.167047679 -0.200487658 0.954329908 -0.221492842 -0.0691338703 0.993370652 0.0918437615 -0.490457356 -0.0192335043 0.871252894 -0.432691276 0.590110958 -0.681577086 -0.251440406 0.513171613 -0.820629418 -0.303965658 0.573036969 -0.761073947 -0.307610989 0.944288611 -0.117023356 -0.45450145 0.827748001 -0.329031408 -0.00126791769 -0.99667877 0.0814237744 0.00986842997 -0.998198986 0.0591721274 -0.0100889886 -0.996794641 0.0793643296 0.277741611 0.924297571 -0.261789292 -0.334540039 0.883121312 0.328906864 -0.341177404 0.939659238 0.0252676588 -0.363282025 0.920470715 0.144082844 -0.612925291 0.33299616 0.716544628 -0.800790012 0.396739393 0.448701739 -0.906533778 0.0470959321 0.419497877 -0.544887424 0.013262908 -0.838404298 -0.538589239 0.0207335725 -0.842313349 -0.804033697 0.0165106039 -0.594354451 -0.79945296 0.0177863725 -0.600465357 -0.568716705 0.0170281194 0.822357178 -0.570136786 0.0210092962 0.821281135 -0.820787907 0.0185893103 0.570930541 -0.811557889 0.0225988757 0.583834767 -0.375758231 0.92533493 -0.0506066643 -0.0380129963 0.999235928 0.00908825547 -0.0475571007 0.996122003 0.074022457 -0.406728625 0.503158867 -0.762497842 -0.17521064 0.766876936 -0.617414713 0.0453668945 0.89191854 -0.449914604 -0.273163229 0.954687357 0.118126832 -0.363170743 0.231791154 0.902429998 -0.432054549 -0.0127685694 0.901757061 -0.908507526 0.0161440484 0.417556494 0.169005528 0.0137149571 0.985519648 0.351361513 0.000460139243 0.936239779 0.335997283 0.00866465457 0.941823125 0.167549953 0.0295801871 0.985419691 -0.120015211 0.978716373 -0.166465074 -0.024675047 0.999204397 -0.0313322544 -0.080234915 0.992846131 -0.0884249583 -0.038466353 0.996428907 0.0751648322 -0.0163482279 0.998820364 0.0457230881 -0.00808460079 0.999817908 0.0172846615 -0.176437378 0.973645389 -0.144514695 -0.400060356 0.831371129 -0.385711998 -0.151094645 0.986724973 -0.059533868 -0.488155216 0.586168408 -0.646615088 -0.574333131 0.386043966 -0.721880555 -0.53041774 0.165794626 -0.831365883 -0.0959225819 0.835502684 0.541049123 -0.221819043 0.772477567 0.595041811 -0.353168815 0.185377851 0.917009711 -0.0505603515 0.917036355 0.395585626 -0.997986138 0.0227929857 -0.0591961108 -0.879141688 0.178714782 -0.44178158 -0.0569797941 0.998372078 0.00253735273 0.477826178 0.0507656597 0.876986325 0.484736383 0.052887205 0.873059869 0.483605444 0.052539546 0.873707831 -0.216586009 0.0934946239 -0.971776366 0.196505636 0.0277132019 -0.980110943 0.197407469 0.03548171 -0.979679227 -0.162401527 0.986106515 0.034924496 -0.265077204 0.950505197 0.162092552 -0.447235286 0.026666915 -0.89401871 0.0380468406 0.998608947 -0.03650501 -0.0996204615 0.994995773 -0.00769278454 -0.00641333964 0.99996525 -0.00533102918 -0.706509948 0.446920127 0.548731327 -0.919400632 -0.1261262 0.372551501 0.290462524 -0.955840111 0.0447352715 0.917284071 -0.0562425181 -0.394241959 0.157571062 0.020795675 -0.987288654 0.144558698 0.00601931894 -0.989477932 0.175749928 0.0347420536 -0.98382163 0.945259809 -0.0524199121 0.322080821 0.987837374 -0.0854808465 -0.129885674 0.946363866 -0.0939633623 -0.30913797 0.0956225023 0.995303273 -0.0150891505 -0.0274554025 0.999621451 -0.00178316399 0.117907859 0.992904067 0.0154671399 0.636341572 -0.708147287 -0.305935979 0.277266055 -0.929347754 -0.243795678 0.333745956 -0.560921729 -0.75761497 0.721611202 -0.19419241 -0.664504766 0.739314198 -0.284938306 -0.610102177 0.582849264 -0.812510788 0.0106261848 -0.917680442 0.0241235495 -0.39658621 0.905680716 -0.421249539 0.047867287 0.254039377 -0.966860354 0.0253976826 0.929583549 -0.368228585 0.0167968031 0.975816548 0.162386402 -0.146330684 0.876722693 0.22340028 -0.425969124 0.894572496 0.18828018 -0.405327857 0.140536919 0.00717038196 -0.990049481 -0.0482066572 0.976423681 -0.210411325 0.179218009 0.983762264 -0.00962693151 0.985113084 -0.170770198 -0.0197421648 0.978140056 -0.207486212 0.0138399601 0.988332152 -0.150351331 -0.0243739318 -0.992390096 -0.0703139529 -0.101083465 0.371845365 -0.108435795 -0.921939611 0.441244006 -0.0497244075 -0.896008492 0.146063253 -0.518768668 -0.842344701 0.292518467 0.544272125 -0.786257505 -0.5378111 0.655997634 -0.529552877 0.780823171 -0.262073845 -0.567126513 0.723627746 -0.30235678 -0.62043798 0.761873305 -0.251534432 -0.596891582 0.843156815 -0.034771204 -0.536542177 0.943917811 -0.273771942 -0.184575483 0.901570499 -0.283195406 -0.327064276 0.695568264 -0.196014017 0.69120419 0.664589882 -0.201515764 0.719521821 0.927986801 -0.187074512 0.322247684 0.936426878 -0.137145549 0.322948575 0.551378429 -0.20835115 0.807819068 0.548408449 -0.197890148 0.8124578 -0.221784726 -0.0109221544 -0.975034475 -0.241044924 -0.0759292394 -0.967539191 -0.34575507 -0.0732061639 -0.93546474 0.615222633 -0.0963790491 0.782439888 0.283950031 -0.0782742426 0.955638826 0.396956891 -0.1158363 0.910498321 0.465839177 0.00120111718 0.884868622 -0.458245903 -0.877067327 -0.144095734 -0.743391752 -0.668752313 -0.0117938705 -0.383129656 -0.918214202 -0.100470409 -0.230995744 -0.957999706 -0.169933945 0.0506179184 -0.990729332 -0.126068413 -0.181390226 -0.970012724 -0.161780402 0.235501975 -0.0820905939 -0.968400717 0.261461496 -0.0749292895 -0.962301135 -0.993552625 -0.11023023 0.0265051275 -0.989164233 -0.144833446 0.0240286049 -0.986879587 -0.158333048 0.0316125192 -0.686588645 -0.462289065 -0.561146021 -0.269072711 -0.951063633 -0.151913807 -0.242082179 -0.961671352 -0.128780574 -0.312564403 -0.949320078 -0.0330886096 -0.522022605 -0.851932824 -0.0412662923 -0.423271537 -0.831450582 -0.359904289 -0.986050189 -0.13433978 0.0982740596 -0.837419629 -0.348169118 0.421315312 -0.961630046 -0.216752887 0.168183997 -0.998626292 -0.0369646214 0.0371362083 -0.0217057001 -0.976082683 0.216313213 -0.999638379 -0.0114748357 0.0243183989 -0.981929362 -0.128992513 0.138476402 0.72083497 -0.075814113 -0.688947916 0.0786832273 -0.996117532 -0.0394822657 0.0599606633 -0.997613549 -0.0342325941 0.0714202449 -0.997435272 0.0046916767 0.817052245 -0.0800486803 0.570979714 0.371378481 -0.90301156 0.215981811 0.138242289 -0.990050256 0.0262587816 0.166425303 -0.978897214 0.118587129 0.581072927 -0.139807716 0.801753104 -0.425464779 0.0146446694 0.904856503 0.0476435199 -0.998861074 0.00257706293 0.985282421 -0.0630302504 0.158888936 0.0371481627 -0.99734813 -0.0625839829 0.181855828 0.0148955928 0.983212352 0.262364507 -0.961007535 -0.0873466134 0.526787221 -0.842660844 -0.111435667 0.908560932 -0.137737468 0.394392401 0.668826163 -0.730999291 0.135320157 0.353023022 -0.927411675 0.123621725 0.652223885 -0.717756748 0.243781179 0.648724437 -0.720310926 0.245578542 0.345735788 -0.93782419 0.0308628026 -0.891580939 0.0170276407 -0.452541083 -0.890954256 0.0160624068 -0.453808963 -0.0371784195 -0.54467535 -0.837822497 -0.00402097171 -0.232127026 -0.972677171 -0.0965224728 -0.941087306 0.324095845 0.328048229 -0.908427894 0.259119987 -0.52186358 -0.321582109 0.79009074 -0.49902612 -0.0628378689 -0.864305675 -0.986251295 0.098271735 -0.132857203 0.363101631 -0.783214092 0.504710734 0.138331741 -0.0525686406 0.98898983 -0.144450948 -0.3115592 0.939183056 0.249189943 -0.722995698 0.64434582 0.670001626 -0.61850208 0.410552114 0.672002614 -0.61378932 0.41433692 0.00501967967 -0.998501539 -0.0544933081 0.0554343425 -0.991538405 -0.117382176 0.0526656844 -0.993838072 -0.0975302979 -0.605434597 0.141502708 0.783215165 -0.694202304 0.206979871 0.689378321 -0.469881892 0.0512190796 0.881242096 -0.375026226 -0.00706029683 0.92698729 -0.565554678 -0.0870152116 -0.82010746 -0.446816564 -0.146105289 -0.882614434 -0.647296131 -0.0410803929 -0.76113081 -0.365294695 -0.182488397 -0.912829518 0.672693133 0.345847666 -0.654120266 0.69126147 0.367499083 -0.622175217 0.631416559 0.300173342 -0.714988828 0.736865461 0.425033718 -0.525714397 0.841883063 0.539564013 -0.0101782028 0.991934896 0.12638846 0.00954593066 0.998053968 0.0584849305 -0.0216291118 0.961208224 0.274190962 0.0299671926 0.735814691 0.676922202 0.0187883824 0.644435048 0.764533937 0.0138297919 0.476126939 0.0502449609 0.877939999 -0.121957734 0.992246509 0.0239409283 -0.108849287 0.990133584 0.0882459283 0.499130487 0.0628488958 -0.86424464 -0.701370358 0.710844874 -0.0527176037 -0.92990005 0.36769855 -0.00914980471 -0.488584131 0.862747729 -0.130199403 -0.860329986 0.508997917 -0.0274494626 -0.992402971 0.123007365 0.00236461125 -0.977170885 0.20949854 -0.0353183039 -0.20038113 0.976965725 -0.0733853355 -0.418640375 0.138076156 -0.897594154 -0.482518107 0.0549447127 -0.874160945 -0.973448813 0.207937673 0.0957042128 -0.956558883 0.239594102 0.166101784 -0.94829452 0.256062746 0.187534869 -0.416006207 0.0674010962 0.906860471 -0.0692984536 0.117820561 0.990613997 -0.241247386 0.177053347 0.954176009 0.872654736 0.404369056 0.273787141 0.870610237 0.41252017 0.26807633 0.80003202 0.209549665 0.562172353 -0.963225126 0.121794522 -0.239506558 -0.99991715 0.0127971387 0.00137741654 -0.941478074 0.336989284 0.00756886415 -0.0318881199 0.976534605 0.212986514 -0.0901756287 0.990364015 0.105106756 -0.299042016 0.950349927 0.0860751793 -0.868980467 0.39846763 -0.293422014 -0.336663812 0.242851362 -0.909769595 0.00947632268 0.999814749 -0.0167527869 0.0477804355 0.995382607 -0.083249256 0.0130025921 0.999685884 -0.0214251932 0.876360416 0.126228571 -0.46482116 0.786598086 0.199295491 -0.584418297 0.869476318 0.0829774365 -0.486955523 0.801470101 0.218221352 -0.556798935 0.986232996 -0.0173163135 0.164452627 0.613543808 0.155708209 0.774156928 0.858083189 0.308039039 0.410859138 -0.21052514 0.0828331336 0.974072814 0.0177596584 0.853692353 0.520474792 -0.0443808325 0.9547984 0.293922275 -0.00548781222 0.991833329 0.127422631 0.0245916918 -0.989711761 0.14094618 0.144750044 -0.989395916 -0.0119626299 0.878971934 -0.155881807 -0.450676382 0.584542036 0.214420944 -0.78251791 0.555531979 0.207050696 -0.805303812 0.470502228 0.230688646 -0.85171026 0.462899357 0.211635813 -0.86077553 0.996333361 -0.0780236199 0.0351022966 0.97599715 -0.217783138 -0.000337512698 0.331390083 0.906504691 0.261591077 0.0174204223 0.996285915 0.0843265057 0.0206737779 0.99932611 0.0303309411 0.448840082 0.121427357 0.885323644 0.552957594 0.155173525 0.818632424 0.445625991 0.126720935 0.886204958 0.279563457 0.955555499 -0.0935839638 0.540058672 0.836981535 -0.0883091614 0.603040636 0.780679107 -0.163957775 0.448286742 0.887588859 0.105948143 0.878375471 0.476080596 0.0424705185 0.315723985 0.937599838 0.145687908 0.312024385 0.943814397 0.108881563 0.806261361 0.58448118 -0.0912380517 0.786424994 0.616397202 -0.0398773663 -0.217876002 0.0465174802 0.974867284 0.963361681 0.260729194 0.0628848895 0.108796716 -0.739177048 -0.664665699 -0.0447963364 0.0251845438 0.998678625 -0.478652954 0.727575302 0.491452456 0.48899895 0.623425007 0.610099375 0.73095727 0.00956097152 0.682356298 0.0210105255 0.999640346 0.0166667812 0.010235792 0.999069929 0.0418868251 0.661376119 0.663129807 0.350486189 0.0383330956 -0.997276008 -0.0630172417 -0.0484480783 -0.996815383 -0.0633389056 -0.114989348 -0.98301059 0.143065304 -0.915143609 0.0576031618 0.398991317 -0.0655411482 -0.994953752 0.07596948 -0.0386679433 -0.999060452 0.0195710454 0.00296914997 -0.996826231 0.0795531645 -0.0895428434 0.0661426708 -0.993784308 0.0122917062 -0.994379461 0.105159022 -0.419548601 0.00851890445 -0.907692909 -0.501134932 -7.48152816e-05 -0.865369141 0.00532378582 0.986736357 0.162243709 0.0105209174 -0.999943852 -0.00127440633 0.00202924199 -0.999986649 -0.00475752307 0.00262004719 -0.999819398 0.0188245457 -0.0177660827 -0.999826312 0.00563635258 -0.00240811799 -0.999919236 -0.0124780377 0.000367847417 -0.99999994 6.75531119e-05 0.000361602491 -0.999999106 0.00130509504 -0.00735432329 -0.999970138 -0.00236366899 0.00233276794 -0.998971045 0.0452924669 -0.00914259534 -0.999859512 0.0140508376 -0.029088581 -0.997790158 -0.0597382821 -0.0445398614 -0.999006093 -0.0017283092 0.0302472394 -0.99176085 -0.124480858 -0.00249904976 -0.996017635 -0.0891211331 -0.000359443831 -0.999227941 -0.0392865576 -0.0153471883 -0.99986881 -0.00518126274 -0.00269368826 -0.999472082 -0.0323776379 -0.00371747231 -0.999946892 -0.00961357355 -0.0357258618 -0.998890638 -0.030678574 -0.0285508409 -0.998797059 -0.0398662314 -0.00102888944 -0.998599827 -0.0528901815 -0.0694390386 -0.997302055 -0.0238078572 -0.0311857034 -0.999203384 0.0248999409 -0.95744282 0.0360273495 -0.286365718 -0.779839516 -0.0851108134 -0.620166481 -0.0240502488 0.99780798 -0.0616506562 -0.426558018 -0.017153535 0.904297531 -0.412684053 -0.0158851612 0.910735726 0.64074856 0.00260845316 -0.767746329 0.616036177 0.0142888287 -0.787588239 0.793211877 0.00684692711 -0.608907282 0.0425339751 -0.999086678 0.00408126786 -0.401844293 0.00742673595 -0.915677905 -0.379010439 0.0193930417 -0.925189197 -0.0293802302 -0.994466543 0.100861751 -0.01413038 -0.997932255 0.062702015 -0.0438586064 -0.998238087 0.0399640203 0.00353232166 -0.996379316 -0.0849456117 -0.0579884499 -0.998304248 -0.00509877456 -0.0687745064 -0.997617364 0.00544435345 -0.0470719039 -0.998007417 0.042017445 -0.0249988139 -0.999241412 -0.0298599117 0.0264627226 -0.997067511 -0.0718060359 0.0405443981 -0.996801853 -0.0688639209 0.0629522353 -0.997764051 -0.0224488024 0.0296802819 -0.99924165 0.025204448 -0.998862803 0.000353655952 0.0476759113 -0.999910057 -0.00301107112 0.01306972 -0.999668062 -0.0148959998 0.021021951 0.810363173 0.00017852927 -0.585927844 0.353940308 -0.00523835374 -0.935253322 0.397498786 0.0170618407 -0.91744405 -0.904282391 0.0219335482 0.426371008 0.999961078 -0.00326885935 0.00819251034 0.99997896 -0.000393325579 0.00647236453 0.999924779 -0.0113051469 0.00475811027 0.99978745 -0.0167318229 -0.0120463641 0.999991238 -0.00417247368 -0.000326574896 -0.418790877 -0.00787414052 0.90804857 0.925249279 0.00104472064 -0.379358262 0.92437315 0.00187263417 -0.381484985 -0.172031164 -0.985076547 -0.00543400925 -0.380104691 0.104074404 -0.919069588 -0.0153456097 0.997305393 -0.0717386454 0.0102370679 0.990753591 -0.135286942 0.00994055998 0.99941957 -0.0325832553 0.0414269194 0.998935759 -0.0202762298 0.0261519719 0.997929871 0.0587536655 0.0325146317 0.998393774 0.0463967659 0.0179064199 0.999233484 -0.0348114744 -0.027102014 0.999631166 -0.00172903365 0.00202732114 0.996232033 0.0867044479 0.279283255 0.958595395 0.0556392632 -0.00410182308 0.998672426 0.0513470806 0.0028377315 0.999903679 0.0135849239 0.0290733874 0.998159289 -0.0532235503 0.0122764129 0.998934329 -0.0444919206 0.0406608284 0.955506861 -0.292152852 0.0512667447 0.997799993 -0.0420351289 0.0382574387 0.999172151 -0.0138346916 0.0068404125 0.999557674 0.028942138 0.0429844782 0.984045565 -0.172646165 0.946999669 0.226827696 -0.227466196 -0.00532555301 -0.969095886 0.246626943 0.167109638 -0.00075667561 -0.985938013 -0.0045966031 -0.997960567 -0.0636678115 0.05822419 -0.997815907 -0.0311994292 0.0117587047 -0.999379814 -0.0331915542 0.0493923686 -0.99633038 -0.0699007586 0.153059602 -0.988159418 -0.0106651066 0.00176605501 -0.997766376 0.0667768419 -0.408800006 0.00480741961 0.912611306 0.0108377067 0.521529078 -0.853164673 0.0123071037 0.515735745 -0.856659293 0.00165789586 0.557111025 -0.830436349 0.00706850411 0.994608223 -0.103462376 0.980485499 -0.196456298 -0.00728906691 0.00226579467 0.996063769 -0.088610746 -7.34208079e-05 0.563703954 -0.825976908 -0.618429184 0.00140897324 -0.78583926 0.38206923 -0.0218250435 0.923875928 0.144927874 0.0140219526 -0.989342868 -0.973005652 0.173097968 0.152633712 -0.737697244 -0.0506718345 0.673227429 -0.01475491 0.999884009 0.00377621246 0.0497093797 0.998633862 -0.0161058661 0.0214744508 0.999711573 -0.0107525373 0.856877208 0.330734193 0.395444512 0.708324432 -0.235038429 -0.665607572 -0.932143986 0.17252484 -0.318343699 -0.00561235799 0.99997437 0.00444360031</float_array>
          <technique_common>
            <accessor source="#normals_array" count="573" stride="3">
              <param name="X" type="float" />
              <param name="Y" type="float" />
              <param name="Z" type="float" />
            </accessor>
          </technique_common>
        </source>
        <vertices id="vertices">
          <input semantic="POSITION" source="#positions" />
        </vertices>
        <triangles material="scout_1a1a1a" count="560">
          <input semantic="VERTEX" source="#vertices" offset="0" />
          <input semantic="NORMAL" source="#normals" offset="1" />
          <p>0 0 1 1 2 2 1 1 3 3 2 2 4 4 3 5 5 6 6 7 7 8 5 9 8 10 9 11 0 12 8 10 0 13 2 14 3 15 10 16 2 17 11 18 3 18 4 18 11 19 12 20 3 15 7 21 13 22 4 23 8 10 2 14 10 16 8 10 10 16 14 24 10 16 3 15 12 20 15 25 16 26 17 27 12 20 18 28 10 16 14 24 10 16 18 28 19 29 20 30 18 28 21 31 13 32 7 33 14 24 18 28 20 30 22 34 23 35 24 36 25 37 26 38 27 39 22 34 28 40 23 35 25 37 29 41 30 42 31 43 32 44 28 40 15 25 17 27 33 45 34 46 35 47 36 48 37 49 34 46 38 50 34 46 36 48 38 50 37 49 38 50 39 51 37 52 40 52 34 52 40 53 37 49 39 51 41 54 42 55 43 56 44 57 45 58 46 59 30 42 16 26 15 25 47 60 48 61 49 62 29 41 16 26 30 42 50 63 51 64 52 65 33 45 17 27 47 66 35 47 53 67 54 68 53 69 55 69 54 69 40 53 39 51 56 70 57 71 40 53 56 70 57 71 56 70 58 72 50 63 59 73 60 74 61 75 50 63 60 74 62 76 63 76 64 76 61 77 65 78 50 79 66 80 67 81 68 82 69 83 70 84 54 85 55 86 69 83 54 85 53 87 69 87 55 87 53 88 71 89 69 90 57 91 58 92 72 93 73 94 61 75 60 74 74 95 57 91 72 93 63 96 75 97 47 66 63 98 76 99 75 100 77 101 61 101 78 101 79 102 80 103 81 104 80 105 82 106 83 107 84 108 81 104 80 103 63 109 62 109 76 109 85 110 76 111 62 112 86 113 65 78 61 77 86 113 61 77 77 114 87 115 65 115 86 115 82 106 88 116 83 107 89 117 82 106 80 105 89 117 90 118 82 106 79 102 89 119 80 120 79 102 91 121 89 119 79 102 81 104 92 122 91 121 79 102 93 123 94 124 95 125 96 126 95 125 97 127 96 126 94 124 98 128 95 129 99 130 98 128 94 124 94 124 96 126 100 131 101 132 94 124 100 131 102 133 99 133 103 133 104 134 94 124 101 132 94 124 105 135 99 130 104 134 105 135 94 124 106 136 104 134 101 132 106 136 105 135 104 134 107 137 108 138 106 136 105 135 106 136 108 138 108 138 107 137 109 139 109 139 110 140 108 138 111 141 112 142 113 143 114 144 111 144 115 144 115 145 116 145 114 145 115 146 117 147 118 148 118 148 116 149 115 146 119 150 115 151 32 44 119 150 117 152 115 151 119 153 120 154 117 155 116 156 121 157 114 158 122 159 123 160 118 161 124 162 16 163 113 143 125 164 50 63 52 65 16 165 126 166 127 167 124 162 126 168 16 163 124 162 128 169 126 168 112 142 124 162 113 143 112 142 128 169 124 162 74 170 129 171 130 172 51 173 131 173 119 173 119 153 131 174 120 154 51 175 132 176 131 174 131 174 132 176 120 154 91 121 133 177 134 178 121 157 111 179 114 158 112 180 135 181 128 182 135 181 136 183 128 182 137 184 120 185 132 186 138 187 137 184 132 186 121 188 135 189 139 190 127 167 140 191 141 192 126 166 140 191 127 167 142 193 140 193 126 193 51 175 66 194 132 176 51 64 143 195 66 80 143 195 51 64 144 196 66 197 138 187 132 186 145 198 146 199 66 200 145 198 66 200 68 201 136 202 147 203 148 204 146 205 145 206 138 207 149 208 150 209 90 210 140 191 151 211 141 192 152 212 151 211 140 191 142 213 152 212 140 191 66 80 143 195 153 214 153 214 143 195 154 215 155 216 153 214 154 215 144 217 154 215 143 195 156 218 90 118 89 117 82 106 90 118 150 219 121 188 122 220 135 189 157 221 81 222 84 223 158 224 142 225 147 226 156 227 159 228 90 210 85 110 62 112 141 229 134 178 159 228 156 227 159 228 160 230 157 231 159 228 161 232 160 230 162 233 159 228 134 178 13 234 6 234 5 234 18 28 12 20 163 235 160 236 81 236 157 236 164 237 165 238 166 239 167 240 168 241 169 242 170 243 171 244 172 245 173 246 174 247 175 248 176 249 177 250 175 248 178 251 163 235 173 246 118 161 117 252 122 159 179 253 180 254 178 255 171 256 181 257 172 258 164 237 182 259 165 238 183 260 184 261 98 128 177 250 173 246 175 248 173 262 185 263 178 255 185 263 179 253 178 255 177 264 185 263 173 262 88 116 150 219 186 265 49 266 44 57 187 267 188 268 71 268 53 268 69 90 71 89 70 269 71 270 188 270 70 270 189 271 70 272 188 273 188 273 190 274 189 271 191 275 190 274 188 273 190 274 192 276 189 271 193 277 194 278 195 279 196 280 193 277 195 279 193 277 74 281 72 282 193 277 72 282 194 278 197 283 185 284 182 285 198 286 199 287 130 288 198 286 130 288 129 289 200 290 201 291 202 292 203 293 200 290 202 292 204 294 45 295 203 293 45 295 200 290 203 293 75 97 205 296 48 297 76 298 200 299 205 300 75 100 76 99 205 301 205 302 200 290 45 295 205 296 44 57 49 266 205 302 45 295 44 303 206 304 199 305 198 306 77 307 78 308 199 309 186 265 77 307 199 309 87 310 77 307 186 265 186 311 199 305 206 304 88 116 186 265 83 107 201 312 200 299 76 298 87 310 86 313 77 307 44 57 207 314 187 267 46 59 169 242 207 314 190 274 191 275 192 276 192 276 191 275 195 279 191 275 196 280 195 279 208 315 209 316 196 317 198 286 129 289 209 318 167 240 198 286 209 318 198 319 167 320 210 321 210 322 206 322 198 322 137 184 117 323 120 185 211 324 208 315 196 317 211 324 209 316 208 315 211 325 167 240 209 318 204 294 46 326 45 295 199 287 78 327 61 75 204 294 212 328 213 329 102 330 98 330 99 330 214 331 215 332 216 333 214 331 216 333 217 334 218 335 215 332 214 331 128 182 148 336 126 337 1 338 176 339 175 248 219 340 93 123 79 102 220 341 219 340 79 102 219 340 221 342 93 123 92 343 160 343 161 343 92 344 161 344 84 344 222 345 219 340 220 341 223 346 221 342 219 347 223 348 219 340 222 345 43 349 220 341 41 350 43 349 222 345 220 341 224 351 164 352 225 353 183 354 98 355 102 356 183 354 102 356 226 357 103 358 183 359 226 360 103 358 99 361 183 359 184 362 227 363 228 364 184 362 229 365 227 363 212 328 203 293 202 292 229 366 230 367 227 368 231 369 230 367 229 366 232 370 231 369 229 366 232 370 233 371 231 369 84 223 234 372 157 221 153 214 155 373 67 81 235 374 154 215 144 217 81 375 160 375 92 375 109 139 236 376 110 140 237 377 236 376 109 139 238 378 236 376 237 377 239 379 237 377 152 380 239 379 152 380 240 381 239 379 238 378 237 377 241 382 238 378 239 379 158 224 241 383 239 384 155 385 242 386 67 387 242 388 243 389 244 390 244 391 243 392 245 393 246 394 155 385 235 395 247 396 242 386 155 385 247 396 155 385 246 394 247 397 243 398 242 399 150 219 149 400 246 394 158 224 248 401 241 383 249 402 248 403 158 404 248 405 250 406 241 407 249 408 250 406 248 405 218 409 42 55 41 54 251 410 252 411 245 393 244 390 253 412 242 388 253 413 244 414 252 415 252 411 244 391 245 393 48 297 205 296 49 266 217 416 167 320 169 417 254 418 169 242 168 241 255 419 256 420 250 406 255 419 257 421 170 422 255 419 170 422 256 420 257 423 171 256 258 424 251 425 181 426 259 427 181 428 260 429 172 430 261 431 262 432 263 433 264 434 265 435 266 436 264 434 267 437 42 55 268 438 231 369 233 371 269 439 263 433 268 438 263 433 262 432 268 438 253 412 68 201 67 440 265 435 264 434 270 441 42 55 270 441 264 434 271 442 164 442 224 442 272 443 133 177 221 342 133 177 272 444 162 233 273 445 223 346 222 446 272 447 273 445 162 448 273 445 274 449 267 437 274 449 273 445 42 55 267 437 274 449 42 55 67 81 66 80 153 214 25 37 30 42 26 38 163 235 174 247 173 246 27 39 23 35 28 40 25 37 27 39 28 40 24 36 31 43 22 34 254 450 187 451 207 452 115 151 28 40 32 44 111 179 121 157 139 453 52 454 24 455 125 456 51 64 119 150 52 65 52 65 119 150 31 43 240 457 158 224 239 384 180 254 19 29 178 458 64 459 63 96 47 66 64 459 16 26 127 460 163 235 178 458 18 28 246 461 266 436 247 397 8 10 14 24 106 136 195 462 194 463 189 464 189 464 192 465 195 462 194 463 72 466 56 467 189 464 194 463 56 467 189 464 39 468 36 469 39 468 189 464 56 467 70 470 189 464 36 469 72 466 58 471 56 467 54 472 70 470 36 469 39 468 38 473 36 469 100 474 96 475 102 476 96 475 97 477 102 476 97 477 228 478 226 479 97 477 226 479 102 476 35 480 33 481 53 482 34 483 40 484 24 455 29 41 111 485 113 486 142 487 240 487 152 487 144 196 51 64 50 63 65 488 144 196 50 63 235 489 144 196 65 488 9 490 100 491 225 492 101 132 100 131 8 10 9 11 8 10 100 131 259 427 252 415 251 425 215 332 218 335 41 493 115 151 111 485 25 37 28 40 115 151 25 37 212 328 180 254 179 253 111 494 139 495 112 180 121 157 116 156 118 161 123 160 121 157 118 161 113 486 16 26 29 41 125 456 24 455 40 484 59 496 125 456 57 497 57 497 125 456 40 484 60 498 59 496 57 497 73 499 60 498 130 172 130 172 60 498 57 497 23 500 27 501 34 483 130 172 57 497 74 170 27 501 26 502 35 480 26 502 15 503 35 480 33 481 35 480 15 503 35 480 34 483 27 501 168 504 211 324 196 317 187 451 254 450 188 505 254 450 168 504 191 506 47 60 49 62 53 482 49 62 187 451 188 505 188 505 254 450 191 506 23 500 34 483 24 455 53 482 33 481 47 60 188 505 53 482 49 62 191 506 168 504 196 317 196 317 209 316 193 507 193 507 209 316 129 171 207 314 44 57 46 59 91 121 221 342 133 177 237 377 109 139 20 508 201 312 237 377 20 508 151 509 152 380 237 377 85 510 151 509 201 312 85 510 201 312 76 298 151 509 237 377 201 312 17 27 64 459 47 66 139 495 135 181 112 180 21 511 9 490 225 492 126 512 148 513 142 225 147 226 142 225 148 513 66 197 146 514 138 187 109 139 107 137 20 508 268 515 262 516 213 517 262 516 265 435 217 518 213 517 262 516 217 518 265 435 270 441 214 519 217 518 265 435 214 519 270 441 42 55 214 519 42 55 218 409 214 519 233 371 269 439 268 438 65 488 87 520 235 489 166 521 21 511 164 522 121 523 123 523 122 523 158 224 240 457 142 225 141 229 151 524 85 110 213 517 179 253 268 515 179 253 231 369 268 515 156 218 89 117 91 121 11 19 5 6 174 247 11 19 174 247 12 20 174 247 163 235 12 20 64 459 127 460 62 112 127 460 141 229 62 112 1 525 0 526 176 527 175 248 174 247 3 5 167 240 211 325 168 241 261 431 241 382 250 528 243 398 266 436 245 529 260 530 245 529 266 436 172 245 260 530 266 436 250 528 256 531 261 431 256 531 170 243 261 431 266 436 261 431 172 245 172 245 261 431 170 243 170 243 258 532 171 244 105 135 108 533 275 534 233 535 275 534 108 533 180 254 212 328 19 29 212 328 202 292 19 29 30 42 15 25 26 38 108 533 110 536 233 535 64 459 17 27 16 26 253 412 67 440 242 388 247 397 266 436 243 398 166 537 165 538 176 527 182 539 185 540 165 538 165 538 185 540 177 541 176 527 165 538 177 541 21 31 166 537 13 32 166 537 176 527 13 32 176 527 0 526 6 542 6 542 13 32 176 527 6 542 0 526 7 33 9 543 21 31 7 33 0 526 9 543 7 33 171 256 259 544 181 257 184 261 275 534 229 366 275 534 232 370 229 366 206 304 216 545 186 311 197 283 230 546 185 284 254 418 207 314 169 242 271 547 224 351 197 548 197 548 224 351 227 549 224 351 225 353 103 550 225 353 100 474 102 476 225 353 102 476 103 550 224 351 103 550 228 478 230 551 197 548 227 549 103 550 226 479 228 478 227 549 224 351 228 478 223 346 272 443 221 342 225 492 164 522 21 511 212 328 204 294 203 293 156 218 91 121 134 178 3 5 174 247 5 6 52 65 31 43 24 36 215 332 186 311 216 545 75 97 48 297 47 66 186 311 215 332 83 552 137 184 122 553 117 323 230 367 231 369 185 263 231 369 179 253 185 263 88 116 82 106 150 219 97 554 95 555 184 556 269 557 261 431 263 433 107 137 106 136 14 24 216 545 206 304 217 416 73 94 199 287 61 75 217 518 204 558 213 517 25 37 111 485 29 41 261 431 269 557 238 378 269 557 236 559 238 378 128 182 136 183 148 336 91 121 93 123 221 342 80 103 83 552 84 108 83 552 215 332 84 108 84 108 215 332 41 493 92 122 84 108 41 493 92 122 41 493 79 102 41 493 220 341 79 102 179 253 213 329 212 328 18 28 178 458 19 29 97 554 184 556 228 560 42 55 273 445 222 446 43 56 42 55 222 446 184 261 95 129 98 128 99 130 105 135 275 534 275 534 184 261 99 130 184 261 183 260 99 130 35 47 54 68 36 48 241 382 261 431 238 378 182 285 271 561 197 283 4 562 5 9 7 8 32 44 31 43 119 150 233 371 232 370 275 534 149 208 264 434 246 461 164 237 271 563 182 259 186 265 246 394 87 310 235 395 87 310 246 394 272 443 223 346 273 445 266 436 246 461 264 434 181 428 251 410 260 429 217 416 206 304 210 321 155 385 154 564 235 395 186 265 150 219 246 394 84 565 161 565 234 565 14 24 20 508 107 137 261 431 266 436 262 432 266 436 265 435 262 432 135 189 122 220 137 566 136 202 135 189 147 203 147 203 135 189 249 402 158 404 147 203 249 402 137 566 138 207 145 206 249 402 135 189 137 566 137 566 145 206 252 415 137 566 252 415 259 427 137 566 259 427 249 402 259 427 257 567 255 568 259 427 255 568 249 402 22 34 31 43 28 40 19 29 202 292 201 291 201 291 20 30 19 29 73 94 130 288 199 287 217 416 210 321 167 320 169 417 46 326 204 294 204 294 217 416 169 417 258 569 170 569 257 569 257 423 259 544 171 256 245 393 260 429 251 410 269 557 233 535 236 559 236 559 233 535 110 536 125 164 59 73 50 63 193 507 129 171 74 170 3 5 1 338 175 248 8 10 106 136 101 132 11 570 4 23 13 22 145 206 253 413 252 415 249 408 255 419 250 406 5 571 11 571 13 571 253 412 145 198 68 201 134 178 133 177 162 233 162 448 273 445 267 437 162 448 267 437 159 228 159 228 267 437 161 232 267 437 264 434 161 232 234 572 161 232 264 434 234 572 264 434 149 208 157 231 234 572 149 208 149 208 90 210 157 231 90 210 159 228 157 231</p>
        </triangles>
      </mesh>
    </geometry>
  </library_geometries>
  <library_visual_scenes>
    <visual_scene id="scene">
      <node id="left_knee_link">
        <instance_geometry url="#geometry">
          <bind_material>
            <technique_common>
              <instance_material symbol="scout_1a1a1a" target="#scout_1a1a1a" />
            </technique_common>
          </bind_material>
        </instance_geometry>
      </node>
    </visual_scene>
  </library_visual_scenes>
  <scene>
    <instance_visual_scene url="#scene" />
  </scene>
</COLLADA>