<?xml version='1.0' encoding='utf-8'?>
<COLLADA xmlns="http://www.collada.org/2005/11/COLLADASchema" version="1.4.1">
  <asset>
    <created>2026-09-14T00:00:00Z</created>
    <modified>2026-09-14T00:00:00Z</modified>
    <unit name="metre" meter="1" />
    <up_axis>Z_UP</up_axis>
  </asset>
  <library_effects>
    <effect id="scout_1a1a1a_effect">
      <profile_COMMON>
        <technique sid="common">
          <lambert>
            <emission>
              <color>0 0 0 1</color>
            </emission>
            <ambient>
              <color>0.05 0.05 0.05 1</color>
            </ambient>
            <diffuse>
              <color>0.1 0.1 0.1 1</color>
            </diffuse>
          </lambert>
        </technique>
      </profile_COMMON>
    </effect>
  </library_effects>
  <library_materials>
    <material id="scout_1a1a1a" name="scout_1a1a1a">
      <instance_effect url="#scout_1a1a1a_effect" />
    </material>
  </library_materials>
  <library_geometries>
    <geometry id="geometry" name="left_elbow_link">
      <mesh>
        <source id="positions">
          <float_array id="positions_array" count="825">-0.0356976129 -0.0243410394 -0.0160818975 -0.0319731012 -0.0243265387 -0.0226568431 -0.0313976966 -0.0302133914 -0.0130882207 -0.0384566374 -0.0234281477 0.00776530709 -0.0381295308 -0.0232708026 -0.00956510473 -0.0377672799 -0.0269520506 -0.00212358357 -0.016429767 -0.0234557036 -0.035428796 -0.00874110311 -0.0281313714 -0.0357575454 -0.0254130699 -0.0244639553 -0.029885849 -0.0242358278 -0.0281385519 -0.0273088291 -0.0252749752 -0.0303836726 -0.0202723071 -0.00458331965 -0.0304700024 -0.0318831988 -0.0182456095 -0.0226239562 0.00145370432 -0.00754784886 -0.0229144283 -0.0171785448 -0.00761964591 -0.0234239865 -0.0385532826 0.00569783663 -0.0263852235 -0.0382029712 -0.0125010256 -0.0222531911 -0.0095821768 -0.00585941831 -0.0216768421 -0.0146604134 -0.0323957615 -0.0295300148 0.013358566 -0.0360172987 -0.0236060619 0.0159008 -0.0322491489 -0.024242213 0.0223920029 -0.0148114087 -0.0303368308 0.029016586 0.272189945 0.0183724687 -0.0469088256 0.270010144 0.019420201 -0.0415376797 0.269878715 0.0250225086 -0.0356688164 -0.0247863103 -0.0266108159 0.0290510319 -0.024835512 -0.0232020412 0.0298792403 -0.0150785288 -0.026430171 0.0350104682 -0.0166102275 -0.0233089663 0.0348990448 -0.00626596203 -0.0221122447 0.0141949803 -0.0128889205 -0.0217185654 0.00747551164 -0.00302535784 -0.0231633261 0.0115811368 -0.0075940704 -0.0234186463 0.0383801088 -0.00203897385 -0.0268768519 0.0380011797 0.00526432693 -0.0303974822 0.0314967111 -0.0371246897 0.0287347976 -0.00354275107 -0.0360340476 0.0250401292 -0.0160882026 -0.0378724709 0.0240619723 -0.00991606805 -0.0266628899 0.031141147 -0.020838188 -0.0332129076 0.0251306519 -0.0210729539 -0.0276192352 0.0243420284 -0.0275522918 -0.0210560896 0.0253706202 -0.033216577 -0.012300197 0.0292488895 -0.0342507772 -0.0313171633 0.0312725715 0.00985810813 -0.0156780463 0.0242344961 -0.0358815826 -0.0090515567 0.0241096802 -0.0381916948 0.00151831342 0.0273514893 -0.0382794775 -0.00166725274 0.031344261 -0.0328375734 0.270485848 -0.00538464915 0.00996088516 0.272105098 -0.00734219141 0.0141622089 0.271649152 0.0071101808 0.0120684961 -0.0353388041 0.0247412845 0.0178505946 -0.0382801332 0.0248603113 0.00939954072 -0.0291608013 0.0282127149 0.0239400472 -0.0276734028 0.0242832247 0.0276489574 -0.0173639022 0.031217847 0.028750971 -0.0213868041 0.0265322533 0.0323636718 -0.0177500807 0.0241152868 0.0352134407 -0.00285716262 0.0274742637 0.0381724127 -0.00967002101 0.0240125414 0.0380476117 0.00559621491 0.0296114329 0.0357293934 0.0165474135 0.0310438816 0.0287563987 0.0181093551 -0.0228842124 -0.0111495554 0.0107522542 -0.0229402594 -0.00616584485 0.00890631136 -0.0216623992 -0.0120620215 0.0144121097 -0.0215795729 -0.00528114522 0.04779502 -0.027376119 -0.0350778848 0.0364510864 -0.0233274177 -0.0385746099 0.0382954888 -0.0196469054 -0.0342937373 0.0368902758 -0.0228498057 -0.0311817583 0.0387578905 -0.019348016 -0.0407959558 0.0430495664 -0.0203445461 -0.0272028297 0.0447937958 -0.022783855 -0.0206252206 0.0616666824 -0.0290770587 -0.0281130429 0.0491686575 -0.020246055 -0.0184421986 0.0384155214 0.0211493801 -0.0404378846 0.0381894149 0.0218765102 -0.0342772417 0.0365373604 0.0263957288 -0.0377168283 0.0714690387 -0.0220628381 -0.0386208594 0.0581667013 -0.0199350342 -0.00579014607 0.0536745787 -0.0228187591 -0.00775846047 0.06074607 -0.0227417052 0.00204149098 0.106376573 -0.00921464525 -0.0423168093 0.207674056 -0.00588791398 -0.0440041311 0.269817799 -0.0126028145 -0.0449607596 0.208582193 -0.0124715855 -0.0422083065 0.0961484239 -0.0256900415 -0.0288305935 0.0774849132 -0.0258942284 -0.0331007317 0.0936555713 -0.0194793716 -0.0387999453 0.0899083465 -0.0253755916 -0.00119604822 0.0571923926 -0.0294553135 0.00282759918 0.11765825 -0.0242612399 -0.0100482637 0.211861715 -0.0183872115 -0.0384377241 0.116948359 -0.01482605 -0.0403531753 0.125830382 -0.0221108943 -0.0327461697 0.132137045 -0.0190156493 -0.0370099097 0.302210033 -0.00931705628 0.00876239967 0.29249692 0.00150096836 0.0154185258 0.291008562 -0.0128859943 0.0133872246 0.28355366 0.0192487296 0.0122994836 0.274632573 0.0280752331 0.00459378958 0.273126304 0.0181878582 0.0121041071 0.273890585 0.0325676054 -0.0341362841 0.28201139 0.0347149894 -0.0298074204 0.284944594 0.0300747175 -0.039116323 0.128919408 -0.0178657398 0.00299674599 0.111179799 -0.0213579349 0.000876848993 0.128552586 -0.0231464487 -0.00526173692 0.0550759099 0.0304270871 -0.0289997552 0.197638914 -0.0235375632 -0.00693759415 0.172305837 -0.0171158835 0.0020796298 0.213449702 -0.025203811 -0.014378475 0.12785922 -0.024088107 -0.0264508035 0.215241134 -0.0250491071 -0.02486559 0.270821154 -0.0241542477 -0.0352094397 0.210802108 -0.022946693 -0.0322288647 0.270079643 -0.0184363965 -0.0415955298 0.269808084 -0.0275007579 -0.0275691189 0.272907674 -0.0251786225 -0.0419499502 0.273418039 -0.0308102556 -0.035580717 0.271980226 -0.0313935913 -0.0262713134 0.241060555 -0.0247235429 -0.00507688057 0.270614862 -0.0279839113 -0.0126629993 0.270860493 -0.0260165017 -0.00509808538 0.252020597 -0.020905342 0.00126780057 0.272144735 -0.0326364897 -0.0123337545 0.269817024 -0.0191185903 0.00410980266 0.272833079 -0.0270756725 0.00296651525 0.270099044 -0.0065065166 -0.046789974 0.27271387 -0.0110175489 -0.0516638793 0.272958964 -0.0195086654 -0.0473559014 0.273748875 -0.0345983133 -0.0240415614 0.284898818 -0.0346823037 -0.0265551172 0.284611851 -0.0352455378 -0.0135421939 0.274129152 -0.0338952504 -0.00852462556 0.283354729 -0.0215427596 -0.0472885966 0.289258778 -0.0301574189 -0.035595011 0.285045296 -0.0302345119 0.00016677432 0.272790104 0.00322238798 -0.0535844266 0.281806469 -0.00542453537 -0.0542909503 0.289705813 -0.00859475788 -0.0524064004 0.296817154 -0.0318235271 -0.0206714813 0.296360552 -0.0289090127 -0.00472230092 0.295755953 -0.0214344691 -0.0426944233 0.301842809 -0.024263598 -0.0334804356 0.305013597 -0.0143537773 -0.0400529131 0.308072537 -0.0194673762 -0.0303116739 0.306415498 -0.0243062973 -0.0147817293 0.302393854 -0.0210384298 -2.91746583e-05 0.297081977 -0.0109006818 -0.048313126 0.305258274 -0.00235088938 -0.044618886 0.313962281 -0.0124488007 -0.0222617462 0.311355889 -0.013699933 -0.00638676109 0.312532336 -0.00565817859 -0.0331197381 0.315112144 0.00431786058 -0.0265477244 0.31588009 0.000354486343 -0.0117882472 0.312041521 -0.00177836698 -0.00175011274 0.00488399761 -0.0222522728 0.0152441235 0.0123510109 -0.0216916129 0.00857845135 0.00855228398 -0.0234285463 0.0379244238 0.013602999 -0.0273869671 0.0347261876 0.0173130203 -0.0234090537 0.0351471044 0.270624042 0.0256493036 -0.00237113284 0.21526213 0.0258262511 -0.0091932565 0.211930946 0.0212124866 -0.000405085098 0.0258332994 -0.0295843836 0.0246821772 0.0268526059 -0.0242780391 0.0308018252 0.0329432674 -0.0234036446 0.0270033963 0.0420219153 -0.0236467328 0.0224770941 0.0482544042 -0.0245639142 0.0183201879 0.0419575833 -0.0296132434 0.0139181018 0.0612562038 -0.0243892539 0.0117508871 0.0784896314 -0.0240448136 0.0053237523 0.0547829196 -0.0237271488 0.0151435323 0.068491146 -0.023025183 0.00986426789 0.067151323 -0.0201447755 0.00708471192 0.0714694411 -0.015115343 0.0128767537 0.0986602753 -0.0178714581 0.00636212435 0.0991030112 -0.0112118702 0.00893445686 0.284507811 0.00478417752 0.0173086058 0.273909926 0.00755868899 0.0164478961 0.160638899 -0.00779135013 0.00626710569 0.219140947 -0.0134093855 0.00523382891 0.21573922 -0.00606923783 0.00713206967 0.215162069 -0.0195569359 0.000304842222 0.273006141 -0.0193379521 0.0105395894 0.27075085 -0.0112684695 0.00864604395 0.280553788 -0.0237872452 0.00844134763 0.28369984 -0.0102135297 0.0159200821 0.274617285 -0.00870055985 0.0163933598 0.291915476 -0.0221702047 0.00709240744 0.304175943 0.00280570146 0.00869929884 0.0380511992 -0.00888017379 -0.0400333107 0.0328499936 0.0239921119 -0.037871629 0.0612256266 0.0286445264 -0.0328660682 0.0459470265 0.0220534839 -0.0231096167 0.0542941801 0.0222964715 -0.0111272261 0.0611279309 0.0234408174 -0.000742245466 0.0619126447 0.0242591221 -0.0386159867 0.11378219 0.0118425442 -0.0419614054 0.0888656676 0.00924519356 -0.0421719402 0.102536589 0.024612233 -0.0326429419 0.11767333 0.0182578508 -0.0388720632 0.0772011206 0.0284254793 -0.000493757485 0.0975348279 0.025249565 -0.000592833385 0.11100892 0.0257390756 -0.00736655993 0.129072651 0.0225543398 -0.0338555649 0.121293359 0.0250489172 -0.0264585651 0.125870585 0.0233213659 -0.00255753519 0.145584285 0.0251517631 -0.0106422743 0.211711317 0.0184486639 -0.0392340235 0.283625096 0.00648191758 -0.0539597683 0.274427831 0.0141468421 -0.0516960993 0.285904795 0.0182874072 -0.0496429577 0.167794228 0.0228102151 -0.0032303629 0.213321909 0.0079024639 -0.0440407507 0.225115284 0.0144939739 -0.0423554108 0.213822693 0.0228946656 -0.0341300815 0.217583358 0.0259905662 -0.0271131024 0.269659072 0.0286633242 -0.0113571603 0.270769149 0.00825008191 -0.0467361026 0.269973248 0.0126231788 -0.0454067327 0.269491434 0.0288495347 -0.0247308146 0.273109227 0.0244454425 -0.0445987098 0.272018075 0.0303978156 -0.0321099348 0.272982448 0.0333501175 -0.00571895484 0.270095825 0.0216784105 0.00269294716 0.27218464 0.0345514603 -0.0172655359 0.297392726 0.0307650398 -0.0290126335 0.290216744 0.0353599079 -0.0203532707 0.303304881 0.0283056535 -0.0172653887 0.277439982 0.0368766598 -0.0169651229 0.294960916 0.00676407665 -0.0509140082 0.298221827 0.0177214239 -0.0448161997 0.308775723 0.0080154594 -0.0397353843 0.306081355 0.018061446 -0.0366966277 0.293205202 0.0256262459 -0.040879745 0.290410668 0.0267797522 0.00413061632 0.295815945 0.0305028614 -0.00567700202 0.285904199 0.0329889916 -0.00320562976 0.300500453 0.0195226409 0.00462057116 0.304732502 0.0247659013 -0.00788511802 0.308384567 0.0185193215 -0.00499465596 0.309617698 0.0195212662 -0.0278166216 0.313703805 0.014310563 -0.0158166718 0.309260756 0.0106038693 0.000421402947 0.00936441123 0.0244495086 0.0380229913 0.0159114357 0.0250133071 0.0360549577 0.029982768 0.0251767263 0.0290709771 0.0210164879 0.0266091619 0.0329032466 0.0219871588 0.0240530372 0.0328206532 0.0376242176 0.0292004179 0.020484468 0.0565137677 0.0303994324 0.0047206711 0.0363013074 0.0242431611 0.0256264452 0.0464337617 0.0272904579 0.0176374391 0.0447859168 0.0241535977 0.0202232301 0.057959985 0.0251309499 0.0135944914 0.0520082861 0.0239982009 0.0166805517 0.0639210641 0.0250716414 0.01078784 0.0694333315 0.0228360221 0.0105020478 0.0821192265 0.0244613867 0.00522636948 0.0927187279 0.0157053769 0.00900139287 0.0718683228 0.0170432795 0.0125918733 0.102742821 0.0211001337 0.0039644097 0.113156714 0.0129857631 0.00754658645 0.129465252 0.0181954168 0.00329208164 0.130653605 0.00971025694 0.00710715819 0.170781612 0.0163862426 0.0032227654 0.208274588 0.0145629626 0.00469534844 0.172556028 0.00851443876 0.00621074624 0.215477467 0.00767132966 0.00710007316 0.270024657 0.0149888564 0.00739085209 0.269886583 0.00655096723 0.00984309427 0.273006469 0.0236516856 0.00764423469 0.293011665 0.0151281226 0.0120190289</float_array>
          <technique_common>
            <accessor source="#positions_array" count="275" stride="3">
              <param name="X" type="float" />
              <param name="Y" type="float" />
              <param name="Z" type="float" />
            </accessor>
          </technique_common>
        </source>
        <source id="normals">
          <float_array id="normals_array" count="1188">-0.702248931 -0.655646563 -0.277441978 -0.608828962 -0.675829172 -0.415430158 -0.415712118 -0.894973159 -0.161884159 -0.814521313 -0.557270467 0.161259711 -0.809592128 -0.551458836 -0.201130971 -0.810836136 -0.584524691 -0.0295918658 -0.365609735 -0.548326552 -0.752108753 -0.191721439 -0.720892847 -0.666000247 -0.485462099 -0.597017825 -0.638667583 -0.612353146 0.711183846 -0.345313072 -0.0658106431 0.997063756 -0.0391507447 -0.156189531 0.975938141 -0.152150005 -0.403835446 -0.770444214 -0.493287623 -0.224528983 0.954439878 -0.196548298 -0.193569109 -0.965932071 -0.171773821 -0.0389492922 0.998312473 -0.0430715121 -0.0308663659 -0.960937679 -0.275038242 -0.0345002413 0.999402881 -0.00189588126 -0.0443805717 0.990425587 -0.130719364 -0.167929769 -0.446560025 -0.878853619 0.00419563754 -0.540172517 -0.841543853 -0.632625401 -0.689599335 -0.352473855 -0.019678561 0.99980247 0.00279300101 -0.030098103 0.976030052 -0.215544626 -0.471484542 -0.862257123 0.184972867 -0.753285587 -0.587438166 0.295765489 -0.644377947 -0.625302613 0.440197319 -0.148143813 -0.946168244 0.287783027 -0.825356364 0.247583866 -0.507433832 -0.849386096 0.33278957 -0.40962714 -0.826444089 0.472591013 -0.306019425 -0.527706683 -0.577522874 0.62289077 -0.468695521 0.810415149 0.351499408 -0.0545326881 0.997643411 0.0416395254 -0.0675155818 0.99693054 0.0396383069 -0.591835856 -0.19836241 0.781269908 -0.33363229 -0.535222888 0.776032209 -0.455768824 -0.191402763 0.869275391 -0.685095429 -0.315067351 0.656792879 -0.129281074 0.991024911 -0.0340008251 0.0933801085 0.994642377 -0.0443475805 0.048990462 0.989029646 -0.139356673 0.0469352193 0.997237206 -0.0575766973 -0.191696063 -0.343025327 0.919557631 -0.0204551946 -0.563795865 0.825660825 0.0451798998 -0.956684947 0.287598193 -0.742951035 0.666890621 -0.0572767742 -0.670491159 0.686693251 -0.280880809 -0.914042354 0.370732576 -0.164572075 -0.349212199 0.893586218 -0.282054067 -0.603806913 0.674594223 -0.424664438 -0.561943173 0.619883537 -0.547689915 -0.419571072 0.675760329 -0.606059492 -0.230964646 0.755411446 -0.613195598 -0.372252345 0.920876205 0.115824088 -0.298506558 0.471041918 -0.83006829 -0.208246991 0.508875608 -0.835271657 -0.0248512998 0.772796214 -0.634167492 -0.0272912662 0.943708301 -0.329651088 -0.930192709 -0.0345217995 0.365444571 -0.820581734 -0.184728637 0.54085207 -0.855386019 0.0859523714 0.510810137 -0.684485137 0.661179662 0.307118177 -0.671054006 0.714543223 0.197773978 -0.593861759 0.654696107 0.467655063 -0.668965816 0.328319222 0.666851699 -0.181741923 0.919842422 0.347649008 -0.493207604 0.44286564 0.748743117 -0.336660385 0.46020323 0.821506381 -0.0635594279 0.492067605 0.868233681 -0.277481496 0.516904175 0.809823513 0.097726427 0.800479531 0.591339171 0.146519154 0.93505764 0.322799265 0.0106062014 0.999503613 -0.0296660587 -0.215374321 0.968117774 0.127913535 0.150373697 0.492446184 -0.857254028 -0.103745535 0.964818537 0.241582274 -0.361648917 0.929994404 0.0657305345 0.344254106 0.938840985 0.00816969108 0.2079072 0.974392653 -0.0856361091 0.142992556 0.981399834 -0.128091827 0.0358390585 -0.805968761 -0.590872109 0.0569942258 -0.545461297 -0.836195946 -0.928257644 0.29246372 0.229788527 -0.886058748 0.463277489 -0.01654993 -0.705941081 0.632135332 0.319455892 -0.984229088 0.165533453 -0.0623838566 0.0184894856 -0.325264663 -0.945442259 -0.70419383 0.498837918 0.505244315 -0.596237957 0.68789953 0.413877487 0.0632669553 -0.981732011 -0.17944248 -0.625590503 0.651582122 0.42904228 -0.991508603 -0.129088223 -0.0157137867 -0.988825798 -0.147880763 -0.0188375115 -0.940554857 -0.339596242 0.00556206796 0.0562316403 -0.586951911 -0.807666659 -0.768231809 0.34753105 0.537626326 -0.613545775 0.663512647 0.428150088 -0.623003423 0.626744866 0.468035966 -0.00641467422 -0.168251246 -0.985723257 -0.0254654102 -0.129219264 -0.99128902 -0.0430200584 -0.393850029 -0.918167412 -0.0230875369 -0.409554362 -0.911993504 0.0840029716 -0.955005765 -0.284442514 0.0900260583 -0.869048238 -0.486467391 0.0586043783 -0.617530942 -0.78436029 0.148343816 -0.904346526 0.400189251 0.0863442346 -0.992852092 0.0823981315 0.0509148985 -0.997209251 0.0546021871 -0.0288622994 -0.687042236 -0.726043999 0.0147722289 -0.433543473 -0.901011586 0.0328430906 -0.894603193 -0.445652783 0.000970606634 -0.729190767 -0.684309781 0.613060534 -0.280302495 0.738638818 0.364831567 0.018260777 0.930894434 0.310353786 -0.36908704 0.876045287 0.0884547159 0.518189013 0.850679696 -0.012321962 0.759434462 0.650467098 -0.0743584782 0.494885415 0.865770876 -0.109627336 0.899048805 -0.423902184 0.0842207447 0.950460672 -0.29921788 0.13304767 0.812729478 -0.567246914 0.0605131537 -0.674776912 0.735536754 0.0968333036 -0.798705459 0.593879521 0.0331585184 -0.926903009 0.373833299 0.0367419086 0.977803051 -0.206279546 -0.0141349193 -0.925055325 0.379569262 0.00358523428 -0.622757852 0.782406449 -0.0288535096 -0.997068226 0.0708692819 0.0174445529 -0.987710536 -0.15531756 -0.0351618268 -0.990220666 -0.135006428 -0.0383941829 -0.839375019 -0.542195022 -0.0236141775 -0.899552464 -0.436174005 -0.0389547423 -0.635722637 -0.770934045 -0.0442707948 -0.973855495 -0.222812757 -0.905973971 -0.347318441 -0.242035285 -0.845428169 -0.332643658 -0.417850882 -0.899272561 -0.342995375 -0.271409243 -0.813325524 -0.191457331 -0.54940486 -0.876833975 -0.466053963 -0.11813502 -0.888676524 -0.399428308 -0.225191101 -0.854733169 -0.511939347 -0.0857281685 -0.0479620099 -0.915899992 0.398530811 -0.0461385064 -0.992322922 0.114744991 -0.0320326425 -0.905810535 0.422470272 -0.0440861583 -0.745185375 0.665398538 -0.89681834 -0.407507569 0.172204569 -0.949707448 -0.308466524 0.0538903512 -0.823513031 -0.560494125 0.0875933915 -0.880867958 -0.304093957 0.362765044 -0.892084539 -0.39046225 0.227429956 -0.876988649 -0.033765886 -0.479323268 -0.927039206 -0.118603289 -0.355712771 -0.896954238 -0.261507809 -0.356492341 -0.484485388 -0.8672539 -0.114650086 0.128029048 -0.965948343 -0.22483851 -0.0177300982 -0.863152325 -0.504632294 0.128943264 -0.981577098 0.140996575 -0.443540424 -0.851002812 0.281186968 -0.0926381275 -0.330572635 -0.939223051 0.0848454759 -0.607825637 -0.789524674 -0.104638852 -0.561935306 -0.820536077 -0.0929530486 -0.728882909 -0.678298891 0.248768434 -0.840412259 -0.481478482 -0.877303421 -0.47887066 0.0319617093 0.126097858 -0.853703439 0.505262136 -0.126489758 -0.796337426 0.591478705 -0.105301127 0.0457129739 -0.99338913 0.0247559659 -0.164979488 -0.985986292 0.277575672 -0.245976433 -0.92868042 0.471516252 -0.879476011 -0.0647643358 0.449476391 -0.814431369 0.366977602 0.421675682 -0.603550136 -0.676695585 0.583679318 -0.709485173 -0.394904047 0.696155071 -0.400575489 -0.595741093 0.774318457 -0.554203928 -0.30543232 0.725826025 -0.6811831 0.095740214 0.626314402 -0.583745241 0.516693175 0.471387058 -0.306535214 -0.826940358 0.680894017 -0.0747963265 -0.72855252 0.93556577 -0.3417252 -0.0891101733 0.856860638 -0.390437871 0.336672217 0.899127364 -0.164419293 -0.405630767 0.969797254 0.106107004 -0.21962364 0.985377729 0.000189730883 0.170384049 0.875928104 -0.0663565248 0.477856398 -0.0148313669 0.999876618 -0.00517550856 -0.133058041 0.989305496 -0.0597513616 0.176794708 -0.419673085 0.890291035 0.237796515 -0.675809562 0.697663426 0.32783851 -0.396495491 0.85750407 0.170899138 -0.979231894 0.109079719 -0.0392049141 0.878579974 0.475983471 -0.0308579803 0.97151953 0.234941766 -0.0258235093 0.769912958 0.637626171 0.430671483 0.899686396 0.0713195652 0.219733715 -0.90275234 0.369804382 0.349705666 -0.708315432 0.613184452 0.389825344 0.536389887 0.74854666 0.389677912 0.536720514 0.748386383 0.385635495 0.545701742 0.743972361 0.343700916 -0.678818285 0.648903191 0.385431856 0.54614985 0.743749022 0.384661973 -0.675914645 0.628629148 0.166734874 -0.952008903 0.256668091 0.283543229 -0.667807758 0.688212156 0.224006534 -0.759146392 0.611161053 0.00105292199 0.998998404 0.0447340608 -0.0269059166 0.997663915 0.0627913922 -0.0544575751 0.997252345 0.0502209254 0.268399864 -0.526315629 0.806816816 0.28897053 -0.725094497 0.625087202 -0.77688247 0.178282782 0.6038782 -0.783811927 0.202055633 0.587207258 -0.803914011 0.0173081327 0.594493628 0.144972384 -0.514342427 0.8452425 0.113384329 -0.177063614 0.97764641 0.175207406 -0.236234769 0.955769598 0.110766336 0.120603494 0.986501694 -0.0431888029 0.207927138 0.977190375 0.0164276119 -0.201145843 0.979423523 -0.0337573811 -0.44903329 0.892877102 -0.0300780758 -0.128439561 0.991261125 -0.0311067849 -0.733576298 0.678894818 -0.0293129981 -0.65730983 0.753050148 -0.872401476 -0.213608995 0.439644068 -0.882279754 -0.168827802 0.439408302 0.00374928117 -0.659036577 0.752101541 -0.0963907689 -0.55360496 0.827182174 0.101315364 -0.297392547 0.949364483 -0.0214108583 -0.25950253 0.965505064 0.342132062 -0.620622754 0.705530345 -0.762934625 -0.192208871 0.617241085 -0.876621306 0.0691277832 0.476189524 0.654597461 0.0796713382 0.751767695 0.0344753303 0.777129889 -0.6283952 -0.734997094 -0.000218349363 -0.678070247 -0.999100864 -6.78989963e-05 0.0423965007 0.34887132 -0.483494639 -0.8028211 0.0686805621 0.887636483 -0.455394864 -0.56723088 -0.714583516 0.409413636 -0.571185768 -0.710211456 0.411517382 -0.556960166 -0.728725076 0.398440957 -0.781427145 -0.286972195 0.554092526 -0.819275379 -0.0282355528 0.572704673 0.0466923267 0.604900002 -0.794931352 -0.0070625334 0.274653554 -0.961517334 0.00518107228 0.306083739 -0.951990485 -0.0142323477 0.0564207137 -0.998305619 0.0813536495 0.875264883 -0.476752549 0.0204886943 0.594289064 -0.803990543 0.13841705 0.955290914 0.261266172 0.142018765 0.878076553 0.456959754 0.0722868443 0.989554167 0.124728173 0.00628376752 0.868994236 -0.494782269 0.0414481051 0.988224626 -0.147289157 0.0600903481 0.876780331 0.477122039 0.00517248316 0.990963101 0.134034947 -0.020703882 0.671064854 -0.74110955 0.108399346 0.155635908 -0.981848776 -0.0325677246 0.38262105 -0.923331201 0.158747762 0.498031497 -0.852504432 -0.000361356972 0.848449111 0.529276848 -0.025268089 0.142664358 -0.989448547 -0.0416358002 0.431806296 -0.90100491 -0.0270732008 0.849929154 -0.52620101 -0.0336019136 0.979825735 -0.19700864 -0.0465657897 -0.13660714 -0.989530265 -0.0395887457 0.849464476 -0.526158571 -0.0462507643 0.984405816 0.1697236 -0.0394200645 0.614664137 -0.787803352 -0.905111432 0.117523059 -0.40860942 -0.950295687 0.0388044231 -0.308921158 -0.043344792 0.383508891 -0.922519445 -0.0471788049 0.986621618 -0.156051189 0.776901662 0.308294266 -0.548979402 -0.865169168 0.33580637 -0.372446448 -0.823333442 0.529399574 -0.204592645 -0.708979309 0.70072335 -0.0795939788 -0.867734075 0.453275234 0.20390977 -0.856391132 0.509951055 0.0808956623 -0.0400518142 0.691856921 0.720922947 -0.853948236 0.427036136 0.297342449 -0.987444639 -0.148902163 0.0527376048 -0.854001641 0.172788128 -0.490739673 0.474087656 0.825196385 -0.307069808 0.282699347 0.958314836 -0.0413972735 0.644503415 0.764194191 0.0249512568 -0.83404249 0.497938961 -0.237549812 -0.0362423472 0.679549694 -0.732733667 -0.825493157 0.470959127 0.311060458 -0.813005447 0.56302315 -0.148415118 -0.403808147 0.914708376 -0.0157326218 -0.13560763 0.990200281 0.0333770141 -0.102695055 0.935377359 0.338412344 0.421908528 0.154825926 -0.893320858 0.506368339 0.473503679 -0.720683932 0.791153371 0.200322822 -0.577881515 0.697589338 0.513195336 -0.499999672 0.40247184 0.688669443 -0.603117645 0.282109946 0.715402782 0.639228284 0.440798223 0.831474662 0.338152111 0.144547224 0.904221594 0.401857406 0.565533996 0.519727945 0.640354693 0.681051075 0.671844184 0.291195393 0.79169935 0.487082899 0.368730783 0.816189945 0.523902237 -0.243639916 0.922800004 0.37783882 0.0753520951 0.813036799 0.269877076 0.515885234 0.170009181 0.466002762 0.868296206 0.237850308 0.696730196 0.676752746 0.406771481 0.125229433 0.904905796 0.453298926 0.143711805 0.879697084 0.436363548 0.136971191 0.889283836 0.262247831 0.786771655 0.558763325 0.339655876 0.716926336 0.608810723 0.483231068 0.155664504 0.861543 0.30034405 0.803803563 0.513510704 0.143759817 0.965303779 0.217994675 0.435710341 0.575758874 0.691851258 0.38083607 0.664674878 0.64278394 0.471422106 0.400179833 0.785886288 0.36867696 0.377339154 0.849524856 0.375318229 0.391276687 0.840261161 0.275922865 0.845560312 0.457049549 0.217068732 0.825283587 0.521333039 -0.152127206 -0.972843111 0.174452409 -0.0447443612 -0.996417284 0.0717670247 -0.357438564 -0.908820868 0.21513322 0.240289375 0.521004677 0.819033086 0.185638607 0.753660977 0.630502522 0.00221930724 -0.0403905325 0.999181509 -0.0431767665 -0.356149316 0.933431029 0.144935638 0.293569356 0.944886625 0.179511443 0.231925011 0.956026375 0.120103195 0.670156479 0.732438028 0.0711996183 0.267691523 0.960870385 0.0564508438 0.606091976 0.793388784 0.0464399718 0.212130174 0.97613734 0.00512041245 0.54456532 0.838702798 -0.0201785341 0.46720624 0.883918047 -0.00160724635 0.182145491 0.983270288 -0.0363941863 0.150279254 0.987973511 -0.0417350158 0.433155626 0.900352359 -0.0469531678 0.140940204 0.988904059 -0.790512145 0.070584029 0.608365417 -0.769690752 0.240764111 0.591277242 -0.86119467 0.360880762 0.357922912 -0.965769589 0.128057435 0.225588903 -0.84931457 0.405898392 0.337507486 -0.245069012 0.609839082 0.753682613 0.372390807 0.38836658 0.842909575 -0.980156362 0.19612354 -0.0287925247 0.0185337886 0.998747528 0.0464741364 0.0311845373 0.999239087 0.0234270561 0.0077560069 0.998691857 0.050540898 -0.00191429828 0.99860096 0.0528435819 0.0216931719 0.999587178 0.0188387856 -0.0115281725 0.999630451 0.0246181097 -0.0127859386 0.998599768 0.0513321944 -0.00325995917 0.999993682 0.00141061423 -0.0432217531 0.99831152 -0.038807217 -0.0263094865 0.999024749 -0.0354594514 -0.00653223414 0.999695182 -0.0238100309 -0.0332160071 0.999228537 0.0209520999 -0.630841613 0.0146972956 0.775772452 -0.773207307 -0.000735963346 0.634152949 -0.820988417 -0.00342755648 0.570934594 -0.820855498 -0.00307791447 0.571127594 -0.0493050814 -0.109586731 0.992753625 0.012949788 -0.0508114174 -0.998624325 0.0140365651 -0.0727702081 -0.997249961 0.00858443324 0.0363862552 -0.999300957 0.00777483266 0.0523855984 -0.998596668 -0.0472511761 0.139499292 -0.989094198 -0.01461107 -0.999747634 0.0170657057 0.0221023522 -0.999085009 -0.0366149545 -0.00264233863 -0.99998951 0.00374407647 -0.233159736 -0.953594923 -0.190507963 -0.0410124324 -0.999092937 -0.0114570335 -0.0237866025 -0.99971652 -0.00105904939 -0.0286353827 -0.999193311 -0.0281550717 0.0178465825 -0.99869442 0.0478642285 0.206404313 -0.965392947 0.159416959 0.0487485006 -0.997159362 0.0574174859 -0.447143406 -0.632080317 -0.632880151 -0.00995120034 -0.99994415 0.0035518182 -0.412220955 -0.876336873 -0.249213859 -0.12026412 -0.992351294 -0.0278467741 -0.0417931117 -0.999070942 0.0105184624 -0.0577396601 -0.998330891 -0.00126402581 0.584746778 -0.809921026 0.0458162837 0.0153298266 -0.999854684 -0.0074599823 -0.0749992132 -0.997110665 0.0120580476 0.0221894793 -0.97821188 -0.206419691 -0.00912873354 -0.999906063 -0.0102233179</float_array>
          <technique_common>
            <accessor source="#normals_array" count="396" stride="3">
              <param name="X" type="float" />
              <param name="Y" type="float" />
              <param name="Z" type="float" />
            </accessor>
          </technique_common>
        </source>
        <vertices id="vertices">
          <input semantic="POSITION" source="#positions" />
        </vertices>
        <triangles material="scout_1a1a1a" count="546">
          <input semantic="VERTEX" source="#vertices" offset="0" />
          <input semantic="NORMAL" source="#normals" offset="1" />
          <p>0 0 1 1 2 2 3 3 4 4 5 5 2 2 4 4 0 0 5 5 4 4 2 2 6 6 7 7 8 8 0 9 4 10 1 11 1 1 9 12 2 2 1 1 8 8 9 12 1 11 4 10 8 13 10 14 2 2 9 12 4 10 6 15 8 13 11 16 9 12 7 7 11 16 10 14 9 12 9 12 8 8 7 7 12 17 13 18 4 10 6 6 14 19 7 7 14 19 15 20 7 7 12 21 16 21 13 21 16 22 17 23 13 18 3 3 5 5 18 24 19 25 3 3 18 24 18 24 5 5 2 2 20 26 19 25 18 24 21 27 18 24 2 2 22 28 23 29 24 30 20 26 18 24 25 31 20 32 26 33 19 34 26 35 20 26 25 31 25 31 18 24 21 27 27 36 25 31 21 27 28 37 26 35 25 31 27 36 28 37 25 31 29 38 30 38 12 38 12 39 30 40 16 22 30 40 31 41 16 22 30 40 29 42 31 41 32 43 28 37 27 36 33 44 27 36 21 27 32 43 27 36 33 44 33 44 21 27 34 45 35 46 36 47 37 48 35 46 38 49 36 47 36 47 38 49 39 50 39 50 38 49 40 51 40 51 38 49 41 52 38 49 42 53 41 52 35 46 43 54 38 49 41 52 42 53 44 55 44 55 42 53 45 56 42 53 46 57 45 56 42 53 47 58 46 57 38 49 47 58 42 53 48 59 49 60 50 61 51 62 43 54 52 63 53 64 51 62 54 65 53 64 43 54 51 62 53 64 55 66 43 54 53 64 54 65 56 67 53 64 56 67 55 66 56 67 54 65 57 68 58 69 57 68 59 70 58 69 60 71 55 66 55 66 60 71 61 72 15 20 11 16 7 7 17 23 62 73 13 18 16 22 63 74 17 23 17 23 64 75 62 73 63 74 64 76 17 23 63 74 65 77 64 76 65 78 62 79 64 80 66 81 15 20 67 82 68 83 67 84 69 85 68 83 70 86 67 84 70 87 66 81 67 82 69 85 71 88 68 83 71 88 69 85 72 89 73 90 11 16 66 81 72 89 74 91 71 88 75 92 76 93 77 94 70 87 78 95 66 81 79 96 74 91 72 89 79 96 72 89 80 97 79 96 80 97 81 98 82 99 78 95 70 87 83 100 84 101 85 102 86 103 73 90 87 104 82 99 88 105 78 95 89 106 90 107 91 108 86 103 87 104 88 105 92 109 93 110 85 102 86 103 88 105 94 111 82 99 93 110 88 105 94 111 88 105 95 112 96 113 97 114 98 115 99 116 100 117 101 118 102 119 103 120 104 121 105 122 106 123 107 124 108 125 47 58 61 72 82 99 85 102 93 110 107 124 91 108 109 126 105 122 107 124 109 126 110 127 105 122 109 126 109 126 91 108 111 128 112 129 113 130 111 128 114 131 115 132 92 109 85 102 116 133 92 109 84 101 116 133 85 102 114 131 92 109 116 133 117 134 115 132 114 131 114 135 116 136 118 137 116 136 84 138 118 137 111 128 113 130 117 134 117 139 114 135 119 140 117 139 119 140 120 141 121 142 111 128 122 143 123 144 124 145 121 142 123 146 122 147 125 148 126 149 123 146 127 150 128 151 129 152 130 153 128 151 130 153 84 138 131 154 120 141 119 140 132 155 131 154 119 156 133 157 131 154 132 155 134 158 131 154 133 157 125 148 120 141 131 154 125 148 131 154 134 158 129 159 135 160 130 161 114 135 118 137 119 140 119 156 118 162 135 160 135 160 118 162 130 161 132 155 119 156 136 163 135 160 136 163 119 156 122 164 117 139 120 141 123 146 125 148 134 158 123 146 134 158 127 150 137 165 127 166 134 158 138 167 139 168 129 159 129 159 139 168 135 160 139 168 140 169 135 160 84 138 130 153 118 137 141 170 132 155 136 163 137 165 133 157 142 171 135 160 143 172 136 163 143 172 144 173 136 163 145 174 144 173 143 172 141 170 136 163 144 173 146 175 141 170 144 173 147 176 141 170 146 175 141 170 142 171 133 157 142 171 141 170 147 176 148 177 142 171 147 176 140 169 143 172 135 160 140 169 149 178 143 172 140 169 150 179 149 178 149 178 145 174 143 172 145 174 146 175 144 173 151 180 147 176 146 175 152 181 148 177 147 176 151 180 152 181 147 176 150 179 145 174 149 178 153 182 146 175 145 174 150 179 153 182 145 174 153 182 151 180 146 175 153 182 154 183 151 180 154 183 155 184 151 180 155 184 156 185 152 181 151 180 155 184 152 181 29 42 157 186 31 41 31 41 158 187 63 74 158 187 65 77 63 74 159 188 33 44 160 189 161 190 159 188 160 189 158 191 157 191 62 191 162 192 163 193 164 194 158 195 62 79 65 78 160 189 34 45 165 196 166 197 160 189 165 196 161 198 166 199 167 200 166 197 165 196 168 201 161 190 160 189 166 197 167 200 166 199 168 202 169 203 165 196 170 204 168 201 165 196 169 203 171 205 170 204 172 206 173 207 174 208 81 209 171 205 174 210 173 211 81 98 175 212 79 96 169 203 170 204 173 211 169 203 173 211 168 201 89 106 170 204 90 107 174 210 171 205 172 206 175 212 81 98 174 213 172 206 170 204 89 106 176 214 175 212 174 213 106 123 177 215 172 206 178 216 176 217 174 210 178 216 174 210 177 215 179 218 99 116 180 219 178 216 177 215 105 122 181 220 105 122 110 127 181 220 182 221 183 222 182 221 184 223 124 145 126 224 182 221 124 145 184 223 121 142 124 145 133 157 137 165 134 158 126 224 124 145 123 144 185 225 126 149 127 150 186 226 126 149 185 225 49 60 48 59 186 226 187 227 127 166 137 165 187 227 185 228 127 166 187 227 188 229 189 230 132 155 141 170 133 157 190 231 187 227 137 165 190 231 98 115 187 227 189 232 186 226 185 225 49 60 186 226 189 232 180 233 50 61 49 60 180 233 49 60 189 232 142 171 190 231 137 165 148 177 190 231 142 171 96 113 190 231 148 177 97 114 188 229 98 115 96 113 98 115 190 231 97 114 179 218 188 229 152 181 96 113 148 177 156 185 96 113 152 181 156 185 191 234 96 113 47 58 77 235 46 57 108 125 77 235 47 58 178 216 105 122 181 220 192 236 75 236 70 236 70 86 68 83 192 237 77 238 76 238 193 238 108 125 194 239 77 235 195 240 193 241 76 242 196 243 197 244 193 241 196 243 193 241 195 240 194 239 198 245 77 235 75 246 199 247 200 248 198 245 199 247 75 246 194 239 201 249 198 245 115 132 94 111 95 112 198 245 201 249 202 250 108 125 201 249 194 239 203 251 204 252 205 253 113 130 115 132 117 134 206 254 201 249 207 255 204 252 208 256 205 253 33 44 34 45 160 189 205 253 208 256 209 257 202 250 210 258 199 247 211 259 212 260 213 261 208 256 214 262 209 257 215 263 199 247 216 264 207 255 217 265 206 254 207 255 218 266 217 265 215 263 128 267 83 100 217 265 24 268 210 258 163 193 219 269 218 266 210 258 24 268 23 270 220 271 138 272 129 152 23 270 221 273 216 264 222 274 218 266 219 269 23 29 22 28 220 271 23 275 220 275 221 275 223 276 22 28 24 30 224 277 223 276 24 30 224 277 24 30 222 278 225 279 224 277 222 278 225 279 222 278 219 280 162 192 219 269 163 193 164 194 226 281 162 192 225 279 219 280 162 282 227 283 224 283 225 283 220 271 212 284 138 272 22 28 212 284 220 271 228 285 229 286 230 287 212 260 211 259 138 167 138 167 211 259 139 168 223 276 212 284 22 28 224 277 102 288 223 276 102 119 104 121 223 289 35 46 52 63 43 54 100 290 225 279 162 282 227 291 102 288 224 277 227 292 231 293 102 119 231 293 103 120 102 119 225 294 231 293 227 292 213 261 232 295 211 259 213 261 233 296 232 295 233 296 234 297 232 295 234 297 150 179 232 295 233 296 235 298 234 297 104 121 236 299 213 261 104 121 228 285 236 299 236 299 228 285 233 296 228 285 235 298 233 296 237 300 238 301 239 302 238 301 240 303 241 304 238 301 241 304 230 287 241 304 240 303 242 305 103 120 229 286 104 121 229 286 228 285 104 121 231 293 239 302 229 286 239 302 238 301 229 286 238 301 230 287 229 286 11 16 15 20 66 81 235 298 243 306 234 297 243 306 154 183 234 297 243 306 244 307 154 183 154 183 244 307 155 184 244 307 242 305 245 308 155 184 245 308 156 185 244 307 245 308 155 184 244 307 243 306 230 287 228 285 243 306 235 298 230 287 243 306 228 285 241 304 242 305 244 307 230 287 241 304 244 307 60 71 58 69 246 309 214 262 164 194 163 193 247 310 60 71 246 309 61 72 60 71 247 310 248 311 249 312 250 313 249 314 248 315 61 72 247 310 249 314 61 72 249 312 247 316 250 313 251 317 61 72 248 315 251 317 252 318 61 72 251 317 248 315 253 319 254 320 251 317 253 319 254 320 253 319 255 321 254 320 252 318 251 317 256 322 254 320 257 323 254 320 256 324 252 318 256 324 258 325 252 318 258 326 197 327 259 328 254 320 255 321 257 323 258 325 203 251 252 318 259 329 260 330 258 325 55 66 56 67 58 69 59 331 246 309 58 69 186 332 182 221 126 224 261 333 259 329 262 334 261 333 260 330 259 329 260 330 204 252 203 251 263 335 260 330 261 333 204 252 260 330 263 335 204 252 263 335 208 256 263 335 261 333 264 336 265 337 263 335 264 336 265 337 264 336 266 338 265 337 214 262 208 256 267 339 265 337 266 338 268 340 269 341 270 342 164 194 267 339 268 340 177 215 106 123 105 122 189 230 179 218 180 219 226 281 164 194 268 340 271 343 270 342 272 344 50 61 272 345 48 59 50 61 271 346 272 345 273 347 271 346 50 61 267 339 269 341 268 340 101 348 273 347 50 61 273 347 226 349 271 346 273 347 162 282 226 349 101 348 50 61 180 233 99 116 101 118 180 219 273 347 100 290 162 282 100 117 273 350 101 118 100 117 239 302 225 294 237 300 100 117 99 116 100 117 237 300 239 302 274 351 99 116 179 218 274 351 179 218 97 114 274 351 97 114 191 234 191 234 97 114 96 113 240 303 274 351 191 234 237 300 99 116 274 351 274 351 240 303 237 300 238 301 237 300 240 303 191 234 245 308 240 303 245 308 191 234 156 185 242 305 240 303 245 308 153 182 234 297 154 183 56 67 57 68 58 69 37 48 52 352 35 46 91 108 73 90 86 103 94 111 112 129 86 103 73 90 66 81 87 104 67 82 15 20 14 19 82 99 70 87 200 248 214 262 163 193 209 257 73 90 91 108 90 107 269 341 266 338 181 220 95 112 88 105 93 110 111 128 91 108 112 129 150 179 140 169 232 295 86 103 112 129 91 108 161 353 167 354 157 186 159 355 161 353 157 186 32 356 159 355 157 186 167 354 168 357 157 186 168 357 173 207 80 358 173 207 81 209 80 358 32 356 157 186 29 42 28 359 32 356 29 42 26 33 28 359 29 42 12 17 26 33 29 42 168 357 80 358 62 73 80 358 72 360 62 73 72 360 69 361 62 73 69 361 67 362 62 73 67 362 14 363 13 18 6 15 4 10 13 18 14 363 6 15 13 18 4 10 3 364 12 17 157 186 168 357 62 73 19 34 26 33 12 17 3 364 19 34 12 17 62 73 67 362 13 18 252 318 203 251 207 255 113 130 112 129 94 111 182 221 186 332 183 222 55 66 61 72 47 58 77 235 198 245 75 246 90 107 170 204 11 16 73 90 90 107 11 16 95 112 92 109 115 132 55 66 47 58 43 54 43 54 47 58 38 49 199 247 198 245 202 250 113 130 94 111 115 132 82 99 83 100 85 102 184 223 109 126 121 142 206 254 202 250 201 249 121 142 109 126 111 128 128 267 84 101 83 100 207 255 203 251 205 253 209 257 218 266 207 255 11 16 34 45 21 27 11 16 21 27 2 2 11 16 2 2 10 14 125 148 122 147 120 141 163 193 218 266 209 257 108 125 61 72 252 318 178 216 264 336 261 333 63 74 16 22 31 41 216 264 199 247 210 258 34 45 170 204 165 196 68 83 71 88 79 96 74 91 79 96 71 88 140 169 211 259 232 295 262 365 259 366 176 214 267 339 266 338 269 341 182 221 110 127 184 223 196 243 195 367 79 96 197 244 196 243 79 96 175 212 259 366 197 244 175 212 197 244 79 96 68 83 79 96 76 368 195 367 76 368 79 96 175 212 176 214 259 366 182 221 181 220 110 127 216 264 210 258 23 270 186 332 48 369 183 222 48 369 270 342 183 222 185 228 187 227 189 230 188 229 179 218 189 230 218 266 24 268 217 265 75 246 200 248 70 87 75 92 192 237 68 83 68 83 76 93 75 92 87 104 66 81 78 95 45 370 46 371 77 372 193 373 45 370 77 372 231 293 225 294 239 302 205 253 209 257 207 255 252 318 207 255 108 125 201 249 108 125 207 255 215 263 83 100 200 248 111 128 117 134 122 143 33 44 159 188 32 43 92 109 95 112 93 110 210 258 206 254 217 265 121 142 122 143 123 144 176 217 178 216 261 333 221 273 215 263 216 264 157 186 158 187 31 41 170 204 171 205 173 211 199 247 215 263 200 248 88 105 87 104 78 95 215 263 220 374 128 267 34 45 11 16 170 204 172 206 177 215 174 210 188 229 187 227 98 115 221 273 220 374 215 263 103 120 231 293 229 286 128 151 220 271 129 152 110 127 109 126 184 223 236 299 233 296 213 261 222 274 24 268 218 266 212 260 223 289 213 261 213 261 223 289 104 121 153 182 150 179 234 297 206 254 210 258 202 250 193 375 197 327 248 376 45 377 193 375 248 376 197 327 253 378 248 376 40 379 45 377 54 380 44 381 45 377 40 379 197 327 255 382 253 378 256 383 197 327 258 326 197 327 257 384 255 382 256 383 257 384 197 327 41 385 44 385 40 385 45 377 248 376 250 386 39 387 40 379 36 388 45 377 250 386 247 389 36 388 40 379 52 390 37 391 36 391 52 391 45 377 247 389 59 392 40 379 54 380 52 390 45 377 59 392 54 380 54 380 51 393 52 390 247 389 246 394 59 392 57 395 54 380 59 392 106 123 89 106 107 124 106 123 172 206 89 106 178 216 181 220 266 338 203 251 258 325 260 330 107 124 89 106 91 108 270 342 269 341 183 222 183 222 269 341 181 220 265 337 208 256 263 335 264 336 178 216 266 338 164 194 214 262 267 339 176 217 261 333 262 334 271 343 226 281 268 340 272 344 270 342 48 369 268 340 270 342 271 343 214 262 265 337 267 339 140 169 139 168 211 259 200 248 83 100 82 99</p>
        </triangles>
      </mesh>
    </geometry>
  </library_geometries>
  <library_visual_scenes>
    <visual_scene id="scene">
      <node id="left_elbow_link">
        <instance_geometry url="#geometry">
          <bind_material>
            <technique_common>
              <instance_material symbol="scout_1a1a1a" target="#scout_1a1a1a" />
            </technique_common>
          </bind_material>
        </instance_geometry>
      </node>
    </visual_scene>
  </library_visual_scenes>
  <scene>
    <instance_visual_scene url="#scene" />
  </scene>
</COLLADA>