<?xml version='1.0' encoding='utf-8'?>
<COLLADA xmlns="http://www.collada.org/2005/11/COLLADASchema" version="1.4.1">
  <asset>
    <created>2026-09-14T00:00:00Z</created>
    <modified>2026-09-14T00:00:00Z</modified>
    <unit name="metre" meter="1" />
    <up_axis>Z_UP</up_axis>
  </asset>
  <library_effects>
    <effect id="scout_1a1a1a_effect">
      <profile_COMMON>
        <technique sid="common">
          <lambert>
            <emission>
              <color>0 0 0 1</color>
            </emission>
            <ambient>
              <color>0.05 0.05 0.05 1</color>
            </ambient>
            <diffuse>
              <color>0.1 0.1 0.1 1</color>
            </diffuse>
          </lambert>
        </technique>
      </profile_COMMON>
    </effect>
  </library_effects>
  <library_materials>
    <material id="scout_1a1a1a" name="scout_1a1a1a">
      <instance_effect url="#scout_1a1a1a_effect" />
    </material>
  </library_materials>
  <library_geometries>
    <geometry id="geometry" name="pelvis">
      <mesh>
        <source id="positions">
          <float_array id="positions_array" count="774">-0.0642857403 -0.0992791802 -0.0296855625 -0.0691670179 -0.108156502 -0.0542447604 -0.0610069595 -0.120319925 -0.0378198922 -0.0289539509 -0.145891309 -0.0437497683 0.0212581605 -0.146879822 -0.0433100276 0.0127343638 -0.140225202 -0.039663706 0.0477556176 -0.0902195796 -0.0171402283 0.0573630035 -0.0839034542 -0.0172328204 0.0469283909 -0.0646744519 -0.0058171358 -0.0677177981 0.107874729 -0.074996464 -0.0675866082 -0.101974204 -0.0750023574 -0.0503662825 -0.130841419 -0.040430367 -0.0515292548 -0.136105224 -0.0474217311 -0.0550379902 -0.131499782 -0.0751887709 -0.0651445314 -0.118329622 -0.0721478462 -0.0538652427 -0.0754368231 -0.0775979385 -0.0473766327 -0.106465474 -0.0791860595 -0.0545161106 -0.103110105 -0.0758823603 -0.0506430715 -0.092415005 -0.019193884 -0.051041346 -0.107829764 -0.0292212274 -0.0426878221 -0.113268249 -0.0199056137 -0.0458820052 -0.0642047226 -0.00530530512 -0.0546300374 -0.0738875344 -0.0133586293 -0.0647352785 0.0142626176 -0.075387165 -0.0458631665 -0.0885179639 -0.0156393256 -0.0396819711 -0.0393804386 -0.0764358416 -0.0479555167 -0.0536553711 -0.0851814672 -0.0501706488 -0.0522802621 -0.076071471 0.0672160536 0.115757555 -0.0502640121 0.0603025146 0.127888605 -0.0640232936 0.0488310643 0.138659969 -0.0484763831 -0.0397359692 -0.144338995 -0.0675694793 -0.0259568542 -0.147710443 -0.0749838948 0.0270143226 0.0475581773 -0.00156582287 0.0416868329 0.0348081142 -0.00161232706 0.0461276695 0.0633955225 -0.00534564862 -0.0361264907 -0.12777403 -0.0381917432 -0.0371398963 -0.130851001 -0.0761172846 -0.0258522164 -0.12605086 -0.0764999464 -0.0127756977 -0.139503121 -0.0787656456 -0.0438048132 -0.117866181 -0.0242724307 -0.0272766501 -0.133651972 -0.0243173651 -0.0289765485 -0.127444342 -0.0189405289 -0.0212299265 -0.127772123 -0.0146991629 -0.0388285108 -0.111066021 -0.0148066143 -0.0438883007 -0.101862334 -0.0757928938 -0.0434050001 -0.0967265442 -0.00960002746 -0.0309951305 -0.119095527 -0.00962653104 -0.0415991656 -0.0671468973 -0.0765164793 -0.0429507606 -0.0756139681 -0.00975384377 -0.0434322841 -0.0569175705 -0.078980647 -0.0250005368 -0.0492585115 -0.0763575658 -0.0317452438 -0.0441287719 -0.0777063295 -0.0385024957 -0.0400338434 -0.0840098336 -0.0369360633 -0.0469370633 -0.0847133398 -0.025828734 -0.04820228 -0.00151613401 -0.0420001224 -0.034704946 -0.0018023022 0.0459955707 -0.140733868 -0.0596317835 0.0512752049 -0.134302571 -0.0433464423 0.0211390983 -0.151122615 -0.0493825004 -0.0178569872 -0.151567355 -0.0488919355 -0.0167062525 -0.139146581 -0.0397627838 -0.0203393586 -0.133048341 -0.0207465924 -0.00798043516 -0.0413470119 -0.0770273805 -0.0132801179 -0.0360597372 -0.078594856 0.0011761944 -0.0304385312 -0.0760141909 0.00271883467 -0.153370678 -0.0721890405 0.00813241489 -0.146423846 -0.0758651122 -0.00519707752 -0.133858651 -0.0156601686 -0.00699882116 -0.140111327 -0.0245591588 -0.0120994356 -0.129634991 -0.00960645452 -0.0509558246 -0.0140035311 0.00527764251 -0.0606088005 -0.0108630667 0.00405285321 -0.0533449166 -0.0101217125 0.00101346045 -0.0483043827 -0.0231462605 0.000956968404 -0.0301452298 -0.0441484898 0.00514677959 -0.0413108766 -0.0337473229 0.00509702787 -0.0395481735 -0.0249319095 0.00403605914 0.0596479699 -0.125202581 -0.0752405003 0.0683487803 -0.111925364 -0.0546362326 0.0606572069 -0.127583489 -0.0584363192 -0.0426394418 0.0197447222 0.00400110567 -0.0169320498 -0.0506923199 0.00538299698 -0.00881617703 -0.0537955575 -0.00225471309 -0.0162491966 -0.0378979146 0.00268543768 -0.0347481854 -0.0193399992 0.00374346646 -0.0315719619 -0.0161774587 0.00749096833 -0.0121890577 -0.0323606767 0.0075471215 0.0170236081 -0.0512821339 0.00533843227 0.0088270884 -0.0413466655 0.0030394888 0.0471942686 0.132395968 -0.040634647 0.0323673934 0.146393821 -0.0467186868 0.0509553365 0.0949004963 -0.0795375109 0.053758163 0.106643438 -0.0758943856 0.0548031777 0.0712167621 -0.0759415105 -0.0543930121 0.103219181 -0.0758630633 -0.047528334 0.106082588 -0.0793825686 -0.0555197969 0.0751126334 -0.0761301145 -0.0478973351 0.076831542 -0.0786532834 -0.0500703454 0.0936535597 -0.0198484678 -0.0599559881 0.0899276063 -0.0214074943 -0.0537113212 0.0766068622 -0.0127238045 -0.0453493409 0.0808453411 -0.0120810065 -0.04228618 0.125220761 -0.0761575699 -0.0616755784 0.117474489 -0.0360483751 -0.066430822 0.10253562 -0.0360298567 -0.052127216 0.103817403 -0.026589239 -0.0376225933 0.126932099 -0.0382452682 -0.0534892865 0.135103777 -0.0482106097 -0.0474018566 0.137966543 -0.0746817663 -0.061618913 0.122165844 -0.074957341 -0.0396851227 0.0396238714 -0.0765110925 -0.0490056314 0.0514434129 -0.0845684335 -0.0370206945 0.0409688465 -0.0848962367 -0.0502897464 0.0524624065 -0.0763252601 -0.0318750404 0.0452090055 -0.0777680278 -0.043880228 0.0566611588 -0.0797100067 -0.0375380553 0.0605662316 -0.0764979944 -0.0454936773 0.0917348787 -0.075758405 -0.0363569856 0.0784195587 -0.00952347927 -0.0451102704 0.0612970665 -0.00455800351 -0.0443588495 0.103110783 -0.0160075538 -0.0375895388 0.111048736 -0.00958631374 -0.0361261815 0.117366657 -0.077065289 -0.0408621207 0.116037466 -0.0199183337 -0.0384689942 0.125282258 -0.024202954 -0.0287620164 0.123769417 -0.0151111577 -0.025316529 0.130239382 -0.019852018 -0.0265370458 0.145725831 -0.0436888374 -0.0326913036 0.147571921 -0.0514188111 -0.0560227484 0.126765445 -0.0395846069 -0.0205949266 0.150243655 -0.0736393929 -0.0175810587 0.0438924469 -0.0770310089 -0.0162080657 0.0336969122 -0.0766913965 -0.0221728049 0.13323243 -0.0794324651 -0.0126427282 0.132362723 -0.0759871155 -0.0143353157 0.130129367 -0.00959245767 -0.00416489039 0.153591096 -0.0502719097 -0.0182675458 0.141406924 -0.0760546252 -0.0186436083 0.138236523 -0.0398121662 -0.0142104933 0.139280424 -0.0249186363 -0.0104255546 0.135346681 -0.0179559458 0.00841830764 0.0370657444 -0.079264164 0.0670386106 0.110190496 -0.0752099827 0.0410521366 0.123441622 -0.0776578635 0.0123716695 0.151556984 -0.074949868 0.00943736918 0.140730172 -0.0787944049 0.00126115896 0.132832408 -0.0147550432 0.00804604311 0.149910614 -0.0442990325 -0.0526993461 0.0102467667 0.00571055338 -0.0510907099 0.0117651345 0.000264773698 -0.0606484227 0.0109769711 0.00421213359 -0.0496066771 0.0205872636 0.00502454164 -0.0455219373 0.0263693798 8.94964887e-06 -0.0307720285 0.0173267927 0.00747767556 -0.0351050161 0.0190187246 0.00372874388 -0.035454262 0.0407184623 0.00515773892 -0.0411068685 0.0361441933 -0.00144284207 -0.0134848524 0.0436632261 0.00364132901 -0.0116532547 0.033019688 0.00684779696 -0.016880976 0.0521620028 -0.00187471753 -0.0146695226 0.0511506796 0.00537517993 0.0110848481 0.0395625271 0.00304304529 0.011534295 0.0330887921 0.00752462633 0.0103544984 0.0524261631 0.00552598014 0.0199519545 -0.134463057 -0.0793977827 0.0112892902 -0.135163829 -0.0180375613 0.0142916404 -0.139186144 -0.0248204693 0.0228653084 -0.126001686 -0.00963255949 0.0263966639 -0.125407472 -0.0152523927 0.0323795937 -0.0442918204 -0.0791739747 0.0173854399 -0.0453056209 -0.0761734545 0.0330873169 -0.146293685 -0.0730162263 0.0359437838 -0.131974548 -0.0759115741 0.0371247455 -0.127433077 -0.038320601 0.0264520347 -0.129590124 -0.0194085557 0.0385967903 -0.125073373 -0.024217844 0.0126424097 -0.132360965 -0.0759862587 0.0360798389 -0.123719037 -0.079477936 0.0364393778 -0.114100389 -0.075841777 0.0487429909 -0.136433378 -0.074837245 0.0477482565 -0.105876215 -0.0792758688 0.056099657 -0.100685485 -0.0759455264 0.0406200998 -0.116190746 -0.0198580604 0.0411573425 -0.107310534 -0.0150457444 0.0520627312 -0.10399422 -0.026682632 0.0461545177 -0.104874678 -0.0188313741 0.0401789024 -0.105655059 -0.00955476705 0.0454939604 -0.0917357579 -0.0757583603 0.0455455966 -0.0785561949 -0.0107239168 0.0473762378 -0.0681138113 -0.0792803541 0.0419834182 -0.0339186899 -0.00189849152 0.0370350294 -0.0603661649 -0.0759049058 0.0369853079 -0.0407292135 -0.0848942101 0.0434722081 -0.0564560555 -0.0795759559 0.049333401 -0.0518386252 -0.0845332369 0.0509613939 -0.0515193194 -0.0764518678 0.0378751718 -0.0394522212 -0.0758310333 0.0175399724 -0.0518729575 -0.00145597721 0.0328227095 -0.0424085371 0.00246264297 0.0608053096 -0.118762031 -0.0364606008 0.0654197484 -0.103219174 -0.0333095863 0.0487578698 -0.0579505898 -0.0757651776 0.0671955347 -0.108519077 -0.0750018358 0.0140406452 -0.0323751457 0.00750044687 0.0334360078 -0.0318932831 0.00411182316 0.0465531386 -0.0273328535 0.00507458067 0.0399457626 -0.0134564517 0.00317960908 0.0346029513 -0.0087674344 0.00692858407 0.0485381745 -0.0212979987 0.000440345379 0.052906286 -0.0113169281 0.00477417186 0.0174105596 0.141611964 -0.0759221315 0.0121972123 0.0319266953 -0.0759275034 0.0214638468 0.046692349 -0.0764213279 0.0115524381 0.135669485 -0.0190484338 0.0137538826 0.139666006 -0.0253167152 0.021997923 0.127215266 -0.0147266835 0.0159156229 0.128575087 -0.00964044128 0.0197128374 0.137806728 -0.0397540256 -0.000236391876 0.141757444 -0.0400742479 0.032056421 0.0454655588 -0.0783535242 0.0229019877 0.127068296 -0.0762056783 0.0432671197 0.10596256 -0.0763562247 0.0336861163 0.116241753 -0.00951061212 0.0396490358 0.110233307 -0.0150423981 0.0361549295 0.127732232 -0.038159214 0.0298207551 0.131306961 -0.0240847804 0.0283445958 0.128377914 -0.019708056 0.0396988504 0.0392957479 -0.0763110891 0.037388768 0.0406301245 -0.0849642456 0.0472428799 0.0540520474 -0.0850854367 0.0448117256 0.0578334443 -0.0784050599 0.0415782966 0.0671678782 -0.0764966905 0.050718002 0.0513498783 -0.0763921961 0.0588116832 0.0880257115 -0.0194960441 0.0436367169 0.0758477151 -0.0099496413 0.0478661656 0.0923062861 -0.0179686714 0.0436310098 0.0943992883 -0.00976990908 0.0451865308 0.107069455 -0.0187598392 0.0510789566 0.107899837 -0.0293628946 0.0400104038 0.116939962 -0.019556731 0.0438100733 0.117837705 -0.0242834706 0.0311527345 0.148057789 -0.0713905618 0.0534228384 0.13272649 -0.075123474 0.0606906675 0.117180049 -0.0359850861 0.0661668479 0.103993073 -0.035113398 0.0273833517 0.0462940373 0.00523653254 0.0110948831 0.053562358 -0.00218408206 0.0322433598 0.0227386206 0.00378127303 0.0301608667 0.016784275 0.00754016964 0.0326434262 0.0333282277 0.00422714464 0.0492633134 0.0104474537 0.00542623363 0.0464274213 0.0276953094 0.00484923273 0.0529280715 0.0100317905 0.000542579684 0.0605773218 0.010835899 0.00383988651 0.0606537648 -0.0109938979 0.00430836994 -0.0206863098 -0.10140834 -0.0097864233 -0.0683845356 0.113126606 -0.0557193421</float_array>
          <technique_common>
            <accessor source="#positions_array" count="258" stride="3">
              <param name="X" type="float" />
              <param name="Y" type="float" />
              <param name="Z" type="float" />
            </accessor>
          </technique_common>
        </source>
        <source id="normals">
          <float_array id="normals_array" count="1359">-0.95746994 -0.0697392523 0.279978126 -0.973631024 -0.215314418 0.0753811076 -0.894871414 -0.417467505 0.157879904 -0.0760073215 -0.434014916 0.897693694 0.149444789 -0.638167083 0.755254269 0.0305250026 -0.448858529 0.893081307 0.556060672 -0.320977241 0.766661704 0.634656847 -0.225523561 0.739154816 0.397871822 -0.167008638 0.902112007 -0.982210398 0.169238597 -0.0813700259 -0.993454814 -0.0639107823 -0.0946728215 -0.302547485 -0.565450251 0.767288089 -0.277498156 -0.472512186 0.83649689 -0.61114192 -0.744577944 0.268531621 -0.117339976 -0.0319710299 -0.992577016 -0.107863948 -0.0608928949 -0.99229908 -0.534779549 -0.222138584 -0.815270066 -0.267413259 -0.0198977981 -0.963376462 -0.423754215 -0.211525202 -0.880732358 -0.241990909 -0.0585234091 -0.968511939 -0.475750834 -0.315713137 0.820966721 -0.436347753 -0.373706043 0.818501353 -0.0706592724 -0.511536896 0.856351137 -0.790602744 -0.317068487 0.523846269 -0.675416887 -0.377005458 0.633781493 -0.354063392 -0.186162189 0.916505754 -0.625677526 -0.211383417 0.750895917 -0.0881925747 -0.000802436902 -0.996103108 -0.396852523 -0.319294751 0.860557318 -0.786153734 0.582381487 -0.206867337 -0.765606701 0.594428897 -0.245968863 -0.750117958 0.602191627 -0.273291707 0.934884369 0.332909435 0.123136282 0.79851383 0.597014785 -0.077129513 0.570712626 0.770032823 0.285195649 -0.454433054 -0.876973093 -0.156233266 -0.705422819 -0.704370916 -0.0789952576 -0.270481676 -0.952367008 -0.14084284 0.0616958402 0.160647035 0.985081792 0.523610353 0.0298526883 0.851434708 0.394989163 0.173282579 0.902195513 -0.412544459 -0.892487824 0.182407513 -0.0760570243 -0.3643502 0.928151011 -0.107443094 -0.127192914 -0.986041546 0.665428877 0.693396509 -0.276415944 -0.805536687 -0.592103422 -0.0228961483 -0.65303874 -0.75591737 0.0461441241 -0.752236485 -0.55413872 0.356469542 -0.466031998 -0.814007998 0.346706241 -0.476283193 -0.560001969 0.677902758 -0.380633473 -0.735896528 0.559977174 -0.643950522 -0.392307252 0.656827807 0.516842604 0.218483329 -0.827731073 0.40007031 0.0462744385 -0.915315509 0.0528525896 0.0980839357 -0.993773699 -0.957267225 -0.255667776 0.135179207 -0.947183371 -0.050666824 0.316664606 -0.802487373 -0.412612021 0.431005061 -0.759731889 -0.422070354 0.494635344 0.737131238 -0.062630564 -0.672841012 -0.914866626 0.0226199385 0.403122008 0.104460515 -0.0866932124 -0.990743279 0.207496136 -0.170502737 -0.96326226 -0.0542443693 -0.28443417 0.957159758 -0.000237000582 0.0525293238 -0.998619378 -0.326644152 0.113964632 -0.938251376 -0.128793761 0.0856748372 -0.987963557 -0.571249068 -0.820639133 -0.0150303999 0.025135383 -0.0497676358 -0.998444498 0.118290722 -0.109487198 -0.986924469 -0.017175803 0.0975113735 -0.995086193 0.722104907 -0.631824672 -0.2817128 0.525423706 -0.654359579 -0.543823004 0.654481709 -0.648893833 -0.388059825 0.734939873 0.23171629 -0.637315452 -0.801910996 0.571488798 -0.174181685 0.514111459 0.857701898 0.00606703851 -0.0553255305 -0.163887203 0.984926403 -0.104104623 -0.103757992 0.989139259 0.540891469 -0.84076649 0.0234121457 0.483088195 -0.684596419 0.545851171 0.208180055 -0.936675906 0.28160134 -0.146716014 -0.928791344 0.340324879 -0.0504280142 -0.438775122 0.897180796 -0.266092271 -0.745714605 0.610822916 -0.685799479 -0.722974002 -0.0835927278 -0.0193297639 -0.194243506 -0.980762899 0.0225596707 -0.263309538 -0.964447618 -0.38523066 0.902675867 0.191764623 0.0238237102 -0.482029825 -0.875830829 -0.0254894514 -0.120669477 -0.99236542 0.063174054 -0.401674956 -0.913600683 -0.324360549 -0.94147408 0.0917432532 -0.0624929219 -0.795080006 0.603276372 -0.115693107 -0.942629993 0.313151479 -0.248625815 -0.878984571 0.406904519 -0.175044 -0.774908781 -0.607351601 -0.903333485 -0.366944194 0.222127423 -0.915400088 -0.355083942 0.189626247 -0.853974581 -0.421172917 0.305517226 -0.592511475 -0.796118498 0.122985743 -0.773834467 -0.605712414 0.185182691 -0.757627726 -0.636045873 0.146443948 0.117224954 0.0510941297 0.991790175 0.112474784 0.0965343118 0.988954246 0.105571069 0.14140974 0.984305859 0.052053228 0.00340343686 0.998638511 0.823515236 -0.552232742 -0.129852593 0.967472136 -0.246486679 0.056938719 0.805618167 -0.592177391 0.0174733531 0.0992494822 -0.0351190083 0.994442642 -0.268235832 -0.947646916 0.173248023 -0.469783276 -0.869286299 0.153769195 -0.0768707395 -0.958603084 0.274173319 0.0638187602 0.167818055 0.983750105 0.0425461829 0.207207784 0.977371335 0.0594024919 0.00124189421 0.998233318 -0.636145234 -0.214617491 0.741119802 -0.58283937 -0.306435466 0.752592564 -0.256541461 -0.531046927 0.807573915 -0.129153609 -0.329869866 0.935149848 0.266343504 -0.95471859 0.132565156 -0.0333071426 0.186964795 0.981801808 -0.0644558519 0.17841734 0.981841505 -0.0156074837 -0.477248162 0.878629923 0.286968112 0.55138123 0.78334415 0.180468887 0.532674491 0.826854765 0.0151235582 -0.999817193 -0.0116990656 0.666139364 0.0423847996 -0.744621992 0.218519792 0.0528716817 -0.974399149 0.202066138 -0.0322670043 -0.978840172 -0.249412492 0.052864112 -0.966953337 -0.498473138 0.185700938 -0.846781969 -0.201194808 -0.00894693285 -0.979510367 -0.310887277 -0.0163112711 -0.950306833 -0.528398216 0.348184317 0.774314582 -0.284506649 0.444459438 0.849418521 -0.246370584 0.381964177 0.890732765 -0.318072885 0.225727096 0.920802295 -0.100470625 0.0959061161 -0.990306854 -0.870442331 0.399625957 0.287452996 -0.929048061 0.144840106 0.340427697 -0.882822037 0.0363211855 0.468301147 -0.126533911 0.466568738 0.875387192 -0.455178827 0.452566355 0.766808927 -0.0892855451 0.365540683 0.926503181 -0.630124092 0.736711383 0.245356902 -0.591928959 0.801638305 -0.0836427882 -0.833398402 0.545723021 -0.0873700455 -0.679059565 -0.695528269 -0.234773263 -0.736212432 -0.665248275 -0.124241628 -0.629630923 -0.710590899 -0.314046949 -0.145791605 -0.0280959308 -0.988916278 -0.0938158333 -0.00504733436 -0.995576799 0.586787283 -0.807739973 0.0568926819 0.352050036 0.428846687 -0.831956267 0.392845154 0.279555678 -0.876082957 0.499431908 0.460783482 -0.733652711 0.169284657 0.159192204 -0.972625613 -0.770627081 -0.635937929 -0.0414353609 -0.398101121 -0.0737265199 -0.914374053 0.422145724 0.108035877 -0.900067329 0.200181961 0.102953807 -0.974334478 0.453767687 -0.0275133178 -0.890695155 -0.099273704 0.163541153 0.981528938 -0.070423156 0.255203158 0.964319408 -0.901819229 -0.431782603 -0.016906593 -0.788672626 0.256223112 0.558878481 -0.0341029018 0.000636374927 0.999418139 0.827329874 -0.0244283285 -0.561184943 0.307404965 -0.116681367 -0.944398046 0.0208914056 0.00244961306 -0.999778748 -0.648051083 0.41935721 0.635743141 -0.649708569 0.655709147 0.384609282 -0.764991164 0.144705117 0.627573848 -0.766456485 0.613905072 0.188851818 -0.556930125 0.624366105 0.547718704 -0.796067953 0.596601486 0.101698086 -0.644984722 0.762247562 0.0545280874 -0.515414715 0.621059597 0.590451241 -0.409400672 0.71264261 0.569676757 -0.196707457 0.678276002 0.70798856 -0.369996935 0.908276677 0.19528386 -0.659920037 0.627686918 0.412934273 -0.229313836 0.970636964 -0.0726567879 0.00583729474 0.0272328705 -0.999612093 0.012265699 -0.0363968611 -0.999262154 -0.0380960107 0.0675309449 -0.996989608 0.118684687 -0.368761927 -0.92191571 -0.503256321 0.61353159 0.608532727 -0.0412659273 0.961322546 0.272316068 -0.0668401122 0.107178733 -0.991990507 -0.0910108238 0.307190835 -0.94728601 -0.0706716329 0.375298053 0.924206078 -0.0652718693 0.390269637 0.918384016 -0.254892677 0.917101383 0.306520462 -0.377381206 0.924838722 0.0475047939 -0.136137545 0.702468455 0.698573232 -0.0616635121 0.24800159 -0.966795146 0.0233866069 -0.155161798 -0.987612188 0.0652772933 0.0132404082 -0.99777931 0.133958161 0.154502615 -0.978868783 0.0110459393 0.121823177 -0.992490351 -0.0796345621 0.412944406 -0.907268047 0.181829453 -0.708561838 -0.681819797 -0.268278927 0.9020226 -0.33820352 0.0180186331 0.734117925 0.67878288 0.0867789388 0.735736847 0.671684921 0.0357356146 0.959863782 0.278180689 -0.893217981 0.373100966 -0.250912875 -0.927311242 0.286157519 -0.241262794 -0.941663086 0.268142253 -0.20339705 0.037302807 -0.00496643782 0.999291658 -0.852940798 0.521857798 -0.0125077032 -0.555375993 0.297978401 0.776380301 -0.202072814 0.0966796428 0.974586904 0.14231661 -0.0250905305 0.989503145 -0.831650734 0.489272803 0.262619793 -0.811594546 0.425964803 0.399835318 0.0874222666 -0.100517124 0.991087079 0.00605030917 -0.0303804036 0.999520123 -0.0865011811 0.198526606 0.976270854 -0.538752258 0.840673089 -0.0549067333 -0.2913315 0.939579308 0.179768533 -0.549851894 0.82882458 -0.103502095 0.0472218506 -0.218248919 0.974749982 -0.218376219 0.955180466 0.199855119 0.976081848 0.200779706 -0.0833773613 0.0433491245 0.108886518 0.993108571 0.140814602 0.351984024 0.925353169 0.139651999 0.977712691 0.15676485 -0.0262464471 -0.141431153 0.989600122 0.0293354113 -0.309688985 -0.950385273 0.216284126 -0.452081323 -0.865357518 0.223817572 -0.974431634 0.0197154228 -0.277092665 -0.960438013 0.0279021226 0.142941818 -0.669272363 0.729137897 0.263878554 -0.918343127 0.29498142 0.0806845725 -0.771929026 0.63056767 0.551814139 -0.601726472 0.577430785 0.257231057 -0.964506865 0.0596547648 0.0377650037 0.134672016 -0.9901703 0.111091599 0.452088416 -0.885028064 0.0453449041 0.318128288 -0.946962655 -0.08610484 -0.600752175 -0.794784725 -0.0891329721 -0.719674289 -0.688566804 0.372597069 -0.925760031 -0.0643408224 0.107607476 -0.361707866 -0.926060498 0.169499621 -0.219489396 -0.960777938 0.129618794 -0.407295883 0.904051483 0.430795997 -0.70541954 0.562848151 0.664093494 -0.650389552 0.368745595 0.631476521 -0.774001181 0.0464704894 -0.0927068666 0.378793985 -0.920826018 -0.316779286 0.352596581 -0.880526304 -0.252115309 0.483626306 -0.838178694 -0.244281694 0.181571141 -0.95255363 0.0590342134 -0.119991444 -0.991018176 0.457934856 -0.358899355 -0.813318431 0.0459564105 -0.0344960988 -0.99834764 0.624983549 -0.770470798 -0.125579864 -0.410902411 0.192966372 -0.891023695 0.486687779 -0.2432843 -0.839015961 0.430428088 -0.0650003925 -0.90028137 0.642847657 -0.439456284 0.627395511 0.755034924 -0.389054358 0.527786911 0.815484047 -0.349238813 0.461538702 0.726513207 -0.271239072 0.631354094 0.881399751 -0.381952435 0.27793318 0.704080701 -0.600573778 0.378921598 -0.0943560079 0.0144796837 -0.995433211 0.337735951 -0.257711262 0.90527308 -0.857088029 -0.00850486849 -0.515099764 0.498726487 -0.0302871596 0.86623013 -0.0638540015 -0.0196992811 -0.997764826 -0.379881948 -0.106729686 -0.918857157 -0.529806912 -0.459576726 -0.712807059 -0.480234593 -0.452237397 -0.751569092 -0.411839724 -0.43976754 -0.798118174 -0.36188677 -0.429126233 -0.827579975 0.572390854 -0.815761685 -0.0830760896 -0.607487381 -0.793308794 -0.0402512923 -0.180666074 -0.109369628 -0.977444649 -0.153307959 -0.0921186954 -0.983875394 -0.18755202 -0.113712423 -0.97565043 -0.100523785 -0.0588488802 -0.993192732 -0.644984961 0.762917936 -0.0441666692 0.663038492 0.730361104 -0.164172709 0.663589418 0.729366064 -0.16635561 0.663967073 0.728677154 -0.167860806 0.662579894 0.731180489 -0.162366986 0.0251319502 -0.270196915 0.962477028 0.749164879 -0.660288453 0.052640982 0.586152196 -0.782481134 -0.210116357 0.306591332 -0.949147522 0.0715591013 0.606605828 -0.510007203 0.609854162 0.191030219 -0.471744716 0.860792875 0.874922276 -0.195248008 0.44315818 0.692509055 0.1298493 -0.709626913 0.583423436 -0.0074099726 -0.812134326 0.599325716 -0.0228334833 -0.800179541 0.514090657 -0.263303012 -0.816322446 0.978638709 -0.18720226 -0.0849799141 -0.606205761 0.772302628 -0.189903095 0.259035319 -0.363183379 0.894985199 -0.105252489 0.121999763 0.986933649 -0.0976125747 0.0711974055 0.99267453 0.49021399 -0.181750372 0.852441847 0.539405584 -0.604788482 0.585894644 0.368035972 -0.0347383544 0.929162383 0.425201148 -0.516082406 0.743547499 0.875626266 -0.474762708 -0.0887640044 0.918638051 -0.35458234 -0.174285829 -0.0382921286 0.00733288517 0.999239683 -0.1227751 0.0396626107 0.991641641 0.84873724 -0.151444584 -0.50666523 -0.00446578953 0.959366322 -0.282128125 0.0528771617 -0.21258074 -0.975711763 -0.0693961084 0.215360537 -0.974065721 0.159686133 0.746483624 0.645958602 0.227432981 0.92445296 0.306040704 0.359787375 0.642071426 0.676976562 0.0432993695 0.82535553 0.562950611 0.305530816 0.929195404 0.207958654 0.0706763491 0.856839478 0.510716081 0.492428511 0.81871891 0.295319349 0.103487596 0.227104917 -0.968356192 0.107842885 0.438634753 0.892171204 0.000641978346 -0.077567935 -0.996986866 0.306800753 0.949780464 0.0615663677 -0.151031137 0.203249827 -0.967408478 0.0727811083 -0.278369933 -0.957712412 -0.0574884266 0.113689922 0.991851628 -0.0131920036 0.246263653 0.969113111 -0.717302799 -0.692674816 0.0753548518 0.678573847 0.734142363 0.0239277072 0.692528725 0.720488012 -0.0360686779 0.188540772 0.282953918 -0.940419853 0.0637195185 0.346017838 0.93606168 0.529733479 0.774481297 0.34577617 0.453869939 0.617902339 0.64202708 -0.635539412 -0.770390987 0.050866358 -0.563814163 0.458742827 -0.686781347 -0.577063084 0.540837705 -0.611958086 -0.550213158 0.397324324 -0.734437764 -0.582278192 0.598223507 -0.550527632 0.69655031 -0.59475565 -0.401351988 0.735277116 -0.582218885 -0.346970767 0.769453228 -0.567563474 -0.292939186 -0.211683974 0.0451881588 -0.976292968 -0.206916943 0.126660123 -0.97012502 0.750561416 0.653663933 -0.0968554169 0.264089376 0.439348102 0.858621001 0.120276175 0.273185164 0.954412639 -0.27188158 -0.0602094904 -0.960445344 -0.384889722 0.00260600518 -0.92295891 0.865394115 0.158661172 0.475310117 0.883391201 0.206261262 0.420804292 0.888020992 -0.00418113265 0.459783942 -0.0392389745 -0.223226026 -0.973976612 -0.0129656373 -0.0458090678 -0.998866081 0.704539895 0.371253252 0.604809463 0.803149343 0.360039175 0.474681944 0.735162258 0.253993928 0.628509045 0.156449169 0.470906883 0.868199527 0.575926483 0.4898206 0.654510856 0.755308092 0.562722325 0.335936457 0.647418857 0.759898424 0.0583373234 0.855603099 0.376441926 0.35529539 0.25383091 0.560625196 -0.788206339 0.679157615 0.718753278 -0.148790523 0.342081457 0.939637899 0.0078016175 0.657414317 -0.603998899 -0.450545967 0.299451858 -0.0481528752 -0.952895522 0.292506039 0.446145505 0.845809877 0.58114177 0.503656983 0.63922137 0.861501157 0.0369199626 0.506411552 0.902978897 0.183503255 0.388530165 -0.00158136699 -0.281232119 0.959638476 0.029911954 -0.00468729995 -0.999541521 0.0762887374 -0.0123032453 -0.997009873 -0.0708339512 -0.134408534 0.988391042 0.519794762 0.841486871 0.147354051 0.488075465 0.86214751 0.13595593 0.15753369 0.974668324 0.158760086 0.487565637 0.349027127 0.800287366 0.417489737 0.139680594 0.897881746 -0.0817732587 -0.071664311 0.994071126 -0.109734513 -0.0389547236 0.993197322 -0.0324774571 -0.0249803476 0.99916023 -0.0426858775 0.00588117866 0.99907124 0.893352568 0.385196328 -0.231397897 0.674891889 0.698415935 0.238193557 0.677271068 0.688063025 0.260524839 -0.0512474738 0.991105795 -0.122812815 0.796830773 0.150590077 0.585135281 0.121615246 -0.000251145742 0.992577314 0.0591022 0.0216251723 0.998017669 -0.0653890446 0.0168796256 -0.997717083 -0.786199749 0.00219276361 0.617968559 -0.0688790455 0.0443286002 -0.996639669 -0.0461726412 0.000864564383 -0.998933077 -0.0940359682 0.000422788144 -0.995568693 0.000815531064 0.102257684 -0.994757593 0.00222292636 -0.0536967106 -0.998554826 0.125515074 -0.00712182 -0.992066145 0.067190282 -0.00964403804 -0.997693598 -0.210800573 -0.032092154 -0.977002144 -0.00341442833 0.00177572866 -0.999992609 -0.174012452 -0.19452998 -0.965338171 0.00636184216 0.00857336354 0.999943018 0.00944003556 0.00599780865 0.999937475 0.00539658591 0.00589443371 0.999968052 -0.681922853 0.000933516829 0.731423557 -0.618826866 -0.000788057048 0.78552705 -0.347582191 0.000462293421 -0.937649429 -0.126578867 -0.0110581974 -0.991894901 -0.300715059 0.00595454639 -0.953695416 0.0387280285 0.0327193104 -0.99871397 -0.385393441 0.00514171412 -0.922738016 -0.330189228 0.00895173941 -0.943872333 0.378042042 0.925700843 0.0127351806 -0.953986645 0.29616186 0.0468789227 0.03476578 0.252565205 -0.966955125 -0.203398257 -0.0132045774 -0.979007065 -0.386513442 0.00602470385 -0.922264099 -0.383187145 0.00738503877 -0.923641205 0.105837382 0.994322181 -0.0110379066 -0.00464015082 0.998267651 0.0586533286 -0.426352948 -0.76346308 0.485126078 -0.00282545993 0.00125277403 0.999995232 0.000967261323 0.0066699367 0.999977291 0.31057325 0.00314911478 -0.950544238 0.201745033 -0.011195044 -0.979374111 0.150210664 -0.0178217217 -0.988493383 0.418483198 -0.64161104 -0.642811894 0.326911777 0.00534565514 -0.945039749 8.02065097e-06 0.00446427194 0.999990046 0.0332535356 -0.000397422002 0.999446869 0.00152908172 0.301147401 0.953576386 0.00148338766 -0.00312018627 0.99999404 -0.0017477877 0.00415354408 0.999989867 0.00479761604 -0.00968621112 0.999941587 0.00103970699 0.000891187869 0.999999046 -0.00187236746 0.0276928861 0.999614716 -0.690781891 0.005040891 0.723045588 0.81768173 -0.112730421 -0.564525008 0.397406489 -0.0182977151 -0.917460263 0.0522903837 -0.157409608 -0.986148 0.307617843 -0.0570812263 -0.949796259 -0.0508059412 -0.194129258 -0.979659438 -0.14458102 -0.0235086307 0.989213645 -0.185900405 -0.00750298006 0.982539952</float_array>
          <technique_common>
            <accessor source="#normals_array" count="453" stride="3">
              <param name="X" type="float" />
              <param name="Y" type="float" />
              <param name="Z" type="float" />
            </accessor>
          </technique_common>
        </source>
        <vertices id="vertices">
          <input semantic="POSITION" source="#positions" />
        </vertices>
        <triangles material="scout_1a1a1a" count="512">
          <input semantic="VERTEX" source="#vertices" offset="0" />
          <input semantic="NORMAL" source="#normals" offset="1" />
          <p>0 0 1 1 2 2 3 3 4 4 5 5 6 6 7 7 8 8 9 9 10 10 1 1 11 11 2 12 12 13 10 14 13 15 14 16 15 17 16 18 17 19 18 20 0 21 2 12 18 20 2 12 19 22 18 20 19 23 20 24 21 25 0 21 18 20 21 25 22 26 0 21 23 27 15 17 17 19 18 20 24 28 21 25 25 29 26 30 27 31 28 32 29 33 30 34 31 35 13 36 32 37 33 38 34 39 35 40 3 41 12 13 31 35 11 11 12 13 3 41 36 42 11 11 3 3 17 19 16 18 37 43 16 44 38 44 39 44 19 22 11 11 36 42 19 45 36 46 40 47 41 48 40 47 36 46 42 49 40 47 41 48 42 49 20 24 40 47 43 50 20 24 42 49 44 51 20 24 43 50 16 52 45 53 38 54 20 24 19 23 40 47 24 28 18 20 20 24 24 28 20 24 44 51 46 55 24 56 44 57 46 55 44 57 47 58 16 52 48 59 45 53 49 60 24 56 46 55 15 17 48 61 16 18 15 17 50 62 48 61 49 63 21 25 24 28 27 64 50 65 15 66 27 67 26 67 50 67 50 62 51 68 48 61 50 62 52 69 51 68 53 70 54 70 26 70 52 71 50 72 54 73 53 74 52 74 54 74 25 29 53 75 26 30 25 76 52 76 53 76 55 77 56 78 21 25 57 79 58 80 59 81 60 82 31 35 32 37 61 83 36 42 3 3 62 84 42 49 41 48 43 50 42 49 62 84 44 85 43 85 47 85 52 69 63 86 51 68 64 87 63 86 52 69 52 88 65 88 64 88 66 89 32 90 67 91 4 4 3 3 60 82 39 92 67 92 37 92 5 5 61 83 3 3 43 50 62 84 68 93 69 94 62 84 41 48 68 93 62 84 69 94 70 95 43 50 68 93 71 96 72 96 73 96 71 97 73 98 74 99 75 100 76 101 56 102 77 103 76 104 75 105 71 97 74 99 76 101 76 101 74 99 56 102 77 103 71 106 76 104 78 107 79 108 80 109 81 110 71 106 77 103 82 111 55 112 83 113 75 100 56 102 55 112 84 114 77 103 75 105 82 111 75 100 55 112 84 114 75 105 82 115 85 116 77 103 84 114 86 117 85 118 84 119 87 120 86 117 84 119 88 121 82 111 83 113 89 122 84 114 82 115 89 122 82 115 88 123 87 120 84 119 89 124 58 80 57 79 80 109 90 125 30 34 91 126 60 82 32 37 66 127 92 128 93 129 94 130 95 131 96 132 97 133 97 133 96 132 98 134 99 135 100 136 101 137 102 138 99 135 101 137 103 139 96 132 95 131 104 140 105 141 100 142 104 143 100 136 106 144 106 144 100 136 99 135 107 145 104 143 106 144 108 146 109 147 110 148 111 149 112 150 113 151 114 152 111 153 23 27 115 154 111 154 113 154 112 155 116 156 113 157 116 156 115 158 113 157 114 159 112 150 111 149 97 133 116 160 114 152 98 161 117 162 116 156 116 156 117 162 115 158 97 133 98 134 116 160 98 161 118 163 117 162 119 164 101 137 120 165 119 164 102 138 101 137 10 10 14 166 1 1 121 167 99 135 102 138 122 168 102 138 119 164 96 169 118 163 98 161 96 170 123 171 118 163 124 172 106 144 99 135 121 167 124 172 99 135 125 173 106 144 124 172 122 174 121 167 102 138 122 175 126 176 121 177 103 139 123 171 96 170 125 173 107 178 106 144 126 179 124 172 121 167 125 173 124 172 127 180 108 146 128 181 129 182 128 181 108 146 130 183 129 182 131 184 109 147 115 158 132 185 133 186 117 162 132 185 115 158 134 187 135 188 123 171 127 180 124 172 126 179 122 175 136 189 126 176 131 184 129 182 137 190 103 139 134 187 123 171 109 191 138 192 103 139 103 139 138 192 134 187 128 181 130 193 107 145 139 194 128 181 107 145 107 178 140 195 139 196 125 173 140 195 107 178 140 195 125 173 127 180 141 197 127 180 126 179 140 195 127 180 141 197 109 191 131 198 138 192 128 181 137 190 129 182 132 185 142 199 133 186 143 200 144 201 145 202 138 192 146 203 134 187 146 204 135 188 134 187 136 205 147 205 126 205 141 197 126 179 147 206 131 198 145 202 138 192 148 207 128 181 139 194 137 190 128 181 148 207 149 208 150 208 151 208 152 209 150 210 149 211 81 110 149 212 71 106 152 209 153 213 150 210 154 214 155 215 86 117 81 110 152 216 149 212 156 217 153 213 152 209 156 217 157 218 153 213 156 219 152 216 81 110 158 220 81 110 155 215 154 214 159 221 155 215 12 13 14 166 13 36 156 222 160 223 157 224 156 219 81 110 158 220 158 220 155 215 159 221 161 225 156 219 158 220 156 222 161 226 160 223 28 32 143 227 29 33 162 228 158 220 159 221 163 229 162 228 159 221 161 226 164 230 160 223 164 231 161 225 158 220 67 91 39 232 165 233 5 234 69 94 61 235 68 93 69 94 166 236 69 94 167 237 166 236 168 238 70 95 68 93 169 239 68 93 166 236 168 240 68 240 169 240 65 241 170 242 64 243 170 244 171 245 63 86 59 81 66 127 172 246 67 91 172 247 66 89 165 233 173 248 67 91 174 249 5 5 4 4 175 250 166 236 167 237 169 239 166 236 175 250 175 250 167 237 176 251 174 252 167 237 5 234 176 251 167 237 174 252 177 253 178 254 165 255 177 253 179 256 178 254 180 257 172 247 67 91 165 233 178 258 173 248 173 248 78 259 180 257 57 79 172 246 180 260 58 80 4 4 59 81 58 80 174 249 4 4 179 256 181 261 178 254 178 258 181 262 173 248 181 262 182 263 173 248 183 264 175 250 176 251 183 264 169 239 175 250 184 265 169 239 183 264 185 266 176 251 174 252 186 267 183 264 176 251 169 239 187 268 168 269 187 268 169 239 184 265 188 270 181 261 179 256 186 267 184 265 183 264 57 79 59 81 172 246 189 271 187 268 184 265 6 6 184 265 186 267 190 272 181 272 188 272 189 271 184 265 6 6 191 273 35 40 34 39 192 274 190 275 188 270 8 8 189 271 6 6 170 276 193 277 194 278 193 277 195 279 194 278 196 280 194 280 195 280 190 281 192 281 171 281 170 282 190 283 171 284 170 282 194 285 190 283 197 286 193 286 170 286 196 287 193 288 197 289 193 288 196 287 195 290 191 273 198 291 8 8 191 292 199 293 198 294 80 109 180 260 78 107 200 295 174 249 58 80 185 266 186 267 176 251 185 266 6 6 186 267 200 295 185 296 174 249 7 7 6 6 185 296 7 7 185 296 200 295 201 297 7 7 200 295 190 298 182 263 181 262 194 299 202 300 190 298 202 300 182 263 190 298 196 301 202 300 194 299 67 91 32 90 37 43 203 302 79 108 78 107 201 297 200 295 79 108 203 302 28 32 79 108 112 303 114 303 116 303 88 121 83 113 198 294 204 304 87 120 89 124 88 123 205 305 89 122 88 121 198 294 199 293 206 306 205 305 88 123 207 307 204 304 89 308 208 309 204 304 207 307 206 310 88 310 199 310 206 311 199 293 191 292 209 312 206 311 191 292 210 313 205 305 206 306 210 313 207 314 205 305 209 312 210 315 206 311 211 316 146 316 138 316 133 186 142 199 212 317 132 185 213 318 142 199 140 195 214 319 215 320 141 197 147 206 214 319 214 319 147 206 216 321 136 322 217 323 147 324 217 323 216 325 147 324 145 202 211 326 138 192 141 197 214 319 140 195 148 207 139 194 218 327 218 328 139 328 219 328 148 207 91 329 137 190 213 318 220 330 142 199 142 199 220 331 212 317 120 165 157 332 160 333 221 334 146 334 222 334 217 323 223 335 216 325 216 325 223 335 224 336 211 326 144 201 146 337 145 202 144 201 211 326 90 125 218 327 225 338 226 339 215 320 214 319 214 319 227 340 226 339 227 340 214 319 216 321 91 126 148 207 218 327 91 126 218 327 90 125 228 341 220 341 229 341 220 342 230 343 229 344 231 345 230 343 220 342 230 346 228 347 229 348 213 318 232 349 220 330 232 349 231 350 220 330 231 351 233 351 230 351 234 352 235 353 35 40 222 354 92 355 232 349 236 356 237 357 235 358 146 359 221 360 135 188 144 201 92 355 222 354 224 361 223 362 237 357 224 361 237 357 236 356 238 363 224 361 236 356 146 337 144 201 222 354 90 125 225 338 239 364 240 365 216 321 224 361 240 365 227 340 216 321 241 366 227 340 240 365 241 366 226 339 227 340 226 339 241 366 225 367 240 365 224 361 238 363 225 367 241 366 239 368 238 363 241 366 240 365 242 369 243 369 145 369 30 34 243 370 242 371 230 346 233 372 228 347 92 128 94 130 231 373 92 355 231 350 232 349 234 352 236 374 235 353 244 375 234 376 245 377 241 366 238 363 239 368 239 368 238 363 236 356 239 364 236 374 234 352 239 364 234 352 244 375 243 370 29 33 143 227 30 34 90 125 244 375 30 34 244 375 28 32 28 32 245 377 79 108 79 108 245 377 201 297 21 25 8 8 83 378 196 379 143 200 203 380 12 13 2 2 14 166 28 32 244 375 245 377 246 381 164 231 158 220 246 381 158 220 162 228 164 230 246 382 33 383 164 230 33 383 247 384 248 385 163 229 249 386 163 229 248 385 162 228 250 387 162 228 248 388 246 381 162 228 250 387 248 385 249 386 208 309 251 389 250 387 248 388 252 390 250 387 251 389 34 391 252 391 253 391 246 382 34 392 33 383 34 392 246 382 252 393 246 381 250 387 252 390 251 389 207 314 210 313 254 394 253 394 251 394 252 395 251 395 253 395 254 396 251 389 210 313 255 397 254 396 210 313 60 82 59 81 4 4 130 193 104 143 107 145 10 14 9 398 23 27 155 215 81 110 77 103 85 116 155 215 77 103 69 94 41 48 61 235 8 8 21 25 189 271 143 200 93 129 144 201 170 244 63 86 64 87 22 26 101 399 100 142 32 90 13 15 37 43 17 19 13 15 10 14 37 43 13 15 17 19 10 14 23 27 17 19 23 27 9 398 97 133 9 398 110 400 103 139 110 400 109 191 103 139 95 131 9 398 103 139 23 27 27 64 15 66 9 398 95 131 97 133 52 401 25 402 115 158 23 27 25 402 27 64 65 241 52 401 133 186 25 402 23 27 111 153 97 133 114 152 23 27 25 402 111 153 115 158 52 401 115 158 133 186 65 241 133 186 212 317 197 403 65 241 212 317 196 379 197 403 228 404 197 403 212 317 228 404 212 317 220 331 228 404 228 404 233 405 196 379 182 406 202 407 196 379 196 379 233 405 94 130 233 405 231 373 94 130 173 248 182 406 78 259 78 259 182 406 203 380 196 379 203 380 182 406 143 200 94 130 93 129 145 202 243 408 143 200 16 18 39 409 37 43 242 371 91 329 30 34 234 376 7 7 201 297 256 410 46 411 47 412 256 410 49 63 46 411 120 413 21 25 157 414 66 127 59 81 60 82 74 415 150 416 153 417 192 274 188 270 63 86 171 418 192 274 63 86 188 270 179 256 63 86 48 61 177 253 45 53 63 86 179 256 48 61 63 86 48 61 51 68 48 61 179 256 177 253 45 53 177 253 38 54 5 234 167 237 69 94 89 122 205 305 207 314 31 35 60 82 3 41 56 419 153 417 157 420 1 1 14 166 2 2 215 320 226 339 218 421 226 339 225 367 218 421 105 141 104 140 257 422 110 148 9 9 257 422 85 118 86 117 155 215 177 253 165 255 39 423 101 399 22 26 120 413 150 416 74 415 73 424 72 425 151 426 73 424 73 424 151 426 150 416 100 142 0 0 22 26 131 184 137 190 145 427 108 146 257 422 104 140 104 140 130 183 108 146 109 147 108 146 129 182 219 428 215 320 218 421 43 50 70 95 47 429 2 12 11 11 19 22 49 63 189 271 21 25 197 403 170 242 65 241 139 196 140 195 219 428 189 271 49 63 256 410 168 430 256 410 70 431 47 412 70 431 256 410 0 0 100 142 105 141 209 432 34 433 253 434 1 1 257 422 9 9 55 77 21 25 83 378 54 73 50 72 26 435 191 436 34 433 209 432 83 378 8 8 198 291 1 1 105 141 257 422 56 419 74 415 153 417 80 109 57 79 180 260 38 54 177 253 39 423 242 371 137 190 91 329 35 40 191 273 8 8 235 353 120 165 35 40 257 422 108 146 110 148 221 360 222 354 135 188 135 188 222 354 232 349 135 188 232 349 123 171 123 171 232 349 118 163 118 163 232 349 213 318 118 163 213 318 117 162 117 162 213 318 132 185 200 295 58 80 80 109 79 108 200 295 80 109 203 302 143 227 28 32 67 91 173 248 180 257 8 8 234 376 35 40 249 386 163 229 86 437 208 309 249 386 87 120 249 386 86 437 87 120 159 221 154 438 86 437 159 221 86 437 163 229 204 304 208 309 87 120 215 320 219 428 140 195 235 353 119 164 120 165 105 141 1 1 0 0 247 439 33 38 35 40 223 440 217 441 119 164 237 442 223 440 235 353 119 164 136 443 122 168 136 443 119 164 217 441 145 427 137 190 242 371 234 376 8 8 7 7 168 430 187 444 256 410 256 410 187 444 189 271 144 201 93 129 92 128 157 414 21 25 56 445 210 315 209 312 253 446 254 447 255 448 253 449 253 449 255 448 210 450 35 40 120 165 160 333 160 333 247 439 35 40 201 297 245 377 234 376 31 35 12 13 13 36 239 364 244 375 90 125 160 223 164 230 247 384 30 34 29 33 243 370 21 25 120 413 22 26 72 451 71 106 149 212 72 451 149 212 151 452 196 379 94 130 143 200 41 48 36 46 61 235 235 353 223 440 119 164 207 314 251 389 248 388 207 307 248 385 208 309</p>
        </triangles>
      </mesh>
    </geometry>
  </library_geometries>
  <library_visual_scenes>
    <visual_scene id="scene">
      <node id="pelvis">
        <instance_geometry url="#geometry">
          <bind_material>
            <technique_common>
              <instance_material symbol="scout_1a1a1a" target="#scout_1a1a1a" />
            </technique_common>
          </bind_material>
        </instance_geometry>
      </node>
    </visual_scene>
  </library_visual_scenes>
  <scene>
    <instance_visual_scene url="#scene" />
  </scene>
</COLLADA>