<?xml version='1.0' encoding='utf-8'?>
<COLLADA xmlns="http://www.collada.org/2005/11/COLLADASchema" version="1.4.1">
  <asset>
    <created>2026-09-14T00:00:00Z</created>
    <modified>2026-09-14T00:00:00Z</modified>
    <unit name="metre" meter="1" />
    <up_axis>Z_UP</up_axis>
  </asset>
  <library_effects>
    <effect id="scout_1a1a1a_effect">
      <profile_COMMON>
        <technique sid="common">
          <lambert>
            <emission>
              <color>0 0 0 1</color>
            </emission>
            <ambient>
              <color>0.05 0.05 0.05 1</color>
            </ambient>
            <diffuse>
              <color>0.1 0.1 0.1 1</color>
            </diffuse>
          </lambert>
        </technique>
      </profile_COMMON>
    </effect>
  </library_effects>
  <library_materials>
    <material id="scout_1a1a1a" name="scout_1a1a1a">
      <instance_effect url="#scout_1a1a1a_effect" />
    </material>
  </library_materials>
  <library_geometries>
    <geometry id="geometry" name="right_elbow_link">
      <mesh>
        <source id="positions">
          <float_array id="positions_array" count="825">-0.0371551998 -0.0286898538 0.00361185498 -0.0383129306 -0.025052812 -0.00937415287 -0.0308779627 -0.0312969685 -0.0106577966 -0.0361140855 -0.0250427406 -0.0158425476 -0.0272223782 -0.0297378749 -0.0230786279 -0.0333390348 -0.0253305361 -0.0207710415 -0.0276722051 -0.0242978763 -0.027648313 -0.0224126466 -0.0263861176 -0.0315860137 -0.0174768455 -0.0311512146 -0.0287758615 -0.0179813989 -0.0240405705 -0.034945596 -0.00689355657 -0.0288635585 -0.0366026983 -0.00976510253 -0.0239998661 -0.0380190648 -0.000903691049 -0.0266304892 -0.0386572294 0.0115106367 -0.0311604887 -0.0323241316 -0.0378723741 -0.0240619592 0.00991613604 -0.0360339694 -0.0250399839 0.0160881374 -0.0293615665 -0.0312762931 0.0146610942 -0.0293705296 -0.0285469797 0.0228096265 -0.0336428732 -0.0242036004 0.0203816555 -0.0276198667 -0.0243614465 0.0275503024 -0.0210564751 -0.0253704265 0.0332164168 -0.0128758484 -0.0309732854 0.0317099839 -0.0156779885 -0.0242343843 0.0358814746 -0.00385557604 -0.0271983836 0.0383499712 -0.00948203821 -0.0240191035 0.0380938128 -0.0323520042 0.0300860275 -0.0104046827 -0.0363326855 0.0242848527 -0.0145624597 -0.0383604132 0.0233757552 -0.00774142426 -0.0386099853 0.0255797505 -5.17659209e-05 -0.034126468 0.0296215639 0.00429825578 -0.0330764316 0.023442477 -0.0212418567 -0.0255533494 0.0292246938 -0.0242515691 -0.0278078448 0.0236980543 -0.0278036632 -0.0216545425 0.0237182472 -0.0328733586 -0.00703712786 0.0304476377 -0.0318452269 -0.0150788669 0.0264301226 -0.0350109562 -0.0245212242 0.0304634999 0.0210159477 -0.00231240341 0.0267173238 -0.0380875245 -0.009327095 0.0232806355 -0.038256865 0.00535203191 0.0216293875 -0.0146083208 -0.0168876909 0.0228167772 -0.0117343199 0.00652775122 0.0229334496 -0.0176018886 -0.0137213562 0.0216507707 -0.00774421403 -0.0107642757 0.0229410361 -0.00609728647 0.0132658342 0.0220378321 -0.00843629241 -0.0380103141 0.0232717581 0.00972774345 -0.0328508727 0.0281942338 0.0155926552 -0.0356975347 0.0243409947 0.0160816256 0.283928573 0.0337745212 -0.00721285073 0.273871243 0.0310821794 -0.00234390912 0.284581333 0.0267354213 0.00518098334 -0.0319729559 0.0243264996 0.022656545 -0.011174568 0.0217066947 0.0102566313 -0.0254126117 0.0244640037 0.0298857093 -0.0242359322 0.0281384252 0.0273084603 0.0978022143 -0.0265491866 -0.00413495395 0.0550295003 -0.0304656271 0.00558576593 0.0543276258 -0.0304346364 -0.0291926693 -0.0164572354 0.023530392 0.035419438 -0.0112232482 0.0292077065 0.0335755125 -0.00824309234 0.0229480732 0.017647896 0.00301159057 0.0231633242 0.0115787778 0.00268888194 0.0215619989 0.0151703302 0.0129101528 0.0228995346 0.0153856557 0.00584977586 0.0294371638 0.034397684 -0.00830758177 0.0234206859 0.0381966904 0.00574151613 0.0244635474 0.0389938429 0.0145470491 0.0234985203 0.0364192724 0.0360691659 -0.0266285278 -0.0375043713 0.037236128 -0.0235597044 -0.0376278572 0.295082241 -0.0279379413 0.000142375531 0.296408504 -0.0326369554 -0.0137667051 0.305888176 -0.023108704 -0.00640178705 0.0382043086 -0.0215564705 -0.0403033458 0.0701944828 -0.0178616289 -0.0414909534 0.270182461 -0.0171292573 0.00645354297 0.216748759 -0.014261785 0.0051315343 0.237524241 -0.0213841256 0.00120317168 0.0472411364 -0.0239169039 -0.0164600927 0.0494190156 -0.0223755408 -0.0180636477 0.0411072783 -0.0233243182 -0.0295181442 0.0380707756 0.00713530648 -0.0400480218 0.0388977006 0.0188134033 -0.0408690684 0.0645500124 -0.0263362564 -0.036185585 0.0569884367 -0.0238924846 -0.00291086477 0.0561321341 -0.0220891219 -0.00855416898 0.0632440075 -0.0220529996 0.00160678627 0.276408076 -0.0365386866 -0.0155387456 0.286163628 -0.0340743475 -0.00646218285 0.27382949 -0.0329054147 -0.0034788365 0.288271546 -0.0184921827 0.0119626028 0.27309534 -0.0198987555 0.0109497188 0.28390649 -0.0265637748 0.00649067806 0.0806621611 -0.0276740454 -0.0309058242 0.0896586925 -0.0214025956 -0.0385282598 0.110557027 -0.0254163817 -0.0295932665 0.204327539 -0.0258337371 -0.0119354874 0.13178888 -0.0247833319 -0.0283281896 0.213837773 -0.025794249 -0.0279288087 0.115288511 -0.0208972562 -0.036605522 0.132751212 -0.0148759428 -0.0407690629 0.129601508 -0.0205163788 0.00115584768 0.0913930461 -0.0233369842 0.003660972 0.129630983 -0.0235507395 -0.00354838208 0.127302706 -0.0251423828 -0.00947425421 0.114360228 -0.010283364 -0.0423548445 0.182714134 -0.0229451004 -0.0035290441 0.270708501 -0.0286509711 -0.0264508761 0.270267516 -0.0290004145 -0.0126393335 0.0579510704 0.029365886 -0.0281473249 0.108744837 0.0246226247 -0.00586477481 0.107408866 0.0245881956 -0.0295053367 0.208317533 -0.0212196317 -0.0362960808 0.268831015 -0.0241531786 -0.036595013 0.0596017092 0.0220445637 -0.0392614454 0.0576589741 0.0270339847 -0.0346386358 0.118388034 0.0194634032 -0.0366311297 0.243161857 -0.0261318684 -0.00655463524 0.211446986 -0.0221974067 -0.00155741989 0.208565325 -0.0161946677 -0.040832147 0.270042419 -0.019760916 -0.041335538 0.269998938 -0.0273803659 -0.0307733417 0.269397974 -0.00926035549 -0.0464673452 0.273114264 -0.0266782548 -0.0423480086 0.273397058 -0.0334340818 -0.0318505503 0.272077262 -0.0342982113 -0.0211768877 0.269985735 -0.0255540572 -0.00245246268 0.272270322 -0.0303562153 -0.00246121082 0.271896005 -0.0145870689 -0.0478237979 0.270043641 0.00696694944 -0.0467162766 0.27212289 2.24479481e-05 -0.0522993617 0.289126843 -0.0353206098 -0.0243455749 0.27457431 -0.0146267125 -0.0515752062 0.274796277 -0.021625651 -0.0474828444 0.21961455 0.0251812451 -0.0248211212 0.217271477 0.0231557768 -0.0322267562 0.152799666 0.0217721276 -0.0335923806 0.285924435 -0.0326092616 -0.0342144854 0.287424207 -0.0271277688 -0.0420678705 0.288632601 -0.020326728 -0.0474382788 0.277642071 0.00109259551 -0.0548862927 0.287497133 -0.00895436388 -0.0531097502 0.300564021 -0.0254009254 -0.0352608263 0.298089355 -0.0166093502 -0.0455235168 0.305315197 -0.0102981804 -0.0426772609 0.302177668 -0.0278992392 -0.0266697481 0.306100756 -0.0254798997 -0.0152081791 0.310349584 -0.0178466365 -0.0286728181 0.283810884 0.0357163735 -0.0177754443 0.272684336 0.0340716206 -0.0119712045 0.296084195 -0.00089423341 -0.0510611795 0.301347375 0.00504003325 -0.0473357104 0.312522262 -0.0156961903 -0.0126793394 0.310365081 -0.0029758364 -0.0385946147 0.315065682 -0.00593052944 -0.0271874368 0.315969378 -0.00278032548 -0.0146803474 0.306806922 -0.014416744 0.00176192576 0.313480228 -0.00323149678 -0.00481870677 0.0107380645 -0.0311840195 0.0314171277 0.0125929844 -0.0240976289 0.0371957906 0.015174605 -0.0270276051 0.0352701135 0.0637656301 -0.024338305 0.0107051944 0.0558791421 -0.024000112 0.014776608 0.0868170485 0.0129655311 0.0103394538 0.100135498 0.0179200061 0.00614655297 0.0802143887 0.022049902 0.00731535954 0.0434533954 0.0234968532 0.0214595217 0.0469966717 0.0282391757 0.0141372904 0.0365298912 0.0243407842 0.0253108907 0.0328363068 -0.0272464771 0.025880605 0.0317799598 -0.0301558804 0.0216583945 0.029686654 -0.02432869 0.0292133577 0.0222284086 -0.0240786746 0.0326610841 0.0589223206 -0.0271812212 0.0107649183 0.0368522108 -0.0240419768 0.0252790768 0.0446773544 -0.0240578055 0.0202168263 0.0497801751 -0.0245381743 0.017901348 0.0693315342 -0.0230873488 0.0103470255 0.0871299729 -0.0159811247 0.00989112258 0.0719544962 -0.0166534446 0.0127187576 0.110321447 -0.0165901203 0.00616363529 0.129060522 -0.00936428644 0.00720248278 0.209112838 0.0171326287 -0.0395726077 0.235433385 0.021034807 -0.0370241478 0.228366718 0.0157697555 -0.0413056239 0.168391809 -0.0158228334 0.0035857989 0.273962289 -0.00458655646 0.0170910805 0.282906651 0.00490657566 0.0173511561 0.272833914 0.00602174504 0.0157724191 0.273935437 -0.0253122114 0.0068794121 0.273148715 -0.0144544877 0.0140400911 0.270056397 -0.00719339959 0.00979877636 0.222845182 -0.00773362257 0.00737110013 0.271949947 -0.00770437671 0.0132634817 0.271024883 0.00553112384 0.0100830738 0.281974584 -0.00908802636 0.0164999384 0.295933545 -0.0146686276 0.0110506257 0.295540273 -0.00346073392 0.0143507179 0.30761835 0.00139083038 0.00519575365 0.0170051251 0.0229572505 -0.00836583413 0.0358717218 0.023315236 -0.0385443456 0.0139013035 0.021617597 0.00659063598 0.0381444208 0.0208273306 -0.034284886 0.0463007875 0.0228480231 -0.0181086957 0.0452924296 0.020465184 -0.023892872 0.0523800403 0.019690061 -0.0140693709 0.0543963015 0.022805376 -0.00669719512 0.0598558187 0.0205831639 -0.00301135005 0.114389367 0.0150200883 -0.0402573384 0.109077476 0.00910390634 -0.0423719399 0.210329473 -0.00788860209 -0.0439617075 0.072942771 0.0267807953 0.00294206501 0.0994690061 0.0229953714 0.00112718262 0.12917228 0.0203271192 1.46427665e-05 0.136846095 0.0238447189 -0.00852019154 0.179559603 0.0142119126 -0.0411999151 0.215060771 0.00810989365 -0.043904148 0.197432399 0.0213897005 -0.00293640606 0.209600776 0.0239494666 -0.00724251103 0.217983603 0.0253573805 -0.0134712877 0.270579487 0.0265160743 -0.00647338899 0.270041555 0.0157631915 -0.0434025824 0.270614117 0.023025794 -0.0370204188 0.269857734 0.0274548549 -0.0277199652 0.273039222 0.0129059386 -0.0511378162 0.27191177 0.0310593583 -0.0245237742 0.272124767 0.028026538 -0.0357595757 0.270374566 0.0226493459 0.000404186372 0.27102688 0.028154036 -0.0140044317 0.274148971 0.0241734628 -0.0444861278 0.28759411 0.0124860434 -0.0516148396 0.273874044 0.0330202952 -0.0306512527 0.281375408 0.0325242318 -0.033231087 0.285240561 0.0251899902 -0.0436593406 0.289856315 0.0321940556 -0.0309453085 0.29762882 0.0170215778 -0.0452136621 0.296913087 0.0231846441 -0.0400641412 0.298874855 0.0300175752 -0.0247613583 0.306114078 0.0208238512 -0.0320850126 0.294954121 0.0265412051 0.000618204067 0.297477931 0.0302664991 -0.0106183467 0.303911477 0.0206504241 -0.00132570276 0.308711141 0.0118967164 -0.0367770977 0.313033491 0.0123635586 -0.0267145019 0.314740717 0.0100303711 -0.0163333844 0.313354433 0.00792642497 -0.00733050564 0.309269786 0.0163902882 -0.00499409344 0.306888759 0.0238694381 -0.0179491043 0.0177450441 0.03009817 0.0266975481 0.0251272321 0.027771771 0.0284800883 0.131033078 0.0164187234 0.0037701535 0.172708571 0.0161526017 0.00270639034 0.0299642067 0.0235225074 0.0292052347 0.0222736821 0.023461286 0.0329455286 0.0623862855 0.0291406028 0.000751102518 0.0548138022 0.0237476788 0.0152795073 0.0608456545 0.0244284701 0.0120041445 0.0655497015 0.0232902076 0.0100024724 0.0488093384 0.0242681894 0.01824091 0.0695504695 0.02157671 0.0105502661 0.072101593 0.0153868152 0.012771206 0.108804524 0.0103825722 0.00833468791 0.145809799 0.00833106227 0.00666321488 0.172979251 0.00808350556 0.00616213633 0.28388074 0.0167008284 0.0131427273 0.274104208 0.0184643604 0.0117566884 0.210150972 0.0162868835 0.00305080623 0.270805836 0.0112371156 0.00863963179 0.209462538 0.00880027376 0.00655499194 0.273138702 0.0264289416 0.00419076625 0.27053231 0.016898986 0.00574727356 0.292761028 0.00711160991 0.0147081697 0.298728704 0.0148092136 0.00876973756 0.176119164 -0.00856388547 0.00620017247 0.129487857 0.0240858421 -0.0263597388</float_array>
          <technique_common>
            <accessor source="#positions_array" count="275" stride="3">
              <param name="X" type="float" />
              <param name="Y" type="float" />
              <param name="Z" type="float" />
            </accessor>
          </technique_common>
        </source>
        <source id="normals">
          <float_array id="normals_array" count="1161">-0.755977929 -0.65249902 0.0523686558 -0.650600851 -0.737126172 -0.182656944 -0.358015984 -0.926076233 -0.119194895 -0.620389342 -0.738444149 -0.264229536 -0.479278594 -0.787234962 -0.388011813 -0.622313797 -0.689989805 -0.36964792 -0.63167727 -0.482297838 -0.60693711 -0.530470967 -0.421145797 -0.735687912 -0.198860854 -0.917934239 -0.343294442 -0.373254806 -0.43781355 -0.817924321 -0.148268521 -0.715182126 -0.683030784 -0.274367154 -0.414652675 -0.867632329 -0.0183855612 -0.649805665 -0.75987798 0.0183895528 -0.954386532 -0.298007011 -0.9145841 -0.368532538 0.166492403 -0.980049312 -0.196086839 0.0324547477 -0.700716197 -0.647265553 0.300073564 -0.322219908 -0.934962988 0.148386464 -0.561717629 -0.688868105 0.458185524 -0.734743655 -0.428982913 0.525476396 -0.645420432 -0.438452303 0.625453532 -0.391023904 -0.665108502 0.636184752 -0.176079601 -0.888405204 0.423948348 -0.279543489 -0.572289169 0.77093488 -0.0691582561 -0.765085578 0.640204012 -0.288098752 -0.441386014 0.849810302 -0.432042867 0.890103877 -0.145100296 -0.67997402 0.673819661 -0.289140791 -0.767185271 0.61606729 -0.17857185 -0.716905177 0.697089672 -0.0106265433 -0.481620431 0.872866392 0.0783963874 -0.76835084 -0.563486874 -0.303512007 -0.643662512 0.650326848 -0.403452009 -0.400283873 0.837262511 -0.37251085 -0.573792756 0.595469117 -0.562297523 -0.469538629 0.581361294 -0.664494216 -0.0774549618 0.944951713 -0.317910403 -0.331179291 0.587718606 -0.738178194 -0.21898517 0.95844835 0.182817504 -0.0363157988 0.53329432 -0.845149875 -0.211689085 0.388713449 -0.896710396 0.0367022119 -0.979420125 -0.198466986 -0.0588901713 -0.996882379 -0.0525119491 0.0612098128 -0.985403359 -0.158850759 -0.278023511 -0.9587273 -0.0595387369 0.202169001 -0.969989777 0.135083541 0.305413634 -0.934346378 0.183628425 0.132334575 -0.987220049 -0.088792868 -0.768561304 0.614755392 0.177170366 -0.590994775 0.763492048 0.260394126 -0.754799545 0.593163133 0.280062646 0.115565091 0.939605117 0.322159708 -0.056394998 0.888931572 0.454555005 0.127231464 0.743574142 0.656437039 -0.62397629 0.638002276 0.451228023 -0.41180262 -0.909223318 0.0610869676 -0.0596524477 -0.997499168 0.037906941 -0.157289863 -0.975621939 0.153041705 -0.605382085 -0.719019771 0.341354758 -0.214272156 -0.958003163 0.190571234 -0.425273567 0.753058314 0.502041399 -0.48756668 0.596628189 0.63742727 0.0932586864 -0.971188307 0.219308093 0.129910752 -0.974534512 0.182772323 0.0482276529 -0.971283555 -0.232985646 -0.0424547084 -0.998165607 0.0431631319 -0.16282858 0.83092761 0.532020867 -0.345028877 0.562195063 0.751592815 -0.822755516 0.51535207 0.239761531 0.140701607 -0.98347646 -0.113917187 -0.0785764158 -0.966336787 -0.244987577 -0.0481947958 -0.910652518 -0.410352647 -0.0795717537 -0.977426231 0.195719913 0.0752908662 -0.691085935 0.71884042 0.0799202323 0.874690056 0.478048146 -0.15194802 0.568876982 0.808264017 0.103679143 0.662659287 0.741709709 0.0392162018 -0.884158492 0.465538174 -0.00446040183 -0.998910785 0.046447061 0.00770569593 -0.998114288 0.0608976372 0.0428036042 -0.777827859 -0.627018034 0.00567436591 0.25375998 -0.967250586 0.029654678 -0.0334378704 -0.999000728 0.00640255958 0.245433554 -0.9693923 0.421320021 -0.742367506 0.520941317 0.435851097 -0.891196251 0.125710428 0.697812676 -0.622406781 0.354495853 -0.953658044 0.261036009 -0.149654865 -0.961337447 0.0902778655 -0.260154277 -0.93311125 0.351842701 -0.0742298737 -0.000407729356 -0.302803308 -0.953052998 0.00577778975 -0.282993227 -0.959104478 -0.0334411822 -0.530587494 0.84697026 -0.0341190919 -0.467397183 0.883388817 -0.0439534523 -0.741078556 0.669978082 -0.195193261 0.970940292 0.138472363 -0.4257572 0.86787647 0.255971074 -0.0278612543 0.9994542 0.0177482534 -0.723999798 0.00276875077 -0.6897946 0.0553374514 -0.754229188 -0.654275298 -0.256507784 0.949914515 0.178510919 -0.463287443 0.823516428 0.327391773 -0.397139341 0.880972087 0.257232368 -0.207695201 -0.975566506 0.0716424584 0.163385376 -0.934415281 0.316501617 -0.437168568 -0.824908555 0.358342677 0.206742108 -0.496497005 0.843059003 -0.0188917443 -0.540989518 0.840817153 0.0998375192 -0.724904776 0.681575775 0.0931250751 -0.907659113 -0.409246415 0.0695297793 -0.647265553 -0.759086847 0.0605500117 -0.957812905 -0.280941576 -0.0206270292 -0.986722231 0.16110158 0.00738668581 -0.973152757 -0.230041653 -0.0357898213 -0.967660546 -0.249704167 0.0528707914 -0.781376004 -0.621816874 -0.00498182885 -0.451971799 -0.892018318 0.0507362112 -0.767220438 0.63937366 0.162390977 -0.73933661 0.653460443 0.0468929932 -0.916801929 0.396579444 0.0365961343 -0.993615329 0.106720857 -0.0069296672 -0.16709882 -0.98591578 -0.00668869494 -0.857635021 0.51421541 -0.045902729 -0.988469303 -0.144296229 -0.0408233777 -0.989465415 0.138894469 0.0571014322 0.984039307 -0.16854091 0.0842539594 0.979623437 0.182316273 0.0707879663 0.962786674 -0.260827392 -0.0214649383 -0.788897395 -0.614149988 -0.0440531112 -0.8110075 -0.583374858 0.0338386633 0.522005379 -0.852270722 0.0484031104 0.835018039 -0.548089445 0.0171931703 0.728649974 -0.684670389 -0.045522362 -0.924934149 0.377391815 -0.0323578231 -0.811930358 0.582856834 -0.0239943396 -0.517217398 -0.855517626 -0.0365453027 -0.588830352 -0.807430029 -0.0449469164 -0.927949786 -0.369985044 -0.241735801 -0.127764329 -0.961894035 -0.880290329 -0.448992312 -0.153280124 -0.861383617 -0.359680235 -0.358675927 -0.888848662 -0.428023785 -0.163534895 -0.921595991 -0.381268471 -0.0727680102 -0.849229157 -0.315110743 -0.423692107 0.552461207 -0.677072048 -0.486168712 -0.896896124 -0.433860987 0.0856856182 -0.730444849 -0.680668652 -0.0560405143 -0.0260500032 -0.858905792 0.511470675 -0.870702863 -0.407037586 0.276037842 -0.809317172 -0.51351887 0.285138726 -0.839783907 -0.2880193 -0.46022591 -0.825426161 -0.264234334 -0.498850584 -0.908066511 0.0873208046 -0.409622073 -0.740893781 -0.028080279 -0.671034932 -0.0594444685 -0.934260547 -0.351601452 0.239727184 -0.959375441 -0.148760468 -0.407163024 -0.340433896 -0.847539365 -0.750860989 -0.336913407 -0.568064332 -0.0388921462 0.989989042 -0.135680109 -0.0389346629 0.899953425 -0.434244126 -0.00118617504 0.881430387 -0.472312421 0.156612098 -0.888269842 -0.431797802 -0.0215565953 -0.777995527 -0.627899945 0.201148242 -0.736978412 -0.645292401 0.0306201968 -0.606793463 -0.794269502 0.225803629 -0.537907243 -0.812199771 -0.128349885 0.0420652181 -0.990836442 0.206117555 -0.228906929 -0.951376438 0.555443347 -0.682383895 -0.475220859 0.497540772 -0.443867713 -0.745274842 0.693241954 -0.280993849 -0.663670123 0.602206469 -0.770460725 -0.209135458 0.721263528 -0.690313578 0.0569738522 0.833995402 -0.474774808 -0.28114143 0.0963598564 0.995346546 -2.95213322e-05 -0.116404273 0.983039916 0.141712949 0.427431822 -0.0184059534 -0.903860211 0.599903047 0.156753331 -0.784566581 0.903711021 -0.402073532 0.147116408 0.838828444 -0.048208978 -0.542257071 0.963935792 -0.132192463 -0.230982512 0.994428992 -0.0621084161 0.0851678476 0.729451895 -0.370448321 0.57503736 0.917802453 -0.0891649947 0.386895657 0.09634725 -0.928840518 0.357732445 0.221728638 -0.391565353 0.893035829 0.302065372 -0.545536458 0.781758547 -0.12050309 0.982140422 0.144496456 -0.0432347283 0.99905926 0.00336765172 0.148915589 0.206268013 0.967097521 0.12985827 0.556430817 0.820683599 0.180191562 0.63742584 0.749145687 0.39910087 0.651067972 0.645622909 0.254899621 0.862228334 0.437708259 0.458167195 0.440309942 0.772146344 0.3767277 -0.64265573 0.667135537 0.227986574 -0.894777 0.383922189 0.42218855 -0.430077881 0.797991157 0.408563375 -0.18685548 0.893398583 0.28744784 -0.756841719 0.586996078 0.474016756 -0.452219754 0.755516648 0.428068906 0.0153919952 0.903614998 0.434857875 -0.479245037 0.762379706 0.408762336 -0.538337529 0.736957312 0.151479304 -0.237911999 0.959401846 0.224517241 -0.493110389 0.840496361 -0.197043434 0.948130369 0.249444842 0.167644903 -0.300349563 0.938980997 0.185251042 -0.234578162 0.954282522 0.106221922 -0.517368555 0.849144697 0.0479938611 -0.137103036 0.989393413 -0.0197603405 0.713587821 -0.700287044 -0.0424753912 0.75474596 -0.654640615 -0.0337345563 0.52645576 -0.849532962 0.0207161102 -0.525891423 0.850299418 -0.0539018065 -0.0967780128 0.993845344 0.0567541197 0.150401086 0.986994684 -0.117356673 0.230835661 0.965889394 -0.0602996089 -0.701087594 0.710520983 -0.86913085 -0.302572906 0.391230375 -0.883261383 -0.265628546 0.386381745 -0.893754125 -0.142720416 0.425246358 -0.0487478264 -0.165942848 0.98492974 -0.0415849127 -0.146320134 0.988362849 -0.880488575 -0.0652287304 0.469558328 -0.87958914 -0.0571529306 0.472288579 -0.82622683 -0.420806289 0.37452805 -0.0294927526 -0.416441798 0.908683896 -0.868020415 -0.0466260761 0.494334459 -0.947923064 0.0271141641 0.317343086 0.0830743089 -0.243506774 0.966334879 0.464105278 -0.384390622 0.798028946 0.439983606 -0.088942647 0.893590271 0.746844947 0.056667041 0.662579417 0.0843026936 -0.995697856 -0.0384555869 0.0296435356 0.55966711 -0.828187168 -0.128974497 -0.989517331 -0.0649694353 -0.858245373 -0.00495016808 0.513215721 -0.82770431 -0.0786995813 0.555618465 -0.902208149 -0.0140041048 0.431073427 -0.805342317 -0.586359322 0.0872151852 -0.0107564218 0.270543128 -0.962647736 -0.890449941 -0.0368521735 0.453586578 -0.615975797 -0.678863287 0.399647951 -0.657411397 -0.61902976 0.429665476 -0.769879043 -0.337567717 0.541603506 -0.584689677 -0.682757139 0.438155919 -0.383149058 -0.868989527 0.313135833 0.020476127 0.474118322 -0.880223036 -0.00292166206 0.156485453 -0.987675965 -0.0298790131 -0.169419125 -0.98509109 -0.0623499751 0.167180464 -0.98395282 0.171342462 0.870402873 0.461563259 0.143509164 0.821352422 0.552073658 0.058643952 0.820156336 0.56912607 0.0102441991 0.978829503 0.20442082 -0.0111554908 0.468566 -0.883358061 -0.0275088511 0.185405314 -0.982277036 -0.0126494691 0.816331327 0.577445328 -0.0230905134 0.944669604 0.327209681 -0.035673447 0.996429324 0.0765243694 -0.0465161018 0.936590731 0.347324193 -0.0399528928 0.51732856 -0.854853749 -0.0382065885 0.796326697 -0.603658855 -0.0439021476 0.969703138 -0.240309 -0.88182956 0.204628676 -0.424857289 -0.801819384 0.388341308 -0.454176962 -0.873879254 0.366271228 -0.31965673 -0.86536181 0.497309506 -0.0619046353 -0.819200277 0.491929531 -0.2948156 -0.706042707 0.650515318 -0.279881239 -0.0416916832 0.78580749 0.617064357 -0.0493809655 0.995268285 0.0836812332 -0.941465139 0.333048701 0.0521721393 -0.956767976 0.29083389 0.00327179418 -0.901047766 0.394719005 0.17974925 -0.0826856643 0.378965497 -0.921709418 -0.465887696 0.597500443 -0.65264219 0.190650478 0.350412011 -0.916986287 -0.491984904 0.82722646 -0.271380186 0.0257867537 0.910443962 -0.412827849 0.138891622 0.701034248 -0.699471295 0.279650301 0.896971703 -0.342399538 -0.876329243 0.426540941 0.223852515 -0.885612726 0.371996313 0.278044701 0.48812893 0.466996789 -0.737322271 0.464701414 0.682109952 -0.564604878 0.51091361 0.842740238 -0.169576406 0.70838654 0.600856662 -0.370350868 0.40401724 0.74467057 0.531258643 0.481884629 0.850815713 0.209522873 0.657669663 0.590178192 0.468145579 0.79342711 0.314056098 -0.521384895 0.917063236 0.330249459 -0.223450869 0.956299841 0.289252579 0.0427032672 0.91718924 0.217706561 0.333718121 0.803969145 0.462055027 0.374351054 0.749935448 0.660808563 0.0304768775 0.124895588 -0.979689837 0.156872138 0.103642955 0.975701571 0.193040341 0.28448236 0.634946167 0.718270898 0.294292659 0.761669338 0.577279508 0.0560807399 0.571105361 0.818958819 0.0123004755 0.55220902 0.833614945 0.376091003 0.536619246 0.75537765 0.348495692 0.553169608 0.756673098 0.102537438 0.987978041 0.115695648 0.319380701 0.716725409 0.619919896 0.435423404 0.319291204 0.841700435 0.432741255 0.283364147 0.855826914 0.381901532 0.594992518 0.707202375 0.094499819 0.925634682 0.366429001 -0.426246673 -0.830236971 0.35919407 0.37308985 0.591774046 0.714567959 -0.783557117 0.00136686594 0.621318221 -0.670025289 -2.62104586e-05 0.7423383 -0.654170632 0.00176496548 0.756344974 -0.40609175 -0.843285143 0.352079034 0.223449588 0.657037079 0.719980955 0.210154906 0.258307427 0.94292748 0.0825204402 0.192674085 0.977786839 0.0291539375 0.199510261 0.979461968 0.00574184721 0.202988535 0.979164302 0.110888243 0.475629419 0.87262845 -0.0557774566 0.512964249 0.856595874 -0.0353271291 0.581005037 0.813132942 -0.0456777364 0.349195868 0.935935795 -0.0321616754 0.229655668 0.972740412 -0.0480150208 0.112372868 0.992505372 -0.896444738 0.177328333 0.406129837 -0.934396267 0.0599003099 0.351163149 -0.880322456 0.366169482 0.301582932 -0.865912497 0.259200335 0.427797496 -0.865549386 0.247614473 0.435328931 -0.0765916854 0.754816949 0.651448488 0.369028836 0.213830486 0.904485643 0.52196461 0.418399513 0.743299901 0.0311266501 -0.0520013422 -0.998161793 0.0407155715 0.151627496 0.987598777 -0.00299435714 -0.16538012 0.986225367 -0.00821359176 -0.999509931 0.0302069187 -0.0213117357 -0.998837709 0.0432324111 -0.00229549222 -0.999592304 0.0284601413 -0.00329591683 -0.999970198 -0.00698509021 0.0193869062 -0.999794602 0.00590963615 0.000617930549 -0.999731302 -0.0231716726 -0.0152982436 -0.999651253 -0.0215264093 -0.0198380183 -0.99929142 -0.0319852792 -0.0198454168 -0.998949766 -0.041298192 -0.0405714847 -0.998616993 -0.0334369875 -0.0277746171 -0.999569714 -0.0094316788 -0.00920771156 -0.999733984 0.0211479124 0.0111656943 -0.999778986 0.0178133324 0.0133738257 -0.999601841 0.0248464271 0.0157411508 -0.999547482 0.0256332178 0.0246461798 0.996167302 -0.0839239657 -0.468769193 0.00509994337 -0.883305967 0.545106947 0.712192118 -0.442313075 -0.0906812996 0.995850861 0.00761458836 -0.02124428 0.999719679 -0.0104500186 -0.0595461912 0.998221219 0.0029320186 -0.446459323 0.635168254 0.63026607 -0.0597604737 0.995721817 0.0704747811 -0.0106367385 0.999938846 0.00303495536 0.605660439 0.793847203 -0.0546085685 -0.183909461 0.980472624 -0.0696471259 -0.0481257215 0.998807609 -0.00819883775 -0.580250025 0.725993991 -0.369110584 -0.0105956811 0.999931455 0.00497885561 0.0163369831 0.99824667 0.0568919033 0.00110447907 0.999998927 0.000971439644 0.00825580116 0.999920368 0.00954227895 0.024773825 0.999528587 0.0181345232 -0.00915653724 0.999654353 -0.0246438552 -0.0323570557 0.999463558 -0.00505880173 0.0277945157 0.999447167 0.0182439573 0.0742259994 0.995634139 0.0565970093 -0.812827229 0.00190483907 0.582501709 -0.818228662 0.00240678596 0.574887872 -0.820016146 0.00164618366 0.572338045 -0.786698759 0.00104712602 0.617336214 -0.984109342 -0.176579207 0.0186712462 0.916017115 -0.369125128 0.157032728 -0.992952764 0.0459439643 -0.109242782 -0.999987602 0.00476508914 0.00145737932 -0.989411473 0.0607942753 -0.131791413 -0.0443340652 0.567008257 0.82251817</float_array>
          <technique_common>
            <accessor source="#normals_array" count="387" stride="3">
              <param name="X" type="float" />
              <param name="Y" type="float" />
              <param name="Z" type="float" />
            </accessor>
          </technique_common>
        </source>
        <vertices id="vertices">
          <input semantic="POSITION" source="#positions" />
        </vertices>
        <triangles material="scout_1a1a1a" count="546">
          <input semantic="VERTEX" source="#vertices" offset="0" />
          <input semantic="NORMAL" source="#normals" offset="1" />
          <p>0 0 1 1 2 2 2 2 1 1 3 3 4 4 5 5 6 6 4 4 6 6 7 7 8 8 4 4 7 7 6 6 9 9 7 7 2 2 3 3 5 5 2 2 5 5 4 4 2 2 4 4 8 8 8 8 7 7 10 10 9 9 10 10 7 7 9 9 11 11 10 10 11 11 12 12 10 10 13 13 8 8 10 10 14 14 1 15 0 0 15 16 14 14 0 0 16 17 15 16 0 0 17 18 18 19 15 16 16 17 0 0 2 2 17 18 15 16 16 17 19 20 18 19 17 18 20 21 19 20 17 18 21 22 17 18 16 17 21 22 20 21 17 18 22 23 20 21 21 22 22 23 21 22 23 24 24 25 22 23 23 24 25 26 26 27 27 28 25 26 27 28 28 29 29 30 25 26 28 29 30 31 27 31 26 31 26 27 25 26 30 32 31 33 32 34 30 32 30 32 25 26 31 33 31 33 33 35 32 34 25 26 34 36 31 33 31 33 34 36 35 37 29 30 36 38 25 26 35 37 37 39 38 40 34 36 37 39 35 37 39 41 40 42 41 43 39 41 42 44 40 42 43 45 42 46 39 41 44 47 43 45 39 41 45 48 29 30 28 29 45 48 46 49 29 30 47 50 46 49 45 48 48 51 49 52 50 53 51 54 46 49 47 50 46 49 36 38 29 30 52 55 40 42 42 44 45 56 51 57 47 58 53 59 51 57 45 56 54 60 51 54 53 61 46 49 51 54 54 60 54 60 36 38 46 49 55 62 56 63 57 64 58 65 53 59 45 56 54 60 59 66 36 38 53 61 59 66 54 60 59 66 53 61 58 67 52 68 60 68 40 68 43 45 52 69 42 46 61 70 52 69 43 45 62 71 52 69 61 70 60 72 52 72 62 72 60 73 62 73 63 73 59 66 64 74 36 38 59 66 58 67 65 75 59 66 65 75 66 76 66 77 65 78 67 79 64 74 59 66 66 76 12 12 68 80 10 10 68 80 13 13 10 10 11 81 69 82 12 83 57 64 13 13 68 80 70 84 71 85 72 86 69 87 73 88 68 89 73 90 74 91 68 80 75 92 76 93 77 94 78 95 79 96 80 97 73 98 81 98 82 98 74 91 83 99 68 80 78 95 84 100 85 101 78 95 85 101 79 96 84 100 86 102 85 101 87 103 88 104 89 105 90 106 91 107 92 108 93 109 83 99 94 110 74 91 94 110 83 99 93 109 94 110 95 111 96 112 97 113 98 114 95 111 94 110 99 115 94 110 100 116 99 115 35 37 33 35 31 33 101 117 102 118 103 119 103 119 55 62 104 120 105 121 100 116 94 110 97 113 95 111 99 115 106 122 104 120 96 112 98 114 107 123 108 124 109 125 110 126 111 127 98 114 112 128 113 129 114 130 115 131 116 132 117 133 118 134 96 112 119 135 120 136 112 128 117 133 96 112 108 124 113 129 112 128 120 136 108 124 96 112 98 114 121 137 98 114 113 129 122 138 120 136 119 135 121 139 123 140 124 141 121 139 124 141 107 142 121 139 120 143 123 140 121 144 113 144 120 144 57 64 83 99 93 109 108 145 107 142 125 146 126 147 117 133 108 124 126 147 77 94 117 133 126 148 108 145 127 149 122 150 128 151 123 140 120 143 122 150 123 140 128 151 129 152 130 153 87 103 125 146 124 154 131 155 87 103 124 154 127 149 125 146 89 105 127 149 108 145 125 146 87 103 89 105 125 146 71 85 87 103 131 155 71 85 88 104 87 103 128 151 132 156 133 157 134 158 135 159 136 160 123 140 128 151 133 157 137 161 123 162 138 163 137 161 124 154 123 162 133 164 139 165 138 163 125 146 107 142 124 141 130 153 132 156 128 151 130 153 140 166 132 156 132 156 141 167 139 165 70 84 88 104 71 85 142 168 137 161 138 163 139 165 143 169 138 163 138 163 143 169 142 168 143 169 144 170 142 168 131 155 137 161 142 168 145 171 131 155 142 168 71 85 131 155 145 171 146 172 71 85 145 171 142 168 147 173 145 171 148 174 149 175 48 51 72 86 71 85 146 172 141 167 143 169 139 165 141 167 150 176 143 169 150 176 144 170 143 169 150 176 151 177 144 170 147 173 146 172 145 171 152 178 72 86 146 172 151 177 153 179 144 170 144 170 147 173 142 168 153 179 147 173 144 170 154 180 155 181 152 178 152 178 156 182 72 86 157 183 156 182 152 178 155 181 157 183 152 178 23 24 21 22 158 184 159 185 23 24 160 186 160 186 23 24 158 184 161 187 84 100 162 188 163 189 164 190 165 191 166 192 167 193 168 194 169 195 158 184 170 196 160 186 158 184 169 195 171 197 160 186 169 195 172 198 159 185 160 186 172 198 160 186 171 197 173 199 170 196 56 63 158 184 56 63 170 196 174 200 171 197 169 195 175 201 174 200 169 195 173 199 169 195 170 196 176 202 169 195 173 199 175 201 169 195 176 202 162 203 176 202 173 199 161 204 162 203 173 199 161 187 86 102 84 100 177 205 161 204 173 199 161 187 177 206 86 102 173 199 56 63 102 118 177 205 173 199 102 118 178 207 179 208 177 205 102 118 56 63 55 62 178 207 177 205 102 118 180 209 178 207 102 118 181 210 178 207 180 209 180 209 102 118 101 117 182 211 183 212 184 213 185 214 106 122 118 134 76 93 185 214 118 134 76 93 118 134 77 94 186 215 187 216 188 217 89 105 92 108 189 218 75 92 77 94 126 147 91 219 126 148 127 149 75 220 126 148 91 219 190 221 75 220 91 219 191 222 192 223 75 92 193 224 75 220 190 221 191 225 75 220 193 224 127 149 89 105 189 226 189 226 91 219 127 149 91 107 189 218 92 108 91 107 90 106 190 227 92 108 89 105 88 104 186 228 193 224 190 221 194 229 191 225 193 224 195 230 186 215 190 227 196 231 195 230 90 106 92 108 88 104 70 84 90 106 92 108 70 84 196 231 90 106 70 84 156 182 196 231 70 84 72 86 156 182 70 84 197 232 195 230 196 231 197 232 196 231 156 182 198 233 197 232 156 182 157 183 198 233 156 182 199 234 39 41 41 43 39 41 199 234 44 47 115 131 200 235 37 39 34 36 109 125 115 131 199 234 201 236 44 47 132 156 140 166 141 167 80 237 202 238 69 239 200 240 82 240 202 240 115 131 114 130 200 235 200 235 114 130 82 241 203 242 200 242 202 242 203 243 202 238 204 244 205 245 203 243 204 244 203 243 205 245 206 246 207 247 206 246 205 245 114 130 208 248 209 249 210 250 129 251 122 138 114 130 116 132 208 248 115 131 111 127 116 132 109 125 111 127 115 131 211 252 212 253 110 126 212 253 213 254 110 126 111 127 136 160 116 132 213 254 214 255 110 126 208 248 215 256 209 249 209 249 215 256 216 257 213 254 217 258 214 255 182 211 184 213 215 256 218 259 219 260 214 255 135 159 183 212 182 211 219 260 218 259 220 261 216 257 184 213 221 262 183 212 222 263 184 213 135 159 223 264 222 263 224 265 130 153 129 152 216 257 221 262 129 251 221 266 224 265 129 152 222 267 224 265 221 266 225 268 226 269 222 267 225 268 222 267 223 270 218 259 227 271 220 261 220 261 228 272 219 260 149 273 228 274 220 275 224 276 140 166 130 153 140 166 150 176 141 167 229 277 230 278 224 276 222 267 229 277 224 265 226 269 229 277 222 267 226 269 231 279 229 277 232 280 233 281 229 277 232 280 234 282 233 281 225 268 231 279 226 269 49 283 149 273 220 275 49 283 220 275 227 284 149 273 231 279 225 268 149 175 148 174 231 279 148 174 234 282 232 280 49 52 48 51 149 175 230 278 151 177 150 176 235 285 151 177 230 278 233 281 235 285 230 278 235 285 233 281 236 286 234 282 236 286 233 281 234 282 237 287 236 286 236 286 238 288 235 285 236 286 237 287 238 288 50 53 239 289 48 51 48 51 239 289 240 290 240 290 239 289 241 291 148 174 237 287 234 282 48 51 240 290 148 174 148 174 240 290 237 287 235 285 242 292 151 177 242 292 153 179 151 177 242 292 243 293 153 179 244 294 155 181 154 180 245 295 198 233 157 183 246 296 198 233 245 295 246 296 245 295 244 294 245 295 157 183 155 181 244 294 245 295 155 181 238 288 242 292 235 285 247 297 238 288 237 287 238 288 247 297 243 293 243 293 247 297 244 294 247 297 241 291 246 296 240 290 241 291 247 297 247 297 246 296 244 294 201 236 62 71 61 70 201 236 61 70 44 47 63 298 62 298 201 298 64 74 248 299 36 38 67 300 64 74 66 76 64 74 249 301 248 299 250 302 251 303 213 254 237 287 240 290 247 297 252 304 249 301 253 305 249 301 64 74 67 300 249 301 67 300 253 305 168 194 252 304 166 192 249 301 167 193 248 299 248 299 167 193 254 306 167 193 249 301 168 194 167 193 255 307 211 252 167 193 211 252 254 306 256 308 255 309 257 310 255 307 256 311 211 252 257 312 206 246 207 247 258 313 166 192 255 307 259 314 179 315 260 316 259 317 257 312 207 247 256 308 257 310 211 252 257 310 259 318 211 252 165 191 259 318 260 319 260 319 163 189 165 191 165 191 212 253 211 252 212 253 165 191 164 190 261 320 164 190 163 189 168 194 249 301 252 304 262 321 263 322 251 303 97 113 99 115 112 128 188 217 264 323 265 324 217 258 251 303 266 325 230 278 229 277 233 281 267 326 268 327 194 328 217 258 266 325 227 271 150 176 140 166 230 278 267 329 194 229 188 330 269 331 227 284 270 332 188 330 194 229 193 224 265 333 267 329 188 330 186 228 188 330 193 224 265 333 270 332 267 329 265 333 269 331 270 332 269 331 49 283 227 284 265 324 50 53 269 334 101 117 103 119 106 122 271 335 264 323 187 216 272 336 264 323 271 335 198 233 271 335 197 232 272 336 271 335 198 233 271 335 187 216 197 232 272 336 50 53 264 323 50 53 272 336 239 289 239 289 272 336 241 291 246 296 272 336 198 233 272 336 246 296 241 291 44 47 61 70 43 45 250 302 164 190 261 320 192 223 76 93 75 92 12 83 69 82 68 337 195 230 197 232 187 216 23 338 159 338 24 338 98 114 97 113 112 128 195 230 187 216 186 215 228 274 225 268 223 270 202 238 205 245 204 244 205 245 259 317 207 247 211 252 259 318 165 191 104 120 106 122 103 119 219 260 134 158 214 255 251 303 250 302 262 321 261 320 262 321 250 302 102 118 55 62 103 119 268 327 263 322 273 339 273 339 192 223 268 327 209 249 216 257 210 250 210 250 105 121 209 249 231 279 148 174 232 280 35 37 38 40 33 35 104 120 97 113 96 112 119 135 105 121 210 250 68 80 83 99 57 64 115 131 37 39 34 36 100 116 105 121 119 135 34 36 25 26 36 38 118 134 106 122 96 112 228 272 134 158 219 260 206 340 257 341 255 342 203 343 206 340 199 234 206 340 255 342 199 234 199 234 255 342 166 344 200 345 203 343 38 346 199 234 41 43 38 346 203 343 199 234 38 346 41 43 40 42 38 346 40 42 30 347 32 348 38 346 40 42 33 349 33 349 40 42 32 348 27 350 30 347 40 42 45 56 27 350 40 42 45 56 40 42 60 351 58 65 45 56 60 351 65 78 58 65 60 351 67 79 65 78 60 351 67 79 60 351 63 352 67 79 63 352 253 353 63 352 252 354 253 353 122 138 119 135 210 250 218 259 217 258 227 271 211 252 110 126 254 306 209 249 74 91 82 241 136 160 111 127 274 355 147 173 154 180 152 178 263 322 262 321 181 210 273 339 263 322 181 210 134 158 274 355 214 255 185 214 273 339 181 210 122 138 129 251 128 356 137 161 131 155 124 154 135 159 222 263 183 212 118 134 117 133 77 94 34 36 248 299 109 125 105 121 94 110 74 91 18 357 19 357 15 357 15 358 19 359 1 360 19 361 20 361 22 361 19 359 22 362 24 363 19 359 24 363 1 360 14 364 15 364 1 364 3 365 1 360 6 366 1 360 24 363 6 366 5 367 3 365 6 366 6 366 24 363 11 368 6 366 11 368 9 369 24 363 159 370 11 368 159 370 172 371 11 368 80 97 11 368 172 371 172 371 171 372 80 97 80 97 171 372 78 95 69 373 11 368 80 97 78 95 171 372 174 374 78 95 174 374 175 375 78 95 175 375 84 100 84 100 175 375 176 376 84 100 176 376 162 188 79 377 85 378 205 245 80 237 79 377 205 245 86 379 177 380 259 314 259 314 205 245 86 379 205 245 202 238 80 237 85 378 86 379 205 245 180 209 101 117 185 214 133 164 132 156 139 165 192 223 273 339 185 214 192 223 185 214 76 93 154 180 243 293 244 294 146 172 147 173 152 178 158 184 57 64 56 63 228 274 149 273 225 268 27 381 45 381 28 381 109 125 248 299 254 306 74 91 73 90 82 241 98 114 121 137 107 123 112 128 99 115 119 135 209 249 82 241 114 130 210 250 216 257 129 251 254 306 110 126 109 125 153 179 154 180 147 173 238 288 243 293 242 292 243 293 154 180 153 179 274 355 111 127 214 255 110 126 214 255 111 127 134 158 136 160 274 355 215 256 116 132 182 211 167 193 166 192 258 313 95 111 57 64 93 109 133 164 138 163 123 162 136 160 182 211 116 132 216 257 215 256 184 213 182 211 136 160 135 159 218 259 214 255 217 258 180 209 185 214 181 210 201 382 199 382 63 382 101 117 106 122 185 214 63 352 199 234 166 344 166 344 252 354 63 352 135 159 134 158 223 264 179 208 163 189 260 319 116 132 215 256 208 248 190 227 90 106 195 230 57 64 95 111 55 62 194 328 192 223 191 222 167 193 258 313 255 307 69 87 202 383 73 88 73 88 202 383 81 384 82 385 81 384 202 383 228 272 223 264 134 158 140 166 224 276 230 278 221 262 184 213 222 263 13 13 158 184 2 2 8 8 13 13 2 2 2 2 158 184 21 22 21 22 16 17 2 2 213 254 212 253 250 302 212 253 164 190 250 302 34 36 36 38 248 299 227 271 266 325 270 386 229 277 231 279 232 280 259 314 177 380 179 315 261 320 163 189 178 207 100 116 119 135 99 115 55 62 95 111 104 120 95 111 97 113 104 120 261 320 178 207 181 210 262 321 261 320 181 210 217 258 213 254 251 303 13 13 57 64 158 184 263 322 266 325 251 303 268 327 266 325 263 322 188 217 187 216 264 323 209 249 105 121 74 91 200 235 38 40 37 39 266 325 268 327 270 386 264 323 50 53 265 324 268 327 267 326 270 386 163 189 179 208 178 207 192 223 194 328 268 327 50 53 49 52 269 334</p>
        </triangles>
      </mesh>
    </geometry>
  </library_geometries>
  <library_visual_scenes>
    <visual_scene id="scene">
      <node id="right_elbow_link">
        <instance_geometry url="#geometry">
          <bind_material>
            <technique_common>
              <instance_material symbol="scout_1a1a1a" target="#scout_1a1a1a" />
            </technique_common>
          </bind_material>
        </instance_geometry>
      </node>
    </visual_scene>
  </library_visual_scenes>
  <scene>
    <instance_visual_scene url="#scene" />
  </scene>
</COLLADA>