<?xml version='1.0' encoding='utf-8'?>
<COLLADA xmlns="http://www.collada.org/2005/11/COLLADASchema" version="1.4.1">
  <asset>
    <created>2026-09-14T00:00:00Z</created>
    <modified>2026-09-14T00:00:00Z</modified>
    <unit name="metre" meter="1" />
    <up_axis>Z_UP</up_axis>
  </asset>
  <library_effects>
    <effect id="scout_1a1a1a_effect">
      <profile_COMMON>
        <technique sid="common">
          <lambert>
            <emission>
              <color>0 0 0 1</color>
            </emission>
            <ambient>
              <color>0.05 0.05 0.05 1</color>
            </ambient>
            <diffuse>
              <color>0.1 0.1 0.1 1</color>
            </diffuse>
          </lambert>
        </technique>
      </profile_COMMON>
    </effect>
  </library_effects>
  <library_materials>
    <material id="scout_1a1a1a" name="scout_1a1a1a">
      <instance_effect url="#scout_1a1a1a_effect" />
    </material>
  </library_materials>
  <library_geometries>
    <geometry id="geometry" name="right_hip_pitch_link">
      <mesh>
        <source id="positions">
          <float_array id="positions_array" count="939">-0.0216549616 -0.0271935426 -0.395162433 -0.0250375383 -0.0208478644 -0.399956733 -0.0177756287 -0.0295674391 -0.407135189 -0.0199726056 -0.0238964744 -0.413946748 -0.0201152619 -0.0200268794 -0.413193733 -0.0213879142 -0.020128632 -0.386007339 -0.0157445204 -0.02463842 -0.369929552 -0.0105441315 -0.0295166522 -0.370842785 -0.0106671443 -0.0206811931 -0.34366551 -0.0121235624 0.019149866 -0.384353936 -0.0130219515 -0.0193924066 -0.385477394 -0.00454728911 -0.0216205828 -0.432134241 0.0037485708 -0.0236214902 -0.440941364 0.00423310371 -0.0280981362 -0.438130111 -0.00956682675 -0.0205040835 -0.426333219 -0.00336165563 -0.0257479548 -0.427109599 -0.0048588952 -0.0205959436 -0.400326908 -0.000179972558 -0.0298214182 -0.394380301 -0.00262641395 -0.0292848833 -0.403859824 0.0444002151 0.0941245556 -0.031532269 0.0409228466 0.0734694824 -0.0355651341 0.0322491489 0.0941424891 -0.0437227339 -0.00674151024 -0.0274979528 -0.338764876 0.000652252755 -0.0294548217 -0.333217919 -0.00482992548 -0.0152467713 -0.300287396 0.000516580651 -0.0226821247 -0.306899428 0.00205069222 -0.0197556503 -0.28224808 -0.0591808483 -0.0204463117 -0.0129840625 -0.0501176529 -0.0185782779 -0.0347192921 -0.0505959243 -0.0255028009 -0.0230756663 -0.044625368 -0.0224711802 -0.0386675075 -0.0544014275 -0.0258808136 0.0129125584 -0.0598979369 -0.0202580821 0.010719792 -0.0329998061 -0.0255622175 -0.0460081846 -0.0293132719 -0.0187659021 -0.0605015233 -0.0178205632 -0.0232748911 -0.0685656965 -0.0188564751 -0.0155318389 -0.0795561075 -0.0085084103 -0.0213743541 -0.0872483701 -0.00763148442 0.0242704842 -0.0964721292 -0.00828108937 0.0173889678 -0.110541485 -0.0135149341 0.0243377741 -0.0798766166 -0.00779047702 -0.0134837246 -0.111683547 0.000605481386 -0.0195822809 -0.125672013 -0.00262627122 -0.0204231236 -0.102972001 -0.0113824895 -0.0159353744 -0.0954411626 -0.00356703834 -0.0146062681 -0.272144586 -0.00479682488 -0.0126453182 -0.137225449 -0.050458245 -0.0200215019 0.0334141478 -0.0366661437 -0.0260976609 0.0402957611 -0.0209194627 -0.028977219 0.0222936422 -0.0397215597 -0.0193621404 0.0459018238 -0.0258927234 -0.0217383336 0.0541122332 -0.0118546654 -0.0247649085 0.0555587932 -0.000161072705 -0.0206156969 -0.395476222 -0.00862212572 -0.0195356533 0.0599720553 0.00653009629 -0.0255715642 0.0555487536 -0.0190702081 0.0294895358 -0.403743178 -0.0230315998 0.0201952681 -0.40947184 -0.0238042809 0.0237025041 -0.394017726 -0.0198870264 0.023126116 -0.414571613 -0.0212903116 0.019839095 -0.386531055 -0.0159284826 0.0245723892 -0.370338023 -0.0118262097 0.0294584595 -0.375210762 -0.0101757348 0.0260166582 -0.346852541 -0.00594640709 0.0192330293 -0.370425612 -0.000270127377 0.0190441012 -0.356158644 0.0482976958 0.0734091699 0.0242141988 0.0382086523 0.0727006793 0.0381179079 0.0412879065 0.0480741039 0.0343478471 0.0587699525 -0.0196688622 0.0150048044 0.0541714653 -0.0255877525 0.0137935998 0.0604814962 -0.0202433635 -0.00669738511 -0.00800795853 0.027775472 -0.424005657 -0.00958590675 0.0205323603 -0.426433563 -0.0545428395 0.0749650598 0.00772663159 -0.0475548021 0.0940717161 0.0263514835 -0.0529540293 0.0940728262 0.0122729093 -0.0037392145 0.0215949398 -0.432983041 -0.00196339656 0.0267324299 -0.427138776 0.00405651238 0.0249208342 -0.441435039 0.00271701696 0.0236663334 -0.438068748 0.00815614406 0.0296288095 -0.433205962 0.00125417428 0.0296182688 -0.404871881 -0.00523483148 0.0297384355 -0.400309235 -0.000768464466 0.0206647515 -0.404420137 -0.000606886577 0.0297657792 -0.39509517 -0.00330311852 0.0207751431 -0.396675408 0.00514167594 -0.0202290658 -0.400168955 -0.000903774577 0.0295606144 -0.335655332 -0.0084618507 0.0221212804 -0.330653816 -0.00428836839 0.0239428915 -0.319397002 -0.00484890724 0.0153396241 -0.299493015 -0.00108025817 0.0208019968 -0.299466103 -0.0593896024 0.0463204123 -0.0146151241 -0.0526141673 0.0483285561 -0.0119217653 -0.0465289354 0.0484570563 -0.0266654007 -0.0513452403 0.0725609735 -0.0165830255 -0.0435234606 0.0730132014 -0.0323252901 -0.0535744987 0.0710374117 0.00607836666 -0.0539966673 0.0936531425 -0.00644305069 -0.0504423417 0.0941312984 -0.0199236386 -0.0434246585 0.0298888683 -0.0431360006 -0.0244952627 0.0283623394 -0.0565373898 -0.0289396737 0.018592963 -0.0609989166 -0.0413538218 0.0457728542 -0.0448511466 -0.0520865507 0.0464173257 -0.0313418135 -0.0351788588 0.0484994054 -0.0402733944 -0.0256312117 0.046460066 -0.0550110266 -0.0253837891 0.0735532343 -0.0480950437 0.0600390472 -0.0145223904 -0.0808159187 0.0536917858 -0.0201863069 -0.0840903074 0.0574969947 -0.0173282195 -0.281381994 -0.0142665878 0.0176129919 -0.0895854831 -0.0223728139 0.0244872142 -0.063441962 -0.0181217268 0.0357725732 -0.0591032691 -0.020233674 0.0468870215 -0.0651736856 -0.0150049096 0.0450711176 -0.0610834993 -0.024833275 0.0487855822 -0.0474800617 -0.0272063781 0.0939351246 -0.0472152382 -0.0139967715 0.0941016376 -0.0525276773 0.0561650358 0.0277956352 -0.409383923 0.0483542383 0.0298066754 -0.410734922 0.054799322 0.0289936904 -0.328952402 -0.00355690764 0.01981337 -0.133259311 0.0033492886 0.0225226302 -0.30247575 -0.00289915805 0.0241322238 -0.114126846 -0.000160148076 0.0282188337 -0.152514577 -2.29280722e-05 0.0239290297 -0.131481096 0.00458443677 0.0297064986 -0.398978323 0.0054791295 0.0201755185 -0.399936229 0.000548590499 0.0344996229 -0.143297166 -0.00466381386 0.0485521406 -0.10138528 0.00116424949 0.0425842963 -0.127114281 -0.0105039012 0.0489925444 -0.0805812255 -0.0098692067 0.0474853963 -0.0883373395 -0.0116011249 0.0483776815 -0.0525667146 0.0123625994 0.0456301123 -0.0616886355 -0.00930799916 0.0733177885 -0.0534302257 0.00201158272 0.0940020531 -0.0543061346 0.0110740019 0.0726356804 -0.052913934 -0.0531038828 0.048120968 0.00967091601 -0.0593919531 0.0461082272 0.0147480248 -0.0508562624 0.0461803377 0.033577662 -0.0486014709 0.048470594 0.0227458514 -0.0474153496 0.0716906339 0.0250234082 -0.0430180952 0.0733065829 0.0333356857 -0.0396907181 0.0461952575 0.0462103188 -0.0422180593 0.0482043065 0.0332941115 -0.0287428629 0.048675742 0.04537718 -0.0408518352 0.0941325873 -0.0360337757 -0.0293575041 0.0738380551 0.045804102 -0.0392442532 0.0941227004 0.0377601348 -0.0265371352 0.0941499472 0.0474481992 -0.0254020393 0.0461587347 0.0554654263 -0.0150388861 0.0485180393 0.0514477901 0.00150062575 0.0481031276 0.0541777909 0.000937571458 0.0462735333 0.0614119284 0.0122616887 -0.0280037951 -0.439106196 0.011326314 -0.0252652802 -0.444041044 0.00862819888 -0.0298646726 -0.432879418 0.0239562988 -0.0296103377 -0.43530646 0.0247034039 -0.0285024941 -0.44430691 0.0106304558 -0.0201382432 -0.422631353 0.00924471114 -0.0275399666 -0.424026072 0.019524157 -0.0272851232 -0.416849256 0.0049239262 -0.0298080407 -0.400578916 -7.06616338e-05 -0.0208445583 -0.404345363 0.0583499074 -0.0253595971 -0.330105782 0.0599867962 -0.0173980556 -0.308668464 0.0530110858 -0.023133928 -0.303479135 0.0193866771 -0.0198728405 -0.383264542 0.00724727055 -0.0207576416 -0.367265016 0.00798207335 -0.026498802 -0.367098033 0.0112629179 -0.0266809296 -0.363711774 0.0249707475 -0.0271936636 -0.373879224 0.018516086 -0.0272312798 -0.380805194 -0.000446520426 -0.0194490571 -0.356744438 0.0259535592 0.0271540396 -0.398906857 0.0229514763 0.0276305452 -0.411936432 0.0468452051 0.027883105 -0.425103426 0.017434122 -0.0274927206 -0.431366801 0.0214566682 -0.0266934708 -0.439654827 0.0177850183 -0.0216071326 -0.43280372 0.0243576486 -0.022103861 -0.432571232 0.034924902 -0.0259916019 -0.443083048 0.0242063347 -0.0272864234 -0.430065125 0.046172794 -0.0279243495 -0.425918847 0.0228654165 -0.0202139076 -0.409658611 0.0262679793 -0.027362043 -0.402628183 0.0240515415 -0.0200462826 -0.394354433 0.02122836 -0.0270054154 -0.384169936 0.026469646 -0.0190755837 -0.374415755 0.027802093 -0.0271466896 -0.375850797 0.0343892612 -0.0270274431 -0.379908413 0.0138947014 0.020386247 -0.377325833 0.042758055 -0.0262319986 -0.438032329 0.0382172242 -0.0293112434 -0.431971014 0.0485775247 -0.0241191275 -0.432512134 0.05449057 -0.0285304431 -0.413455188 0.0454047173 -0.0296826214 -0.420106024 0.0545307137 -0.02204323 -0.422970891 0.0566140674 -0.023105558 -0.418204784 0.0496189818 -0.0298373532 -0.399802446 0.0560344644 -0.0252870955 -0.40536353 0.0595484339 -0.0235174634 -0.404886156 0.0541275367 -0.0261499006 -0.383819878 0.0398566984 0.0286181364 -0.439068496 0.0422296599 0.025791429 -0.438575923 0.0321316533 0.0257229079 -0.443843037 0.0530227199 -0.029473193 -0.330510288 0.0514127389 -0.0200069323 -0.27905485 0.0557133444 0.0245840847 -0.389013618 0.041230686 0.0458737463 0.044824332 0.0262022521 0.0462594926 0.0550069101 0.0364316814 -0.0195975769 0.048736304 0.0600245781 -0.012036412 -0.28685379 0.0119879255 0.0252144523 -0.444305003 0.0240403693 0.0272773989 -0.43968457 0.00163588987 0.0238281302 -0.153981835 0.0251360908 -0.0288114715 -0.0184079595 -0.0126735587 -0.0300429706 -0.00755669223 -0.00248922221 -0.0289137289 -0.0306324344 0.0214656685 0.0940957889 0.0498505011 0.0113324579 0.0733894035 0.0529203191 0.025934618 0.0739261582 0.047620602 0.0543583557 -0.025512578 -0.0229515247 -0.0123166237 0.0738752633 0.0530126505 0.0151870698 -0.0197175555 0.0588630885 0.0330195464 -0.0255530421 0.0449278504 0.0463045686 -0.0256773885 0.0300895125 0.0229873136 -0.0289145932 0.0212239232 0.050807599 -0.0199043378 0.0327603146 0.0142773874 0.0283852685 -0.444380134 0.0155275855 0.0280222334 -0.43471083 0.0101296017 0.0202499982 -0.422777027 0.0125363739 0.0274703521 -0.423050553 0.0181987546 0.0279077012 -0.380174339 0.0087182913 0.0276292562 -0.366746902 0.00772535987 0.0199974515 -0.362342268 0.0110654049 0.0265129469 -0.36343497 0.0274210125 0.02963393 -0.435073286 0.0199637432 0.0213555582 -0.432358146 0.0241507366 0.0273877736 -0.429898769 0.0309199393 0.0284745172 -0.43479389 0.0232564062 0.0200514831 -0.409339875 0.0235032979 0.0202043336 -0.392922401 0.0211551394 0.0271963552 -0.384617805 0.0205026902 0.0199199468 -0.382522792 0.0245053712 0.0275947861 -0.374293715 0.0265385062 0.0219219457 -0.374740064 0.0300132278 0.027510047 -0.378487945 0.0369029939 0.0301135778 -0.431528598 0.0483589023 0.0235995464 -0.432412297 0.0531083532 0.0236376356 -0.304870546 0.0560522452 0.0235223062 -0.419728667 0.0530408435 0.0225142725 -0.424595445 0.0553691201 0.0249092858 -0.410594612 0.0597215928 0.0201027878 -0.409821182 0.0510161743 0.0274279807 -0.383222908 0.0178807434 0.0484097824 0.0505541041 0.0595820434 0.0167652108 -0.295586407 0.0598417297 0.0234441739 -0.342955053 0.0528571717 0.0221943967 -0.286482573 0.0280701257 0.0247542821 -0.151374057 0.0361039899 0.0295876712 -0.14757818 0.0281554125 0.0456935018 -0.114824332 0.00708598876 0.0485563651 -0.0532253943 0.0208302643 0.0485658497 -0.0493736081 0.0186801702 0.09410128 -0.0510498248 0.0307636242 0.045328714 -0.0551815219 0.0353172123 0.0469306335 -0.0567345619 0.0335184224 0.0480949692 -0.0421511494 0.0285709109 0.0728812516 -0.0458385609 0.0484695658 0.024567686 -0.14621897 0.0456282422 0.0456762165 -0.0419967808 0.0452133939 0.0487835035 -0.0287999697 0.0533792339 0.0472363122 -0.0407430828 0.0476041362 0.0733330175 -0.0254199635 0.0573645607 0.0210329834 -0.183767319 0.056597244 0.0289427973 -0.140507162 0.0551495142 0.0232521798 -0.143591657 0.0559518263 0.0244995877 -0.0377248004 0.0602443069 0.0189661905 -0.031560991 0.0364199653 0.0939617306 0.0403699204 0.0561112575 0.0279916432 -0.0246681012 0.0509179346 0.0296060368 -0.0338526219 0.0606409721 0.0282480549 -0.00891502947 0.0547017567 0.0445485339 -0.107839346 0.0536721572 0.0373894759 -0.128126189 0.0562744141 0.0382868089 -0.119226038 0.0551997833 0.0487826988 -0.0841001496 0.0536675081 0.049439013 -0.0689462274 0.0562159866 0.0440242477 -0.0418160856 0.0486437045 0.0413161814 -0.0381640494 0.0559158102 0.0460717976 -0.0247486699 0.0510803536 0.0478891395 -0.0169130191 0.0536764748 0.0491106287 -9.17544676e-05 0.0602899082 0.0462536514 -0.00773319369 0.0506048203 0.0483457111 0.018351566 0.00517818611 0.0938443691 0.0541339591 0.030696936 0.0493261889 0.0437599942 0.0511996858 0.046277903 0.0328998491 0.0456497148 0.0937985033 0.0295022577 0.0517467447 0.0941536501 0.0164676886 0.0601433963 0.0462397337 0.0118463831 0.0542323589 0.0940252468 -0.00152320135 0.0530698225 0.0732556656 0.00971459877 0.0536487848 0.0728278756 -0.0068677594 -0.00851337425 -0.0193988904 -0.376744866 -0.00520843687 0.0133614922 -0.133600011 -0.0137878731 0.0942110345 0.052428849 0.0515176877 0.0941079631 -0.017322924 0.0259845611 0.0372144282 -0.13684471</float_array>
          <technique_common>
            <accessor source="#positions_array" count="313" stride="3">
              <param name="X" type="float" />
              <param name="Y" type="float" />
              <param name="Z" type="float" />
            </accessor>
          </technique_common>
        </source>
        <source id="normals">
          <float_array id="normals_array" count="1764">-0.730504334 -0.675077319 0.103121087 -0.879134059 -0.476052612 -0.0222971719 -0.461755812 -0.875100195 -0.144848958 -0.81509304 -0.333996415 -0.473360032 -0.876725256 0.0605347231 -0.47716707 -0.937452018 0.032879997 -0.346558332 -0.949460983 -0.191605702 0.24861829 -0.817374706 -0.536054254 0.211055622 -0.340445668 -0.935951769 0.0899499357 -0.960181415 -0.19084166 0.204037055 0.0878029913 0.0212152377 -0.995911896 0.208640367 -0.00804464519 -0.977959335 0.0607825369 0.0276671592 -0.997767508 -0.707387269 -0.471219361 -0.526835382 -0.563058197 -0.48234868 -0.671047866 -0.401455492 -0.770891786 -0.494529456 -0.716793478 -0.249953568 -0.650945723 0.61894387 0.672261894 0.406167984 0.472693473 0.828160763 0.301182032 0.610328555 0.676680326 0.411828578 0.919875801 0.325385153 -0.218981862 0.813803732 0.00430173706 -0.581123948 0.746914566 -0.0147949969 -0.664755344 0.595853567 0.000726988306 -0.803092778 -0.658172071 -0.732713521 0.173033133 -0.181489244 -0.971727967 0.151018083 -0.928384006 -0.352543563 0.117542133 -0.381150693 -0.898230791 0.218873367 -0.65871793 -0.750923991 0.0469444357 -0.889929235 -0.419983923 -0.177874669 -0.826747775 -0.279930979 -0.487982303 -0.470035046 -0.857161701 -0.210572749 -0.601382494 -0.656150341 -0.455857307 -0.483648837 -0.866524577 0.123365238 -0.731386721 -0.673704743 0.105808102 -0.290402293 -0.914144278 -0.282854706 -0.745687306 -0.381865501 -0.546012044 -0.597484231 -0.677366853 -0.429169774 -0.628792942 -0.682146072 -0.37322408 -0.391084433 -0.894594789 -0.2162247 -0.896372139 0.323670655 -0.302909762 -0.934363186 0.290104836 -0.206892684 -0.722255588 0.59704262 -0.349123061 -0.677162051 -0.718417883 -0.159145579 -0.717140019 -0.69156599 -0.0862943754 -0.316864789 -0.936074138 -0.152845845 -0.589298606 -0.766015708 -0.256801695 0.150584459 -0.988471866 0.0157392789 -0.548749924 -0.753639519 0.361802489 -0.313595414 -0.888529181 0.334923655 -0.0497727655 -0.996693015 0.0642318726 -0.498978227 -0.676823556 0.541230679 -0.271323115 -0.80563426 0.526628137 -0.113449603 -0.836186349 0.536583245 0.715619028 -0.0840192735 -0.693419218 -0.127231956 -0.292882621 0.947645426 0.0027517532 -0.993043184 0.117718592 -0.518328905 0.849118173 -0.101653844 -0.851191461 0.485580564 -0.199209884 -0.707234263 0.702302873 0.0811810195 -0.693779469 0.61281395 -0.378324181 -0.962605298 -0.0361232534 0.268488616 -0.914735019 -0.389915824 0.105950639 -0.885885537 -0.459994256 0.0601002909 -0.823970199 0.535090983 0.186415717 -0.352131873 0.931577682 0.0903670639 -0.825698256 0.528738022 0.196617723 0.0163624156 -0.994424343 -0.104175538 0.217811286 -0.971354663 -0.0950177312 0.0764743835 -0.996910691 -0.0179103818 0.890391648 -0.0163025446 0.454903156 0.714499235 -0.0168723371 0.699432731 0.774713099 -0.0252198204 0.631809711 0.746620417 -0.632757127 0.205368847 0.494827777 -0.85953629 0.127839029 0.679448426 -0.733722925 0.000689428532 -0.508654714 0.737937152 -0.443530321 -0.69713527 0.359749317 -0.620147467 -0.758281708 -0.240671724 -0.605876207 -0.978897929 -0.137589186 0.151089624 -0.883999467 -0.0173427388 0.467166156 -0.972023129 0.0252621882 0.233522713 -0.748961091 0.323044568 -0.578532159 0.404504597 -0.853047669 0.329675108 0.595575511 -0.684366107 0.420633793 0.580274165 -0.690972924 0.431089699 -0.756379247 0.312386751 -0.574721694 0.3170968 -0.889524102 0.328932375 -0.114655472 0.985208631 -0.127350032 0.571861804 -0.0880334675 0.815612733 0.743868709 -0.107130751 -0.659683526 -0.656553566 -0.087836422 -0.749147654 -0.712937891 -0.0273198765 -0.700694799 -0.728617251 -0.00906732678 -0.684861064 -0.282476276 0.948106229 0.145951167 -0.901035309 0.403717071 0.158580735 -0.613016307 0.758859873 0.219869792 -0.956247628 0.27956894 0.0862069055 -0.597000778 0.797221899 0.0895951837 -0.268286109 0.96186173 -0.0533344522 -0.268824786 0.962306321 -0.0412288159 -0.235840172 0.962307453 -0.135439053 -0.956709564 -0.0169404857 -0.290550947 -0.794138372 -0.0139845498 -0.607576072 -0.860592425 -0.0302501954 -0.508395135 -0.989118218 -0.121993229 0.0822362378 -0.178354815 0.983891487 -0.0121273901 -0.0121311769 0.999926031 0.000869660988 -0.0107007027 0.99994272 0.000164119498 -0.73158145 0.0442301854 -0.680317819 -0.606076181 0.351744205 -0.713405669 -0.606176317 0.572673857 -0.551901221 -0.669188976 0.0201463513 -0.742819071 -0.864188254 0.0044498099 -0.503148913 -0.234932691 0.959524333 -0.155305058 -0.258061737 0.923615396 -0.283440977 -0.128676593 0.948237419 -0.290324271 -0.149326175 0.974899769 -0.165142775 -0.671375275 -0.0250528026 -0.740693986 -0.489300251 -0.0156199057 -0.871975482 0.919882059 -0.391456276 -0.0240612421 0.378334343 -0.924257159 -0.051105909 0.718434811 -0.69373852 0.0507776327 -0.905878723 0.261136025 -0.333454162 -0.697602391 0.562268078 -0.444078267 -0.738042057 0.465725482 -0.488255769 -0.027303772 -0.999611318 -0.00562667428 -0.792705119 0.169234753 0.585643411 -0.645877659 0.267756671 0.714946449 -0.847837865 0.120881163 0.516293228 -0.504145563 0.338213623 0.794637561 -0.161224514 0.947669744 -0.275551736 -0.517538607 -0.00934605766 -0.855608821 -0.248221949 0.00276727229 -0.968699217 0.643215597 0.75868696 -0.10328503 0.145195439 0.98849225 -0.042442698 0.442674577 0.889725685 0.111478083 -0.992874146 -0.00132460333 -0.119160503 -0.868187428 0.488839567 -0.0853610933 -0.14919582 0.981295407 0.121655151 -0.775573552 -0.619495809 -0.1212871 -0.923355937 -0.377335578 -0.0709341019 -0.789167345 -0.602777481 -0.117788687 -0.932946146 0.317566425 -0.169596821 -0.733547926 0.672454238 -0.098553203 -0.862381041 -0.130125165 0.489250809 -0.762855411 -0.00337176421 0.646560371 -0.710365653 0.0491507128 0.702114582 -0.987844646 0.14031814 -0.0668866485 -0.951789081 0.0850068927 -0.294739425 -0.676518619 0.668756783 -0.308361679 -0.504963875 0.838618636 -0.204279855 -0.518155932 0.830647767 -0.203810543 -0.627177596 0.753363907 -0.197714642 -0.508943498 0.0250018276 -0.860436738 -0.497829705 -0.0177872088 -0.867092371 -0.451574564 0.0242147725 -0.891904712 -0.0474604107 0.940694392 -0.335918963 -0.0497258902 0.937600315 -0.344140977 0.0609342232 0.954026937 -0.293461531 -0.643830061 0.739536107 -0.19639042 -0.151900873 -0.0171311013 -0.988247275 -0.199822754 -0.0261473265 -0.979483128 0.0407069214 -0.00310822856 -0.99916631 0.202611551 -0.0162283666 -0.979124725 -0.286264509 0.95728904 0.0406246297 -0.253132343 0.964965224 0.0690372065 -0.240540102 0.957930803 0.156553462 -0.354680359 0.926972151 0.122165784 -0.850912988 -0.0104749538 0.525202274 -0.839850724 -0.00494965632 0.542794883 -0.977206171 -0.00476890244 0.212238923 -0.905457735 0.104770645 0.411302149 -0.798196197 -0.0195651259 0.602079749 -0.641133964 -0.00901324954 0.767376006 -0.652310014 -0.00325973239 0.757945299 -0.215879411 0.959600747 0.180450782 -0.203040242 0.955216467 0.215258241 -0.173490942 0.948307455 0.265732765 -0.748636365 -0.0133267054 -0.662846863 -0.539620638 -0.0201475713 0.841667175 -0.713285387 0.00601199875 0.700847983 -0.48348859 0.00382490596 0.875342309 -0.117758967 0.948208749 0.295013607 -0.0615687966 0.921880186 0.382552207 0.00651940564 0.964322448 0.264650285 -0.00140572665 0.969499886 0.245087758 0.406251818 0.840137541 0.359344363 0.0809258297 0.962189257 0.260082334 0.156083643 0.889821172 0.428784579 -0.245447621 -0.725951016 -0.642456651 -0.0552080721 -0.988119423 -0.143429682 0.00248888391 -0.996681869 -0.081357263 0.0219186358 -0.972214639 -0.233062834 0.16423972 0.331883848 -0.92891252 0.465460837 0.167698383 -0.869035959 0.182920828 0.292925656 -0.938474596 0.048052527 0.998764753 -0.0126471939 0.399059206 0.0970942378 -0.911769927 0.735438466 0.203641683 -0.64626646 -0.489678591 0.0914937779 0.867089272 -0.524378479 0.0645707026 0.849033475 -0.383031696 0.168232203 0.908286631 0.822969794 -0.564212918 0.0662150905 0.929986894 -0.359642059 0.0760390759 0.351992309 -0.922507584 0.158370405 0.790329039 0.110182673 0.602693737 0.787876964 0.118416749 0.604340494 0.788588822 0.116048031 0.603871286 0.048554942 0.998753667 -0.0115535213 0.0197248999 0.999521852 -0.0238110982 0.0272971448 0.999415219 -0.0205946956 0.0615966469 0.998083115 -0.00599821843 0.791064918 0.107669726 0.602182329 0.71827352 0.071801722 -0.692045987 0.639891922 0.664917886 0.385256469 0.00810389686 -0.999901295 -0.0114764133 0.00102027867 -0.9999457 -0.0103712687 -0.333730459 -0.935197175 0.118449435 -0.0536977649 0.998480439 -0.0123861656 -0.0275076069 0.979551077 0.199306473 -0.896267235 -0.0540382899 -0.440210104 0.0820298269 0.820747077 -0.565371871 0.0474482737 0.274924308 -0.960294366 0.945587158 -0.163607404 -0.281242847 -0.023858279 0.98884511 0.147024199 -0.305645376 0.943691432 0.12659955 0.00724266702 0.999778748 0.0197480731 -0.0031617647 0.999991715 -0.00255950866 0.893930256 0.18366307 -0.408847809 -0.106562503 0.331546426 0.937401414 -0.190226898 0.243533358 0.951054811 -0.0904559568 0.347739965 0.933217347 0.00104381843 0.435312569 0.900278807 0.975415528 0.201719448 -0.088734448 0.96999526 0.121627413 0.210513577 0.906709909 0.186074153 0.378488541 0.931756318 0.122312084 0.341862381 -0.740085542 0.225325137 0.633641779 -0.760698676 0.284926504 0.583227634 -0.746639252 0.242979527 0.619266272 -0.7204476 0.177331522 0.670454144 0.75395602 0.255400747 -0.605244398 0.752092898 0.247607023 -0.610775709 0.757482827 0.270984352 -0.593958914 0.74865514 0.233889535 -0.620331526 -0.52422893 0.0644325688 -0.849136293 -0.56872189 0.00944729242 -0.822475612 -0.37949419 0.0175188798 -0.925028265 -0.435782641 0.169644207 -0.883919895 -0.470683664 0.140958309 -0.870969355 -0.598623455 0.0242760275 -0.800662637 0.0141258789 -0.999576509 -0.0254417397 -0.0353962593 -0.999357343 0.00565581303 0.0131851304 -0.999888241 -0.00704607926 0.321242958 -0.896766126 -0.304324597 0.263493866 -0.85365051 -0.449279189 0.16513148 -0.970894456 -0.173480824 -0.176301152 0.966838419 0.184773996 -0.568299711 0.785217285 0.245905012 0.55046159 -0.81884712 -0.162731126 0.132820874 -0.986887932 -0.0917103216 0.626048386 -0.694305301 -0.354969829 -0.610064566 0.766646504 0.200185701 0.874420822 -0.330830455 -0.354879439 0.74365437 -0.553862453 -0.374452293 0.11914555 -0.992856145 -0.00640507741 -0.337633759 0.940369546 0.0413348116 0.928961158 -0.361838847 -0.0781271756 -0.0869975761 0.99588114 -0.0255374201 0.434272468 0.667585969 -0.604761481 0.66012001 0.467187852 -0.588198125 0.449240953 0.226528347 -0.864214957 -0.977153122 0.00371394423 -0.212504193 0.30939272 -0.944652498 0.109123051 0.206561521 -0.976657987 0.058919467 -0.938255072 -0.0229330771 -0.345183313 -0.999981344 0.00607624697 0.000649148365 -0.990315437 0.0168464985 -0.137809694 0.677028775 -0.00565298367 0.735934854 0.41055876 0.00860824343 0.91179353 0.601979196 -0.0115251159 0.798428595 0.985045016 -0.170122415 0.0272880346 0.172261104 -0.957278013 0.232260406 -0.0707454681 -0.971655965 0.225565344 -0.000514382264 -0.952779889 0.303661346 -0.655032516 0.755391121 -0.0177940354 0.0692683607 -0.996605814 -0.0444835015 -0.0392904356 -0.999037683 -0.0194931235 -0.007122749 -0.996086597 -0.088095136 0.397301435 0.0110304076 0.917621851 0.187249616 -0.00850165542 0.982275546 0.482803494 -0.0138804419 0.875618696 0.435718 -0.898630142 -0.0511237644 -0.20969294 -0.00802618731 0.977734327 0.0873540044 -0.606950045 0.789924622 0.246884167 -0.362285793 0.898775399 -0.504225552 0.015450418 -0.863433778 -0.592288017 -0.0163246393 -0.805560946 -0.557806134 0.00260330341 -0.829967201 0.437659472 -0.662496924 0.607907891 0.455778182 -0.649998426 0.608085811 0.631332576 -0.147367969 0.761381507 0.110572644 -0.991317511 0.0711568072 0.0587235205 -0.996754706 0.055059839 0.624230027 -0.669875085 0.402000308 0.624006569 -0.665767074 0.409108758 -0.0857930332 -0.921939731 -0.377712399 0.0105075231 -0.938355982 -0.345510721 0.037390396 -0.941168845 -0.335861892 -0.0947324783 0.965832174 -0.241234332 -0.396447778 0.821900964 -0.409032941 -0.104857743 -0.91750747 -0.383646816 0.0971433297 -0.986996055 0.128070205 -0.338973731 0.223097295 -0.913960814 -0.0656742603 0.0237803869 -0.9975577 -0.236914292 0.14831087 -0.960143507 0.168799266 -0.313800663 -0.934363961 0.192206383 -0.275247842 -0.941963553 0.459548473 -0.212590382 -0.862334311 0.549902081 -0.213885292 -0.807378948 0.716298699 -0.151969001 0.681044519 0.89965117 0.0053065368 0.436577111 0.779120147 -0.122412078 0.614806533 0.919101179 0.100331672 0.38103351 0.656402051 -0.43934989 -0.613276422 0.00131503621 0.996979415 -0.0776548684 -0.456546307 -0.550463498 -0.698967397 0.713652551 -0.700499773 -0.000147828119 0.258465737 -0.962822258 -0.0785414129 0.822042406 -0.569419205 -0.0028487267 0.0776999667 0.906979084 -0.41394639 0.0239372514 -0.0409548022 -0.998874247 0.37731123 -0.912565947 -0.157669514 0.232563958 0.825690866 0.513953865 0.841108978 -0.152990371 -0.518777072 0.904398143 -0.172675446 -0.390188724 -0.48818019 -0.016909698 0.872579038 0.976998746 -0.210301191 0.0353109688 0.966521025 -0.128852665 0.221887469 0.956026614 -0.0259063169 0.29213348 0.960832536 -0.0063847932 0.277056038 -0.0350893475 -0.997009814 -0.068848528 -0.0915539414 -0.978074372 -0.187051713 -0.0182461739 -0.999268651 -0.0336044468 -0.117505692 -0.963283479 -0.241407007 0.614933252 -0.0539373644 0.786732435 -0.674648285 -0.349916011 0.649929643 -0.68085891 -0.3803958 0.62588352 -0.671571553 -0.336274624 0.660235643 -0.660126925 -0.291074932 0.692465007 -0.566457868 0.103937589 -0.817509949 -0.612735868 -0.158686444 -0.774192095 -0.632609189 -0.0399296582 -0.773441195 0.676900566 -0.429122448 -0.598046482 0.600202322 -0.522136867 -0.605912685 0.796637356 -0.232122272 -0.55811125 0.437147349 -0.672416508 -0.597292423 -0.672829866 -0.739777386 0.0054211258 -0.770765424 -0.636742115 -0.0219108667 -0.62378639 -0.0192604512 0.781357527 -0.519122422 0.0215061326 0.854429305 -0.507605612 0.170334131 0.844584405 -0.470355898 -0.419273257 0.776514828 0.130225733 0.740260124 -0.65958792 -0.19547452 -0.956585288 0.216181174 0.0229901429 0.996890366 -0.075372763 -0.13124162 0.96133852 -0.242082402 -0.604104817 -0.73576951 0.306105584 0.295662969 0.939024031 0.175548494 -0.349523246 -0.669427514 0.655515254 -0.294848591 -0.745845497 0.597309589 0.916115344 -0.0020640213 -0.400909454 0.80432713 0.495121568 -0.328500301 -0.645412564 -0.720927 0.252402246 0.621228814 0.689372241 -0.372613311 0.853855073 -0.048898641 -0.518208921 -0.429074109 -0.901384771 0.0583169051 0.078485474 -0.984729052 0.155398577 0.970636785 0.186079055 -0.152442783 -0.154013395 -0.98806417 0.00300786854 -0.521990597 -0.852939248 -0.00452692853 0.0285464432 -0.0152262179 0.999476492 0.340191513 -0.0334049016 0.939762652 0.91646564 0.398302913 0.0380205624 0.933075249 0.359564066 0.00917787943 0.335804909 0.941838503 0.0132400692 -0.922992587 -0.00120672886 -0.384815782 0.0801503956 0.345263988 -0.935076833 0.0665024221 0.631997943 -0.772111416 0.120481305 0.471876234 -0.873394012 0.035283912 0.855566561 -0.516488969 0.184182003 0.642326832 -0.743971229 -0.931127429 -0.358479708 -0.0670377165 0.00557606807 0.994349599 -0.106008604 0.063034974 0.964781582 -0.25538817 0.01778543 0.939999938 -0.340710729 -0.0093826903 0.909429908 0.415751427 -0.0426999964 0.974458218 0.220472097 0.0113446619 0.969795406 0.243655905 0.116714872 -0.02246744 -0.992911279 0.385889858 -0.0205995105 -0.922314882 0.341708541 -0.00534377201 -0.939790785 0.0270764157 0.946844876 -0.320549041 0.154797897 0.952331185 -0.262874246 0.121330984 0.940699816 -0.316800654 -0.140488684 0.974254072 0.176329002 -0.179851368 0.898802996 0.39975819 0.187847942 0.953443408 -0.235921308 0.515660822 -0.0130341062 -0.856693685 -0.383701295 -0.0117591219 0.923382401 0.260567665 0.905504107 -0.334913075 -0.230258822 0.942728281 0.241338372 0.219174162 0.949810266 -0.223210961 0.276369274 0.944508195 -0.177550852 -0.144172102 0.979000568 0.144125804 0.627897561 -0.0292710569 -0.777745366 0.897108674 -0.0151764788 -0.441549212 0.600183725 0.799827754 -0.00742034242 0.304152369 0.677118361 -0.670076191 0.543070376 0.78815335 -0.289635748 -0.999867558 0.00906354003 -0.0135176815 0.780138791 0.619212627 -0.0892143697 0.82737118 0.547220647 -0.126516953 0.98046571 -0.19667609 -0.00234539248 0.999884129 -0.00756470859 -0.0132100945 0.969696224 -0.244272962 -0.00447060354 0.661297619 -0.00109915563 0.750122845 0.89156425 0.332957983 -0.307005227 0.611106217 0.762777746 -0.211469367 0.995732069 0.0465229042 -0.0797075033 0.105621807 0.964165568 -0.243369758 0.422439694 0.826595485 -0.371866465 0.917766869 0.371783435 -0.139574334 0.903581142 0.415657192 -0.103779688 0.998082697 0.061766725 0.00397735648 0.77760756 0.626594782 0.0520136617 0.759212136 0.648248076 0.0580636226 0.778676569 0.625295639 0.0516539365 0.864129543 0.0801754147 -0.496842116 0.92569083 0.0247684307 -0.377469182 0.875007391 0.0020702302 -0.48410514 -0.239418089 0.542341352 0.805322826 0.849061549 0.139243394 -0.509613395 0.319419473 0.313031793 0.894417286 0.608833551 0.200245991 0.767608821 0.431142181 0.187645182 0.882556379 0.688875914 0.139725283 0.711285353 0.415055335 0.0633756593 0.907586157 0.273207843 0.95600611 -0.10681691 0.220778927 0.971252859 -0.0890198946 0.452522844 0.889331937 0.0656641126 0.325663209 0.944208741 -0.0491254106 0.339251548 0.924079299 0.176028043 0.757870674 0.649777234 0.0584948584 0.127143785 0.966014624 0.225056082 0.0806622729 -0.00485898415 0.996729672 0.0868456364 0.950945139 0.296919465 0.297081083 -0.843993664 0.446561933 0.205224797 0.958455026 0.198107839 -0.291092455 -0.0317960493 0.956166387 0.110584512 0.985864997 0.125862285 0.188798293 0.975375533 0.11400754 0.839250207 -0.00974429213 0.543658137 0.0277700722 0.999280572 0.0258291345 0.109769046 0.990864635 0.0783455074 0.00573150301 0.999976158 0.00384622416 0.958183646 0.00105508126 0.286152124 0.229197502 0.972781777 0.0341188423 0.968117476 -0.0110158045 0.250254303 0.978234768 0.0020180128 0.207491249 0.850892067 -0.00852594152 0.525271297 0.999859571 0.0043329671 -0.0161874238 0.984663963 -0.012126727 0.174039841 0.990785956 -0.0128907599 -0.13482222 0.230101183 -0.013312595 -0.973075628 0.927407026 0.00144256337 -0.374050975 0.910217047 -0.000371500297 -0.414131314 0.923665941 0.00710816123 -0.383132815 0.916991234 0.00715160184 -0.398843259 0.888532281 -0.00733896904 -0.458755374 -0.990028262 0.117188878 -0.0781714842 0.939294577 -0.0297099035 0.341823071 -0.828460813 -0.00454890914 -0.560028613 -0.908622861 0.00904353522 -0.417519659 -0.00568290893 0.999929845 0.0103950463 -0.0152751431 0.99982363 -0.0109259514 -0.236203745 0.0108051514 0.971643448 -0.0402799882 0.998357654 0.0407368205 0.574818373 -0.0335892141 0.81759131 -0.785254776 -0.0387165286 -0.617961109 0.0705208778 -0.991344273 0.110740066 -0.0263594221 0.999510288 -0.0168628022 0.0119443201 0.9998734 -0.010513098 -0.00182575791 0.99996686 -0.0079375105 0.0341224633 0.999367714 -0.00999224 -0.978046 -0.0081447456 -0.20822987 -0.985428274 0.00640876032 0.169970796 -0.979361892 -0.00872702058 -0.201926097 -0.998278677 -0.0101507287 -0.0577640831 -0.910625398 0.0104616322 0.413100392 0.949217439 -0.00827464741 -0.314511955 -0.981507301 0.18467848 -0.0503714979 -0.772780895 -0.0177412014 0.634424925 -0.543847203 -0.025576124 0.83879441 -0.0491130166 -0.990633488 -0.127409428 -0.925993443 0.0623001009 -0.372363836 0.903965712 0.312951952 0.291388065 -0.911750972 0.0552193522 -0.407014728 -0.985134482 -0.00291458378 0.171760276 0.027638698 0.995725632 -0.0881278291 -0.565978706 0.168575257 0.807000935 0.0101008918 -0.997199357 -0.0741043463 0.0285439808 -0.999577224 -0.00552874804 0.00292711728 -0.999983966 0.00484158052 -0.0158122163 -0.999872804 0.00208643847 -0.0205738395 -0.999786556 0.001874062 -0.00619260641 -0.999979734 0.00148307206 0.00557409693 -0.999932289 -0.0102163982 -0.0252638403 -0.999655426 0.00712498603 -0.0192156006 -0.999811411 0.00280758413 -0.407764196 0.000713565212 0.91308701 -0.00570162851 0.999891102 -0.0136136804 0.00359460246 -0.00119225215 0.999992847 -0.0159525368 -0.999865592 -0.00378908031 -0.0455506817 -0.998918295 -0.00934902579 -0.0106128091 -0.9978652 0.0644387603 0.129554838 -0.879688919 -0.45756191 0.0166559182 -0.999644935 -0.020797478 0.00574939419 -0.999066353 0.0428177863 0.00697311712 -0.999835432 0.0167489313 -0.32099402 0.25650543 -0.911684036 0.143904597 -0.98902142 0.0335870907 0.0776239857 0.887351692 -0.454512417 0.952129006 -0.0190127362 -0.305104643 0.999503374 -0.0310108848 0.00560056046 0.999477148 -0.0190042742 -0.0261588283 0.835496128 -0.032508038 -0.548533916 -0.467698514 -0.0323279127 -0.883296669 0.00502433814 0.999940395 0.00969443377 -0.000530089252 0.999989271 0.00460204808 0.0104238931 0.995127559 0.0980432183 0.999481559 -0.00729925279 0.0313586555 -0.0341085941 0.999375999 -0.00917966478 0.00263213762 0.996142864 0.0877064168 0.837986588 -0.00611490617 0.545656621 -0.00223061698 0.999994218 -0.00256863353 -0.00743554905 0.999956667 0.00560673093 -0.0413956307 0.999142706 -0.000467467064 -0.0324656479 0.999460101 0.00504539441 -0.00526438979 0.999883711 -0.0143112708 -0.771259606 0.0447066836 -0.63494873 -0.00170817762 -0.999932528 -0.0114904717 -0.402486503 -0.0134104267 -0.915327668 -0.593419731 0.0565033555 -0.802907467 -0.577351928 0.0237464197 -0.81615001 -0.997817159 0.000410960172 0.0660355389 -0.995999515 0.0389796644 -0.0804084837 -0.0055011278 0.999950469 -0.00829119049 -0.00818082783 0.999725878 -0.0219378397 -0.00124897936 0.999998987 -0.000725294347 -0.00201345887 0.999976218 -0.00659219129 -7.67243473e-05 0.999997973 -0.00199922384 -0.00113835139 0.999994934 -0.0029697963 -0.0385921709 0.997157991 -0.0647036433 0.00284039555 0.999974608 -0.00653780624 -0.00273234141 0.999993742 -0.00223683054 -0.000690763176 0.999999344 -0.000907777052 0.00180611643 0.999210238 -0.0396941081 0.00342259416 0.999994159 7.20258467e-05 0.00161688065 0.999998689 9.048215e-05 0.0398821346 0.999203086 -0.00162183435 -0.200828493 0.00708690984 -0.979600787 -0.219929874 -0.00190244836 -0.975513816 -0.00997690391 0.998968899 -0.0442904979 -0.00179468584 0.999992192 0.00351598137 -0.0203541871 0.999756277 0.00855235197 0.0349270664 0.999097347 -0.0241792202 -0.0474056751 0.997636795 -0.0497346371 -0.00392834842 0.996854424 -0.0791569948 0.016647594 0.999775469 -0.0131108034 0.0924840495 0.99529469 -0.0288992077 0.0620700829 0.997875869 -0.0197745394 0.111041404 0.992915332 -0.0422964916 -0.911634743 0.0555769168 -0.407226384 0.992842257 0.0269940849 -0.116342559 0.999956965 -0.000962371472 -0.00922668725 -0.176479176 0.984293759 -0.00457737595</float_array>
          <technique_common>
            <accessor source="#normals_array" count="588" stride="3">
              <param name="X" type="float" />
              <param name="Y" type="float" />
              <param name="Z" type="float" />
            </accessor>
          </technique_common>
        </source>
        <vertices id="vertices">
          <input semantic="POSITION" source="#positions" />
        </vertices>
        <triangles material="scout_1a1a1a" count="634">
          <input semantic="VERTEX" source="#vertices" offset="0" />
          <input semantic="NORMAL" source="#normals" offset="1" />
          <p>0 0 1 1 2 2 1 1 3 3 2 2 4 4 3 3 1 5 5 6 1 1 0 0 5 6 0 0 6 7 7 8 6 7 0 0 8 9 5 6 6 7 5 10 9 11 10 12 11 13 12 14 13 15 4 4 14 16 3 3 14 16 13 15 3 3 2 2 3 3 13 15 14 16 11 13 13 15 14 17 15 18 11 19 2 2 7 8 0 0 16 20 17 20 18 20 19 21 20 22 21 23 22 24 6 7 7 8 23 25 22 24 7 8 8 9 6 7 22 24 24 26 8 9 22 24 23 25 25 27 22 24 26 28 24 26 25 27 27 29 28 30 29 31 28 30 30 32 29 31 31 33 32 34 27 29 31 33 27 29 29 31 29 31 30 32 33 35 28 30 34 36 30 32 35 37 34 36 36 38 36 38 37 39 35 37 30 32 34 36 33 35 35 37 33 35 34 36 38 40 39 41 40 42 41 43 42 44 43 45 36 38 44 46 37 39 24 47 45 47 46 47 36 38 41 43 44 46 47 48 32 34 31 33 48 49 31 33 49 50 47 48 31 33 48 49 50 51 47 48 48 49 50 51 48 49 51 52 52 53 51 52 48 49 53 54 17 54 16 54 54 55 51 52 52 53 52 53 48 49 55 56 56 57 57 58 58 59 59 60 57 58 56 57 60 61 58 62 57 63 61 64 58 62 60 61 58 59 62 65 56 57 61 64 60 61 63 66 61 64 62 65 58 59 9 67 64 68 65 69 66 70 67 71 68 72 69 73 70 74 71 75 72 76 73 77 59 60 59 78 73 78 57 78 74 79 75 80 76 81 72 76 77 82 73 77 78 83 73 84 77 85 72 76 79 86 77 82 80 87 78 83 77 85 56 57 81 88 72 76 56 57 72 76 59 60 82 89 83 89 84 89 83 90 85 90 86 90 61 64 63 66 62 65 53 91 87 92 17 93 63 66 88 94 62 65 89 95 88 94 63 66 90 96 88 94 89 95 90 96 89 95 91 97 92 98 90 96 91 97 89 95 63 66 8 9 93 99 94 100 95 101 96 102 97 103 95 104 74 79 96 102 98 105 99 106 76 107 100 108 101 109 102 110 103 111 101 109 104 112 102 110 105 113 104 112 101 109 105 114 106 115 107 116 105 114 107 116 104 117 95 101 106 115 105 114 93 99 95 101 105 114 97 103 106 118 95 104 97 103 108 119 106 118 109 120 110 121 111 122 40 42 112 123 103 111 113 124 40 42 103 111 102 110 113 124 103 111 114 125 113 124 102 110 113 126 38 126 40 126 114 127 115 128 113 129 116 130 115 128 114 127 106 115 117 131 107 116 118 132 119 133 108 119 120 134 121 135 122 136 76 81 99 137 74 79 92 98 123 138 124 139 125 140 126 141 127 142 39 41 125 143 123 138 123 138 125 143 127 144 38 40 125 143 39 41 40 42 39 41 112 123 128 145 82 146 129 147 130 148 125 143 131 149 131 150 132 150 130 150 115 151 133 152 134 153 107 154 116 155 114 156 107 116 135 157 116 158 135 157 136 159 116 158 133 152 131 160 134 153 108 119 137 161 135 162 138 163 139 164 137 161 93 99 140 165 94 100 141 166 140 165 93 99 142 167 140 165 141 166 142 167 143 168 140 165 47 169 142 170 141 171 74 79 98 105 144 172 145 173 74 79 144 172 50 174 146 175 142 170 142 167 147 176 143 168 142 167 146 177 147 176 146 177 148 178 147 176 149 179 108 119 97 103 150 180 151 181 145 173 152 182 151 181 150 180 153 183 148 178 146 177 153 183 154 184 148 178 153 183 155 185 154 184 156 186 155 185 153 183 12 187 11 19 15 18 15 18 157 188 12 187 12 187 157 188 158 189 158 190 13 15 12 14 159 191 13 15 160 192 13 15 158 190 161 193 159 191 2 2 13 15 14 194 162 195 15 196 15 18 163 197 157 188 15 196 162 195 163 198 163 198 162 195 164 199 165 200 166 201 18 202 167 203 168 204 169 205 170 206 171 207 172 208 173 209 174 210 175 211 173 209 175 211 172 212 170 206 172 208 175 213 171 214 173 214 172 214 176 215 173 215 171 215 177 216 178 217 179 218 160 192 13 15 161 193 157 188 180 219 181 220 182 221 181 221 180 221 182 222 183 222 181 222 157 188 181 220 158 189 158 223 184 223 161 223 183 224 185 224 181 224 181 220 184 225 158 189 181 220 186 226 184 225 185 227 186 226 181 220 163 197 164 228 180 219 162 195 187 229 164 199 182 230 180 231 185 232 183 233 182 230 185 232 187 229 188 234 164 199 187 229 189 235 188 234 189 235 170 236 190 237 189 235 190 237 188 234 191 238 170 239 175 240 191 238 175 240 174 241 170 242 192 243 190 244 170 242 191 245 192 243 192 246 191 247 193 248 129 249 85 250 128 251 86 252 129 253 194 254 195 255 161 193 184 256 196 257 160 192 161 193 196 257 161 193 195 255 186 226 195 258 184 225 186 226 197 259 195 258 198 260 196 257 195 255 198 260 199 261 196 257 197 262 198 260 195 255 200 263 197 259 186 226 201 264 198 260 200 265 202 266 199 261 198 260 200 263 186 226 203 267 204 268 198 260 201 264 205 269 203 267 186 226 206 270 207 271 208 272 41 273 112 123 39 41 169 205 209 274 167 203 111 122 210 275 169 205 111 122 169 205 168 204 211 276 203 277 205 278 212 279 213 280 214 281 215 282 111 122 168 204 216 283 208 284 217 285 218 286 124 139 123 138 219 287 220 288 221 289 222 290 223 291 224 292 219 287 110 121 225 293 150 180 226 294 152 182 109 120 71 75 225 293 71 75 70 74 225 293 111 122 215 282 109 120 54 55 52 53 55 295 227 296 54 55 55 295 176 297 65 298 173 299 227 296 55 295 228 300 214 301 227 296 228 300 18 302 166 302 16 302 229 303 230 304 70 74 214 301 228 300 231 305 231 305 228 300 229 306 69 73 229 306 70 74 69 73 231 305 229 306 79 307 80 308 77 309 72 76 232 310 79 311 216 312 80 308 79 307 72 76 81 88 232 310 233 313 80 87 216 283 79 314 232 315 216 316 73 317 78 318 234 319 78 83 80 87 233 313 78 318 235 320 234 319 236 321 237 322 194 323 237 322 238 324 194 323 237 325 239 325 238 325 90 96 124 139 88 94 92 98 124 139 90 96 81 88 240 326 232 310 233 327 217 327 241 327 217 285 233 313 216 283 217 328 242 329 241 330 240 326 206 331 232 310 232 315 208 332 216 316 240 333 242 329 217 328 240 334 243 334 206 334 234 319 178 335 244 336 235 320 178 335 234 319 242 337 233 337 241 337 178 335 177 338 244 336 245 339 246 340 247 341 177 338 246 340 245 339 244 336 177 338 245 339 248 342 237 343 236 344 239 345 237 343 248 342 236 321 194 323 247 346 236 347 247 348 249 349 248 350 236 347 249 349 239 351 248 352 249 353 246 354 249 355 247 356 250 357 249 355 246 354 45 358 42 44 46 359 166 201 165 200 87 360 179 361 251 362 243 363 232 310 206 331 208 364 207 365 217 285 208 284 179 218 217 285 207 365 251 366 206 270 243 367 252 368 179 218 207 365 88 94 253 369 122 136 217 370 243 363 240 371 200 372 254 373 201 264 255 374 179 218 252 368 207 271 254 373 252 375 206 270 254 373 207 271 251 366 121 135 206 270 252 376 254 376 255 376 121 135 120 134 206 270 256 377 179 218 255 374 120 134 254 373 206 270 256 378 255 378 254 378 254 373 120 134 257 379 256 377 258 380 179 218 211 381 258 380 256 377 223 291 155 382 259 383 122 136 253 369 260 384 122 136 260 384 261 385 262 386 260 384 253 369 97 103 96 102 100 387 218 388 126 389 263 390 130 391 264 392 126 389 218 393 127 142 126 141 131 394 265 395 132 396 116 397 136 398 115 399 266 400 139 164 267 401 138 163 268 402 139 164 126 389 264 392 263 390 266 403 269 404 136 159 267 405 269 404 266 403 270 406 136 398 269 407 267 405 271 408 269 404 135 157 107 116 117 131 268 402 272 409 139 164 50 174 153 410 146 175 264 392 273 411 263 390 270 406 269 407 274 412 271 408 274 413 269 404 275 414 274 413 271 408 276 415 270 406 274 412 272 409 20 22 271 416 20 22 19 21 277 417 262 386 278 418 260 384 264 392 279 419 280 420 211 276 256 421 203 277 280 420 281 422 282 423 279 424 281 425 280 426 46 359 42 44 41 43 222 290 224 292 283 427 281 422 284 428 282 423 220 288 29 31 33 35 284 428 281 422 285 429 284 428 286 430 282 423 287 431 288 432 265 395 288 432 289 433 279 419 288 432 287 434 289 433 287 434 290 435 289 433 291 436 292 437 290 438 293 439 294 440 285 441 276 442 274 442 293 442 274 443 294 440 293 439 293 444 285 445 292 446 292 446 285 445 281 447 292 446 276 448 293 444 275 414 294 449 274 413 275 414 295 450 294 449 296 451 297 452 294 449 296 451 294 449 295 450 296 451 298 453 297 452 291 436 276 454 292 437 156 186 213 455 155 185 299 456 226 294 223 291 224 292 223 291 259 383 213 455 259 457 155 185 259 458 68 458 300 458 213 455 68 459 259 457 283 427 224 292 67 71 154 460 155 382 226 294 213 455 212 461 301 462 302 463 67 71 66 70 283 464 302 465 303 466 303 467 302 463 66 70 298 453 304 468 297 452 68 459 304 468 298 453 301 462 304 468 68 459 69 469 304 470 301 471 305 472 306 473 307 474 261 385 257 379 120 134 5 10 60 475 9 11 226 294 150 180 154 460 25 27 24 26 22 24 176 476 308 477 65 478 65 478 308 477 9 479 308 477 10 480 9 479 39 41 123 138 309 481 31 33 29 31 220 288 67 71 302 463 283 427 306 473 66 70 298 482 220 288 33 35 221 289 34 36 103 483 36 484 85 485 83 486 56 57 62 65 85 485 56 57 123 138 91 97 309 481 137 161 108 119 119 133 310 487 226 294 299 456 291 488 136 398 270 406 111 122 110 121 210 275 300 489 224 292 259 383 155 382 223 291 226 294 264 392 288 432 279 419 258 490 211 276 205 278 91 97 8 9 24 26 228 491 230 304 229 303 118 132 108 119 149 179 219 287 230 304 220 288 205 269 186 226 193 492 193 492 186 226 188 493 192 494 193 492 188 493 190 495 192 494 188 493 180 219 157 188 163 197 180 219 164 228 185 227 164 228 188 493 185 227 185 227 188 493 186 226 105 113 28 30 27 29 27 29 93 496 105 113 140 497 98 105 94 498 204 268 201 264 257 379 96 102 94 498 98 105 101 109 103 483 28 30 91 97 123 138 92 98 24 26 46 499 91 97 46 499 309 481 91 97 97 103 100 387 149 179 143 500 98 105 140 497 143 500 144 172 98 105 230 304 225 293 70 74 213 455 301 462 68 459 46 499 39 41 309 481 36 484 112 123 41 273 277 417 19 21 311 501 49 50 55 56 48 49 130 148 126 502 125 143 104 112 107 154 102 110 145 173 147 503 148 504 35 505 221 289 33 35 125 143 134 506 131 149 221 289 35 505 37 39 83 507 86 507 84 507 147 503 145 173 144 172 38 40 115 508 134 506 141 171 93 496 27 29 27 29 32 509 141 171 230 304 228 491 55 56 230 304 55 56 49 50 32 509 47 169 141 171 47 169 50 174 142 170 131 394 290 510 265 395 82 146 84 511 129 147 143 500 147 503 144 172 60 512 57 513 86 252 57 513 73 514 84 515 73 514 234 516 84 515 86 252 9 67 60 512 244 517 245 518 129 253 84 515 86 252 57 513 234 516 244 517 129 253 245 518 247 519 129 253 129 253 84 515 234 516 18 520 7 8 2 2 50 174 51 521 153 410 150 180 145 173 148 504 263 522 262 386 124 139 153 410 51 521 156 523 51 521 54 55 156 523 196 257 199 261 160 192 160 192 199 261 165 524 199 261 202 266 165 524 160 192 165 524 159 191 7 8 202 266 209 274 2 2 159 191 18 520 165 524 202 266 17 525 23 25 7 8 209 274 202 266 7 8 17 525 7 8 18 520 17 525 165 524 18 520 159 191 89 95 8 9 91 97 226 294 310 487 152 182 99 137 96 102 74 79 26 526 25 27 169 205 242 329 240 333 251 527 251 527 179 218 242 329 179 218 258 380 177 216 242 329 179 218 178 217 233 313 242 329 235 528 242 329 178 217 235 528 258 380 250 529 246 530 258 380 246 530 177 216 235 528 78 83 233 313 103 483 34 36 28 30 129 249 86 531 85 250 194 254 238 532 65 69 194 254 65 69 64 68 64 68 9 67 194 254 86 252 194 254 9 67 247 519 194 254 129 253 63 66 60 61 8 9 8 9 60 61 5 6 127 144 218 286 123 138 312 533 265 395 288 432 295 534 307 474 296 535 290 435 292 536 281 425 281 425 289 433 290 435 277 417 295 534 275 537 275 537 20 22 277 417 26 28 45 358 24 26 288 432 264 392 312 533 39 41 46 499 41 273 278 418 262 386 273 411 37 39 43 45 221 289 225 293 110 121 109 120 221 289 43 45 110 121 110 121 219 287 221 289 312 533 132 396 265 395 169 205 25 27 23 25 108 119 117 538 106 118 222 539 310 540 299 541 49 50 31 33 220 288 42 44 45 358 26 28 105 113 101 109 28 30 167 203 209 274 198 260 304 470 71 542 286 430 289 433 281 425 279 424 230 304 219 287 225 293 54 55 227 296 156 523 263 522 124 139 218 543 136 398 291 488 133 544 44 46 43 45 37 39 227 296 214 281 213 280 268 402 21 23 272 409 214 281 231 545 301 471 301 471 212 279 214 281 125 143 38 40 134 506 102 110 107 154 114 156 253 369 88 94 124 139 264 392 280 420 273 411 209 274 202 266 198 260 187 546 162 547 87 548 87 548 170 549 189 550 187 546 87 548 189 550 87 92 165 551 17 93 145 173 75 80 74 79 133 544 291 488 290 510 290 510 131 394 133 544 306 473 298 482 296 535 43 45 42 552 110 121 250 553 193 248 249 353 249 353 193 248 191 247 191 247 174 554 173 299 65 298 238 555 173 299 191 247 173 299 238 555 249 353 191 247 238 555 249 353 238 555 239 351 151 181 75 80 145 173 201 264 254 373 257 379 210 275 26 526 169 205 124 139 262 386 253 369 217 370 179 361 243 363 200 556 256 421 254 557 220 288 230 304 49 50 150 180 148 504 154 460 137 161 119 133 138 163 120 134 122 136 261 385 62 65 88 94 121 135 85 485 62 65 121 135 56 57 83 486 82 558 81 88 56 57 82 558 81 88 82 558 240 326 82 558 128 559 121 135 240 326 82 558 121 135 240 326 121 135 251 366 128 559 85 485 121 135 88 94 122 136 121 135 36 484 103 483 112 123 139 164 266 400 137 161 130 391 132 396 312 533 136 398 133 544 115 399 264 392 130 391 312 533 135 157 266 403 136 159 266 400 135 162 137 161 307 474 277 417 311 501 272 409 271 416 267 401 139 164 272 409 267 401 41 43 43 45 44 46 291 488 270 406 276 415 286 430 284 428 294 440 20 22 275 537 271 416 21 23 20 22 272 409 100 108 76 107 75 560 100 108 119 561 149 562 100 108 75 560 268 563 119 561 118 564 149 562 119 561 100 108 268 563 75 560 151 565 152 566 75 560 152 566 21 567 119 561 268 563 138 568 268 563 75 560 21 567 152 566 310 540 21 567 310 540 222 539 311 569 21 567 310 540 19 570 19 570 310 540 311 569 311 569 222 539 303 466 283 464 303 466 222 539 303 466 305 571 311 569 96 102 99 137 100 387 110 121 42 552 210 275 42 552 26 526 210 275 108 119 135 162 117 538 299 456 223 291 222 290 193 248 250 553 205 572 250 553 258 573 205 572 278 418 282 423 260 384 197 262 200 265 198 260 280 420 282 423 278 418 96 102 95 104 94 498 273 411 262 386 263 522 14 574 4 575 162 547 162 547 4 575 166 576 16 577 4 575 5 578 87 548 162 547 166 576 16 577 166 576 4 575 16 577 5 578 10 579 53 580 16 577 10 579 53 580 10 579 308 581 87 548 53 580 170 549 171 582 170 549 53 580 171 582 53 580 308 581 308 581 176 583 171 582 298 482 66 70 68 72 67 71 300 489 68 72 300 489 67 71 224 292 198 260 204 268 167 203 265 395 290 510 287 431 204 268 168 204 167 203 115 508 38 40 113 584 280 420 278 418 273 411 305 472 303 467 306 473 286 430 297 585 304 470 285 441 294 440 284 428 307 474 295 534 277 417 200 556 203 277 256 421 311 501 305 472 307 474 294 440 297 585 286 430 227 296 213 280 156 523 169 205 23 25 209 274 168 204 204 268 257 379 168 204 257 379 261 385 168 204 261 385 260 384 168 204 260 384 215 282 260 384 282 586 109 120 109 120 282 586 71 542 282 586 286 430 71 542 215 282 260 384 109 120 301 471 231 545 69 469 1 587 5 578 4 575 307 474 306 473 296 535 71 542 304 470 69 469 306 473 303 467 66 70</p>
        </triangles>
      </mesh>
    </geometry>
  </library_geometries>
  <library_visual_scenes>
    <visual_scene id="scene">
      <node id="right_hip_pitch_link">
        <instance_geometry url="#geometry">
          <bind_material>
            <technique_common>
              <instance_material symbol="scout_1a1a1a" target="#scout_1a1a1a" />
            </technique_common>
          </bind_material>
        </instance_geometry>
      </node>
    </visual_scene>
  </library_visual_scenes>
  <scene>
    <instance_visual_scene url="#scene" />
  </scene>
</COLLADA>