<?xml version='1.0' encoding='utf-8'?>
<COLLADA xmlns="http://www.collada.org/2005/11/COLLADASchema" version="1.4.1">
  <asset>
    <created>2026-09-14T00:00:00Z</created>
    <modified>2026-09-14T00:00:00Z</modified>
    <unit name="metre" meter="1" />
    <up_axis>Z_UP</up_axis>
  </asset>
  <library_effects>
    <effect id="scout_1a1a1a_effect">
      <profile_COMMON>
        <technique sid="common">
          <lambert>
            <emission>
              <color>0 0 0 1</color>
            </emission>
            <ambient>
              <color>0.05 0.05 0.05 1</color>
            </ambient>
            <diffuse>
              <color>0.1 0.1 0.1 1</color>
            </diffuse>
          </lambert>
        </technique>
      </profile_COMMON>
    </effect>
  </library_effects>
  <library_materials>
    <material id="scout_1a1a1a" name="scout_1a1a1a">
      <instance_effect url="#scout_1a1a1a_effect" />
    </material>
  </library_materials>
  <library_geometries>
    <geometry id="geometry" name="right_knee_link">
      <mesh>
        <source id="positions">
          <float_array id="positions_array" count="828">-0.0123137133 -0.0155365933 -0.409244388 -0.010212725 -0.0238807648 -0.404190302 -0.0144703966 -0.0182006862 -0.398255765 -0.00543608516 -0.0212464798 -0.412190259 -0.0039199125 -0.0157449786 -0.414332747 -0.000395882322 -0.0153608164 -0.402748585 -0.00258592865 -0.0158968568 -0.399737328 -0.00208383147 -0.0237953477 -0.401308596 -0.000112917645 -0.0242033545 -0.397299111 0.00183064549 -0.0155956373 -0.398269296 -0.00554333813 -0.0214771163 -0.342352122 -0.00609734468 -0.0162895154 -0.325370431 -0.00115659775 -0.024170965 -0.343087912 -0.0446799919 -0.0160632953 -0.0932186991 -0.0440822542 -0.0342116915 -0.0930277035 -0.0326605178 -0.0160470642 -0.0814335197 -0.000558364554 -0.0182161443 -0.287492275 -0.0496885292 -0.0340844244 -0.123863362 -0.0537690222 -0.0154680843 -0.132331803 -0.053468693 -0.0346398205 -0.132618263 -0.0141457468 -0.0143697029 -0.39681989 -0.00582429813 -0.0141441021 -0.389770448 -0.000519199006 -0.0150020719 -0.225898862 -0.0442901291 -0.0155637236 -0.137228176 -0.0440418497 -0.0351859145 -0.13694416 -0.0498192571 -0.0352237746 -0.105355017 -0.0544307977 -0.0143388743 -0.097423844 -0.0499945953 -0.016027296 -0.107007973 -0.0564920492 -0.0118062003 -0.127975658 -0.0512457602 -0.0120549621 -0.140680447 -0.0518150739 -0.000353628187 -0.13774991 -0.0503361039 -0.0157265607 -0.123664029 -0.0504613817 -0.0122336457 -0.115053609 -0.0503232814 -0.00225949124 -0.0886044428 -0.0470884219 -0.0130623803 -0.084466368 -0.0535809696 -0.0345660672 -0.0975529179 -0.0332578011 -0.0154405022 -0.14815402 -0.0325476192 -0.0349835306 -0.148310587 -0.0415843651 -0.0117984274 -0.14600718 -0.0460463427 -0.0129509354 -0.146733046 -0.0390539989 -0.0131336683 -0.153197095 -0.0404591262 -0.0127070863 -0.0845986903 -0.0384145193 -0.0133257825 -0.0765272155 -0.0280279722 -0.034386836 -0.158251494 -0.019270286 -0.0351001211 -0.154770195 -0.0197385475 -0.0350742936 -0.0753241256 -0.0283619538 -0.0340760611 -0.0720226765 -0.0322120786 -0.0348986909 -0.0814365298 -0.0285469629 -0.0158123337 -0.0719168335 -0.0279822461 -0.0161001328 -0.158562914 -0.0224252418 -0.011583955 -0.162858173 -0.0195568409 -0.0169120468 -0.155250803 -0.0139536569 -0.0148896193 -0.160023183 -0.0220283158 -0.0112659447 -0.0670498461 -0.00888937246 -0.015494463 -0.0684998482 -0.0163440406 -0.0153209297 0.00629415503 -0.0155631639 -0.0147198671 -0.00793560129 -0.0151637299 -0.0183114223 0.000658499135 -0.000627504953 -0.0167331751 -0.155817255 -0.000279583328 -0.0342407413 -0.154941648 -0.00622235006 -0.0184223987 -0.013783549 -0.00122484134 -0.0150402971 -0.0262910444 0.00393157499 -0.0187958386 -0.0303411167 -0.00566183729 -0.01818626 0.00228805235 -0.00208512088 -0.018137347 -0.00572818704 -0.00135928532 -0.00979436003 -0.168535382 4.67238424e-05 -0.00728061004 -0.174768418 -6.47521883e-05 -0.0160847511 -0.167834848 0.00326316175 -0.00939696655 -0.0628580004 0.00415241765 -0.0160461608 -0.0634802133 -0.00897489768 -0.0077469158 -0.0600570403 0.0116671519 -0.0173244178 0.0433417857 -0.0012425934 -0.0167754814 0.0259420946 -0.00569232274 0.0182670169 -0.00225772103 -0.000775269174 0.0185136832 0.0066932505 -0.00605088659 0.0143020209 -0.39009133 -0.0024824345 -0.0143877314 -0.381672353 0.0452060848 0.0142478803 -0.379071206 0.0504105873 -0.0150807099 -0.378245682 0.0397732928 -0.0139957145 -0.374879092 -0.000357965328 0.0152835092 -0.397209674 0.000116677518 0.0242002252 -0.397317976 0.00258623483 0.0241027046 -0.400055021 0.0332356319 -0.0280041154 -0.10165929 0.0306355041 -0.0282803047 -0.123905241 0.034437336 -0.0284024607 -0.132216185 -0.0143886004 0.0181874577 -0.396697909 -0.0104063516 0.0237035677 -0.403945774 -0.0131715788 0.0156124095 -0.407099515 -0.00555197475 0.0210587252 -0.412308931 -0.00531681115 0.0154156806 -0.413827658 -0.0127558867 0.0143474527 -0.396667957 -0.0111741228 0.0197408479 -0.374563992 -0.00173702277 0.0155492779 -0.401851207 -0.00213929615 0.0244407654 -0.401573628 -0.00416036136 0.0243239813 -0.369844854 -0.00594858918 0.0212673564 -0.343664646 -0.0067734723 0.0169284511 -0.33099401 -0.00438041519 0.0175510608 -0.308506429 -0.000552313461 0.0236276668 -0.335938901 -0.00119809783 0.019001944 -0.298632652 -0.00222408888 0.0153028639 -0.267301381 0.000705636572 0.0182702504 -0.275781095 -0.0560863465 0.00262820604 -0.128753901 -0.0506868511 0.00504484121 -0.141038179 -0.0544040762 0.0372884274 -0.133174077 -0.0504997894 0.0400792323 -0.140575409 -0.0560286157 0.00301538338 -0.101108812 -0.0542790815 0.0362319462 -0.0968801603 -0.0557333827 0.0393939577 -0.100858033 -0.0518364832 0.0398399457 -0.0915019959 -0.0553512499 0.0394915342 -0.129589066 -0.043743398 0.0391832627 -0.14965491 -0.0330053121 0.0396037549 -0.157184258 -0.0258405264 0.0133926114 -0.161024272 -0.0379754677 0.0476300642 -0.118950613 -0.036528118 0.0407617986 -0.129545093 -0.0397805311 0.040452715 -0.108874306 -0.0337620489 0.0475272387 -0.130569682 -0.0352687351 0.0476964936 -0.101880342 -0.0332589559 0.0405531824 -0.0963453874 -0.0203768499 0.0399412327 -0.162244141 -0.00127135718 0.0201574154 -0.162840277 -0.00784412213 0.018657675 -0.163447574 -0.0027809646 0.0476489924 -0.0858314559 -0.0170529336 0.0477988906 -0.0858010426 -0.0173630752 0.0433135368 -0.0867014006 -0.0197431557 -0.0180763248 -0.0748706162 -0.0279948227 0.0361514911 -0.159529626 -0.0225084387 0.0398186892 -0.0684080571 -0.024395382 0.0142296432 -0.0688300654 -0.00715328334 0.0130031789 -0.0665749088 -0.0262961183 0.0475751348 -0.137732059 -0.0211915057 0.0405177437 -0.144017354 -0.0195543915 0.047670573 -0.14361763 -0.024322398 0.0476767719 -0.0910154805 -0.0186303519 0.0405882932 -0.0854540244 -0.00835122075 0.0109119909 -0.163826823 -0.0102334097 0.00708806049 -0.169482276 0.000333432545 0.00792995002 -0.174950346 -0.00084642641 0.0101314783 -0.169106856 0.000611923577 0.0175636131 -0.169329494 -0.0164800603 0.00808823854 -0.0639775246 0.0037141752 0.00963095389 -0.0626010373 0.00405834382 0.0083390167 -0.0542540736 -0.0118266847 0.0180552788 -0.00955682527 -0.000322331005 0.015804287 -0.0281398427 -0.0161643121 0.0147749707 -0.00710980454 0.00436805328 0.018499596 -0.0294803213 -0.0144734345 0.0177692436 0.00532513531 0.00439732429 -0.00808164291 -0.0541981347 0.00518747326 0.0213085525 -0.049579069 0.00233268132 0.0182847679 -0.00564267905 -0.00669183256 0.0422176123 -0.143608734 0.00713620707 0.0409932174 -0.139519319 -0.00238062232 0.0470901616 -0.144629538 -0.000585177389 0.0406866781 -0.0858037025 0.00672594178 0.0476107746 -0.139919773 -0.0163683277 0.0149525777 0.00665289303 0.00233267946 -0.0182847697 0.00564267766 -0.00364781427 0.017776208 0.0215578713 0.00266713044 -0.0240129214 -0.399985969 0.0404206142 -0.0214241259 -0.412434012 -0.00185735873 0.0134456046 -0.380580634 0.0225042757 -0.0139459837 -0.37718612 0.033163961 -0.0347108915 -0.0976667926 0.0290798247 -0.0348033682 -0.105338551 0.0450614728 -0.0239505693 -0.407036036 0.0436115824 -0.0153285582 -0.413328081 0.051096268 -0.0158914365 -0.403645337 0.0475443155 -0.0226634312 -0.381708115 0.0500405766 -0.0170194916 -0.350971073 0.0455157533 -0.0234400909 -0.338514507 0.0475364067 -0.0180756338 -0.296074748 0.0453705229 -0.0202587079 -0.309479207 0.00919859018 -0.0353629403 -0.152511567 0.00837413501 -0.033782471 -0.157712549 0.00807479955 -0.0344744436 -0.0721789524 -0.000401656231 -0.0350537673 -0.0754318908 0.0133973565 -0.0351460464 -0.0834595934 0.00313177845 -0.0184269939 -0.211479679 0.000530943857 -0.018793676 -0.199376851 0.00296350149 -0.0249543358 -0.178627923 0.00281474949 -0.0266344436 -0.158882886 0.0103801731 -0.0277779065 -0.159249052 0.0141887842 -0.0284481067 -0.147927135 0.0229815003 -0.0352814719 -0.137268379 0.00497343019 -0.0256852377 -0.0715740845 0.00229574437 -0.0168224573 -0.0738483295 0.0100177061 -0.0281426795 -0.0724431351 0.0125118047 -0.0300187021 -0.081265308 0.0219509397 -0.0278758314 -0.0896386132 0.00504383119 -0.0209597293 -0.0478990786 0.00869840849 -0.0253278613 -0.0557503179 0.0234985501 -0.0350419059 -0.0934252813 0.0320353024 -0.0346122384 -0.132013187 0.0259669907 -0.0282209385 -0.137333497 0.0321724452 -0.0285184775 -0.0952311158 0.00396657037 0.0178392082 -0.0636731312 0.0456970334 -0.0187315028 -0.0317409113 0.0486723371 -0.0156962108 0.00116265635 0.0441091172 -0.0182600878 0.00906221569 0.0504195616 0.0150814643 -0.378240466 0.0490684696 -0.0153103275 -0.208307207 0.0474086553 -0.0258063525 -0.173442349 0.0461259745 -0.0184622444 -0.212517917 0.0490278639 -0.0160649084 -0.0340758935 0.048492942 -0.0231280234 -0.0533960201 0.0056066555 -0.0179413017 -0.00223617512 0.0201761983 -0.0146390498 0.0477233902 0.0277821943 -0.0181148704 0.0436032191 0.0290761031 0.0150088686 0.0431885719 0.0437945947 -0.0152875809 0.0167314075 0.0334235057 -0.0175569858 0.0332432054 0.0203238241 0.0143644949 -0.377997398 0.00295644812 0.0153963361 -0.399717331 0.0470031984 0.0182275269 -0.289493263 0.0472826697 0.0219055265 -0.33021003 0.0437018387 0.0240761861 -0.342952162 0.0443816483 0.0214176122 -0.41102609 0.0512541384 0.0156573486 -0.402336121 0.0427915528 0.0156431962 -0.414057672 0.0460011177 0.0239461586 -0.40505603 0.0497215353 0.016773155 -0.322791904 0.00334685645 0.0185728967 -0.212339878 0.00416163029 0.0251616221 -0.179179937 0.0466069467 0.0264718104 -0.16977945 0.00271596946 0.0271639805 -0.162330776 -0.000157317307 0.0155917443 -0.212871209 0.00193554896 0.0196187161 -0.0682829916 0.00617553666 0.0275993682 -0.0690154508 0.00903407298 0.0256779231 -0.0568232685 0.00262066955 0.0399113372 -0.16131115 0.0098508643 0.0360671096 -0.158963442 0.0134881064 0.039750576 -0.1562417 0.0134635866 0.0284469593 -0.157525659 0.0156261474 0.0406022109 -0.130131513 0.0154045867 0.0477743857 -0.127324477 0.0161903705 0.047629565 -0.103183918 0.00777230877 0.0418284833 -0.0917638093 0.0170649607 0.0407861806 -0.102368556 0.00525425421 0.0476393029 -0.091588825 0.0060444274 0.0389219336 -0.0707447752 -0.00311472849 0.0398278683 -0.0675545782 0.0170972012 0.0399355441 -0.0751637518 0.0165118538 0.0299970992 -0.0747177154 0.0247997567 0.0283794999 -0.0809232369 0.0187879112 0.0435142107 -0.120721586 0.0356039666 0.0396394506 -0.129155293 0.0312600285 0.0401187427 -0.0908647403 0.0359410048 0.0283089206 -0.0973582119 0.0353556797 0.0395197831 -0.100455277 0.0340575799 0.0366113037 -0.0967696607 -0.0326989479 0.0391012691 -0.0728574544 -0.0428640544 0.0399432555 -0.0798776224 -0.0395550244 0.0112560717 -0.0768495947 0.0355284885 0.0281395204 -0.134980768 0.0448791981 0.0188505612 -0.0325422026 0.048957672 0.0167250596 -0.0354008675 0.0466846488 0.0263903495 -0.0602430478 0.0478407517 0.0158887021 0.00781199429 0.043795418 0.0183340926 0.00907178037 0.0331480317 0.0389062166 -0.135301232 0.0462402068 0.018336514 -0.21240446 0.0485385954 0.022115713 -0.187188148 0.0489571355 0.0156711545 -0.210981414 0.0394586734 0.0140468506 -0.374516755 -0.0515553653 0.00156278512 -0.0908586532 0.0128642945 0.0151069239 0.0449648239 0.0219196491 0.0165565144 0.0467379019 0.00582024222 0.0179077554 0.034477476 0.0323224254 0.0176795404 0.035329584 0.0451351032 -0.0266770329 -0.0617600605 0.00584075134 0.0182806905 0.000995973591 0.0252109766 0.0282543283 -0.149098083 0.0251471326 0.0399664417 -0.14769502</float_array>
          <technique_common>
            <accessor source="#positions_array" count="276" stride="3">
              <param name="X" type="float" />
              <param name="Y" type="float" />
              <param name="Z" type="float" />
            </accessor>
          </technique_common>
        </source>
        <source id="normals">
          <float_array id="normals_array" count="1749">-0.781013548 -0.345647275 -0.520140171 -0.511630952 -0.825758994 -0.237393901 -0.96060276 -0.274953812 -0.0405310355 -0.392533779 -0.360177875 -0.846279562 -0.196102798 -0.308447361 -0.930808187 0.812449932 -0.0636450127 0.57954669 -0.00721470453 -0.999726355 -0.0222533271 0.0232984181 -0.998513758 -0.0492687374 0.296176195 0.204431787 -0.932999074 -0.718619645 -0.687877774 0.102028951 -0.967197418 -0.233428895 0.100200459 -0.248649225 -0.966149271 0.068768613 -0.55293864 -0.016732635 0.833053946 -0.575619817 -0.010699437 0.817647457 -0.823844671 -0.0193578675 0.566484988 -0.316621989 -0.947165489 0.0512644798 -0.980333745 -0.0293675475 0.195149422 -0.925922573 -0.0317403823 0.376377344 -0.917417109 -0.020309614 0.397408247 -0.996227384 0.0854216442 -0.01530015 0.124090008 0.990608275 -0.0574190766 0.000447614177 0.998295963 -0.0583519563 -0.00866069924 0.98436588 -0.175922707 -0.729452908 -0.683597505 0.0243482832 -0.430841267 -0.0107631618 -0.902363539 -0.581797898 -0.0107246721 -0.813262701 -0.571058333 -0.0191045161 -0.820687115 -0.458883822 0.00608687801 -0.888475418 -0.973487973 -0.032869149 -0.226364255 -0.907304943 -0.0414398015 -0.418426275 -0.98757875 -0.0224116929 -0.155518189 -0.976056099 -0.0307641085 -0.215332359 -0.865675151 -0.00615656655 -0.50056833 -0.900522113 -0.232698128 -0.367303044 -0.930990398 -2.87248458e-05 -0.36504367 -0.298051089 -0.900997639 -0.315228105 -0.229356527 -0.874717653 -0.426924616 -0.302992731 -0.902320385 -0.306616008 -0.643006444 -0.71871376 0.264562339 -0.637056589 -0.73082608 0.245055422 -0.631617308 -0.740977883 0.228059918 -0.647063136 -0.709749937 0.278503805 -0.438482314 -0.897621155 -0.0448275767 0.687388361 -0.640730917 -0.341995806 -0.831325352 -0.00730160763 0.555738151 -0.954794884 -0.0552504286 0.292085767 -0.773725331 -0.0264660176 0.632968187 -0.0229407623 -0.999711096 0.0071695121 -0.257516474 -0.96581316 -0.0298357233 -0.0239805449 -0.996999323 0.073602505 -0.194212064 -0.966168165 0.16970785 -0.00231166277 -0.996555686 0.082894288 -0.0319628976 -0.99903059 0.0302706044 -0.805175781 -0.0245125964 -0.592529416 -0.815487623 -0.016763011 -0.578531742 0.249503255 -0.968366444 0.00381916668 0.261028767 -0.962279499 -0.0766951069 0.204306439 -0.947030306 0.247775003 -0.371191949 -0.917948663 -0.139952704 -0.446688503 -0.840541422 -0.306528211 -0.350128382 -0.936343789 -0.0258929152 -0.452673614 -0.760424376 -0.465662241 -0.369226515 -0.911287665 -0.182281479 0.284211487 -0.909757674 -0.302596837 -0.265794158 -0.938287139 0.221293285 -0.350479186 -0.80191201 0.483840317 -0.378088951 -0.78498137 0.490767807 0.0539981127 -0.998228669 0.0249746088 0.0547330156 -0.996241927 0.0671294257 -0.28020975 -0.958269775 0.0565823875 -0.389339 -0.902407587 0.184595928 -0.00884721428 -0.999790967 -0.018432552 -0.0485505462 -0.995463431 -0.0818251148 -0.0172461402 -0.99922812 -0.0352952778 -0.0200450569 -0.999183059 0.0350913331 -0.0705073178 -0.990811467 0.115418121 -0.0503245816 -0.996874452 0.0608997196 -0.919973254 -0.0186268389 0.391538262 -0.826909304 -0.0162051711 0.562101781 -0.925164759 -0.0115703754 0.379389346 -0.298726588 -0.949970782 -0.0912029892 -0.583901763 -0.0264163893 -0.811394453 -0.484830707 -0.0341975801 -0.873939157 -0.473324925 -0.227072373 -0.851117909 -0.00803397968 -0.849872887 -0.526926517 0.163471073 -0.778043568 -0.606568575 -0.0101012988 -0.818540752 -0.574359655 -0.080587931 -0.885352135 -0.457883418 -0.30966419 -0.937797785 0.156982139 -0.336541206 -0.343728721 0.876692951 -0.579457819 -0.0410360731 0.81396848 -0.396157891 -0.343528032 0.851497173 -0.139991686 -0.523478568 0.840459704 -0.995702803 -0.0782047659 -0.0495977886 -0.944648027 -0.036245428 -0.326077223 -0.963508785 -0.259948999 -0.0638541505 0.172968492 -0.0284420326 -0.984516621 -0.0178830735 -0.0388039686 -0.999086797 -0.00674861856 -0.0500833131 -0.998722255 -0.562224507 -0.72328192 -0.400957435 -0.70448935 -0.561976433 -0.433448076 -0.727737546 -0.530820787 -0.434312493 -0.512016058 -0.800758004 -0.310847402 -0.519803703 -0.787184715 -0.331879944 0.00770558976 -0.999806166 0.0181181747 -0.14585273 -0.983051538 0.111070551 0.0109797912 -0.999637246 0.024592666 0.0185265224 -0.999729872 0.0140353888 -0.036074847 -0.906925261 -0.419744194 -0.0233839583 -0.925324917 -0.378453374 -0.493473947 -0.195926368 -0.847405672 -0.0944595858 -0.986583591 -0.133154824 -0.118493073 -0.991198659 -0.0590301529 -0.208111674 -0.739790678 0.639843225 -0.360886037 -0.134621486 0.922842503 -0.0304284245 -0.913677156 0.405300081 -0.522001028 -0.624857128 0.580576003 -0.594260216 -0.686757267 0.418591946 0.87561959 -0.0590468943 -0.479378581 0.814432681 -0.0142461061 -0.580083191 0.922331452 0.00133246242 -0.386397272 0.809783518 -0.000168124156 -0.586728692 -0.228603467 -0.00895068049 -0.973478496 -0.25580126 -0.0725268275 -0.964004993 -0.35828191 -0.0692749768 -0.931039751 -0.640217304 -0.0338743366 -0.767446637 -0.741535246 0.0313324183 -0.67018187 -0.705983996 0.00720022665 -0.708191156 0.0811921433 -0.996666729 0.00795612391 -0.00397460954 -0.999909163 0.0128786927 0.114175722 -0.993304968 -0.0175841711 -0.817423046 0.575936615 -0.0107960645 -0.533349156 0.808279991 -0.249443606 -0.793942511 0.381904602 -0.473079443 -0.674710393 0.298121721 -0.675195813 -0.637938142 0.175233483 -0.74988544 -0.920185387 -0.391334355 -0.0107850637 -0.882489145 0.456936628 0.111453272 0.938492656 -0.0204734001 -0.344691634 0.911216915 0.0203394853 -0.411424428 0.956311345 -0.0543937013 -0.287245363 0.883489311 0.0544965714 -0.465270698 -0.293439418 0.955247819 0.0373481251 -0.0232793707 0.991867185 -0.125130013 -0.689961553 0.717114389 0.0984882489 -0.972351968 0.211924568 0.0980797634 -0.890783608 0.445859671 0.0878277645 -0.262232214 0.960802913 0.0899557695 -0.599588037 0.796668649 0.0762447789 -0.663258135 0.74770689 0.0319849215 -0.607172191 0.791716933 0.0672767535 -0.97700721 0.00500084786 -0.213147685 -0.867592633 -4.39007417e-05 -0.497275651 -0.92415452 0.0929904431 -0.37052834 -0.850511909 0.0327623785 -0.524934351 -0.979388654 -0.01193731 0.201631784 -0.923594475 0.0172087196 0.38298443 -0.982702792 0.0212257225 0.183969125 -0.859625518 0.0101558706 0.510823667 -0.984010458 0.059428066 -0.1679039 -0.688884199 -0.00386438495 -0.724861085 -0.502008498 -0.000470125931 -0.864862561 -0.413216978 0.00221894775 -0.910629928 -0.977030218 0.171056271 -0.127089426 -0.859874308 0.207504377 -0.46643123 -0.946650982 0.277570784 0.163726717 -0.787069201 0.235447451 -0.570163667 -0.850938201 0.258172244 0.457439929 -0.727900565 0.233670667 0.644638538 -0.17027764 0.0413568392 -0.984527886 0.0461019725 0.0831090659 -0.995473504 -0.18565461 0.0599766895 -0.980782926 -0.046697285 -0.0431886837 0.997974992 2.22713425e-05 -0.196808591 0.980441928 0.000992452609 0.15016368 0.988660634 0.167827666 -0.0298574325 0.985364079 0.343339264 -0.0178026464 0.939042687 0.17631568 -0.0262051485 0.983984768 -0.379575372 0.0457775258 -0.924027562 -0.230087325 0.0203903485 0.972956359 -0.358463645 0.06120703 0.931535006 -0.0864832178 0.320478201 0.943299711 -0.67108649 0.163581505 -0.723107219 -0.66015178 0.173399821 -0.730843425 -0.647269011 0.18940711 -0.738354743 -0.604950547 0.189759195 0.773321629 -0.582854033 0.157419577 0.797182739 -0.57673049 0.164676547 0.8001647 0.845911086 -0.160578385 0.508575439 0.02620022 0.824055076 -0.565903544 -0.112464152 0.849204659 -0.515948951 -0.16575937 0.841667175 -0.513926268 -0.37606442 0.0718939826 -0.92380023 -0.241931513 0.87324053 -0.422989458 -0.170860589 0.910152555 -0.377397686 -0.565136611 0.0824515894 -0.820866823 -0.567190289 0.0867611766 -0.819004059 -0.477348447 -0.0183180086 -0.878523111 -0.459461004 -0.00196286617 -0.888195753 -0.467356086 -0.00428481773 -0.884058774 -0.0747206286 0.573071182 0.816092014 -0.257552594 0.265000343 0.92921555 -0.0857981518 0.98404783 0.155847907 -0.677759409 0.628254712 -0.382018566 -0.812138438 0.434450269 -0.389466375 -0.891484976 0.349703878 -0.288030744 0.911890328 0.0515391193 0.407185137 -0.167215779 0.897813499 -0.407393962 -0.519714117 0.853399754 -0.0400764942 -0.755838215 0.632369339 0.169757441 -0.0562588088 0.998213351 0.0201245602 -0.0259735696 0.999357283 0.0247060768 -0.0268730242 0.999638736 0.000492301129 -0.980683625 0.0150819384 0.195018247 -0.993848681 -0.0217692144 0.10858614 -0.997090816 0.0555486344 -0.0521949381 -0.00719028711 0.999710619 -0.0229568649 -0.00998065993 0.999943554 0.00363967917 0.0751818493 -0.496948719 -0.864516973 0.584186137 -0.105133951 -0.804781556 0.109447762 -0.787904859 -0.605992675 0.0042367503 0.00836664531 -0.999956012 0.0221899599 0.0507183485 -0.998466432 0.193805143 -0.262602448 -0.945240438 -0.046349898 0.0449871533 0.997911751 0.0154338311 0.410195351 0.911867082 -0.00299407402 0.999964595 -0.00786275044 0.00707712444 0.999392152 -0.0341352448 0.0241861027 0.987473428 -0.155920863 -0.905746937 0.299862593 0.299507827 0.386876076 0.05894747 -0.920245707 -0.0188020915 0.999453306 0.0271957647 -0.707497001 0.487764835 0.511403382 -0.253090382 0.211809903 0.943971276 -0.020932233 -0.915650547 -0.401429832 -0.00535323285 -0.948862135 -0.315645307 -0.88516891 -0.175818756 0.430771142 0.157616034 0.0207953099 -0.987281501 0.144272625 0.00568854529 -0.989521623 0.176018566 0.0346341021 -0.983777404 0.849705279 -0.276377261 -0.449017346 0.880802572 -0.415970683 -0.226175115 0.879026771 -0.385375023 -0.280709863 -0.901369154 -0.0351156145 -0.431625515 0.691008627 -0.34667936 -0.634287357 0.587876976 -0.41003111 -0.69733429 0.677947819 -0.355535716 -0.643413663 0.744072199 -0.307659209 -0.593044996 -0.00266934023 -0.167420357 -0.985881984 -0.00581073808 -0.14214097 -0.989829361 0.140349507 0.00721261045 -0.990075767 0.835925698 -0.547478914 -0.038665358 0.701783478 -0.712382734 0.00328301289 0.288826793 -0.947908938 -0.134341717 0.996297777 0.0837844387 0.0192587841 0.959654152 -0.280417472 0.0207344219 0.469906241 -0.881208718 0.0515684709 0.641290128 -0.767164707 0.014330131 0.0283389613 -0.99618125 0.0825824812 0.153236032 -0.981162608 0.117637604 -0.0159168858 -0.993795574 -0.110077552 0.0212161988 -0.873601317 -0.48617962 -0.0404213555 -0.957781553 -0.284641147 0.0383781232 -0.996259451 0.0774223953 0.0106276497 -0.999500632 0.0297578722 0.0087687755 -0.999832034 0.016095493 -0.457477748 -0.883034825 -0.104707442 -0.894885302 -0.440155089 -0.0737824887 -0.93787533 -0.346873164 -0.00829965342 -0.970676005 -0.23178041 -0.0637647882 -0.952549398 -0.300599128 -0.0478514209 -0.948500931 -0.310809046 -0.0611858405 -0.0339350551 -0.994428933 -0.0997971371 -0.152923435 -0.984581769 -0.0849302709 -0.0198602844 -0.986635983 -0.161725044 -0.73821044 -0.0483208671 -0.672837555 -0.189301521 -0.300296098 -0.934872806 -0.179069683 -0.293043584 -0.939180255 -0.267971516 -0.355053633 -0.895616114 -0.0805476978 -0.2217547 -0.971769989 0.867057443 -0.399797827 -0.29727605 0.783591509 -0.21447666 -0.583081543 0.848357618 -0.347315043 -0.399576783 0.872771502 -0.372348964 -0.315636158 0.608982503 -0.228997782 -0.759407878 -0.409222037 -0.034709245 0.911774397 -0.43424648 -0.11856132 0.892957568 -0.182737201 -0.131533325 0.974323392 -0.989558041 -0.119150519 0.0811049491 -0.952451408 -0.239394799 0.188484699 -0.975347459 -0.184602663 0.120909616 0.165251151 -0.00955947954 0.986205161 0.838736534 -0.13410309 0.527766407 0.915713549 -0.191800863 0.353102118 0.773076534 -0.139494821 0.61878413 0.911168277 -0.266480893 0.314261466 0.0491295718 -0.996634126 0.0656257048 -0.0769501328 -0.989285409 0.124068603 0.461634159 -0.832086682 0.307450294 -0.996025562 -0.0214950852 -0.0864352509 -0.702326238 -0.709529757 0.0574919283 -0.448086619 -0.885141313 0.125472173 -0.301080018 -0.934343159 0.190666497 -0.552243471 -0.83095181 0.0674256384 -0.566133797 -0.821714282 0.065407224 -0.0954268202 -0.982217848 0.161684185 -0.978005528 -0.144842058 0.150086626 0.596826077 -0.26493603 0.757368863 0.524654865 -0.289279193 0.800659001 0.0731620118 -0.997319579 0.000960193283 0.0494142398 -0.998776197 0.00208215998 0.0176709276 -0.999836743 0.00377335888 0.561898172 -0.245220706 -0.790023565 0.500831842 -0.221084714 -0.836832762 0.501218796 -0.220624834 -0.836722434 0.871560454 -0.480817646 -0.0958994851 0.409343272 -0.306382835 0.859399617 0.393689096 -0.2811988 0.875177801 -0.0218163822 -0.0578510836 0.99808681 -0.0416241847 -0.0803446248 0.995897651 -0.303852022 0.132568866 0.943450809 0.981362879 0.0904431865 0.169549271 0.358107686 -0.925339639 0.124520838 0.886990011 -0.448276818 0.110890038 0.432873398 -0.889450788 0.146621779 0.157345161 0.000123927224 -0.987543643 0.954116821 -0.296357602 -0.0428168178 0.97995472 -0.198937282 -0.0106178401 0.751395226 -0.659089327 -0.0317238458 0.679798126 -0.7179299 0.149837121 0.824076593 -0.553024232 0.122727163 -0.419738173 -0.0106784776 0.907582402 -0.894911528 0.00337816798 -0.446230829 -0.038050361 0.998890877 0.0277340487 -0.049111627 -0.806264877 0.589512467 0.702737808 0.0256957039 0.710984707 0.46971184 -0.00597196631 0.882799625 0.708499074 -0.0188450348 0.705460072 0.849545419 -0.36014089 0.385449201 0.666141927 -0.670696735 0.326222062 0.00784246158 -0.998364508 -0.0566289574 0.0542901829 -0.992079616 -0.113272503 0.0590089895 -0.99385196 -0.0936815292 -0.343453348 -0.023565894 0.938874006 -0.308494747 -0.0436213613 0.950225294 -0.379820377 -0.00228070817 0.925057471 -0.41333127 0.0177356303 0.91040796 -0.60117799 -0.056480404 -0.797116637 0.00803733058 0.998476923 0.0545827299 0.638046443 0.768064439 0.054532811 0.231103987 0.972154558 0.0388125554 -0.075867869 -0.993231297 0.0879523531 -0.0332514718 -0.984043419 0.174793959 -0.057601478 -0.985977113 0.156624436 0.829003036 0.20285736 -0.521155357 0.874683142 0.448815614 -0.183013558 0.807876229 0.0838019177 -0.583363712 0.494517505 0.836188555 -0.237152204 0.871798813 0.488168091 0.0407277942 0.926550925 -0.375458211 0.0231188107 0.999963403 0.00039221195 0.00854942109 0.967686534 -0.251373708 0.0198510066 0.600232303 0.799707174 0.0137693342 -0.97331363 0.209821746 -0.0929271877 -0.998619914 0.036777053 -0.0374930911 -0.949260056 0.178510562 -0.258919537 -0.413923532 0.0480725057 0.909041464 0.00723680854 0.995282173 -0.0967523158 -0.293365151 0.941348493 -0.166732982 0.0497173369 0.991238952 -0.122366428 -0.11026866 0.985833824 -0.126382306 -0.640263975 0.764996409 -0.0695880279 -0.643062294 0.764341712 -0.047461804 -0.918691933 0.343489826 -0.194986805 -0.99963057 0.00537208933 0.0266440008 -0.777609825 0.472675711 -0.414609045 -0.452074021 0.746962667 0.487520099 -0.909618974 0.343751013 0.233299285 -0.621943712 0.598441124 0.505028963 -0.919669151 0.327088445 0.217305765 -0.996466577 0.0537400283 0.0645476952 -0.647650599 0.755433202 0.09934479 -0.233824834 0.946117461 0.224026173 -0.0686291531 0.986863971 0.146251529 0.203625381 0.0999008417 -0.973938644 0.434750259 0.123081371 -0.892100453 0.127683654 0.0697224289 -0.989361227 0.0268168729 0.99887681 -0.0390634872 0.0110071646 0.998818934 -0.0473239757 -0.0168478005 0.999040663 -0.0404213145 0.534949362 0.127952829 -0.835139096 0.511086464 0.0653240159 -0.857043386 0.621949375 0.0293281544 -0.782508016 0.839660108 0.179635257 -0.512544751 0.877475917 0.293299735 -0.37948814 0.900206804 0.221751481 0.374771863 0.648695707 0.240034193 0.722203195 0.896905005 0.163577437 0.410857439 0.616922736 0.235603273 0.750931084 0.572663844 0.183792204 0.798922122 0.563913107 0.194253951 0.80266273 0.430141091 -0.780508757 0.453635037 0.347239882 0.145514965 0.926417768 0.118044488 0.0634538904 0.990978837 0.293426991 0.0400786139 0.955141008 0.565401077 0.0832168758 0.820607424 0.536500335 -0.158156559 0.828947425 0.72371912 0.0554328188 0.687864661 0.882169485 0.461712182 -0.0927303657 0.728807926 -0.683911026 -0.0332384668 0.0462876223 0.998895645 0.00806242041 0.0554916114 0.996613622 -0.0606788136 0.0618061647 0.997987986 -0.0141415494 0.84240818 0.0911491811 0.531074703 0.956200778 0.0764642283 0.282547772 0.980674624 0.0777248964 0.1795443 0.91089201 0.147235572 0.385483444 -0.0104979286 0.924978435 -0.379874498 -0.484325409 0.0122984024 0.874801517 -0.693739712 0.0107945539 0.720144868 -0.60975647 -0.00286108884 0.792583644 0.93669039 0.0987188146 -0.335954964 0.272318482 0.953410745 0.129810005 0.548051834 0.818248987 0.17351605 0.579112828 0.776278794 0.249037161 0.870095253 0.446923435 0.207830966 0.317870378 0.941881895 0.108705744 0.869822681 0.178624481 -0.459893197 0.990398228 0.0572438277 -0.125834972 -0.998531163 0.0158205722 0.051818829 0.39205578 0.915825248 -0.0869275406 0.454706162 0.873796225 -0.172402218 0.720717967 0.686653733 -0.0952480808 0.107635431 -0.743868887 -0.659601212 -0.883948922 0.0106112324 0.467463046 -0.546105802 0.0335869156 0.83704263 -0.412471086 -0.0169233903 0.910813451 0.444909453 0.00342659815 0.895568967 -0.219084084 0.895923197 0.386424363 0.0297726579 0.974393964 0.222867548 -0.0282728579 0.997256517 0.0684108436 -0.898321807 -0.0210700464 -0.438832462 -0.91021198 -0.00477654487 -0.414115131 0.0571387 0.993105054 0.102359846 0.391820729 0.809642017 0.436985493 -0.698457778 -0.517965555 0.493830323 0.829809606 0.335212857 0.446148366 -0.985196054 -0.0365712419 0.167485148 0.0276396591 0.00395131996 -0.999610126 0.623977184 -0.709499955 0.327509195 -0.989508033 -0.00792143028 0.144260749 -0.999599159 -0.0243001338 0.0145248724 -0.399275124 -0.0226238817 0.916552007 0.000260605244 -0.884420514 0.466690749 -0.720184147 -0.00706814975 -0.693746924 -0.0615831278 0.998045087 0.0106567806 -0.0456803665 0.998894155 -0.0111278882 -0.0667816326 0.997695088 0.0120299673 -0.0535347275 0.998223186 -0.0261639692 -0.0558673665 0.998429775 -0.00409999536 -0.0355356969 0.999248326 0.0154935718 -0.0153863048 0.999359846 -0.0322972909 -0.0393390693 0.997747838 -0.0543299876 -0.0409548692 0.999111354 -0.00995888095 -0.0199683812 0.998591065 0.049164433 -0.0312517211 0.996085644 0.0826844051 -0.0201107524 0.99870652 0.046699442 -0.0425634012 0.998446941 0.0359450765 0.317559004 -0.00227838615 0.94823575 0.0237198528 -0.999713778 0.0031141357 0.0320328809 -0.999474287 -0.00500530889 0.00529734511 -0.993650317 0.112387493 -0.0143234497 -0.995380521 -0.094934091 0.178096861 -0.02318874 -0.983739674 -0.00321633765 -0.99504149 -0.0994085521 -0.00024334625 -0.995414257 -0.0956579298 0.0280934554 -0.991967738 -0.123331912 -0.415539086 0.00856739655 0.909534991 -0.438149035 0.00422981568 0.898892403 -0.401414067 -0.00516653806 0.915882111 0.0611193068 -0.993075192 -0.100329868 0.00668415893 -0.999588549 -0.0278945602 0.0187090933 -0.998431325 -0.0527719781 -0.00809868984 -0.99993813 0.00762390438 0.0128570432 -0.999652267 -0.0230223723 -0.00592971314 -0.999728918 -0.022516042 0.045171354 -0.996099055 -0.0758042112 0.699817657 -0.0300941225 -0.71368736 0.657793045 -0.00896949042 -0.753145337 0.914836884 -0.00470673339 -0.403796107 0.0315092765 -0.998347878 -0.048048839 0.0400430001 -0.997886181 -0.0511830337 0.36402899 -0.925899923 0.100956328 0.14432469 -0.989529312 -0.00145392481 0.0110291168 0.997856021 0.064511843 0.0455581732 0.998960435 -0.00158501125 0.193742648 -0.0129013527 0.980967581 -0.999125659 0.000250821293 0.0418067388 -0.99802196 -0.0210083183 -0.0592524409 -0.927342594 -0.224210426 -0.299608648 -0.213824615 0.943743527 -0.252244294 0.388263673 -0.0492546782 0.920231104 0.999921322 0.00460051652 0.0116696712 -0.699587047 -0.0236362778 -0.71415633 -0.923322618 0.0400476269 -0.381931394 -0.896037161 0.0296710543 -0.442986429 0.0178359542 0.447868675 -0.893921435 -0.00584436534 0.259653449 -0.965684175 -0.00366162369 0.277531832 -0.960709453 -0.695614517 0.0765547231 -0.714324713 0.0194897391 0.460534751 -0.887427688 0.0303706285 0.986985743 0.157913789 -0.00696133496 -0.998577595 -0.0528612845 0.0550921299 -0.997484386 -0.0446070246 0.0301625133 -0.999096394 -0.0299438946 0.160657719 -0.986845672 -0.0180210602 0.0312628672 0.999358714 -0.0174599681 0.0152276214 0.99787277 -0.0633878186 0.0114669707 0.999692261 -0.0219988246 0.0361429676 0.995921612 -0.0826667994 0.0384791754 0.996264577 -0.0773060545 0.0383889824 0.997617722 -0.0573159419 0.0606656596 0.998127401 -0.00783316884 0.0115056494 0.998868704 -0.0461401939 0.0305065513 0.998112321 -0.0533020608 0.0315284692 0.976112664 -0.214965224 0.698611021 0.0867737979 -0.710220397 0.715806127 0.105347969 -0.690306723 0.86007154 -0.244659528 -0.447681487 0.0144792218 -0.772295654 0.635098279 0.939850152 -0.170926183 0.295746386 0.982670724 -0.0188775882 0.184395924 0.990847528 0.0777569413 0.110340334 -0.883583784 -0.035951037 0.466891021 0.36544621 -0.0182085987 -0.930654347 0.368171453 -0.0167516749 -0.929606974 -0.00598331587 0.999981165 -0.00134672585 -0.0228473116 0.999592185 -0.0171314571 -0.00294773933 0.999984324 -0.00475785695 -0.00167409086 0.999998152 -0.000960625475 0.000347223133 0.99999851 -0.00167961884 0.00179068616 0.999994576 -0.00277103623 0.0104140621 0.999226511 -0.0379203409 0.00213324348 0.999991596 -0.00350515335 0.0012727658 0.999999166 0.000305814145 0.00256846077 0.999985814 0.00467175944 -0.00981324818 -0.99985522 0.0139009869 -0.0102767237 -0.99993664 0.00459838985 -0.0475497395 -0.995699346 -0.0795103237 0.000567813055 0.993652284 -0.112493627 0.0490217656 0.998173118 -0.0353165045 0.128300473 0.991706789 -0.00752226356 0.165238917 0.986248553 0.00315022329 0.0341918617 0.997626126 0.0597743392 0.668100417 -0.667959988 0.327828258 0.14499189 0.0144097749 -0.989327908 0.000122281315 0.996483326 0.0837909877 -0.621135354 0.00315755955 -0.783696949 0.00555829098 0.999913573 0.0119128646 -0.0076180771 0.998540938 -0.0534601249 0.859886885 -0.319605976 0.398053437 0.998895288 0.0469094291 0.0027772449 0.999698699 0.0229269564 0.00876854919 0.999963403 0.00589045696 -0.00620179623 0.0175088812 0.998206794 0.0572420023 0.0456154719 0.998956323 0.00233324314 0.0703114122 0.997453451 -0.0119548226 0.0626447052 0.997866154 -0.0184064656 0.0357876122 0.99752444 -0.0605325326 0.0754483417 0.994648099 -0.0705886409 0.00200178847 0.997743607 0.0671095178 0.0383571647 0.99428463 0.0996331498 0.0464723259 0.997492075 0.0533839017 0.000880610314 0.953603268 -0.301064789 -0.767329097 0.265512466 0.583702981 -0.00281695253 0.995093405 0.0988997892 -0.481036186 0.0108874543 0.876633167 0.969327033 0.245703965 0.00588273304 0.913640022 0.406524092 -0.00034578683 -0.606523454 0.0207023062 0.79479605 -0.652843773 -0.0335335769 -0.756749988 0.00201825495 0.999868393 -0.0160971992 -0.198460057 0.0420253165 0.979207575</float_array>
          <technique_common>
            <accessor source="#normals_array" count="583" stride="3">
              <param name="X" type="float" />
              <param name="Y" type="float" />
              <param name="Z" type="float" />
            </accessor>
          </technique_common>
        </source>
        <vertices id="vertices">
          <input semantic="POSITION" source="#positions" />
        </vertices>
        <triangles material="scout_1a1a1a" count="560">
          <input semantic="VERTEX" source="#vertices" offset="0" />
          <input semantic="NORMAL" source="#normals" offset="1" />
          <p>0 0 1 1 2 2 0 0 3 3 1 1 0 0 4 4 3 3 5 5 6 5 7 5 8 6 1 1 7 7 6 8 9 8 7 8 2 2 1 1 10 9 11 10 2 2 10 9 12 11 10 9 1 1 13 12 14 13 15 14 16 15 10 9 12 11 17 16 18 17 19 18 20 19 0 0 2 2 21 20 9 21 6 22 11 10 10 9 16 15 22 23 11 10 16 15 19 24 23 25 24 26 18 27 23 25 19 24 25 28 26 29 27 30 28 31 29 32 18 33 30 34 29 32 28 31 23 35 18 36 29 37 31 38 28 39 18 40 32 41 28 39 31 38 27 42 26 42 28 42 27 43 28 43 32 43 33 44 26 45 34 46 24 47 17 48 19 49 14 50 35 51 25 52 23 25 36 53 37 54 38 55 39 56 40 57 36 58 38 59 40 60 38 59 36 58 23 61 23 35 29 37 39 62 23 63 39 56 38 55 41 64 26 65 13 66 34 67 26 68 41 64 42 69 34 67 41 64 41 64 13 66 15 70 15 70 42 69 41 64 37 71 43 72 44 73 45 74 46 75 47 76 48 77 15 14 47 78 48 77 47 78 46 79 36 58 40 60 49 80 40 81 50 82 49 83 51 84 49 85 50 86 51 84 50 86 52 87 48 88 42 69 15 70 53 89 42 90 48 91 53 89 48 91 54 92 55 93 56 94 57 95 44 96 58 97 59 98 60 99 61 100 62 101 57 102 56 103 60 99 61 100 60 99 56 103 63 104 57 105 60 106 63 104 60 106 64 107 52 87 50 86 65 108 66 109 65 108 50 86 52 110 65 110 67 110 58 111 52 87 67 112 51 84 52 87 58 111 68 113 53 89 54 92 68 113 54 92 69 114 70 115 53 89 68 113 71 116 72 117 57 105 63 118 73 118 74 118 75 119 76 120 21 121 77 122 78 123 79 124 80 125 81 126 82 127 83 128 84 129 85 130 86 131 87 132 88 133 87 132 89 134 88 133 89 134 90 135 88 133 86 136 88 136 91 136 92 137 87 132 86 131 93 138 81 139 80 140 93 138 94 141 81 139 92 137 95 142 87 132 95 142 94 143 87 132 92 137 96 144 95 142 97 145 96 144 92 137 98 146 96 144 97 145 98 146 99 147 96 144 100 148 98 146 101 149 101 149 102 150 100 148 103 151 104 152 30 34 105 153 106 154 104 152 107 155 108 156 109 157 110 158 108 156 107 155 105 153 111 159 106 154 110 158 109 157 108 156 24 47 25 52 17 48 112 160 113 161 114 162 115 163 116 164 117 165 115 163 118 166 116 164 119 167 115 163 117 165 119 167 117 165 120 168 121 169 122 170 123 171 124 172 125 173 126 174 127 175 46 176 45 177 128 178 121 169 114 162 129 179 130 180 131 181 113 161 121 169 128 178 118 166 132 182 116 164 132 182 133 183 116 164 132 182 134 184 133 183 135 185 119 167 120 168 135 185 120 168 136 186 125 187 135 185 136 186 125 188 136 188 126 188 114 189 137 190 138 191 123 171 137 192 114 162 138 191 137 190 139 193 137 190 140 194 139 193 137 192 141 195 140 196 123 171 141 195 137 192 138 197 139 198 66 199 130 180 142 200 131 181 131 181 142 200 143 201 144 202 143 202 142 202 145 203 146 204 147 205 73 206 63 206 64 206 114 162 121 169 123 171 123 207 122 207 141 207 145 203 148 208 146 204 149 209 145 203 147 205 149 210 74 211 145 212 144 213 150 214 151 215 73 216 152 217 145 212 153 218 154 219 133 220 134 221 153 218 133 222 134 221 155 223 153 218 156 224 126 174 136 225 124 172 126 174 156 224 134 226 157 227 155 228 149 209 147 205 158 229 63 230 74 230 159 230 149 210 160 231 74 211 160 232 149 209 158 229 5 233 7 233 161 233 162 234 1 1 3 235 9 236 5 236 161 236 163 237 164 238 76 239 165 240 166 241 83 242 35 243 26 29 25 28 167 244 162 245 168 246 168 246 169 247 167 244 3 3 168 248 162 249 163 237 79 250 164 238 169 251 170 252 167 253 169 251 78 254 171 255 171 255 172 256 170 252 171 255 173 257 172 256 173 258 174 259 172 256 175 260 59 261 176 262 177 263 178 264 179 265 22 23 180 266 181 267 180 266 182 268 181 267 67 269 181 267 182 268 183 270 67 269 182 268 58 271 67 269 183 270 184 272 183 273 182 274 58 275 183 275 59 275 183 276 176 277 59 278 176 277 183 276 184 279 176 280 185 281 175 282 184 283 185 281 176 280 185 281 186 284 175 282 187 285 178 286 177 287 69 288 188 289 187 290 189 291 187 285 177 287 190 292 177 293 179 294 190 292 189 295 177 293 191 296 189 297 190 298 69 288 187 290 192 299 150 214 69 288 192 299 192 300 187 301 193 302 193 302 187 301 189 297 61 303 192 300 62 304 193 302 62 304 192 300 150 305 70 115 68 113 150 214 68 306 69 288 191 307 179 294 194 308 195 309 166 310 186 311 185 281 196 312 186 284 196 312 85 313 195 314 196 312 195 314 186 284 84 315 83 242 166 241 197 316 191 307 194 308 197 316 194 308 165 317 127 175 178 318 188 319 198 320 131 181 143 201 83 321 197 321 165 321 15 14 14 13 47 78 199 322 200 323 201 324 78 123 77 122 202 325 203 326 204 327 205 328 206 329 199 322 207 330 200 323 199 322 206 329 13 12 35 331 14 13 61 332 147 205 146 204 159 333 208 333 64 333 209 334 71 334 210 334 211 335 209 336 210 337 212 338 201 324 200 323 212 338 213 339 201 324 214 340 163 341 75 342 82 343 94 344 93 345 82 343 93 345 215 346 80 125 82 127 215 347 98 146 100 148 99 147 192 299 146 204 151 215 216 348 217 349 218 350 69 351 54 352 188 353 219 354 220 355 221 356 219 354 222 357 220 355 222 357 217 349 220 355 217 349 223 358 220 355 220 359 223 360 202 361 217 349 216 362 223 358 141 363 139 364 140 365 152 366 64 366 208 366 224 367 225 368 226 369 227 370 224 371 228 372 227 370 225 368 224 371 227 373 228 374 141 363 227 373 141 363 122 375 131 376 198 377 229 378 230 379 229 378 198 377 151 215 143 380 144 213 151 215 198 377 143 380 151 215 230 379 198 377 151 381 231 382 230 383 146 204 148 208 151 381 151 381 148 208 231 382 232 384 233 385 227 386 154 387 232 388 133 389 232 384 234 390 233 385 233 385 234 390 235 391 155 223 154 219 153 218 157 392 154 219 155 223 157 392 236 393 154 219 157 392 237 394 236 393 238 395 239 396 240 397 241 398 124 399 156 400 239 396 241 398 156 400 238 395 241 398 239 396 239 401 156 401 240 401 242 402 243 403 230 404 244 405 242 402 230 404 244 405 230 404 245 406 245 406 230 404 246 407 237 394 247 408 236 393 238 395 247 408 237 394 247 409 240 409 236 409 240 410 248 411 236 412 238 395 240 397 247 408 249 413 246 407 250 414 251 415 249 413 252 416 244 405 245 406 246 407 122 170 232 384 227 386 219 417 87 132 222 357 253 418 254 419 255 420 256 421 251 415 250 414 78 254 202 361 223 360 257 422 258 423 259 424 257 422 260 425 258 423 257 422 261 426 260 425 262 427 248 428 256 421 251 415 252 416 250 414 252 416 249 413 250 414 11 10 101 429 98 146 263 430 264 431 265 432 266 433 163 433 214 433 33 44 254 419 267 434 268 435 71 116 209 436 211 335 269 437 209 336 268 438 269 439 270 440 37 54 49 441 43 442 269 439 271 443 270 440 269 439 211 444 271 443 55 445 57 105 72 117 260 425 212 338 200 323 261 426 271 446 260 425 103 151 111 159 105 153 224 371 102 150 101 149 228 372 224 371 101 149 17 16 31 447 18 17 20 448 86 448 91 448 5 449 21 449 6 449 20 19 2 2 92 137 11 10 92 137 2 2 92 137 86 450 20 19 211 335 210 337 212 338 211 335 212 338 260 425 105 153 104 152 103 151 97 145 92 137 11 10 227 386 233 385 235 391 32 451 31 447 17 16 25 28 27 30 32 451 25 28 32 451 17 16 35 331 13 12 26 452 28 31 103 151 30 34 28 31 26 45 107 155 107 155 103 151 28 31 47 76 14 50 25 52 48 453 188 353 54 352 37 54 24 26 23 25 112 160 39 454 29 32 114 162 113 161 128 178 171 255 203 326 173 257 117 455 116 456 111 457 116 456 133 389 106 458 111 457 116 456 106 458 109 459 120 460 117 455 133 389 121 461 113 462 113 462 106 458 133 389 111 457 109 459 117 455 110 463 254 464 120 460 254 464 253 465 136 466 253 465 129 467 136 466 136 466 120 460 254 464 109 459 110 463 120 460 46 176 127 175 48 468 194 469 166 310 165 470 193 302 199 322 62 471 161 472 7 7 167 253 8 6 161 472 167 253 1 1 8 6 12 11 8 6 167 253 12 11 167 253 172 256 12 11 44 96 51 473 58 97 170 252 169 251 171 255 180 474 205 475 182 274 205 475 204 476 182 274 130 180 129 179 253 418 255 420 130 180 253 418 39 454 112 160 40 81 199 322 60 106 62 471 144 477 70 478 150 479 147 205 55 93 158 229 109 157 111 159 103 151 103 151 107 155 109 157 75 342 91 480 93 481 91 480 88 482 93 481 88 482 90 483 93 481 90 483 221 484 215 485 93 481 80 486 75 342 90 483 215 485 93 481 91 487 75 119 20 488 75 119 163 489 76 120 21 121 20 488 75 119 196 490 185 491 204 476 85 130 196 490 204 476 185 491 184 272 204 476 272 492 189 297 191 296 191 296 197 493 272 492 204 476 272 492 85 130 272 492 197 493 83 128 85 130 272 492 83 128 204 327 203 326 207 330 222 357 82 494 81 495 222 357 81 495 95 142 81 495 94 143 95 142 218 350 222 357 95 142 217 349 222 357 218 350 104 152 106 154 112 160 254 419 33 44 255 420 249 413 244 405 246 407 50 82 40 81 114 162 114 162 138 197 66 199 50 82 114 162 66 199 222 357 94 143 82 494 222 357 87 132 94 143 243 403 131 181 230 404 131 181 229 496 230 404 22 497 181 267 228 374 181 267 67 269 66 498 67 269 65 499 66 498 66 498 139 364 181 267 181 267 139 364 228 374 228 374 139 364 141 363 228 374 101 429 22 497 101 429 11 10 22 497 106 458 113 462 112 500 64 501 152 501 73 501 223 360 265 502 203 326 203 326 171 255 223 360 131 181 243 403 129 179 192 299 151 215 150 214 273 503 208 504 159 505 147 205 61 332 56 94 232 384 122 170 121 169 221 506 90 507 89 508 55 445 71 116 158 229 158 229 71 116 268 435 162 234 167 253 1 1 161 509 8 509 9 509 16 15 180 266 22 23 89 508 219 510 221 506 1 1 167 253 7 7 259 511 230 383 231 382 98 146 97 145 11 10 266 512 214 340 77 513 77 513 214 340 220 514 214 340 221 484 220 514 214 340 75 342 80 486 214 340 80 486 215 485 221 484 214 340 215 485 202 515 77 513 220 514 3 3 4 4 168 248 205 328 173 257 203 326 168 516 0 517 5 518 0 517 20 519 5 518 20 519 21 520 5 518 168 516 5 518 9 21 78 521 169 522 164 523 169 522 168 516 164 523 168 516 9 21 76 524 79 525 78 521 164 523 168 516 76 524 164 523 9 21 21 20 76 524 34 46 255 420 33 44 274 526 275 527 256 421 112 160 29 32 104 152 26 45 33 44 267 434 8 528 7 528 9 528 188 353 48 453 127 529 195 530 84 531 166 532 193 302 189 297 272 492 191 307 190 292 179 294 204 327 207 330 272 492 127 175 45 177 178 318 172 256 174 259 12 11 208 533 273 533 152 533 51 473 44 96 49 534 263 430 226 369 264 431 99 147 95 142 96 144 267 434 110 158 107 155 49 534 44 96 43 535 132 536 118 537 115 538 115 538 119 539 132 536 132 536 119 539 237 540 135 541 125 542 124 543 135 541 124 543 241 544 237 540 119 539 135 541 134 226 132 536 237 540 237 540 157 227 134 226 135 541 241 544 238 545 237 540 135 541 238 545 71 116 55 445 72 117 60 106 199 322 64 107 64 107 199 322 201 324 159 546 64 107 201 324 159 546 201 324 213 547 63 104 159 546 71 116 71 116 159 546 213 547 213 547 210 548 71 116 63 104 71 116 57 105 174 259 173 258 16 15 226 369 235 549 274 550 274 550 256 551 226 369 250 552 246 553 259 511 259 511 226 369 256 551 259 511 256 551 250 552 212 338 210 554 213 339 16 15 12 11 174 259 163 237 266 555 79 250 99 147 100 556 216 348 218 350 99 147 216 348 226 369 225 368 235 549 235 549 225 368 227 370 172 256 167 253 170 252 266 557 77 122 79 124 199 322 193 302 272 492 207 330 199 322 272 492 147 205 56 94 55 93 100 556 102 558 216 348 192 299 61 332 146 204 4 559 0 517 168 516 195 530 85 560 84 531 264 561 258 562 203 326 265 502 264 561 203 326 203 326 258 562 207 330 207 330 258 562 206 563 258 562 260 425 206 563 260 425 200 323 206 563 265 432 223 358 216 362 240 410 156 564 249 565 248 411 240 410 251 566 154 387 236 412 275 567 154 387 234 568 232 388 156 564 136 466 129 467 232 388 121 461 133 389 275 567 234 568 154 387 275 567 236 412 262 569 262 569 236 412 248 411 251 566 240 410 249 565 249 565 156 564 244 570 242 571 244 570 156 564 243 572 242 571 156 564 243 572 156 564 129 467 226 369 263 430 224 367 175 260 186 311 37 71 179 265 186 311 194 469 44 73 175 260 37 71 186 311 166 310 194 469 24 47 37 71 179 265 25 52 24 47 179 265 37 71 186 311 179 265 179 265 178 264 45 74 47 76 25 52 45 74 25 52 179 265 45 74 259 511 246 553 230 383 234 390 275 527 274 526 235 391 234 390 274 526 224 367 263 430 102 558 263 430 216 348 102 558 255 420 34 46 42 90 204 476 184 272 182 274 219 417 89 573 87 132 173 258 205 475 16 15 205 475 180 474 16 15 256 421 248 428 251 415 254 419 110 158 267 434 158 229 268 435 270 574 270 574 160 232 158 229 29 32 30 34 104 152 218 350 95 142 99 147 223 360 171 255 78 254 256 421 275 527 262 427 148 575 257 422 231 382 130 180 255 420 53 89 255 420 42 90 53 89 142 576 130 180 53 89 53 89 70 478 142 576 144 477 142 576 70 478 44 73 59 261 175 260 112 160 114 162 40 81 259 511 231 382 257 422 258 562 264 561 259 577 264 561 226 578 259 577 188 579 178 286 187 285 216 362 263 430 265 432 159 505 74 580 273 503 271 443 261 426 270 440 270 440 261 426 160 231 261 426 257 422 152 217 160 231 261 426 74 211 148 575 152 217 257 422 74 211 261 426 273 581 152 217 148 575 145 212 145 212 74 211 73 216 152 217 273 581 261 426 209 436 269 582 268 435 107 155 26 45 267 434 37 54 36 53 49 441 211 335 260 425 271 446</p>
        </triangles>
      </mesh>
    </geometry>
  </library_geometries>
  <library_visual_scenes>
    <visual_scene id="scene">
      <node id="right_knee_link">
        <instance_geometry url="#geometry">
          <bind_material>
            <technique_common>
              <instance_material symbol="scout_1a1a1a" target="#scout_1a1a1a" />
            </technique_common>
          </bind_material>
        </instance_geometry>
      </node>
    </visual_scene>
  </library_visual_scenes>
  <scene>
    <instance_visual_scene url="#scene" />
  </scene>
</COLLADA>