<?xml version='1.0' encoding='utf-8'?>
<COLLADA xmlns="http://www.collada.org/2005/11/COLLADASchema" version="1.4.1">
  <asset>
    <created>2026-09-14T00:00:00Z</created>
    <modified>2026-09-14T00:00:00Z</modified>
    <unit name="metre" meter="1" />
    <up_axis>Z_UP</up_axis>
  </asset>
  <library_effects>
    <effect id="scout_1a1a1a_effect">
      <profile_COMMON>
        <technique sid="common">
          <lambert>
            <emission>
              <color>0 0 0 1</color>
            </emission>
            <ambient>
              <color>0.05 0.05 0.05 1</color>
            </ambient>
            <diffuse>
              <color>0.1 0.1 0.1 1</color>
            </diffuse>
          </lambert>
        </technique>
      </profile_COMMON>
    </effect>
  </library_effects>
  <library_materials>
    <material id="scout_1a1a1a" name="scout_1a1a1a">
      <instance_effect url="#scout_1a1a1a_effect" />
    </material>
  </library_materials>
  <library_geometries>
    <geometry id="geometry" name="right_shoulder_roll_link">
      <mesh>
        <source id="positions">
          <float_array id="positions_array" count="390">-0.0468310602 -0.0144214137 -0.101562023 -0.0486611202 0.00411191396 -0.12684916 -0.0451894328 -0.0173415691 -0.125750855 -0.0176979452 -0.0453128852 -0.0968529359 -0.0347266644 -0.0333465338 -0.0971992761 -0.0339718498 -0.0350399315 -0.127193674 -0.0255703684 -0.015904529 -0.0926645771 -0.0388252474 -0.0194711145 -0.097175464 -0.0160061661 -0.0263335239 -0.0975119025 -0.0240753144 -0.0159412585 -0.0864161998 -0.0274855401 -0.0158113614 -0.0995032713 -0.0310104582 -0.0189745259 -0.0811344683 -0.0210118312 -0.0225396771 -0.0858598351 -0.030968802 0.000484558055 -0.12737684 -0.0225844197 -0.0198113192 -0.133789882 -0.0217622761 -0.0219025109 -0.127377778 -0.0258699767 0.0146766482 -0.134140447 -0.0292874109 0.0093331337 -0.095333606 -0.00585239939 -0.0308842808 -0.0946861431 0.0478799194 -0.0022504665 -0.000492526742 0.0448550619 0.0127958478 0.000258626853 0.0478215739 0.003201599 0.000624088454 9.60938341e-05 -0.0304922499 -0.130198687 0.0473983474 0.0128364749 -0.0295627695 0.0385223813 0.0109906178 -0.0304272473 0.0365343988 -0.000619243481 -0.0350617357 0.04256263 -0.0203226283 -0.0915643573 0.0252321828 -0.0188370701 -0.0920985341 0.0166914705 -0.0261896718 -0.0970448777 -0.0405450948 0.0259706527 -0.0987647027 -0.0361302197 0.0321840905 -0.127928272 -0.0446557179 0.018443279 -0.10098809 -0.0292009879 0.0187762119 -0.0807853863 -0.0224958155 0.0222769026 -0.0858182535 0.035634812 0.0280230548 -0.0852394253 0.0258588456 0.0188343488 -0.0893967748 -0.0200248808 0.0231619421 -0.12895821 -0.0235800482 0.0164452568 -0.0862119868 -0.0219588336 0.0436567217 -0.0969311222 -0.0303197112 0.0303193927 -0.0976170078 -0.0116686262 0.0272439886 -0.0923251659 -0.0214321595 0.0224844459 -0.0971508771 0.0299734604 0.012685244 -0.085455589 -0.00549834035 0.0310951844 -0.130347565 0.00738957385 0.0304414257 -0.0949544534 0.000109650355 0.0455020927 -0.0967478156 -0.0154933399 0.0462054238 -0.129583761 -0.00589204812 0.0409257226 -0.13815774 0.0118312156 0.047806792 -0.129963651 -0.000466394442 0.0400153622 -0.128358632 0.00352955493 0.0358571187 -0.140354007 0.0398977287 -0.0223851465 -0.0853938982 0.0376280136 -0.0247087609 -0.0591475144 0.0207432136 -0.0198290497 -0.0636685267 0.0214157887 -0.0211892594 -0.128363609 0.0245349668 -0.018152358 -0.134218991 0.0334159955 -0.0344429724 -0.0770729408 0.0323081799 -0.032044325 -0.0974876359 0.0194343962 -0.0442324691 -0.0944053084 0.0271027312 -0.0224139672 -0.0866029188 0.0339036286 -0.0296371467 -0.0209628604 0.0357151218 -0.0296953078 -0.0241055619 0.0339022875 -0.0310887638 -0.0209580157 0.0339019708 -0.0252821762 -0.0209770314 0.033899799 -0.0267621912 -0.0209811255 0.0347575732 -0.0180401634 -0.0312305447 0.0315386988 -0.000221133581 -0.127254695 0.043821767 -0.0154744331 -0.0845426917 0.0374757051 0.000455973204 -0.0857920423 0.0434479751 0.014893801 -0.085361518 0.0307561532 -0.0122469896 -0.0855637267 0.0284523144 -0.0135013992 -0.0587119088 0.0339032188 -0.0187260006 -0.0520350225 0.0287879948 -0.0166534707 -0.100030087 0.0309140943 0.0056984704 -0.0922092199 0.0434872322 -0.0159722045 -0.0613504834 0.0465193763 0.00136017019 -0.0590933338 0.0462963581 -0.00231743674 -0.0856549069 0.0436403267 -0.0133858128 -0.0326808244 0.0470089875 -0.0131711615 -0.0297404714 0.0381377973 -0.0172353722 -0.026770141 0.0409063995 -0.0262272973 -0.0221557505 0.0385970287 -0.00530095445 -9.8356737e-05 0.0439159237 -0.0182450842 -0.0909228176 0.045473136 0.000672176713 -0.0969091803 0.0438204855 -0.0134564545 -0.0585627705 0.0465118736 0.000536714564 -0.0341619849 0.0458730161 -0.0131217502 1.89295515e-05 0.0457701348 -0.0172717869 -0.101245359 0.0468953587 -0.00183434482 0.000409666565 0.0388394184 -0.0109509407 0.00192493573 0.0400171056 0.0129841296 0.0241233669 0.0342653394 0.00224628649 0.0352511443 0.0396233015 -0.0130576324 0.0247191172 0.0053732153 0.0306201 -0.129462004 0.0211876333 0.0214441847 -0.13404803 0.0188281294 0.0240178648 -0.0970144048 0.0176951718 0.0257648528 -0.128982723 0.0281586945 0.0148111144 -0.099472113 0.0357217602 0.0306907129 -0.128789246 0.037756443 0.0162237659 -0.0972349569 0.03718023 0.0266246162 -0.0593995489 0.0390400402 0.021173764 -0.0624374039 0.0186318196 0.0190726444 -0.0651041344 0.0390028469 0.0103163878 -0.00175829395 0.0285577364 0.0176974572 -0.0569024943 0.0426593982 0.016796222 -0.0873730108 0.0435041897 0.0167777594 -0.0339956395 0.0384074636 0.0204330031 -0.0830729976 0.0404720008 0.0200922675 -0.0264762789 0.0423026048 0.0165957734 -0.057085447 0.0371416993 0.0196538512 -0.031478323 0.0375256427 -0.0311541278 -0.127153888 0.0333876424 0.0340021178 -0.0957474113 0.0424780101 0.0206597969 -0.0917216241 0.0441901572 0.0154757593 -0.0615693368 0.034749262 0.0299587455 0.0176498126 0.0353621505 0.0316266119 -0.0202289596 0.0414821245 0.0213848632 0.000385255553 -0.00471033109 -0.0187267773 -0.0729899183 0.035226129 -0.0302918609 0.0174598228 0.0481959656 -0.000303329318 -0.127138197 0.0189600494 -0.0445620827 -0.12577799 -0.00329099223 -0.0473459251 -0.126884177 0.00327675929 -0.0478042923 -0.0978782251 0.0454266407 0.0186873861 -0.101521447 0.0447541066 0.0193583202 -0.125581875 0.0416145697 -0.0206618831 0.000544441806 0.0180011652 0.0450181477 -0.0966081172 0.0378293507 -5.68235328e-06 -0.059267588</float_array>
          <technique_common>
            <accessor source="#positions_array" count="130" stride="3">
              <param name="X" type="float" />
              <param name="Y" type="float" />
              <param name="Z" type="float" />
            </accessor>
          </technique_common>
        </source>
        <source id="normals">
          <float_array id="normals_array" count="1023">-0.956461668 -0.29046756 0.0284542385 -0.992508709 0.12217176 0.00076064124 -0.927765489 -0.372730911 -0.0179674942 -0.355541199 -0.934361398 -0.0236470066 -0.718639731 -0.69506073 0.02115638 -0.660504043 -0.750280917 -0.0285122152 -0.191459253 -0.552603006 0.811155558 -0.0492682867 -0.211683229 0.976095736 -0.278029561 -0.347362936 0.895566046 -0.150754273 0.934910893 0.321270585 0.186460555 0.981694281 -0.0388434269 -0.285172045 0.954807162 0.0837868899 -0.300285697 0.94854331 0.100469142 -0.199756235 0.953802764 0.224405348 -0.0771026015 -0.867526293 0.491378963 -0.18443355 -0.951111794 0.247730851 -0.264414281 -0.951334119 0.158267155 0.396930456 -0.509952068 -0.763148129 -0.924834132 -0.380331427 -0.0054583326 -0.714139402 -0.0751081929 -0.695962429 -0.957204938 -0.112791367 0.266527236 -0.463521421 -0.685849428 0.561033428 0.411836028 0.127836958 -0.902246535 0.316064477 0.110581346 -0.942271173 0.62269026 0.163386017 -0.765220165 -0.38176617 -0.892023444 -0.241968468 -0.0275382958 -0.359024346 0.932921827 -0.0138592888 -0.368655026 0.929462969 -0.0327101089 -0.355354309 0.93415916 -0.0968870148 -0.416972697 0.903740406 -0.020660745 -0.541428983 0.840492547 0.0805638656 -0.364489824 0.927715838 -0.797395349 0.603406191 0.00784624554 -0.754753768 0.65512377 -0.0340528004 -0.941540003 0.336901248 -9.13356416e-05 -0.08067853 0.900061607 0.428229064 -0.0497748964 0.849787891 0.524769425 -0.133642137 0.88814044 0.43971166 -0.0649913251 0.117236696 -0.990975142 -0.128414184 0.518974185 -0.845089078 -0.0710475296 0.459256977 -0.885457695 -0.862061739 0.434246719 0.261303246 0.57504946 -0.051788196 -0.816477835 -0.0323098153 -0.00720438221 0.999451935 -0.103803121 -0.0183651075 0.994428277 -0.0963243246 -0.00759186689 0.995321035 -0.771377385 0.248151496 0.586001456 -0.100919977 0.10480763 0.989358664 -0.471125335 0.390679836 0.790828824 -0.259655923 0.0938838124 0.961126745 -0.02699784 -0.552158594 -0.833301902 -0.00649375515 -0.542677939 -0.839915752 -0.0349072032 -0.344496459 -0.938138425 -0.42264688 0.666322589 -0.614315689 -0.207367837 0.872987747 -0.441464603 0.0756630898 0.130176336 0.988599598 -0.0415015072 0.0680606514 0.996817648 -0.0595778376 -0.00111021043 0.998223066 -0.719714463 -0.449317843 -0.529267907 -0.608301759 -0.508522689 -0.609404266 -0.602241814 -0.511243939 -0.613134861 0.472092837 -0.814563632 -0.337067425 -0.462483376 -0.562814236 -0.685090721 -0.0560121313 0.820948243 -0.568248689 0.217543051 -0.706058502 0.673911273 -0.140143424 -0.989630938 0.0314709991 -0.249556318 -0.96245414 -0.106787905 -0.132821515 -0.991139829 -0.000491796061 0.405495316 -0.881679833 -0.241276115 -0.846309066 0.531306446 0.0383987166 -0.741325319 0.665679395 0.0854856148 -0.666690052 0.735189319 0.122560337 -0.821692705 0.569930732 -0.000345594599 -0.0133690871 -0.980421603 -0.196455345 0.00297864736 -0.924766243 -0.38052395 0.0297507104 -0.955935597 -0.292065144 -0.86639452 -0.00261034374 -0.49935326 -0.951631904 -0.126757205 -0.279873759 -0.866382957 -0.000867716968 -0.499379426 -0.063395083 -0.00328806974 -0.997983098 -0.864375949 0.000679653545 -0.502845705 -0.955968916 0.00059378345 0.293467313 -0.996131957 0.0308620483 -0.0822722167 -0.99971354 -0.0173218045 -0.0165180191 0.869461358 -0.432390302 0.238905028 0.132094532 -0.0250925031 -0.990919471 -0.850482464 0.258807749 0.457928091 -0.654755533 0.234966442 0.71839118 -0.359996915 -0.798241377 0.482921243 0.912460566 -0.209721699 0.351329654 -0.983894348 0.177310258 -0.0226479657 -0.999910593 -0.0092541445 0.00964944065 -0.999192655 -0.00138857681 0.0401511528 -0.0560967922 -0.845414817 -0.531156242 0.893202901 0.396869302 -0.211384431 -0.0495566726 -0.209698707 -0.976509392 0.0766737536 0.473805159 0.87728548 0.130203813 0.966828167 -0.219750419 -0.46830985 0.301384658 0.830574036 -0.241262883 0.0578426719 0.968734443 -0.341313511 0.150802821 0.927773476 0.0103823142 0.0822904557 0.996554315 -0.981751382 -0.129660815 0.139112577 -0.988202631 0.113785565 0.102510788 -0.983601093 0.178159356 -0.028073512 -0.980941951 0.19429478 0.00154802634 -0.999798954 0.02004846 0.000361300044 -0.0287088212 -0.0416863747 -0.998718202 0.949664056 -0.3128061 -0.0170460176 0.88387233 0.466850847 0.0286348518 0.970146239 -0.242503211 -0.00290123769 -0.0802517384 0.00893778633 0.99673456 -0.191892609 0.323567718 0.92654258 0.0702752098 0.102816783 0.992214739 0.975361407 -0.100364268 0.196461633 0.889520943 -0.00299929618 0.456884563 0.992802203 -0.00747299194 0.119532309 -0.251274288 0.00500248 0.967903018 0.238572091 -0.0551715717 0.969556332 -0.00414473517 -0.901502907 -0.432753205 0.12051852 0.602157593 -0.789228439 0.281606942 0.770889759 -0.571337521 0.0914626494 0.566830814 -0.818741322 0.438338518 0.884355485 -0.160545096 -0.522665679 0.736490846 -0.429420292 0.885597348 -0.341942489 -0.314313024 0.198153883 0.257568181 0.945723891 0.0180713069 0.0587059669 0.998111725 0.340432048 0.818243325 -0.463231951 0.627652049 0.0564113036 -0.776447475 0.968485296 0.240129083 -0.0661382452 0.968840778 0.120462038 -0.216417268 0.944574833 0.0246970858 -0.327365905 0.86089623 0.471361548 0.191509604 0.0232877824 -0.0435926989 -0.998777926 0.0859988779 -0.0567634478 -0.994676888 0.0491359979 0.00321236323 -0.998786926 -0.792701185 -0.402997971 0.457402945 0.935920656 0.343838513 0.0763386041 -0.0666342303 -0.972587645 0.222785041 -0.0401485078 -0.964678288 0.260353386 0.0474645793 -0.923870683 0.379749954 -0.00831485819 0.784217417 0.62043047 0.0610938035 0.501733482 -0.86286217 0.35248363 -0.935567856 0.0216355696 0.231271714 -0.97271651 -0.0183312111 0.380779654 -0.924138784 0.0312154125 -0.623063445 0.699625731 0.34973675 -0.449659109 0.615393579 0.647377372 -0.572677612 0.680850446 0.456599355 -0.0745117217 -0.223366648 -0.971882343 -0.0388310105 -0.0168412626 -0.999103844 -0.0606521256 0.415290236 -0.907664776 0.759596825 -0.29695645 -0.578644514 -0.919905186 -0.281545013 0.272959471 -0.975517631 -0.163943022 0.146587923 -0.0104271444 0.0653235391 -0.997809649 -0.198313937 0.138908207 -0.970245361 0.0867628604 0.0262678284 -0.99588263 -0.976500928 -0.215006843 0.0147643676 -0.266831785 0.730809093 -0.628266513 -0.0442636125 -0.347098649 0.936783493 -0.0614094846 0.997406244 0.0375448652 -0.813417554 -0.39466545 0.427306801 0.84875989 0.527994096 0.0287905056 0.912858248 0.401741147 0.0727586076 -0.19003436 -0.0315861553 0.981269181 -0.223914012 -0.0217571817 0.974366009 -0.960668981 -0.272756785 0.0521426313 -0.292844236 0.174928203 -0.940022528 0.0653279647 -0.0473056324 -0.996741891 -0.040312402 -0.160682827 -0.986182511 0.0818930119 0.0114122322 -0.996575773 -0.921570718 -0.387844563 -0.0168543253 -0.862701237 -0.497445434 -0.0910745859 -0.790936887 -0.588958025 -0.165973648 -0.986636162 -0.159809396 0.031780839 -0.988024056 0.0137413368 0.153686911 -0.683011353 -0.532794237 -0.499625623 0.284107327 0.104695313 -0.953059256 -0.0879241005 0.0107561816 0.996069074 0.54938513 0.44112578 0.709636509 0.891346276 0.453301013 -0.00447937287 0.895704746 0.421816528 0.140654877 0.896437466 0.439537466 0.0566275641 -0.0655009747 0.988832593 0.133864701 -0.16901356 0.985436082 0.0187124219 -0.101289317 0.989376485 0.104281723 -0.0382902026 0.992218316 0.118476704 0.889757156 -0.456344455 -0.00905508734 0.914539874 -0.331168354 0.232259184 0.891153276 -0.425711155 0.15689458 -0.0797510818 -0.0197371226 -0.996619403 -0.0662756637 -0.0213791877 -0.997572303 -0.0806556419 -0.0111954268 -0.996679127 -0.0901686102 -0.00930304918 -0.995883048 0.00719486363 0.0415258892 -0.999111533 0.99737817 -0.0567413196 -0.0449127667 -0.141592324 0.46849224 -0.872047365 -0.109934665 0.163049802 -0.980473936 -0.0169104375 -0.04859557 -0.998675406 0.0024119236 -0.314086556 -0.949391305 -0.00616917433 -0.0825433284 -0.996568382 0.0440201163 0.0699715465 -0.996577263 0.010501354 0.084729217 -0.996348679 -0.140034437 -0.00756281894 -0.990117729 -0.290438771 0.100674443 0.951582909 -0.202828512 -0.105458684 0.973518908 -0.116382621 -0.170593664 0.978444099 -0.0389420129 0.61939925 0.784109771 0.0753488243 -0.205551565 -0.975741327 -0.0226770863 -0.151455998 -0.988203824 0.114861332 0.85993576 0.497310162 0.0025620989 -0.999991357 -0.00328192906 -0.408868641 0.911994398 0.0330550224 -0.286742032 0.957941949 0.0112335579 0.312964588 0.94666028 0.076729849 -0.0338609703 0.997313499 0.0649555996 0.784871519 -0.116257228 0.608655035 -0.0435298309 -0.989835382 0.135392115 -0.55170238 -0.164367691 0.817684352 -0.114422336 0.126751319 0.985312939 -0.0397061408 -0.180238396 0.982821226 -0.00958596449 -0.072462149 0.997325122 -0.0447739027 -0.0389131233 0.998238981 -0.0327978469 -0.0757431611 0.996587813 0.0109772887 0.0152670685 0.999823213 0.0157118272 -0.0129266754 0.999792993 0.00156415987 -0.0256490316 0.99966979 -0.0929377303 0.0260124225 0.995332062 0.76186043 -0.64737612 0.0217437856 0.674033105 -0.738664567 0.00734944316 0.783233881 -0.620148778 -0.0442738421 -0.0461487509 0.968205392 0.245862946 0.914628863 0.404217362 -0.0079001775 0.905047953 0.425097078 -0.0134438239 -0.139550611 -0.962100089 0.234284177 -0.0995078087 -0.990668833 0.0931313038 -0.0819782093 -0.991661847 0.0994304121 -0.142409503 -0.989546001 0.0227638148 -0.110677376 -0.992067158 -0.0596092977 0.0592610352 -0.998239219 -0.00257229363 -0.886493981 0.462730408 -0.00299667846 -0.915261745 0.40284279 -0.0036964824 -0.883361816 0.468677372 -0.00366567587 -0.219758883 -0.95806402 0.183900505 -0.0985893384 -0.947303951 0.304787397 0.223800674 -0.871167302 -0.437013566 -0.0378664955 -0.0394404493 -0.998504162 -0.0534288362 -0.0273737777 -0.998196363 -0.0960431769 -0.0141652226 -0.995276392 -0.0315903351 -0.030782178 -0.999026775 -0.0322839729 -0.00797202252 -0.999446929 0.689434648 0.723978937 -0.0231175348 -0.727646649 0.680436134 -0.0868163034 -0.035527505 0.262273073 0.964339495 -0.0106665259 0.822095573 0.56924963 -0.982873857 0.183995679 -0.0102283238 -0.174720332 0.554124415 -0.813891232 0.456730515 -0.889604986 -0.000406610925 0.379202545 -0.925201893 -0.0143832499 -0.465388328 0.885049343 -0.010064912 -0.467455536 0.883973479 -0.0087278951 -0.470591426 0.882325828 -0.00669533294 -0.472135842 0.881507397 -0.00569239864 -0.92529726 -0.369566739 -0.0851197466 -0.897114456 -0.427919447 -0.109866194 -0.939661562 -0.339965105 0.0382088609 -0.942206085 -0.33253774 0.0408201367 0.731684387 0.681116521 0.0267988164 -0.650301695 0.211742118 0.729570448 0.17489928 -0.033980228 -0.983999789 -0.997915983 -0.043690443 -0.047484573 -0.982078135 0.0609437414 -0.178348973 -0.999644756 0.00835292786 -0.0253095087 -0.999971092 -0.00470761722 -0.00596733065 -0.99985534 -0.0152325751 0.00757124834 -0.989702642 -0.141447023 -0.0219423175 -0.999406874 5.63239118e-05 0.034437377 0.879165649 -0.476432234 0.00895098131 0.36265105 -0.438825071 0.822141588 0.00722837122 0.0858929902 -0.996278167 -0.0151400529 -0.0909877792 -0.995736897 -0.0113136647 -0.0606648698 -0.998094082 0.248497441 0.968499303 0.0160647016 0.176686361 -0.108568624 -0.978261113 -0.0679191351 0.0797727332 -0.994496524 0.0238384232 -0.0381159969 -0.998988926 0.0225130375 -0.0384693146 -0.999006152 0.358748376 0.933361351 0.0116727706 -0.153033823 0.0624330342 -0.986246824 -0.163364977 0.0576712228 -0.984878659 -0.182664797 -0.037352562 -0.982465446 0.0409067534 -0.0936915278 0.994760513 0.00864503533 -0.0579258166 0.998283446 0.041924417 -0.0134090632 0.999030828 0.604698539 -0.796442747 -0.00431670994 0.206003219 -0.978193581 -0.0264574178 0.852850258 -0.493544936 -0.170469537 0.421302855 -0.906749487 0.0175874699 -0.0488530025 0.116070218 0.992038846 -0.0283934083 0.195200115 0.980352342 -0.0521602035 0.0354177728 0.998010457 0.0179289747 0.0331341438 0.999290109 -0.193902761 0.159933925 0.967896104 -0.141566038 0.0812408328 0.986589551 0.720269501 0.693498433 -0.0164834522 -0.929668128 -0.368078649 0.0153401308 0.00883184746 0.0985373855 -0.99509418 0.999006152 0.0316008069 -0.0314347558 0.993800461 -0.104555495 0.0377987176 0.926630139 -0.324193448 0.190407917 0.614310205 0.19955422 -0.763414145 0.996943831 0.0698176995 0.0350497328 0.975370109 0.195306689 0.102510877 0.988778353 0.132605761 0.0687972531 0.999461412 -0.0278209671 -0.0174043514 -0.029957654 0.638746023 -0.768834174 -0.13418512 -0.983194947 0.123782404 -0.307192951 -0.21336776 -0.927419364 -0.140445054 -0.0216689762 -0.989851296 -0.0116313854 0.126425922 -0.991907835 0.838063657 0.351417154 -0.417319119 -0.0180716384 0.0260269586 0.99949789 -0.0114442632 0.027237203 0.999563515 -0.139785394 -0.990176797 0.00314821815 -0.682976365 0.708909273 0.176042631 -0.0797315687 -0.996744096 0.0120051242 -0.272385806 -0.952021122 0.139505461 -0.13719894 -0.989290774 0.0498011857 -0.342469782 -0.920835078 0.186486542 -0.0449257232 0.998647749 0.0261610337 -0.0981298983 0.994636357 -0.0326966345 0.0232906342 0.694020033 -0.719578862 -0.00983312726 0.0479572453 0.998800993 0.208256572 -0.145703048 0.967160702 0.000628239068 -0.130488262 0.991449654 -0.0119754849 0.0304929595 0.99946326 0.963947833 0.249921218 -0.0913455784 -0.256295234 0.0059822374 0.966580033 0.916990757 0.354404241 0.1831</float_array>
          <technique_common>
            <accessor source="#normals_array" count="341" stride="3">
              <param name="X" type="float" />
              <param name="Y" type="float" />
              <param name="Z" type="float" />
            </accessor>
          </technique_common>
        </source>
        <vertices id="vertices">
          <input semantic="POSITION" source="#positions" />
        </vertices>
        <triangles material="scout_1a1a1a" count="280">
          <input semantic="VERTEX" source="#vertices" offset="0" />
          <input semantic="NORMAL" source="#normals" offset="1" />
          <p>0 0 1 1 2 2 3 3 4 4 5 5 6 6 7 7 8 8 9 9 6 10 10 11 7 12 11 13 9 9 12 14 11 15 7 16 12 17 7 17 6 17 13 18 14 18 15 18 16 19 14 19 13 19 6 20 17 20 10 20 18 21 6 6 8 8 19 22 20 23 21 24 22 25 15 25 14 25 23 26 24 27 25 28 26 29 27 30 28 31 29 32 30 33 31 34 32 35 33 36 29 37 33 38 34 39 35 40 36 41 16 41 13 41 29 42 33 42 37 42 38 43 29 44 39 45 31 46 32 46 29 46 40 47 41 48 17 49 37 50 35 51 42 52 36 53 43 53 16 53 40 54 44 54 41 54 44 55 45 56 41 57 46 58 47 59 43 60 47 61 48 61 49 61 43 60 47 59 50 62 46 63 48 63 47 63 27 30 18 64 28 31 51 65 52 66 53 67 54 68 22 68 55 68 56 69 57 70 58 71 51 72 57 70 56 69 59 73 26 74 51 75 60 76 61 77 62 78 60 79 62 79 63 79 64 80 61 77 60 76 63 81 64 81 60 81 63 82 65 83 61 77 63 82 61 77 64 80 55 84 66 84 54 84 67 85 68 85 69 85 70 86 27 86 59 86 71 87 53 87 72 87 72 88 53 88 52 88 73 89 74 89 27 89 75 90 76 91 77 92 26 74 59 73 27 93 6 94 9 94 12 94 25 95 78 95 65 95 79 96 80 96 81 96 82 97 79 97 78 97 83 98 84 99 73 100 68 101 67 101 77 101 77 92 84 102 83 103 85 104 76 91 75 90 76 91 85 104 78 105 86 106 76 91 78 105 82 107 19 107 87 107 88 108 23 109 79 110 89 111 82 112 90 113 91 114 92 115 93 116 21 117 89 111 87 118 94 119 43 119 50 119 94 120 95 121 43 122 49 123 50 123 47 123 49 124 48 124 50 124 50 125 48 125 94 125 96 126 44 55 74 127 94 120 97 128 95 121 95 129 66 129 55 129 98 130 74 131 73 132 95 133 97 133 66 133 97 134 99 135 66 136 74 137 35 137 96 137 35 138 74 131 98 130 100 139 35 140 98 141 85 142 71 142 72 142 101 143 102 143 103 143 104 144 23 145 20 146 39 45 41 57 38 43 101 147 103 148 105 149 106 150 42 52 35 51 42 52 68 151 70 152 106 153 69 153 68 153 106 154 77 92 69 155 106 154 84 102 77 92 25 156 107 157 86 158 107 159 76 91 86 106 82 160 89 160 19 160 23 26 25 28 86 161 33 36 32 35 108 162 106 154 100 163 84 102 109 164 20 165 23 109 100 166 98 167 73 100 76 91 107 159 110 168 111 169 107 157 25 156 112 170 22 171 54 172 34 173 113 174 114 175 69 155 77 92 115 176 23 177 86 177 79 177 104 178 19 178 89 178 20 23 19 22 104 179 20 180 82 180 21 180 91 181 116 181 92 181 117 182 116 183 118 184 53 185 75 186 67 187 53 185 67 187 119 188 5 5 0 0 2 2 87 189 93 190 120 191 36 192 30 193 46 194 43 195 36 192 46 194 67 187 11 13 119 188 7 12 9 9 10 11 51 65 11 15 12 14 66 136 121 196 112 170 54 172 66 136 112 170 121 197 23 109 88 108 83 198 70 152 77 199 68 151 77 199 70 152 68 151 42 52 106 150 55 200 22 201 14 202 16 203 55 200 14 202 55 200 16 203 43 204 95 205 55 200 43 204 67 187 9 9 11 13 41 48 31 206 17 49 31 206 0 207 17 49 17 49 0 207 10 208 0 209 7 209 10 209 0 0 31 34 1 1 31 34 30 33 1 1 122 210 123 211 22 171 22 171 112 170 122 210 37 212 41 212 29 212 51 75 12 213 59 73 29 32 38 214 30 33 30 33 38 214 46 215 90 216 93 216 87 216 46 215 38 214 45 217 21 218 87 218 19 218 53 67 119 219 51 65 51 65 119 219 11 15 4 220 7 220 0 220 58 221 57 222 28 31 124 223 58 221 28 31 26 29 28 31 57 222 3 224 124 223 18 225 3 224 18 225 8 8 4 226 3 224 8 8 8 8 7 7 4 226 124 223 28 31 18 225 6 227 18 228 40 47 18 228 27 229 74 127 18 228 74 127 40 47 6 227 40 47 17 49 40 47 74 127 44 55 81 230 56 231 112 232 73 233 27 233 83 233 125 234 121 197 126 235 32 236 69 237 103 238 69 237 115 239 103 238 123 240 124 241 3 3 61 242 52 243 56 69 56 69 120 244 61 242 87 118 89 111 90 113 32 236 31 245 37 246 31 247 41 247 37 247 1 248 13 249 2 250 13 249 15 251 5 252 2 250 13 249 5 252 99 253 125 234 126 235 51 72 26 254 57 70 34 255 33 255 108 255 69 237 32 236 37 246 51 72 56 69 52 243 125 234 109 164 23 109 22 171 123 211 15 251 123 211 5 252 15 251 96 256 35 256 114 256 125 234 117 182 109 164 77 92 67 257 75 90 0 0 5 5 4 4 35 40 34 39 114 258 58 259 124 241 122 260 65 261 78 262 72 263 78 262 85 264 72 263 65 83 72 265 61 77 72 265 52 266 61 77 5 5 123 240 3 3 102 267 34 173 108 268 82 269 87 269 79 269 100 166 73 100 84 99 81 230 88 108 79 110 78 270 79 270 86 270 121 196 66 136 126 271 66 136 99 135 126 271 112 232 121 197 88 108 111 272 25 273 65 83 111 272 65 83 116 274 116 274 65 83 92 275 65 83 63 82 120 276 117 277 111 272 116 274 63 82 62 278 120 276 65 83 120 276 92 275 127 279 87 189 120 191 92 280 120 280 93 280 124 241 123 240 122 260 59 281 12 282 9 283 48 284 46 215 45 217 104 285 21 285 82 285 37 286 33 38 35 40 94 287 48 288 97 134 48 288 99 135 97 134 45 217 128 289 48 284 75 290 71 291 105 292 110 293 105 294 71 295 62 296 61 296 120 296 104 144 24 297 23 145 127 279 80 298 87 189 80 299 79 299 87 299 70 300 9 301 67 302 41 57 45 56 38 43 44 55 96 126 128 303 96 126 114 304 113 305 113 305 128 303 96 126 44 55 128 303 45 56 39 45 29 44 41 57 113 306 99 253 48 284 48 284 128 289 113 306 99 253 113 306 125 234 34 173 101 307 113 174 9 283 70 308 59 281 93 116 90 309 82 310 82 310 20 311 91 114 93 116 82 310 91 114 78 312 25 312 24 312 82 313 78 314 24 315 24 315 104 316 82 313 75 317 53 317 71 317 106 318 35 140 100 139 105 292 115 319 76 320 76 320 129 321 105 292 75 290 105 292 129 321 129 322 85 322 75 322 109 164 118 184 20 165 70 300 67 302 42 323 69 324 42 323 67 302 115 239 105 325 103 238 113 306 117 182 125 234 111 326 101 147 105 149 110 327 107 328 105 329 107 328 111 330 105 329 108 162 32 35 103 331 102 332 108 162 103 331 81 230 112 232 88 108 109 164 117 182 118 184 27 333 70 152 83 198 85 334 129 335 71 295 110 293 71 295 129 335 129 335 76 336 110 293 34 173 102 267 101 307 113 174 101 307 117 277 117 277 101 307 111 272 30 193 36 192 13 249 1 248 30 193 13 249 58 259 122 260 112 232 23 109 121 197 125 234 37 337 42 323 69 324 115 176 77 92 76 91 120 191 56 231 81 230 81 230 127 279 120 191 56 231 58 259 112 232 81 338 80 338 127 338 89 111 21 117 104 339 91 340 20 165 116 183 20 165 118 184 116 183</p>
        </triangles>
      </mesh>
    </geometry>
  </library_geometries>
  <library_visual_scenes>
    <visual_scene id="scene">
      <node id="right_shoulder_roll_link">
        <instance_geometry url="#geometry">
          <bind_material>
            <technique_common>
              <instance_material symbol="scout_1a1a1a" target="#scout_1a1a1a" />
            </technique_common>
          </bind_material>
        </instance_geometry>
      </node>
    </visual_scene>
  </library_visual_scenes>
  <scene>
    <instance_visual_scene url="#scene" />
  </scene>
</COLLADA>