<?xml version='1.0' encoding='utf-8'?>
<COLLADA xmlns="http://www.collada.org/2005/11/COLLADASchema" version="1.4.1">
  <asset>
    <created>2026-09-14T00:00:00Z</created>
    <modified>2026-09-14T00:00:00Z</modified>
    <unit name="metre" meter="1" />
    <up_axis>Z_UP</up_axis>
  </asset>
  <library_effects>
    <effect id="scout_1a1a1a_effect">
      <profile_COMMON>
        <technique sid="common">
          <lambert>
            <emission>
              <color>0 0 0 1</color>
            </emission>
            <ambient>
              <color>0.05 0.05 0.05 1</color>
            </ambient>
            <diffuse>
              <color>0.1 0.1 0.1 1</color>
            </diffuse>
          </lambert>
        </technique>
      </profile_COMMON>
    </effect>
  </library_effects>
  <library_materials>
    <material id="scout_1a1a1a" name="scout_1a1a1a">
      <instance_effect url="#scout_1a1a1a_effect" />
    </material>
  </library_materials>
  <library_geometries>
    <geometry id="geometry" name="right_ankle_link">
      <mesh>
        <source id="positions">
          <float_array id="positions_array" count="621">-0.0377642699 -0.0148455314 -0.0643247068 -0.0988690481 -0.0139541142 -0.0685460567 -0.0469306447 -0.0135650728 -0.0685526207 -0.059684135 -0.0124257142 -0.0698852763 -0.07407213 -0.0147316577 -0.0465391986 -0.0893592238 -0.0136638563 -0.0543996654 -0.0988807678 -0.0144342175 -0.0601812229 -0.0792939141 -0.013540796 -0.0484970361 -0.0677019805 -0.0104628392 -0.0419346392 -0.0527447127 -0.0095512988 -0.0332466178 -0.043815691 0.00892815739 -0.027756352 -0.0356396548 -0.0104498584 -0.0239196457 -0.0356175601 -0.0122916186 -0.0655269325 0.00743430108 0.00970395561 0.00815731939 0.00189870514 -0.00978577137 0.0107840355 0.00842002407 -0.00991051085 0.00655508041 -0.0425191969 -0.00952301547 -0.0273328591 -0.0248599146 -0.0134890499 -0.0615138151 0.00689503038 -0.0101426709 0.00320651941 0.00423947535 -4.8332673e-05 -0.0041133184 0.00315512205 -0.0100398483 -0.00685971929 0.00332451542 -0.0149362106 -0.051834859 -0.011454531 -0.0136479922 -0.0580025949 -0.0272108521 -0.00920153502 -0.0183031429 -0.0227457844 -0.0107557736 -0.0171217471 -0.0157933738 -0.00953490473 -0.00818562973 -0.00101281831 -0.0136261433 -0.0560613275 -0.00578276394 -0.0108625796 -0.00465291459 -0.00895783305 -0.00934721995 0.00606476935 -0.00707892794 -0.0101222331 0.00308487075 -0.000626791909 0.0001993232 -0.006025312 -0.00521406345 -0.000848049705 -0.00301147159 0.00679719029 -0.0106206154 -0.00833130348 -0.0054902425 -0.00998049323 0.00910157338 -0.00543212565 -0.00104981533 0.00293989666 -0.00200982648 -0.00988953747 0.00733312173 0.00117446925 0.000127813386 0.00583937485 -0.0939911082 0.0134247998 -0.0568348877 -0.0856512114 0.0147148203 -0.0534983426 -0.0990415215 0.0143574551 -0.0606488287 -0.0811249241 0.0133941928 -0.0495412536 -0.0742209032 0.0146870473 -0.0464791581 0.010909955 -0.00975378044 -0.00137680268 0.00162693195 -0.0105479779 -0.0192083102 0.00175393128 -0.00872939825 -0.0228896476 -0.0679517239 0.0104027502 -0.0419366062 -0.00669304421 0.00314615853 -0.000428891944 -0.049091924 0.0146765001 -0.067703791 -0.0325488187 0.0137225073 -0.0640346929 -0.0463865474 0.0128385173 -0.068745397 -0.0217904672 0.014733077 -0.0587738417 -0.0387250483 0.0107304854 -0.0264078211 -0.0538932085 0.0102498997 -0.0343197547 0.0813198835 0.0142980888 -0.0459801219 -0.0326765142 0.00805429649 -0.0212118383 0.200076014 0.0265027545 -0.0560496449 0.19979693 -0.0295418985 -0.0557910129 0.19872123 0.015127535 -0.0591026545 -0.0251915567 0.0106757404 -0.0187867191 -0.0138287544 0.0122799054 -0.0587140396 0.0864380375 -0.0142024877 -0.0458640903 -0.00150112412 0.00981288124 0.0107676759 -0.0219948087 0.00813731924 -0.0145956632 -0.0158534013 0.0104611041 -0.00847992301 0.00864868145 0.0121226413 -0.0552050546 0.00925377384 0.0146646295 -0.0533053353 -0.0113742361 0.0100556789 0.000412095134 -0.00801417604 0.0103946384 0.000347805035 -0.00198886963 0.00998292118 -0.00722798472 0.00692891842 0.0105195055 -0.00920660235 -0.00836241711 0.00990940165 0.00651432248 0.181346223 -0.0392915532 -0.0450463891 0.174870491 0.040078003 -0.0417032279 0.175025001 -0.0399937741 -0.0417493396 -0.000382748549 0.0100399386 0.00771914702 0.0257952157 -0.0129233822 -0.0545341559 0.00994800311 -0.00894439034 -0.0353095941 0.00278687035 -0.00943461154 -0.0295531303 0.00430970918 -0.0106968731 -0.0335838199 0.0147678768 -0.0103260372 -0.0361440405 0.0645258874 -0.0106750624 -0.0368694812 0.074743636 -0.0110533144 -0.0425166711 0.0450774767 -0.0146511653 -0.0552369431 0.0229848642 0.00176221807 -0.0305160172 0.0233504325 -0.00342899119 -0.0291672871 0.0219347049 -0.0100022089 -0.0324119627 0.0330455638 -0.0108838407 -0.0264647063 0.024685666 -0.0102530075 -0.026100792 0.0235374924 -0.00356521341 -0.0149616487 0.0243051872 -0.00974251982 -0.0194820613 0.0302456822 -0.00470481254 -0.0212290492 0.0288393795 -0.00548355421 -0.0188224241 0.0356782153 -0.0035613561 -0.0195322353 0.0319899805 -0.00478431536 -0.0153356148 0.0251117479 -0.00890644826 -0.013096014 0.0269171838 -0.0102432333 -0.0127451979 0.032128118 -0.00835032761 -0.0092795426 0.0370318741 -0.0100613805 -0.0119214365 0.0560964867 -0.0135655794 -0.0589310043 0.0356167071 -0.00548390439 -0.0198739637 0.0392925106 -0.0108728362 -0.0199510492 0.0378954448 -0.00982639845 -0.013999314 0.0474287607 -0.00977074821 -0.0233502928 0.0473166406 -0.0041958997 -0.0222989954 0.0390681699 -0.00399642624 -0.0133032221 0.0539289899 -0.00361936563 -0.0281152427 0.0580972172 0.000717173563 -0.0316276662 0.0321887173 -0.0035605405 -0.00951369479 0.0691155121 -0.00824259035 -0.0375776142 0.0633492395 0.00927141029 -0.0345869511 0.0570556819 -0.0105720349 -0.0316869095 0.0756412521 0.0134060243 -0.0653236657 0.0861320272 -0.0127551975 -0.0687243715 0.0674048662 -0.0123086805 -0.0625390559 0.074661091 -0.0146835055 -0.063502863 0.0616592169 0.013426587 -0.0606135577 0.0895616859 -0.00849577785 -0.0442239381 0.0741554797 0.00922378898 -0.0397420861 0.0888309106 -0.0147208488 -0.0677165911 0.0381120145 0.00351922447 -0.0126272086 0.0283258352 0.00363961421 -0.0180553235 0.0336471461 0.00444038771 -0.0163241997 0.0914623737 0.00967446156 -0.04443359 0.0525562763 0.0037813182 -0.0271728337 0.0237585939 0.00363258319 -0.0277547501 0.125733137 -0.0137094315 -0.0454534739 0.126287162 0.0135599971 -0.0452365279 0.129634336 -0.0179485399 -0.0412667356 0.126671568 -0.0149245262 -0.0479301997 0.136488602 -0.0225148518 -0.0411473326 0.130443588 -0.0193194356 -0.0442752466 0.144720972 -0.0276151318 -0.0413392 0.155649364 -0.0336218961 -0.0412336662 0.163060918 0.0375510529 -0.0410788581 0.139609352 -0.0251264609 -0.0439942926 0.14910984 -0.0305774547 -0.0444108061 0.00451622903 0.00073461805 0.00375051983 0.00690822164 0.00998704322 -0.00318527664 0.0060259155 9.27075307e-05 -0.000648573565 0.130054072 0.0186391156 -0.0411396064 0.160718173 -0.0374134295 -0.0444497541 0.173472717 -0.0179573428 -0.0451163724 0.16325286 -0.0374521837 -0.0410590172 0.17494905 -0.0401224047 -0.0450779833 0.189974457 -0.0371634029 -0.0498228855 0.182566002 -0.0388484411 -0.0494647734 0.189423129 -0.0369878374 -0.0534862578 0.183603585 -0.0165584013 -0.0510305427 0.17707178 -0.0151516134 -0.0489392616 0.193009183 -0.0154582346 -0.0571572743 0.0104517378 0.0103564626 -0.0359790884 0.197204798 -0.0319794565 -0.0578182824 0.0869551823 0.0142055256 -0.0683938786 0.0997119695 0.0123926187 -0.0698868707 0.20011273 -0.0119436039 -0.0627457052 0.198639259 -0.0151245324 -0.0591004342 0.197868809 -0.0141616482 -0.0686470717 0.127127022 0.0149436062 -0.0473116674 0.000990716973 0.0105697624 -0.0203423817 0.00490301615 0.00955893751 -0.0325783975 0.0182381757 0.0106943138 -0.0361064896 0.0722165629 0.0110010607 -0.0422856174 0.00165518804 0.00786383078 -0.0232948605 0.0107740471 0.00982475933 -0.000959579775 0.0202375427 0.0090993531 -0.0328958333 0.0252693668 0.010819233 -0.0275556501 0.023751758 0.0100320717 -0.0181530416 0.0249818396 0.0100746937 -0.0215103198 0.0244637858 0.0037266959 -0.0132407676 0.0286945105 0.00605379697 -0.0164634231 0.0297857858 0.00564568816 -0.0216282755 0.034695264 0.0106662828 -0.025209669 0.0341413617 0.00402809354 -0.0205130856 0.0257617105 0.0102115162 -0.0134836845 0.0317911915 0.00835976098 -0.00934925955 0.0319177546 0.00375804049 -0.00944681 0.0346274115 0.00767605798 -0.0128206741 0.0430952422 0.0147048514 -0.0550405197 0.0365974456 0.0122783538 -0.0557930507 0.0514719933 0.0134077854 -0.0580621772 0.0394072495 0.010456075 -0.0183207262 0.037818931 0.0100127906 -0.0126486951 0.0480564721 0.0106822504 -0.0246496964 0.0447934642 0.00380045967 -0.0197401103 0.0555125102 0.00954266824 -0.0297427028 0.0688515455 0.0147769516 -0.0613357946 0.129558191 0.0187802128 -0.0441345721 0.137741134 0.0240902361 -0.0420518704 0.136727363 0.0228679124 -0.044432614 0.146110073 0.0289463997 -0.042113848 0.148185402 0.0295298826 -0.0446213223 0.15563871 0.0343881063 -0.041934818 0.161434934 0.0376323164 -0.0444585569 0.174792632 0.0398153216 -0.045061443 0.175157771 0.0162058175 -0.0459871665 0.184784561 0.017567547 -0.0512827598 0.183187857 0.0150925359 -0.0529945865 0.192728862 0.0161465146 -0.0566039123 0.189005762 0.0374454483 -0.0492809117 0.197193339 0.0321884528 -0.0577788539 0.186930835 0.0381258577 -0.0520864613 0.180419609 0.039261505 -0.0444335528 0.197826982 0.0143838795 -0.0684321225 0.200251549 0.0118628414 -0.0643101707 0.196234167 0.0331022777 -0.0533344857 0.00511631696 0.0100833802 0.00489419047 -0.0987699702 0.0138472365 -0.0687997267</float_array>
          <technique_common>
            <accessor source="#positions_array" count="207" stride="3">
              <param name="X" type="float" />
              <param name="Y" type="float" />
              <param name="Z" type="float" />
            </accessor>
          </technique_common>
        </source>
        <source id="normals">
          <float_array id="normals_array" count="1449">-0.00235562981 -0.999287665 -0.0376651064 -0.00980283227 -0.997584999 -0.0687610283 0.00709753018 -0.952673376 -0.303912848 0.00541150197 -0.733899236 -0.679236829 -0.317431092 -0.454808384 0.832097828 -0.484815806 -0.247363955 0.838906825 -0.528432488 -0.0350438207 0.84825176 -0.466798604 -0.320023268 0.824429572 -0.330091983 -0.343162686 0.879362643 -0.490905464 -0.14021939 0.859854817 -0.471042365 0.293917686 0.831703961 -0.491741449 -0.0922318697 0.8658427 0.270223677 -0.586550534 -0.763503492 0.24454242 -0.573575675 -0.781799197 0.256290257 -0.581521749 -0.772106051 0.344449162 0.0286353137 0.938368142 0.17309241 -0.0282035638 0.984501719 0.543075085 -0.0412160866 0.838671982 -0.477079362 -0.242057651 0.844868839 0.226970062 -0.61492604 -0.755215585 -0.926672876 0.0280170254 0.374823123 -0.900666356 0.109623082 0.420455605 -0.937357485 0.00598577736 0.348317504 0.053154029 -0.93423754 -0.352668166 0.100609004 -0.897869825 -0.428611189 -0.525335968 -0.325952709 0.785987914 -0.195243701 -0.956441581 0.217024073 -0.227133036 -0.936714649 0.266413659 0.062997587 -0.933159471 -0.35389933 -0.0836596042 -0.995256305 0.0496582277 -0.238034949 -0.967574596 0.0844908431 -0.266657054 -0.962842166 0.0427663587 0.473581702 0.0434257053 0.879678667 0.650037944 -0.0430674814 0.758680344 0.344417572 -0.0709539652 0.936131418 0.254722446 -0.361927748 0.896730065 0.249972403 -0.51306361 0.821145236 -0.0348377898 -0.998987854 0.028453324 0.528795123 -0.0609807298 -0.846556008 0.559815407 -0.184716746 -0.807766318 0.640464962 -0.128355205 -0.75718534 0.0185815748 -0.999711752 0.0152033791 0.00331567833 -0.999361157 0.0355840549 0.398385346 0.0226489492 -0.916938484 -0.361841828 0.67429173 0.643739998 -0.365692317 0.672815502 0.643108368 -0.361915559 0.673949957 0.64405632 -0.475907236 0.322468162 0.818246007 -0.433278948 0.305736721 0.847817421 0.680521786 -0.656693697 -0.325028569 0.662207723 -0.680148721 -0.314449877 0.66114229 -0.681467235 -0.313836515 -0.497274697 0.0216173828 0.867323816 0.996322453 0.0381594375 0.076716356 0.969329476 0.235872746 -0.0690247566 0.999527514 0.0284394082 0.0116600078 0.0336529911 0.864885271 -0.500840247 0.165535331 0.84459275 -0.50917697 0.175012395 0.336600691 -0.925240874 0.115119755 0.936306715 -0.331778795 -0.394547731 0.548066735 0.737532973 -0.36752066 0.623679876 0.689892709 0.000647790264 0.985722005 0.168379635 -0.000399836834 0.727514148 0.686092556 0.0471745916 0.749015629 0.66087079 -0.488733888 0.252874523 0.834981203 0.704498589 0.104496099 -0.701970279 0.710489273 -0.102484711 -0.696205318 0.908269644 0.00456814701 -0.418360323 -0.479455143 0.52768749 0.701190889 0.305955231 0.00438684504 -0.952035785 0.295724452 0.000688528351 -0.955273032 0.31202364 0.00372713269 -0.950067043 0.190864682 0.237381592 -0.952481329 0.0901605561 -0.378806502 0.921073675 -0.153563619 0.0227263849 0.987877369 -0.472068161 0.0209553987 0.881312966 -0.664273381 0.125745296 0.736837149 -0.810083926 0.0218219925 0.585907757 0.0773268268 0.301912695 -0.950194359 0.0489008762 0.58453387 -0.809894323 -0.999982774 -0.00561134145 -0.00172311068 -0.999620676 0.00157999014 -0.0274947453 -0.999965847 -0.0040883678 -0.00718231034 -0.802301466 0.0213307012 0.596537828 -0.0983512029 0.991373718 0.0866327509 -0.0525475256 0.9971264 0.0545686781 -0.00534304278 0.99980849 0.0188262966 0.732843816 0.0764651373 0.676086605 0.81914407 0.00675887335 0.573548019 0.782378137 0.0763670132 0.618103981 0.0867093951 -0.988649547 0.122693099 -0.420495242 -0.0016257118 -0.90729326 -0.494783908 0.0313614458 -0.868449986 -0.446252853 -0.0192004908 -0.894700885 -0.739549696 0.00438529206 0.673087716 -0.779814541 0.0354938991 0.625003576 -0.895312846 0.00649127923 0.445390522 0.477482498 0.00496792747 0.878627241 0.258489341 -0.000719307922 0.966013849 0.274951965 -2.32220973e-05 0.961457968 -0.0418077819 0.996373236 0.0741111636 0.973412991 0.190970242 -0.126481071 0.00858523324 0.996812224 0.0793199986 0.694580913 -0.00622799527 -0.71938765 0.586659789 0.0801745951 -0.805855036 -7.60826806e-05 0.997239888 0.0742472038 0.0438307747 -0.940644979 -0.336549908 0.382077068 -0.830875933 0.404552013 0.322890878 0.114155233 0.939526498 0.225311622 0.211629748 0.951024473 -0.203456447 -0.0172386896 0.978932202 0.900470674 0.278524488 0.334030986 0.94677335 0.291063577 0.137485221 0.835923672 0.527798176 0.15053457 0.99587214 0.0902043059 -0.0100935129 -0.381442606 -0.067724593 0.921908319 -0.367376357 -0.0476126745 0.928852856 -0.366800755 -0.209347785 0.90643847 0.0428896397 -0.99897337 0.0145818926 -0.0322016627 -0.994719982 0.0974435136 -0.0863893554 -0.981060207 0.173371717 0.0666199178 -0.997623503 0.0175837819 -0.00631628465 -0.998858929 0.047338143 -0.00251749018 -0.998890042 0.0470357016 -0.00570822461 -0.998170376 0.0601936728 -0.0707607046 -0.422074765 -0.903795242 -0.072213389 -0.44228667 -0.893961847 -0.0999760777 -0.822381139 -0.560083985 -0.739866138 -0.0233259648 0.672349572 -0.643208325 0.0263141487 0.765238941 -0.458361536 -0.0683368891 0.886134744 -0.463077337 0.102659717 0.880352378 -0.983632147 -0.106267259 0.145516589 -0.975803971 -0.104668528 0.191966519 -0.916696429 0.000193637519 0.399584293 -0.979510963 -0.189100966 0.0692759082 -0.99201566 -0.126057953 0.00379068707 -0.0739091411 -0.996811092 0.0300849713 -0.0755337998 -0.997120738 -0.00670039235 -0.0736284703 -0.996627986 0.0362152457 0.504610658 -0.863206983 0.0155486576 0.572683036 -0.811341047 -0.117302611 0.684785247 -0.695177376 -0.218626589 -0.071904555 -0.994766474 0.0725906268 0.54506588 -0.384358197 0.74509865 0.109506607 -0.950717509 0.290076703 0.522452593 -0.79313314 -0.313022465 0.136915848 0.984071612 -0.11338941 0.136195973 0.982728422 -0.125281766 0.141458556 0.989533305 -0.028519135 -0.961227655 -0.230368733 0.151563808 -0.607667565 -0.773969114 0.178078532 0.636257589 -0.692112863 -0.340816796 -0.477630407 -0.00314615341 0.878555238 -0.501363456 -0.0205496009 0.864992738 -0.424789339 -0.355180234 0.832707047 0.0795980841 -0.486761123 -0.869901001 -0.601480722 0.00961554609 0.798829436 -0.548363388 0.00204615179 0.836237669 -0.238719136 -0.273718983 -0.931714058 -0.404896826 -0.433989644 0.804805279 -0.276524186 -0.598290026 0.752052784 -0.481989384 -0.576162398 0.660093307 -0.263298571 -0.160656497 0.951243043 -0.763498366 0.136619613 -0.631193519 -0.644660532 -0.448579907 0.619022548 -0.688397646 -0.684773028 -0.239153981 -0.823033869 -0.560037673 -0.0947264954 -0.398400933 -0.895736158 -0.197315574 0.276613384 -0.879672945 0.386859804 0.137196928 -0.981340826 0.13471134 0.694538891 -0.113340698 0.710471451 0.647035539 -0.0464288443 0.761044919 0.684702635 -0.119634144 0.718936682 -0.0223650839 0.642138779 0.766262054 -0.0127359778 0.587064564 0.809439898 0.032528013 0.294217527 0.955184758 0.438355625 -0.794864058 0.419565797 -0.0259850696 -0.860374808 0.50899899 -0.567256451 -0.7528584 -0.333802879 -0.497649729 -0.814248383 -0.298905283 -0.146776974 0.988837183 -0.0256437827 -0.0318110995 0.999459863 -0.00824489724 -0.474888861 0.864348471 -0.165476084 0.598410189 -0.0184558779 0.80097729 0.167268023 0.966949105 0.192434072 0.0207736567 0.999533832 0.0223728418 0.413054556 -0.296474189 0.861097515 0.489566386 -0.00338103622 0.871959507 0.548235118 0.020093454 0.836082876 0.00969348475 -0.999748886 0.0202040765 0.524998665 -0.227948621 0.820009649 0.602936804 -0.0606022887 0.795483828 -0.296447814 0.00699803419 -0.955023408 -0.180994421 -0.321744978 -0.929365993 -0.282007724 -0.197711736 -0.938819349 -0.270852178 -0.520485938 -0.809773743 -0.247154549 0.334831744 -0.909286737 0.427887321 -0.614353418 0.662934661 0.119559981 -0.700649798 0.703416884 0.115616314 -0.168325752 0.978927612 0.346163332 -3.19869359e-05 0.938174248 -0.059891168 -0.519299805 -0.852490902 0.296977252 -0.778683543 -0.552681148 0.0750105381 0.185413495 0.979793489 -0.00758079765 -0.899145246 0.437584758 0.00422009639 -0.944983244 0.327091485 -0.00706247846 -0.827108324 0.561998188 0.0288700853 -0.0352890119 0.998960078 0.0261962209 0.0221383646 0.999411643 -0.681925535 -0.718814731 0.13521418 -0.753184676 -0.656777084 0.0368327312 -0.762468457 -0.645378709 0.0461322181 -0.528761208 -0.827311635 0.189649731 -0.661791921 -0.734483957 0.150215507 0.00143120985 -0.00439770054 0.999989331 -0.0181067586 -0.000289196207 0.999836028 0.0321795493 -0.000357139594 0.999482036 -0.512600482 -0.837731659 0.188272148 -0.490482569 -0.858984649 0.146874845 -0.428966045 -0.704444587 -0.565460861 -0.956047177 -0.0584939085 -0.287319124 -0.96616441 0.062123701 -0.250333637 -0.946152091 -0.0855148286 -0.312223405 -0.739906847 0.0061510005 0.672681272 -0.738894165 0.00639842451 0.673791111 -0.729284823 0.00872498844 0.68415457 -0.726867259 0.00930441823 0.686714947 -0.483370543 -0.846907556 0.221586421 -0.481661737 -0.862004876 0.157954156 -0.372731954 -0.896660984 0.238893211 0.00508739473 -0.636819839 -0.770995855 0.00302098948 -0.654692054 -0.755889654 -0.199659705 -0.400635242 -0.894218862 0.209044576 -0.0151007343 -0.977789521 0.135064915 -0.0177343246 -0.990678012 -0.277022481 -0.940590858 0.196334824 -0.0588166937 -0.997083485 0.0486326963 -0.00572700519 -0.999690235 0.0242208634 0.483902335 0.0366717502 0.87435329 0.483852029 0.0366237611 0.874383152 0.3436535 -0.936494946 -0.0698536187 0.197312355 -0.979066551 -0.0499649048 0.390245199 -0.914978683 -0.102580376 0.152176306 -0.987476408 -0.0416260473 -0.496818662 -0.0363083445 -0.867094517 -0.291235745 -0.0210542083 -0.956419587 -0.461590528 -0.366343528 -0.807914972 -0.273938268 -0.641031682 -0.716963172 -0.354245871 -0.660135627 -0.662367582 0.146502465 -0.0228803158 0.988945663 0.626094222 -0.777259767 0.0622359179 0.644065619 -0.759670258 0.0898918286 -0.189569548 0.0178219173 -0.981705546 -0.0407277569 -0.0188585036 -0.998992324 0.92496407 -0.293571055 -0.241365969 0.840498507 -0.528107703 -0.121097237 0.934689641 -0.179619476 -0.306744426 0.0484617017 -0.997713804 0.047102619 -0.93677789 -0.19017756 -0.293734133 -0.534332812 0.0354481488 -0.844530582 0.0044486979 0.831176043 0.55599153 -0.00202946062 0.99046433 0.137754589 0.232176006 -0.960472405 0.153580666 -0.39785102 0.0376021191 0.916679144 -0.00297668297 0.99946636 0.0325297154 -0.0346898362 0.96095109 -0.274535209 -0.00514137931 0.999910593 0.0123429131 0.764676154 -0.0140237752 0.644262195 0.944401562 -0.107229546 0.31081754 0.998604059 0.0275943149 0.0450390317 -0.0403907225 0.995312214 0.0878759697 -0.00225620577 0.998030901 0.0626832023 -0.0326483697 0.9955917 0.0879273266 -0.875467956 0.191794768 0.443588287 -0.882692158 0.136983216 0.4495444 0.714593649 0.588358641 -0.378404558 0.919434726 0.0742669851 -0.386165977 0.0390038453 0.998783171 0.0301816165 -0.0309733916 0.887332439 0.460088909 -0.665385544 0.120437436 0.736720383 -0.743730843 0.162813857 0.648348749 -0.741437495 0.289324969 0.605443239 -0.852790236 -0.0615507178 0.518613875 -0.839429259 0.451953262 -0.301822424 -0.895896733 0.384998858 -0.221686453 -0.957311213 0.273228765 -0.0943466797 -0.984075129 0.0258789919 0.175858915 -0.996030152 -0.0743976608 0.0488766171 -0.826393664 0.0644732714 0.559389591 -0.978273749 0.206238002 -0.0211284421 0.00660119951 -0.999973297 -0.00313327834 -0.015154385 -0.999793291 0.0135537591 0.614298105 0.772018254 0.163173825 0.625373363 0.780286968 0.00777146826 0.431152344 0.734436393 -0.524128675 0.676501632 0.731503546 0.0851362571 0.932326615 -0.287236542 0.219686821 0.175235286 0.452406645 0.874426007 0.319601983 0.322933197 0.890824735 0.183212921 0.59765625 0.780538321 -0.0217420012 -0.999709249 0.0104275858 0.17058368 0.827790678 0.534475267 0.0702098086 0.687406242 0.722871542 -0.0141501967 0.992483139 0.121560417 -0.00554984063 0.996911228 0.078340508 0.000254817598 0.999479413 0.0322621353 -0.752471864 0.174396411 0.635115743 0.509026408 0.708925426 -0.488177031 -0.487831175 0.0390438735 0.872064412 -0.0163097158 -0.999559283 0.0248039216 -0.0170640461 -0.998981178 0.0417788513 0.242439985 0.675978482 -0.695899367 -0.150246337 0.627837598 -0.763705432 -0.060508348 0.449494213 -0.891231596 -0.209094673 0.312363356 -0.926665306 0.931293368 -0.00115152018 0.364268214 0.957380593 0.0103672501 0.288643301 0.927872479 -0.00248761079 0.37288931 -0.0784595683 -0.996608675 -0.0248048734 -0.253085971 -0.965247929 0.0651455373 -0.739757955 0.629079103 -0.238783702 -0.695527792 0.687963009 -0.207238838 -0.738595665 0.656837821 -0.151791036 -0.739495873 0.42882818 0.518895149 0.0381530449 0.253794879 0.966505289 0.038852945 0.995303452 0.0886648893 -3.45524422e-05 0.999781787 0.0208902806 0.0229937546 0.997483313 0.0670697093 0.229399666 0.640975177 -0.732479811 0.0687365159 -0.0204720311 -0.997424781 -0.0146228522 0.904415727 0.426401675 -0.688370287 0.679060042 -0.254997551 -0.584215701 0.805332363 -0.100656815 0.621579528 0.0397421718 0.782342315 0.604467094 0.0299157482 0.796068192 0.716773868 0.10575407 0.689239621 0.569397271 0.175332084 0.803147197 0.389075875 0.695264101 0.604340732 0.0999956727 0.790105641 0.604759395 0.624730408 0.232449815 0.745438755 0.645329893 -0.0224796943 0.76357317 -0.205629796 0.751552701 -0.626805365 -0.223121613 0.740161717 -0.63433224 0.158101827 0.861930251 0.481746882 -0.224853203 0.737800062 -0.63646847 -0.751143038 0.650514543 0.112316199 -0.848270178 0.529474497 0.00971909706 -0.851134539 0.522382617 0.0518311001 -0.68569845 0.712863684 0.147115394 -0.500075638 0.844706357 -0.190776125 -0.49020654 0.842565536 -0.22311613 -0.356314361 0.619677365 0.699313939 -0.356142133 0.619324207 0.699714422 -0.336853415 0.574405372 0.746048391 -0.490463018 0.845764101 -0.210069299 -0.489448249 0.849907219 -0.195187435 -0.3645477 0.636389673 0.679789066 0.0271390192 -0.000162147262 0.999631643 -0.50227952 0.86252892 -0.0613119826 -0.315266639 0.526063383 0.789850771 -0.343797117 0.930082262 0.129424036 -0.101761073 -0.00902929157 -0.994767904 -0.0423249379 -0.00473678624 -0.999092698 -0.274827659 0.948911786 0.155036017 -0.0556530617 0.996725261 -0.0586646013 -0.0101057244 0.997206569 -0.0740063712 -0.423485249 0.68401289 -0.593958437 -0.371039361 0.678140879 -0.634393156 -0.196911842 0.915702879 -0.350305498 -0.136047184 0.959896326 -0.245133072 0.361458272 0.931716144 -0.0353975296 0.76764667 0.64015162 0.0304052811 0.320814759 0.946584821 -0.0324817672 0.120254889 0.991526544 -0.0491308942 -0.00336073944 0.994993329 -0.0998850167 0.129883721 0.987330616 -0.0911505744 0.808317304 0.575676858 -0.123366542 0.67019707 0.116888151 -0.732920885 0.620154619 0.784002185 -0.0273635332 0.87655592 0.472417027 0.092042461 -0.476956695 0.106011882 -0.872510076 -0.455425203 0.0962959751 -0.885050833 0.0630462915 0.995493412 0.0708382279 0.0636241585 0.996251643 0.0586054064 -0.498885036 0.0822945088 0.862752199 -0.527891219 0.137171552 0.838161588 -0.00633058604 -0.999969304 -0.00461842399 -0.00969895627 -0.998989165 -0.0438927896 0.00223327521 -0.997526467 0.0702565685 0.469914973 0.00849903934 0.88267076 0.48127073 -0.00534464 0.876555741 -0.45328036 -0.0313505568 0.89081651 0.0066307704 -0.997664154 -0.0679874644 0.0102293193 -0.999945045 -0.00230091927 -0.00296963379 -0.999962807 0.00809836108 -0.0059399996 -0.99998188 0.00100474339 0.0151693886 -0.999788523 -0.0138871204 -0.0152684171 0.9978984 -0.0629738569 -0.013827024 0.998512506 -0.0527409241 0.180418551 -0.0108987689 -0.983529568 -0.00362513214 -0.999972761 -0.00643226411 -0.00868601073 -0.999802351 0.0178823657 -0.0013586987 -0.992142439 0.125105992 -0.0199229382 0.0235155411 -0.999524951 0.0314083882 0.0146566033 -0.999399185 -0.0338051282 -0.00899831951 -0.99938792 0.704917729 -0.622905791 -0.339233577 -0.366039544 0.626442432 0.688175023 0.928783953 -0.0104619348 -0.370473862 -0.00407946948 0.999969304 0.0066882018 0.00253638066 0.999996781 -0.00014650941 0.004297134 0.99998194 0.00419977633 -0.00131622306 0.999042869 -0.0437214337 -0.00140831352 0.999952853 0.00960639492 0.0146718062 0.00755053386 -0.999863863 0.0121143311 -0.00699227536 -0.999902189 -0.999433398 0.00325645297 -0.0335004553 0.463329673 -0.00100660755 0.886185408 0.985402405 -0.116618633 0.124025121 0.981432557 -0.0839967206 0.172437489 0.130593836 0.969326138 -0.208211526 -0.00614026003 -0.976645708 0.214768425 0.00348523702 -0.999041855 -0.0436265431 0.00440820679 0.999957502 0.00809710752 0.0032759388 0.999949098 0.00954569504 0.00983694848 -0.994099975 -0.108020566 0.00681232288 -0.996311843 -0.0855355933 0.0236662254 -0.994480848 -0.102214344 -0.00295459945 -0.999979913 -0.00560887111 0.00145653228 -0.99856019 -0.0536233187 -0.00156140036 0.999597847 0.0283154231 -0.00119883241 0.999845564 -0.017534025 -0.00188445568 0.99994415 -0.0104014343 0.00776771456 0.998685896 -0.0506566316 -0.000395984476 0.999947548 -0.0102371378 -0.00688281422 -0.827874124 0.560871661 0.9430601 0.00549520832 0.332576931 0.953700602 0.0234349594 0.299843252 0.949668348 0.0163513031 0.31283012 0.938983202 -0.000811593549 0.343962073 0.00424035732 -0.00588617008 0.999973714 -0.00301582855 -0.000659245125 0.999995232 -0.0195817668 -0.00324932043 0.999803007 -0.972186327 0.0889105648 -0.216676474 -0.0287792366 -0.0153782032 -0.999467492 -0.0182966553 -0.0205654837 -0.999621093 -0.0189280678 -0.0193469916 -0.99963367 -0.432240576 -0.0531935692 -0.900188029 -0.491061419 -0.0522227958 -0.869558215 -0.323580652 -0.0443593524 -0.94516021 -0.427173734 -0.0724230334 -0.901264429 0.675827026 -0.112922274 -0.728358746 0.863283336 0.00506472401 -0.504694164 0.873361468 0.00120529055 -0.487071097 0.921252728 0.0179795623 -0.388548732 0.00662846956 -0.896760821 0.442465872 -0.413554281 0.025813492 0.910113454 0.961440325 0.0124481982 0.274731696 0.192640439 0.519506931 -0.832467556 -0.0192699265 -0.999400556 -0.0287618488 -0.0208753105 0.983415902 -0.180159375 -0.269330919 0.031379655 -0.962536335 -0.040679194 -0.0015073691 -0.999171138 -0.0394027531 0.00586367352 -0.999206185 -0.0309463944 0.0397336893 -0.998730958 -0.281739414 0.0332415476 -0.958914936 -0.0346489809 0.0490220301 -0.998196542 -0.00128167809 0.630319774 -0.776334584 0.505128741 0.00203712331 0.863041639 0.510587931 -0.000534998078 0.859825373 0.465312809 0.0898507312 0.880574167 0.492952347 0.00843326095 0.870015442 0.906716228 0.0152756134 -0.421464562 0.578162253 0.000886185037 0.815921307 0.00456227735 0.636079907 -0.771609664 -0.516907215 0.0205091387 -0.855795741 -0.4929896 0.0346220993 -0.869346023 -0.456507504 0.0380800702 -0.888904274 -0.379109263 0.0377884097 -0.924580038 -0.442736953 0.0576761588 -0.894794643 -0.00711480808 0.999754012 -0.021007726</float_array>
          <technique_common>
            <accessor source="#normals_array" count="483" stride="3">
              <param name="X" type="float" />
              <param name="Y" type="float" />
              <param name="Z" type="float" />
            </accessor>
          </technique_common>
        </source>
        <vertices id="vertices">
          <input semantic="POSITION" source="#positions" />
        </vertices>
        <triangles material="scout_1a1a1a" count="422">
          <input semantic="VERTEX" source="#vertices" offset="0" />
          <input semantic="NORMAL" source="#normals" offset="1" />
          <p>0 0 1 1 2 2 1 3 3 3 2 3 4 4 5 5 6 6 7 7 5 5 4 4 8 8 7 7 4 4 8 8 9 9 10 10 9 9 8 8 11 11 2 12 12 13 0 14 13 15 14 16 15 17 16 18 9 9 11 11 12 13 17 19 0 14 18 20 19 21 20 22 21 23 0 14 17 19 22 24 21 23 17 19 23 25 11 11 24 26 25 27 23 25 24 26 26 28 21 23 22 24 27 29 25 27 24 26 28 30 25 27 27 29 29 31 28 30 27 29 30 32 31 33 27 34 20 35 27 34 32 36 33 37 28 30 29 31 34 38 35 39 29 40 35 41 33 37 29 31 14 42 33 37 35 41 34 38 36 43 35 39 37 44 38 45 39 46 40 47 38 45 37 44 40 47 41 48 38 45 42 49 43 50 44 51 41 48 40 47 45 52 31 53 46 54 34 55 47 56 48 57 49 58 50 59 48 57 47 56 10 10 51 60 52 61 41 62 45 63 53 64 51 60 10 10 54 65 55 66 56 67 57 68 54 65 58 69 51 60 48 70 17 71 12 72 50 59 59 73 48 57 60 74 8 8 4 4 14 16 61 75 33 76 62 77 58 69 54 65 63 78 58 69 62 77 50 59 64 79 59 73 65 80 64 79 50 59 6 81 39 82 1 83 25 84 62 77 23 25 49 58 48 70 12 72 66 85 67 86 63 87 68 88 46 89 31 33 68 88 67 90 46 89 68 88 31 33 30 32 68 91 69 91 67 91 35 92 36 93 18 94 20 35 30 32 27 34 70 95 28 96 61 75 70 95 66 97 25 84 71 98 72 99 73 100 70 101 67 86 66 85 67 102 34 55 46 54 70 101 74 103 67 86 67 104 74 105 34 38 70 101 61 106 74 103 21 23 26 28 75 107 76 108 77 108 78 108 76 109 78 110 79 111 77 112 43 113 78 114 77 112 44 115 43 113 19 116 30 117 20 118 42 119 20 120 32 121 42 119 18 122 20 120 80 123 79 124 81 125 21 126 75 127 82 128 25 84 63 78 62 77 83 129 79 111 84 130 85 131 79 111 86 132 84 130 79 111 85 131 87 133 84 134 85 135 88 136 87 133 89 137 88 136 84 134 87 133 87 138 85 139 86 140 90 141 91 142 89 143 89 144 87 138 86 140 86 145 90 145 89 145 88 146 90 146 92 146 90 141 93 147 91 142 88 148 93 149 90 150 94 151 88 136 89 137 95 152 94 152 89 152 91 142 95 153 89 143 96 154 94 155 95 156 93 147 95 153 91 142 95 157 93 157 97 157 39 158 6 6 37 159 75 127 98 160 82 128 99 161 90 162 86 163 92 164 90 162 99 161 93 165 92 165 99 165 100 166 99 161 86 163 99 167 100 168 101 169 102 170 101 169 100 171 103 172 104 173 102 174 105 175 106 176 84 177 104 178 103 178 105 178 96 179 95 179 97 179 101 169 93 180 99 167 93 180 101 169 97 181 107 182 92 183 93 184 104 173 97 185 102 174 104 186 105 187 107 182 102 170 97 181 101 169 108 188 109 189 106 190 102 170 100 171 110 191 110 192 103 172 102 174 105 193 103 172 110 192 108 188 105 193 110 192 106 190 105 193 108 188 111 194 112 195 113 196 113 196 112 195 114 197 98 160 113 196 114 197 82 128 98 160 114 197 113 196 115 198 111 194 108 188 110 192 80 199 108 188 80 199 81 200 116 201 108 188 81 200 117 202 108 188 116 201 112 195 118 203 114 197 119 204 120 204 121 204 60 74 116 201 81 200 122 205 117 202 116 201 123 206 124 207 83 208 116 201 125 209 126 210 127 211 125 212 128 213 129 214 127 211 130 215 131 216 132 217 133 218 129 214 130 215 134 219 131 220 129 214 134 219 130 221 135 221 134 221 136 222 137 223 138 224 127 211 128 213 130 215 139 225 126 226 127 227 127 227 126 226 125 228 132 229 135 230 140 231 131 220 134 219 135 230 132 229 131 220 135 230 130 232 128 233 141 234 22 235 64 79 26 236 142 237 132 229 140 231 73 238 142 237 140 231 73 238 140 231 143 239 97 185 107 240 96 241 144 242 145 243 146 244 71 245 73 238 143 239 71 245 143 239 145 243 144 242 71 245 145 243 141 234 145 246 143 247 28 96 70 95 25 84 147 248 148 249 149 250 148 249 147 248 141 234 150 251 76 109 79 111 144 242 146 244 151 252 56 253 144 242 151 252 152 254 153 255 112 195 154 256 155 257 156 258 14 42 35 41 18 122 15 259 14 42 18 122 136 222 138 224 18 260 36 93 136 261 18 94 53 64 126 262 157 263 15 259 18 122 42 119 158 264 159 264 150 264 19 116 68 265 30 117 150 266 160 267 161 268 159 269 158 270 162 271 68 272 137 273 69 274 137 275 19 21 138 276 158 277 69 278 162 271 137 273 163 279 69 274 164 280 160 280 150 280 164 281 165 282 160 283 124 284 164 281 83 129 166 285 167 286 124 287 166 288 124 289 168 290 165 282 164 281 124 284 167 286 165 291 124 287 120 292 168 293 124 207 167 294 166 295 169 296 167 294 169 296 170 297 170 298 169 298 120 298 171 299 167 300 170 301 172 302 120 292 124 207 170 301 120 303 172 304 167 305 171 306 165 307 173 308 166 288 168 290 173 309 169 296 166 295 173 308 168 290 174 310 119 311 168 293 120 292 175 312 168 293 119 311 173 309 176 313 169 296 65 80 177 314 178 315 178 315 177 314 179 316 154 317 57 318 155 319 171 299 170 301 172 304 119 320 121 321 172 302 121 322 180 323 172 324 180 325 171 325 172 325 106 176 83 326 84 177 181 327 182 328 180 329 176 313 121 330 169 296 173 331 181 331 176 331 181 332 173 332 174 332 176 333 180 323 121 322 181 334 180 323 176 333 181 335 119 336 183 337 179 316 113 196 98 160 179 316 177 314 115 198 184 338 109 339 161 340 184 338 182 341 183 337 182 341 184 338 161 340 109 189 184 338 123 342 109 189 123 342 106 190 177 314 185 343 115 198 115 198 185 343 111 344 109 339 117 345 161 340 185 343 152 346 111 344 117 345 122 205 161 340 53 64 161 340 122 205 77 112 159 269 162 271 34 38 74 105 36 43 186 347 157 348 126 349 139 350 186 347 126 349 186 347 187 351 188 352 139 350 187 351 186 347 187 353 139 354 133 355 187 351 189 356 188 352 189 356 190 357 188 352 189 358 187 353 133 355 72 99 142 359 73 100 189 356 191 360 190 357 191 361 189 358 133 355 191 360 192 362 190 357 178 363 98 160 75 364 191 360 133 365 192 362 133 365 72 366 192 362 192 362 72 366 193 367 183 337 123 342 184 338 194 368 195 369 196 370 195 369 197 371 196 370 198 372 199 373 200 374 201 375 200 374 193 367 201 375 198 372 200 374 197 371 202 376 196 370 197 371 57 377 202 376 202 378 57 378 203 378 55 66 57 68 199 379 199 373 204 380 55 381 199 373 198 372 204 380 205 382 136 261 36 93 74 383 205 382 36 93 74 103 13 384 205 385 61 106 13 384 74 103 94 155 107 386 88 387 205 385 163 279 137 273 13 384 163 279 205 385 0 0 4 388 6 389 0 0 21 390 4 388 175 391 181 335 174 392 54 65 10 10 16 18 10 10 9 9 16 18 18 20 138 276 19 21 175 393 174 310 168 290 117 202 109 189 108 188 54 65 11 11 23 25 24 26 78 394 43 395 8 396 78 394 11 397 11 397 78 394 24 26 27 29 24 26 43 395 43 395 32 398 27 29 37 159 6 6 5 5 8 396 81 125 79 124 206 399 39 400 47 56 12 72 2 401 49 58 25 84 66 97 63 78 118 402 148 403 128 404 206 405 49 58 3 406 1 407 206 405 3 406 159 269 77 112 76 109 42 49 32 408 43 50 64 79 178 363 75 364 8 396 79 124 78 394 45 409 10 10 52 61 6 389 1 1 0 0 28 96 33 76 61 75 155 410 57 68 56 67 60 74 81 200 8 8 23 25 62 77 54 65 69 411 158 412 67 86 67 86 158 412 63 87 63 87 158 412 58 413 158 412 150 266 51 414 51 414 150 266 52 415 51 414 58 413 158 412 153 255 202 416 156 417 156 417 112 195 153 255 59 73 22 235 17 71 206 418 1 83 39 82 71 98 201 419 72 99 128 233 148 249 141 234 29 420 27 421 31 53 72 366 201 375 193 367 93 149 88 148 107 422 128 404 60 423 21 390 60 423 4 388 21 390 86 424 79 124 110 191 79 124 80 123 110 191 110 191 100 171 86 424 105 187 84 425 92 183 92 183 107 182 105 187 84 425 88 426 92 183 118 402 156 427 149 428 156 427 155 429 149 428 149 428 148 403 118 402 118 402 128 404 114 430 114 430 128 404 82 431 128 404 21 390 82 431 48 70 59 73 17 71 161 268 45 432 150 266 150 266 45 432 52 415 45 52 40 47 7 7 7 7 40 47 37 159 37 159 5 5 7 7 8 8 45 52 7 7 8 8 10 10 45 52 178 315 64 79 65 80 79 111 164 281 150 251 41 62 53 64 157 263 65 433 157 263 177 434 157 263 196 370 152 435 177 434 157 263 185 436 152 435 196 370 202 376 185 436 157 263 152 435 83 208 106 437 123 206 118 203 112 195 156 417 13 438 15 439 42 440 42 440 163 441 13 438 126 210 122 205 116 201 131 216 133 218 129 442 133 218 132 217 142 359 133 218 139 443 129 442 139 443 127 444 129 442 136 222 205 445 137 223 22 235 59 73 64 79 140 446 141 234 143 247 140 446 135 447 141 234 130 448 141 234 135 447 97 185 104 173 107 240 54 65 16 18 11 11 141 234 147 248 145 246 147 248 149 449 146 450 145 246 147 248 146 450 149 449 155 451 151 452 149 449 151 452 146 450 56 67 151 453 155 410 202 454 203 455 156 258 13 15 61 75 14 16 42 456 162 271 69 278 79 111 83 129 164 281 112 195 111 194 152 254 44 115 77 112 162 271 76 109 150 251 159 269 125 457 60 423 128 404 19 116 137 458 68 265 42 456 44 115 162 271 34 55 29 420 31 53 154 317 203 459 57 318 206 405 47 56 49 58 121 330 120 460 169 296 124 207 123 206 172 302 123 206 183 461 172 302 183 461 119 320 172 302 175 391 119 336 181 335 179 316 115 198 113 196 157 263 194 462 196 370 45 63 161 340 53 64 126 210 53 64 122 205 49 58 2 401 3 406 182 341 181 335 183 337 75 364 26 236 64 79 72 99 133 218 142 359 161 268 160 267 182 328 160 267 165 307 182 328 165 307 171 306 182 328 180 329 182 328 171 306 194 463 186 464 188 465 194 463 188 465 190 466 193 467 194 463 192 468 190 466 192 468 194 463 178 363 179 316 98 160 153 469 152 469 202 469 56 470 204 471 71 98 144 472 56 470 71 98 71 98 204 471 201 419 204 471 198 473 201 419 42 456 69 278 163 474 56 470 55 475 204 471 157 476 186 476 194 476 203 455 154 256 156 258 195 477 194 463 200 478 193 467 200 478 194 463 197 479 195 477 200 478 57 480 197 479 199 481 197 479 200 478 199 481 94 155 96 154 107 386 116 201 60 74 125 209 50 59 47 56 41 62 41 62 47 56 38 482 47 56 39 400 38 482 41 62 157 263 65 433 50 59 41 62 65 433</p>
        </triangles>
      </mesh>
    </geometry>
  </library_geometries>
  <library_visual_scenes>
    <visual_scene id="scene">
      <node id="right_ankle_link">
        <instance_geometry url="#geometry">
          <bind_material>
            <technique_common>
              <instance_material symbol="scout_1a1a1a" target="#scout_1a1a1a" />
            </technique_common>
          </bind_material>
        </instance_geometry>
      </node>
    </visual_scene>
  </library_visual_scenes>
  <scene>
    <instance_visual_scene url="#scene" />
  </scene>
</COLLADA>