<?xml version='1.0' encoding='utf-8'?>
<COLLADA xmlns="http://www.collada.org/2005/11/COLLADASchema" version="1.4.1">
  <asset>
    <created>2026-09-14T00:00:00Z</created>
    <modified>2026-09-14T00:00:00Z</modified>
    <unit name="metre" meter="1" />
    <up_axis>Z_UP</up_axis>
  </asset>
  <library_effects>
    <effect id="scout_1a1a1a_effect">
      <profile_COMMON>
        <technique sid="common">
          <lambert>
            <emission>
              <color>0 0 0 1</color>
            </emission>
            <ambient>
              <color>0.05 0.05 0.05 1</color>
            </ambient>
            <diffuse>
              <color>0.1 0.1 0.1 1</color>
            </diffuse>
          </lambert>
        </technique>
      </profile_COMMON>
    </effect>
  </library_effects>
  <library_materials>
    <material id="scout_1a1a1a" name="scout_1a1a1a">
      <instance_effect url="#scout_1a1a1a_effect" />
    </material>
  </library_materials>
  <library_geometries>
    <geometry id="geometry" name="right_hip_yaw_link">
      <mesh>
        <source id="positions">
          <float_array id="positions_array" count="504">-0.102290913 -0.017306095 -0.040775504 -0.095484212 -0.0431943126 -0.0232079513 -0.102304481 -0.0412052348 -0.0193862673 -0.101699501 0.0176044647 -0.0416425727 -0.0956924856 0.00126523012 -0.047435876 -0.047716219 -0.0489210114 -0.0280336626 -0.0292057469 -0.0446610563 -0.0314908475 -0.0295501407 -0.0537070855 0.00754939811 -0.0884634703 -0.0522505268 -0.00386567251 -0.0881386921 -0.0411888547 -0.0327988602 -0.0952776223 -0.0444183014 0.0230672508 -0.0926079601 -0.0215963423 -0.0446678437 -0.0875121653 -0.0116580566 -0.0528584048 -0.0923094302 0.0176455118 -0.0482244454 -0.0624316558 -0.0485447794 -0.027126994 -0.0615218319 -0.0235248059 -0.0571004376 -0.0614086054 -0.0569275804 -0.0267875101 -0.101248443 -0.0410381928 0.0174013656 -0.0881128833 -0.0476521663 0.0228554774 -0.0876064524 -0.0343960747 0.0403549857 -0.0955555514 -0.0205193032 0.043268621 -0.102132343 -0.0193847902 0.0417852439 -0.0448812731 -0.0546724796 0.0104787936 -0.0290784836 -0.042629052 0.0327287614 -0.0874362364 -0.0145637309 0.0510367639 -0.0954724699 0.0116887679 0.046677053 -0.0289190914 0.061645925 0.0152484123 -0.0163519736 0.0518559329 0.0356072523 -0.0426782221 0.0490756482 0.0344264433 -0.0653342158 -0.0522471443 0.0166939292 -0.064290911 -0.0620986149 0.0116935931 -0.0414146483 -0.0613449514 0.011336999 -0.0583678335 -0.00880703237 0.0918532237 -0.0376164615 -0.0394429974 0.0892889127 -0.0421037599 -0.0319136269 0.0942136943 -0.048624415 -0.0113201868 0.0935766324 -0.0419433154 -0.00397770852 0.0659667552 -0.0412378982 0.000208254947 0.0799754709 -0.0646591261 0.000621120562 0.0651440099 -0.0425363444 -0.0481169671 0.0340438224 -0.026549682 -0.0606292002 0.0178211741 -0.0636912882 0.0632058606 0.0127713429 -0.0438130349 0.0598489605 0.0115035819 -0.0395933054 -0.0172909331 0.0601676777 -0.0180912558 -0.0340939425 0.0614486188 -0.0422200933 -0.0434212238 0.041829668 -0.0229313672 -0.0471613444 0.0941757038 -0.0417468436 -0.0235850848 0.0498217344 -0.0339025557 -0.0243846085 0.0881634876 -0.0352924764 -0.024471676 0.0618973598 -0.0393874086 -0.0026034019 0.0611718707 -0.0289479289 -0.00779584935 0.0545793697 -0.10086628 0.0434692726 0.00997887272 -0.102098331 0.0407024734 -0.0189570747 -0.0166441165 -0.0515201949 0.0345566794 -0.0368084013 -0.00847556628 0.0847006142 -0.0064541907 -0.0533236638 0.0926216096 -0.0154506741 -0.0379568264 0.0651662871 -0.0316772722 -0.0433099605 0.0493600145 0.00106293417 -0.0379861072 0.0648837686 -0.0188327916 -0.032072816 0.0845044106 -0.0488193929 0.0561875142 -0.0278135817 -0.0282058809 1.32692185e-05 0.0874453783 -0.0197034441 0.000105366875 0.0561152659 -0.0247511212 -0.00551113719 0.0844260305 -0.0647644028 -0.0548640676 0.0365483724 -0.012520452 -0.0437247381 0.0443075076 0.0136711979 -0.0509820431 0.0943804979 -0.00171832799 -0.00693917414 0.0646992102 -0.0067184791 -0.00244108681 0.0848652944 -0.0314788893 0.00539624086 0.0542530641 -0.0954057723 0.0406470224 -0.0255676061 -0.0881194323 0.0524699725 -0.01012618 -0.0885596797 0.0319643579 -0.0408060178 -0.0947645605 0.0497349873 0.0113027366 -0.0477557406 0.0284655895 -0.048201967 -0.0486599542 0.0235928614 -0.0570469983 -0.0477057323 0.0520182028 -0.0190245155 -0.102003053 0.0272315107 0.0369481333 -0.0876215845 0.0320352726 0.0428062305 -0.0878255442 0.00535620656 0.0527605973 -0.0953067839 0.0314218402 0.0358102061 -0.0875357091 0.0490977019 0.0198311545 -0.0359340273 0.0384089388 0.053177774 -0.0645373911 0.0578665473 0.0307507627 -0.0650344938 0.0324319266 0.0570066758 -0.0622895136 0.0512601286 -0.0200426523 -0.0651216358 0.0525459424 0.0119802523 -0.0452635922 0.0289954804 0.0934235752 -0.0585706383 0.00938710384 0.0907598585 -0.0476463027 0.0126357684 0.0937188342 -0.0426804274 0.00483227987 0.0566628166 -0.0374269485 0.00517500797 0.0660623759 -0.0357905626 0.020844847 0.0883980319 -0.0415987261 0.00451071188 0.06668441 -0.0423664376 0.0423949063 0.0458407663 -0.0250760708 0.0309004132 0.0599967428 -0.0234306343 0.0290786549 0.084877722 -0.0328445472 0.00758234318 0.0846372023 -0.0233455114 0.0350660421 0.0661069602 -0.0251146201 0.0473853722 0.0945399776 -0.0222475193 0.0499193259 0.0894043297 -0.0440453142 0.0532787181 0.0113351885 -0.0293906815 0.0230692532 0.0488405116 -0.0663597509 -0.0289070662 0.0458167456 -0.0135040488 0.0447825082 0.041048862 0.000962635211 0.0376349576 0.0643418282 0.0139332432 0.0391202979 0.0882018656 -0.000815455918 0.0358248986 0.0845444649 0.0144589134 0.0513056777 0.0944455564 -0.00572770927 0.0480173342 0.093065545 0.0170949399 -0.0366870165 0.0741331726 -0.00557063334 -0.0402904712 0.0882668868 0.00727981515 0.00121762999 0.0685278401 -0.00141580589 -0.00913964957 0.0846922398 0.0110657653 -0.000655767042 0.0845822096 0.0303629376 -0.0379714109 0.0930416211 0.0405511595 -0.0377690308 0.0920566395 0.0233917758 -0.0493928641 0.0894075111 0.030146163 -0.0247615837 0.0761850923 0.0273170844 -0.0325026885 0.0882901922 0.0213867445 0.00648963125 0.0821010843 0.0193043835 -0.00616624299 0.0826046094 0.0280886088 -0.000450329127 0.0785952806 0.0356779397 0.000833496975 0.0844769478 0.0395513549 -0.00109624362 0.0782123953 0.0497240126 -0.0149041293 0.0932473764 -0.0292113461 0.0427145697 0.0328072123 0.0244883858 -0.0277576782 0.0849493146 0.0404290743 0.00995695591 0.0880645663 -0.00192651898 0.00875600614 0.0846027732 0.0100101931 0.000922856154 0.0844661891 0.0157490484 0.036045894 0.0727747902 0.00553838024 0.0368288308 0.0850285515 0.0322943255 0.021872174 0.0783143789 0.029808227 0.0423949286 0.0940549001 0.0263405778 0.048313912 0.0894873366 0.0443992205 0.0296528786 0.0931270942 0.0479968898 0.00775429606 0.0930447578 0.056840688 0.0101199485 0.0936552435 -0.0624511801 -0.01471134 -0.0529480949 -0.0614726767 0.0228523612 -0.0576188639 -0.0623384565 0.0260001868 -0.0487567335 -0.0615932904 0.055388622 -0.0285410974 -0.0485948734 -0.0538423695 -0.0334036499 -0.0486983992 -0.0150443604 -0.0566295609 -0.0661330894 0.0352041423 0.0421705507 -0.0661627725 -0.00250397087 0.0541426428 -0.0649899468 -0.0242922027 0.0607090071 -0.000635096803 -0.0355382524 0.0843669027 0.0275179278 0.0269323383 0.0944033265 -0.0114038344 0.0356890745 0.0941181853 -0.0291313268 0.0487774946 -0.0246191174 -0.0327577144 0.0175572652 0.0940066874 -0.0352203734 -0.0140861953 0.0940582082 -0.000602591492 -0.0388798751 0.0945008323 0.0349635482 -0.0134935705 0.094238773 -0.00335161178 0.00353493961 0.0858798921 0.00359721063 -0.00372223277 0.085063152 -0.00310490909 0.00522390241 0.0639434159 -0.0292484686 0.0523028187 0.0119059142 -0.00639084028 0.00292321527 0.0847180486 -0.0156822503 0.0372515172 0.0882304534 -0.0415147319 0.0406597964 0.0366159976 -0.0294565745 0.0199011583 -0.0503200404 -0.0295741782 -0.0139183933 -0.0523909964 0.0031071594 -0.035925746 0.0848422498 0.0612177178 -0.0106761921 0.0912336409</float_array>
          <technique_common>
            <accessor source="#positions_array" count="168" stride="3">
              <param name="X" type="float" />
              <param name="Y" type="float" />
              <param name="Z" type="float" />
            </accessor>
          </technique_common>
        </source>
        <source id="normals">
          <float_array id="normals_array" count="1254">-0.522048771 -0.568640471 -0.635698915 -0.564282298 0.362897545 -0.741546273 -0.674433589 0.013790152 -0.738206744 -0.702281177 -0.00578375161 -0.711876214 0.146130353 -0.967837989 -0.204781771 0.17944406 -0.958723962 -0.220563427 0.104490608 -0.990660965 0.0875930414 -0.385581702 -0.92011869 -0.0686170012 -0.209459931 -0.91255635 -0.351236999 -0.307529539 -0.711426675 -0.631900072 -0.566717148 -0.731623292 0.378891796 -0.472963959 -0.881081462 0.000708298001 -0.743263006 -0.419121474 -0.521437764 -0.660538137 -0.413263708 -0.626819313 -0.104475789 -0.557307482 -0.823706985 0.414071947 -0.434060931 -0.80008471 -0.943213165 -0.162350059 -0.289812714 -0.822759032 -0.0450933836 -0.566598773 -0.986443102 -0.12148118 -0.110328019 -0.992039442 -0.0565424375 -0.112519629 -0.988544464 -0.118367471 -0.0936428383 -0.462424159 -0.886464298 -0.0185717084 -0.217286944 -0.888734519 0.403655022 -0.302673012 -0.629938483 0.71523881 -0.455116272 -0.39036268 0.800303817 -0.268140554 -0.725154996 0.634232461 -0.680961788 -0.493343025 0.541205764 0.133681327 -0.98411417 0.116827339 0.298129737 -0.911955655 0.281878531 -0.333307743 -0.243271723 0.910892308 -0.490373641 0.222173721 0.84271735 -0.235537678 -0.101675637 0.966531992 0.166240975 -0.875167966 -0.454362184 0.113309868 -0.866291106 -0.48651889 0.150580376 -0.872888029 -0.46410346 -0.991678715 -0.124501377 0.0327530205 -0.0110595021 -0.133210331 -0.991026103 -0.817728519 -0.563655496 0.116672769 -0.586500525 -0.658234775 0.471957684 -0.777361989 -0.595625937 0.202331692 -0.114721596 -0.00652389182 0.993376255 -0.195851833 0.00383171416 0.980625987 -0.0312480219 0.00464038737 0.999500871 -0.199983701 -0.935976028 0.289750665 0.14290452 0.846824706 -0.512314558 0.147996947 0.848291457 -0.508427501 0.172347918 0.854820788 -0.489466637 0.878795803 0.429938793 -0.207052037 0.0809622332 0.734060347 -0.674240649 0.543535173 0.655575752 -0.524204135 0.631548405 0.635831714 -0.443694234 0.428093016 0.489918411 -0.759418428 -0.525744975 -0.662400067 0.533683836 0.968655348 0.0633803532 -0.240186945 0.983593583 0.00674161827 -0.180272684 0.965780854 0.0767730922 -0.24773629 -0.947947145 -0.236886621 0.212793276 -0.955655634 -0.28111127 0.0877423882 -0.946893871 -0.317450464 0.0511589311 0.28467986 -0.480680376 0.829399645 0.361665547 -0.468646497 0.805958152 0.297185332 -0.488164514 0.820595086 0.991129518 -0.00481406925 -0.132812485 -0.273638994 -0.961754799 0.0122220907 -0.999976158 0.00572680123 0.00386447809 -0.999740601 0.0227626543 0.000805193849 -0.999500215 -0.0081679346 0.0305384751 0.120893866 0.840087056 -0.528808475 0.993852556 -0.00637592981 -0.110528208 -0.358476102 -0.879759312 -0.312279373 -0.484372169 -0.547231317 0.682584405 -0.159229666 -0.462819189 0.87203455 -0.225080535 -0.589146912 0.77604425 -0.203998208 -0.967641115 0.148510695 0.00374729652 -0.948311388 0.317319185 0.0503770895 -0.998539388 -0.0195268616 0.795072317 0.605889022 -0.0275420025 0.697070479 0.689092517 -0.198101625 0.115744203 0.985006988 -0.127923757 0.158555076 0.981028676 -0.111548163 0.00599086983 0.985723495 -0.168265656 -0.624372602 0.763022184 -0.16720064 0.225032002 -0.939274073 -0.259084582 -0.446113288 0.377984047 0.811240375 0.0799182877 -0.916237056 0.392584592 0.0795956329 -0.926764131 0.367114097 0.032905601 -0.940650702 0.337777317 0.183077484 0.931783736 -0.313467145 0.107262202 0.92742908 -0.358287722 0.0263676606 0.980254769 -0.195972651 -0.527575135 -0.846098483 0.0760385916 -0.565477312 -0.824117124 0.0326550119 0.540323734 0.530835152 -0.652889192 0.688617587 0.395750761 -0.607607782 0.739734292 0.337125868 -0.582356632 0.0310465097 -0.00671237567 0.999495387 -0.012137332 -0.0468186513 0.998829663 -0.0414828807 -0.347192854 0.93687582 0.221813351 0.952700913 -0.207749292 0.19871448 0.975677729 -0.0925501883 -0.404756427 -0.908681393 0.10232453 -0.392952055 -0.913037181 -0.109324098 -0.576166511 0.567624986 -0.588076472 -0.576626897 0.557543576 -0.597198904 -0.346349031 0.324953735 -0.880026937 -0.174331427 0.819817781 -0.545442402 -0.0938408747 0.971577525 -0.217327073 -0.349057615 0.630428195 -0.69333905 -0.696922839 0.691186309 0.191206962 -0.744191647 0.651447773 -0.147629663 -0.727914751 0.668576956 -0.152134731 -0.0820572078 0.992427647 -0.0914003998 -0.706112146 0.690888524 0.155172825 0.992325068 0.0787612125 -0.0953290686 0.976113141 0.135867834 -0.169537857 0.993030608 0.0248519927 -0.115206987 0.993344367 0.0263229851 -0.11213439 -0.775319219 0.067311354 0.627972364 -0.317100555 0.560591936 0.764973104 -0.318827063 0.106671557 0.941791117 -0.483541846 0.637078166 0.600265563 -0.264917552 0.623173237 0.735849082 -0.239142165 0.879113495 0.412274837 -0.0453601852 0.99260217 0.112620503 -0.000639473205 0.541620433 0.840622962 -0.0560682565 0.717651546 0.694141626 -0.0297524985 0.503593564 0.863428235 -0.990276873 0.130788937 -0.0473919995 -0.996331155 0.0570477061 -0.0637945905 -0.991431534 0.123594768 -0.0422825143 -0.0794231519 0.0141845625 0.996740043 -0.276361376 0.0554244258 0.959454298 -0.149109483 0.02999755 0.988365591 -0.05187371 0.998626113 -0.00741953077 -0.153041139 0.986480713 -0.0586025119 -0.0981835201 0.994691014 -0.0308183134 -0.868730962 0.487866163 0.0853997394 -0.930541039 0.365272909 -0.0258676317 -0.944107115 -0.0232185572 0.32882008 0.865912855 -0.145147011 -0.478672445 0.412616491 -0.391973615 -0.822255611 0.895312548 -0.42852065 -0.121595576 0.903099895 -0.393573493 -0.171786293 0.896919847 -0.422527164 -0.13040553 -0.61221081 0.378840029 0.694030344 0.498733759 0.56178689 -0.660045505 -0.673734546 0.738883078 -0.0115598058 0.995296657 -0.0328503251 -0.0911341757 0.994978547 -0.0308832768 -0.0952048823 0.997309506 -0.0335868597 -0.0651583746 0.212856293 -0.880191565 -0.424211025 -0.0160603058 0.473742783 0.880516827 0.4942981 0.200636461 0.845821738 0.665098369 0.145718485 0.732400358 -0.00601516524 -0.560645878 0.828033864 -0.0202274658 -0.958232522 0.285274088 0.037447758 0.887288988 0.459691107 0.0625808761 0.927007437 0.369784921 0.0454785675 0.927375734 0.371356905 0.14090541 -0.83768177 -0.527669311 0.185201377 -0.908020854 -0.375763953 -0.0344726704 -0.796036184 -0.604266524 0.277507156 -0.937500417 -0.209959015 -0.714208841 -0.353850663 0.603900135 -0.0364821516 0.953850329 0.298058122 -0.04585943 0.991057098 0.125310361 0.339572906 0.939216733 -0.0506180339 0.271039993 -0.959613323 -0.0753632709 0.283532351 -0.954855025 -0.0886640102 -0.0894004479 0.912091792 0.400120139 0.567907155 -0.345920086 -0.746873975 0.835122347 -0.0821771547 -0.543891132 0.747202277 -0.18926461 -0.637077451 0.0749377906 -0.740371883 0.668007374 0.186078236 -0.981351733 0.048204679 -0.120379984 -0.992225289 0.0315846317 0.635889411 -0.758268714 -0.143782049 0.608796954 -0.775087357 -0.169132829 0.689566135 -0.71866715 -0.0895321295 0.546634555 -0.807107031 -0.223089516 0.0741201565 -0.0346804447 0.996646106 0.097473979 -0.0782411695 0.992157817 0.404252529 -0.724115849 0.558780909 0.483036309 -0.394100964 -0.781895339 0.861185908 -0.495038867 -0.115305685 0.824631989 -0.550554633 -0.129890993 0.670984745 -0.685843945 -0.281775594 0.713594973 -0.144684181 -0.685455143 -0.434034646 0.0355997123 -0.900192499 -0.307454497 0.839182019 -0.448603749 0.0874752775 -0.0359294191 0.995518506 0.46502161 -0.41455242 -0.782241106 -0.833716393 0.366706133 -0.412848175 -0.149577081 -0.0614199117 -0.986840546 -0.17425096 -0.147561997 -0.973582089 -0.0239785686 -0.113616787 -0.99323523 0.932973444 -0.299253374 0.200019836 0.928484261 -0.285463333 0.237545148 0.499115258 0.858627141 -0.116805054 0.546336472 0.833910048 -0.0781693906 0.468588442 0.872151315 -0.140630573 -0.0970739499 -0.995126724 -0.017306095 0.37393856 0.679812074 -0.630892575 0.151718602 0.210974395 -0.965645492 0.331893891 0.503510714 -0.797698796 -0.522022069 -0.760386407 -0.3864007 -0.393367916 -0.316143811 -0.863316119 0.418734998 0.695709527 0.583651662 0.571371675 0.684327304 0.453023851 0.462143719 0.6954059 0.55030334 0.615258932 0.674866259 0.40744558 0.0542159267 0.00615160307 0.998510301 0.00360836997 0.00424833689 0.999984443 -0.0204488933 -0.0180682167 0.99962765 -0.0462243259 -0.867643297 -0.495033741 -0.0423926599 -0.57867074 -0.814458728 -0.996156335 -0.0730479658 -0.0483373329 -0.984844804 -0.01848883 -0.172449499 -0.99303335 0.0377211832 -0.111632898 -0.9804371 0.134618059 -0.143600211 -0.997145534 0.0477306433 -0.0585027374 0.992677331 -0.0691810548 -0.0990235656 0.992763758 -0.0743688121 -0.0942836925 0.992794931 -0.0838476866 -0.085602425 0.992443919 -0.0610615835 -0.106425986 0.197650924 -0.366563827 -0.909156263 0.152741373 -0.176759019 -0.972330332 -0.124077372 -0.643367589 -0.755435646 0.0449876785 -0.0109127201 -0.998927951 -0.0203865729 0.634961069 0.77227509 0.00341222854 -0.00587570434 0.999976933 -0.99173373 -0.0794886574 0.100726224 -0.997663319 -0.066662468 0.0149676809 -0.992941856 -0.0401287526 0.111607246 -0.992395937 0.00102800515 0.123082377 -0.99105382 0.00782288052 0.13323319 -0.994963169 0.0461093597 0.0890069678 -0.995517075 0.0930411816 0.0170020219 -0.993279278 0.0856952891 0.0777984262 -0.121294156 -0.16777581 -0.978334785 -0.107849702 -0.012089679 -0.994093716 -0.0217346903 0.0847674608 -0.996163666 0.00262863375 0.99589467 0.0904813111 0.185227573 0.976897359 -0.106593885 -0.0150171677 0.975254953 0.220572606 0.0533157289 -0.93122226 0.360530943 -0.00341313472 -0.967454672 0.253021359 0.350178272 -0.931443334 -0.098936893 0.249455109 -0.966982961 -0.0521161631 0.321509391 -0.943036497 -0.0855208784 0.21595937 -0.975711167 -0.0367328376 -0.0637111291 -0.404841542 0.912164569 -0.0866877064 -0.618098259 0.781306505 -0.0538701899 0.463101685 -0.884666502 -0.0182780065 0.120327108 -0.992565989 0.00891414937 0.102382839 -0.994705141 -0.0379470773 0.29867509 0.953600109 0.0316812918 0.0107401488 0.999440312 0.0256225429 0.0062181768 0.999652326 0.00760073448 0.0178822111 0.999811232 0.144872651 0.690247178 -0.708922267 -0.0533270054 0.777058303 -0.627165556 0.0246798694 0.747746885 -0.663525105 -0.999512017 -0.0307739601 0.0053564962 -0.999922395 -0.0123538719 0.00160946534 -0.999763787 0.0202478413 -0.00789975934 -0.999250233 0.026133975 0.0285661425 -0.215105012 -0.656694531 -0.722829282 0.0513458885 0.361837715 0.930826008 -0.0184047446 0.00219011214 0.999828219 -0.017992802 0.00786097255 0.999807239 0.00543057313 -0.00592255732 0.999967694 0.0459983684 -0.0267050527 0.998584509 0.652587593 -0.756958246 -0.033817891 0.526000559 -0.847232759 -0.074297078 0.287811339 -0.947876096 -0.136731446 0.980222642 0.186416984 -0.0664249882 -0.378355473 -0.917394698 0.123426437 0.169448778 -0.972028673 -0.16262649 0.12193194 -0.989479721 -0.0778618157 -0.985258222 -0.120694853 -0.121239372 -0.976310313 -0.146491468 -0.15924339 -0.993142188 -0.0894158408 -0.0753219426 -0.0506254882 0.980831563 -0.188166171 -0.964143932 -0.174198747 -0.200202987 0.676400185 0.679612458 -0.2839185 0.415530056 0.908380806 -0.0466802716 -0.054003682 -0.192333922 0.979842484 -0.0707830191 -0.173911259 0.982214153 0.889092028 -0.448462486 -0.0916336328 0.428390115 -0.00730995601 -0.903564334 0.994928241 -0.0020764661 -0.100566022 -0.000362903083 0.666611493 -0.745405197 -0.00535956537 0.667655528 -0.744451106 -0.00421847589 0.667418659 -0.744670749 0.000790111604 0.666368067 -0.745622516 -0.85419172 -0.267908722 -0.445624828 0.154141873 0.98625356 -0.0595330782 0.143943727 0.984057188 0.104458645 0.128191754 0.989228308 -0.0706698373 0.0581286661 0.98304975 0.17388013 -0.424895316 0.904567957 0.0349388868 -0.376984358 0.925675094 -0.0317547917 -0.404737115 0.91441077 0.00638751639 -0.10574045 0.245263755 0.963672459 -0.983693302 0.151391998 -0.0970977545 -0.982019126 0.124981262 -0.141485259 -0.983290553 0.139997855 -0.116362765 -0.983471751 0.166277081 -0.0716605186 -0.178197369 0.934738994 0.307422638 -0.625190139 0.767681479 0.140721172 -0.748265386 0.663377047 0.00546471309 0.995908499 0.0172329135 0.0887089968 0.0226368867 0.958085597 0.285586447 0.0334321819 -0.99887538 0.033618778 0.303657085 0.9211604 0.243425414 0.436456501 0.889380395 0.136045158 0.13334547 0.625911593 0.768409789 0.0490757078 0.592575848 0.804018319 -0.193322927 0.977945387 -0.0790513083 -0.999294162 0.0160856713 -0.0339465998 0.0162116382 0.00465650111 0.999857724 -0.00810203794 -0.00754412217 0.999938726 -0.0331575461 0.100174032 0.99441731 0.208047703 -0.0898575559 -0.973982453 0.0938328579 -0.993099272 0.070351094 0.163233712 -0.976487756 0.140806183 0.120927766 -0.98782903 0.0978277773 0.221310243 -0.954482198 0.199963674 0.999982655 0.00449162163 0.00381734828 0.999081373 0.0212506503 0.0372130163 0.999985337 0.00339827524 -0.00421495317 0.999993682 -0.00097910082 -0.00341070723 0.999956965 0.00897487812 0.00234084623 0.999980927 -0.00522942794 -0.00329414359 0.999964774 -0.00205408246 -0.00814077351 0.9999879 -0.00223388011 -0.00438914169 0.999159455 -0.0409873724 -0.000683121034 0.999779999 -0.00219935784 -0.020859303 0.171460897 0.975870907 0.135192856 -0.00775450328 0.992223561 -0.124226622 0.0241262037 0.996589959 -0.0789075345 -0.142557845 0.939349055 -0.311930478 0.40257743 -0.852521181 -0.333375156 0.00466687465 0.00914465077 -0.999947309 -0.00579230394 0.00233129878 -0.999980509 -0.00416136999 0.00339379068 -0.999985576 -0.0138623677 -0.00292637735 -0.999899626 -0.0628651008 0.995083928 -0.0765240192 0.421024293 0.889782727 -0.176139787 -0.685091674 0.725622356 0.0641991198 0.0141199827 0.274631888 -0.961445749 0.99074167 0.116539896 -0.0696378276 0.989971936 0.0880273357 -0.110483967 0.989947796 0.134582743 -0.0434834138 0.986032903 0.166515678 0.00340702594 0.22866936 -0.966028512 0.120412841 -0.0221427642 -0.0442349426 -0.998775721 -0.130784169 0.0222033635 -0.991162181 -0.00449274294 -0.00635878788 -0.999969661 0.0056896056 -0.644928455 -0.764221728 0.150167033 -0.580472887 -0.800313115 0.0576351583 -0.623722911 -0.77951771 0.211646244 -0.547748208 -0.80943048 -0.355966151 0.932582676 -0.0598139092 -0.550283551 -0.834348738 0.0324072018 0.250919104 0.0993215516 -0.962899208 0.162761107 -0.142676741 -0.976295114 0.249651417 -0.0938742831 -0.963774741 0.178910926 -0.0903993249 -0.979703426 0.0645139813 -0.125380754 -0.990008891 -0.0503626429 -0.313428789 -0.948275268 -0.038119968 -0.250356764 -0.967402875 -0.0788001791 -0.0949374363 -0.992359519 -0.000472208019 0.0072959424 -0.999973297 -0.0208966564 -0.00760641089 -0.9997527 0.00131493283 -0.00265790964 -0.999995589 -0.00485868519 0.0141637903 -0.999887884 0.0135835335 0.0066240225 -0.999885798 0.993225873 0.114468656 0.0199833754 -0.587751031 -0.766905487 -0.257691085 -0.3294397 -0.941099703 -0.0761633664 -0.441304028 -0.884342194 -0.152281255 0.551906884 -0.322935551 0.76883769 0.47203517 -0.393887699 0.788692117 -0.697395623 -0.629131198 -0.343268514 -0.00863650721 -0.212943658 -0.977026284 0.968569458 -0.200338319 -0.14743714 0.943896651 -0.247680306 -0.218434334 0.980199993 -0.169674188 -0.102071516 0.991649985 -0.124016017 -0.0353598818 0.418588281 0.898844063 -0.129858404 0.0657630488 0.0945704579 -0.993343651 0.233123168 0.152318537 -0.960443974 -0.0833954737 0.101226941 -0.991361856 -0.0312386658 0.0761615112 -0.996606052 -0.213690549 0.151826918 -0.965031028 0.0575729683 -0.0946398303 -0.993845403 0.315896153 0.175415188 -0.932437181 0.104693122 -0.00223573227 -0.994502068 -0.286731094 0.238797292 -0.927772164 -0.154824719 0.0475089625 -0.986798942 -0.119061083 -0.0407642834 -0.992049754 -0.183863088 -0.0563242696 -0.981336832 0.716840088 0.683147132 0.139464378 0.725788116 0.658464313 0.199138939 0.386703968 -0.89768362 0.21124424 0.0300670825 0.886060834 -0.46259287 -0.422767639 0.901847064 0.0891031399 -0.0631502047 0.912427723 -0.404336154 0.0452106111 -0.0108373221 -0.998918712 0.132792681 0.153738618 -0.979147851 0.202544346 0.181986481 -0.96221447 0.0221135281 0.107721873 -0.993935108 -0.0864569992 0.0611916222 -0.994374573 0.877123535 0.278869271 -0.391006678 0.197830379 -0.0721952692 0.97757405 0.218486324 0.64740479 -0.730158091</float_array>
          <technique_common>
            <accessor source="#normals_array" count="418" stride="3">
              <param name="X" type="float" />
              <param name="Y" type="float" />
              <param name="Z" type="float" />
            </accessor>
          </technique_common>
        </source>
        <vertices id="vertices">
          <input semantic="POSITION" source="#positions" />
        </vertices>
        <triangles material="scout_1a1a1a" count="332">
          <input semantic="VERTEX" source="#vertices" offset="0" />
          <input semantic="NORMAL" source="#normals" offset="1" />
          <p>0 0 1 0 2 0 3 1 4 2 0 3 5 4 6 5 7 6 8 7 1 8 9 9 8 7 10 10 1 11 9 9 1 12 11 13 11 13 12 14 9 9 0 15 4 15 1 15 4 16 11 13 1 12 13 17 12 17 11 17 14 18 15 19 16 20 17 21 1 11 10 10 18 22 10 10 8 7 19 23 10 10 18 22 20 24 21 25 17 26 20 24 17 26 10 10 22 27 7 6 23 28 19 23 24 29 20 24 25 30 21 31 20 24 26 32 27 33 28 34 14 18 16 20 29 35 30 36 22 36 31 36 32 37 33 38 34 39 35 40 32 41 34 42 36 43 37 43 38 43 39 44 40 45 31 46 22 47 39 47 31 47 41 48 26 48 42 48 43 49 44 50 45 51 46 52 34 39 33 38 47 53 43 54 45 55 48 56 36 57 49 58 50 59 47 60 51 61 50 62 43 54 47 53 1 11 17 21 2 63 0 64 52 65 53 66 39 44 54 67 40 45 50 62 55 68 43 54 46 69 33 69 56 69 57 70 49 71 58 72 57 73 58 74 59 75 60 76 44 50 55 77 55 77 44 50 43 49 41 78 42 79 61 80 51 81 62 81 63 81 64 82 55 82 50 82 59 83 58 83 65 83 54 84 59 85 65 86 44 87 66 88 45 89 48 90 49 91 57 73 54 92 66 93 59 94 67 95 46 96 56 97 44 87 59 98 66 88 44 87 60 99 59 98 68 100 69 100 63 100 62 101 70 101 63 101 53 102 71 103 3 1 3 1 13 104 4 2 71 103 13 104 3 1 71 105 72 106 73 107 74 108 72 109 71 110 53 111 52 111 71 111 71 110 52 112 74 108 61 113 75 114 76 115 61 113 77 116 75 114 25 117 78 117 21 117 79 118 25 30 80 119 81 120 78 121 25 30 79 118 81 120 25 30 78 121 81 120 52 112 74 108 52 112 81 120 79 118 82 122 81 120 74 123 82 122 72 106 83 124 84 125 85 126 41 127 86 128 87 129 88 130 89 131 90 132 91 133 92 134 70 135 93 136 94 137 37 138 95 139 92 139 91 139 95 140 96 140 92 140 97 141 98 142 92 143 99 144 83 144 94 144 66 93 54 92 23 145 88 146 100 146 101 146 102 147 42 148 28 149 28 34 42 150 26 32 103 151 70 152 51 153 104 154 19 23 29 155 27 156 26 157 84 158 105 159 96 160 95 161 106 162 96 160 105 159 83 163 99 163 84 163 99 164 27 156 84 158 99 164 106 165 27 156 99 164 107 166 106 165 108 167 97 168 96 160 108 167 96 160 106 162 109 169 101 169 100 169 27 170 106 171 105 172 109 173 100 173 110 173 111 174 112 175 59 75 113 176 114 177 68 178 113 176 115 179 114 177 116 180 67 95 117 181 117 182 67 182 118 182 59 183 119 183 111 183 119 184 120 185 111 186 113 187 121 187 122 187 121 188 123 188 122 188 124 189 125 189 122 189 126 190 116 180 117 181 127 191 27 170 105 172 125 192 119 192 128 192 122 193 125 194 128 195 125 196 129 197 120 185 130 198 131 199 113 200 132 201 133 201 106 201 123 202 121 203 124 204 134 205 133 205 132 205 133 206 134 206 124 206 109 207 135 208 136 209 136 209 135 208 137 210 137 211 138 212 139 213 8 7 9 9 14 214 14 214 9 9 140 215 9 9 12 14 140 215 16 20 30 216 29 35 14 18 140 217 15 19 141 218 15 19 140 217 141 218 140 217 142 219 143 220 141 218 86 128 141 218 142 219 86 128 86 128 41 127 143 220 144 221 5 222 22 223 144 221 145 224 5 222 15 225 145 226 144 227 15 225 141 228 145 226 20 24 10 10 19 23 146 229 79 118 80 119 25 30 20 24 80 119 24 29 104 154 147 230 146 229 80 119 147 230 104 231 29 35 30 216 104 231 30 216 65 232 65 232 148 233 104 231 147 234 104 231 148 233 148 233 38 235 147 234 38 235 85 236 147 234 85 236 84 237 146 238 147 234 85 236 146 238 84 237 41 127 87 129 84 237 87 129 146 238 121 203 131 239 130 240 121 203 130 240 133 241 121 203 133 241 124 204 81 120 82 122 74 108 66 88 23 242 45 89 149 243 59 98 60 99 146 229 87 244 82 122 40 245 65 86 30 246 30 247 16 248 22 249 16 248 144 250 22 249 32 41 35 40 90 132 89 131 32 41 90 132 58 72 148 251 65 252 49 71 148 251 58 72 13 104 142 253 12 254 142 253 140 255 12 254 83 124 85 126 94 256 150 257 135 258 151 259 75 260 77 261 152 262 17 263 21 264 0 64 0 64 21 264 78 265 0 64 78 265 52 65 2 266 17 263 0 64 20 24 24 29 80 119 16 267 15 225 144 227 103 151 91 268 70 152 151 259 153 269 150 257 150 257 153 269 154 270 150 257 154 270 155 271 150 257 155 271 156 272 51 273 63 274 64 275 51 276 70 276 62 276 51 277 64 277 50 277 36 57 48 56 37 138 40 245 54 84 65 86 63 274 69 278 64 275 56 279 118 279 67 279 80 119 24 29 147 230 59 75 112 175 57 73 149 280 68 281 59 282 143 283 41 78 61 80 68 281 149 280 69 284 68 285 157 285 158 285 70 286 98 286 63 286 36 287 38 288 148 251 92 143 96 289 97 141 68 290 63 290 159 290 75 114 145 291 76 115 61 292 76 293 141 294 61 292 141 294 143 295 19 23 18 22 29 155 125 296 124 296 134 296 77 297 102 298 152 299 102 298 160 300 152 299 29 155 18 22 8 7 24 29 19 23 104 154 82 122 87 244 72 106 79 118 146 229 82 122 119 301 59 302 128 303 120 185 119 184 125 196 38 304 94 256 85 126 106 305 159 306 161 307 161 307 108 308 106 305 94 309 38 309 37 309 61 113 42 148 77 116 77 116 42 148 102 147 36 287 148 251 49 71 162 310 99 311 93 136 138 212 126 190 139 213 95 312 91 312 163 312 84 158 26 157 41 313 30 246 31 314 40 245 127 315 160 300 102 298 102 298 28 316 127 315 14 214 29 155 8 7 103 151 127 317 163 318 98 319 70 135 92 134 3 320 0 64 53 66 67 95 155 271 46 96 34 42 154 270 35 40 138 212 137 211 150 257 138 212 150 257 126 190 150 257 156 272 126 190 154 270 153 269 90 132 156 272 155 271 126 190 116 180 126 190 155 271 153 269 151 259 100 321 67 95 116 180 155 271 151 259 135 258 109 322 135 258 150 257 137 211 151 259 109 322 110 323 100 321 151 259 110 323 100 321 88 130 153 269 155 271 154 270 34 42 155 271 34 42 46 96 35 40 154 270 90 132 90 132 153 269 88 130 13 324 11 324 4 324 105 325 95 326 127 327 95 326 163 328 127 327 91 268 103 151 163 318 127 329 103 330 51 331 152 332 160 333 127 329 127 329 51 331 23 334 127 329 23 334 152 332 164 335 23 334 6 336 23 334 7 337 6 336 152 332 23 334 164 335 6 336 165 338 164 335 161 339 159 340 98 341 159 340 63 342 98 341 124 343 122 343 123 343 5 4 7 6 22 27 98 344 97 345 161 346 97 345 108 347 161 346 37 138 48 56 93 136 162 348 107 166 99 164 93 136 99 311 94 137 159 349 130 198 113 200 68 350 158 350 113 350 48 90 57 73 112 175 28 351 27 351 127 351 166 352 59 353 68 354 114 355 166 352 68 354 111 174 120 356 112 175 128 195 166 357 122 193 122 193 166 357 115 358 115 358 166 357 114 359 13 104 73 107 142 253 5 360 145 361 6 362 6 362 145 361 165 363 166 364 128 303 59 302 115 365 113 365 122 365 129 366 126 367 117 368 129 366 117 368 120 369 120 369 117 368 118 370 118 370 56 371 112 372 112 372 120 369 118 370 112 372 56 371 33 373 60 374 55 375 64 376 149 377 60 374 69 378 60 374 64 376 69 378 13 104 71 103 73 107 157 379 68 379 159 379 157 380 159 381 113 382 47 60 45 383 23 384 47 60 23 384 51 61 157 380 113 382 158 385 23 386 54 386 39 386 106 387 133 388 130 389 106 387 130 389 159 390 106 165 107 166 132 391 129 366 107 392 137 393 101 394 162 395 93 396 126 367 129 366 167 397 167 397 129 366 139 398 139 398 129 366 137 393 107 392 136 399 137 393 101 394 136 399 107 392 101 394 107 392 162 395 101 394 93 396 88 400 89 401 88 400 93 396 89 401 93 396 48 402 48 402 32 403 89 401 48 402 112 372 33 373 33 373 32 403 48 402 134 404 107 166 129 405 22 27 23 28 39 406 136 407 101 407 109 407 121 408 113 408 131 408 73 107 72 106 86 409 86 409 142 253 73 107 76 410 145 226 141 228 87 244 86 409 72 106 132 391 107 166 134 404 165 411 145 412 75 413 75 413 164 414 165 411 129 415 125 415 134 415 126 190 167 416 139 213 152 262 164 417 75 260</p>
        </triangles>
      </mesh>
    </geometry>
  </library_geometries>
  <library_visual_scenes>
    <visual_scene id="scene">
      <node id="right_hip_yaw_link">
        <instance_geometry url="#geometry">
          <bind_material>
            <technique_common>
              <instance_material symbol="scout_1a1a1a" target="#scout_1a1a1a" />
            </technique_common>
          </bind_material>
        </instance_geometry>
      </node>
    </visual_scene>
  </library_visual_scenes>
  <scene>
    <instance_visual_scene url="#scene" />
  </scene>
</COLLADA>