<?xml version='1.0' encoding='utf-8'?>
<COLLADA xmlns="http://www.collada.org/2005/11/COLLADASchema" version="1.4.1">
  <asset>
    <created>2026-09-14T00:00:00Z</created>
    <modified>2026-09-14T00:00:00Z</modified>
    <unit name="metre" meter="1" />
    <up_axis>Z_UP</up_axis>
  </asset>
  <library_effects>
    <effect id="scout_1a1a1a_effect">
      <profile_COMMON>
        <technique sid="common">
          <lambert>
            <emission>
              <color>0 0 0 1</color>
            </emission>
            <ambient>
              <color>0.05 0.05 0.05 1</color>
            </ambient>
            <diffuse>
              <color>0.1 0.1 0.1 1</color>
            </diffuse>
          </lambert>
        </technique>
      </profile_COMMON>
    </effect>
  </library_effects>
  <library_materials>
    <material id="scout_1a1a1a" name="scout_1a1a1a">
      <instance_effect url="#scout_1a1a1a_effect" />
    </material>
  </library_materials>
  <library_geometries>
    <geometry id="geometry" name="right_hip_roll_link">
      <mesh>
        <source id="positions">
          <float_array id="positions_array" count="468">-0.057378646 -0.0446469225 0.0280535631 -0.061595507 -0.0522367544 0.00949115027 -0.0644049644 -0.0442560241 0.0266306866 -0.0644769296 -0.0434379429 -0.0284760799 -0.0573608242 -0.0361679159 -0.038472902 -0.0645328611 -0.0113645373 -0.0508559979 -0.0680406243 -0.00522904005 -0.052278243 -0.0441829227 -0.00506824255 -0.0548739508 -0.0677743256 -0.0283982884 -0.045415841 -0.0566010699 -0.0534648299 -0.0092255082 -0.0599271283 -0.023082329 0.00161132822 -0.0656239167 -0.0310124028 -0.00322252908 -0.0551150814 -0.0328546166 -0.00516113965 -0.05326901 -0.0213077143 -0.0481907614 -0.0317420438 -0.0193228889 0.0442962125 -0.0185134076 -0.00996158738 0.0524099767 -0.0481172986 -0.0148548475 0.0265342221 -0.038831532 -0.0102641173 -0.0522055253 -0.0641745999 -0.0151345022 -0.026736673 -0.041393958 -0.0096284952 -0.0356372297 -0.048138231 -0.0156529658 -0.0261931717 -0.0549912564 -0.00991079211 -0.00669538323 -0.0508269481 -0.0198334958 -0.0171633363 -0.0549606793 -0.0111524099 0.00460659154 -0.0523465089 -0.0199789759 0.0132258814 -0.0334346108 -0.0169486422 -0.0542594492 -0.0261013079 -0.0199005678 -0.0478530787 -0.012399599 -0.0107120285 -0.0633846968 -0.0122701237 -0.0101356562 -0.0536656827 0.0533523597 0.0386705883 0.00453459891 0.0473961122 0.0394137725 -0.0212459806 0.0459329523 0.0393131115 0.0256476533 0.014385215 -0.0191809349 -0.0533073321 -0.0117012188 0.0188955031 -0.063234441 -0.0554248281 -0.0316467024 0.00530400174 -0.0087389797 -0.000754280481 -0.056797158 -0.0677925497 -0.0520456396 0.0124049652 -0.0649423227 -0.0131965466 0.050603006 -0.0555293038 -0.0242560245 0.0469419099 -0.0351004191 -0.0169940516 0.0539297536 -0.0676499903 -0.0297835022 0.0457240678 -0.0643483698 -0.0146803278 0.0274316147 -0.0649054497 -0.00783316139 0.0107049234 -0.0678399354 -0.0584723093 -0.00790185109 -0.0677779838 -0.0472096242 -0.024677638 -0.0557480045 0.0149424877 0.0336320139 -0.0678098872 -0.00638327794 0.0351496898 -0.0539564677 -0.00610501319 0.035948541 -0.0330709852 -0.0101068774 0.0535943322 -0.0681472719 -0.003332983 0.0528075844 -0.0499015264 0.00727266632 0.0541418456 -0.044200927 0.0141562484 0.0488711111 -0.0445896611 -0.00655088527 0.0494429432 -0.0156405661 0.00470578158 0.0635577142 -0.0120921554 -0.0104865506 0.0634068996 0.00320191449 -0.0197515637 0.0543216839 -0.0117479032 0.0192616601 0.0634143725 -0.0081750527 -0.000794828346 0.0564610139 -0.0669314712 0.0152785033 -0.0492349342 -0.067721881 0.0409129672 -0.0358618684 -0.0544639044 0.028545171 -0.0449035652 -0.0632029325 0.039767649 -0.0345604643 -0.0640041232 0.0195329953 -0.0467077643 -0.0575769357 0.0507996455 -0.0136678247 -0.0646414459 0.0529232286 0.00343656144 -0.0677203387 0.0148144094 -0.0330060162 -0.0562309735 0.0146614965 -0.0326643363 -0.0541183837 -0.005850513 -0.0358486809 -0.0449640527 0.015302348 -0.0471713357 -0.0641913861 0.0293443725 -0.00104040361 -0.053762719 0.0275073852 0.00363414898 -0.0534900241 0.019726567 -0.0084521994 -0.0571902767 0.0458513834 0.0269463435 -0.0495478511 0.0400911458 -0.0102862129 -0.0324053578 0.0390909389 -0.0410417281 -0.0489049926 0.0384649336 -0.0228072852 -0.0512826964 0.0387520231 0.0183010828 -0.0471455641 0.0461892635 0.00727793993 -0.0444726646 0.0461100303 -0.0236942228 -0.0438175909 0.0467188321 -0.0121388016 -0.0250571836 0.0465491228 -0.0391325504 -0.0401604325 0.0528649576 -0.0207720008 -0.017067099 0.0457681715 -0.0476522036 -0.031689696 0.0243480895 -0.0528737679 -0.0356550291 0.0194355473 -0.0507177785 -0.0155851999 0.038953159 -0.049743697 -0.010907134 0.0154865766 -0.0540565774 0.040044196 0.0528022423 -0.0213075262 0.045077201 0.0468930118 0.00808471721 0.0458936468 0.0463872924 -0.012764724 0.0444707759 0.0131701734 0.0308602564 0.0220606029 0.0131297968 0.0497090742 -0.00927657913 0.0125051551 -0.0610959865 0.0176559351 0.0463399403 -0.0453576483 0.00882915966 0.0397222191 -0.0508204065 -0.0181403607 0.0529591627 -0.0412472151 -0.0675048083 0.014645678 0.0494505055 -0.0677261576 0.0147274565 0.0327405669 -0.0546979494 0.0285694264 0.0448569544 -0.0676268339 0.0347565822 0.0411957651 -0.0676788688 0.0562293939 0.00792840216 -0.0564284176 0.0557975285 0.00855596457 -0.0643296093 0.0186438505 0.00880946591 -0.0531172976 0.0188856609 0.00881284568 -0.0644331872 0.0186280832 -0.00962289888 -0.057400506 0.0588389002 -0.00978992786 -0.0270490814 0.0212085731 0.055588264 -0.0428792685 0.0433177464 0.0253806822 -0.064223595 0.0195011646 0.0453045405 -0.0348673388 0.0386536866 0.0391953252 -0.030389484 0.0466991514 0.033722315 -0.0255850274 0.0529493056 0.0383552499 -0.0116744414 0.0165075697 0.0531741939 -0.0401375704 0.0189697407 0.0370260216 -0.0196165275 0.0459271297 0.0460125804 -0.0183531195 0.0386113934 0.049668096 -0.00339929108 0.0469550304 0.0457581133 0.0293303467 0.0390452519 -0.0433542393 0.0352177732 0.0463329554 -0.0330264531 0.0111505678 -0.00125472236 -0.0532780252 0.0379284583 -0.00154817861 -0.0396006852 0.0522967018 -0.0012773124 -0.0153713189 0.0539260395 -0.0193903577 0.00769867841 0.0467552021 -0.0193509907 -0.0289170835 0.0173851363 0.0531016588 -0.0410394743 0.0152154034 0.0528413467 0.0421359017 0.0584572107 -0.000464049226 -0.0186495725 0.0571377799 0.0124098845 0.0238338951 0.0550014377 -0.000418945478 0.0299463328 0.02947562 0.050800588 0.0340938084 0.0187804941 0.0458183922 0.0470989868 0.0456964113 0.046014905 0.0202228054 0.0433030985 0.0530068949 0.0121511025 -0.0631759539 -0.0374147743 0.000123553997 -0.0650333911 -0.0083244266 -0.010136649 0.0323240235 0.0121937636 0.0524154082 0.0241341237 -0.000520921778 0.0565026626 -0.0603777319 -0.0591597185 0.0108676869 -0.0678284615 -0.00634393608 -0.0350753479 -0.043676883 -0.00558108976 -0.0510301404 0.0253703203 0.0389139466 0.0457750931 0.00832413416 0.0395611413 0.0506473668 0.0428047478 -0.00130298431 0.0334498398 0.0225836579 -0.00134066318 0.0497386381 0.0383940451 -0.0196341369 0.0391610637 0.0373694077 0.0130761079 -0.0410078764 0.0547108799 0.0131119983 -0.00184250006 -0.0680796206 0.0561198555 -0.00835192669 -0.0640400872 0.0348197632 0.0384574756 0.0534428172 -0.00133217243 0.0120768286 -0.0389218032 0.0190596823 -0.0383126102 -0.0432538167 0.0530687682 0.0113929389 -0.0089867264 0.0125975749 0.0616214052 0.0332854651 -0.000466699421 -0.0535363927 0.0329696387 0.0123840589 -0.0523570478 0.0571548492 0.012334818 -0.0235343128</float_array>
          <technique_common>
            <accessor source="#positions_array" count="156" stride="3">
              <param name="X" type="float" />
              <param name="Y" type="float" />
              <param name="Z" type="float" />
            </accessor>
          </technique_common>
        </source>
        <source id="normals">
          <float_array id="normals_array" count="1185">0.196073994 0.748887897 -0.633026004 0.131577164 0.906738698 -0.400639921 0.165300831 0.78152889 -0.601571441 0.492661208 0.498548329 0.713256299 0.448229641 0.499667138 0.741230726 0.188800633 0.409057438 0.892763317 -0.107392222 -0.0725976229 -0.991562665 -0.208935514 -0.122747906 -0.970195293 -0.00183073047 -0.534577549 -0.84511745 -0.156191766 0.848394394 0.505797446 0.0574640185 -0.549399495 0.833581448 -0.0114308205 -0.404311508 -0.914549947 0.0186355188 -0.716213167 -0.69763267 -0.651771307 0.328582734 0.683540463 0.27720812 0.0435006022 0.959824622 0.162080392 0.362281591 0.917868197 0.124787517 -0.95444417 -0.271043181 0.0633179396 -0.991728246 -0.111650832 -0.00878618285 -0.840180755 -0.542235255 -0.947312713 -0.309152097 -0.0838068873 -0.947316289 -0.0671817139 -0.313174874 -0.959541738 -0.146411717 -0.240506232 -0.962906182 -0.268747628 0.0242166054 -0.97499752 -0.0906416923 0.202889025 0.360040486 0.0040313988 0.932927966 -0.593649983 -0.648211539 -0.476866335 -0.627035141 -0.575400054 -0.525111198 -0.566411912 0.10505607 -0.817398787 -0.682347715 -0.170456305 -0.710877061 -0.269529581 -0.0694814026 -0.96048224 -0.273845583 -0.295098126 -0.915382802 0.389794797 0.0319193676 0.920348406 -0.509610355 0.227964282 -0.829656303 0.101218462 0.994850159 0.00529387547 -0.116816707 -0.380587488 -0.917336941 -0.103464052 -0.34190008 -0.934023321 0.304081202 -0.0758407414 -0.949622452 0.836054683 0.0321128629 0.547705531 -0.649921954 -0.61680156 0.444024026 -0.252539307 0.00473694457 -0.967575014 0.608386397 -0.0222279187 -0.793329597 0.620436192 -0.0119421529 -0.784165978 0.641622603 0.00660058158 -0.766992092 0.932688236 -0.117211685 -0.34110707 0.955610633 -0.227199838 -0.187586054 0.885590374 -0.0185339786 -0.464097172 -0.119972184 -0.819529653 0.560337245 0.0319985561 -0.911643445 0.409734428 0.135262921 -0.927494526 0.348507971 0.192905322 0.469120443 -0.8618083 0.290489525 0.478648752 -0.828559697 0.586076558 -0.0408109389 -0.809227228 0.417627871 -0.838844419 -0.349180549 -0.0569260381 -0.998046815 0.0257298518 0.00804880634 -0.991187692 -0.132220119 -0.233013481 -0.956222415 -0.177040592 0.344385028 -0.867698431 -0.358466715 0.18344149 -0.820426762 -0.541524827 0.31905669 -0.860526681 -0.397110343 -0.0697853491 0.110030204 0.991475344 -0.0647493228 0.107227996 0.992123842 -0.059341941 0.104216471 0.992782712 0.066202417 -0.994624853 0.0796158388 0.0172217637 -0.999803543 0.00981231872 0.0398415476 -0.925700426 0.376153439 -0.150356129 -0.0107895276 0.988573015 -0.212878585 -0.156529054 0.964459121 -0.187963024 0.161387324 0.968826115 0.355443776 -0.0824630633 -0.931052923 0.383984983 -0.15745832 -0.909814477 -0.807278872 0.0123688485 0.590040565 -0.809871674 0.0159453936 0.586390376 -0.82061106 0.0311641451 0.57063669 -0.181960255 0.0203859694 0.983094513 0.41534102 -0.165947273 -0.894401073 -0.232037514 -0.33646968 0.912659168 -0.257385641 -0.399060965 0.880058527 0.116260752 -0.140643135 0.983210504 -0.374916643 0.109329216 0.920589268 -0.308300734 -0.0814173892 0.947798431 0.877054691 -0.0102699995 0.480280727 -0.0149750225 -0.120998643 0.992539704 -0.173265398 0.0783700943 -0.981752098 -0.175968543 0.451039433 -0.87498486 -0.195035145 0.46519345 -0.86345607 -0.198227942 0.483240575 -0.852750957 0.233524814 -0.379168749 0.895375431 0.317091614 -0.497334868 0.80753386 0.227595702 -0.417084575 0.879909456 0.485536754 -0.820257664 0.30237624 0.347932935 0.777442873 -0.52395153 0.349323213 0.767461777 -0.537564576 0.321675748 0.794771671 -0.514648139 -0.00245105405 0.134692743 -0.990884364 0.0314399749 0.156490475 -0.987178922 -0.0306464229 0.116388284 -0.992730856 -0.790002108 0.013791794 -0.612948954 -0.805668235 0.0320531502 -0.591499209 -0.80870384 0.0357047953 -0.587131381 0.226588145 0.740079224 -0.633198678 0.362258226 0.787416875 -0.498742044 0.174646452 0.715556026 -0.676371336 -0.500595927 -0.859885991 -0.099999167 0.209886372 0.853862286 -0.476305544 -0.187171504 0.972872198 -0.135965034 -0.925526559 0.103252202 0.364334345 -0.996922374 0.0527094491 -0.0580300018 -0.915783107 0.05232355 -0.398250669 -0.837208331 0.541903794 -0.0736374334 -0.153115287 0.978327572 -0.139394775 -0.282092005 0.958766043 -0.0345215537 -0.25593996 0.913516045 -0.31620118 -0.785071731 -0.296641082 -0.543752193 -0.217648849 0.710571349 -0.669116855 -0.573165655 0.307901144 -0.759393156 0.463331342 0.014874775 0.886060297 0.426991582 0.0515477881 0.902785122 0.353992254 0.0319918133 0.934701025 -0.256559074 0.177695885 -0.950053453 -0.130874157 0.0492003001 -0.990177393 0.804478288 0.59369719 -0.0183941238 0.784188271 0.620240092 -0.0187337827 0.730823517 0.682459831 0.0120649645 0.807340324 0.0643117204 0.586571038 0.774720073 0.240418926 0.584814072 0.418347716 0.0621424243 0.906158686 0.0292704422 -0.30719915 -0.951195002 0.0540804528 -0.281296223 -0.958095908 0.0729696378 -0.304904968 -0.949583292 0.926867902 0.37094453 0.0575854518 -0.00975180604 0.994905174 -0.100342512 0.151543796 0.272358567 -0.950186968 -0.142984152 -0.16751048 -0.975446463 0.999179482 -0.0382124037 -0.0134227099 -0.0644705594 0.458850801 0.886171222 -0.0057271868 0.63393575 0.773364544 -0.0544336028 0.952703476 0.298986644 -0.0690308437 0.825584412 0.560040236 0.0177560244 0.943480611 0.33095175 -0.123196922 0.605814397 0.786009789 -0.205170929 0.66428256 0.718772292 -0.113127045 0.598115683 0.793385088 -0.011349149 0.514252007 0.857564032 -0.00504752342 -0.999733865 -0.0225099381 -0.00422881637 -0.99975121 -0.0219017714 -0.0218541287 -0.999148667 -0.0349902213 -0.986360192 0.164522037 0.00510806311 -0.953697979 -0.0533017293 0.296005189 0.998895288 -0.0458178334 0.010439001 0.999418676 -0.0291651767 0.0176541768 0.999090493 -0.0396558866 0.0156723727 0.994208097 -0.103747629 -0.0280488189 0.992398918 -0.120669909 -0.0241497215 0.998521388 -0.0310479924 -0.0446209386 -0.141382411 0.987917483 0.0634823889 -0.329264283 0.216244876 0.919142663 -0.484861135 0.874514997 0.0115406644 -0.962199569 -0.188133463 0.196920678 0.245945513 -0.421219707 -0.872974634 0.266020209 -0.324244201 -0.907798946 0.299942523 -0.358700514 -0.883950472 -0.629582703 0.339508533 0.698827326 -0.578958273 0.690051138 0.434323281 -0.507433891 0.724848747 0.465945452 -0.396756142 0.887521803 0.234285295 -0.820296645 0.248834863 0.514970541 -0.822847545 0.224510968 0.522031367 -0.826879561 0.163349554 0.538132966 0.189702347 0.951726735 -0.241307318 0.244625792 0.933917046 -0.26068601 0.0295930598 0.995203316 -0.0932448283 -0.337405056 0.452705532 0.825357795 -0.292999625 0.228350505 0.928443491 -0.0610217042 0.99140054 0.115764074 -0.3795968 -0.344622582 0.858569443 0.533655882 0.27430281 -0.799980879 0.288007855 0.470426023 -0.834116817 0.646276176 0.474235803 -0.597852468 0.301657259 0.0559877418 -0.95177114 0.664243042 -0.0431772768 -0.74626869 0.966155171 -0.0368531309 -0.255315602 0.988687992 -0.0574077852 0.138565466 0.850746632 -0.0494738631 -0.523242235 -0.834673762 -0.31010133 -0.455144852 0.00276886043 0.538305402 -0.842745304 0.28634423 0.54805553 -0.785902083 0.869705498 0.182139993 -0.458734512 0.787873447 0.453774601 -0.416346103 -0.0669247806 0.667815268 0.741312265 0.997758329 0.0660123304 0.0109840157 0.993389189 -0.0976022631 0.0604289956 0.988862157 -0.131109089 0.0704420805 0.330185145 -0.591515362 0.735586345 -0.0164361671 0.612020493 0.79067111 0.134291559 0.61780256 0.774781108 0.0247914642 0.926553726 0.375344634 0.63388747 0.43716827 0.638020813 0.612876832 0.477831692 0.629332125 0.668583572 0.318659008 0.67190212 0.0376488939 0.99856472 0.0380935185 0.284914523 0.91916281 0.271962285 0.0245674346 0.99941349 0.0238553267 0.323144525 0.944926858 0.0518737361 0.339523226 0.939234257 0.0506263748 0.846199214 -0.102276891 0.522959173 -0.380424708 -0.329118967 -0.86426717 0.730994046 0.116527408 0.672360837 0.546588361 -0.0244840868 0.837043464 0.335902482 -0.00348986196 0.941890299 0.132776394 -0.71913141 0.682070732 0.9472 0.21408017 0.238708571 0.650251329 0.749475062 0.124339804 0.314282298 -0.0650282428 -0.947099745 -0.0426967293 -0.925102472 0.377309442 -0.106544673 -0.942120671 0.317894399 -0.150248706 -0.949545681 0.275296718 -0.059545178 0.0974665359 -0.993455887 -0.220421195 -0.953947127 0.203468263 0.0130739622 0.999557137 0.0267310385 -0.00768925296 0.998988509 0.0443040654 -0.00573315192 0.999073625 0.042649705 -0.0322264805 0.997362435 0.0650351495 -0.0704890564 -0.163271695 0.984059751 -0.0527018718 -0.143798396 0.988202691 -0.0729658976 -0.165978432 0.983426213 0.38170889 -0.905594766 -0.18492271 -0.823190033 0.0537022874 -0.565220535 0.125098124 -0.989123046 -0.0773698613 0.0220281724 -0.998803556 0.0436607301 0.00782158226 -0.998486638 0.0544362217 0.00807614625 -0.998219967 0.0590903535 0.545824945 0.221013904 0.808225214 0.0790953413 0.269115299 0.959854603 0.926157832 -0.374600559 -0.0436586067 -0.954073131 0.0098127136 0.299413025 0.00429110182 -0.180879578 -0.983495891 0.810138524 -0.0123225907 0.586108983 0.413053304 -0.0689409971 0.908093631 0.699690223 -0.0445922986 0.713053405 -0.338912636 -0.334374547 0.879392922 0.00241049682 0.999996722 -0.000837023952 0.0022298533 0.999992609 0.00312586688 0.664999187 0.0306402426 -0.746215284 0.99835825 0.00778082805 -0.0567476526 0.857630432 0.269508213 -0.437990189 0.995196402 0.042239666 0.0883174017 0.418517679 0.247376412 0.873869479 -0.0757628083 0.113353156 0.990661919 0.235822573 -0.671819746 0.702172279 0.997618735 0.0680043474 0.0115030352 0.984211206 0.174247429 0.0310830437 0.985863805 0.164954454 0.0293699075 0.999159992 0.0404719636 0.00643094769 0.0703730732 0.992096126 -0.103889123 -0.00996552687 0.985324681 -0.170399323 0.0613107122 0.991873503 -0.111480594 0.127322704 0.990298569 -0.0556572229 0.00581242703 -0.998678267 -0.0510680676 0.687509 -0.585615456 -0.429401875 0.247000352 0.936205506 -0.250020117 0.000728456536 0.998974144 -0.045278877 -0.00714032771 0.999793291 -0.0190365817 -0.0215485413 0.999493539 -0.023416657 -0.246797591 0.969066978 -0.000444734003 0.999848723 0.0105426926 0.0138358744 0.999989808 0.00449954951 -0.000399827841 0.999620497 0.000899187056 0.0275326278 0.999962509 -0.00518377312 -0.00693693338 0.999910295 -0.0131396661 -0.00259599183 -0.173002511 0.0497132465 0.983665943 0.196146697 0.859264195 -0.472431451 0.969413519 -0.0317312814 0.243373275 -0.139362916 -0.258606374 0.955876946 -0.00169347855 -0.999308527 -0.0371427238 -0.0117071131 -0.998515129 -0.0532023013 -0.00209586136 -0.999283552 -0.0377882943 0.00375312055 -0.999589503 -0.0284024458 -0.0282673687 -0.182503685 -0.982798755 -0.0966686383 -0.0907336697 -0.991172314 -0.0821153224 -0.110503636 -0.990477681 0.101814397 -0.633303821 -0.767176747 -0.226631865 0.427190483 -0.875297844 -0.0916873142 -0.186398834 0.978186548 -0.33066836 0.943239391 -0.0309498012 -0.230081096 0.58071363 -0.780918896 -0.0925191343 0.993432224 -0.0673248246 0.0359242745 0.998851776 0.0316955857 -0.04838809 0.998435855 -0.0280074105 -0.233328804 0.599464238 -0.765637159 -0.694352508 0.0386984646 -0.718593836 -0.000798953639 0.999999583 0.000394426635 -0.00512067229 0.999976635 -0.0045251199 -0.0111678028 0.999910176 -0.00740985572 -0.611350358 0.443456471 -0.655436575 -0.0177025367 -0.360431373 0.932617724 -0.17626366 -0.322350234 0.930065274 0.0208005048 0.624694228 -0.780592382 0.0183309373 -0.999818802 -0.00513583981 -0.999985874 0.00526936864 -0.000734871952 -0.999948144 -0.00602667825 0.00821147859 -0.999979138 0.00547497161 -0.00342327449 -0.999878228 0.0100123603 -0.0119718006 -0.999988616 -0.00353796501 -0.00320080412 -0.999995351 -0.00107949751 0.00284566055 -0.999999404 0.000125975159 -0.00106605655 -0.999998868 0.00126931572 -0.000837830128 -0.999991059 -0.00218189484 0.00361805037 -0.999758899 -0.0143436519 -0.0166243166 -0.999977112 -0.00676209107 0.000157307222 -0.999886155 -0.00102593075 -0.0150522999 -0.648198485 -0.725545645 0.231132478 -0.999667227 -0.0190668702 0.0173763465 -0.999783993 -0.00231891964 -0.0206541419 -0.999991894 -0.00343547575 0.00209243037 -0.998798668 -0.00538876792 -0.0487044379 -0.999898255 -0.00799343362 0.0118136685 0.936772585 -0.349841028 0.00826728251 0.998622715 0.00334135164 -0.0523598865 -0.797067523 -0.00138026802 0.603888571 -0.970105171 0.0565786399 -0.235997424 0.152120605 0.982346177 -0.108881883 -0.718056798 0.02863653 0.695395112 -0.344134569 -0.937539577 -0.0509009846 -0.291415662 -0.359275669 0.886565208 -0.906231582 0.413140625 -0.0897724181 -0.896988153 0.431724072 -0.0950085521 -0.850032628 0.513308346 -0.118148774 0.0562192276 -0.992888808 -0.104934111 0.123335056 -0.991881907 -0.030963894 0.155054718 -0.980128348 -0.123719402 0.136422187 -0.990593851 0.0106207216 0.122047715 -0.992381454 -0.0168352723 0.759208024 -0.650010884 -0.0330004133 0.0302927326 -0.951387823 -0.306502163 0.0309680365 -0.960517347 -0.276491255 0.0881537199 -0.994361043 0.0589495748 0.104121849 -0.988107324 0.113148309 0.0846455842 -0.995461583 0.0434904248 0.0444589145 -0.992920935 0.110142469 0.0544210374 -0.992520273 0.109278992 0.00826505292 -0.992926836 0.118439622 0.763800323 0.0775768012 -0.640773654 0.799347818 -0.10311912 -0.591953993 0.775636852 0.031211732 -0.630407274 -0.00643031718 -0.720054865 -0.693887293 0.526797414 0.0169882514 0.849821091 0.00247242115 -0.999996901 -0.000376958313 0.00501942867 -0.999980748 -0.0036558297 0.00340173743 -0.999993503 -0.00118376233 0.0142755872 -0.999562204 -0.0259152818 0.00949207414 -0.999931753 -0.00681343162 0.00288068852 -0.999990702 0.00321731414 0.00967760105 -0.99994874 -0.00297036348 -0.00323089259 -0.999859035 0.0164751764 -0.0060281246 -0.999745548 -0.0217366591 -0.828783453 0.544922888 -0.127188951 0.179494262 0.0157085415 -0.983633578 0.0687315017 0.992426336 0.101813048 0.08774589 0.995588779 0.033220537 0.106565714 0.990081072 0.0915600508 0.123537123 0.923470676 0.36323607 0.0587016568 0.985165834 0.161252439 0.23853904 0.971128583 -0.00290470291 0.130830258 0.914912522 0.381861866 0.0783307329 0.996392727 -0.0326473825 0.0828235894 0.990129769 -0.113063261 0.114118725 0.988574743 -0.0984729305 0.0793573484 0.939028084 -0.334557384 0.0798116922 0.924383998 -0.37302053 0.908985376 0.404113621 -0.102165103 0.502531767 0.652511597 -0.567177653 0.0202539377 0.999762177 -0.00808808114 0.937844038 0.334255338 -0.0933914855 -0.144641191 -0.024601033 -0.9891783 0.990504682 0.13132368 0.0406759717 0.999223292 0.00537260482 -0.0390374511 0.998388171 0.0563603528 -0.00667843409 0.999820769 0.0146340327 -0.0120126102 0.999819338 -0.00967338495 -0.0163631365 0.997886181 0.0393559486 0.0517133139 0.997191072 0.0715187415 0.0222489089 0.999663949 -0.0026114271 0.0257916152 0.999658644 0.0165378582 0.0202263873 0.998087704 0.06127261 -0.00815912988 0.803032458 -0.139415786 -0.579398096 0.187933505 0.941639423 0.279277921 0.117017798 0.989276588 0.0873991624 0.191781908 0.925324619 0.327099442 0.00994748902 0.999595702 0.0266363025 0.994855046 0.101308428 0.000197952148 -0.827474236 0.143372342 0.542891085 0.537392497 -0.745357454 -0.394527107 0.741554797 0.183918908 0.645190179 0.201923341 0.0944258571 -0.974838793 0.543936014 -0.831607103 0.112085722</float_array>
          <technique_common>
            <accessor source="#normals_array" count="395" stride="3">
              <param name="X" type="float" />
              <param name="Y" type="float" />
              <param name="Z" type="float" />
            </accessor>
          </technique_common>
        </source>
        <vertices id="vertices">
          <input semantic="POSITION" source="#positions" />
        </vertices>
        <triangles material="scout_1a1a1a" count="308">
          <input semantic="VERTEX" source="#vertices" offset="0" />
          <input semantic="NORMAL" source="#normals" offset="1" />
          <p>0 0 1 1 2 2 3 3 4 4 5 5 6 6 7 7 8 8 9 9 4 9 3 9 10 10 11 10 12 10 8 8 13 11 4 12 14 13 15 13 16 13 17 14 5 5 13 15 18 16 19 17 20 18 21 19 20 20 22 21 23 22 22 21 24 23 23 22 21 19 22 21 17 14 13 15 25 24 22 25 20 26 26 27 19 28 26 27 20 26 7 7 27 29 25 30 27 31 17 14 25 24 19 28 28 32 26 27 29 33 30 33 31 33 26 34 28 35 32 36 10 37 12 37 21 37 14 38 16 38 24 38 27 29 7 7 33 39 10 40 34 41 11 42 35 43 27 44 33 45 0 46 36 47 1 48 37 49 0 0 2 2 38 50 0 0 37 49 23 51 34 41 10 40 39 52 40 52 38 52 16 53 41 54 42 55 43 56 44 57 9 58 45 59 46 60 47 61 37 62 15 63 48 64 49 65 39 66 50 67 37 49 48 68 38 50 48 68 39 69 38 50 51 70 47 71 52 72 53 73 50 67 39 66 48 68 54 74 39 69 15 75 14 76 55 77 56 78 53 73 54 79 57 80 56 80 54 80 55 77 57 81 15 75 6 6 58 82 7 7 59 83 60 84 58 85 60 86 61 87 62 88 63 89 64 89 61 89 61 90 60 91 59 92 65 93 66 94 67 95 66 96 68 97 67 98 69 99 70 100 71 101 72 102 64 102 63 102 59 92 63 103 61 90 73 104 74 104 75 104 76 105 73 106 75 107 77 108 78 108 73 108 78 109 79 110 80 111 81 112 80 112 79 112 58 82 33 39 7 7 78 109 82 113 74 114 33 115 83 116 84 117 74 114 85 118 86 119 87 120 88 121 89 122 90 123 31 124 91 125 33 126 92 127 35 128 33 129 86 129 92 129 80 111 93 130 82 113 82 113 94 131 85 118 95 132 93 132 80 132 8 8 7 7 13 11 96 133 49 133 97 133 98 134 99 135 50 67 99 135 49 65 50 67 100 136 72 137 101 138 70 139 69 140 102 141 102 141 103 142 70 139 96 143 45 144 51 145 76 105 70 146 103 147 62 148 61 149 104 150 101 151 72 152 63 153 101 138 105 154 100 136 53 73 56 78 106 155 76 156 107 156 73 156 77 157 73 157 107 157 98 158 106 159 108 160 106 155 98 134 53 73 76 105 109 161 107 162 107 162 110 163 77 164 110 165 111 166 77 167 106 168 112 169 113 170 107 162 114 171 110 163 115 172 114 171 109 161 114 173 116 173 110 173 116 174 111 174 110 174 13 15 5 5 4 4 117 175 93 176 118 177 119 178 120 179 32 36 121 180 122 181 123 182 73 183 78 183 74 183 82 113 93 176 94 131 95 184 124 185 93 176 124 185 118 177 93 176 87 186 89 187 118 177 125 188 111 188 116 188 126 189 127 190 128 191 125 192 116 192 129 192 116 193 130 194 129 195 98 134 50 67 53 73 130 196 131 197 129 198 125 199 129 200 132 201 129 202 131 203 88 121 132 204 129 204 88 204 133 205 134 205 12 205 4 12 9 58 44 57 4 12 44 57 8 8 128 206 135 207 136 208 36 47 0 46 40 209 137 210 9 210 1 210 1 211 9 211 3 211 12 212 134 212 21 212 99 135 98 134 72 137 18 213 20 214 134 215 138 216 65 93 67 95 134 215 20 214 21 217 85 118 94 131 86 119 139 218 6 219 67 220 138 221 67 220 6 219 58 222 6 223 139 224 25 30 13 11 7 7 43 56 9 58 137 225 139 226 67 98 68 97 5 227 17 228 19 17 28 229 17 228 27 230 17 228 28 229 19 17 19 17 18 16 5 227 140 231 130 194 141 232 130 194 114 171 141 232 23 233 10 233 21 233 24 23 16 234 23 22 35 235 32 36 28 35 141 232 91 125 140 231 142 236 143 237 144 238 133 239 34 239 42 239 125 199 132 201 124 240 125 199 124 240 111 241 94 131 117 175 145 242 145 242 86 119 94 131 146 243 30 244 29 245 1 246 36 246 137 246 39 66 54 79 53 73 97 247 46 60 45 59 0 46 38 248 40 209 31 249 30 250 89 251 89 251 131 252 31 249 84 117 60 86 62 88 15 63 41 54 16 53 93 176 117 175 94 131 140 231 31 124 131 197 140 231 131 197 130 196 32 36 35 235 119 178 47 253 46 254 49 255 52 256 47 253 49 255 15 63 54 257 48 64 37 62 41 54 15 63 15 258 57 258 54 258 106 168 56 259 112 169 106 168 113 170 108 260 113 170 103 261 108 260 108 260 103 261 102 262 105 154 147 263 100 136 64 264 102 265 69 266 64 264 148 267 102 265 148 267 108 268 102 265 69 266 61 149 64 264 69 266 104 150 61 149 141 232 115 172 112 269 123 182 120 179 121 180 59 92 147 270 63 103 144 238 149 271 142 236 40 272 39 66 49 65 68 273 66 274 65 275 58 276 68 273 65 275 96 277 51 278 49 279 98 158 108 160 148 280 147 281 105 281 63 281 58 222 139 224 68 282 60 86 84 117 83 116 79 110 78 109 77 283 58 85 60 84 83 284 71 285 150 286 104 287 32 36 120 179 123 182 58 85 83 284 33 288 75 107 74 114 150 289 151 290 95 291 81 292 80 293 81 293 95 293 115 172 141 232 114 171 140 231 91 125 31 124 57 294 136 208 152 295 78 109 80 111 82 113 104 296 69 99 71 101 96 143 97 297 45 144 99 298 100 299 97 300 97 300 49 301 99 298 46 302 97 300 138 303 46 302 138 303 44 304 46 302 43 305 36 306 49 307 46 302 40 308 43 305 46 302 44 304 40 308 46 302 36 306 97 300 100 299 65 309 43 310 137 310 36 310 65 309 100 299 147 311 97 300 65 309 138 303 147 311 59 312 65 309 8 313 44 304 138 303 59 312 58 314 65 309 6 315 8 313 138 303 150 289 74 114 86 119 30 244 118 177 89 187 35 43 28 316 27 44 143 237 55 77 144 238 146 243 145 242 30 244 105 317 101 151 63 153 47 71 51 70 45 318 71 319 70 146 75 107 70 146 76 105 75 107 34 320 12 320 11 320 103 147 113 321 76 105 109 161 76 105 113 321 112 269 115 172 113 321 115 172 109 161 113 321 23 322 16 53 42 55 57 294 152 295 56 323 71 319 75 107 150 289 85 118 74 114 82 113 149 271 122 181 121 180 81 324 79 325 151 326 153 327 126 328 120 329 126 328 128 330 121 331 121 332 128 332 149 332 35 333 153 327 119 334 128 335 142 336 149 337 128 335 136 338 143 339 143 339 136 338 57 340 120 329 119 334 153 327 121 331 120 329 126 328 128 335 143 339 142 336 154 341 155 342 153 343 143 237 57 81 55 77 72 344 98 158 148 280 100 136 99 135 72 137 42 345 34 345 23 345 117 175 30 244 145 242 22 346 26 347 144 348 26 347 32 349 123 350 26 347 123 350 144 348 24 351 22 346 144 348 123 350 122 352 144 348 14 353 24 351 144 348 55 354 14 353 144 348 112 269 91 125 141 232 151 326 79 325 77 355 153 356 35 128 92 127 109 161 114 171 107 162 135 357 127 358 90 359 152 360 135 357 91 361 91 361 135 357 90 359 127 358 146 362 90 359 112 363 152 360 91 361 127 358 155 364 146 362 155 364 154 365 145 366 155 364 145 366 146 362 154 365 86 367 145 366 154 365 92 368 86 367 112 369 56 369 152 369 118 177 124 185 87 370 124 240 132 201 87 371 111 241 124 240 151 290 95 291 151 290 124 240 118 177 30 244 117 175 132 372 88 121 87 120 51 278 52 373 49 279 1 374 3 375 133 376 3 375 18 377 133 376 3 375 5 378 18 377 2 379 1 374 133 376 133 376 18 377 134 380 37 381 2 379 41 382 2 379 133 376 41 382 133 376 42 383 41 382 90 123 146 243 29 245 29 245 31 124 90 123 131 203 89 122 88 121 153 343 155 342 126 384 150 286 86 385 84 386 86 385 33 387 84 386 150 286 84 386 62 388 104 287 150 286 62 388 114 171 130 194 116 193 126 189 155 389 127 190 152 295 136 208 135 207 149 271 144 238 122 181 77 167 111 166 151 390 64 391 72 391 148 391 127 392 135 207 128 206 153 356 92 127 154 393 133 394 12 394 34 394</p>
        </triangles>
      </mesh>
    </geometry>
  </library_geometries>
  <library_visual_scenes>
    <visual_scene id="scene">
      <node id="right_hip_roll_link">
        <instance_geometry url="#geometry">
          <bind_material>
            <technique_common>
              <instance_material symbol="scout_1a1a1a" target="#scout_1a1a1a" />
            </technique_common>
          </bind_material>
        </instance_geometry>
      </node>
    </visual_scene>
  </library_visual_scenes>
  <scene>
    <instance_visual_scene url="#scene" />
  </scene>
</COLLADA>