<?xml version='1.0' encoding='utf-8'?>
<COLLADA xmlns="http://www.collada.org/2005/11/COLLADASchema" version="1.4.1">
  <asset>
    <created>2026-09-14T00:00:00Z</created>
    <modified>2026-09-14T00:00:00Z</modified>
    <unit name="metre" meter="1" />
    <up_axis>Z_UP</up_axis>
  </asset>
  <library_effects>
    <effect id="scout_1a1a1a_effect">
      <profile_COMMON>
        <technique sid="common">
          <lambert>
            <emission>
              <color>0 0 0 1</color>
            </emission>
            <ambient>
              <color>0.05 0.05 0.05 1</color>
            </ambient>
            <diffuse>
              <color>0.1 0.1 0.1 1</color>
            </diffuse>
          </lambert>
        </technique>
      </profile_COMMON>
    </effect>
  </library_effects>
  <library_materials>
    <material id="scout_1a1a1a" name="scout_1a1a1a">
      <instance_effect url="#scout_1a1a1a_effect" />
    </material>
  </library_materials>
  <library_geometries>
    <geometry id="geometry" name="right_shoulder_yaw_link">
      <mesh>
        <source id="positions">
          <float_array id="positions_array" count="747">-0.0300033353 -0.0164804365 -0.199588254 -0.0276450198 -0.0155552598 -0.206882149 -0.0287363958 -0.021110557 -0.203358933 -0.0285399277 -0.0185682494 -0.171280846 -0.0220724791 -0.0218317956 -0.170232311 -0.0205695573 -0.0270939153 -0.16532737 -0.0129116494 -0.0225821938 -0.162325427 -0.0122812716 -0.0287134256 -0.158525735 -0.0168291777 -0.0236034673 -0.133657306 -0.0231639314 -0.0167655982 -0.132227823 -0.0248900615 -0.00955391955 -0.12763077 -0.0233460162 -0.0139609324 -0.0978233293 -0.0264789015 -0.00969787501 -0.0534086525 -0.0112570925 -0.0161347426 -0.206854343 -0.0119218649 -0.0216947198 -0.203770429 -0.0213233698 -0.0217485391 -0.0347714834 -0.0230366271 -0.0159414392 -0.0703278482 -0.0171840135 -0.0222977418 -0.0733979046 -0.0181403384 -0.0208704434 -0.113848515 -0.026521964 -0.0163020995 -0.0237527974 0.0039764517 -0.00397641119 -0.000458645809 0.00390212913 0.00390215474 -0.000556038052 0.00328555284 -0.00357098156 -0.0086218575 -0.0206158292 -0.0246962886 -0.000770313607 -0.0161044337 -0.0278633405 -0.000587744405 -0.0153381517 -0.0253654327 -0.0437971354 -0.0254241116 -0.0189989321 -0.000584496651 -0.028286241 0.010752799 -0.20570223 -0.0269557796 -0.0140250884 -0.214221954 -0.0272033736 0.0092204446 -0.212741315 -0.0229788851 0.0101184752 -0.222685501 -0.023118943 -0.015010871 -0.222125262 -0.00128803402 -0.0218672082 -0.155414343 0.0158711802 -0.0217113793 -0.166349769 -0.00164291647 -0.0240121223 -0.177239016 0.0272226259 -0.0239170883 -0.170994714 -0.0300539453 -0.00716106454 -0.00401039841 -0.028198367 -0.0133176651 -0.000369400746 0.016139172 0.0270867962 -0.016230423 0.00909011625 0.0288490932 -0.0239639115 0.0125910034 0.0288090799 -0.00077800249 -0.000740365067 -0.0170056745 -0.221776366 -0.0182308163 -0.0159706511 -0.228995025 -0.0115156872 -0.0159752481 -0.234542817 -0.00579329208 -0.016740039 -0.216786563 -0.00596586242 -0.0233762264 -0.213389635 0.00119413715 -0.0234448779 -0.221252844 -0.0097277863 -0.0239268932 -0.202396497 -0.0104766162 -0.0216834042 -0.184787303 0.00203744322 -0.0216450077 -0.170835331 -0.00876606535 -0.0252545178 -0.118858479 -0.00298045832 -0.0279595666 -0.153028518 -0.00915268902 -0.0254430585 -0.0692685246 -0.0258164275 0.00919997133 -0.0658791065 -0.0248394366 0.00851342082 -0.119139731 -0.00882236008 -0.030028576 -0.00468882313 -0.00981748756 0.0263159666 -0.132989898 0.0209575575 0.0268009584 -0.140241086 0.00557243824 0.0275112782 -0.149053469 -0.00417483784 0.00992186181 -0.24039121 0.00202924083 -0.0151868537 -0.243190214 -0.00916310214 -0.0140860016 -0.237681061 -0.00350566767 0.00312626851 -0.00909129903 -0.00356209325 -0.00328584411 -0.00823602825 -0.0234766174 0.00990630127 -0.216021925 -0.0237478036 0.0170052219 -0.136946946 -0.0264163725 0.0141494367 -0.147977188 -0.023320023 0.0139287142 -0.106382951 -0.025064718 0.0188556984 -0.0230293833 -0.0228316598 0.016477881 -0.0709665939 -0.0292318687 0.0203536991 -0.203823566 -0.00857577659 0.019775752 -0.204722896 -0.0133430334 0.0184993464 -0.204039842 -0.0278487168 0.0211522356 -0.17863138 -0.0292468537 0.0151134599 -0.173645258 -0.0254151076 0.0223126393 -0.163886204 -0.0195783209 0.0211997014 -0.170852438 -0.0200639348 0.0269934423 -0.165019304 -0.0113034081 0.0225192793 -0.160801411 -0.0141767627 0.0284895916 -0.159637481 -0.0168888438 0.023971729 -0.134382308 -0.0190245621 0.0200965181 -0.112527929 -0.0188939571 0.0258465912 -0.000620311475 -0.0163329951 0.0257250462 -0.03435627 -0.0273139514 0.0164464414 -5.60762055e-05 -0.0124034137 0.00971606933 -0.235167041 -0.00392467901 0.0176946726 -0.215949327 -0.00275369268 0.0119574927 -0.218316436 -0.00875498354 0.0111989835 -0.210148782 -0.0126027521 0.0113220867 -0.19953239 -0.0140532982 0.010750941 -0.206266686 -0.0131876031 0.016273262 -0.199618548 -0.00966966338 0.0147478618 -0.203403622 -0.00392488809 0.0205623917 -0.158798754 -0.00348924543 0.0266103782 -0.154221892 0.00205777236 0.0229101367 -0.152863204 -0.0104430877 0.0247157589 -0.106978215 -0.0148445312 0.0234613065 -0.0761265606 -0.0100096744 0.0253483672 -0.0688506365 -0.00887017045 0.024189258 -0.0709348693 -0.00775525253 0.029367296 -0.0185510367 0.0272064228 -0.0144537799 -0.0264470614 0.0297502857 -0.00624707155 -0.015273951 0.0284050424 -0.0137619879 -0.000609800161 -0.012819415 0.0288102552 -0.000640815066 0.0248305555 -0.00973798148 -0.0745345056 0.0252611507 0.00930699892 -0.0686106309 -0.0040344554 0.00394346518 -0.000446422666 -0.00371313584 -0.00401709089 -0.000607074704 0.00701894471 -0.0179293808 -0.225428492 0.0103333713 -0.023505291 -0.225643098 0.0186258685 -0.0183177665 -0.228813469 0.0127487136 -0.0158888493 -0.229554489 0.00633981964 -0.0272842087 -0.149166659 0.0122401491 -0.0218802486 -0.149638981 0.0167333428 -0.0252350569 -0.144471228 0.0338056274 -0.00329393893 -0.0106804837 0.0379526205 0.00380280241 -0.0064830482 0.0399497151 -0.0029195759 -0.0022648084 0.0136757325 -0.0231572837 -0.0925124064 0.00666095782 -0.0247816294 -0.0909163281 0.0143849058 -0.0254099723 -0.122963376 0.0191691443 -0.0215888321 -0.112400264 0.010571273 -0.0255015176 -0.0646371245 0.021870615 0.0277281664 -0.194445044 0.0239997637 0.0280000325 -0.198000431 0.0218549035 0.027822366 -0.201730981 0.0394113995 0.0132446401 -0.145461947 0.036730662 0.0201996453 -0.14592351 0.0307047237 0.0110308751 -0.130278438 0.0185275879 -0.0250648186 -0.0251845717 0.00913632661 -0.0300794207 -0.00570431398 0.0165068116 -0.027419202 -0.000485217606 0.0354756564 -0.0117608951 -0.139791235 0.0570051037 -0.0153364819 -0.166181833 0.029266201 -0.0234311391 -0.224952802 0.025189992 -0.0161451679 -0.228011578 0.0352026001 -0.0161702633 -0.223448634 0.00780460471 0.0246534217 -0.0896328092 0.0134760439 0.0254493896 -0.122380175 0.0365577452 -0.0216253698 -0.171412453 0.0214551464 -0.026596725 -0.13932687 0.0273042247 -0.0218540691 -0.139152646 0.0287074223 -0.0197323617 -0.13386932 0.0343528427 -0.0210459977 -0.143561825 0.0251003876 -0.0166078135 -0.119498543 0.0209138449 -0.0173459519 -0.0811773464 0.0249752589 -0.0206994005 -0.00158182078 -0.030060824 0.00932442117 -0.00337235769 0.0151947299 -0.0160714407 -0.245998874 0.0186205823 0.0100049758 -0.24617976 0.0216645151 -0.0163617413 -0.245980352 0.0310335122 -0.0152304685 -0.244470716 0.0277412292 -0.00859712344 -0.120978445 0.0245806538 -0.00957542192 -0.0980234817 0.0305609703 -0.00431129429 -0.000818770728 0.0408043228 -0.0224561282 -0.217008993 0.0474330857 -0.0232472066 -0.204080686 0.0407839827 -0.0178004447 -0.220721945 0.0427075252 -0.0167170968 -0.216509208 0.0478475057 -0.016504718 -0.206647724 0.0489573069 -0.021647213 -0.189008147 0.041682601 -0.0238841027 -0.180667907 0.0420032367 -0.0211008396 -0.152536884 0.0315943174 0.0100021502 -0.244391263 0.0410767719 -0.0141006717 -0.240743041 0.0491580889 -0.0157470684 -0.235131174 0.0211520009 0.0193199441 -0.0629647151 0.0229572169 0.0138245998 -0.0815929621 0.0553334244 -0.0159361847 -0.228942215 0.0645678714 -0.0157384854 -0.206598148 0.0661806986 -0.0203459002 -0.203157723 0.0515809692 -0.0210543014 -0.162381187 0.0595007017 -0.020986544 -0.172342658 0.0598732382 0.0101360921 -0.222503141 0.0624782071 -0.014987411 -0.21771118 0.0640118271 0.0069087781 -0.213831753 0.0630506501 -0.0209026393 -0.176362932 0.0664245933 -0.0193533376 -0.185272455 0.00595837692 0.00993660931 -0.244592458 0.00184121821 0.00679258443 -0.243175 0.00845145341 0.0179586243 -0.225847512 0.0103857592 0.0125772329 -0.225564495 0.0075086141 0.0107482327 -0.227141142 0.0174402818 0.0179626402 -0.227704108 0.0100161973 0.0186212398 -0.209287852 0.0109309703 0.0212636031 -0.201745793 0.0143135237 0.0221258234 -0.203524813 0.0137692671 0.0282025188 -0.200086951 0.0128344204 0.0209411494 -0.1919958 0.0210210849 0.0188028961 -0.211924508 0.016349541 0.0278468244 -0.19356209 0.0169085972 0.0221461356 -0.146729693 0.0101099359 0.0243684575 -0.0856529772 0.0088384347 0.0113052344 -0.0884587839 0.0175277274 0.0209129378 -0.084892258 0.00849497598 0.0114056915 -0.0713067874 -0.0087004276 0.011294215 -0.0713730305 0.00987578649 0.024581179 -0.0732466951 0.0141923325 0.0251543261 -0.0524334759 0.00769099686 0.0255238861 -0.0701582059 0.000631818315 0.0301042572 -0.000129283188 0.0276759136 0.0111060767 -0.225558102 0.026059581 0.0181445275 -0.228073657 0.0337828882 0.0137717295 -0.222099513 0.0261478648 0.0131442454 -0.11603456 0.029328052 0.0211025532 -0.137151524 0.0245104358 0.00977940299 -0.0984246731 0.0257032663 0.0175168086 -0.0265755877 0.0289874095 0.0104041435 -0.0205747187 0.0301594418 0.00516224513 -0.0135768363 0.0273615532 0.016277777 -0.000365289772 0.0297053363 0.00545569975 -0.000751918589 0.034768153 0.018131461 -0.224295259 0.0203207992 0.0221717581 -0.204927027 0.0191331003 0.0257714763 -0.198009923 0.0218644738 0.021161871 -0.190865085 0.0251677036 0.0211487338 -0.202931732 0.0259303134 0.0214193501 -0.197355732 0.0240370017 0.0280026253 -0.198000878 0.0239997078 0.0280000716 -0.197999507 0.044611007 0.0178362727 -0.208871901 0.03270071 0.0210943501 -0.15372017 0.0203821491 0.0221622176 -0.12190336 0.0215522908 0.0173698459 -0.103343278 0.0210595708 0.0227340925 -0.0301464982 0.0191789847 0.0254098214 -0.000313334196 0.0423334166 0.00980720576 -0.239743814 0.0346271247 0.0101065235 -0.240330771 0.0373853296 0.0112932483 -0.222138986 0.0376415402 0.0179717988 -0.218388826 0.0424651876 0.0108767608 -0.215568796 0.0463594422 0.0107336799 -0.208704114 0.0486439876 0.0115919588 -0.204053804 0.0486401729 0.0197073445 -0.20440799 0.0656246394 0.0204301365 -0.203978285 0.0649551004 0.0108403256 -0.205784768 0.0376782939 0.0031508042 -0.000888165028 0.051592052 0.0210653637 -0.162664384 0.0598548576 0.0209437944 -0.17302914 0.0595104173 0.0101063093 -0.215144932 0.0609717555 0.0149994222 -0.171302631 0.0650988892 0.0209513325 -0.184882239 0.0664061457 0.0172995012 -0.184354007 0.066719234 0.0195171032 -0.198992014 -0.00888087973 0.0242892541 -0.089341484 -0.00859885849 0.0113549978 -0.0884519145 0.00339825125 0.00304292887 -0.0090996502 0.0516097769 0.0102064097 -0.233148336</float_array>
          <technique_common>
            <accessor source="#positions_array" count="249" stride="3">
              <param name="X" type="float" />
              <param name="Y" type="float" />
              <param name="Z" type="float" />
            </accessor>
          </technique_common>
        </source>
        <source id="normals">
          <float_array id="normals_array" count="1437">-0.989471316 -0.104562804 -0.100065418 -0.972191989 -0.0131106004 -0.23381798 -0.976161897 -0.119619489 -0.181105211 -0.976494789 -0.195932418 0.0898246244 -0.0128805907 -0.989198267 -0.146016672 -0.45870927 -0.885583162 0.0729952902 -0.0844142362 -0.996420383 0.00454039546 -0.242753074 -0.697644651 -0.674064457 0.439732045 -0.644143879 -0.625870883 0.544969141 -0.457473695 -0.702656686 -0.214708507 -0.968934178 0.122747064 -0.553352237 -0.824898601 0.115514465 -0.650857747 -0.745608807 0.143009424 -0.856634498 -0.505619943 0.102595672 -0.99025172 -0.13181147 0.045025602 -0.864718139 -0.501921535 -0.0183667429 -0.983522415 -0.170499444 -0.0601134114 -0.0338975452 -0.519537091 -0.853775263 -0.0156151624 -0.483559251 -0.875172317 -0.02122036 -0.49469012 -0.868810356 -0.688011825 -0.723364174 -0.058171656 -0.835555673 -0.548099458 -0.0378650203 -0.563462198 -0.825500011 -0.0325583182 -0.602621973 -0.797443211 0.0305131916 -0.88664639 -0.459822059 -0.0492126383 -0.99643749 -0.00836251024 0.0839188173 -0.997386992 0.00446606474 0.0721054971 -0.997552872 0.00724946801 0.0695393011 -0.668880284 -0.741690814 -0.0499394834 -0.470892161 -0.880145073 -0.0600437857 -0.433033049 -0.899371386 -0.060111817 -0.833899319 -0.551365197 -0.0246647988 -0.956836224 -0.0158881769 -0.290193141 -0.96259886 -0.00838431995 -0.270800978 -0.964502156 0.00654204097 -0.263993949 -0.850405514 0.0115184523 -0.526001692 -0.632984221 -0.743851006 -0.214514837 0.259623766 -0.831981421 -0.490308523 -0.0208023787 -0.99209398 0.123761006 -0.0777265579 -0.991654158 0.102861904 0.104757763 -0.903759301 0.415024072 -0.982918739 -0.1060021 0.150447071 -0.945098102 -0.316607118 0.0809287876 0.453870595 0.890156627 -0.0402827039 0.157606184 0.985561609 -0.0618760064 0.282073885 0.959350109 -0.00903977081 -0.0128337648 -0.998105228 -0.0601772517 -0.0816203728 -0.996657968 -0.00332702673 -0.0110568721 -0.997919858 -0.0635114759 -0.854521096 -0.18708545 -0.484554201 -0.768138349 -0.263544232 -0.583530605 -0.803189397 -0.245824352 -0.542639136 -0.556764007 -0.246030062 -0.793399692 -0.580802202 -0.251644939 -0.774172902 -0.404905856 -0.913398623 -0.041882772 -0.367925644 -0.924232244 0.102105185 -0.670540035 -0.732282639 -0.118904412 -0.850600958 -0.173594579 -0.496329516 -0.154802456 -0.982645452 -0.102196604 -0.62256211 -0.546740115 0.559903264 0.502151728 -0.417652935 -0.75723815 -0.191648468 -0.980092525 0.0518604144 0.432641536 -0.429001331 -0.792955935 -0.0687516928 -0.997608006 0.00717176311 -0.166055962 -0.984943092 -0.0480890609 -0.981859267 0.185135379 -0.0409551039 -0.993848979 0.108897194 0.0201402791 -0.105268553 -0.979209363 0.173400044 -0.154113501 0.984871507 0.079228431 0.233663112 0.959782958 0.155621886 0.00398849184 0.996944964 0.0780053884 -0.468796402 0.0166231375 -0.883149803 -0.32664749 -0.0143544571 -0.945037246 -0.528871953 -0.295235574 -0.795694888 -0.545353532 -0.471772403 -0.692834973 -0.752956867 -0.0301782172 -0.657377541 -0.392611444 -0.627696574 -0.672200322 0.0323197655 0.102462269 0.994211733 0.0612222068 0.131435335 0.989432454 0.030453559 0.100587405 0.994462013 -0.12590085 0.991835594 -0.0202775411 -0.0690201446 0.99743098 -0.0191749129 -0.353591055 0.911252439 -0.211169094 -0.0894043595 0.988403082 -0.122744344 -0.84686619 0.517902195 0.120809533 -0.97246331 0.203086153 0.114328913 -0.900522768 0.434751838 -0.00704415468 -0.819123864 0.570845246 -0.0563193336 -0.825775385 0.562846601 -0.0360385925 0.00539561315 0.161333367 -0.98688519 -0.0696605444 -0.255816877 -0.964212179 -0.0478468649 -0.140687019 -0.988897264 -0.957172513 0.28057307 0.0714107901 -0.9974401 0.0417453162 -0.0580567382 -0.985129774 0.152071834 0.0799593851 -0.849313021 0.510521412 0.134295627 0.0802295655 0.992581248 -0.0913546681 0.143424943 0.980097115 -0.137255087 0.015970761 0.999211788 -0.0363413692 -0.599217415 0.542517364 -0.588738859 0.573165417 0.547501862 -0.609690964 0.451740146 0.646595418 -0.614691138 0.520626903 0.390675426 -0.759157658 -0.538636446 0.836042345 0.104422376 -0.541996837 0.828983724 0.137932539 -0.666308939 0.743939757 0.0508536547 -0.597372234 0.801532865 -0.0262951888 -0.49167183 0.868443251 -0.0637587234 -0.843702972 0.536161959 -0.0263755359 -0.028272815 0.998528063 -0.0462853275 -0.0973065868 0.988666773 -0.114321552 -0.784548938 0.172310054 -0.595644414 -0.700867712 0.145093843 -0.698378265 -0.870980084 0.314225644 -0.377698243 0.992531359 0.0277727637 -0.118786246 0.991069376 0.0193651803 -0.1319336 0.977662086 -0.0298241172 -0.208056122 0.99275142 0.117691979 0.0243566539 -0.125498235 0.99045676 -0.0569701642 -0.067815043 0.99717325 -0.0323517248 -0.0881058499 0.995245576 -0.0415161811 -0.881566107 0.228307933 -0.413178831 -0.833245158 0.0986339599 -0.544034779 -0.647817016 -0.689322889 -0.324294716 -0.748564839 -0.0998301357 -0.655503333 -0.913352489 0.0948116183 -0.395977199 -0.0750956386 -0.237765938 -0.968415201 0.19267121 0.923904657 -0.330572307 -0.256182194 0.959555745 0.1167197 0.465536863 0.300839573 -0.832328677 0.369202226 0.572974086 -0.731703758 0.396950096 0.420403808 -0.815899074 -0.238619909 0.970786452 0.0251839124 -0.413982421 0.909673512 -0.0333572701 -0.0928113014 0.975528479 -0.199324593 0.044912938 0.927581429 -0.370911717 -0.141684547 0.988482654 -0.0531750508 0.918717563 -0.389706016 -0.0639319494 0.977898598 -0.116113588 -0.17387329 0.943186939 -0.330933124 -0.0296937395 -0.281335741 0.959350705 -0.022281142 0.975513697 -0.212834209 -0.0554488264 0.977729321 0.202603981 -0.0547446162 0.99888289 0.0183437131 0.0435479805 0.99894613 0.021682037 0.0404536165 0.998927236 0.0398444384 0.0235965103 -0.396214962 -0.330973834 -0.856428683 -0.273345351 -0.250808656 -0.92864275 -0.215748653 -0.722448528 -0.656902254 -0.237979203 -0.697813511 -0.675590217 0.0200113356 -0.43227005 -0.90152216 -0.0495858043 -0.986266553 0.15754202 0.377377331 -0.486548424 -0.787944794 0.430674046 -0.501670599 -0.750230968 0.587548852 -0.439208746 -0.679619074 0.730992377 0.0159389358 -0.682199478 0.754038393 -0.053422574 -0.654654264 0.803886473 -0.125939637 -0.581296563 0.407967687 -0.912328124 0.0349245332 0.111410342 -0.993767023 -0.00385832856 0.22880888 -0.968180001 0.101360627 0.648946941 -0.748949051 0.133952111 0.159592211 -0.985705614 -0.0539881475 -0.105122834 0.994373202 0.0130831366 -0.0936318859 0.995499372 -0.0146309687 -0.105122834 0.994373202 0.0130831357 0.791715682 0.167159736 0.587574601 0.769091606 0.0865082294 0.633257031 0.910639703 0.161910504 0.380158305 0.551468909 -0.831857026 -0.0624172203 0.141354591 -0.980712116 0.134991348 0.515024126 -0.856265843 -0.0394840315 0.834031045 -0.17156364 0.524364471 0.786943913 -0.142491013 0.600346208 0.0173501428 0.997349262 0.0706638619 -0.00625113118 0.99872309 0.0501311123 0.0202887431 0.997109652 0.0732165724 0.3619847 -0.285090834 -0.887519181 0.280199915 -0.234074876 -0.930965602 0.460521132 -0.314502031 -0.830065489 0.20238997 0.979166925 0.0164450649 0.211049348 0.970057786 0.120191626 0.234650835 -0.88090986 0.411019206 0.187699914 -0.626713872 0.756305754 0.495299786 -0.532684922 -0.68623966 0.395438522 -0.730791092 -0.55639261 0.474094123 -0.559729576 -0.679659903 0.681813955 -0.660591602 0.314242691 0.558923542 -0.790246785 0.251225889 0.341349155 -0.930116951 0.135510772 0.0895056427 -0.995358944 0.035345573 0.860627174 -0.430704653 0.271687984 0.803620636 -0.594082117 -0.0355015062 0.779760122 -0.625143349 -0.0342039913 -0.960525453 0.136099428 0.24262695 -0.0963172615 -0.0101448763 -0.995298982 0.00907335524 0.00501866592 -0.999946237 0.0844904706 0.00221845089 -0.996421814 0.243030354 0.00201605656 -0.970016599 0.956530631 -0.107331902 0.271162271 0.972264647 -0.22715123 0.0557112657 0.974533975 -0.222863153 -0.0248095598 0.522381485 -0.848531187 0.0843352824 0.406135261 -0.912961423 0.0394417197 0.252915323 -0.967346311 -0.0165804978 0.189709932 -0.969274461 -0.156579643 0.0982454419 -0.995006442 0.0176087525 0.0224360824 -0.999690831 -0.0107186772 0.413752913 -0.444955438 -0.794243753 0.196306154 -0.610851228 -0.767023265 0.900426388 -0.268819481 -0.342006475 0.87677598 -0.250873357 -0.410276085 0.874247074 -0.253885686 -0.413804471 0.863114238 -0.230554819 -0.449308723 0.866340101 -0.223333389 -0.446740508 0.728482664 -0.452991247 0.513918221 0.0931921303 -0.994225323 0.0532092117 0.747068763 -0.329740107 0.577199936 0.697586298 -0.384834051 0.604380727 0.263766974 0.00590257393 -0.964568377 0.467424065 0.00270272698 -0.88402909 -0.0576856174 -0.991625071 -0.115551338 0.00891581364 -0.995512843 -0.0942055658 0.030691551 -0.998314321 -0.0492605306 0.321871519 -0.676807344 -0.662065387 0.77401787 0.629712522 -0.0660186708 0.871203661 0.490283161 -0.0250327867 0.0939117819 -0.995186031 -0.0280249342 0.11748153 -0.991436005 0.057032574 0.180885911 -0.982694507 0.0398979783 0.0439387411 -0.406271249 -0.912695467 0.104867198 -0.522916675 -0.845908403 0.127495065 -0.564391971 -0.815602064 0.712540448 -0.236971259 0.66040194 0.71364063 -0.347819418 0.608061492 0.779237747 -0.00920469314 -0.626660824 0.845634043 0.00822226517 -0.533699751 0.927140415 -0.0209760852 -0.374126583 0.0858004242 -0.996043622 -0.0231378134 0.0688998103 -0.997354686 -0.0231624562 0.965141118 -0.00401466526 -0.261699378 0.886589408 -0.0646223724 0.458020866 0.50432086 -0.862542927 0.0409904011 0.0957479328 -0.995375454 0.00774905598 0.143062174 -0.988987148 0.0379166417 -0.240616769 0.0167007372 -0.970476508 -0.375007153 0.0263594352 -0.926647067 0.425390601 0.105634391 -0.898823798 -0.434693843 -0.809536695 -0.394577712 -0.616178453 0.209197327 -0.759315848 -0.612590849 0.216487274 -0.760174751 -0.200678349 -0.123245865 -0.97187376 -0.0647742301 -0.296488911 -0.952837169 -0.136700958 -0.20590204 -0.968977392 -0.0693362504 0.972879469 -0.220676258 0.00481668953 0.918924749 -0.394403517 -0.126147538 0.976923764 -0.172356427 -0.221853614 0.899291873 -0.376901954 -0.878611863 0.401386499 0.258708477 -0.923649549 0.332076341 0.191302806 -0.872178257 0.409860641 0.267056882 -0.270933151 0.471006662 -0.839492679 -0.345814168 0.438371778 -0.82960397 -0.504534006 0.390465409 -0.770053387 0.0165941082 0.98098892 -0.193352982 -0.8029356 0.486744225 0.344055921 0.256897211 0.862297833 -0.436401486 0.146691114 -0.98819083 -0.044278685 -0.00107676897 -0.998151779 -0.0607610196 0.0704988316 -0.995163202 -0.0684115365 -0.975228071 0.0485714152 0.215803295 -0.865797937 -0.0230919067 0.499860674 -0.993143737 0.0779578388 0.0871096551 0.60703522 0.794617236 -0.00957907643 0.429078609 0.896124899 -0.113365509 0.024672756 0.0625429377 -0.997737229 0.003630172 0.0340069495 -0.99941498 0.0195427891 0.0555895269 -0.998262405 0.326618373 0.942030191 -0.07680884 0.41864574 0.904805422 -0.0778646544 0.166445628 0.98141557 -0.0954950973 0.0103628635 0.999816775 -0.016092509 0.0516989641 0.604150176 -0.795191646 0.47445628 -0.295073271 -0.829350948 0.436533958 -0.357148826 -0.825761974 0.540811479 -0.170213014 -0.823741794 0.92248714 0.329902917 0.200453311 0.691321969 0.606011093 0.39347744 0.978544056 0.199046046 0.0532183461 0.853241205 0.518925905 -0.0519170351 0.974171579 0.216714337 -0.0634401068 -0.00731495069 -0.995274782 0.0968227834 -0.00388552155 -0.995576501 0.0938738137 -0.00809898414 -0.995202899 0.0974967331 0.961850107 0.108373754 -0.251196206 0.883728981 0.467995673 -0.00175578287 0.97712791 0.21055682 0.0297803041 -0.0310542881 -0.340483844 -0.93973738 -0.0283916052 0.99880147 -0.0398692302 -0.00012530612 0.999150038 -0.0412211157 -0.0262955092 0.991787374 -0.125165448 -0.0330066085 -0.343081981 -0.938725352 0.347853094 -0.483244747 -0.803413212 0.0936061889 0.456130356 -0.884976268 0.223108932 0.929393113 -0.294025302 0.22521019 0.929313123 -0.292673022 0.4506464 0.883176744 -0.130063906 0.00113058439 0.374944597 0.927046537 -0.126010343 0.279998273 0.951694489 -0.00951157138 0.367367446 0.930027246 0.0469359085 0.48208937 -0.874863923 -0.0526586995 0.891918302 -0.449120075 0.152174428 0.814311981 0.560124099 0.149020821 0.473229259 0.868243515 0.41905123 0.358141541 -0.834344447 0.879646838 0.318509549 -0.353232414 0.88519299 0.380452245 -0.267748952 0.876186848 0.460522324 -0.142182484 0.808669865 0.282249659 0.516128063 0.808168888 0.281337678 0.517409086 0.808525383 0.281986386 0.516498148 0.842804313 0.193152606 -0.502367377 0.809170723 0.283164829 0.514840126 -0.0683688074 0.997576654 0.0129032042 -0.0695854872 0.997547626 -0.00752415787 -0.131815195 0.991021097 -0.0224042982 -0.0669285208 0.997100651 0.0362063162 0.10974481 0.899822414 -0.422227114 0.151447624 0.928677142 -0.338559359 0.0404525511 0.954128146 -0.296653181 0.5264256 0.500326931 -0.687421978 0.0101054329 0.999903917 -0.00948822591 0.550051153 0.798700809 0.24396871 0.565980673 0.460703939 -0.683679581 -0.858077228 -0.00666501559 -0.513477445 0.795440555 0.601212204 0.0762768909 0.66178298 0.747406602 -0.0585373119 0.619062543 0.785310209 -0.00702641858 0.494232565 0.0119547164 -0.869247556 0.0260497332 0.998005867 -0.0574956387 0.0314783677 0.996785223 -0.0736775547 0.0137492409 0.999196231 -0.0376542956 0.291266739 0.436907947 -0.851043522 0.813448071 0.264689296 -0.517920673 0.793529868 0.272192299 -0.544262469 0.819615185 0.256280363 -0.512397647 0.813218415 0.155241564 -0.560870588 0.859256864 0.200403795 -0.470654845 0.824072719 0.102334246 -0.557164133 0.747957408 -0.0285899136 -0.663130701 -0.0131693333 0.0338427424 -0.999340415 -0.0589585118 0.121744514 -0.990808845 -0.0948985666 0.190678537 -0.977054715 0.208144829 0.977586448 0.0316302776 0.202749729 0.97860533 0.0349887423 0.064841859 0.990817428 0.118643865 0.277504861 0.960647345 -0.0121551948 -0.591495395 0.806223452 0.0116993068 -0.273045391 -0.382791907 -0.882562518 0.882465303 0.204111204 -0.423784882 -0.00540675875 0.99987793 -0.0146603379 0.00437827036 0.99996835 -0.00664206268 0.736687541 -0.208830759 0.64318049 0.736068726 0.253410071 0.627683163 0.145975262 0.989288211 -0.000171153835 0.280666828 0.956719756 -0.0768986866 0.608660281 0.746853173 -0.267848849 0.605015218 0.685127795 -0.405655712 0.0112542426 0.99408704 -0.1080015 0.0319296531 0.996550739 -0.0765974745 0.0247002263 0.980855405 -0.193164513 -0.0959628597 -0.993469596 -0.0617191494 0.842399478 0.1377763 0.520942211 -0.06713707 0.997320235 -0.0290685426 0.0129533717 0.999761164 -0.0176004265 0.900964856 0.373233885 0.221266478 0.815080106 0.304503411 0.492871314 0.959027767 0.171339095 0.225629374 0.982867658 -0.00416291924 0.184265763 0.988671184 -0.00728304964 -0.149920747 0.919949591 0.387802184 -0.0574654602 0.648379266 0.761311829 -0.00292791217 -0.0391376913 -0.529674411 -0.847297609 0.00312056649 -0.997540653 0.0700206757 0.0194727983 -0.996882081 0.0764649808 -0.0586820543 0.997921467 0.0266308058 -0.656857908 0.0116991643 -0.753923595 0.0186100937 -0.895852923 0.443960786 0.0104242107 -0.87650609 0.481277913 -0.0707020983 -0.997473419 -0.00692949258 -0.0352225713 -0.998315096 -0.0461121537 -0.10593003 -0.994331896 0.00910392497 -0.00891734939 -0.99989742 -0.011206544 0.00573966186 -0.99994427 -0.00885787793 0.0168656316 -0.999648571 0.0204525329 0.0331514217 -0.999304235 0.0170899741 0.0272783339 -0.999468982 0.0178222489 0.0203817822 -0.999554515 0.0218034312 -0.0346413963 -0.999394596 0.00323315267 -0.0304039661 0.0103171719 0.99948442 0.00895356666 -0.0033439924 0.999954343 0.00299666775 -0.0210902672 0.999773085 0.00064032583 0.00598359294 0.99998188 0.0122964997 -0.0137626454 0.99982965 -0.0194525253 0.00913863536 0.999769032 0.0312783085 -0.0245675016 0.999208748 0.0388077907 -0.021296205 0.999019742 0.096245043 -0.0825736299 0.99192667 0.0446853228 -0.0191949531 0.998816669 0.172890857 -0.155858457 0.972531199 0.351474285 -0.298110604 0.887466013 -0.0380139388 0.279230863 -0.959471226 -0.00483735744 0.218730256 -0.975773394 -0.00729180593 0.998620808 -0.0519935079 0.944391847 -0.0119544538 -0.328604758 0.952091992 0.000671152375 -0.305810958 0.0334237888 -0.99586308 0.0844960436 -0.00175367121 0.999997795 -0.00115515268 -0.0064596138 0.999961197 -0.00598604884 -0.00182193494 0.999997616 -0.00122522877 0.00285522547 0.99998951 0.00357609172 0.999913037 0.0131795583 -0.000510166341 0.999858618 0.0166927613 0.00203119661 0.999823987 0.0184665974 0.00331441849 0.999735117 0.0222126506 0.00602453016 -0.0106922304 0.993218064 -0.115773685 0.0466097891 0.998876274 -0.00858359039 0.0349099189 0.999271154 -0.0154424272 0.99813062 -0.000632034207 0.0611131564 -0.0118872011 -0.994840622 0.100751594 -0.950002313 0.0542878546 -0.307487249 -0.989677727 0.0869461596 -0.113922454 0.691620648 0.00821086112 -0.722214282 0.641781449 -0.00367768644 -0.766878784 -0.016679842 -0.999126136 -0.0383247547 -0.163033351 -0.985320389 -0.0506344922 -0.00113307417 -0.999929011 -0.011863607 0.000300490181 -0.999934375 0.0114514381 0.00738173351 0.999925077 -0.00976625085 -0.0115015386 0.999854803 0.0125736967 0.0164249614 0.99857837 -0.0507092364 -0.0145778088 0.999868214 0.00714218663 0.137851268 -0.988831282 -0.0566547811 0.061700806 -0.997673392 -0.028996123 0.0543626584 0.998512447 -0.00418903166 0.0417272486 0.998327851 -0.0400045551 0.032007508 0.998534083 -0.0436491743 -0.00510206958 0.997541189 -0.069896616 -0.0167193841 0.998744428 -0.0472230241 -9.60327634e-06 0.99923861 -0.0390153937 -0.0150100216 0.998868704 -0.0451217927 0.019117577 -0.35677141 -0.933996081 0.0458707064 -0.996056437 -0.0759438053 0.971877992 0.00851785019 -0.23533079 0.0020758654 0.072017476 0.997401237 0.00679608621 0.0770549402 0.997003675 0.000588647963 0.0686269477 0.997642219 0.00916547794 0.0802699551 0.996731043 0.0154503882 0.0887926519 0.995930314 0.0399841405 0.0832837299 -0.995723426 -0.998165488 0.0211077705 0.0567461699 0.00108699757 0.72409004 -0.689704597 -0.00823590439 0.646876752 -0.762550116 -0.787560761 0.0169169586 0.616004765 0.0502116643 0.998691261 0.00972633809 -0.816311419 0.000505441218 -0.577611804 -0.00092693395 -0.00505422242 0.999986827 -0.00802632701 -0.00133308186 0.999966919 0.0167510342 -0.0211901087 0.9996351 0.0175419599 -0.023914611 0.999560118 0.0101088118 -0.00884062145 0.999909818 0.0151474578 0.00895914156 0.999845147 -0.0108545078 0.0139242373 0.999844134 0.00905370619 -0.00828789547 0.99992466 -0.0457390808 0.100626133 0.993872404 -0.00303565757 0.00997027475 0.9999457 0.0271214433 -0.0435734876 -0.998682022 0.939367652 0.332266301 0.0847794563 0.0468230173 0.99425739 0.0962281898</float_array>
          <technique_common>
            <accessor source="#normals_array" count="479" stride="3">
              <param name="X" type="float" />
              <param name="Y" type="float" />
              <param name="Z" type="float" />
            </accessor>
          </technique_common>
        </source>
        <vertices id="vertices">
          <input semantic="POSITION" source="#positions" />
        </vertices>
        <triangles material="scout_1a1a1a" count="494">
          <input semantic="VERTEX" source="#vertices" offset="0" />
          <input semantic="NORMAL" source="#normals" offset="1" />
          <p>0 0 1 1 2 2 3 3 0 0 2 2 4 4 3 5 2 6 3 7 4 7 5 7 4 4 6 8 5 9 7 10 8 11 5 12 9 13 5 12 8 11 10 14 11 15 12 16 1 17 13 18 14 19 15 20 16 21 17 22 9 13 8 11 18 23 19 24 16 21 15 20 20 25 21 26 22 27 19 24 15 20 23 28 24 29 23 28 15 20 24 29 15 20 25 30 26 31 19 24 23 28 27 32 28 33 1 1 29 34 30 35 28 33 1 36 28 36 31 36 4 4 32 37 6 8 10 14 3 3 9 13 33 38 34 39 35 40 12 16 11 15 16 21 19 24 12 16 16 21 36 41 19 24 37 42 38 43 39 44 40 45 41 46 42 47 43 48 13 49 44 50 45 51 45 51 44 50 46 52 44 50 41 53 46 52 47 54 48 55 14 56 13 49 45 51 14 57 47 54 14 56 45 58 34 39 48 55 47 54 49 59 48 59 34 59 6 8 7 60 5 9 50 61 8 11 7 10 6 8 51 62 7 60 42 47 41 46 44 63 6 8 32 37 51 62 50 61 18 23 8 11 52 64 25 30 17 22 12 16 53 65 54 66 55 67 24 29 25 30 56 68 57 69 58 70 59 71 60 72 61 73 61 73 43 74 42 75 60 76 43 74 61 73 62 77 63 78 22 79 64 80 30 81 29 82 27 83 64 80 29 82 0 0 27 32 1 1 65 84 66 85 54 66 65 84 54 66 67 86 15 20 17 22 25 30 53 65 68 87 69 88 70 89 71 90 72 91 73 92 70 93 74 94 75 95 73 92 74 94 75 95 74 94 66 85 75 96 76 97 73 98 77 99 76 99 75 99 76 97 77 100 78 101 77 100 79 102 78 101 65 84 75 95 66 85 80 103 77 104 75 95 65 84 80 103 75 95 81 105 80 103 65 84 67 86 81 105 65 84 81 105 67 86 69 88 82 106 83 107 68 87 82 106 68 87 84 108 30 81 59 109 85 110 86 111 87 112 88 113 72 114 89 115 90 116 72 114 91 117 89 115 89 118 88 119 90 120 92 121 88 113 89 122 92 121 86 111 88 113 91 123 72 123 92 123 91 124 92 121 89 122 71 125 86 111 92 121 72 91 71 90 92 126 78 101 93 127 76 97 77 104 80 103 79 128 79 102 94 129 78 101 79 128 56 68 58 70 94 129 95 130 78 101 95 130 93 127 78 101 58 131 94 129 79 102 80 103 56 68 79 128 81 105 96 132 80 103 97 133 98 134 99 135 83 107 98 134 97 133 83 107 100 136 98 134 101 137 102 138 103 139 82 106 104 140 83 107 104 140 100 136 83 107 105 141 106 142 102 138 63 143 107 144 108 145 109 146 110 147 46 52 111 148 109 146 112 149 109 146 111 150 110 147 41 53 109 146 46 52 33 38 49 151 34 39 32 37 113 152 51 62 32 37 114 153 113 152 114 153 115 154 113 152 116 155 117 156 118 157 27 32 29 34 28 33 119 158 120 159 121 160 119 158 121 160 122 161 123 162 120 159 119 158 124 163 125 164 126 165 127 166 128 167 129 168 130 169 131 170 123 162 132 171 131 170 130 169 127 166 133 172 134 173 41 53 112 149 109 146 108 174 20 175 22 176 111 150 135 177 110 147 111 150 136 178 135 177 136 178 137 179 135 177 96 132 138 180 139 181 140 182 33 183 35 40 114 153 141 184 115 154 141 185 113 152 115 154 142 186 141 184 114 153 143 187 121 160 141 188 143 187 141 188 142 189 143 187 142 189 144 190 122 161 121 160 143 187 145 191 122 161 143 187 130 169 146 192 147 193 146 192 130 169 119 158 25 30 52 64 55 67 37 42 148 194 36 41 149 195 150 196 151 197 150 196 152 198 151 197 133 172 145 191 143 187 153 199 145 191 133 172 145 191 154 200 122 161 153 199 154 200 145 191 154 200 146 192 122 161 154 200 105 141 146 192 105 141 101 137 146 192 53 65 148 194 68 87 101 137 103 139 147 193 155 201 103 139 102 138 102 202 116 203 155 204 156 205 157 206 135 207 137 179 156 208 135 177 137 179 158 209 156 208 158 210 159 211 156 212 159 211 157 213 156 212 160 214 157 213 159 211 161 215 140 215 162 215 140 182 35 40 162 216 134 173 144 217 163 218 164 219 165 220 152 198 137 221 166 222 158 223 166 224 152 224 165 224 134 173 133 172 144 217 167 225 106 142 168 226 133 172 143 187 144 217 169 227 158 223 166 222 169 227 159 228 158 223 161 229 162 216 157 206 157 230 170 231 171 232 134 173 172 233 173 234 172 233 134 173 163 218 169 235 174 236 175 237 175 238 160 239 169 227 174 236 176 240 175 237 36 41 148 194 12 16 177 241 134 173 173 234 178 242 177 243 171 244 59 71 179 245 180 246 180 246 179 245 60 72 181 247 182 247 183 247 87 248 183 248 88 248 86 111 183 249 87 112 86 111 181 250 183 249 181 251 184 252 182 253 185 254 71 255 186 256 186 256 187 257 185 254 188 258 186 259 189 260 188 261 187 262 186 263 185 254 187 257 190 264 191 265 188 258 189 260 94 129 58 131 95 130 95 130 192 266 93 127 58 131 192 266 95 130 136 267 111 268 151 269 193 270 138 271 194 272 138 180 195 273 139 181 193 274 195 273 138 180 196 275 197 276 99 277 198 278 199 279 195 273 200 280 199 279 198 278 11 15 18 23 16 21 201 281 40 45 39 44 182 282 202 282 183 282 203 283 204 284 202 285 153 199 129 168 205 286 206 287 205 286 129 168 207 288 105 141 154 200 207 288 168 226 106 142 167 225 208 289 106 142 106 142 208 289 209 290 21 291 107 292 62 293 210 294 211 295 212 296 209 290 211 295 210 294 210 294 116 155 102 138 184 252 202 297 182 253 181 298 203 299 184 300 184 252 203 301 202 297 213 302 204 284 203 283 188 261 214 303 187 262 191 304 215 305 188 306 191 307 189 308 216 309 188 261 126 310 214 303 191 304 124 311 215 305 215 312 126 312 188 312 124 313 191 307 216 309 126 310 217 314 214 303 126 315 218 316 217 317 124 318 216 319 218 320 126 315 219 321 218 316 219 322 124 318 218 320 125 164 219 323 126 324 219 323 220 325 124 326 214 327 217 328 190 264 217 328 221 329 190 264 58 131 57 330 192 266 93 127 192 266 222 331 139 181 223 332 57 69 57 330 206 333 192 266 223 332 205 286 206 287 223 332 206 287 57 69 31 334 30 35 42 75 223 332 139 181 224 335 223 332 224 335 205 286 193 274 198 278 195 273 139 181 195 273 224 335 195 273 199 279 167 225 167 225 168 226 195 273 225 336 167 225 199 279 225 336 208 289 167 225 60 72 179 245 149 195 40 45 226 337 38 43 226 337 225 336 38 43 225 336 211 295 208 289 208 289 211 295 209 290 164 219 227 338 165 220 228 339 227 340 164 341 204 342 229 342 202 342 230 343 231 344 229 345 231 344 221 346 232 347 221 346 233 348 232 347 221 346 234 349 233 348 233 350 235 351 236 352 210 353 237 354 117 355 212 356 237 354 210 353 210 294 117 156 116 155 215 357 124 357 126 357 213 358 229 358 204 358 213 359 230 343 229 345 230 343 221 346 231 344 222 331 238 360 239 361 206 362 128 167 238 363 238 363 128 167 127 166 128 167 206 287 129 168 174 364 240 365 176 366 240 365 236 367 176 366 236 368 232 369 233 370 149 371 151 269 111 268 241 372 134 173 177 241 239 361 242 373 235 374 242 375 239 376 243 377 239 376 238 363 241 372 243 377 239 376 241 372 238 363 127 166 241 372 178 378 171 379 244 380 178 378 241 372 177 241 241 372 178 378 243 377 235 381 242 375 244 380 244 380 242 375 243 377 224 335 168 226 207 288 5 12 9 13 3 3 69 88 68 87 83 107 133 172 129 168 153 199 14 19 2 382 1 17 141 383 50 61 113 384 149 195 179 245 150 196 123 162 119 158 130 169 30 35 31 334 28 33 68 87 148 194 84 108 66 85 74 94 10 14 9 13 11 15 10 14 245 385 96 132 97 133 37 42 19 24 26 31 54 66 66 85 10 14 74 94 0 0 3 3 42 75 85 386 61 73 50 61 52 64 17 22 54 66 10 14 12 16 83 107 97 133 69 88 60 72 59 71 180 246 55 67 131 170 132 387 132 387 24 388 55 67 101 137 105 141 102 138 13 389 1 390 31 391 31 391 42 47 13 389 32 37 4 4 48 392 114 393 32 37 33 38 32 37 48 392 49 151 32 37 49 151 33 38 144 190 142 189 33 38 142 189 114 393 33 38 163 394 144 190 33 38 173 395 172 396 140 397 173 395 140 397 161 229 177 243 173 395 161 229 140 397 163 394 33 38 172 396 163 394 140 397 171 244 177 243 161 229 2 6 14 398 48 392 4 4 2 6 48 392 161 229 157 206 171 244 226 399 21 400 211 401 21 400 20 402 212 403 211 401 21 400 212 403 24 404 132 405 20 402 212 403 20 402 155 406 237 407 212 403 155 406 155 406 20 402 103 408 20 402 132 405 103 408 118 409 237 407 155 406 132 405 147 410 103 408 85 386 42 75 30 35 214 327 190 264 187 257 147 193 132 171 130 169 81 105 69 88 97 133 72 91 90 411 27 412 71 255 70 413 186 256 16 21 18 23 17 22 18 23 11 15 9 13 241 372 127 166 134 173 27 412 70 89 72 91 42 47 44 63 13 389 201 281 39 44 100 136 175 237 176 240 170 414 176 240 236 415 170 414 51 416 113 384 50 61 197 417 196 418 194 419 194 419 246 420 197 417 99 421 197 422 245 423 246 424 245 423 197 422 7 10 51 416 50 61 86 425 71 255 185 254 99 135 98 134 200 280 190 264 221 329 230 426 190 264 230 426 213 427 190 264 213 427 203 299 185 254 190 264 203 299 86 425 185 254 181 298 203 299 181 298 185 254 100 136 104 140 201 281 63 143 62 428 107 144 0 0 70 93 27 32 247 429 21 291 62 293 224 335 195 273 168 226 141 383 121 160 50 61 121 160 120 159 50 61 3 3 10 14 74 94 55 67 52 64 131 170 124 163 220 325 125 164 198 430 193 270 194 272 196 431 198 430 194 272 248 432 169 235 166 433 139 181 56 68 96 132 97 133 96 132 81 105 43 48 60 434 112 435 112 435 41 46 43 48 60 434 149 371 112 435 149 371 111 268 112 435 157 206 162 216 46 436 135 207 157 206 110 437 110 437 157 206 46 436 162 216 35 40 46 436 46 436 35 40 34 39 45 58 46 436 47 54 34 39 47 54 46 436 99 135 245 385 97 133 239 361 218 438 216 439 218 438 239 361 235 374 93 127 222 331 216 439 216 439 222 331 239 361 235 374 217 440 218 438 93 127 216 439 189 441 76 97 93 127 189 441 76 97 189 441 73 98 73 98 189 441 70 413 189 441 186 256 70 413 147 193 146 192 101 137 74 94 70 93 0 0 116 203 118 442 155 204 137 221 152 443 166 222 137 221 136 267 152 443 136 267 151 269 152 443 231 444 232 369 240 365 232 369 236 368 240 365 231 444 240 365 174 364 229 445 231 444 248 446 231 444 174 364 248 446 248 446 227 340 229 445 227 340 228 339 229 445 229 445 228 339 202 447 228 339 164 341 183 448 164 341 150 449 183 448 202 447 228 339 183 448 150 449 179 450 183 448 179 450 59 109 183 448 59 109 30 81 183 448 30 81 88 119 183 448 30 81 64 80 88 119 88 119 64 80 90 120 64 80 27 83 90 120 50 61 17 22 18 23 12 16 19 24 36 41 154 200 153 199 207 288 153 199 205 286 207 288 227 338 166 433 165 220 85 386 59 71 61 73 106 142 209 290 102 138 166 433 227 338 248 432 157 230 160 451 170 231 248 432 174 236 169 235 160 239 159 228 169 227 170 452 160 239 175 238 148 194 53 65 12 16 235 453 171 379 236 415 245 385 138 180 96 132 96 132 56 68 80 103 56 68 139 181 57 69 22 79 247 454 62 77 199 279 38 43 225 336 122 161 146 192 119 158 245 455 246 456 194 457 245 455 194 457 138 458 200 459 196 275 99 277 22 27 21 26 247 460 38 43 199 279 39 44 164 219 152 198 150 196 207 288 106 142 105 141 52 64 50 61 120 159 225 336 226 337 211 295 234 461 217 328 235 462 37 42 84 463 148 194 206 464 238 360 222 331 192 266 206 464 222 331 196 431 200 465 198 430 200 280 39 44 199 279 24 404 20 402 108 466 24 404 108 466 23 467 37 468 26 469 108 466 26 469 23 467 108 466 108 466 107 470 37 468 37 468 107 470 84 471 84 471 107 470 104 472 107 470 21 400 201 473 84 471 104 472 82 474 21 400 226 399 40 475 104 472 107 470 201 473 21 400 40 475 201 473 39 44 200 280 98 134 98 134 100 136 39 44 207 288 205 286 224 335 209 290 210 294 102 138 233 350 234 476 235 351 237 477 118 477 117 477 217 328 234 461 221 329 69 88 67 86 53 65 53 65 67 86 54 66 63 478 108 174 22 176 236 415 171 379 170 414 244 380 243 377 178 378 133 172 127 166 129 168 171 379 235 453 244 380 123 162 131 170 52 64 52 64 120 159 123 162 220 325 219 323 125 164</p>
        </triangles>
      </mesh>
    </geometry>
  </library_geometries>
  <library_visual_scenes>
    <visual_scene id="scene">
      <node id="right_shoulder_yaw_link">
        <instance_geometry url="#geometry">
          <bind_material>
            <technique_common>
              <instance_material symbol="scout_1a1a1a" target="#scout_1a1a1a" />
            </technique_common>
          </bind_material>
        </instance_geometry>
      </node>
    </visual_scene>
  </library_visual_scenes>
  <scene>
    <instance_visual_scene url="#scene" />
  </scene>
</COLLADA>