<?xml version='1.0' encoding='utf-8'?>
<COLLADA xmlns="http://www.collada.org/2005/11/COLLADASchema" version="1.4.1">
  <asset>
    <created>2026-09-14T00:00:00Z</created>
    <modified>2026-09-14T00:00:00Z</modified>
    <unit name="metre" meter="1" />
    <up_axis>Z_UP</up_axis>
  </asset>
  <library_effects>
    <effect id="scout_1a1a1a_effect">
      <profile_COMMON>
        <technique sid="common">
          <lambert>
            <emission>
              <color>0 0 0 1</color>
            </emission>
            <ambient>
              <color>0.05 0.05 0.05 1</color>
            </ambient>
            <diffuse>
              <color>0.1 0.1 0.1 1</color>
            </diffuse>
          </lambert>
        </technique>
      </profile_COMMON>
    </effect>
  </library_effects>
  <library_materials>
    <material id="scout_1a1a1a" name="scout_1a1a1a">
      <instance_effect url="#scout_1a1a1a_effect" />
    </material>
  </library_materials>
  <library_geometries>
    <geometry id="geometry" name="right_shoulder_pitch_link">
      <mesh>
        <source id="positions">
          <float_array id="positions_array" count="408">-0.0301388316 -0.0841516703 -0.00556835625 -0.037060447 -0.0843880251 -0.00637181988 -0.0375473462 -0.0826750472 -0.0327684879 -0.0371029638 -0.0646879151 -0.0457262695 -0.0299898162 -0.069757022 -0.0429216474 -0.0301331766 -0.0805356503 -0.0338071883 -0.00328783435 -0.100385576 -0.0367327072 0.00109914015 -0.104713254 -0.0217312407 -0.0280393939 -0.101775214 -0.0336410441 -0.00287700165 -0.00748781022 -0.0132623846 -0.00574682606 -0.0113468785 -0.0354183838 -0.0283920765 -0.0120950677 -0.0348619781 0.0133832246 -0.0957204923 -0.0327830166 0.0241741706 -0.0996165872 -0.0323106498 0.0240465365 -0.0970911309 -0.0361442342 0.00224384246 -0.100849509 0.00174532656 0.0022323702 -0.095794335 -0.0228696261 0.0259839371 -0.0165952425 -0.00458396785 0.0133798188 -0.0170731638 -0.000491951127 0.0259797443 -0.0203648098 0.00261078891 -0.0012486428 -0.0029133074 0.0101069855 0.0104692476 -0.00182160409 0.00297877681 0.015356007 -0.00449354015 0.0124493213 0.00217741076 -0.0122989388 -0.0356053114 0.00279079541 -0.0169906057 -0.0264955517 0.0258605052 -0.0167940203 -0.0277827233 -0.000356796605 -0.0183309112 -0.0501836278 -0.0104283104 -0.0209546983 -0.0502106622 -0.00446915207 -0.00484270416 -0.0309657287 -0.0159187838 -0.00213344442 -0.0294556655 0.00437111733 -0.00572142331 -0.0319963172 0.00110152073 -0.0027728728 -0.0100852121 -0.00262638927 -0.0103027942 -0.00241983938 0.026602 -0.020730203 -0.0357156172 0.0242571458 -0.0145449638 -0.0351803005 -0.0300366692 -0.0714983866 0.00898763537 -0.037299484 -0.06951572 0.00989859365 -0.0285803378 -0.0750400797 0.0279990733 -0.0301275682 -0.0446779728 0.011899218 -0.0373072252 -0.0410153009 0.00922757387 0.00190451299 -0.0757275671 -0.05772347 0.0013267952 -0.0763889179 -0.061074201 0.0240154378 -0.0761594921 -0.0577691607 -0.0169959068 -0.00205885083 0.0274786055 -0.00122385984 -0.00143787893 0.021513436 -0.00757443951 -0.00174673554 0.0302125141 -0.00508271484 -0.0411483571 0.0301603861 -0.00258642994 -0.0184711572 0.0141517678 -0.0278779864 -0.0385020263 0.0280442182 -0.0282065067 -0.0751331523 -0.0609620437 -0.00164405128 -0.0677879825 -0.0634732395 0.00107414671 -0.0939571932 -0.0475258417 0.00284525286 -0.100041308 -0.034261696 0.00402802648 -0.0469038747 -0.0650896654 0.0076417774 -0.0297473203 -0.0581507012 0.00251495489 -0.0378117226 -0.0604205206 -0.00692138169 -0.0360657498 -0.0619350411 0.00217659539 -0.0223989468 -0.0508286729 0.00235110405 -0.00599924522 -0.0133713428 0.00251376582 -0.013649947 -0.000162581346 0.0144519741 -0.00213568751 -0.0293398593 0.0263019819 -0.076841332 -0.0514070801 0.0264930185 -0.095397152 -0.0271119382 0.0133686531 -0.0400014296 -0.0553202331 0.0266872365 -0.0368976519 -0.0519257113 0.0253819674 -0.0445722044 -0.055794239 0.0267868899 -0.0923737064 -0.00282059726 0.0134679582 -0.0958700553 -0.000350599672 0.0244693942 -0.0996161103 0.00143937615 0.0174646918 -0.0712091848 -0.0579125658 0.0265861992 -0.0682900324 -0.0547381863 0.0244995523 -0.0382365473 -0.0599072464 0.013436228 -0.0169039816 -0.0325567089 0.0243850201 -0.0145710353 0.00223470712 0.0266819261 -0.0897575542 -0.0392810553 0.0266053881 -0.0960816368 -0.00617967965 0.0281650778 -0.0840603933 -0.0359258056 0.00251329853 -0.0770779476 0.0185105093 0.000789749785 -0.0926479772 0.0159376319 0.00221980247 -0.090185456 0.0056894985 0.00266865524 -0.0744565874 0.0277707316 -0.0032063853 -0.0807088614 0.0252820961 0.00105313084 -0.0535417832 0.0234907586 0.00713490602 -0.0337976553 0.0308601521 -0.000122575235 -0.0634326488 0.0315154642 -0.00066608889 -0.0140762916 0.0322293267 0.0185056441 -0.0750796571 0.0240787342 0.0261469707 -0.0760743842 0.0190866068 0.0260136332 -0.0437373146 0.0219762921 0.0028949182 -0.0390908122 0.0266391095 0.00250419043 -0.00376836048 0.015165179 0.00282901013 -0.0163319912 0.0128308022 0.0262131691 -0.0925736651 0.00325590861 0.0188330822 -0.0408844054 0.0247949027 0.025012875 -0.0368934385 0.0213288385 0.0237553231 -0.0719341785 0.0262796059 0.0266294088 -0.0658105463 0.021413343 0.00299276714 -0.0641673505 0.0225311834 0.00449115317 -0.000816910295 0.0319011733 0.0146357175 -0.00215025432 0.0289653558 -0.0152710397 -0.00448127836 0.0131120961 -0.003149261 -0.10304492 -0.0033082529 -0.0300862603 -0.048357334 -0.0452029668 0.00319834379 -0.0481546521 -0.0555031486 0.0279738065 -0.0285330638 -0.0349746905 0.0279895756 -0.030342292 0.0047348612 -0.030039724 -0.0283129569 -0.00783413555 0.00938558951 -0.0158167202 -0.0438950546 0.00164263358 -0.0251014717 -0.0418282747 -0.0301784873 -0.0285579804 -0.0274787415 -0.0370458625 -0.0277184974 -0.00903381314 -0.0294652302 -0.0924265459 -0.0490277447 -0.029469708 -0.103505082 -0.00384642789 0.00270943739 -0.0958654881 -0.00617358647 0.00183412549 -0.0633470118 -0.0555176176 -0.0280716475 -0.0381105021 -0.0608941466 -0.0289731622 -0.0228281599 -0.0516898744 0.0264197066 -0.000962419843 -0.0192330647 0.0327080339 -0.00165843382 -0.000401409488 0.0279536061 -0.00233361567 0.0167404748 0.00229589106 -0.00404126104 0.028441092 0.00210464001 -0.0850525126 -0.0451728776 -0.0274536479 -0.100182369 0.00266701099 -0.0294203404 -0.0917297676 0.0166361518 -0.013756739 -0.00408924697 -0.0141927274 -0.0372059122 -0.0277788639 -0.0248351507 -0.0373052582 -0.037065044 -0.0383941233 -0.0280026067 -0.0123900604 0.00223628432 0.00138339482 -0.00351314619 0.0411545001 0.00241046958 -0.0351086892 -0.0506717265 -0.0293944981 -0.00812857226 -0.0129338419 -0.0291118305 -0.00151280046 0.0148628661 -0.031344112 -0.00123828661 -0.0110352468 -0.0104805594 -0.00193537131 -0.0023997901 -0.0294837952 -0.0242466126 0.0196970962 0.00152529438 -0.0252393149 0.00941127259</float_array>
          <technique_common>
            <accessor source="#positions_array" count="136" stride="3">
              <param name="X" type="float" />
              <param name="Y" type="float" />
              <param name="Z" type="float" />
            </accessor>
          </technique_common>
        </source>
        <source id="normals">
          <float_array id="normals_array" count="978">0.0828096122 -0.993625164 -0.0764959529 0.0416437946 -0.996985495 -0.0654658005 0.228537589 -0.966751039 -0.114729859 -0.0739231333 -0.619990766 -0.781118989 -0.155865848 -0.63659668 -0.755281746 0.0159427486 -0.596509457 -0.802447677 0.153122962 -0.904522777 -0.397984803 0.0458549038 -0.994396567 -0.0952512547 -0.0337284878 -0.948036432 -0.316368908 -0.0261816327 0.998449743 0.0491181649 -0.0699675083 0.929848552 -0.361228704 -0.0368852578 0.93244648 -0.359420508 0.268954307 0.808399916 0.523596406 0.990608513 -0.133841738 -0.0279487893 0.992119908 -0.123038642 0.0236549079 0.991940081 -0.12257798 0.0320865884 0.116307504 0.879747033 0.460996449 -0.0578180514 -0.968218565 -0.243330836 0.033705391 0.907232285 0.4192774 0.0336803906 0.979795635 0.197145045 0.0300890151 0.987290144 0.156054035 0.0154369716 0.730167031 -0.683094263 -0.105645053 0.724114835 -0.681540012 -0.986920297 0.120755307 0.106801033 -0.019818496 0.500710011 -0.865388215 -2.03905947e-05 0.577814102 -0.816168427 -0.104268923 0.110266939 -0.988417506 -0.867916822 0.492822558 0.0620191135 -0.805982292 0.568147838 0.166134089 -0.945687175 0.324915767 -0.0102748526 0.0648063868 0.475117147 -0.87753278 0.127451196 0.381193757 -0.915667772 0.0290278643 0.0971063524 -0.994850636 -0.122627907 -0.748588443 0.651596308 -0.105760813 -0.746258736 0.657200515 -0.0667277873 -0.739970684 0.669321179 -0.996744037 -0.0426936857 0.0683999434 -0.997838736 -0.0553123094 0.0354737714 -0.997241437 -0.00559308752 0.0740147084 -0.280899227 0.00380577776 0.959729731 0.0257905051 -0.0876578391 0.995816708 0.0948945582 -0.107119575 0.989707232 -0.338763595 0.02205397 0.940613031 0.0387955979 -0.987129688 -0.155144826 -0.018742796 -0.980281234 0.196716562 -0.0196325425 -0.996735573 -0.078312248 -0.0123144127 -0.992559314 0.121137634 0.0788567737 -0.99130857 0.105304144 0.0358141772 -0.999314845 -0.00933485944 -0.191598758 0.146970153 0.97040695 -0.00468361191 0.76555723 0.64335072 -0.0339132398 0.321366489 0.946347415 0.033607576 -0.426194668 -0.904006958 -0.0555071756 -0.320795596 -0.94552058 0.0807714239 -0.132883474 -0.98783499 0.0409637727 -0.760750473 -0.647750497 -0.278863728 -0.886453569 -0.369371206 0.988941312 -0.113464139 0.0955036879 0.30667913 -0.155967996 -0.93894726 0.253716856 -0.408127815 0.876960337 0.308892578 -0.524932742 0.793114722 0.2856372 -0.423551261 0.859660208 -0.0646434352 0.350021154 -0.934508681 0.0697168931 0.53126204 -0.844334185 -0.164969757 0.118341736 -0.979173243 0.100397609 -0.712009728 0.694955051 0.99453634 0.0811802298 0.0656294227 0.985566497 0.160656527 0.0533679537 0.995279312 -0.0965073407 0.0102695562 0.0031234317 0.589592159 -0.807695091 0.0400686637 -0.862033665 -0.505264759 0.275995672 0.68234992 -0.676923215 0.127936244 0.428985268 -0.894205749 0.0293359756 0.499787688 0.865651011 0.202152371 0.240002453 -0.949491024 0.142003298 0.342418671 -0.92875427 0.108655378 0.188921243 -0.97596246 0.199238181 -0.97389698 0.108760595 0.234633639 0.00482042087 0.972071946 0.15628919 0.890520692 -0.427254677 0.13670595 -0.94044745 0.3112396 0.976205051 -0.210511506 -0.0520444885 0.902032495 -0.396826386 -0.169900492 0.963930905 -0.227030948 -0.13890323 0.988889575 -0.128150046 0.0753323734 0.994242847 -0.0789502114 0.0724431127 0.962964237 -0.20538801 0.174687207 0.993794382 -0.0903021023 -0.0649485141 0.985660553 -0.0458115265 -0.162402511 0.967739224 -0.122079976 -0.220402405 0.922077656 -0.166700229 -0.34926185 0.992573559 -0.115952373 0.0367808044 0.989927709 -0.101406977 0.0987912267 0.989866316 -0.0762180462 0.11981415 0.0206334218 -0.386415452 0.922093987 0.0810558647 -0.503333271 0.860282242 0.0186612438 -0.75725019 0.652858317 0.959051788 -0.238254279 -0.153149009 0.153528482 -0.0131476093 0.988056779 -0.0936967358 -0.0212522987 0.995373905 -0.0632934123 -0.129414842 0.989568472 0.113451816 -0.867398679 0.484508276 0.0203319546 -0.856013298 0.516553819 0.0785533935 -0.804037213 0.589367032 0.0799130052 -0.172138795 0.981825948 0.138904765 -0.266109347 0.953882217 0.112161703 -0.133442223 0.984689236 0.194161326 -0.174346715 0.965352058 0.220936701 0.191940442 -0.956214309 0.0847036242 0.745379567 0.66123718 0.227564678 0.41334793 0.881678939 0.196415961 0.557462931 0.8066324 0.215397045 -0.775099754 0.593990266 -0.107436642 0.0349241532 0.993598342 0.034560468 -0.98821044 0.149149865 0.00532356463 -0.964152098 0.265296876 0.0159980487 -0.975118518 -0.221106291 0.239845604 0.00300067337 -0.97080642 0.991164804 -0.0461827442 0.124336101 0.916392267 -0.128975257 0.37893346 0.984429002 -0.082266897 0.155343637 0.0326645561 0.259273589 0.965251386 0.0741332397 0.185804069 0.979786277 -0.0276049059 0.999608576 -0.0045425971 -0.0307593271 0.997656345 0.0611200146 0.0891081914 0.996020496 -0.00169026572 -0.0582877807 -0.3226704 0.944714963 -0.178780988 -0.233136892 -0.955868483 -0.0165686887 -0.910480618 0.41321975 0.0846719444 -0.961277843 0.262251079 0.259255081 -0.95799315 -0.122621134 0.302691668 -0.099682793 -0.947861314 0.0574112199 -0.505570114 -0.860873282 0.0378919579 -0.31178093 -0.94939816 0.0197795108 -0.220831245 -0.975111425 0.994234324 0.0926139951 -0.0540435053 0.991329074 0.0255992766 -0.128885105 0.984650731 0.168950841 -0.0438011102 0.985775709 0.167991206 0.00502648903 0.987695217 0.155486554 0.0167956185 0.986132979 0.116843984 0.117852546 0.962500811 0.225869194 0.150250956 0.954726577 0.175191417 0.240426943 0.984832942 0.0628733262 0.16171293 0.410985649 0.145239547 0.89999795 0.00263273274 0.801574767 0.597888768 0.125283092 0.769492269 0.626247406 0.152994245 0.760346174 0.631242037 0.442941636 -0.619538784 0.648054302 0.224891141 -0.763907194 0.60487169 0.5094226 -0.538276136 0.671377242 0.998295009 -0.029499704 0.0503675267 0.998974681 -0.00707341311 0.0447158031 0.997279584 -0.0614477172 0.0407143384 0.0867536813 0.996144474 -0.0130374013 0.101911746 0.994766414 -0.00733109377 0.0913102105 0.995758116 -0.0113233477 -0.0149974469 -0.727683842 -0.685748696 -0.0213274118 -0.978026748 0.207385719 0.0950503126 0.983967423 -0.150909171 0.0583197027 0.987009406 -0.149703667 0.989960909 -0.138360307 -0.0288764182 0.992741704 -0.080376491 0.0894621611 0.995866001 0.0103368144 0.090244472 0.996332526 -0.0142727001 0.0843672156 0.988520026 0.112998813 0.100296624 0.210900202 0.750207126 -0.626666129 -0.032113988 0.808205366 0.588024497 -0.0593603514 0.2940391 -0.953948319 -0.0112896729 0.68609786 -0.727421641 0.245420516 -0.968213737 -0.0482792854 0.207197011 -0.97709775 -0.0484705195 0.329966217 -0.94374305 0.021709729 0.180947676 -0.978607059 -0.0979090109 0.155016273 -0.987381577 -0.0323656872 0.140615672 -0.988622069 0.0534189716 0.127594754 -0.991118252 0.0374727361 -0.891890466 -0.0323096663 0.451095849 -0.567481101 -0.68505162 0.45680356 0.135509312 -0.980113029 0.144967675 0.0592027344 -0.995310485 0.076498881 -0.0608452857 -0.997916341 -0.021467926 0.0509860851 0.196594059 -0.979158401 0.072789751 0.344511211 -0.935956001 0.0570228845 -0.912832677 0.404332638 -0.0433961339 -0.766154349 0.641189754 0.988934875 -0.087000519 -0.120161369 0.983969808 -0.0705960989 -0.163766906 0.987053573 -0.0770566165 -0.140668079 0.000767257006 -0.877828419 0.478974581 0.0128083825 -0.428650707 -0.9033795 -0.726543784 0.479584843 -0.492069662 0.0575726591 0.813372433 -0.578887403 0.0147814099 0.819912553 -0.572297931 0.958609521 -0.221659154 -0.178703621 0.988115251 -0.151436776 -0.0263651926 -0.0200308282 -0.726335466 0.687048435 -0.206926331 -0.42062211 0.883322418 -0.999976754 0.00406980282 -0.00547003606 -0.999991357 0.00360550778 -0.00207673619 -0.999966502 0.00818292703 0.000267725613 -0.999995947 -0.00277159782 0.000609410752 -0.999898195 -0.00903839897 0.011041115 -0.999895692 0.014377567 0.0013743093 -0.999295831 -0.0338261686 0.0162374303 -0.99982214 -0.011325351 0.0150822056 -0.990172625 -0.00471657934 0.139771044 -0.995753586 0.00743147405 0.0917579979 0.0330474228 -0.547110975 0.836407483 0.0219121948 -0.500551224 0.86542958 -0.0337852389 0.910689473 0.41170764 -0.00976708345 0.939946711 0.341181397 -0.459054142 0.224782109 -0.859501183 0.252510905 -0.967561007 -0.00799802039 0.108372338 0.994098306 -0.00489531131 -0.0200700834 0.627778709 0.778133035 0.0548331179 0.488404006 0.870893121 -0.8058092 -0.0501780473 -0.590045512 0.0543606952 -0.329495251 0.942591012 0.0922359601 0.958068907 0.271286666 -0.314796805 -0.021162916 0.948923111 -0.983792484 0.179294035 0.00243683183 -0.993803322 0.0987303108 0.0510618314 -0.4313173 -0.328633308 0.840217531 0.238060579 -0.0115718003 0.971181393 -0.755656898 -0.33094725 0.565204859 0.992579997 -0.0782603472 0.0930603445 0.0366132259 0.870125413 -0.49146843 0.0502411462 0.967689395 -0.247089162 0.033371333 0.8363778 -0.547136664 0.0230368432 0.984909058 -0.171532705 -0.995967507 -0.0058100922 -0.0895264149 -0.995493531 -0.036462944 -0.0875392929 -0.994394481 0.029232448 -0.101612411 0.999569237 0.0186728239 0.0226418171 0.999813795 0.0184668172 0.00559549127 0.977219164 -0.162601888 -0.13639392 0.983303845 -0.135221288 -0.121773593 -0.0270279888 0.998669446 0.0439180881 0.913924217 -0.3504017 0.204844236 -0.112312458 -0.989452422 0.0914866105 -0.202278271 -0.977585137 0.0584021434 -0.177656755 -0.983296394 -0.0395763516 -0.217431515 -0.973466516 -0.0713194162 0.0810312107 -0.98724997 -0.13700901 0.174555749 -0.978843927 -0.10674651 0.308141142 -0.950954795 0.0270930044 0.170633331 -0.9765926 0.130962566 -0.23078835 -0.967319131 -0.105026037 -0.243738621 -0.962157488 -0.121838033 -0.270747125 -0.957590103 -0.0985755771 0.0333509184 -0.577982843 -0.815367103 0.0619111843 -0.58968246 -0.805258691 0.0878096744 -0.693433523 -0.715149879 0.0771611109 0.585133195 -0.807257891 0.040649455 -0.984849215 0.168581247 0.939280272 0.137338057 0.314469099 0.939362645 0.136561915 0.314561099 0.939944327 0.130912319 0.315224677 0.0115453815 -0.595531583 -0.803248942 0.0669228286 -0.832181811 -0.550449669 0.055258438 -0.584519506 -0.809495807 0.00376053434 -0.861937582 -0.507000446 0.0449101627 -0.910975039 -0.410009176 0.0474218614 0.99886167 0.00514920335 0.0352540687 0.99936825 -0.00450245384 0.0439363159 0.998986065 0.00982285012 -0.0628048107 0.996584833 -0.0536117256 0.0294229165 0.999565363 0.00184887042 0.0220239237 0.999331236 -0.0291894618 -0.0616379455 0.998098195 0.0008677484 -0.0479133502 0.998851478 -0.000166774073 -0.0137082003 0.99989742 -0.00415604375 -0.0505693518 0.998720169 0.000859913416 -0.0625356287 -0.977734804 0.200309768 0.241454244 0.551831961 0.79823637 0.0143296812 0.65699178 0.75376153 -0.754233778 -0.046563223 0.654952824 -0.0529759713 -0.737459064 0.673310995 -0.00445673289 0.790146232 -0.612902224 0.324207991 0.631794393 -0.704077482 0.247394547 0.679273963 -0.690928996 0.927220821 0.030457804 -0.373274565 -0.108457513 0.963602901 0.244348958 0.990824997 -0.0449121632 0.12747027 0.993537128 -0.112488694 0.0151745165 0.0414490066 -0.940749407 0.336559892 0.693659723 0.0544135422 -0.718244672 0.997714341 -0.0631130561 -0.0241420474 0.993850052 -0.0650589094 0.089606829 0.963557422 0.237461239 0.123163335 0.961080253 0.266242236 0.073754847 0.999608576 0.0228424948 0.0161534268 0.99997431 -0.00637828326 0.00326395384 0.997806549 0.0202928893 -0.0630103946 0.992366016 -0.0832884386 0.0909546539 -0.00875289738 -0.959747851 -0.280726671 0.0533907264 -0.072284095 -0.995954037 0.12276686 -0.161461234 -0.979213238 -0.995502472 0.0910077468 -0.0263144262 0.0533014722 0.710919917 0.701250136 0.0673929602 0.714502156 0.69637984 0.0275110658 -0.256053388 0.966271102 0.089032799 0.62982887 0.771614373 -0.997759342 0.0364417955 0.0561093614 -0.997545362 0.0579537004 -0.0393010713 -0.997900963 0.0579175279 0.0289687533 -0.997992277 0.0573036708 0.0269758664 -0.994163632 0.0957319811 0.0497399531 -0.995130241 0.0887444243 -0.0428974926 -0.995696068 0.0169342496 -0.0911182165 -0.99882853 0.0109660514 -0.0471304245 -0.994952857 -0.098241739 -0.0204301067 -0.997927845 -0.0545494929 -0.034123078 -0.999362767 -0.0283110105 -0.0217388142 -0.991432488 -0.0367803685 0.12533468 -0.998915553 -0.0430975929 0.0176141355 -0.985812545 -0.093522124 0.139381766 0.00453055091 -0.697016835 0.71704042 -0.119946934 0.819505095 -0.560378611 0.938660622 0.143009305 0.31379059 0.069918856 0.960658312 -0.268787861 0.276996404 -0.00812416244 0.960836589 0.12895216 -0.940648198 -0.313930482 -0.00153316022 0.999270856 0.0381504558 0.0114266621 0.999677539 0.022675883</float_array>
          <technique_common>
            <accessor source="#normals_array" count="326" stride="3">
              <param name="X" type="float" />
              <param name="Y" type="float" />
              <param name="Z" type="float" />
            </accessor>
          </technique_common>
        </source>
        <vertices id="vertices">
          <input semantic="POSITION" source="#positions" />
        </vertices>
        <triangles material="scout_1a1a1a" count="276">
          <input semantic="VERTEX" source="#vertices" offset="0" />
          <input semantic="NORMAL" source="#normals" offset="1" />
          <p>0 0 1 1 2 2 3 3 4 4 5 5 6 6 7 7 8 8 9 9 10 10 11 11 12 12 13 12 14 12 15 13 7 14 16 15 17 16 18 16 19 16 20 17 21 17 22 17 23 18 24 19 25 20 26 21 27 22 10 10 9 23 28 23 10 23 29 24 30 25 28 26 31 27 9 28 32 29 33 30 23 31 34 32 35 33 36 34 0 35 35 36 0 37 37 38 38 39 36 40 35 41 38 39 39 42 36 40 40 43 41 44 42 45 43 46 44 47 45 48 46 49 47 50 48 51 41 52 49 53 50 54 7 7 6 6 51 55 52 56 7 56 51 56 52 57 16 15 7 14 50 54 53 58 41 52 53 59 54 60 55 61 56 62 54 63 53 64 54 60 57 65 55 61 58 66 59 67 24 68 29 24 60 69 30 25 61 70 40 43 42 45 12 71 62 71 13 71 63 72 64 72 65 72 26 21 56 62 27 22 66 73 67 73 68 73 42 74 69 75 70 76 71 77 64 77 63 77 72 78 33 78 34 78 72 79 25 79 33 79 73 80 18 80 17 80 62 81 14 82 74 83 75 84 66 85 68 86 76 87 66 85 75 84 70 88 61 89 42 90 77 91 78 92 79 93 80 94 81 95 78 96 82 97 83 97 84 97 83 98 85 99 84 100 86 101 77 102 87 103 88 104 89 105 82 106 90 107 91 107 22 107 68 108 67 108 92 108 89 109 93 110 94 111 86 101 87 103 95 112 59 113 19 113 73 113 16 114 62 115 75 116 18 117 73 117 19 117 96 118 95 119 87 120 96 121 88 104 97 122 21 123 98 124 99 125 48 51 37 126 84 100 84 100 46 49 48 51 47 127 100 127 20 127 7 7 15 128 101 129 2 2 5 130 0 0 4 131 3 131 102 131 71 132 65 133 103 134 76 87 75 84 62 81 76 87 62 81 74 83 74 83 61 89 76 87 76 87 61 89 70 88 104 135 70 88 64 136 64 136 33 137 104 135 33 137 25 138 104 135 25 138 17 139 105 140 104 135 25 138 105 140 17 139 19 141 105 140 19 141 94 142 105 140 94 142 88 143 105 140 105 140 88 143 96 118 94 111 93 110 88 144 106 145 39 146 38 147 23 148 107 149 30 150 108 151 57 152 23 153 106 154 109 155 110 156 49 53 41 52 111 157 111 157 41 52 51 55 7 7 112 158 8 8 24 19 59 159 17 160 112 158 7 7 101 129 8 8 111 157 6 6 80 94 84 100 81 95 85 99 46 49 84 100 16 15 113 161 15 13 114 162 53 163 103 164 53 163 55 165 103 164 50 54 56 62 53 64 15 128 78 96 101 129 54 63 26 21 107 166 110 167 39 146 106 145 115 168 56 62 50 54 49 53 115 168 50 54 10 10 27 22 11 11 116 169 11 11 27 22 60 170 58 171 30 172 60 170 117 173 58 171 58 171 117 173 118 174 58 171 118 174 119 175 58 171 119 175 22 176 58 177 22 177 21 177 31 178 58 178 21 178 119 175 99 179 22 176 99 179 120 180 22 176 22 176 120 180 90 181 114 182 69 75 41 183 52 184 13 185 62 115 121 186 52 187 51 188 78 96 122 189 101 129 55 190 71 132 103 134 28 191 26 191 10 191 30 192 26 21 28 193 24 68 23 194 30 195 24 68 30 195 58 66 123 196 81 95 37 126 31 197 124 197 9 197 39 198 110 199 3 200 39 198 3 200 36 201 3 200 110 199 125 202 2 203 36 201 3 200 1 204 36 201 2 203 125 202 126 205 3 200 116 169 27 22 115 168 37 38 48 206 38 207 77 102 79 208 87 103 79 208 92 209 87 103 127 210 47 50 32 211 26 21 54 63 56 62 3 212 126 212 102 212 84 100 37 126 81 95 115 168 27 22 56 62 67 213 66 213 92 213 110 156 109 155 125 214 95 215 96 121 80 216 45 217 44 217 46 217 92 209 79 208 15 218 34 219 23 18 25 20 45 220 46 49 85 99 20 221 31 27 32 29 47 222 20 221 32 29 44 223 100 223 47 223 83 98 98 224 85 99 85 225 128 225 45 225 53 163 114 162 41 226 64 227 55 228 129 229 64 227 71 230 55 228 49 231 4 232 102 233 57 152 108 151 129 234 55 235 57 152 129 234 57 65 54 60 107 149 40 236 121 186 41 237 121 186 51 188 41 237 23 148 57 65 107 149 30 192 107 166 26 21 32 211 130 238 127 210 85 239 98 239 128 239 9 9 11 11 130 238 100 240 44 47 43 46 43 46 131 241 100 240 100 240 131 241 132 242 100 240 132 242 124 243 20 244 100 245 133 246 100 245 124 247 133 246 132 242 29 248 124 243 29 248 28 249 9 250 9 250 124 243 29 248 74 251 52 252 121 253 64 227 108 254 33 30 52 184 62 115 16 114 130 238 32 211 9 9 31 255 133 246 124 247 129 229 108 254 64 227 97 256 84 257 80 258 52 252 14 259 13 260 2 261 3 3 5 5 15 262 75 116 68 263 133 264 132 265 131 266 133 264 131 266 20 267 29 268 132 265 133 264 131 266 43 269 20 267 45 270 21 123 20 267 43 269 45 270 20 267 60 271 29 268 31 272 117 273 60 271 31 272 117 273 31 272 21 123 133 264 31 272 29 268 14 274 62 274 12 274 66 85 76 87 104 135 96 118 66 85 104 135 76 87 70 88 104 135 105 140 96 118 104 135 69 75 42 74 41 183 65 275 71 275 63 275 65 133 70 76 103 134 48 51 47 50 134 276 120 277 82 277 89 277 14 259 52 252 74 251 1 278 0 35 36 34 121 253 40 43 61 70 121 253 61 70 74 251 122 189 112 158 101 129 70 76 69 75 114 182 109 279 102 280 126 281 70 88 65 282 64 136 51 55 6 6 111 157 108 254 23 31 33 30 98 124 45 270 128 283 70 76 114 182 103 134 78 92 15 284 79 93 80 285 78 92 77 91 86 101 80 286 77 102 97 122 88 104 82 106 82 287 120 287 83 287 135 288 59 67 91 289 59 67 58 66 31 290 59 67 31 290 20 291 91 289 90 292 120 293 120 293 89 294 135 288 91 289 120 293 135 288 20 291 91 289 59 67 87 120 92 295 66 85 87 120 66 85 96 118 113 296 75 116 15 262 120 297 99 297 83 297 22 298 91 298 20 298 46 299 44 299 47 299 16 114 75 116 113 296 123 196 78 96 81 95 19 300 135 301 94 111 135 301 89 109 94 111 92 209 15 218 68 302 25 20 24 19 17 160 95 112 80 286 86 101 127 210 134 276 47 50 59 303 135 301 19 300 37 38 38 207 35 36 48 206 134 304 38 207 109 305 106 306 130 307 106 306 38 207 134 304 127 308 106 306 134 304 127 308 130 307 106 306 109 305 130 307 11 309 102 233 109 305 115 310 109 305 11 309 116 311 109 305 116 311 115 310 49 231 102 233 115 310 8 312 5 313 111 314 112 315 5 313 8 312 49 231 111 314 5 313 49 231 5 313 4 232 37 38 0 37 123 316 123 316 0 37 122 317 0 37 5 313 112 315 0 37 112 315 122 317 89 105 88 104 93 318 126 281 125 319 109 279 96 121 97 122 80 216 97 256 82 320 84 257 59 159 73 321 17 160 123 196 122 189 78 96 83 98 99 322 98 224 72 323 34 323 25 323 117 273 21 123 118 324 21 123 45 270 98 124 118 324 21 123 119 325 99 125 119 325 21 123</p>
        </triangles>
      </mesh>
    </geometry>
  </library_geometries>
  <library_visual_scenes>
    <visual_scene id="scene">
      <node id="right_shoulder_pitch_link">
        <instance_geometry url="#geometry">
          <bind_material>
            <technique_common>
              <instance_material symbol="scout_1a1a1a" target="#scout_1a1a1a" />
            </technique_common>
          </bind_material>
        </instance_geometry>
      </node>
    </visual_scene>
  </library_visual_scenes>
  <scene>
    <instance_visual_scene url="#scene" />
  </scene>
</COLLADA>