<?xml version='1.0' encoding='utf-8'?>
<COLLADA xmlns="http://www.collada.org/2005/11/COLLADASchema" version="1.4.1">
  <asset>
    <created>2026-09-14T00:00:00Z</created>
    <modified>2026-09-14T00:00:00Z</modified>
    <unit name="metre" meter="1" />
    <up_axis>Z_UP</up_axis>
  </asset>
  <library_effects>
    <effect id="scout_1a1a1a_effect">
      <profile_COMMON>
        <technique sid="common">
          <lambert>
            <emission>
              <color>0 0 0 1</color>
            </emission>
            <ambient>
              <color>0.05 0.05 0.05 1</color>
            </ambient>
            <diffuse>
              <color>0.1 0.1 0.1 1</color>
            </diffuse>
          </lambert>
        </technique>
      </profile_COMMON>
    </effect>
  </library_effects>
  <library_materials>
    <material id="scout_1a1a1a" name="scout_1a1a1a">
      <instance_effect url="#scout_1a1a1a_effect" />
    </material>
  </library_materials>
  <library_geometries>
    <geometry id="geometry" name="left_elbow_link">
      <mesh>
        <source id="positions">
          <float_array id="positions_array" count="222">-0.0368753895 -0.0235169549 0.0151286013 -0.0334612615 -0.0239160135 -0.0224220417 -0.0354022793 -0.0293915719 -0.0067754183 -0.0167270787 -0.0306656081 -0.0297935139 -0.0091111213 -0.0245996788 -0.0393471569 -0.0133755077 -0.0222356431 0.0109414048 -0.0092526637 -0.0221564099 -0.0135662211 -0.028230384 -0.0301807858 0.0214198735 -0.0198605321 -0.0238438938 0.0354858004 0.00567467511 -0.0298771188 0.0353998058 -0.0344346389 0.0246367194 -0.020433208 -0.0346632227 0.0311658215 -0.0101213269 -0.0154459104 0.0242460985 -0.0374399759 -0.00580091961 0.0306716301 -0.0352063365 0.27016601 -0.014882328 0.00792919006 0.272914618 -0.00819837954 0.0160859656 0.269975901 0.0181160141 0.00684065372 -0.0251590535 0.029718386 0.0275801327 -0.03728747 0.0245868806 0.0144474339 0.0565927252 -0.0287867114 -0.032286521 0.0359186083 -0.0224560797 -0.0397121385 0.109497666 -0.0145122744 -0.0413291082 0.115114227 -0.0233171601 -0.0320430882 0.307730705 -0.000715882052 0.00710671581 0.288259566 0.0111306608 0.0162770804 0.286483258 -0.0185231976 0.01286765 0.272792011 0.0260121524 -0.0449304692 0.275071502 0.0382241048 -0.0179700162 0.294139415 0.0272308122 -0.0416982397 0.0553434193 0.0303106066 -0.0300442558 0.0032482422 0.0309648663 0.0356291272 0.114107355 -0.0157735478 0.00625812309 0.109733604 -0.024155125 -0.0058781798 0.206295058 -0.0244896635 -0.00854909141 0.189779118 -0.0133482357 0.0048057572 0.269238204 -0.0256754328 -0.0313122571 0.26805988 -0.0148936044 -0.0437349752 0.273584455 -0.0155697428 -0.0525721721 0.270689636 -0.0274277255 -0.00805247389 0.272498846 -0.0299162269 0.00146463688 0.270360202 0.00425460702 -0.0478965938 0.275346905 -0.0348202214 -0.0321973823 0.293186903 -0.0321435258 -0.00495884428 0.302886039 -0.0191397984 -0.0407964252 0.302666068 -0.0288268644 -0.0178184584 0.28900668 -0.00160454866 -0.0547175519 0.307855099 0.00228734827 -0.0427301899 0.316108376 -0.00654848525 -0.024934113 0.314818382 -0.00660115713 -0.00707707135 0.0282826405 -0.0235649869 0.0304475371 0.0544501804 -0.0284334123 0.0118160425 0.0704206377 -0.0203443114 0.0116614196 0.0536237322 -0.021971887 -0.0116741722 0.273553461 0.0198235586 0.0128724575 0.0356543697 0.0244132672 -0.0390756428 0.121146597 0.0146370772 -0.0416641608 0.121904202 0.0243551526 -0.030630745 0.105439834 0.0225405674 0.00128321687 0.190983772 0.0238439683 -0.00494539784 0.108066693 0.0259443615 -0.0109057818 0.26970011 0.0257432479 -0.0357816182 0.209977835 0.0173602123 -0.0412392393 0.269161552 0.0295465067 -0.0172858909 0.309007764 0.0240138602 -0.00882390328 0.308483034 0.0192612782 -0.032080669 0.298364103 0.0288013611 -0.000703703437 0.0416453741 0.026399212 0.0218649153 0.0205705147 0.0251414757 0.0342704393 0.0678494126 0.0243612714 0.0100896163 -0.015509123 0.0243148152 0.0369650349 0.106918477 0.0133094918 0.00771671673 0.190287143 0.012502444 0.00542108621 0.0172694717 -0.0217931531 0.000615299679 0.053472355 0.023121357 -0.0119763911</float_array>
          <technique_common>
            <accessor source="#positions_array" count="74" stride="3">
              <param name="X" type="float" />
              <param name="Y" type="float" />
              <param name="Z" type="float" />
            </accessor>
          </technique_common>
        </source>
        <source id="normals">
          <float_array id="normals_array" count="486">-0.99166131 0.0911210105 -0.09113089 -0.490819007 -0.768435359 -0.410613984 -0.260579079 -0.866889536 -0.424971789 -0.175304562 -0.980577469 -0.0879550576 -0.508769155 -0.483300298 -0.712442815 -0.0265076794 0.999226987 0.0290311016 -0.0382028967 0.998498797 -0.0392511003 -0.0526689924 0.997507334 -0.0469590016 -0.702025712 -0.66134572 0.264162332 -0.669763863 -0.727264822 0.150007546 -0.727307677 -0.486780643 0.483805925 -0.715913057 -0.36943993 0.592437923 -0.0158384386 -0.995914876 0.0888972953 -0.19780162 -0.844280839 0.498060644 -0.060265325 -0.98948437 0.131486624 -0.424211919 0.760816336 -0.491124004 -0.418303132 0.765914917 -0.488258928 -0.408347905 0.774330854 -0.483387709 -0.405691653 0.776540041 -0.482078731 -0.855655193 -0.255959451 0.449821055 -0.926576138 -0.041721791 0.373785943 -0.851849437 0.357597232 0.382722884 -0.531080008 0.830945551 0.165781707 0.0590068884 -0.91959846 -0.388402969 0.0053425259 -0.837523103 -0.546375751 0.0333503857 -0.712816656 -0.700557053 0.0370762572 -0.711794078 -0.701408982 0.0186130498 -0.720830083 -0.692861795 0.710303605 -0.0580250546 0.70149976 0.238225132 0.24912408 0.9387151 0.217983678 -0.485001057 0.846910298 0.0106027052 0.910522163 -0.413324326 0.281550825 0.939582407 -0.194715202 0.302475095 0.921702206 -0.242845446 0.0509198196 0.998464823 0.021799678 0.00544490386 0.999976993 0.00404332858 -0.00584790856 0.999953747 0.00763692055 0.0725404397 -0.828257382 0.555632591 0.100804783 -0.820308268 0.562967777 -0.0212872606 -0.783377767 0.62118125 0.0168137774 -0.757435918 0.652693033 0.0373624377 -0.999085784 -0.0207757074 -0.038589444 -0.997755229 -0.0547303036 -0.0176929291 -0.999838173 -0.00326213473 -0.814636171 -0.533253074 -0.228055 -0.804636955 -0.355147421 -0.475846231 -0.833775401 -0.253489166 -0.490470976 -0.0406407155 -0.786592364 0.61613369 -0.0403340086 -0.787242055 0.615323544 -0.881613493 -0.469847053 0.0447374955 -0.9423455 -0.29808858 0.152079463 -0.848319411 -0.0131301079 -0.529322028 -0.0363667384 -0.855478287 0.516560137 0.207625076 -0.916533291 -0.34184587 0.357574403 -0.86124754 0.361100048 -0.825899482 -0.534262002 -0.180150434 -0.831051588 -0.556106091 0.00996373501 0.236171126 -0.595178604 -0.768105209 0.576837659 -0.562155664 -0.592654467 0.622414708 -0.782596231 -0.0119632157 0.193482667 0.00422933931 -0.981094599 0.743455827 0.0722096637 -0.664875329 0.971799374 -0.165469602 -0.168005466 0.769149125 -0.535836279 0.348265797 0.33320272 -0.685693145 0.647148252 -0.435199589 0.864058554 0.252990454 0.276445508 -0.600723743 0.750139236 0.291461408 -0.560621858 0.775082827 -0.858065844 0.282219917 0.429039508 0.0656945556 0.762261987 -0.643926203 0.0554777086 0.75548631 -0.652811348 -0.023364149 0.409184396 -0.912152529 0.0213721357 0.750453353 -0.660577774 0.0199101754 0.747474194 -0.663992405 -0.0309011433 0.319975048 -0.946921885 0.370451927 0.376291186 -0.849217474 0.102575548 0.819764256 0.563440144 0.000124103244 0.899473608 0.436975092 0.0518392883 0.992695332 0.108943507 0.00591772608 0.515635788 -0.856787443 -0.0261167996 0.674919188 -0.737429321 -0.0134236906 0.0530887209 -0.998499572 -0.148801491 -0.19291237 -0.969867468 -0.106999695 -0.122758269 -0.986651659 -0.634581149 0.772690773 -0.0159913301 -0.428714722 0.886379778 -0.174741417 0.0106196972 0.491330981 -0.870908201 -0.938304305 0.147514701 -0.312768936 -0.738353848 0.649932444 -0.180059299 -0.823999226 0.565341234 0.0376101993 -0.00604420947 0.882869899 0.469578803 0.00165635312 0.903727531 0.428104967 -0.33633393 0.164015055 -0.927350283 -0.291034758 0.167555675 -0.941925645 0.438312352 0.894512773 -0.0879158378 0.868647516 0.309379339 -0.386957258 0.392425388 0.919367731 -0.0276630931 0.883187711 0.311411202 0.350717217 0.959176004 0.19380109 0.205967411 0.369999468 0.621432006 0.690595925 0.566148579 0.805013835 -0.177280962 0.307007074 0.729435563 0.611285865 0.300694942 0.749027193 0.590373516 0.299308866 0.753857315 0.584904552 0.34818238 0.626850903 0.697012901 0.389458179 0.485601962 0.782632113 -0.214605346 0.734622419 0.643641531 0.0747105405 -0.0104166735 0.997150838 0.0911399573 0.276656598 0.956637144 0.100443296 0.143694356 0.984511614 -0.0068416954 0.670906425 0.74151051 -0.0312984735 -0.207907453 0.977647662 -0.15840131 0.116056509 0.980530441 0.0893793702 0.747813225 0.657865226 -0.0312516168 0.859035492 0.510961235 -0.992341697 0.0932325721 -0.0810287297 0.0522842854 -0.998517811 -0.0151174739 -0.019287359 -0.00378433592 -0.999806821 -0.0272735376 0.0100630978 -0.999577343 -0.017667111 0.00425157044 -0.999834895 0.047616452 -0.998833835 0.00797812175 -0.00464474503 -0.0167136639 0.999849558 -0.00615777215 -0.0259152539 0.999645174 -0.0175244138 0.998112857 0.0588523373 0.0653563589 0.994016945 0.0875149891 0.00321593834 0.999758482 0.0217406824 0.339059174 0.910056591 0.238402843 0.0855357423 0.994440377 0.0614168197 -0.0132308155 0.999257267 -0.036192514 -0.0441907607 0.99454397 -0.0944958925 -0.0517454743 0.998545408 0.0151498588 -0.0219388548 0.999723911 0.00841400493 -0.00864456128 -0.754271209 -0.656506062 -0.00845559686 -0.755593181 -0.65498656 0.0413642004 0.998754084 0.0279166885 0.0179537926 0.997539103 -0.0677749664 -0.828923285 -0.559247315 0.0113431662 -0.820390105 -0.00896475837 0.571733952 -0.836757064 -0.0289002713 0.546811104 -0.831818581 -0.00855483301 0.554981649 -0.827219784 -0.00300760567 0.561870456 -0.845375836 -0.0120184915 0.534036815 -0.839577198 -0.00434537604 0.543223023 -0.023974793 0.0216075797 0.999478996 -0.0287289638 0.0134114213 -0.999497235 -0.0309377573 0.369305074 -0.928793073 -0.0449032187 -0.996374488 -0.0722607151 0.0938884988 0.384286195 0.918427467 0.0939567685 0.0147858988 0.995466471 0.0670043379 -0.0334494151 0.997191846 -0.0223999247 -0.999734938 0.00531915296 -0.0398805067 -0.998592794 0.0349567644 0.0236633737 -0.999390244 0.0256746747 -0.009798171 -0.999451578 0.0316312164 0.0980504379 -0.98667562 0.129835933 0.0998747051 -0.991308987 0.0856241882 -0.283652544 -0.958772957 0.0171958059 -0.040455278 -0.995785117 0.0823128149 -0.170659229 -0.985329807 0.000764994766 0.363277823 -0.931248486 0.0283813104 0.113944203 0.950245619 0.289913833 -0.0201145653 0.032847289 0.999257982</float_array>
          <technique_common>
            <accessor source="#normals_array" count="162" stride="3">
              <param name="X" type="float" />
              <param name="Y" type="float" />
              <param name="Z" type="float" />
            </accessor>
          </technique_common>
        </source>
        <vertices id="vertices">
          <input semantic="POSITION" source="#positions" />
        </vertices>
        <triangles material="scout_1a1a1a" count="144">
          <input semantic="VERTEX" source="#vertices" offset="0" />
          <input semantic="NORMAL" source="#normals" offset="1" />
          <p>0 0 1 0 2 0 1 1 3 2 2 3 3 2 1 1 4 4 5 5 6 6 1 7 0 8 2 9 7 10 0 8 7 10 8 11 9 12 8 13 7 14 10 15 11 16 12 17 11 16 13 18 12 17 14 19 15 20 16 21 17 22 11 22 18 22 19 23 4 24 20 25 20 25 21 26 19 23 22 27 19 23 21 26 23 28 24 29 25 30 26 31 27 32 28 33 29 34 13 35 30 36 31 37 32 38 33 39 34 40 31 37 33 39 22 41 35 42 33 43 35 44 36 45 37 46 38 47 14 48 33 39 14 19 38 49 39 50 40 51 37 46 36 45 39 52 41 53 42 54 35 44 37 46 41 55 38 56 35 44 41 55 37 57 43 58 41 53 44 59 41 53 43 58 45 60 43 58 37 57 45 60 46 61 43 58 47 62 44 59 43 58 48 63 42 54 44 59 47 62 48 63 44 59 46 61 47 62 43 58 49 64 9 64 50 64 50 65 51 65 52 65 51 66 50 67 32 38 34 40 33 39 14 48 25 30 39 52 42 54 41 53 44 59 42 54 15 20 14 19 39 50 53 68 16 21 15 20 23 28 25 30 42 54 48 63 23 28 42 54 29 69 54 70 13 71 29 69 55 72 54 70 29 69 56 73 55 72 45 60 26 74 28 75 57 76 58 77 59 78 56 73 60 79 61 80 61 81 40 82 36 83 58 77 62 84 60 85 60 79 40 86 61 80 60 87 26 87 40 87 26 88 60 85 62 84 27 89 26 88 62 84 16 90 62 91 58 77 27 89 62 84 16 21 40 92 26 74 37 93 28 33 27 32 63 94 26 74 45 60 37 93 53 68 27 89 16 21 28 75 46 61 45 60 28 75 64 95 46 61 65 96 63 94 27 32 3 2 4 24 19 23 64 95 47 62 46 61 64 95 63 97 47 62 47 62 63 97 48 98 63 97 65 99 23 28 63 97 23 28 48 98 63 94 64 100 28 33 66 101 30 102 67 103 66 101 59 104 30 102 66 101 68 105 59 104 17 106 69 106 30 106 69 107 67 107 30 107 70 108 57 76 68 109 71 110 57 76 70 108 15 111 24 29 53 112 16 90 58 77 71 110 53 113 65 99 27 114 65 99 53 113 24 29 65 99 24 29 23 28 10 115 18 115 11 115 32 116 19 23 22 41 21 117 20 118 55 119 19 23 32 116 50 120 71 121 70 108 34 122 33 43 32 116 22 41 8 123 49 124 72 125 49 124 50 126 52 127 8 123 72 125 5 5 49 124 52 127 72 125 52 127 20 128 72 125 20 128 4 129 6 6 4 129 1 7 6 6 1 7 0 130 5 5 0 130 8 123 5 5 72 125 20 128 6 6 17 131 30 36 13 35 19 23 50 120 3 2 22 27 36 132 35 133 17 131 13 35 11 134 59 78 60 85 56 135 3 2 9 12 7 14 3 2 7 14 2 3 39 50 38 49 41 136 58 77 60 85 59 78 29 34 30 36 59 78 72 125 6 6 5 5 51 137 68 138 73 139 51 137 73 139 52 140 20 141 52 140 54 142 73 139 54 142 52 140 14 143 71 121 34 122 39 52 25 30 15 111 25 30 24 29 15 111 54 144 55 119 20 118 12 145 13 71 54 70 59 78 56 135 29 34 61 81 36 83 55 119 33 43 35 42 38 146 9 147 49 147 8 147 36 132 22 27 21 26 51 148 31 149 70 108 9 12 3 2 50 120 32 38 31 37 51 66 56 73 61 80 55 72 54 150 73 151 67 152 12 153 54 150 67 152 73 151 66 154 67 152 10 155 12 153 17 156 73 151 68 157 66 154 12 153 67 152 69 158 10 155 17 156 18 159 12 153 69 158 17 156 31 149 34 122 70 108 59 78 68 160 57 76 51 148 70 108 68 109 16 161 71 121 14 143 58 77 57 76 71 110 55 119 36 83 21 117</p>
        </triangles>
      </mesh>
    </geometry>
  </library_geometries>
  <library_visual_scenes>
    <visual_scene id="scene">
      <node id="left_elbow_link">
        <instance_geometry url="#geometry">
          <bind_material>
            <technique_common>
              <instance_material symbol="scout_1a1a1a" target="#scout_1a1a1a" />
            </technique_common>
          </bind_material>
        </instance_geometry>
      </node>
    </visual_scene>
  </library_visual_scenes>
  <scene>
    <instance_visual_scene url="#scene" />
  </scene>
</COLLADA>