<?xml version='1.0' encoding='utf-8'?>
<COLLADA xmlns="http://www.collada.org/2005/11/COLLADASchema" version="1.4.1">
  <asset>
    <created>2026-09-14T00:00:00Z</created>
    <modified>2026-09-14T00:00:00Z</modified>
    <unit name="metre" meter="1" />
    <up_axis>Z_UP</up_axis>
  </asset>
  <library_effects>
    <effect id="scout_1a1a1a_effect">
      <profile_COMMON>
        <technique sid="common">
          <lambert>
            <emission>
              <color>0 0 0 1</color>
            </emission>
            <ambient>
              <color>0.05 0.05 0.05 1</color>
            </ambient>
            <diffuse>
              <color>0.1 0.1 0.1 1</color>
            </diffuse>
          </lambert>
        </technique>
      </profile_COMMON>
    </effect>
  </library_effects>
  <library_materials>
    <material id="scout_1a1a1a" name="scout_1a1a1a">
      <instance_effect url="#scout_1a1a1a_effect" />
    </material>
  </library_materials>
  <library_geometries>
    <geometry id="geometry" name="left_knee_link">
      <mesh>
        <source id="positions">
          <float_array id="positions_array" count="210">-0.00133980869 -0.0176168587 -0.399746597 -0.0115046483 -0.0235390589 -0.406109095 0.0015235591 -0.0237423554 -0.401785195 -0.0131512936 -0.0158589222 -0.409633428 -0.0143925697 -0.0149748363 -0.396999329 -0.000444810576 -0.0263311155 -0.395447165 0.000383932114 -0.0147563377 -0.237526998 -0.0527652092 -0.0393007062 -0.138743475 -0.0538169108 0.0120112495 -0.138414159 -0.0268694088 -0.0390038379 -0.160685614 0.0472880118 -0.0175313521 0.00708806701 0.0495819263 0.0156527273 -0.00657546939 0.0222696997 -0.017849341 0.0493941121 -0.0233204961 -0.0100207571 -0.0675144047 -0.0464372709 0.0115957521 -0.08252839 -0.0491544381 -0.0399393626 -0.0851791054 0.00290880981 -0.00354465167 -0.0551380999 0.00619424554 -0.0275289286 -0.0690265596 -0.00979585107 0.0238517933 -0.406852603 0.0380529538 0.0145277912 -0.420376211 -0.0152580328 0.0155637758 -0.400451303 -0.00208282168 0.0194398668 -0.386332482 -0.000631502306 0.0181839112 -0.401147395 -0.00359494751 0.0196620952 -0.313201457 -0.0490795299 0.0146905771 -0.114676982 -0.0545947552 0.0129729453 -0.100486107 -0.011930313 -0.0177288763 0.0118797729 0.0208266973 0.0182729587 0.0495339744 -0.019347094 0.0167328008 -2.4544961e-05 -0.049738545 0.0349959955 -0.131367162 -0.0275784265 0.014610325 -0.157267466 -0.0279116575 0.0130490595 -0.0707906112 -0.0491021611 0.035166204 -0.0986796319 -0.0144837368 -0.0181341656 -0.00665074121 0.00195094128 0.0180921629 -0.0302374102 -0.00373444473 0.0181636084 -0.00541952578 -0.00166713458 -0.0163777284 -0.0171056986 -0.00546904095 0.0191897042 0.00628453027 -0.00279499125 -0.0152030876 -0.385665983 0.0477713533 -0.0214376468 -0.320237994 0.0502724685 -0.0148026729 -0.375255942 0.00140179496 0.0188890435 -0.399963558 0.0475234799 0.0232289527 -0.407515585 0.0494878404 -0.0199342277 -0.410805255 0.0305159204 -0.0284034722 -0.0852113664 0.0272477884 -0.0394549258 -0.0824711323 0.0480563901 -0.0193287693 -0.205631435 0.00831848197 -0.0331212319 -0.160311058 -0.00365479477 -0.0094726244 -0.168672666 0.0326434225 -0.0336236097 -0.139008805 0.00665985793 0.0181807391 0.000493124069 0.0490506478 0.0146267721 -0.375689834 0.0480633788 0.0203987118 -0.316919893 0.00302601513 0.0152906021 -0.0683927163 0.00509486441 0.0283612311 -0.157706216 0.000540272973 0.0176795349 -0.214541361 -0.00165296206 0.0102885673 -0.170196012 0.00746711483 0.0296003893 -0.0717647299 0.0310359467 0.0321744271 -0.132361591 -0.0239408612 0.0349833481 -0.154722199 0.0477161556 -0.0223643333 -0.0457794741 0.012076294 -0.0442179255 -0.137637869 0.00997121911 -0.0441804528 -0.0908393487 -0.0272520147 -0.0440555774 -0.0890841708 -0.0383385345 -0.0449044742 -0.124992013 -0.0218987148 -0.0420286171 -0.143622845 -0.0180712827 -0.0395773314 -0.066865705 -0.0274239797 0.0346723124 -0.0724697635 0.0480835959 0.0202217828 -0.199156076 0.0306415465 0.0309128165 -0.0983278304</float_array>
          <technique_common>
            <accessor source="#positions_array" count="70" stride="3">
              <param name="X" type="float" />
              <param name="Y" type="float" />
              <param name="Z" type="float" />
            </accessor>
          </technique_common>
        </source>
        <source id="normals">
          <float_array id="normals_array" count="540">-0.291499943 -0.421965778 0.858471155 0.601020217 0.49085936 -0.630739033 -0.969177783 -0.234124407 0.0766820535 -0.966865122 -0.243085369 -0.0779828429 -0.952309966 -0.304743379 -0.0154024865 0.624134839 -0.293209493 -0.724212587 -0.998996198 -0.0403608084 0.0194307212 -0.646384299 -0.00835163146 -0.762966275 -0.575795889 0.163206503 -0.801138401 -0.550804734 0.0720628574 -0.831517339 -0.112053931 -0.993050694 -0.0359758586 -0.0475529619 -0.997897863 -0.044029016 -0.308089435 -0.948692977 0.0711513534 0.944187343 0.0674881116 0.322421551 0.980783045 0.00503846304 0.195036426 0.879490495 0.0695490167 0.470807195 -0.473190427 -0.0865876824 0.87669462 -0.749870837 0.012104555 0.661473513 -0.845692873 -0.0565865859 0.530661404 -0.333564967 -0.333862484 0.881629288 -0.260709822 -0.510279715 0.819539487 -0.322442174 -0.43630603 -0.840040565 0.237605169 0.971359789 -0.00198972598 0.534546614 0.844919443 -0.0192625597 0.517522991 0.855604053 -0.0105662122 -0.802976787 0.590671897 0.0795923695 0.0018320888 0.999956906 0.00909997523 -0.369335562 0.928774774 -0.0311241578 -0.883330882 -0.050789319 0.465990394 -0.754108608 -0.000750688836 0.656749249 -0.866585195 -0.0141918017 0.498827308 -0.99285382 0.0548791997 0.105969556 -0.976323187 0.117564693 0.181580737 -0.993106961 0.109683402 -0.0413293689 -0.604556978 0.28692767 -0.743090451 -0.585279822 0.00423320616 -0.810820341 -0.173529521 0.972803056 0.153432965 -0.757385314 0.0898815021 0.646752536 -0.747686684 0.109519966 0.65495801 -0.737808764 0.128662959 0.662634134 -0.723901153 -0.114546277 -0.680328071 -0.817230523 -0.00446982728 -0.576293588 -0.765843034 -0.0688273236 -0.639333427 0.634945452 -0.213221118 0.742550373 0.0233670939 0.999702573 0.00698313816 -0.134363532 0.989693344 0.0495331995 -0.149785981 0.988688529 -0.00768758543 -0.562318981 -0.783505976 0.264415741 -0.00323451427 -0.998844743 0.0479445308 0.961940348 -0.26070717 0.0818692371 0.974934518 -0.210561514 -0.0718786344 0.944169521 -0.285202712 0.164934129 0.4714939 -0.0329212621 -0.881254613 0.199244425 -0.0123260608 -0.979872286 0.46579358 -0.0265924186 -0.884493709 -0.911899686 0.252049357 -0.323898315 -0.987647176 0.0957913175 -0.124004312 -0.12520434 0.970289707 -0.207030922 -0.0715658069 0.997409344 0.00727895228 -0.1402632 0.937769413 -0.317670852 0.968919575 -0.246964276 0.0142639447 0.988776088 -0.148268223 0.0183953512 0.999627471 -0.0162659753 0.0219173133 0.554555535 0.042076014 0.831082284 0.272943169 -0.259771019 0.926294267 0.503167868 -0.0816088691 0.860326767 0.078355208 -0.987893701 -0.133890003 0.142163977 -0.941351533 -0.306017518 -0.977525234 -0.206698254 -0.0414762981 -0.889579594 -0.456458062 -0.0171517711 -0.993434012 0.0208559651 -0.1124897 -0.995862007 -0.0112212887 -0.090182662 -0.988897681 -0.0556840338 -0.137770399 0.469458103 -0.876814425 -0.103949994 -0.434181452 -0.060232345 -0.898809493 -0.883369803 0.363506585 -0.295838952 0.793458521 -0.576877773 -0.193998829 0.999869645 0.00624883594 0.0148863969 0.992236316 0.124286935 0.004461932 0.984895647 0.173148438 -0.000460195355 -0.10451483 0.572781742 0.813017666 -0.0997394174 0.403742522 0.909419596 -0.0542414933 0.266280323 0.96236825 0.973145902 -0.190007433 -0.129939511 -0.93918848 0.343233615 0.0107557429 -0.998530388 0.0526151434 -0.0129904468 -0.975577891 0.218443036 -0.0230306424 -0.994419158 0.0796313211 -0.0692054331 -0.983528912 0.176121846 -0.0406439267 -0.957105994 0.285743028 -0.0479483753 0.055337809 0.995602489 -0.075586915 0.0945725441 0.964254916 -0.247524634 0.065313004 0.997239947 -0.0353092887 0.0425832793 -0.990015745 0.13437067 0.0941329673 -0.989411473 0.110471129 -0.0590317212 0.183926806 0.981165707 -0.997780025 -0.0583771355 0.032048773 -0.982951283 -0.0210777372 0.182654083 -0.99959296 -0.0203599129 -0.0199838467 -0.479809672 0.0284486003 -0.876911283 -0.0346980467 0.990098894 0.136015594 0.0829430819 0.994499862 0.0639567003 0.0631213412 0.990810037 0.11962913 -0.994068146 0.0612879582 0.0898461267 0.233317181 -0.948284984 -0.21521768 0.116991252 -0.97582972 0.184579134 -0.0648486391 -0.988804519 0.134388566 -0.169174522 -0.98339802 -0.0656379685 -0.0134063261 -0.975122631 -0.221260294 0.182190865 -0.956313431 0.22862868 -0.0723484829 -0.994319201 0.0780704096 0.164125726 -0.912097812 0.375686437 -0.0130137438 -0.982365012 0.186519653 -0.193658873 -0.973144174 0.12444526 -0.158284843 0.346598208 -0.924562395 -0.198211744 0.443070889 -0.874299884 -0.268158019 0.613463342 -0.742801487 -0.502582371 0.0227120109 0.864230931 0.711241424 -0.0368230157 -0.701982737 0.737514198 -0.0551806949 -0.67307353 -0.991018593 -0.0130418018 0.133086503 0.00472677872 -0.980651915 0.195702404 0.0435051993 -0.951798439 0.30362311 -0.210363969 -0.967852354 -0.137872472 0.035923779 -0.982161403 -0.184576467 0.294662595 -0.953021288 -0.0701742917 -0.738667548 -0.0321150385 0.673304439 -0.76824075 0.0667672455 0.636669636 0.999989688 -0.00449868105 -0.00057940901 0.999113023 -0.0420185998 -0.0027579898 0.999999702 -0.000618951395 -0.000420441094 -0.0705272406 0.136050195 -0.988188386 -0.97698009 -0.162531972 0.138178393 0.0261053052 -0.963120878 -0.267799735 0.107885435 -0.992571652 -0.0562333502 -0.44925943 -0.023336105 -0.893096507 0.961186767 -0.268360615 0.0640514344 0.321855575 0.945296586 0.0531346574 -0.0165108386 0.99465239 -0.101951227 0.609315753 0.792639971 0.0213588458 0.663003206 0.747778952 0.0354028419 0.0510144047 0.995388687 -0.081233345 0.0206419211 0.989466131 -0.143285379 0.0324819237 0.992338538 -0.119201921 0.0638036057 0.996454775 -0.0548358783 0.178408414 0.979431212 -0.0942597315 0.165726751 0.974703193 -0.149960965 0.175304517 0.978554606 -0.108162716 0.187984198 0.980889857 -0.0501698814 0.0262603667 -0.984768987 0.171873301 -0.0194922406 -0.997822583 0.0630090609 0.18007113 -0.978496432 0.100593582 -0.0991689488 -0.994714737 0.0266096611 -0.104297929 -0.994334638 0.0205079373 0.0442575291 -0.982751131 -0.179559067 0.0611192398 -0.305082083 -0.950362742 -0.595917284 -0.230506361 -0.769252539 0.00249377964 0.827387512 -0.561625898 0.139208496 -0.103742011 0.984813988 0.0715925023 0.034592934 0.99683392 -0.0244422685 0.997474194 -0.0666919351 -0.656431675 0.207806349 -0.725199223 -0.0282943528 -0.99923408 0.0270314105 0.00101715198 -0.999589443 -0.0286347102 0.0028643324 -0.99997896 -0.00582232093 0.890070081 0.0337960906 0.454569042 0.0158475414 0.721945167 0.691768765 -0.0289331358 0.999504805 0.0123696495 0.203223363 -0.00599831762 -0.979114056 -0.470021307 -0.307985574 0.827178836 0.0350094475 0.999353588 0.00817139167 0.0607700124 0.998149633 0.00208084146 0.145117775 0.984196365 -0.101480857 -0.505728781 -0.0709467307 0.859770298 -0.0445378833 -0.424530506 -0.904317558 0.987089038 0.13987869 0.0780332536 -0.959002078 0.0435971245 -0.280025572 -0.00886209775 0.0776174814 0.996943831 0.0455449782 0.995787919 -0.0795745105 -0.0523520261 0.997812331 -0.0403703973</float_array>
          <technique_common>
            <accessor source="#normals_array" count="180" stride="3">
              <param name="X" type="float" />
              <param name="Y" type="float" />
              <param name="Z" type="float" />
            </accessor>
          </technique_common>
        </source>
        <vertices id="vertices">
          <input semantic="POSITION" source="#positions" />
        </vertices>
        <triangles material="scout_1a1a1a" count="148">
          <input semantic="VERTEX" source="#vertices" offset="0" />
          <input semantic="NORMAL" source="#normals" offset="1" />
          <p>0 0 1 0 2 0 3 1 0 1 2 1 4 2 3 3 1 4 5 5 1 5 0 5 4 2 1 4 6 6 7 7 8 8 9 9 5 10 6 11 1 12 10 13 11 14 12 15 13 16 14 17 15 18 16 19 13 16 17 20 18 21 19 21 20 21 21 22 22 23 18 24 23 25 18 25 20 25 18 24 23 26 21 22 24 27 8 27 25 27 26 28 27 29 28 30 29 31 8 32 24 33 8 8 29 34 30 35 14 36 31 36 25 36 31 37 32 38 25 39 33 40 28 41 34 42 35 43 33 43 36 43 27 44 37 45 28 46 38 47 3 47 2 47 6 11 5 10 39 48 37 49 33 50 35 51 21 52 40 53 38 54 24 33 25 55 32 56 41 57 42 58 22 59 43 60 40 61 39 62 44 63 17 64 45 65 46 66 47 67 6 11 48 68 6 6 47 69 36 70 16 71 17 72 46 66 49 73 47 67 26 74 37 74 50 74 26 75 50 75 36 75 42 76 51 76 19 76 52 77 51 78 42 79 16 80 53 81 31 82 33 50 37 49 26 83 54 84 55 85 56 86 34 87 53 88 16 71 57 89 53 88 34 87 58 90 54 91 59 92 60 93 44 94 49 73 57 95 31 82 53 81 7 96 15 18 25 97 8 98 7 96 25 97 48 99 8 8 30 35 34 100 11 101 57 102 4 2 6 6 23 103 61 104 62 105 63 106 61 104 63 106 64 107 65 108 61 104 64 107 20 109 19 110 22 111 19 110 41 112 22 111 64 107 63 106 15 113 30 114 54 115 56 116 31 117 14 17 13 16 16 19 31 117 13 16 4 118 20 119 21 52 23 103 20 120 4 2 32 56 29 31 24 33 66 121 15 113 63 106 45 122 66 121 63 106 15 113 7 123 64 107 45 122 63 106 62 105 9 124 65 108 7 123 65 108 64 107 7 123 49 73 45 125 62 105 47 67 49 73 61 104 9 124 47 67 65 108 61 104 65 108 47 67 61 104 49 73 62 105 26 28 12 126 27 29 55 85 23 103 6 6 48 68 56 86 6 6 56 86 55 85 6 6 38 54 4 118 21 52 31 37 67 127 32 38 68 128 11 14 60 129 46 130 68 128 60 129 11 14 10 13 60 129 59 131 54 115 30 114 46 130 39 62 68 128 39 62 52 77 68 128 28 30 33 132 26 28 5 10 2 133 43 134 43 134 39 48 5 10 30 35 56 135 48 99 44 136 45 136 49 136 69 137 57 102 11 101 54 91 58 90 68 138 11 101 68 139 69 137 69 137 68 139 58 140 39 48 46 66 6 11 48 99 9 9 8 8 38 141 40 142 43 143 3 144 38 141 43 143 4 145 38 146 0 147 3 148 4 145 0 147 17 149 60 93 36 150 21 151 20 109 22 111 51 152 21 153 19 110 21 153 41 112 19 110 1 154 43 134 2 133 48 155 47 155 9 155 51 78 52 77 40 61 52 77 39 62 40 61 36 156 33 40 34 42 19 157 18 157 42 157 66 158 17 64 13 159 68 138 55 160 54 91 30 35 29 34 59 161 36 150 60 93 10 162 26 163 36 150 10 162 10 162 12 164 26 163 11 14 27 165 12 15 42 166 18 166 22 166 21 22 23 26 52 167 52 167 42 58 21 22 42 58 41 57 21 22 21 52 51 168 40 53 36 70 34 87 16 71 60 93 17 149 44 94 36 169 50 169 35 169 59 92 29 170 58 90 58 90 29 170 32 171 32 171 67 172 57 102 32 171 57 102 69 137 32 171 69 137 58 90 15 18 14 17 25 97 66 158 45 65 17 64 46 66 60 93 49 73 68 138 52 167 55 160 55 160 52 167 23 26 15 18 66 173 13 16 1 174 3 174 43 174 5 175 0 175 38 175 2 176 5 176 38 176 57 95 67 177 31 82 27 44 11 101 37 45 37 45 11 101 50 178 35 179 50 178 11 101 35 179 11 101 34 100 34 100 28 46 35 179 28 46 37 45 35 179</p>
        </triangles>
      </mesh>
    </geometry>
  </library_geometries>
  <library_visual_scenes>
    <visual_scene id="scene">
      <node id="left_knee_link">
        <instance_geometry url="#geometry">
          <bind_material>
            <technique_common>
              <instance_material symbol="scout_1a1a1a" target="#scout_1a1a1a" />
            </technique_common>
          </bind_material>
        </instance_geometry>
      </node>
    </visual_scene>
  </library_visual_scenes>
  <scene>
    <instance_visual_scene url="#scene" />
  </scene>
</COLLADA>