<?xml version='1.0' encoding='utf-8'?>
<COLLADA xmlns="http://www.collada.org/2005/11/COLLADASchema" version="1.4.1">
  <asset>
    <created>2026-09-14T00:00:00Z</created>
    <modified>2026-09-14T00:00:00Z</modified>
    <unit name="metre" meter="1" />
    <up_axis>Z_UP</up_axis>
  </asset>
  <library_effects>
    <effect id="scout_1a1a1a_effect">
      <profile_COMMON>
        <technique sid="common">
          <lambert>
            <emission>
              <color>0 0 0 1</color>
            </emission>
            <ambient>
              <color>0.05 0.05 0.05 1</color>
            </ambient>
            <diffuse>
              <color>0.1 0.1 0.1 1</color>
            </diffuse>
          </lambert>
        </technique>
      </profile_COMMON>
    </effect>
  </library_effects>
  <library_materials>
    <material id="scout_1a1a1a" name="scout_1a1a1a">
      <instance_effect url="#scout_1a1a1a_effect" />
    </material>
  </library_materials>
  <library_geometries>
    <geometry id="geometry" name="left_hip_pitch_link">
      <mesh>
        <source id="positions">
          <float_array id="positions_array" count="240">-0.00143609056 -0.0294548012 -0.335464776 -0.025937669 -0.0218122937 -0.402243108 -0.0163253155 -0.0311312061 -0.39279601 0.00998944975 -0.027865123 -0.443088531 -0.00512067089 -0.0231374763 -0.429173142 -0.0507115871 0.0261303429 -0.0314292386 -0.0170031637 0.0169222783 -0.0798273236 -0.0215944145 -0.0173064992 -0.0716041327 -0.00299925986 -0.0203353073 -0.300700337 -0.00543749193 -0.0498351976 -0.0985120535 -0.00372139062 -0.0241483673 -0.105791152 0.000661515165 -0.0403326452 -0.134831443 -0.0466423593 -0.0503980927 -0.0262451731 -0.0568005927 -0.0475592278 0.00970819499 -0.0551684462 -0.04635524 -0.0282301437 -0.0191535596 0.018982416 -0.38792935 -0.0108950408 -0.0192012172 -0.382241964 -0.0124399932 -0.0507091358 -0.0524928123 -0.0315966979 -0.0928028822 -0.0458774269 -0.0206468422 -0.0454924032 -0.0603218935 -0.0231332127 -0.0260960329 -0.0589684732 0.0572841614 -0.0280889999 -0.326912314 0.0574923232 -0.0208198093 -0.289811224 0.0174718555 -0.0942642838 -0.0527643673 0.000319908053 0.0260737445 -0.403938055 -0.00337126083 0.0247771926 -0.398239136 -0.00797588937 0.0217935424 -0.427348673 -0.00471617375 -0.0179450512 -0.129941419 -0.02208318 -0.0915840194 0.0522500761 -0.045983009 -0.0509641618 0.0270318557 -0.0539584197 -0.0936382115 0.0131056234 -0.0361840986 -0.046180997 0.0505320281 -0.0139951408 -0.048256848 0.0535353683 0.0247292146 -0.0464876555 0.0590893328 -0.00648796605 0.0287305899 -0.336266339 -0.0256544892 0.0246068276 -0.406630874 0.0120669147 0.0277743936 -0.443778038 -0.00422627525 0.0186816771 -0.111939691 0.0514651164 0.0260639712 -0.429817915 0.0567134432 -0.0263537448 -0.414404571 0.0547386557 -0.0259225573 -0.384034097 -0.0589509346 0.024728274 -0.00880014896 -0.0482717417 0.023123892 0.0380349979 0.0184399877 -0.0251175929 -0.425166488 -0.00363097107 -0.024926072 -0.400471032 0.00528943585 -0.0201135781 -0.399695903 0.0428003296 -0.0279143043 -0.436710149 0.030061245 -0.0723445937 -0.0460393578 0.0525330082 -0.0934937149 -0.0195857193 0.0487932712 -0.0484316796 -0.0233699922 0.0537893474 -0.0460302942 -0.0373132639 0.054841347 -0.0473001786 -0.102822073 0.0221299566 -0.0455016531 -0.0523838624 0.0544351414 -0.0921363831 0.0150145879 0.0518567748 -0.0486798361 0.01922106 0.0263554975 -0.0507592633 0.0468481965 0.0616031997 -0.0467145219 0.00631999178 0.0234015733 -0.0271772593 -0.376479149 0.0239709187 0.026927989 -0.376620531 0.020238528 0.0238124263 -0.432257384 0.021152148 0.025268089 -0.417243421 0.018665852 0.0301413909 -0.00820826087 0.0582596511 0.0190129932 -0.0830035135 0.0575468577 0.0272650775 -0.409729123 -0.0512460507 -0.0941514522 -0.0219157599 0.00281276321 -0.0262290835 -0.402437598 0.00388765754 -0.0251526292 -0.157007247 0.00394150941 0.0235980265 -0.399127781 0.00205492112 0.0223766696 -0.359020889 0.0554391928 -0.0237929057 -0.145751506 0.057123512 -0.0239181072 -0.0327486694 0.0538908206 0.0295912512 -0.33269304 -0.000825984986 0.0260251239 0.0593930446 0.0403020754 0.0248635225 0.0442413911 0.0581643581 0.0260267425 0.00288730487 0.0581161454 0.0192778353 -0.287759393 0.00370602729 -0.0219695251 -0.359740049 0.0535709634 0.0270697325 -0.383897632 0.0214972571 -0.0942161307 0.051449988 -0.00283010164 0.0191215556 -0.295959413</float_array>
          <technique_common>
            <accessor source="#positions_array" count="80" stride="3">
              <param name="X" type="float" />
              <param name="Y" type="float" />
              <param name="Z" type="float" />
            </accessor>
          </technique_common>
        </source>
        <source id="normals">
          <float_array id="normals_array" count="615">-0.673825562 -0.720277786 0.164800063 -0.75931257 -0.616576254 0.208034009 -0.78184396 -0.583329618 0.220105842 -0.488254905 -0.81635946 -0.308487236 -0.496162325 -0.808441222 -0.316615999 -0.534310162 -0.766485572 -0.356388181 -0.611077726 -0.658024848 -0.439985663 -0.881829381 0.0234119706 -0.470987052 -0.903842151 0.0487052239 -0.425084889 -0.876256347 0.0221140143 -0.481337458 -0.666148901 -0.728217423 0.161074787 -0.953699172 -0.0289325304 -0.299367428 -0.88878876 -0.393431634 -0.23508741 -0.988603055 0.00237203133 -0.150526837 -0.363413692 -0.900009632 -0.240651473 -0.419061571 -0.906750619 -0.0468047298 -0.384224147 -0.90351063 -0.18984291 0.791470945 0.080946289 -0.605822921 0.796559155 0.0830895677 -0.598823547 0.810118556 0.0682158247 -0.582283914 -0.673692584 0.0999644399 -0.732219458 -0.224109203 0.00785609148 -0.974532366 -0.520828903 0.0183336847 -0.853464186 -0.156155422 -0.885364175 -0.437887847 -0.0327739902 -0.847246528 -0.530187905 -0.0324877799 -0.818627775 -0.573404789 0.00903219078 -0.995250702 0.0969251767 -0.00438435376 -0.996923685 0.078255482 0.0128518129 -0.996572375 0.081720829 -0.834756911 -0.42373535 -0.351609558 -0.844803154 -0.120514259 -0.521328986 0.0624842308 0.0491266139 -0.996836126 0.118737616 -0.992322385 -0.0346066095 0.205506817 -0.978566766 -0.0131908068 0.18652977 -0.982434988 0.00530702109 -0.780083299 -0.616623878 -0.10604272 -0.713098109 0.0155664263 0.700891376 -0.811255872 -0.193230793 0.551838517 -0.795341074 -0.04853715 0.604215741 -0.885405958 -0.112715058 0.450945258 -0.948797226 -0.0509514138 0.311749488 -0.123355918 -0.961116672 0.247058749 0.013694807 0.00052446319 0.999906063 -0.242057353 -0.000731465232 0.970261693 -0.139171377 -0.0572978631 0.988609254 -0.980100453 0.0541600175 0.190970644 -0.942870855 -0.197378993 0.268395364 -0.965715349 -0.0726889521 0.249219164 -0.639387071 0.469004452 -0.609277427 -0.608493328 -0.741483569 -0.282732993 -0.998479843 -0.0542395115 0.00980341062 -0.991064668 -0.11768838 -0.0627714023 -0.997136772 -0.0744509846 -0.0132422484 -0.997617185 0.023956459 -0.064699769 -0.952745855 -0.0069469125 -0.303689092 -0.952860713 -0.00658914819 0.303336471 0.110986419 0.979414761 -0.168608204 0.122224465 0.988207102 -0.0922382623 0.0808903947 0.978794932 -0.188194796 0.502698302 -0.852710843 0.142051622 0.469462097 -0.880590558 0.0645413473 0.519736707 -0.833970606 0.185382724 0.0321328491 0.998465478 -0.0451015979 -0.0518085882 0.998318374 -0.02600592 -0.0806838945 0.996551037 -0.0193949118 0.679183722 -0.171104819 -0.713745534 0.728280127 -0.045558989 -0.683763385 0.736260593 -0.0607061461 -0.673969686 0.754250407 0.0309148729 -0.655858636 0.0739484355 -0.995090723 -0.065772891 0.00926673226 -0.998388767 -0.0559826232 0.0782252327 -0.974266171 -0.211391225 0.737983048 0.0591684021 -0.67222029 0.739080071 -0.0165335741 0.673414648 0.735457897 -0.0219165348 0.677215934 0.739025414 -0.016615225 0.673472583 0.185309649 -0.982407808 -0.0231342856 0.206869245 -0.974608719 -0.0856911615 0.174331531 -0.984517395 -0.0182757154 -0.23578997 -0.000949509791 -0.971803546 -0.439418316 -0.00282720989 -0.898278117 -0.430072397 0.00119513925 -0.902793586 0.113932729 -0.933211803 0.340785891 -0.00404148083 -0.944324553 0.328990638 0.296898842 -0.888636053 0.349538267 0.443569422 -0.826235175 0.347248614 0.817727029 -0.066974625 0.57169646 0.785313904 -0.284257889 0.549981415 0.972440124 -0.0254093949 0.231763959 -0.558589399 -0.821621299 0.113649964 0.029275503 0.999365628 -0.0202809535 0.041878514 0.996629655 -0.0705372021 0.00533640105 0.998687863 -0.0509320647 0.990567982 0.0139382193 -0.136311308 0.99785614 -0.00928184669 -0.064783603 0.956875384 0.0104413684 -0.290311038 -0.981844723 -0.0064019626 -0.18957828 -0.992235839 0.0966579691 -0.078264147 -0.986349404 0.0179219153 -0.16368781 -0.96094346 -0.078830719 -0.26527974 0.1519382 0.985983491 0.068930082 0.15404065 0.984177589 -0.0875553563 0.151967436 0.98801291 0.0271358136 -0.923106074 0.238665864 0.301519126 -0.0139361434 0.96450305 -0.263703734 -0.0150631815 0.952218115 -0.305047095 -0.403336734 0.814722478 -0.416589499 -0.749844372 -0.660830021 -0.0322035328 -0.679934621 -0.0360552408 -0.732385814 -0.838714302 -0.0698276162 -0.540076315 0.117278323 -0.765312016 -0.63288492 -0.337133706 -0.927459896 -0.161737338 0.0653062835 -0.997668505 0.0198166575 0.108984306 -0.99396348 0.0126086148 -0.0372606292 -0.995578289 -0.0862292871 0.313343972 -0.948145509 -0.0532507375 0.179701552 -0.982492626 -0.049148161 -0.77363652 0.0187310111 -0.633352697 0.998363197 -0.0570859797 0.00348297809 0.996855676 -0.0524410456 -0.0594026819 0.989189327 -0.120878205 -0.0830235183 0.999865174 0.00376199395 0.0159838367 -0.995955884 0.0287885778 0.0851060972 -0.97215271 0.0850472674 0.218371361 0.0945088416 -0.962995112 -0.252405375 0.338620812 -0.928934515 -0.149721637 0.140565962 -0.890922904 -0.431853741 -0.991134644 0.0560657829 -0.120452113 -0.0329094343 0.9953686 0.090323545 -0.0227451399 0.999710023 -0.00790540315 0.0309775528 0.989898741 0.138350591 -0.0108494852 0.998399913 0.0554964319 0.0308940355 0.999354482 0.0183356516 -0.014170412 0.999759555 0.0167347435 -0.0349831283 0.987983048 0.15055126 0.0719344839 0.994097352 -0.0812147036 -0.964308143 0.126425833 -0.232650697 -0.0425674655 0.068544887 0.996739507 -0.0234492309 0.998130798 0.0564366989 0.0663768873 0.995138466 0.0727566704 0.104838319 0.994479477 -0.00441831583 -0.0472103395 0.998560786 -0.0254474469 -0.0289350543 -0.999522209 -0.0108670639 -0.196818247 -0.980428696 0.00471136905 -0.014735939 -0.998794317 0.0468275025 0.535067558 -0.813706577 0.227121696 0.00180919643 -0.999964952 0.00817079842 -0.0171247609 -0.996614933 0.0804081708 -0.0152557902 0.994539857 0.103236519 -0.0785910562 0.995851457 0.0458614342 -0.0466875881 0.997903109 0.0448296666 -0.413405776 0.0912595615 0.90596211 -0.487312824 0.513872981 -0.706017554 0.110396706 0.992604733 0.0504813045 0.221493497 0.973665357 0.0540042259 0.260414422 0.965468347 -0.00743072759 0.193651527 0.980850101 0.0207882784 -0.030749375 -0.991463721 0.126704872 0.232826531 -0.971990228 -0.0320446119 0.16469571 0.0294556338 -0.985904515 -0.0560202263 -0.992877364 0.105148785 -0.0197370797 -0.994255066 0.105201185 -0.0269185435 0.999628961 0.00416061748 -0.6398561 0.0968286097 0.762370288 0.0962144956 -0.918287873 -0.384044468 0.0512499213 -0.998465359 -0.0209862348 0.0861773342 -0.975412488 -0.202839747 0.0228218045 -0.999233663 0.0318003036 0.168124035 -0.974348724 -0.149595633 0.995326459 0.0710216463 -0.0654304698 0.995279491 0.065944314 -0.071204558 0.995328844 0.0720997751 -0.0642032698 0.995297968 0.077749528 -0.0577659868 0.556488633 -0.83080411 -0.00921501312 0.0244514383 0.102569461 0.994425297 0.0927504599 0.0216684379 0.995453596 0.0894100294 0.025659766 0.995664299 -0.999173641 -0.000599634077 0.040641401 -0.23872523 -0.00275963778 -0.971083224 -0.0451324359 -0.997612 0.0522816032 0.0423686728 -0.998941302 0.0179209337 0.0182485357 -0.999800622 -0.00810926221 -0.0013189466 -0.999999106 0.000137277631 0.013274949 -0.999885321 -0.00728798285 0.0105361044 -0.999940872 -0.00269643287 -0.0159610063 -0.999069393 0.0400701277 -0.0224821959 -0.998795271 0.0436176695 0.159646973 -0.0590338372 0.985407472 0.346205145 0.118112765 0.930694044 0.742101073 -0.0119951842 0.670180678 0.982414067 0.0345696062 0.183487058 0.878617346 0.00852142554 0.47745043 0.0361720696 -0.219733596 -0.9748891 -0.633062422 1.36438948e-05 -0.77410078 -0.649372339 -0.0118465489 -0.760378361 -0.998683333 -0.0221252944 0.0462828726 -0.633891463 -0.773409188 0.0044524991 0.999938548 0.0110848546 -0.000281862158 0.877815247 0.47822538 0.0272195581 0.815474868 0.0670841485 -0.574891746 0.840441287 0.0400555357 -0.540420175 0.999655366 -0.0262513142 0.000173989931 0.999901593 -0.0127837099 -0.00578178139 0.999879301 -0.015512974 -0.000833406753 -0.020272363 0.991071045 0.131784588</float_array>
          <technique_common>
            <accessor source="#normals_array" count="205" stride="3">
              <param name="X" type="float" />
              <param name="Y" type="float" />
              <param name="Z" type="float" />
            </accessor>
          </technique_common>
        </source>
        <vertices id="vertices">
          <input semantic="POSITION" source="#positions" />
        </vertices>
        <triangles material="scout_1a1a1a" count="164">
          <input semantic="VERTEX" source="#vertices" offset="0" />
          <input semantic="NORMAL" source="#normals" offset="1" />
          <p>0 0 1 1 2 2 2 3 1 4 3 5 4 6 3 5 1 4 5 7 6 8 7 9 8 10 1 1 0 0 9 11 10 12 11 13 12 14 13 15 14 16 1 17 15 18 16 19 12 20 17 21 18 22 12 14 14 16 19 23 12 14 19 23 17 24 7 25 20 25 14 25 21 26 22 27 0 28 7 29 10 12 20 30 18 22 17 21 23 31 24 32 25 33 26 34 7 29 27 35 10 12 28 36 29 37 30 38 31 39 13 40 29 37 32 41 31 41 29 41 33 42 31 43 32 44 34 45 35 46 15 47 35 48 36 48 26 48 5 49 37 49 6 49 38 50 39 51 40 52 41 53 14 54 13 40 42 55 13 40 31 39 4 56 43 57 3 58 44 59 45 60 2 61 43 57 46 62 3 58 40 63 39 64 46 62 23 65 47 66 48 67 47 66 49 68 48 67 50 69 9 70 51 71 52 72 49 68 47 66 53 73 54 74 55 75 56 76 49 77 50 69 54 78 49 77 56 76 40 79 57 80 58 81 33 82 32 83 55 84 33 82 55 84 54 85 33 86 54 87 56 88 59 89 60 89 36 89 61 90 62 91 37 92 63 93 39 94 38 95 12 96 64 97 30 98 13 99 12 96 30 98 4 100 1 101 65 102 45 103 4 103 65 103 1 101 44 104 65 102 1 101 16 105 44 104 45 106 44 104 16 105 10 12 66 107 11 13 14 108 20 30 19 109 9 11 19 109 20 30 20 30 10 12 9 11 19 23 52 110 17 24 15 111 35 111 26 111 26 34 60 112 24 32 60 112 58 113 67 114 24 32 60 112 67 114 15 115 26 34 25 33 25 33 67 114 68 116 25 33 68 116 15 115 18 22 64 117 12 20 69 118 70 119 50 120 50 120 51 121 69 118 8 122 34 45 15 47 15 47 1 123 8 122 66 124 69 125 51 71 11 126 66 124 51 71 42 55 41 53 13 40 6 8 27 127 7 9 71 128 63 129 67 130 34 131 71 128 67 130 25 132 34 131 67 130 36 133 24 134 63 129 24 134 67 130 63 129 38 135 36 133 63 129 27 127 6 8 37 136 31 43 33 42 72 137 72 138 73 139 61 90 74 140 61 90 73 139 61 90 5 141 72 138 65 142 44 143 3 144 44 59 2 61 3 145 0 28 65 142 39 146 65 142 3 144 39 146 3 144 46 147 39 146 21 26 0 28 39 146 13 40 30 38 29 37 56 88 50 120 70 119 71 128 34 131 75 148 14 54 5 7 7 9 42 149 72 138 5 141 42 149 5 141 41 150 72 137 42 151 31 43 45 152 65 152 2 152 16 153 76 154 45 155 76 154 57 156 45 155 4 56 45 155 43 57 57 156 43 57 45 155 46 62 43 57 57 156 40 63 46 62 57 156 0 28 22 27 8 157 66 124 22 27 69 125 22 27 66 124 8 157 65 142 0 28 2 158 51 71 9 70 11 126 37 92 5 141 61 90 47 159 23 31 17 21 52 160 19 161 9 70 24 134 36 133 35 162 25 132 24 134 35 162 25 132 35 162 34 131 28 36 32 163 29 37 9 70 50 69 52 160 36 164 38 165 59 166 59 166 38 165 60 112 38 165 77 167 60 112 60 112 26 34 36 168 77 167 58 113 60 112 49 169 54 170 53 171 48 172 49 169 53 171 22 27 70 173 69 125 49 77 52 160 50 69 78 174 55 175 28 176 79 177 34 45 8 122 77 178 40 79 58 81 28 179 30 180 64 181 28 179 64 181 78 182 64 181 18 183 78 182 78 182 18 183 53 184 48 185 53 184 23 186 18 183 23 186 53 184 28 176 55 175 32 187 33 42 73 188 72 137 53 73 55 75 78 189 74 190 73 191 56 88 73 191 33 86 56 88 17 21 52 192 47 159 68 116 67 114 58 113 66 107 10 12 27 35 58 81 57 80 68 193 68 193 57 80 76 194 77 195 38 50 40 52 27 35 8 196 66 107 74 140 62 91 61 90 75 197 63 93 71 198 16 19 15 18 68 199 76 200 16 19 68 199 56 88 70 119 74 190 74 190 70 119 62 201 62 201 70 119 75 197 39 94 75 197 21 202 63 93 75 197 39 94 21 202 75 197 22 203 70 119 22 203 75 197 62 91 75 148 37 92 79 204 37 92 75 148 34 131 79 204 75 148 14 54 41 53 5 7 37 136 79 177 8 122 8 122 27 127 37 136</p>
        </triangles>
      </mesh>
    </geometry>
  </library_geometries>
  <library_visual_scenes>
    <visual_scene id="scene">
      <node id="left_hip_pitch_link">
        <instance_geometry url="#geometry">
          <bind_material>
            <technique_common>
              <instance_material symbol="scout_1a1a1a" target="#scout_1a1a1a" />
            </technique_common>
          </bind_material>
        </instance_geometry>
      </node>
    </visual_scene>
  </library_visual_scenes>
  <scene>
    <instance_visual_scene url="#scene" />
  </scene>
</COLLADA>