<?xml version='1.0' encoding='utf-8'?>
<COLLADA xmlns="http://www.collada.org/2005/11/COLLADASchema" version="1.4.1">
  <asset>
    <created>2026-09-14T00:00:00Z</created>
    <modified>2026-09-14T00:00:00Z</modified>
    <unit name="metre" meter="1" />
    <up_axis>Z_UP</up_axis>
  </asset>
  <library_effects>
    <effect id="scout_1a1a1a_effect">
      <profile_COMMON>
        <technique sid="common">
          <lambert>
            <emission>
              <color>0 0 0 1</color>
            </emission>
            <ambient>
              <color>0.05 0.05 0.05 1</color>
            </ambient>
            <diffuse>
              <color>0.1 0.1 0.1 1</color>
            </diffuse>
          </lambert>
        </technique>
      </profile_COMMON>
    </effect>
  </library_effects>
  <library_materials>
    <material id="scout_1a1a1a" name="scout_1a1a1a">
      <instance_effect url="#scout_1a1a1a_effect" />
    </material>
  </library_materials>
  <library_geometries>
    <geometry id="geometry" name="left_shoulder_roll_link">
      <mesh>
        <source id="positions">
          <float_array id="positions_array" count="99">-0.0391658694 0.0255323034 -0.126974717 -0.011134726 -0.0446146131 -0.13339147 -0.043693956 -0.0188615993 -0.0921764374 -0.0299555492 -0.0111232586 -0.094744958 -0.0404388569 -0.0263356604 -0.0949769542 0.0117628807 -0.0428379588 -0.0972417966 0.0422250107 -0.0230938289 -0.0776399747 0.0460094064 -0.014205778 -0.0414199941 0.0451593585 -0.0139350202 0.00045528973 -0.0345779173 0.0174165983 -0.0842991173 -0.0252366848 0.0160264149 -0.0916392878 0.0441513248 0.0197229274 -0.0704710782 0.0385930315 -0.00522290822 -8.92852258e-05 0.0369799025 -0.0230210684 0.0218889657 0.0471709967 -0.00159343285 -0.000411748333 0.0439011641 -0.0217153374 -0.0750105679 0.043445196 0.00873329863 -0.0971832201 0.0363523699 0.0297059063 -0.088092804 0.0412807949 -0.0183806084 -0.0919294804 0.0379965976 0.0187641811 -0.0287336037 0.0380754992 -0.0174837597 -0.0476667061 0.0481766984 -8.10897473e-05 1.55250916e-06 -0.0418547615 0.0219459515 -0.0927714407 -0.0186065938 0.0428358912 -0.09702003 0.047291398 0.00287985383 0.000557255757 0.0425605178 0.0145094134 -0.0865473896 0.0477177612 0.0138023812 -0.0405010246 0.0440351218 0.0143308332 0.00030739975 0.040293213 -0.0194162428 -0.126862332 0.0347665697 0.0339351855 -0.126474559 0.0361393839 0.0193108674 0.0288348105 0.0378293991 -5.03086267e-06 -0.0592673495 0.023458967 0.0188585073 -0.0613193214</float_array>
          <technique_common>
            <accessor source="#positions_array" count="33" stride="3">
              <param name="X" type="float" />
              <param name="Y" type="float" />
              <param name="Z" type="float" />
            </accessor>
          </technique_common>
        </source>
        <source id="normals">
          <float_array id="normals_array" count="366">-0.946035385 -0.134582773 -0.294795811 -0.83054775 -0.274442405 -0.484635741 -0.894312561 -0.182293132 -0.408624768 0.0585984141 -0.00151072 0.998280466 0.0316287726 -0.0370288976 0.99881351 -0.0387173668 -0.0261820275 0.998907149 -0.284684539 -0.931574225 0.22610651 0.989680886 -0.135250121 -0.0473197699 0.949991941 -0.311438441 -0.0228342768 0.885859072 -0.43958199 0.148396224 -0.0031910541 -0.983263135 0.182163194 -0.296399027 0.752738714 0.587819755 0.264615208 0.774417639 -0.574679136 0.400469035 -0.247026414 0.882384539 -0.994751871 0.0500769652 0.0892245919 -0.996670723 0.0259137806 0.0773044378 -0.978462756 0.111738212 0.173566252 0.451409668 0.413889408 -0.79052186 -0.996380627 0.0256524403 0.081040889 -0.00842915475 -0.0687108561 -0.997601032 0.537678659 -0.20778285 -0.817146182 0.0340496823 -0.0755616799 -0.99655962 0.737494051 -0.329290956 -0.589635491 -0.665527821 0.745923758 0.0258926637 -0.93732518 0.0976848155 -0.334483474 0.93587923 0.124512985 0.329585493 0.948102236 0.245567217 0.201987252 0.896870136 -0.399342835 0.190129608 -0.171739236 -0.410375059 0.895599186 0.993595898 0.00078741461 -0.112989262 0.994968832 0.00495505845 -0.100062557 0.990126848 -0.00792723242 -0.139949813 -0.739395797 -0.615535021 0.272782743 -0.825691402 -0.521692514 0.214640722 -0.899006486 -0.411848992 0.148888543 -0.998162389 -0.00283630681 0.060529124 -0.990064561 0.0561592914 0.128911853 0.948589146 0.275889575 -0.155124277 0.949368477 0.276006192 -0.150066853 0.771193981 -0.371577144 -0.516904533 -0.0746232867 0.000538403343 0.997211635 0.451504439 -0.858314097 -0.243804425 0.520565867 -0.83840102 -0.161539122 0.512991905 -0.841181874 -0.171033174 0.893693388 0.444113255 0.0638400093 0.954319835 0.277424484 0.110947199 0.973519564 0.184838548 0.134515181 0.506383657 0.120030515 -0.853913486 0.98774457 -0.0129800159 -0.155538529 0.211066321 -0.807469904 -0.550856888 0.0373860635 0.0635969192 -0.997275174 0.068048805 0.117817938 -0.990700901 0.0382825248 0.0651819929 -0.997138798 0.00586931361 0.00787595287 -0.99995178 -0.796586454 -0.317340583 0.514533699 0.588507891 -0.192122817 0.785332561 0.691417456 0.720103383 0.0582500212 0.654036403 0.754858375 0.049246572 0.71201086 0.69942385 0.0620230511 0.745761335 0.664755821 0.0440430231 -0.819128513 -0.1492154 -0.553862154 0.0596791245 0.988318503 -0.140231684 -0.145674556 0.534876764 0.832277477 -0.662894428 0.407527715 0.62808609 0.915639639 -0.313161612 -0.252059191 0.920116305 -0.207499549 -0.332159549 0.917614937 -0.294775099 -0.266627997 0.9005 -0.39358291 -0.18491137 0.955811083 -0.191631302 0.222940743 -0.0858886391 -0.0330231711 0.995757282 -0.175011665 -0.0645808205 0.982446074 0.208389416 -0.128821343 -0.969525099 -0.0776380897 -0.981852829 0.173024178 0.980518341 -0.10074053 0.168627292 0.917545199 -0.261444211 0.299595922 0.977212548 -0.113634981 0.179284066 0.996871948 0.00687467773 0.0787341148 0.579208136 -0.810910642 -0.0833179727 0.995691001 -0.0135437679 -0.0917387083 -0.999388099 -0.0268827118 -0.0223780535 -0.985045433 -0.169633061 -0.0301676504 -0.952489436 -0.301673591 -0.0419159606 -0.999122679 -0.0374619104 -0.0187198706 -0.907502353 -0.417350382 -0.0475196615 -0.642028689 0.714471042 0.278083205 -0.647984922 0.025356438 0.761230946 0.216140956 0.971420288 0.0981106982 -0.000851183315 -0.995386481 -0.0959428474 -0.391516298 0.902931809 0.17728278 -0.196759313 0.938026845 0.285291761 -0.280162781 0.929078043 0.241501123 0.79814887 0.602334499 0.012307452 -0.120249175 0.828852892 0.546390891 -0.996314704 0.043829035 -0.0737297013 0.993379593 0.048595313 -0.104093671 0.180388674 0.00621107221 0.983575821 -0.0980664641 0.889409602 -0.446467817 -0.112637959 0.938620627 0.32604304 0.0030320948 0.196057037 0.98058778 -0.335298061 0.204942808 0.919550776 -0.994046748 -0.104374446 0.0312574916 -0.944007576 -0.0401677079 0.327469409 -0.947934866 -0.0510441065 0.31434688 0.0615061373 -0.0181959234 -0.997940838 -0.954957426 -0.29541862 -0.0280024856 -0.362900853 -0.369515091 -0.855430603 0.878887177 0.415602654 -0.234161794 0.74069041 0.517682433 -0.428231925 0.824368954 0.464814633 -0.323052853 0.923324466 0.358344287 -0.138062477 -0.923150659 -0.364791989 0.121324487 0.986844182 0.103131451 -0.124509007 -0.902401209 -0.411254376 -0.128615126 0.749399781 0.660793841 0.041850172 -0.367624193 -0.925922036 0.0867228955 -0.428887337 -0.902971089 0.0264354255 -0.313550651 -0.939612389 0.137166232 -0.485288173 -0.873750865 -0.0324787609 -0.861778855 0.0025459826 0.507277727 -0.921378136 -0.0368239656 0.386918962 -0.957989693 -0.0358540341 0.284552664 0.602716327 -0.605555832 -0.519649148</float_array>
          <technique_common>
            <accessor source="#normals_array" count="122" stride="3">
              <param name="X" type="float" />
              <param name="Y" type="float" />
              <param name="Z" type="float" />
            </accessor>
          </technique_common>
        </source>
        <vertices id="vertices">
          <input semantic="POSITION" source="#positions" />
        </vertices>
        <triangles material="scout_1a1a1a" count="86">
          <input semantic="VERTEX" source="#vertices" offset="0" />
          <input semantic="NORMAL" source="#normals" offset="1" />
          <p>0 0 1 1 2 2 3 3 4 4 5 5 5 6 4 6 1 6 6 7 7 8 8 9 9 10 10 10 11 10 12 11 13 11 14 11 3 12 15 12 6 12 16 13 17 13 5 13 15 14 16 15 18 16 19 17 7 17 20 17 7 18 16 15 15 14 12 19 14 20 8 21 14 20 21 22 8 21 0 23 22 23 23 23 24 24 14 24 13 24 21 25 24 26 13 27 21 25 13 27 8 9 2 28 4 28 6 28 25 29 11 30 15 31 11 32 25 33 16 34 11 35 16 15 7 18 26 36 11 35 7 18 19 37 27 38 21 25 19 39 21 22 14 20 27 40 12 40 24 40 27 38 24 26 21 25 1 41 28 42 5 43 12 44 7 45 19 46 17 47 25 47 18 47 25 29 15 31 18 48 11 49 10 49 17 49 28 50 1 51 0 52 29 53 28 50 0 52 22 54 3 54 9 54 3 55 10 55 9 55 30 56 27 57 26 58 17 59 30 56 26 58 2 2 1 1 4 60 20 61 15 61 2 61 2 62 15 62 3 62 20 63 7 63 31 63 26 64 20 65 31 66 31 66 11 67 26 64 10 68 3 68 23 68 5 5 23 69 3 3 17 70 23 69 5 5 6 71 4 71 3 71 2 72 6 72 20 72 12 73 27 74 30 75 12 73 30 75 13 76 28 42 6 77 5 43 6 7 26 78 7 8 30 79 19 80 20 81 30 79 20 81 13 82 6 83 13 82 20 81 18 84 5 84 6 84 20 85 26 85 32 85 23 86 17 86 29 86 32 87 22 87 11 87 19 88 17 89 32 90 8 9 13 27 6 7 7 45 12 44 8 91 11 92 22 92 9 92 22 93 0 0 2 2 26 78 6 7 28 94 22 95 2 95 3 95 23 96 29 96 0 96 22 97 32 90 17 89 23 98 22 98 10 98 18 99 16 99 5 99 18 100 6 101 17 102 17 103 10 103 22 103 17 104 19 80 30 79 32 105 11 105 31 105 15 106 32 107 31 108 31 108 7 109 15 106 25 33 17 110 16 34 26 78 28 94 29 111 15 112 20 112 32 112 26 58 29 113 17 59 26 114 19 115 32 116 19 115 26 114 27 117 17 102 6 101 15 118 15 118 11 119 17 102 14 120 24 120 19 120 12 121 19 121 24 121</p>
        </triangles>
      </mesh>
    </geometry>
  </library_geometries>
  <library_visual_scenes>
    <visual_scene id="scene">
      <node id="left_shoulder_roll_link">
        <instance_geometry url="#geometry">
          <bind_material>
            <technique_common>
              <instance_material symbol="scout_1a1a1a" target="#scout_1a1a1a" />
            </technique_common>
          </bind_material>
        </instance_geometry>
      </node>
    </visual_scene>
  </library_visual_scenes>
  <scene>
    <instance_visual_scene url="#scene" />
  </scene>
</COLLADA>