<?xml version='1.0' encoding='utf-8'?>
<COLLADA xmlns="http://www.collada.org/2005/11/COLLADASchema" version="1.4.1">
  <asset>
    <created>2026-09-14T00:00:00Z</created>
    <modified>2026-09-14T00:00:00Z</modified>
    <unit name="metre" meter="1" />
    <up_axis>Z_UP</up_axis>
  </asset>
  <library_effects>
    <effect id="scout_1a1a1a_effect">
      <profile_COMMON>
        <technique sid="common">
          <lambert>
            <emission>
              <color>0 0 0 1</color>
            </emission>
            <ambient>
              <color>0.05 0.05 0.05 1</color>
            </ambient>
            <diffuse>
              <color>0.1 0.1 0.1 1</color>
            </diffuse>
          </lambert>
        </technique>
      </profile_COMMON>
    </effect>
  </library_effects>
  <library_materials>
    <material id="scout_1a1a1a" name="scout_1a1a1a">
      <instance_effect url="#scout_1a1a1a_effect" />
    </material>
  </library_materials>
  <library_geometries>
    <geometry id="geometry" name="left_hip_roll_link">
      <mesh>
        <source id="positions">
          <float_array id="positions_array" count="147">0.0356035978 -0.0125976354 -0.0497154035 0.0321254916 0.000595775375 -0.0513441376 0.0637010932 -0.012034825 0.00401148479 0.00424645795 -0.0487424321 -0.0484778807 -0.0468216352 -0.0452490523 -0.0171137657 -0.0331002027 -0.0384704135 -0.0436133146 -0.030389756 -0.0515190586 -0.0349961817 0.0256505813 -0.0419794098 -0.0453073271 -0.0143175386 0.0109119592 0.0620144531 -0.0644032285 0.0217211265 0.0489923544 -0.0675679147 -0.00190708647 0.0531628318 -0.0627929494 -0.0281761251 0.0451266281 -0.0630007163 0.0468485691 -0.0259881616 -0.0616314374 0.0193151962 -0.0481957234 -0.0684433728 0.00792540889 -0.0537293628 -0.0576784723 0.0144665558 -0.00930270366 -0.0292870011 0.0193008725 -0.0464871116 -0.0551722273 0.0131221581 -0.0243425984 -0.0144750299 0.00800328515 -0.0588738546 -0.0624643862 -0.0187549964 -0.04912192 -0.0587759092 0.0304681212 -0.000105334882 -0.059657976 0.00722730486 0.00911855232 -0.0553810745 0.0143811619 0.023364231 -0.0175545085 0.0194675885 0.053197518 -0.0133184241 0.00641171401 0.0565503836 0.0464637354 -0.0474614277 -0.0155792851 0.029797649 -0.0124146491 0.0505956672 0.0253933854 -0.048116114 0.0415580869 0.0476950966 -0.0415739827 0.020407239 0.0289786067 0.000630181283 0.0509093814 0.0562612191 0.000519803783 0.0204599313 0.0536903776 0.0191325452 -0.010817267 0.0411962979 0.0200999454 0.039315816 -0.0211988818 -0.0174723025 -0.0528704487 -0.0131245665 -0.0189456679 -0.0613930784 0.0253617968 0.0199024975 -0.050340496 -0.0603755228 -0.0215536524 0.00107517559 0.0540705845 0.0010868425 -0.0193563569 -0.0635584667 0.0572806336 0.00343749369 -0.0604151599 0.00518952543 0.0318501107 -0.0600352101 -0.00713708997 -0.0311549269 -0.0625798628 -0.0153235141 0.032236632 -0.0641842037 -0.0533180907 -0.0174606889 -0.0634480268 -0.0540202372 0.0108848689 -0.0127990097 -0.0177587979 0.0593724959 -0.0453091376 -0.0461844243 0.0197557583 -0.0410768576 -0.00266538351 -0.0508947857 -0.0411065333 -0.003212763 0.050746832 -0.0225801356 -0.0452836677 0.0450945944</float_array>
          <technique_common>
            <accessor source="#positions_array" count="49" stride="3">
              <param name="X" type="float" />
              <param name="Y" type="float" />
              <param name="Z" type="float" />
            </accessor>
          </technique_common>
        </source>
        <source id="normals">
          <float_array id="normals_array" count="372">0.864898741 -0.0321028605 -0.500918746 0.873746037 0.0871634409 -0.478508562 0.912531674 -0.29203108 -0.286363155 -0.290945351 -0.87987572 -0.375725359 -0.270897269 0.803203642 -0.530545533 -0.000634155178 0.426120609 -0.904666126 -0.204477966 -0.0798169822 0.975611627 -0.206698462 0.196845889 0.958398402 -0.141076624 -0.0944487602 0.98548305 -0.137049749 -0.244737372 0.959854662 -0.363358706 0.573882461 -0.73391372 -0.103194386 0.994661152 -0.000281566347 -0.0322435834 0.9939906 0.104609042 -0.341602206 0.929359078 -0.139998823 -0.647980094 -0.0146171572 -0.761517048 -0.214265376 0.0284415539 -0.976361334 -0.0309253819 0.0825440884 -0.996107459 -0.222790807 0.0446492359 -0.973843277 0.989590347 0.137209654 0.0434097461 0.99082917 -0.0806360543 -0.108422004 0.989452302 -0.0149572361 0.144084677 -0.908142447 0.413592666 0.0649489462 -0.619319975 0.000687370775 0.785138369 0.130754545 -0.990963638 -0.0299056377 0.121335693 -0.988394082 -0.0914045423 0.329454869 -0.86018604 -0.389280647 0.517387271 -0.122515 0.846935928 0.433708221 -0.321275234 0.841830969 0.769085407 -0.166739121 0.617013514 0.394780785 -0.908778071 0.135168791 0.0774463564 -0.995207965 0.0596919507 0.179253682 0.330234915 0.926721632 0.158606514 0.221577436 0.962157667 0.197666481 0.223566324 0.954434931 0.900264144 0.423359215 0.101446815 0.952460825 0.226467282 -0.203791484 0.861299217 0.464603901 0.205686212 0.795914471 -0.180794135 0.577783406 0.0496645048 -0.985059738 0.164895996 0.0657687411 -0.970927835 0.230159909 0.0702088177 -0.969662607 0.234147668 0.266767353 0.947945774 0.173879176 -0.0577646904 0.70225358 -0.709579587 -0.823560715 0.130430117 -0.552028775 -0.867293 -0.126528144 -0.481449306 -0.850622833 0.016742548 -0.525509715 -0.799404085 0.203952044 -0.565116525 0.836869359 0.546063483 -0.0382666327 0.905139983 0.264089584 -0.333134115 0.206205502 0.0314030871 -0.978004694 0.175895825 0.112459853 -0.977963924 -0.980972409 -0.0395527929 -0.190075383 -0.997436404 -0.0689284205 -0.0192220174 -0.995130539 -0.000665941916 -0.0985635146 -0.952643216 0.075605914 -0.294541389 -0.997117937 0.0206725709 0.0729963183 -0.998821914 0.0117010968 -0.0470944084 -0.995994925 -0.0609702244 0.0653964654 -0.950491846 -0.0809264034 0.300026953 -0.997867227 0.0650965646 0.00483496068 -0.999699175 0.0100941071 0.0223538745 -0.996969163 -0.0462271869 -0.0625740439 -0.979966998 -0.132697672 -0.148512512 -0.992058873 0.108162425 0.0641879365 0.886585653 -0.312638104 -0.340915412 0.740555346 -0.337998331 -0.580805421 0.2380182 -0.962303102 -0.131605953 -0.0492993817 -0.379376918 -0.923927903 -0.0174978022 -0.325231582 -0.945472479 0.0404103324 -0.223306477 -0.973910272 0.783727169 0.302753955 -0.542320728 0.783557892 0.295787185 -0.546394527 -0.0291634258 0.0767084956 -0.996626973 0.239630252 -0.056478288 -0.969220042 -0.860312283 -0.509276211 0.0223723259 -0.57432884 0.72065115 -0.388340533 -0.0771570876 -0.937907755 -0.338194966 0.0280794166 -0.999068856 -0.0327563807 0.0258709192 -0.998054802 -0.0567214973 0.625146985 0.00531048561 -0.780488968 0.069258973 -0.170915753 -0.982848406 -0.0396777615 0.161396712 0.986091673 -0.0947681963 -0.992969513 0.0709259138 -0.364703536 -0.931083441 -0.00866015349 -0.0483164936 -0.998614788 0.020834161 -0.052667208 -0.995188475 0.0826199651 -0.27891165 -0.843543231 -0.458958775 -0.00790415611 0.840955615 -0.541046381 0.888458788 -0.456810057 0.0443341061 0.773044109 -0.204154864 0.600602746 0.744751632 -0.00583349261 0.667316198 -0.759773552 -0.00402852986 0.650175333 -0.744359374 0.0497365631 0.665924489 -0.767325521 -0.0343017951 0.640339673 -0.771869123 -0.0543038286 0.633458138 0.316570222 0.826756895 -0.46503371 0.305141419 0.938534141 -0.161376402 0.308333606 0.92993784 -0.20036456 0.312157869 0.760550439 -0.569315791 -0.0244000759 0.999598801 0.014382707 -0.0870800465 0.995984495 -0.0207847171 -0.0643426329 0.997674644 -0.0224791821 -0.000397414697 0.999997675 -0.00213208771 0.0401094593 0.999152184 -0.00928427652 0.965779006 -0.126515701 -0.226417199 0.938459992 0.305084854 0.161913678 0.87587887 0.447645277 0.180138752 0.984473884 0.169644728 0.0450762063 0.97508812 0.206695333 -0.0804999918 0.982713163 0.17301859 -0.0658739209 0.955801606 0.21191445 -0.20380266 0.138139188 -0.186840191 0.972629607 0.0372085534 -0.470531434 0.881598353 0.770102739 -0.365668684 -0.52271229 -0.67769295 0.0852777958 0.730383456 -0.252887577 -0.102049597 0.962098598 0.994660914 -0.0921135396 -0.0465266816 0.995806217 -0.0910708904 -0.00872451719 0.994555473 -0.0969436243 -0.0382279158 0.995712519 -0.0922754258 0.00646890793 0.99577713 -0.0814233199 0.0424047671 0.988102198 0.0386159234 0.14887175 0.206484258 0.401695341 0.892191172 0.742839813 -0.0696662217 0.665834546</float_array>
          <technique_common>
            <accessor source="#normals_array" count="124" stride="3">
              <param name="X" type="float" />
              <param name="Y" type="float" />
              <param name="Z" type="float" />
            </accessor>
          </technique_common>
        </source>
        <vertices id="vertices">
          <input semantic="POSITION" source="#positions" />
        </vertices>
        <triangles material="scout_1a1a1a" count="94">
          <input semantic="VERTEX" source="#vertices" offset="0" />
          <input semantic="NORMAL" source="#normals" offset="1" />
          <p>0 0 1 1 2 2 3 3 4 3 5 3 4 4 3 4 6 4 3 5 5 5 7 5 8 6 9 7 10 8 10 8 11 9 8 6 12 10 13 10 14 10 15 11 16 12 17 13 16 14 18 14 17 14 13 15 18 16 19 17 20 18 21 19 15 20 15 21 21 21 22 21 23 22 22 22 24 22 25 23 3 24 7 25 26 26 27 27 28 28 28 29 27 30 25 23 23 31 24 32 29 33 30 34 31 35 32 36 2 37 26 26 28 28 33 38 34 39 0 40 17 41 18 41 13 41 18 42 16 42 35 42 5 43 4 44 36 45 36 45 33 46 5 43 2 47 37 48 30 34 1 49 18 16 35 50 9 51 38 52 39 53 9 51 39 53 10 54 39 53 38 52 40 55 41 56 39 53 40 55 40 55 38 52 12 57 40 55 12 57 14 58 41 56 40 55 42 59 41 56 42 59 43 60 11 61 10 62 41 56 43 60 11 61 41 56 19 63 42 59 40 55 0 0 25 64 7 65 44 66 11 66 36 66 5 67 33 68 7 69 37 48 1 70 35 71 18 16 1 49 34 72 0 73 34 72 1 49 19 17 18 16 34 72 30 34 37 48 31 35 4 74 45 74 36 74 19 75 40 75 46 75 47 76 10 76 39 76 19 77 34 39 33 38 33 38 36 78 19 77 19 79 14 79 13 79 31 35 37 48 35 71 33 68 0 80 7 69 46 81 14 81 19 81 45 82 4 83 6 84 27 30 45 82 6 84 48 85 45 82 27 30 3 24 27 30 6 84 46 86 40 86 14 86 10 87 47 87 41 87 28 88 25 64 2 2 26 26 30 89 29 90 36 91 45 92 48 93 36 91 48 93 44 94 24 95 22 96 9 97 8 98 24 95 9 97 16 12 15 11 35 99 15 11 22 100 35 99 22 100 23 101 35 99 35 99 23 101 32 102 31 103 35 99 32 102 21 19 20 18 22 104 9 105 22 106 20 18 9 105 20 18 38 107 12 108 38 107 20 18 20 18 15 20 17 109 20 18 17 109 12 108 13 110 12 108 17 109 0 0 2 2 25 64 27 27 44 111 48 112 44 111 27 27 26 26 2 37 30 89 26 26 2 2 1 1 37 113 29 33 44 111 26 26 39 114 41 114 47 114 24 32 44 111 29 33 8 6 11 9 44 115 3 24 25 23 27 30 19 116 36 117 42 118 36 117 43 119 42 118 43 119 36 117 11 120 44 121 24 121 8 121 29 33 32 122 23 31 29 90 30 89 32 123</p>
        </triangles>
      </mesh>
    </geometry>
  </library_geometries>
  <library_visual_scenes>
    <visual_scene id="scene">
      <node id="left_hip_roll_link">
        <instance_geometry url="#geometry">
          <bind_material>
            <technique_common>
              <instance_material symbol="scout_1a1a1a" target="#scout_1a1a1a" />
            </technique_common>
          </bind_material>
        </instance_geometry>
      </node>
    </visual_scene>
  </library_visual_scenes>
  <scene>
    <instance_visual_scene url="#scene" />
  </scene>
</COLLADA>