<?xml version='1.0' encoding='utf-8'?>
<COLLADA xmlns="http://www.collada.org/2005/11/COLLADASchema" version="1.4.1">
  <asset>
    <created>2026-09-14T00:00:00Z</created>
    <modified>2026-09-14T00:00:00Z</modified>
    <unit name="metre" meter="1" />
    <up_axis>Z_UP</up_axis>
  </asset>
  <library_effects>
    <effect id="scout_1a1a1a_effect">
      <profile_COMMON>
        <technique sid="common">
          <lambert>
            <emission>
              <color>0 0 0 1</color>
            </emission>
            <ambient>
              <color>0.05 0.05 0.05 1</color>
            </ambient>
            <diffuse>
              <color>0.1 0.1 0.1 1</color>
            </diffuse>
          </lambert>
        </technique>
      </profile_COMMON>
    </effect>
  </library_effects>
  <library_materials>
    <material id="scout_1a1a1a" name="scout_1a1a1a">
      <instance_effect url="#scout_1a1a1a_effect" />
    </material>
  </library_materials>
  <library_geometries>
    <geometry id="geometry" name="left_shoulder_yaw_link">
      <mesh>
        <source id="positions">
          <float_array id="positions_array" count="207">-0.00546097336 -0.0207901914 -0.158816114 -0.0137519389 -0.0287770536 -0.159314781 -0.028498603 -0.019557124 -0.169577435 -0.0103176665 -0.0235794261 -0.0903231055 -0.0206982642 -0.0199826937 -0.0650446638 -0.0235583708 -0.0116462521 -0.110153072 -0.0293163713 -0.0138085121 -0.000844393857 -0.00796408858 -0.0309909973 -0.000489550119 0.0025252949 -0.0109694367 -0.225003034 0.0134160658 -0.018207103 -0.22888568 -0.0120007033 -0.0166503619 -0.202864975 -0.029493643 0.0179758258 -0.20621115 -0.0151699604 0.0164118465 -0.232725233 -0.0222860835 -0.00978311803 -0.224483445 0.0660707504 0.01827267 -0.20474565 0.0663588494 -0.020160839 -0.203191757 0.0630045384 -0.00880986638 -0.217376813 -0.0173238255 0.0203502532 -0.109112956 -0.0269987751 0.022824835 -0.170810223 -0.0242724083 0.0126715647 -0.124668263 -0.0291152839 0.0128384316 -0.00104841636 -0.0132544804 0.0294241104 -0.00106787612 0.0147519838 0.0161233656 -0.24729827 -0.000687260646 -0.00962455571 -0.242300704 -0.0130435592 0.0224134885 -0.200855136 0.0137456553 0.0193635374 -0.228818119 -0.00316433725 0.0173855852 -0.220458552 -0.00428826734 0.0282863732 -0.153519541 -0.0106858462 0.0240170062 -0.0965953618 0.0133008035 0.0295893103 -0.00124400854 0.019490974 -0.0266232044 -0.141388178 0.0249758381 -0.0171687659 -0.117559955 0.0096816374 -0.0245497972 -0.0893527046 0.022394143 -0.0156204561 -0.0882906318 0.0239458531 -0.0235198066 -0.00105970039 0.00915044453 -0.0253309105 -0.0707904622 0.0214497596 -0.0242038053 -0.193542361 0.0143993739 -0.0257613845 -0.19942987 0.0234057568 -0.0283953696 -0.196447462 0.0195835494 -0.020317506 -0.208046526 0.0230483282 -0.0287655313 -0.199085519 0.035517998 -0.020720249 -0.143471166 0.0224950388 0.0170429945 -0.0868951976 0.0301131196 -0.0052537811 -0.013950428 0.0360591859 -0.0140187433 -0.222659558 0.0320398659 0.000533825718 0.000489194819 0.0412935019 -0.00109034299 -0.00290296809 0.0110183172 0.0237229969 -0.101904549 0.0281298403 0.0229685027 -0.138629466 0.0296086948 0.0130673675 -0.131718487 -0.0101221614 -0.0252833106 -0.0711242259 0.030105304 0.00479075871 -0.0135490242 0.0276104864 0.0179669466 -0.00218545576 0.0531853177 0.016277859 -0.232736588 0.033049643 -0.00943831168 -0.245397076 0.0643804446 0.0207996853 -0.177137896 -0.0289340485 -0.0195662547 -0.202771634 0.0638047978 -0.02072341 -0.176162928 -0.00872348435 -0.0113865612 -0.0715227574 0.00874277856 -0.0112303765 -0.0716422945 -0.00863772724 -0.0113251116 -0.0887573808 0.0477143787 -0.0147386016 -0.204405203 0.0412508287 0.0224303193 -0.174884796 0.0480708592 0.0214672759 -0.204490334 0.00709207356 0.0229769591 -0.169330969 0.00861519575 -0.0113865575 -0.0885368213 0.0391028635 0.0192778353 -0.220988154 -0.00518824207 -0.000153547575 -0.00598283205 0.0048959502 0.001090265 -0.00452721631</float_array>
          <technique_common>
            <accessor source="#positions_array" count="69" stride="3">
              <param name="X" type="float" />
              <param name="Y" type="float" />
              <param name="Z" type="float" />
            </accessor>
          </technique_common>
        </source>
        <source id="normals">
          <float_array id="normals_array" count="450">0.415522039 -0.44037953 -0.795868933 0.404452384 -0.367565185 -0.837445021 0.38234669 -0.343343407 -0.857861459 -0.595438242 -0.801681578 -0.0525350645 -0.620867491 -0.777121186 0.102986619 -0.572216988 -0.815160453 0.0898956284 -0.66142112 -0.747547448 -0.0607860833 -0.747990131 -0.657960653 0.0871700644 -0.645998597 -0.763222456 -0.0133178895 -0.21838288 -0.975500524 -0.0266006496 -0.590687335 -0.598517418 -0.541170359 -0.982329428 0.024012465 -0.185613409 -0.691509962 0.0408635475 -0.721210182 -0.849992573 -0.0155802295 -0.526564181 0.987884045 0.0375333726 -0.15058662 0.99961096 -0.00309585198 -0.027719222 0.906136215 -0.0202438738 -0.422501236 -0.608291447 0.793693364 0.00568914739 -0.995123386 0.0668198988 0.0725570992 -0.962952793 0.257380635 0.0804808512 -0.72170192 0.69152379 -0.0306790434 -0.389051735 0.919958949 -0.0481073037 -0.0710382313 0.0357473753 -0.996832848 -0.399695635 -0.0361614972 -0.915934324 -0.0919701383 0.989194691 -0.11417266 -0.0578211807 0.985532224 -0.159320265 -0.100067355 0.966307282 -0.237142786 -0.31304881 0.946588159 0.0772739574 -0.293106616 0.952368319 0.0841610208 -0.205827922 0.977962315 -0.0349941142 0.320323974 0.945673466 -0.0556262918 0.244611204 -0.758463502 -0.604068279 0.58242178 -0.795621932 0.166644976 0.567592621 -0.823185205 0.0143093346 0.445248991 -0.862696767 0.239807412 0.885584056 -0.464479029 0.000213273088 0.676133573 -0.736063182 -0.0324713811 0.190651074 -0.980587602 -0.0458270907 -0.213483021 0.966153502 -0.144818649 -0.0563479215 0.997778893 -0.0355279185 -0.0527896211 -0.991971135 0.114919692 -0.220286563 -0.863847613 0.453035533 -0.382059097 -0.816705465 0.43246153 -0.209404647 -0.76485759 -0.609214723 -0.0261947457 -0.950998485 -0.308083951 -0.236288577 -0.750968039 -0.616615534 0.933786035 0.356992602 -0.0244942363 0.915934563 0.396486938 -0.0621446148 0.911325336 0.405532718 -0.0709181577 0.216284677 -0.789779544 -0.57399404 0.363485932 -0.891587794 0.270091176 0.999958575 -0.00519105745 0.00747835403 0.973050416 -0.224121064 -0.0542465821 0.109667934 0.59296155 -0.797727764 -0.154368043 -0.950998962 -0.267901987 0.947751284 -0.319007099 0.00139973941 -0.0252583791 -0.926751196 0.374825597 0.225126147 0.973977566 -0.0261907261 0.0998406857 0.992715716 0.0674338713 0.874484062 0.18555285 0.44816038 0.973577738 -0.0167090725 0.22774367 0.827099621 -0.0500719994 0.559820473 -0.331309736 -0.940676808 -0.0732187033 0.984446406 0.158466354 -0.0758533329 0.969660699 0.236602843 -0.0614592135 0.969574988 0.23686868 -0.0617862418 0.837079346 0.391649365 0.38198036 0.723399282 0.464559615 0.510762036 0.121831961 0.988655984 0.0878426954 0.549222767 0.834572196 -0.0429378226 0.500461698 0.865754664 0.0026369174 0.698669672 0.00449393876 -0.71543026 0.319295019 -0.0129110068 -0.947567403 -0.998298824 0.0207211301 0.0544985645 0.929570317 0.0365500785 0.366828531 -0.022398185 -0.988218606 -0.151401207 0.167259946 -0.975827038 -0.140661791 0.053928446 -0.95463872 -0.292842388 0.924348652 -0.0220367238 0.380911946 0.04762825 -0.992271125 -0.114584155 0.159568071 -0.968578517 -0.190771207 0.42252633 0.542251229 -0.726247251 0.0383109115 -0.253423333 -0.966596544 0.0510279462 -0.998648763 -0.00983810797 0.0177706275 -0.997764409 0.0644236133 0.121786229 -0.975851059 -0.18133606 -0.0586521961 -0.997437537 0.0409662575 0.00545488251 -0.999779165 -0.0202936996 -0.088038072 -0.994967341 0.0478470474 -0.00659029931 -0.0280028321 -0.999586105 0.00771979662 -0.0471863523 -0.998856246 0.00377591513 -0.0419014581 -0.999114633 0.0171368122 -0.0597988851 -0.998063326 -0.0235286094 0.992206931 -0.122359157 -0.0191025417 0.988800824 -0.148013636 -0.9997316 -0.023060035 0.0022403691 -0.998597443 0.0071342322 -0.0524615124 -0.998718143 -0.00117125758 -0.0506037958 0.99270463 -0.120027691 -0.0114423893 0.994975805 -0.100010231 0.00459426129 0.993539572 -0.11332424 -0.00606577005 0.990868747 -0.133040115 -0.0218973272 -0.329267889 -0.927913427 0.174812302 -0.053904824 -0.998545587 0.000981781282 0.0111979283 -0.997756183 0.0660087988 -0.0499109402 -0.99829185 0.0303691626 -0.0240648836 -0.998675406 0.0454793461 0.0247559864 -0.996960163 0.0738757029 0.697048843 0.0291722193 -0.716429949 0.217606574 -0.959891558 -0.176792607 0.222953767 -0.955014884 -0.195545882 0.0332926027 -0.983846486 -0.175891235 -0.0214763563 -0.997061551 -0.0735321194 -0.0519899279 -0.941456974 -0.333100379 0.0645302534 0.996197879 -0.0585286766 0.146762118 0.985633016 -0.0835965797 0.0496148132 0.998612881 -0.0176248699 0.0227103699 0.999740601 -0.00172040204 0.0994216651 0.991943777 -0.0785043389 0.00452571828 0.999922752 -0.0115763834 0.00275253342 -0.99999243 0.00273990072 -0.00367983151 -0.99995023 0.00927167665 0.00261498359 -0.99999243 0.00287958095 0.00891756453 -0.999954045 -0.00352084544 -0.038970314 -0.0987449139 0.99434942 -0.0538914837 -0.119282067 0.991396725 -0.0294503719 -0.0856265277 0.995891929 -0.0129823908 -0.0629056692 0.997935057 -0.998609185 -0.0505727567 -0.0149038155 -0.996658623 -0.0812590569 0.00827769283 -0.998227477 -0.0588843375 -0.0086327279 -0.999082148 -0.0306900218 -0.0298820119 -0.191059321 -0.787951648 -0.585344851 -0.992954612 -0.0254044998 -0.115740262 0.091372557 0.981827319 -0.166331649 0.0447316095 0.98701489 -0.154274836 0.101932511 0.129771337 -0.986290634 0.62793386 0.776882708 -0.0463933088 0.255024046 0.934526324 0.248240471 -0.0103479195 0.010272203 0.999893725 0.158190131 0.0904841796 0.983254015 0.0243758913 0.153187171 0.987896502 0.166677713 -0.0666681007 0.983754992 -0.0982350409 0.00249727187 0.995160103 0.0471315868 -0.131660506 0.990173757 -0.00683034584 -0.11245627 0.993633211 -0.0918323845 0.068882145 0.993389189 -0.180460349 0.0517779291 0.982218444 -0.0973804072 -0.00702874456 0.99522239 0.834747612 0.518328249 -0.185828507</float_array>
          <technique_common>
            <accessor source="#normals_array" count="150" stride="3">
              <param name="X" type="float" />
              <param name="Y" type="float" />
              <param name="Z" type="float" />
            </accessor>
          </technique_common>
        </source>
        <vertices id="vertices">
          <input semantic="POSITION" source="#positions" />
        </vertices>
        <triangles material="scout_1a1a1a" count="134">
          <input semantic="VERTEX" source="#vertices" offset="0" />
          <input semantic="NORMAL" source="#normals" offset="1" />
          <p>0 0 1 1 2 2 3 3 2 4 1 5 4 6 5 7 3 3 6 8 4 6 7 9 6 8 5 7 4 6 8 10 9 10 10 10 11 11 12 12 13 13 14 14 15 15 16 16 5 7 2 4 3 3 17 17 18 18 19 19 17 17 19 19 20 20 21 21 17 17 20 20 12 12 22 22 23 23 24 24 25 25 26 26 17 17 27 27 18 28 28 29 27 27 17 17 28 29 21 21 29 30 17 17 21 21 28 29 0 0 30 31 1 1 31 32 32 33 30 34 33 35 32 33 31 32 34 36 35 37 32 33 11 38 18 39 24 24 34 36 7 9 35 37 36 40 37 41 38 42 37 43 39 44 40 45 39 46 36 47 40 48 41 49 30 31 0 0 31 32 30 34 41 50 33 35 34 36 32 33 42 51 43 52 33 35 8 53 44 53 9 53 10 54 39 44 37 43 43 52 45 55 34 36 46 56 45 56 43 56 28 29 47 57 48 58 49 59 31 60 41 61 35 37 7 9 50 62 51 63 52 64 45 65 47 66 49 59 48 67 27 68 28 29 48 58 47 57 42 69 49 70 22 22 53 71 54 72 18 18 11 11 2 73 55 74 48 67 49 59 8 75 10 76 56 77 50 62 7 9 4 6 55 74 49 59 57 78 57 78 49 59 41 61 13 13 12 12 23 23 39 44 10 54 9 79 39 44 9 79 44 80 48 81 18 81 27 81 37 82 56 82 10 82 57 83 41 84 36 40 57 83 36 40 39 85 41 84 0 86 36 40 39 85 15 87 57 83 0 86 56 88 36 40 56 88 37 41 36 40 58 89 59 90 50 91 59 90 35 92 50 91 12 93 11 38 24 24 24 24 26 26 12 93 22 94 26 26 25 25 2 73 19 19 18 18 2 73 5 95 19 19 6 96 20 97 5 95 60 98 58 99 50 100 60 98 50 100 3 101 19 19 5 95 20 97 4 6 3 3 50 62 40 102 38 42 37 41 2 103 56 88 0 86 30 104 32 105 3 106 30 104 3 106 1 107 46 108 43 108 51 108 29 30 47 57 28 29 31 60 42 51 33 35 42 51 51 63 43 52 61 109 44 80 16 110 54 111 16 110 44 80 44 80 8 75 54 111 54 111 8 75 23 112 8 75 56 77 13 113 8 75 13 113 23 112 55 114 14 115 62 116 48 117 55 114 62 116 14 115 63 118 62 116 48 117 62 116 64 119 18 39 48 117 64 119 18 39 64 119 24 24 54 72 53 71 16 16 60 120 65 121 59 122 59 122 58 123 60 120 60 124 3 125 32 126 32 126 65 127 60 124 33 35 43 52 34 36 59 128 65 129 32 130 59 128 32 130 35 131 23 23 22 22 54 72 16 132 15 132 61 132 13 13 56 133 11 11 26 26 22 94 12 93 44 80 61 109 39 44 42 69 47 57 29 30 53 134 22 94 25 25 53 134 25 25 66 135 15 136 39 136 61 136 52 64 51 63 42 51 42 69 29 30 52 137 49 59 42 51 31 60 11 11 56 133 2 73 64 119 62 116 63 118 64 119 63 118 24 24 63 118 66 135 24 24 66 135 25 25 24 24 46 138 51 138 45 138 66 135 63 118 53 134 63 118 14 115 53 134 53 71 14 14 16 16 57 78 15 15 55 74 15 15 14 14 55 74 67 139 6 140 7 141 20 142 6 140 67 139 7 141 68 143 67 139 21 144 20 142 67 139 21 144 67 139 68 143 29 145 21 144 68 143 68 143 7 141 34 146 68 143 34 146 45 147 29 145 68 143 52 148 52 148 68 143 45 147 38 149 40 48 36 47</p>
        </triangles>
      </mesh>
    </geometry>
  </library_geometries>
  <library_visual_scenes>
    <visual_scene id="scene">
      <node id="left_shoulder_yaw_link">
        <instance_geometry url="#geometry">
          <bind_material>
            <technique_common>
              <instance_material symbol="scout_1a1a1a" target="#scout_1a1a1a" />
            </technique_common>
          </bind_material>
        </instance_geometry>
      </node>
    </visual_scene>
  </library_visual_scenes>
  <scene>
    <instance_visual_scene url="#scene" />
  </scene>
</COLLADA>