<?xml version='1.0' encoding='utf-8'?>
<COLLADA xmlns="http://www.collada.org/2005/11/COLLADASchema" version="1.4.1">
  <asset>
    <created>2026-09-14T00:00:00Z</created>
    <modified>2026-09-14T00:00:00Z</modified>
    <unit name="metre" meter="1" />
    <up_axis>Z_UP</up_axis>
  </asset>
  <library_effects>
    <effect id="scout_1a1a1a_effect">
      <profile_COMMON>
        <technique sid="common">
          <lambert>
            <emission>
              <color>0 0 0 1</color>
            </emission>
            <ambient>
              <color>0.05 0.05 0.05 1</color>
            </ambient>
            <diffuse>
              <color>0.1 0.1 0.1 1</color>
            </diffuse>
          </lambert>
        </technique>
      </profile_COMMON>
    </effect>
  </library_effects>
  <library_materials>
    <material id="scout_1a1a1a" name="scout_1a1a1a">
      <instance_effect url="#scout_1a1a1a_effect" />
    </material>
  </library_materials>
  <library_geometries>
    <geometry id="geometry" name="left_shoulder_pitch_link">
      <mesh>
        <source id="positions">
          <float_array id="positions_array" count="123">-0.0285783429 0.0924201682 -0.0516736396 -0.033772517 0.080685176 -0.0347583815 -0.0341654122 0.0796645656 0.00541123236 -0.0284274742 0.0106689781 0.00235340651 1.43944526e-05 0.0380388945 0.0288478769 -0.0282313377 0.037802279 0.0280404054 -0.00357070426 0.00677586207 -0.0335575864 -0.00274504395 0.00727534667 -0.0132621359 -0.0288098715 0.0125769824 -0.0377643481 -0.0196613353 0.031399034 -0.0587232932 -0.0286843963 0.078141965 0.02752712 0.00068834814 0.102735251 -0.000528996345 -0.0283239875 0.102917962 -0.000406030449 0.00353241828 0.0368026905 -0.0597895496 0.00046976583 0.0747382566 -0.0621654131 0.00235030008 0.0122953467 -0.0384282507 -0.010499387 0.00208586245 0.00167441217 -0.00267287577 0.00417980785 0.0339287817 -0.0346571468 0.00187674502 0.00166116387 -0.00190791348 0.00287139625 -0.00986224972 0.000558761822 0.100205824 -0.0372705683 -0.00282765995 0.0159903839 0.0109003354 0.0325350128 0.00137641293 0.0127940318 0.00516731245 0.00436871219 0.0170304496 0.00313570513 0.00568211824 -0.0131042209 0.0104698939 0.00188638887 -0.00297583384 0.000925238826 0.0112975622 0.00715095177 0.0190772656 0.00141771941 -0.0281059481 0.0246275347 0.0737981424 0.0229490697 0.0263951886 0.0387034267 0.0225158297 0.000362144347 0.0767335445 0.0279939827 0.0253918748 0.0968395546 -0.00120471208 0.0240877271 0.0389770567 -0.0557051413 0.0259814709 0.0166524183 -0.0323531441 -0.0336832814 0.0309606735 0.000581544416 0.0244389586 0.0970881432 -0.0321128815 -0.00831125677 0.00567971962 0.0128514785 -0.034529034 0.0599731505 -0.0475983322 -0.034290947 0.0288897902 -0.0284672938 0.0251436215 0.0735355467 -0.0559385605 0.02342101 0.0160223786 -0.000541548128</float_array>
          <technique_common>
            <accessor source="#positions_array" count="41" stride="3">
              <param name="X" type="float" />
              <param name="Y" type="float" />
              <param name="Z" type="float" />
            </accessor>
          </technique_common>
        </source>
        <source id="normals">
          <float_array id="normals_array" count="336">-0.965230763 0.238893554 -0.106110707 -0.973629177 0.221881747 -0.0530534051 -0.982002556 0.136217982 0.130826861 -0.0596013889 -0.914950192 0.399141401 -0.0590865538 -0.661930919 0.747232378 -0.0150012784 -0.687352836 0.726168752 -0.229143962 -0.972824037 0.0332638212 -0.0997407734 -0.98966223 0.103055701 -0.188062921 -0.982078195 -0.0124394335 0.00846171007 -0.712034047 -0.702093959 -0.0546208359 -0.730937064 -0.680255473 0.0498589464 -0.690026641 -0.722064614 0.0178386457 0.742538333 0.669566035 0.0997663811 0.737526417 0.667908311 0.00752359396 0.748050451 0.663599253 0.0867315382 -0.0459188931 -0.995172918 -0.55663532 -0.114830866 -0.822782457 -0.0492823012 0.00466183061 -0.998773992 0.170037091 -0.652143657 -0.738780081 0.149726644 -0.680831969 -0.716972589 0.00865892973 -0.999946833 -0.00559481373 0.0086045824 -0.997995198 0.0627016872 -0.00239277515 -0.999453902 -0.0329565704 -0.069818221 -0.992050767 -0.104693323 -0.129519776 -0.979801416 -0.152360648 -0.0659947172 0.990017176 -0.124541886 0.0997981876 0.993793726 -0.0491363816 -0.00670797238 0.992495239 -0.122098915 -0.053907983 -0.767203569 0.639134228 0.118554108 0.990746379 0.066080004 0.141280159 0.98989743 0.0119571928 0.116730563 0.991715372 0.0536154062 0.37878111 0.921563148 -0.0851251632 -0.450266957 -0.892852962 -0.00855867751 0.887915075 0.455873281 -0.0615338422 0.902235746 0.421336144 -0.0919050053 0.759493709 0.638968408 0.122019179 0.216773093 0.975098193 -0.0468282849 0.314084649 0.947953761 -0.0522926748 -0.398366094 0.0476094 -0.915990055 0.907123148 -0.00885384902 0.420772165 0.21642004 0.0120749427 0.976225674 0.0954677239 0.0152116455 0.995316267 0.233401686 -0.00024792226 0.9723804 0.117308177 0.728276551 0.675168157 0.20346421 0.716196477 0.667581439 -0.981742561 -0.0436957292 0.185127586 -0.643637478 -0.720632315 0.2577205 0.248444334 -0.660931647 -0.708127618 0.297787398 -0.67785728 -0.672184587 -0.187301487 0.867541075 0.460750043 -0.160915628 0.967062473 -0.197221398 -0.969560385 0.0703786165 0.234519675 -0.983484805 -0.138192311 0.1168781 0.177538931 0.983204842 -0.0422873609 0.232155755 0.972678423 0.000665611529 0.942306638 0.229682699 -0.243524209 0.291314721 -0.659330368 0.693122804 0.263478667 -0.64634794 0.716109812 0.198909879 -0.613376081 0.764332831 -0.588004351 0.162789941 -0.79230696 -0.577970207 0.803060651 -0.145065784 -0.115367137 -0.991183758 -0.0651551485 -0.176234365 -0.960463405 0.215526149 -0.153974697 -0.974966884 0.160410017 -0.339559197 -0.826839387 0.448370636 -0.241754323 -0.929218531 -0.279477745 0.655407667 -0.747143865 -0.110530064 -0.895338655 -0.00912045129 -0.445292652 -0.981705904 -0.177708223 -0.0683616698 0.596588552 -0.7542485 0.274210393 0.596294343 0.787976801 -0.153380632 0.267828196 -0.963442564 -0.00681670336 0.684246242 -0.729230881 0.0054295999 0.411863178 -0.911218286 -0.00707052136 0.225432828 0.701373219 0.676206768 0.191550121 0.685733974 -0.70219475 0.164651439 0.689185619 -0.705629528 0.201711714 0.689920664 -0.695213497 0.227792904 -0.0319920555 -0.97318393 0.19616136 -0.0126160262 -0.980490446 -0.174558073 0.984497905 -0.0171278119 -0.168637976 0.984912038 0.0388519578 -0.168096766 0.985766351 -0.00285200868 -0.17755051 0.980450034 0.0848144665 -0.191828966 0.973986983 0.120627373 0.679792821 -0.726484358 0.100509755 0.660604358 0.533407271 0.528278828 0.359992176 -0.687900245 0.630237162 -0.96667105 0.252863675 0.0400884524 -0.975878716 -0.0622130744 0.209261119 -0.965945125 -0.242254645 0.090899229 -0.941822529 -0.245819852 -0.229222551 0.237380743 0.694343865 -0.679365098 0.22041598 0.687498331 -0.691926897 0.999644041 -0.0188543182 0.0188770685 0.999459386 0.0124070598 -0.0304471496 0.999614596 0.0276820213 0.00209205155 0.995705843 0.0491837226 0.0784274191 0.999331892 -0.033756122 -0.0140110385 -0.832066 0.491260469 0.257544875 -0.966130078 0.226923466 0.122875772 -0.953513741 0.265490413 0.142570749 -0.994927704 0.0866347998 0.0511196367 -0.0154611794 0.0125479056 0.999801755 -0.0233103298 0.0183123928 0.999560535 0.0878477395 0.0180756338 0.995969892 0.190718636 -0.981570303 -0.0120867705 0.204589516 -0.97884351 -0.00291929976 0.976175785 -0.203777835 0.074534826 0.993412733 -0.0310974792 -0.110290751 0.997710526 0.0604749136 -0.0302735921</float_array>
          <technique_common>
            <accessor source="#normals_array" count="112" stride="3">
              <param name="X" type="float" />
              <param name="Y" type="float" />
              <param name="Z" type="float" />
            </accessor>
          </technique_common>
        </source>
        <vertices id="vertices">
          <input semantic="POSITION" source="#positions" />
        </vertices>
        <triangles material="scout_1a1a1a" count="86">
          <input semantic="VERTEX" source="#vertices" offset="0" />
          <input semantic="NORMAL" source="#normals" offset="1" />
          <p>0 0 1 1 2 2 3 3 4 4 5 5 6 6 7 7 8 8 6 9 8 10 9 11 10 12 11 13 12 14 13 15 9 16 14 17 9 11 13 18 15 19 16 20 17 21 18 22 19 23 16 20 18 22 19 23 18 22 6 24 12 25 11 26 20 27 21 28 3 3 7 7 17 29 22 30 23 31 23 31 22 30 24 32 23 33 24 33 25 33 26 34 23 35 25 36 22 30 27 37 24 32 27 37 6 38 24 32 9 16 0 39 14 17 4 40 17 40 23 40 28 41 4 42 29 43 11 13 30 44 31 45 19 46 26 46 7 46 21 47 7 47 26 47 15 19 32 48 33 49 25 50 24 50 19 50 12 25 20 27 0 51 10 52 2 2 34 53 35 54 11 26 31 55 3 3 8 8 7 7 4 56 23 35 26 34 26 57 29 58 4 59 4 4 3 3 21 28 13 18 32 48 15 19 26 60 36 60 21 60 36 61 26 61 16 61 10 12 30 44 11 13 27 62 22 63 25 64 27 62 25 64 19 23 6 24 27 62 19 23 25 64 22 63 26 65 22 66 17 66 26 66 17 67 16 67 26 67 1 1 37 68 2 2 2 2 37 68 38 69 2 2 38 69 34 53 24 70 26 70 19 70 24 32 6 38 26 71 26 72 6 73 15 74 28 75 31 45 30 44 14 76 0 77 20 78 13 15 39 79 32 80 15 19 6 9 9 11 14 17 39 79 13 15 6 81 18 82 7 83 7 83 18 82 36 84 18 82 17 85 36 84 7 86 36 86 16 86 19 87 7 87 16 87 29 58 26 57 40 88 10 52 12 89 2 2 12 89 0 0 2 2 5 90 10 52 34 53 5 90 34 53 3 91 34 53 38 69 8 92 3 91 34 53 8 92 38 69 37 68 8 92 37 68 9 16 8 92 37 68 1 1 0 0 9 16 37 68 0 39 20 78 35 93 39 94 14 76 20 78 39 94 29 95 39 96 31 97 28 98 29 95 31 97 29 95 33 99 39 96 36 100 17 101 21 102 17 101 4 103 21 102 10 104 5 105 30 106 5 105 4 42 30 106 20 27 11 26 35 54 28 41 30 106 4 42 26 72 33 107 40 108 40 109 33 99 29 95 39 96 33 99 32 110 31 97 39 96 35 111 26 72 15 74 33 107</p>
        </triangles>
      </mesh>
    </geometry>
  </library_geometries>
  <library_visual_scenes>
    <visual_scene id="scene">
      <node id="left_shoulder_pitch_link">
        <instance_geometry url="#geometry">
          <bind_material>
            <technique_common>
              <instance_material symbol="scout_1a1a1a" target="#scout_1a1a1a" />
            </technique_common>
          </bind_material>
        </instance_geometry>
      </node>
    </visual_scene>
  </library_visual_scenes>
  <scene>
    <instance_visual_scene url="#scene" />
  </scene>
</COLLADA>