<?xml version='1.0' encoding='utf-8'?>
<COLLADA xmlns="http://www.collada.org/2005/11/COLLADASchema" version="1.4.1">
  <asset>
    <created>2026-09-14T00:00:00Z</created>
    <modified>2026-09-14T00:00:00Z</modified>
    <unit name="metre" meter="1" />
    <up_axis>Z_UP</up_axis>
  </asset>
  <library_effects>
    <effect id="scout_1a1a1a_effect">
      <profile_COMMON>
        <technique sid="common">
          <lambert>
            <emission>
              <color>0 0 0 1</color>
            </emission>
            <ambient>
              <color>0.05 0.05 0.05 1</color>
            </ambient>
            <diffuse>
              <color>0.1 0.1 0.1 1</color>
            </diffuse>
          </lambert>
        </technique>
      </profile_COMMON>
    </effect>
  </library_effects>
  <library_materials>
    <material id="scout_1a1a1a" name="scout_1a1a1a">
      <instance_effect url="#scout_1a1a1a_effect" />
    </material>
  </library_materials>
  <library_geometries>
    <geometry id="geometry" name="left_hip_yaw_link">
      <mesh>
        <source id="positions">
          <float_array id="positions_array" count="156">-0.099606216 -0.0480847694 -0.00793794263 -0.0995106399 0.00660874369 -0.0493150204 -0.0915062502 -0.0209724549 -0.0476465672 -0.0550750643 0.0307771731 -0.0553073138 -0.0293641947 0.0193087477 -0.0536613502 -0.0485527292 -0.039926555 -0.0471431464 -0.0661262199 -0.00170679938 0.0588983595 -0.0881017819 0.0187025797 0.0510453545 -0.0961945429 -0.0199124329 0.0453501642 -0.0377874151 -0.0057881875 0.0609377958 -0.0276115648 -0.0248166565 0.0745680928 -0.0368904807 -0.0455419123 0.0371361002 -0.0251422338 -0.0413212217 0.0918522254 -0.042525053 0.000565273222 0.0684365928 -0.0261623058 -0.0356660224 0.0586493984 -0.0238854308 0.0423072539 0.0909142494 -0.0142810103 0.00021340407 0.0685178936 -0.0218217839 -0.0036768429 0.0873020068 -0.0160429366 -0.0531495586 0.0316095017 -0.0650499761 -0.0494403355 0.0453655943 0.00288555003 -0.0363766588 0.0763278976 0.0213921983 -0.0378772691 0.088087447 -0.00132319692 0.00540752802 0.0797316954 0.00141970161 -0.00435996009 0.0789999589 -0.0656241551 0.057093665 0.0223693121 -0.0648875758 0.0299563892 0.0587616675 -0.0314422026 0.0323148742 0.0597454496 -0.0396850333 0.0443359502 0.0397884995 -0.0262209289 0.0314946175 0.0602503009 -0.034911219 0.00340618729 0.0595725477 -0.0341888405 0.0153073696 0.08644972 -0.0156300627 0.0532537401 0.0355969965 -0.0359325297 0.0590216033 0.00936530624 0.00549853314 0.0385433212 0.0771398321 0.0153265344 -0.00179081166 0.0796816349 0.0302336961 -0.0268673468 0.0797499046 0.0361973122 0.00218884833 0.0828201771 0.0379692204 0.0179519188 0.0850744471 -0.0549698696 0.0573026873 -0.021579314 -0.0615827776 -0.0468090177 -0.0423211381 -0.0658006221 -0.0543139577 0.01899896 -0.0904726386 -0.0483125113 0.0234158188 -0.0457964651 -0.0584364124 0.0103640156 -0.0975542814 0.0381813422 0.0335130356 -0.0953553021 0.0449229479 -0.0219302271 -0.0288282111 -0.0539683402 -0.0235963464 0.0490490943 -0.0108250175 0.0917394012 0.0279027466 -0.0486214384 0.0931977108 -0.0469591506 -0.0222119037 0.0912513137 -0.0491861477 0.0159314256 0.0915269181 0.0201015323 0.0465472974 0.0918546692 0.0527338795 0.0148254633 0.0935900211</float_array>
          <technique_common>
            <accessor source="#positions_array" count="52" stride="3">
              <param name="X" type="float" />
              <param name="Y" type="float" />
              <param name="Z" type="float" />
            </accessor>
          </technique_common>
        </source>
        <source id="normals">
          <float_array id="normals_array" count="417">-0.957640946 -0.260111898 -0.123554118 -0.995747983 -0.038493026 -0.083691299 -0.771198034 -0.441413671 -0.458701998 -0.0274771415 -0.122862399 -0.992043257 0.0129638817 -0.113518067 -0.993451357 -0.231981099 -0.132670432 -0.963630259 -0.381746471 -0.0560611747 0.922565341 -0.706216395 0.0437856615 0.70664084 -0.926895618 -0.0566353984 0.371021509 0.969858348 0.100234158 -0.222098827 0.884855866 0.159714103 -0.437631667 0.997069299 0.0763892457 -0.00418450683 -0.914672852 -0.402171046 -0.0403979011 -0.78645587 0.0187435653 0.617362022 0.273168117 -0.957866788 -0.0887154341 -0.0563956089 -0.901721954 0.428622246 -0.116493396 -0.853346348 0.508162618 0.019403331 -0.945805073 0.324154675 -0.289228499 -0.849582672 0.441085219 0.269701749 0.671695352 -0.689990103 0.219777972 0.846998572 -0.484036177 0.179380134 0.850611627 -0.494249582 0.311516732 0.729050756 -0.609460652 0.0591050908 -0.983777642 -0.169375792 0.585348547 0.222779647 -0.779574454 0.300397664 0.11754939 -0.946542859 0.578163445 0.144268781 -0.803065062 0.0222255625 0.58989948 0.807170749 0.0972787887 0.558409154 0.823842287 0.18213281 0.517749608 0.835920453 -0.252169311 -0.0690660477 0.965215266 -0.18990536 0.173604548 0.966331959 -0.359831512 -0.136771515 0.922938168 -0.19835633 0.806743562 0.556614459 -0.214786187 0.955140769 0.203894496 -0.0738895312 0.798748195 0.597111106 0.73115325 -0.225881264 -0.643733323 0.747789681 -0.216212288 -0.627744257 0.536427319 -0.272233099 -0.79883343 0.949251413 -0.29623881 0.105661161 0.286527216 -0.822541296 -0.491251379 0.218214825 -0.829930305 -0.5134179 0.258370221 -0.882082164 -0.39392373 -0.162024692 0.857953548 0.487507612 -0.0183454566 0.994248271 0.105517067 0.35360387 -0.24467364 -0.902828395 0.421289623 -0.260768533 -0.868628144 -0.0133805955 -0.0192748569 -0.999724686 0.0843016878 0.0283787008 -0.996036053 -0.0832618922 -0.0244442951 -0.99622786 0.364619404 -0.797737181 -0.480279118 0.412533164 -0.796281934 -0.442438066 -0.356604993 0.808733225 0.46774289 0.327575296 -0.723352313 -0.607828856 0.330724835 -0.718268573 -0.612136722 0.456664056 -0.43768099 -0.774527788 0.186504439 0.0494227968 -0.981210232 0.114377223 0.0652945489 -0.991289318 0.367627561 -0.172025159 0.913924158 0.713221908 -0.202807724 0.670957148 0.789969206 -0.204994172 0.577863395 0.351741254 0.763412952 0.541736841 0.296930134 0.102394752 -0.949393392 0.531562626 0.726274371 -0.435851634 0.573842824 0.71853894 -0.392945558 0.44392246 0.733629346 -0.514510334 -0.155763686 -0.983581066 -0.0911372527 -0.170826197 -0.985218644 0.0127511332 -0.144475132 -0.985760689 -0.0860392675 -0.482729167 -0.674279809 -0.558855355 0.355567753 -0.884595096 -0.301766694 -0.109346248 0.635145605 0.764613271 -0.889840305 -0.377364963 0.256475866 0.849666119 0.0811496451 -0.521039605 -0.378693938 0.92552197 -0.00011890936 -0.485168666 0.870125711 0.0865598917 -0.998886704 -0.0322753526 0.0344036631 -0.998003781 0.0392553695 0.0494713411 -0.195259333 -0.336984485 0.921040297 -0.248759955 -0.311128885 0.917233527 0.794430971 -0.205032066 0.571700394 0.582681 -0.790874779 0.187082589 -0.211336732 0.976302266 -0.0465901941 -0.928370476 0.354564399 0.111410819 0.993662715 0.0202605017 0.110561773 0.993696153 0.0276908707 0.108633161 0.994198203 0.0294590555 0.103450716 0.990656614 0.0579071678 0.123475842 0.363323659 0.731769502 -0.576636255 0.474826574 -0.376792282 -0.795341015 -0.324131578 0.657123446 -0.680534661 -0.172465727 0.58508271 -0.792422771 -0.329470158 0.659267962 -0.675881028 -0.455156446 0.70058471 -0.549557745 -0.130271032 -0.153035566 -0.979596615 -0.0102534052 -0.139364004 -0.990188122 -0.0873931199 -0.0854015425 -0.992506444 0.0213507134 -0.999681175 -0.0134812146 -0.987737775 0.0384886861 0.1513035 -0.991882443 0.124841943 -0.0241597351 -0.0479010418 0.279244423 0.959024549 0.643426776 -0.286541909 -0.709856153 -0.150168091 -0.981278479 0.120590441 -0.209761322 -0.0332510136 -0.977187037 -0.00436233869 -0.604306698 0.796739817 0.00500227511 -0.607401431 0.794379294 0.000116392948 -0.605794549 0.795621097 0.0120431092 -0.60968715 0.792550623 -0.0310236346 -0.000267523283 0.999518633 -0.00999347121 0.0280099232 0.999557674 -0.0185959935 0.0489342995 0.998628855 -0.315429449 -0.907615721 -0.277016282 0.223063573 0.457432061 -0.860812724 -0.788324475 -0.457627505 -0.411243886 0.221659318 0.0763873011 -0.972127616 0.237892151 0.856946111 -0.457220584 0.210190877 0.8503474 -0.482420027 0.304500282 0.867891073 -0.392485201 0.0174851865 -0.011476309 -0.999781251 0.00937577803 -0.00857689604 -0.999919236 -0.00915100891 -0.00195142906 -0.99995625 -0.0299127828 0.00547570689 -0.999537528 0.138341978 0.828007877 -0.543382466 -0.0189962238 0.953419089 -0.301050156 0.394046992 -0.830651581 -0.393376321 0.18731384 0.859192073 -0.47613284 -0.00562481955 0.00202480401 0.999982119 -0.0222020373 -0.00506718084 0.99974066 -0.0259860307 0.0481204242 0.998503447 -0.107404836 -0.0561863929 0.992626488 0.171778172 -0.30515641 -0.936681271 -0.0390593335 -0.448397785 -0.892980278 0.212532893 -0.311698675 -0.926106751 0.485406131 0.256192803 -0.83591038 0.262129813 -0.120823324 -0.957439125 0.517540216 0.149218023 -0.842547357 -0.00135535432 0.229910403 -0.973210871 0.511408627 0.487368822 -0.707766116 -0.00462160725 0.00421376433 0.99998045</float_array>
          <technique_common>
            <accessor source="#normals_array" count="139" stride="3">
              <param name="X" type="float" />
              <param name="Y" type="float" />
              <param name="Z" type="float" />
            </accessor>
          </technique_common>
        </source>
        <vertices id="vertices">
          <input semantic="POSITION" source="#positions" />
        </vertices>
        <triangles material="scout_1a1a1a" count="100">
          <input semantic="VERTEX" source="#vertices" offset="0" />
          <input semantic="NORMAL" source="#normals" offset="1" />
          <p>0 0 1 1 2 2 3 3 4 4 5 5 6 6 7 7 8 8 9 9 10 10 11 11 12 12 13 12 14 12 15 13 13 13 12 13 9 14 16 14 17 14 18 15 14 16 19 17 20 18 14 16 18 15 10 19 18 20 11 21 10 19 20 22 18 20 21 23 12 23 14 23 22 24 23 25 16 26 24 27 7 28 6 29 13 30 25 31 6 32 26 33 24 34 25 35 27 36 28 37 29 38 28 39 30 39 29 39 31 40 27 41 32 42 31 43 32 44 24 34 16 45 9 46 29 38 33 47 34 48 22 49 28 50 27 41 31 40 33 51 28 50 31 40 33 52 31 43 26 33 35 53 21 54 20 55 22 49 34 48 23 25 34 48 36 56 35 57 36 58 37 59 35 60 15 61 37 61 33 61 33 47 37 62 36 56 38 63 32 64 4 65 39 66 40 67 41 68 2 2 39 69 0 0 5 70 42 70 39 70 43 71 7 28 24 27 0 0 41 72 8 8 17 73 10 10 9 9 40 67 18 15 19 17 44 74 43 75 24 34 40 76 19 76 6 76 6 77 25 77 24 77 14 78 13 30 19 79 21 80 35 60 37 59 42 81 45 81 11 81 32 44 38 82 24 34 15 83 26 83 13 83 27 36 29 38 9 46 32 84 27 85 11 11 27 85 9 9 11 11 4 86 32 84 11 11 4 86 11 11 45 87 3 88 38 63 4 65 20 55 21 54 14 89 1 90 44 91 38 92 3 93 1 90 38 92 3 3 39 94 2 95 2 95 1 96 3 3 0 97 39 66 41 68 43 98 8 8 7 7 8 8 43 98 1 1 1 1 0 0 8 8 44 99 1 1 43 98 38 82 44 74 24 34 13 30 26 100 25 31 45 101 5 101 4 101 42 102 18 15 40 67 26 33 31 43 24 34 30 103 33 47 22 49 40 104 6 105 41 106 8 107 41 106 6 105 42 102 40 67 39 66 46 108 12 109 47 110 42 111 5 111 45 111 20 22 10 19 17 112 20 113 17 113 16 113 23 25 20 114 16 26 30 115 16 116 29 117 33 47 36 56 34 48 12 118 48 119 15 120 15 120 48 119 49 121 22 122 16 116 30 115 15 123 33 123 26 123 30 124 28 50 33 51 34 48 35 57 20 114 23 25 34 48 20 114 13 30 6 32 19 79 42 125 11 21 18 20 49 126 50 127 15 128 50 127 46 108 51 129 47 130 12 131 21 132 47 130 21 132 37 133 46 134 47 130 37 133 46 134 37 133 51 135 37 136 15 136 50 136 37 133 50 137 51 135 46 108 48 138 12 109 48 138 46 108 50 127 48 138 50 127 49 126 39 94 3 3 5 5</p>
        </triangles>
      </mesh>
    </geometry>
  </library_geometries>
  <library_visual_scenes>
    <visual_scene id="scene">
      <node id="left_hip_yaw_link">
        <instance_geometry url="#geometry">
          <bind_material>
            <technique_common>
              <instance_material symbol="scout_1a1a1a" target="#scout_1a1a1a" />
            </technique_common>
          </bind_material>
        </instance_geometry>
      </node>
    </visual_scene>
  </library_visual_scenes>
  <scene>
    <instance_visual_scene url="#scene" />
  </scene>
</COLLADA>