<?xml version='1.0' encoding='utf-8'?>
<COLLADA xmlns="http://www.collada.org/2005/11/COLLADASchema" version="1.4.1">
  <asset>
    <created>2026-09-14T00:00:00Z</created>
    <modified>2026-09-14T00:00:00Z</modified>
    <unit name="metre" meter="1" />
    <up_axis>Z_UP</up_axis>
  </asset>
  <library_effects>
    <effect id="scout_1a1a1a_effect">
      <profile_COMMON>
        <technique sid="common">
          <lambert>
            <emission>
              <color>0 0 0 1</color>
            </emission>
            <ambient>
              <color>0.05 0.05 0.05 1</color>
            </ambient>
            <diffuse>
              <color>0.1 0.1 0.1 1</color>
            </diffuse>
          </lambert>
        </technique>
      </profile_COMMON>
    </effect>
  </library_effects>
  <library_materials>
    <material id="scout_1a1a1a" name="scout_1a1a1a">
      <instance_effect url="#scout_1a1a1a_effect" />
    </material>
  </library_materials>
  <library_geometries>
    <geometry id="geometry" name="left_ankle_link">
      <mesh>
        <source id="positions">
          <float_array id="positions_array" count="249">0.025882965 -0.0102323918 -0.012993956 0.0347784683 -0.00437176134 -0.00894340221 0.0235374924 -0.00356521341 -0.0149616487 0.198223501 0.0158326812 -0.0594266765 0.199011013 -0.0313550085 -0.0572389439 0.198579893 -0.0154850045 -0.0595433563 -0.0461252257 -0.00950697251 -0.0293211248 -0.0677860379 -0.0106002558 -0.0420246981 -0.0205070395 -0.0103953825 -0.0140776476 -0.0790127516 -0.0146180773 -0.0484095328 -0.0422114246 -0.0142747238 -0.0674965307 -0.0101841539 -0.0142928343 -0.0571365766 -0.000967081462 0.00942333695 -0.00648789294 -0.00624259422 -7.32423796e-05 -0.00105940877 -0.0102082351 -0.0106490115 0.000373971503 -0.00725421403 -0.00968726352 0.00826540589 0.00034708553 -0.0104034375 0.0101525113 -0.00262802327 -0.00111753622 0.00574611407 0.000379597855 0.0105521344 0.00973664597 -0.00919040479 0.0105348267 0.00367248897 -0.0987449884 0.0145058297 -0.0685337484 -0.101006679 -0.0148604382 -0.065008238 -0.098013483 0.0142247127 -0.0593523644 0.0722399354 -0.00992473401 -0.0393937267 0.0738767609 0.00925416686 -0.0401287451 0.0527306721 0.00368484668 -0.028003566 -0.0263639148 0.014571582 -0.0613895543 -0.0192969795 0.0103366002 -0.013133835 0.0065452978 0.00804446824 -0.00200847886 0.00326490286 -0.0107242474 -0.00707018794 0.011189268 -0.00996138807 0.00262783282 0.00164993503 -0.0100375218 -0.0210619327 0.00629462441 -0.00826547015 0.00270469207 0.02348377 0.00335089304 -0.0293984655 0.00939676259 -0.0102168731 -0.0370298252 0.0228587911 -0.00553806359 -0.0282594729 0.0246760584 -0.00976184942 -0.0215480085 0.0296470039 -0.00469009299 -0.0207966287 0.0354382731 -0.00555205159 -0.019280877 0.0319899693 -0.00478441315 -0.0153356446 0.0372811407 -0.00992968027 -0.0123963449 0.0501535833 -0.0106710969 -0.0267572142 0.0524952076 -0.00384056102 -0.0273549724 0.091417864 -0.0120827397 -0.0447376892 0.0951999873 0.0135400211 -0.0450959913 0.126562133 0.0149179101 -0.0442855731 0.00147469598 0.0145149073 -0.0551130697 0.0285777058 0.00321644126 -0.0090082204 0.0293893497 0.00448968727 -0.017106818 0.0381380059 0.00887095463 -0.0200785529 0.125631273 -0.0146206981 -0.0462841652 0.152533308 -0.0321710669 -0.0412013233 0.130018443 -0.0199304894 -0.0422348045 0.154570132 -0.0340916552 -0.0444556996 0.176122546 -0.040855512 -0.0436693467 0.177009508 -0.0158355087 -0.0471847653 0.18887946 -0.0384661518 -0.0515021794 0.00746570807 0.00971188582 0.00811261032 0.00844120886 0.010147824 -0.03614676 0.0503776111 0.0104392795 -0.0265611969 0.197868809 -0.0141616557 -0.0686470643 0.199480191 0.0141424984 -0.0676967651 0.0104254875 0.00996733177 -0.00285615493 -0.0459251069 0.013427278 -0.0685193688 0.0243998282 0.00971172471 -0.0198444575 0.0235365126 0.0106862737 -0.0310603175 0.0320993513 0.00415402325 -0.0214613359 0.0277460609 0.0103467051 -0.011109734 0.0373374261 0.0097274445 -0.0120679243 0.0430227481 0.0141163496 -0.0559225418 0.0829020292 -0.0144631593 -0.0673782304 0.0375714265 -0.0140649686 -0.0547285564 0.189315915 0.0383627564 -0.051674407 0.177017152 0.0158220883 -0.0471379533 0.00120075082 0.0103124781 -0.0221258346 0.141043976 0.0262299888 -0.043901775 0.159613043 0.0374115445 -0.0425182283 0.199060395 0.0318378955 -0.0566552877 -0.0726790503 0.0131102912 -0.0450501665 -0.044605691 0.0103223082 -0.0287022926 0.0696884543 0.0145567618 -0.0628032535 0.0894486085 0.0135051198 -0.0689997375 0.175957501 0.0409101397 -0.0437463485</float_array>
          <technique_common>
            <accessor source="#positions_array" count="83" stride="3">
              <param name="X" type="float" />
              <param name="Y" type="float" />
              <param name="Z" type="float" />
            </accessor>
          </technique_common>
        </source>
        <source id="normals">
          <float_array id="normals_array" count="663">-0.464408129 0.0964439735 0.880354285 0.987149417 0.00498254085 -0.159722403 0.983905971 0.00814459566 -0.178501412 0.996397316 -0.00553814368 -0.0846268907 -0.510256708 0.0464002155 0.858769536 -0.500526547 0.00925786886 0.865671694 -0.670768082 0.00642632786 0.741639316 0.00853718817 -0.999960542 -0.00246562343 0.00429691095 -0.999943674 -0.00970310904 0.000862445391 -0.99944216 -0.0333860628 0.795988679 -0.101027258 0.596821189 0.864482939 -0.222615659 0.450678915 0.886285245 -0.282603174 0.366924852 -0.133992851 -0.976437986 0.169158846 0.837972462 0.099700667 -0.536527693 0.749599874 -0.204917908 -0.629371643 0.644547701 -0.334846944 -0.687339604 0.880182087 0.177294239 -0.440279663 -0.328577578 0.0553939082 0.942851126 -0.144113123 0.0723628849 0.986911833 -0.530220151 0.139189899 0.836356878 -0.992910802 0.0862850845 0.0817497596 0.394476354 5.82174143e-05 0.918906093 0.364347428 -0.00757589564 0.931232274 0.43472749 0.025402775 0.900203705 0.289314121 0.00770022487 -0.957203209 0.186571047 0.0236763246 -0.982156157 0.169960752 -0.0163399708 -0.985315382 -0.703106701 -0.00705312472 0.711049438 -0.884010613 -0.00858076289 0.467388004 0.0689222515 0.996202707 -0.0531967096 0.00312913512 0.999727488 0.0231339801 0.0198189765 0.999803007 -0.00107465277 0.771916807 -0.0674697459 0.632133126 0.529059112 0.149299294 -0.83534795 -0.525592268 -0.134677798 0.840008736 0.178681418 -0.981498837 -0.0687966049 0.088402614 -0.994335592 -0.0590064563 0.022735741 -0.999736488 -0.00317723583 -0.305649281 -0.896659315 0.320282042 -0.416759402 0.162690118 0.894339681 -0.500041366 0.174694806 0.848198295 -0.463699073 0.346356839 0.815487623 -0.95150423 -0.288461655 0.106909387 -0.958499134 -0.270815223 0.0890983045 -0.955018818 -0.279822856 0.0981743857 -0.568522334 0.618077934 0.542919874 -0.15448381 -0.98758024 0.0286355726 0.138964564 0.9872455 -0.0776862428 0.122533113 0.987621248 -0.0979279503 0.140752897 0.989097238 -0.0433050618 -0.947150648 -0.298609525 0.117209181 0.654142201 -0.728856981 -0.202152193 0.660753608 -0.724581122 -0.195925683 0.717458308 -0.682637691 -0.138778105 0.583840072 -0.76783216 -0.263750911 0.058671806 -0.449003369 -0.891601682 0.482532293 0.0761371851 0.872562706 -0.239384696 0.0914231017 0.966610968 -0.502113342 -0.784319699 -0.364314109 -0.506418049 -0.782592356 -0.362063497 -0.470297843 -0.79629308 -0.380443454 0.431874514 -0.0242950115 0.901606441 0.732095063 -0.112873018 0.67178607 0.634170473 -0.142395183 0.759968042 -0.0299297683 -0.537168622 0.842943728 -0.554011941 -0.761680126 -0.336026937 0.0150671937 0.992720425 -0.119495302 -0.0482027233 0.997528195 -0.0511271618 0.740070462 -0.0814946517 0.667573452 0.151893377 0.00127975328 0.988396049 0.104315549 -0.0238840021 0.99425745 -0.0452766865 0.832069218 0.552820742 -0.0508161783 0.829497576 0.556193769 -0.00379871111 0.993163526 0.116669446 0.408836663 -0.90693301 -0.10161259 0.338973731 -0.938218415 -0.0695913807 0.418160141 -0.902848244 -0.100036018 0.00732630165 -0.0342497192 0.99938643 -0.426965714 -0.870089293 0.246261761 -0.474561572 -0.855348587 0.207774088 -0.343802869 -0.886994302 0.308286786 -0.292599648 -0.892399788 0.343523026 -0.298869759 -0.0970114321 -0.949350119 -0.483782828 -0.107119188 -0.868607879 -0.267105699 -0.124790631 -0.955553174 0.832994342 0.401353359 -0.380835712 0.147581741 -0.0387245826 0.988291502 0.342680126 -0.0260377564 0.939091265 -0.0284124855 -0.62089622 -0.783377647 0.0169403665 0.996506214 0.0817824528 -0.0168795437 0.999424636 -0.0294188745 0.000435954251 0.831293106 0.555834115 0.994884133 -0.0537673198 -0.0855255052 0.994011104 -0.000132625122 0.109279238 -0.29495284 -0.829802871 -0.473740488 -0.549685121 -0.576591969 -0.604473233 -0.407095253 -0.738742054 -0.537153244 -0.957391441 0.093658112 0.273184448 -0.234095648 0.746802568 0.622483075 -0.00235318881 0.999890089 0.0146386623 -0.0075396793 0.999242008 0.0381909013 0.020009974 0.97712487 -0.211722925 -0.965052307 -0.130716011 0.227128625 -0.989561021 -0.0565733463 0.132546142 -0.946271062 -0.0909327194 0.310326219 -0.996569335 0.0250367913 0.0788841322 0.0760283172 -0.995414555 0.0580483563 0.598059773 0.736780226 0.31540367 -0.000802165538 -0.280368418 0.959892154 -0.011763365 -0.999601245 0.0256699454 0.062267188 0.994715035 0.0816380978 -0.172091112 0.985080957 0.00031830644 0.0460928343 0.988905072 -0.141216815 -0.933732212 -0.00340462383 0.357956141 0.762830913 0.554526865 -0.332549155 -0.0241560172 0.711886585 -0.701878846 -0.596343517 0.795327187 -0.108761854 -0.378313094 0.915675402 -0.135711893 -0.481103063 0.865315795 -0.140600219 0.595912874 -0.366428912 0.714575231 0.564141035 -0.426838338 0.706791282 -0.15735063 -0.00526880147 -0.987528741 -0.163763165 -0.0120378714 -0.986426234 -0.11533612 0.00226161489 -0.993323922 0.569378138 -0.11900878 0.813415945 0.655961394 0.0679921359 0.751725852 -0.467691869 0.114106797 -0.876495242 -0.4582344 0.121779859 -0.880449235 -0.298922509 0.123987421 -0.94618839 0.894766867 0.0318131037 0.445398897 0.893305421 0.0343500152 0.448135644 0.887886822 0.0435424075 0.457996756 -0.00444421079 -0.999510407 -0.0309709907 -0.222272366 0.252608031 0.941692173 -0.0916569233 0.0565618612 0.994182944 0.0290499404 0.0186476652 0.999404013 0.32823652 -0.00503650727 0.944582164 0.0518989824 0.0136179682 0.998559475 -0.126236975 0.967972755 -0.217009246 -0.0604958199 0.986831009 -0.15001601 -0.011648898 0.996367335 -0.0843590572 -0.0521822758 0.335136384 -0.940723479 -0.475156248 0.775842249 -0.415084779 0.130722389 0.989702046 0.0583223514 0.0017998853 -0.89305687 0.449940234 -0.00159065123 -0.952606797 0.304200292 -0.00271602557 -0.999466777 0.032538712 -0.00831803959 -0.599709928 0.800174236 -0.0078004878 -0.637535334 0.770381629 0.000861191191 -0.841139495 0.540817559 0.95400846 0.00202273158 -0.299772829 0.16056861 -0.0149140777 -0.986912012 0.0100175738 -0.999948919 0.00132679171 0.100047506 0.00463631656 -0.994971871 -0.936098278 -0.00977065042 0.351602852 -0.876536012 -0.0326603353 0.480226994 0.914225996 -0.0335467197 -0.40381363 0.901951969 -0.00266730017 -0.431828171 0.916332722 -0.0393229052 -0.398482174 -0.0203530043 -0.999275804 0.0321499445 -0.00359179988 0.999034822 0.0437775925 0.000763434975 0.995168567 0.0981778875 -0.0408444703 -0.1159961 -0.992409527 -0.0296959281 -0.0941944793 -0.99511081 -0.0080620097 -0.999963164 0.00294660195 -0.00763364835 -0.999447525 -0.0323476568 -0.452308744 0.0516909398 0.890362203 0.0175797753 0.994633615 0.101955675 -0.00519951666 0.999896586 0.0134081217 -0.0628896803 0.996867359 0.0479616784 -0.496783406 0.00690225558 0.867847145 -0.545787871 -0.0420437157 0.836867929 -0.530095696 -0.0254703797 0.84755522 -0.599133074 -0.0929825231 0.795231879 -0.514520645 0.0115107615 0.857400715 -0.606521726 -0.491046101 -0.625303984 0.925606072 -0.0670316368 -0.372505218 -0.0108513823 0.999932647 -0.00411624182 -0.0155476322 0.99951762 0.0268848892 -0.267162204 0.0301981568 -0.963178277 -0.135441497 -0.0181474201 -0.990619123 0.0141172251 -0.977269351 -0.211530894 -0.00109329901 -0.9935444 -0.113438867 0.00100675132 -0.989587545 -0.1439289 -0.0257120524 -0.997992098 0.0578849278 0.405161291 -0.833636284 -0.375359714 -0.111575767 -0.908592939 0.402504265 0.514557242 -0.0151470033 0.857322216 0.496544689 0.0142756011 0.867893755 0.532245994 -0.078267172 0.842964113 0.525229335 0.144189641 0.83865577 0.294548661 0.010425793 0.955579638 -0.469603956 -0.108363755 -0.876201689 -0.410416514 -0.141948789 -0.900782347 -0.0228426233 -0.0667717382 0.997506738 -0.695258856 -0.0266879536 0.718263745 -0.0479602255 0.0296873786 0.99840796 0.0081575904 0.019223921 -0.999781907 0.011643921 0.0328911841 -0.999391139 -0.0706845075 -0.06194444 -0.995573521 -0.0223103072 -0.999750197 0.00134027097 -0.0509359166 -0.994701982 -0.0892943293 -0.102811575 -0.0222880933 -0.994451106 -0.102501795 0.994716585 -0.00568693597 0.0430026762 0.997349322 -0.0586951599 0.109098963 0.982445359 -0.151322693 0.00718585216 0.992751777 -0.119967751 0.00496532489 0.994549155 -0.104150757 0.113757774 0.29305771 0.949303091 -0.889447093 -0.11421223 -0.442537487 -0.351049513 0.177549988 -0.919369459 -0.296543688 0.11563246 -0.947993159 0.899566054 0.0232963618 0.436163038 0.00811089016 -0.999943793 -0.00683169672 -0.00358675467 0.983946204 -0.178429306 -0.0580418222 0.107977942 -0.992457509 -0.0519718751 0.128309086 -0.990371525 -0.0618714876 0.160900176 -0.985029459 -0.317023277 -0.0559296235 0.946767211 0.959111273 0.108672686 0.261334628</float_array>
          <technique_common>
            <accessor source="#normals_array" count="221" stride="3">
              <param name="X" type="float" />
              <param name="Y" type="float" />
              <param name="Z" type="float" />
            </accessor>
          </technique_common>
        </source>
        <vertices id="vertices">
          <input semantic="POSITION" source="#positions" />
        </vertices>
        <triangles material="scout_1a1a1a" count="174">
          <input semantic="VERTEX" source="#vertices" offset="0" />
          <input semantic="NORMAL" source="#normals" offset="1" />
          <p>0 0 1 0 2 0 3 1 4 2 5 3 6 4 7 5 8 6 9 7 10 8 11 9 12 10 13 11 14 12 15 13 14 13 16 13 13 14 16 15 14 16 13 14 17 17 16 15 15 18 18 19 19 20 20 21 21 21 22 21 23 22 24 23 25 24 26 25 11 26 10 27 27 28 8 6 14 29 19 30 12 31 27 32 12 10 19 33 13 11 19 34 18 34 17 34 28 35 12 35 29 35 30 36 29 37 31 38 30 39 32 39 29 39 33 40 34 41 35 42 2 43 35 44 36 45 36 46 35 42 34 41 2 47 37 47 38 47 2 48 39 49 37 50 0 51 2 43 36 45 37 52 0 53 36 54 39 55 0 53 37 52 0 56 39 56 40 56 29 57 12 57 14 57 38 58 37 58 36 58 40 59 38 60 41 61 42 62 1 63 41 64 1 65 0 65 40 65 40 59 39 66 38 60 1 67 38 68 39 49 1 63 40 69 41 64 23 22 42 62 41 64 25 24 42 62 23 22 43 70 24 23 23 22 44 71 24 23 43 70 44 72 45 73 46 74 47 75 48 76 49 77 44 71 43 70 50 78 51 79 52 80 53 81 35 42 25 24 33 40 54 82 51 79 53 81 55 83 56 84 54 85 13 14 19 86 17 17 18 19 16 87 57 88 52 89 50 89 55 89 58 90 59 91 24 92 60 93 61 94 5 3 30 95 16 96 32 97 16 87 18 19 15 18 32 98 28 98 29 98 12 99 28 99 62 99 20 100 26 101 63 102 64 103 33 104 47 105 64 103 65 106 33 104 48 76 47 75 33 107 64 108 48 108 66 108 49 109 64 109 66 109 66 110 48 76 33 107 64 111 49 112 65 113 67 114 64 103 47 105 67 115 48 115 64 115 67 116 68 116 48 116 8 6 27 28 6 4 47 117 49 117 66 117 68 118 59 91 49 112 68 118 49 112 48 119 68 120 47 121 25 24 69 122 70 123 71 124 57 88 16 87 30 125 24 23 59 126 25 24 72 127 3 128 73 129 59 126 68 120 25 24 31 130 58 131 74 132 29 37 14 133 31 38 75 134 45 135 76 136 54 137 76 136 51 138 3 139 61 140 73 141 18 142 32 142 17 142 18 143 62 143 28 143 57 144 62 144 18 144 7 145 23 146 34 147 50 148 43 149 9 150 77 151 4 2 3 1 63 152 26 25 10 27 10 8 9 7 21 153 11 26 26 25 46 154 14 29 15 155 19 156 31 157 74 158 62 159 50 160 9 7 11 9 22 161 78 162 26 101 26 101 20 100 22 161 78 162 46 74 26 101 10 27 21 163 20 164 20 164 63 152 10 27 70 165 55 166 50 160 34 41 33 40 65 167 71 124 11 26 46 154 58 90 78 162 79 168 74 169 58 90 27 32 58 90 79 168 27 32 12 31 62 170 74 169 12 31 74 169 27 32 78 171 22 172 9 173 21 174 9 173 22 172 78 171 9 173 7 5 79 175 78 171 7 5 7 5 6 4 79 175 79 175 6 4 27 28 16 96 17 176 32 97 27 28 14 29 19 156 62 159 30 177 31 157 73 141 80 178 45 179 70 123 80 180 81 181 59 91 58 90 65 113 59 91 65 113 49 112 78 162 24 92 44 72 39 49 2 48 1 67 50 160 11 9 71 182 55 166 70 165 5 183 70 165 60 184 5 183 50 160 71 182 70 165 34 147 23 146 41 185 38 186 36 186 34 186 34 147 41 185 38 187 4 188 77 189 54 137 56 190 4 188 54 137 77 189 72 191 82 192 54 137 77 189 82 192 55 83 5 193 56 84 5 193 4 194 56 84 78 162 44 72 46 74 50 78 45 195 44 71 45 196 50 196 52 196 76 136 45 135 52 197 52 197 51 138 76 136 60 198 70 123 81 181 81 181 61 199 60 198 35 42 42 62 25 24 53 200 55 83 54 85 25 201 47 202 66 110 33 107 25 201 66 110 52 203 55 83 53 200 42 204 35 205 38 68 38 68 1 67 42 204 35 205 2 206 38 68 5 3 61 94 3 1 46 154 69 122 71 124 80 178 73 141 61 140 46 207 45 179 69 208 45 179 80 178 69 208 47 209 68 209 67 209 69 122 80 180 70 123 32 210 18 210 28 210 24 92 78 162 58 90 23 146 7 145 43 149 72 127 77 211 3 128 73 129 82 212 72 127 31 130 34 213 58 131 8 214 7 145 34 147 8 214 34 147 31 38 14 133 8 214 31 38 9 150 43 149 7 145 81 215 80 178 61 140 73 129 45 216 75 217 54 137 82 192 76 136 82 212 73 129 76 218 75 217 76 218 73 129 34 41 65 167 58 219 30 220 62 220 57 220</p>
        </triangles>
      </mesh>
    </geometry>
  </library_geometries>
  <library_visual_scenes>
    <visual_scene id="scene">
      <node id="left_ankle_link">
        <instance_geometry url="#geometry">
          <bind_material>
            <technique_common>
              <instance_material symbol="scout_1a1a1a" target="#scout_1a1a1a" />
            </technique_common>
          </bind_material>
        </instance_geometry>
      </node>
    </visual_scene>
  </library_visual_scenes>
  <scene>
    <instance_visual_scene url="#scene" />
  </scene>
</COLLADA>