<?xml version='1.0' encoding='utf-8'?>
<COLLADA xmlns="http://www.collada.org/2005/11/COLLADASchema" version="1.4.1">
  <asset>
    <created>2026-09-14T00:00:00Z</created>
    <modified>2026-09-14T00:00:00Z</modified>
    <unit name="metre" meter="1" />
    <up_axis>Z_UP</up_axis>
  </asset>
  <library_effects>
    <effect id="scout_1a1a1a_effect">
      <profile_COMMON>
        <technique sid="common">
          <lambert>
            <emission>
              <color>0 0 0 1</color>
            </emission>
            <ambient>
              <color>0.05 0.05 0.05 1</color>
            </ambient>
            <diffuse>
              <color>0.1 0.1 0.1 1</color>
            </diffuse>
          </lambert>
        </technique>
      </profile_COMMON>
    </effect>
  </library_effects>
  <library_materials>
    <material id="scout_1a1a1a" name="scout_1a1a1a">
      <instance_effect url="#scout_1a1a1a_effect" />
    </material>
  </library_materials>
  <library_geometries>
    <geometry id="geometry" name="pelvis">
      <mesh>
        <source id="positions">
          <float_array id="positions_array" count="234">-0.0642857403 -0.0992791802 -0.0296855625 -0.0693907514 -0.110773742 -0.0715998039 -0.0568629839 -0.129889488 -0.0417364202 -0.020771971 -0.150274411 -0.0455656089 0.021473743 -0.150137842 -0.0453135036 0.0266093258 -0.136512235 -0.0401912108 -0.0502030589 -0.105660751 -0.0250163712 -0.0501887351 -0.0715741962 -0.00850041024 -0.0439608768 0.0451987199 -0.0792319104 -0.0464315526 -0.0583281144 -0.0791463256 -0.0427904315 -0.119339056 -0.0779757947 0.0656632036 0.114960007 -0.0363964885 0.0647516698 0.121877573 -0.0750291646 0.0427248739 0.142729819 -0.0470908843 -0.0462684706 -0.140567243 -0.0749711245 -0.0256418213 -0.136485696 -0.040047951 -0.0255936477 -0.133278266 -0.0226737391 -0.0154547011 -0.128220424 -0.0106230183 -0.0379631668 -0.110721834 -0.00989093445 -0.0263558961 -0.0442651473 -0.0775912181 -0.0377732813 -0.0413409285 -0.0810851678 -0.0220259689 -0.0497861989 0.000786380842 -0.0390389264 -0.0340221785 0.00397765636 0.00637431163 -0.138954535 -0.0204141326 -0.037693046 0.0186843984 0.00318781286 -0.0567099713 -0.0105719408 0.00399014214 -0.000120983357 -0.0431633852 0.00385325262 -0.0333723165 -0.0177308656 0.00543248374 0.0168454759 -0.050799869 0.00232451665 0.0152209504 -0.152133569 -0.0750982165 -0.0576406159 0.0869616196 -0.0762285292 -0.0459611677 0.112842351 -0.0781501532 -0.0382299982 0.0516635887 -0.0784600228 -0.0490139611 0.115779527 -0.0327838957 -0.0656876415 0.111437716 -0.0341491997 -0.0493583009 0.0727642775 -0.00900346413 -0.0461391062 0.142275065 -0.0523249358 -0.0358749479 0.146226928 -0.0743826628 -0.0682488903 0.113946848 -0.0738034174 -0.0393172726 0.11206723 -0.0125335325 -0.034140233 0.126246423 -0.0207007304 -0.00722810766 0.152681068 -0.0456175618 -0.0137302103 0.133056819 -0.011814218 -0.0010927181 0.141429797 -0.0781816095 -0.00755221723 0.141920924 -0.0403727442 0.0479921326 0.109973699 -0.0787500888 0.023486834 0.150400713 -0.0744083375 -0.0572236702 0.0102287214 0.00459944038 -0.0285337884 0.0460108332 0.00527783995 -0.0370891392 0.0438390151 -0.000598133309 0.0185560882 0.0487890355 0.00434186123 0.0350862257 -0.118506841 -0.0113018937 0.0341338851 -0.126228333 -0.0206963252 0.0542306229 -0.134563521 -0.0456360243 0.0666605681 -0.120111257 -0.0746251121 0.0637122989 -0.099109754 -0.0268695261 0.0418618917 -0.0348285399 0.000502074196 0.0530927032 0.0759230852 -0.0105804456 0.0358024836 0.0445215218 -0.000724990154 0.032483533 -0.0447531492 -0.0784809738 0.0421517268 -0.0486256033 -0.0817477107 0.0498426966 -0.102499627 -0.078021884 0.0502518937 -0.0521087833 -0.0759045631 0.0488416776 -0.0731071681 -0.00877697486 0.0385895446 -0.0178482514 0.00315860659 0.0586579479 -0.00988792814 0.0049791513 0.0356771499 0.0433016792 -0.0794420764 -0.0010475507 0.0340433754 -0.0784761235 0.0210020225 0.136455104 -0.022681484 0.0270507131 0.122667104 -0.0102812229 0.0400943235 0.126762927 -0.0373614766 0.0424297079 0.11420273 -0.0193281472 0.0460457988 0.0848649368 -0.0124918222 0.0556228384 0.0124870604 0.00529533485 0.0270368066 0.0323285349 0.00438671792 -0.00400158158 -0.0312921777 -0.0768669099 0.0453435443 0.0576624349 -0.0788778961 0.0252613761 -0.133704171 -0.0781862065</float_array>
          <technique_common>
            <accessor source="#positions_array" count="78" stride="3">
              <param name="X" type="float" />
              <param name="Y" type="float" />
              <param name="Z" type="float" />
            </accessor>
          </technique_common>
        </source>
        <source id="normals">
          <float_array id="normals_array" count="435">-0.966837823 -0.0866756812 0.240233228 -0.95380193 -0.288078189 0.0852812082 -0.789677858 -0.604995131 0.10193029 -0.0375231802 -0.380127758 0.924172521 0.0588042177 -0.370622277 0.926920295 0.140193373 -0.415142715 0.898889542 -0.514232039 -0.400636762 0.758324206 -0.447465539 -0.403517753 0.798090219 -0.219179794 -0.494328946 0.841189086 -0.648336112 -0.33176136 0.685269833 -0.214629322 0.00592941092 0.976677597 0.747911513 0.656244099 0.0998603404 0.676835001 0.735967696 -0.0156802274 0.536610425 0.843827844 -0.00196087011 -0.233283386 -0.971926212 -0.0306324493 -0.531347871 -0.846973717 -0.0174643081 -0.0979227424 -0.422805548 0.900914311 -0.746093094 -0.654405236 0.122877315 -0.183447585 -0.48897776 0.85278821 -0.61014986 -0.668398082 0.42539534 -0.374749184 -0.785724938 0.492137551 -0.593956411 -0.773290455 0.221895471 -0.790906429 -0.266560555 0.550828874 0.104369365 -0.00737531623 -0.994511247 0.0174542554 -0.0229617208 -0.99958396 0.0611240678 -0.0552681088 -0.99659884 -0.0457976498 -0.324346155 0.944829166 -0.059187457 -0.138297498 0.988620579 -0.0211808793 -0.19557327 0.980460346 0.0895265192 -0.903702557 0.418696463 0.0342465192 -0.0363856852 0.998750865 0.0351938382 0.00453047222 0.999370217 -0.00407503173 -0.156789303 0.987623692 -0.134954512 -0.00412316667 0.990843236 0.0432307459 -0.288904071 0.9563815 0.171862364 -0.983302414 -0.0598304942 -0.201250881 -0.00849952269 -0.979502857 -0.112829119 0.0667667016 -0.991368651 0.0159781389 0.0264789555 -0.999521673 -0.196436778 0.50134778 0.842652321 -0.216570362 0.514560699 0.829653263 -0.194144338 0.475808114 0.857854664 -0.610449493 0.791138113 -0.0381039381 -0.389318645 0.916279018 -0.0941473991 -0.93965596 0.341078877 0.0266812965 -0.0678846017 0.021113215 -0.997469783 -0.754853189 0.414229989 0.508537352 -0.804722607 0.381078869 0.455192715 -0.851946771 0.258550823 0.455344081 -0.585740745 0.55440551 0.591221094 -0.0438251756 0.485632777 0.873063684 -0.290919483 0.615934074 0.732114077 -0.480605394 0.562829018 0.672489405 -0.0447666049 0.998200178 -0.0399047062 -0.103064753 0.175336316 -0.979098976 -0.0122221569 0.239413872 -0.970840693 -0.023607064 0.43860361 0.898370504 -0.506720781 0.848301888 0.153681457 -0.23251839 0.920325398 0.314541519 -0.153232053 0.975046158 0.160638943 0.066718556 0.712058187 -0.698943377 0.150904074 0.0889223441 -0.98454088 0.107266396 0.0494142696 -0.99300158 0.0781223774 0.201329559 -0.976403236 0.0914229751 -0.0450909436 0.994790733 -0.580096245 0.452273726 0.677448809 0.0397672728 -0.0894455537 0.995197475 0.0687953606 0.0758701265 0.994741619 -0.062039081 0.962168276 -0.265298665 -0.0104062418 0.762534559 -0.646863818 -0.0527869985 0.937274575 -0.344572097 0.386377364 -0.91155076 0.140668944 -0.122222707 -0.989675701 0.0748573765 0.368847221 -0.425147295 0.82656008 0.54230684 -0.75679636 0.364914507 0.495664328 -0.856209099 -0.145680845 0.519922197 -0.832349598 -0.192028672 0.202014029 -0.483274907 0.851842523 0.889777184 -0.21036078 0.405024499 0.250575274 -0.968019485 0.0122584738 0.751477838 -0.0101921279 0.659679651 0.535230577 0.199070528 0.820913613 0.243010566 0.16613993 0.955690026 -0.0254653301 -0.0250583682 -0.999361575 -0.359117121 -0.115317173 -0.926140845 0.125626609 -0.00648529269 -0.99205637 0.379179031 0.924965203 0.0257414524 0.130243078 -0.154357404 0.979392946 0.0543558523 -0.189734235 0.980329692 0.201323792 -0.499764442 0.842439473 0.722962081 -0.0660256892 0.687725604 0.259095073 0.00670960685 -0.965828538 0.592957556 0.0289972033 -0.804711401 0.0107649835 -0.168901891 -0.985574067 -0.109347209 -0.121718504 -0.986523092 -0.126807064 -0.0663613155 -0.989705086 0.00882742926 -0.0772389919 0.996973515 -0.0671445057 -0.0585186221 0.996025681 0.0348020867 -0.00560963526 -0.999378502 -0.0151612693 -0.0215048231 -0.999653757 0.330214918 0.896661639 0.294883102 0.499282271 0.618731797 0.606537819 0.176025584 0.49183023 0.852712154 0.148141101 0.496700406 0.855185926 0.196013913 0.49388954 0.847143233 0.631261468 0.454900503 0.628151596 0.589836657 0.251511693 0.767355561 0.635432065 0.669781387 0.384212196 0.252643317 0.967196286 -0.0265084282 0.992552996 0.110286415 -0.0517250635 0.211814329 0.302730948 0.929240882 0.978852808 -0.161833495 0.125128224 0.994427562 0.00783140585 0.105130725 0.146394461 -0.0636230335 -0.987178206 0.345565528 0.375434101 0.860019624 -0.0221541673 0.00808059424 0.999721885 -0.0179582518 -0.0143048009 0.999736428 -0.242345199 -0.0297262128 -0.969734609 -0.196410432 0.0635200962 -0.9784621 -0.00453029014 0.0132211521 -0.999902308 -0.824437082 0.0111582605 0.565843582 -0.797397852 0.00669077318 0.6034168 -0.963808596 0.19880195 0.177625343 0.128716752 -0.00109886285 -0.991680801 0.0676021501 -0.135576233 -0.988457918 -0.57268393 0.0088742571 0.819728196 -0.107701145 -0.0449126847 -0.993168294 -0.28277868 0.0211063754 -0.958952963 -0.156111389 -0.0269668773 -0.987371266 0.308419555 0.9274984 -0.211244181 0.00770231895 -0.0365085565 0.999303639 0.256785184 0.0231972337 -0.9661901 0.303034574 0.00840435363 -0.952942491 0.287022531 0.0135561042 -0.957827926 -0.0758221895 -0.0566061288 -0.99551332 -0.00789825805 0.164139807 0.986405492 0.909970224 -0.355956793 0.21271798 0.999723136 0.0078491997 -0.0221828986 -0.0391564965 0.0696080551 0.996805668 -0.126789495 0.120820574 0.984543979 0.0182617251 -0.00236096978 0.999830425 -0.81986779 0.0540289581 0.569998026 0.200091854 0.0409751348 -0.978919983 0.00480277138 0.284746677 0.958590746 -0.00818047673 0.750941157 -0.660318494</float_array>
          <technique_common>
            <accessor source="#normals_array" count="145" stride="3">
              <param name="X" type="float" />
              <param name="Y" type="float" />
              <param name="Z" type="float" />
            </accessor>
          </technique_common>
        </source>
        <vertices id="vertices">
          <input semantic="POSITION" source="#positions" />
        </vertices>
        <triangles material="scout_1a1a1a" count="152">
          <input semantic="VERTEX" source="#vertices" offset="0" />
          <input semantic="NORMAL" source="#normals" offset="1" />
          <p>0 0 1 1 2 2 3 3 4 4 5 5 6 6 0 7 2 8 7 9 0 7 6 6 8 10 9 10 10 10 11 11 12 12 13 13 3 14 2 2 14 15 15 16 2 8 3 3 6 6 2 8 15 16 16 17 6 17 15 17 17 18 6 19 16 20 18 21 6 19 17 18 7 9 6 6 18 22 19 23 9 24 20 25 21 26 22 27 7 28 5 5 15 16 3 3 17 18 16 20 23 29 24 30 25 31 22 27 26 32 22 27 21 26 27 33 22 27 26 32 26 32 21 26 28 34 3 14 14 15 29 35 30 36 31 37 32 38 33 39 34 40 35 41 36 42 37 43 38 44 30 36 32 38 8 45 39 46 33 47 35 48 40 49 33 47 39 46 41 50 36 51 34 40 39 46 42 52 40 49 37 43 36 42 41 53 37 54 43 55 31 37 41 50 34 40 33 39 44 56 41 50 33 39 33 57 42 58 44 59 40 60 42 60 33 60 12 61 45 62 46 63 37 54 46 63 43 55 24 30 47 64 25 31 48 65 49 65 47 65 48 66 47 64 24 30 2 2 1 1 14 15 48 66 24 30 50 67 48 68 50 69 49 70 5 71 23 29 15 72 51 73 17 18 23 29 51 73 23 29 52 74 52 74 23 29 5 71 53 75 29 35 54 76 53 77 5 5 4 4 55 78 52 74 5 71 53 75 4 79 29 35 56 80 57 81 58 82 59 83 60 84 61 85 62 86 60 86 59 86 56 87 28 34 63 88 55 89 5 5 53 77 55 78 51 73 52 74 55 78 63 90 51 73 62 91 61 85 60 92 29 93 14 94 10 95 28 34 64 96 26 32 56 87 64 96 28 34 65 97 64 96 56 87 32 38 66 98 67 99 68 100 42 58 69 101 41 50 44 56 70 102 46 63 45 62 43 55 13 103 41 50 70 102 13 103 70 102 11 104 71 105 69 101 72 106 71 105 68 100 69 101 68 100 71 105 70 107 13 13 12 12 46 108 70 109 71 109 72 109 70 102 72 110 57 81 70 102 57 81 11 104 54 111 11 112 55 78 7 28 63 88 21 26 62 91 12 61 54 113 58 114 50 67 73 115 50 67 74 116 73 115 73 115 64 96 65 97 1 117 38 118 8 45 27 33 24 30 22 27 23 29 16 20 15 72 59 83 19 23 75 119 7 120 35 121 34 122 10 95 14 94 1 117 1 117 8 45 10 95 8 45 38 118 30 36 38 118 37 54 31 37 30 36 38 118 31 37 19 23 20 25 32 38 8 45 20 25 9 24 75 119 19 23 67 99 20 25 8 45 32 38 19 23 32 38 67 99 59 83 75 119 67 99 62 91 59 83 66 98 59 83 67 99 66 98 66 98 76 123 62 91 77 124 61 85 54 113 62 91 54 113 61 85 12 61 76 123 45 62 35 121 7 120 49 125 29 35 4 79 3 14 25 126 47 127 49 128 59 83 61 85 19 23 9 24 77 124 10 95 19 23 61 85 9 24 9 24 61 85 77 124 34 122 0 0 7 120 37 43 41 53 46 108 36 42 38 44 34 122 44 59 68 100 70 129 63 88 7 28 18 130 51 73 18 130 17 18 56 131 58 132 73 133 21 26 63 88 28 34 1 1 34 122 38 44 22 134 25 126 49 128 10 95 77 124 29 93 46 108 41 53 13 13 57 81 56 80 63 90 72 110 35 135 57 81 43 55 45 62 76 123 43 55 76 123 31 37 31 37 76 123 66 98 31 37 66 98 32 38 54 111 55 78 53 136 54 111 12 137 11 112 29 93 77 124 54 113 64 96 74 116 26 32 74 116 27 33 26 32 50 67 24 30 27 33 50 67 27 33 74 116 68 100 44 59 42 58 34 122 1 1 0 0 35 135 42 138 39 139 42 138 35 135 69 140 57 81 63 90 55 78 18 130 51 73 63 88 49 125 7 120 22 141 65 142 56 131 73 133 57 81 35 135 49 143 49 143 58 82 57 81 55 78 11 112 57 81 49 70 50 69 58 144 62 91 76 123 12 61 72 110 69 140 35 135 64 96 73 115 74 116</p>
        </triangles>
      </mesh>
    </geometry>
  </library_geometries>
  <library_visual_scenes>
    <visual_scene id="scene">
      <node id="pelvis">
        <instance_geometry url="#geometry">
          <bind_material>
            <technique_common>
              <instance_material symbol="scout_1a1a1a" target="#scout_1a1a1a" />
            </technique_common>
          </bind_material>
        </instance_geometry>
      </node>
    </visual_scene>
  </library_visual_scenes>
  <scene>
    <instance_visual_scene url="#scene" />
  </scene>
</COLLADA>