<?xml version='1.0' encoding='utf-8'?>
<COLLADA xmlns="http://www.collada.org/2005/11/COLLADASchema" version="1.4.1">
  <asset>
    <created>2026-09-14T00:00:00Z</created>
    <modified>2026-09-14T00:00:00Z</modified>
    <unit name="metre" meter="1" />
    <up_axis>Z_UP</up_axis>
  </asset>
  <library_effects>
    <effect id="scout_1a1a1a_effect">
      <profile_COMMON>
        <technique sid="common">
          <lambert>
            <emission>
              <color>0 0 0 1</color>
            </emission>
            <ambient>
              <color>0.05 0.05 0.05 1</color>
            </ambient>
            <diffuse>
              <color>0.1 0.1 0.1 1</color>
            </diffuse>
          </lambert>
        </technique>
      </profile_COMMON>
    </effect>
  </library_effects>
  <library_materials>
    <material id="scout_1a1a1a" name="scout_1a1a1a">
      <instance_effect url="#scout_1a1a1a_effect" />
    </material>
  </library_materials>
  <library_geometries>
    <geometry id="geometry" name="right_hip_roll_link">
      <mesh>
        <source id="positions">
          <float_array id="positions_array" count="147">-0.0158994645 -0.0195060074 0.0555182062 -0.013098334 -0.00689262664 0.0554468967 -0.0481172986 -0.0148548475 0.0265342221 -0.0553388409 -0.0188011583 0.00314995274 -0.0594643205 -0.00751419691 -0.00867254846 -0.0540023372 -0.0142614692 -0.0236967243 -0.0123285037 -0.00682477234 -0.0585913025 -0.00424402207 -0.0197755452 -0.0585471913 -0.0594697781 -0.0339467116 -0.000858512067 -0.0615773648 -0.0133685404 -0.0503370054 -0.0113928104 0.0143704517 -0.0612011552 -0.0645343363 -0.0209545474 0.0493802205 -0.0196802896 -0.00981968548 0.0607746765 -0.0123001672 0.0179114919 0.0618595593 -0.0417922288 0.0418445617 -0.0345625989 -0.0473915413 0.0509874336 -0.00432507601 -0.0183537416 0.0511069708 -0.043467842 -0.0631444976 0.0215594806 -0.047692962 0.0172910057 0.0478947945 -0.0452814661 -0.0662773922 0.00404578913 0.0523088723 -0.0619379394 0.0156068467 0.0321033373 -0.044200927 0.0141562484 0.0488711111 -0.0648367777 0.0403172448 -0.0352851488 -0.0601999126 0.0216933284 0.00040634867 -0.0477608591 0.0414652713 0.0205856636 -0.0649086237 0.0252420697 0.0460446253 -0.0240541268 0.0460693203 0.0441532284 0.0310680531 -0.000931026065 -0.0505101234 0.0575607643 -0.00126815971 -0.00483279722 0.0499237105 -0.0195987951 0.028702708 0.0467552021 -0.0193509907 -0.0289170835 0.0574572906 0.00489719724 0.0289602987 0.0343846343 0.0125679662 0.0472017489 0.0308165066 -0.00113507255 0.0488104708 -0.0625039563 -0.0525877215 0.0147911459 -0.0640361831 -0.0556222498 -0.00990121439 -0.0643330067 -0.0366358273 -0.0392713994 -0.041436363 0.00521114981 -0.0509641357 -0.0602537282 0.00489354786 -0.0315733813 0.0171143878 0.0464243777 0.0464189164 0.0458392836 0.0458534546 0.0179416612 0.051560726 0.0127737289 -0.0344289951 0.0411300696 0.0470279679 -0.0259879082 -0.0655444935 -0.0135309491 0.0174728427 -0.0276377797 0.0186602548 0.0490652658 -0.0616067573 0.054914251 -0.00453034602 -0.0638486892 0.0576296337 0.00551123125 -0.0279815942 0.0200948156 -0.0519284308 -0.0538539812 -0.00884096138 0.0394067205</float_array>
          <technique_common>
            <accessor source="#positions_array" count="49" stride="3">
              <param name="X" type="float" />
              <param name="Y" type="float" />
              <param name="Z" type="float" />
            </accessor>
          </technique_common>
        </source>
        <source id="normals">
          <float_array id="normals_array" count="366">-0.649469793 0.148447752 0.745756149 -0.885268629 -0.449318975 -0.120049618 -0.562571883 -0.353729159 -0.747254014 0.891806304 -0.128426984 -0.433806509 -0.0436508544 -0.998857915 0.0194299389 -0.363009334 -0.817365527 0.447367728 -0.07029403 -0.99752605 0.000717688526 0.049970869 -0.0625116676 -0.996792436 -0.221668795 0.0191979297 -0.974933028 0.101171874 -0.00146809558 -0.994867861 0.28141278 -0.933520317 -0.222141176 0.280009359 -0.939880252 -0.195499063 0.278758705 -0.944381952 -0.174459994 0.351926565 -0.159349516 0.922364056 0.293671608 -0.201426104 0.934443414 0.669391692 -0.206069663 0.713757694 -0.45342198 0.826411784 -0.333844393 -0.243953526 0.0623153448 -0.967782736 -0.0922912061 -0.55881685 -0.824139595 0.324174017 -0.849426031 -0.416397214 0.989690959 0.129603446 -0.0609483905 0.992440879 0.0924781114 -0.0806778073 0.998248696 0.0587278605 0.00710784644 -0.964933574 -0.24010253 -0.106084958 -0.282851577 0.0377808064 0.958419323 -0.157622501 0.202704102 0.966471016 -0.233753458 0.0407442339 0.971441805 -0.468323886 0.82760936 0.309411436 0.324184507 0.313563377 -0.892514646 0.168712631 0.101979211 -0.980375588 0.885592878 -0.461688578 -0.0506842732 -0.142025441 0.122437559 0.982261598 0.605598629 -0.0645771772 0.793145716 0.470941722 -0.0190874375 0.881957829 0.369076729 -0.238042668 0.898397505 0.998705864 -0.0279785786 0.0424713865 0.996296406 -0.0672700554 -0.0535557792 0.949773729 -0.266555756 -0.163944706 -0.223727331 0.539489627 -0.811724722 -0.203145847 0.556411982 -0.805690646 -0.198236048 0.587226212 -0.784772515 -0.575912297 0.605778515 -0.548960388 0.0962606296 -0.0708381981 0.992832243 0.120304532 -0.990445971 -0.0674058273 0.00598834921 0.999853373 0.016044233 0.0330300704 0.999303758 0.0173507389 0.0480370708 0.998035431 0.0402207486 0.0309159625 0.998920143 0.0346814543 0.459390134 0.284997702 -0.841271043 0.469230473 0.191475928 -0.862067163 0.992421865 0.118136868 0.0338004343 0.945854962 0.310957104 -0.093081072 0.991070449 -0.0330825411 0.129169926 -0.387369245 -0.654395521 0.64939326 -0.218285874 -0.933834791 0.283379287 0.28159374 -0.932566464 -0.225886673 0.110355519 0.991111875 -0.074289456 0.167895555 0.97814697 -0.122635998 0.179040954 0.981277466 -0.0709850043 0.178167194 0.982289493 -0.0579985045 0.996748447 0.0765522718 0.0251453202 0.990432024 0.0806521922 0.111980349 0.00960299652 0.0795303285 0.996786177 -0.0555965863 0.183167323 0.981508434 -0.0176986791 0.123103365 0.992236018 0.85594511 0.148273706 -0.495351255 -0.498920053 0.802066505 -0.328280568 0.819061279 0.403988987 0.407346874 -0.214124158 -0.128364176 0.96833539 -0.554288208 -0.626330078 -0.548156261 0.43763113 -0.501872659 -0.746058226 0.0346364081 0.997745752 -0.0574783571 -0.144560888 0.754795134 -0.639833152 0.662223101 0.353083223 0.660903037 -0.984008253 -0.0615134388 -0.167164102 -0.996364176 -0.0846574232 -0.00957018603 -0.987209141 -0.141689301 -0.0730903894 -0.977857888 0.00130036764 -0.209266067 -0.893896997 0.161265239 -0.418260336 -0.99867636 -0.0240810551 0.0454489067 -0.990155697 0.115426868 0.0791730806 -0.977724373 0.208217338 -0.026469104 -0.509163916 0.312164873 -0.802063048 -0.800092459 0.260551423 -0.540337861 -0.990296543 -0.120952144 0.0684346929 -0.995053411 0.0899085999 0.0422510505 -0.991122901 -0.122921586 0.0506524555 -0.994186759 0.103289798 -0.0303962436 0.212180451 -0.189520836 0.958676875 0.320124596 -0.526471436 0.787621737 -0.687382877 -0.0103448732 0.726221621 -0.803210616 0.589902282 -0.0828733891 -0.831554651 -0.0421025604 0.553844929 -0.761678457 0.122492597 0.636271536 -0.804728448 0.0303033609 0.592869163 -0.70932883 0.213151261 0.671877325 -0.846638322 -0.124481395 -0.517404974 0.336409539 -0.926241159 0.170017496 0.694658458 -0.355044633 0.625613987 0.595138192 0.358463585 -0.719245732 -0.0199649744 -0.997873664 -0.0620444156 -0.0547381863 -0.997851372 0.0360047705 -0.016771106 -0.999806106 -0.0103192329 0.0111797545 -0.999925435 -0.0049151089 0.033974342 0.0404202715 0.998605013 0.371140122 0.925087571 0.0804241598 0.0959079787 0.99376744 -0.056814447 0.0161148552 0.999557614 0.0249970853 0.0868064016 0.994293153 0.0620139614 0.0931593105 0.993034124 0.0721426681 -0.3444736 0.477290958 -0.80841279 0.986339867 -0.162402734 0.0275501572 0.934167862 -0.316175073 -0.165419906 0.931578755 -0.240136594 -0.27293852 0.948295295 0.0897978693 0.304421455 0.996824384 0.0785143301 -0.0132912435 0.994631171 0.0723510012 0.0739872381 0.96693927 -0.154247358 0.203066871 0.707853794 -0.571757257 -0.414773017 0.0409810394 0.999145925 -0.00528922537 0.952998757 0.298556149 -0.0515517928 0.969436824 0.178680718 0.168123215</float_array>
          <technique_common>
            <accessor source="#normals_array" count="122" stride="3">
              <param name="X" type="float" />
              <param name="Y" type="float" />
              <param name="Z" type="float" />
            </accessor>
          </technique_common>
        </source>
        <vertices id="vertices">
          <input semantic="POSITION" source="#positions" />
        </vertices>
        <triangles material="scout_1a1a1a" count="94">
          <input semantic="VERTEX" source="#vertices" offset="0" />
          <input semantic="NORMAL" source="#normals" offset="1" />
          <p>0 0 1 0 2 0 3 1 4 1 5 1 5 2 6 2 7 2 3 3 8 3 4 3 0 4 2 5 3 6 6 7 9 8 10 9 11 10 1 11 12 12 1 13 13 14 12 15 14 16 15 16 16 16 17 17 10 9 9 8 16 18 18 18 14 18 19 19 20 19 21 19 17 20 22 21 23 22 15 23 14 23 24 23 13 24 25 25 12 26 24 27 26 27 15 27 6 7 27 28 7 29 28 30 29 30 30 30 25 25 19 31 12 26 31 32 32 33 33 34 34 35 35 36 36 37 14 38 18 39 10 40 37 41 9 41 38 41 17 42 9 42 37 42 9 43 6 43 5 43 39 44 40 45 18 46 39 44 18 46 26 47 41 48 10 9 18 49 41 50 42 51 40 52 1 53 43 54 2 5 11 10 43 55 1 11 13 56 44 57 25 58 44 57 23 59 25 58 45 60 25 61 23 22 23 22 22 21 45 60 39 62 26 63 44 64 30 65 27 65 28 65 22 66 46 66 45 66 29 67 28 67 33 67 11 68 12 26 19 31 17 69 37 69 38 69 7 70 27 70 30 70 17 71 47 72 10 40 39 73 32 73 40 73 1 13 33 34 13 14 25 74 46 75 20 76 20 76 19 77 25 74 48 78 20 76 38 79 48 78 38 79 35 80 48 78 35 80 34 81 19 82 48 78 11 83 11 83 48 78 34 81 20 76 46 75 38 79 46 75 22 84 38 79 36 85 35 80 38 79 22 84 17 86 38 79 9 87 36 85 38 79 47 72 14 38 10 40 33 34 0 88 29 89 48 90 21 90 20 90 23 91 24 91 14 91 23 92 44 93 24 94 26 95 24 94 44 93 3 6 2 5 43 54 23 96 14 96 47 96 31 97 33 97 28 97 33 34 1 13 0 88 43 98 8 98 3 98 18 49 42 99 41 48 5 100 7 101 29 102 7 101 30 103 29 102 3 6 5 100 29 102 0 4 3 6 29 102 44 64 32 104 39 62 27 28 6 7 10 9 31 105 41 105 32 105 44 57 13 56 32 106 18 46 40 45 42 107 26 47 18 46 15 108 16 109 15 108 18 46 21 110 48 78 19 82 34 35 36 37 8 111 36 37 5 112 8 111 36 37 9 113 5 112 8 114 5 114 4 114 11 115 34 35 43 116 34 35 8 111 43 116 32 117 41 50 40 52 27 118 41 118 28 118 23 119 47 72 17 71 28 120 41 120 31 120 13 14 33 34 32 33 45 60 46 121 25 61 27 28 10 9 41 48</p>
        </triangles>
      </mesh>
    </geometry>
  </library_geometries>
  <library_visual_scenes>
    <visual_scene id="scene">
      <node id="right_hip_roll_link">
        <instance_geometry url="#geometry">
          <bind_material>
            <technique_common>
              <instance_material symbol="scout_1a1a1a" target="#scout_1a1a1a" />
            </technique_common>
          </bind_material>
        </instance_geometry>
      </node>
    </visual_scene>
  </library_visual_scenes>
  <scene>
    <instance_visual_scene url="#scene" />
  </scene>
</COLLADA>