<?xml version='1.0' encoding='utf-8'?>
<COLLADA xmlns="http://www.collada.org/2005/11/COLLADASchema" version="1.4.1">
  <asset>
    <created>2026-09-14T00:00:00Z</created>
    <modified>2026-09-14T00:00:00Z</modified>
    <unit name="metre" meter="1" />
    <up_axis>Z_UP</up_axis>
  </asset>
  <library_effects>
    <effect id="scout_1a1a1a_effect">
      <profile_COMMON>
        <technique sid="common">
          <lambert>
            <emission>
              <color>0 0 0 1</color>
            </emission>
            <ambient>
              <color>0.05 0.05 0.05 1</color>
            </ambient>
            <diffuse>
              <color>0.1 0.1 0.1 1</color>
            </diffuse>
          </lambert>
        </technique>
      </profile_COMMON>
    </effect>
  </library_effects>
  <library_materials>
    <material id="scout_1a1a1a" name="scout_1a1a1a">
      <instance_effect url="#scout_1a1a1a_effect" />
    </material>
  </library_materials>
  <library_geometries>
    <geometry id="geometry" name="right_shoulder_roll_link">
      <mesh>
        <source id="positions">
          <float_array id="positions_array" count="99">-0.0182944555 -0.0252103508 -0.0932256281 -0.0257441122 0.0180412158 -0.0938963294 -0.0232256632 -0.0170439426 -0.0912886709 0.0478799194 -0.0022504665 -0.000492526742 0.0462363437 0.0150214005 -0.021911731 0.0478215739 0.003201599 0.000624088454 -0.0292009879 0.0187762119 -0.0807853863 0.0372268222 0.023571657 -0.0880080536 -0.0327430554 0.0368864164 -0.0978336856 -0.0239223801 0.0360358208 -0.128717437 0.0119127743 -0.0488490686 -0.116084151 0.0339036286 -0.0296371467 -0.0209628604 0.041618377 -0.0218543801 -0.0786128268 0.0339022875 -0.0310887638 -0.0209580157 0.0339019708 -0.0252821762 -0.0209770314 0.033899799 -0.0267621912 -0.0209811255 0.0350378267 -0.018137902 -0.0515203103 0.0442396998 -0.0214232057 -0.071168609 0.0374757051 0.000455973204 -0.0857920423 0.0434479751 0.014893801 -0.085361518 0.0361915082 0.0159821585 -0.0296893772 0.0465480685 -0.0159572829 -0.0400527827 0.0481515825 0.000117245268 -0.0820629597 0.0385970287 -0.00530095445 -9.8356737e-05 0.0447648913 -0.0143269235 0.000178889284 0.0468953587 -0.00183434482 0.000409666565 0.0380418561 -0.0211854447 0.020885393 0.025593359 0.0361428484 -0.095776774 -0.0430276841 -0.0254828371 -0.0945766643 0.0396692269 0.0307892431 -0.127609029 0.0347894281 0.0212355517 -0.058135163 0.0354066789 0.02790365 0.0137874484 0.0378293507 -5.68235328e-06 -0.059267588</float_array>
          <technique_common>
            <accessor source="#positions_array" count="33" stride="3">
              <param name="X" type="float" />
              <param name="Y" type="float" />
              <param name="Z" type="float" />
            </accessor>
          </technique_common>
        </source>
        <source id="normals">
          <float_array id="normals_array" count="369">0.342146516 -0.139230549 0.929274261 0.017050799 0.103413075 0.994492352 0.502726674 0.099904269 0.858653069 0.998040497 0.0226286128 -0.0583365634 0.0291470699 0.688162506 0.724970937 0.106210731 -0.165409386 -0.980489194 0.068457894 0.249089092 -0.966058016 0.0899884328 0.0350967534 -0.995324194 -0.892476737 -0.384073973 -0.236584872 -0.898266494 -0.372550875 -0.23307316 -0.884038568 -0.40021202 -0.241466701 0.0575061999 0.343331158 -0.937452257 -0.991208076 -0.000731338514 -0.13231051 -0.9293347 -0.339731961 -0.144634858 -0.99117285 0.00046901108 -0.132575288 -0.063395083 -0.00328806974 -0.997983098 -0.996663451 0.000160617172 0.081620574 -0.989705384 -0.0502090715 -0.134023324 -0.865444601 -0.479744047 -0.144399568 0.671417117 -0.257007152 -0.695087314 0.620585442 -0.234394103 -0.748286784 0.373461038 -0.127082646 -0.918899834 0.600948215 0.416260421 -0.682340503 -0.277076632 0.473247975 0.836220622 -0.998327911 0.055259984 -0.0169614404 -0.993517756 0.113542907 0.00552317081 -0.979635119 0.197149083 0.0380435996 -0.999360979 0.0100333281 -0.0343061164 -0.0263919272 -0.0487041622 -0.998464525 0.811956108 0.301032096 -0.50010699 -0.348335773 0.751792848 0.559883595 -0.900468886 0.14820604 0.408889681 -0.875953078 0.141469836 0.461186022 -0.865843594 0.138780192 0.480681777 0.282830596 -0.0885142758 -0.955076993 -0.597766161 -0.0761478767 0.798045814 -0.594754696 -0.0734679624 0.800543129 -0.198539555 0.152904645 0.968092024 -0.266831785 0.730809093 -0.628266513 -0.616642058 -0.0883377865 0.782271743 -0.568238556 -0.780695915 -0.26003623 0.393790632 -0.700545251 -0.595117927 -0.639980674 0.661040723 0.391726732 -0.00146254455 0.986194968 -0.165582016 0.0154741742 -0.989618599 0.142882988 -0.0126711614 -0.87444669 0.484956056 -0.0147774117 -0.89262259 0.450562447 0.933670104 -0.341173738 -0.108906254 0.316595286 0.371958882 -0.872590423 0.800921142 -0.0485890359 -0.596795142 0.00528015662 -0.145023733 -0.989414096 -0.26038155 -0.248766407 -0.932907701 -0.190222844 -0.222610041 -0.956169486 -0.261660546 0.25086695 0.931986868 -0.232433021 0.172461048 0.95720011 -0.212205008 0.120079242 0.969819546 -0.921036065 0.36356315 0.139693871 -0.18807973 0.0593632348 0.980358124 -0.459708512 -0.317505777 -0.829372168 0.0356137231 0.997751594 -0.0567755029 0.0135755017 0.999628007 -0.0236541182 0.269673139 0.962614298 -0.0254965443 0.689322829 -0.13826853 0.711137056 0.0160893071 -0.990060091 0.139721707 -0.0303046238 -0.71456778 0.698909461 0.434107989 -0.27485764 0.857906461 0.164342657 -0.044340726 0.98540622 -0.0477855727 -0.99517566 0.0856852084 -0.0402916633 -0.980523288 0.192225486 -0.0386056677 -0.975845575 0.215023354 -0.916432858 -0.339139849 -0.212449878 -0.922382891 -0.249458 -0.294924617 -0.919544518 -0.195678741 -0.340804517 -0.652300537 0.757422924 -0.0285395179 0.88871634 -0.435112923 0.144429877 0.952664495 -0.167157114 0.253946632 0.842301726 -0.524239123 0.125303939 -0.914716482 -0.337483823 -0.222257569 -0.0506411456 -0.997808635 0.0425846986 0.23854661 0.96796608 -0.0783397928 0.73851192 0.673278511 0.036003381 0.812305689 0.582096934 0.0363671593 0.892052412 0.448197067 0.057981208 0.825366199 0.56443131 0.013709276 0.936491907 0.337168634 0.0964374989 -0.616132617 -0.0878449157 0.782728434 -0.998694837 -0.0509129018 -0.00406757835 -0.998340189 0.0541820936 0.019522056 -0.996641755 -0.0780022964 0.0249160174 -0.967680991 0.241666734 0.0720466003 -0.998933256 -0.00558538828 0.0458389372 -0.995148242 0.000267762429 0.0983866155 0.204655126 0.341184735 -0.91744715 0.609550178 -0.619255006 -0.494946271 -0.907812476 -0.0750464201 -0.412606984 -0.950240374 0.0457731672 0.308136493 0.862063885 -0.505631745 0.0343867801 0.23446624 0.74546802 -0.623941541 -0.0321189873 0.192966297 0.980679572 -0.693778574 -0.711388648 -0.112238593 -0.892160594 -0.450989038 0.0256573539 -0.770124257 -0.634751737 -0.0632362217 -0.183865607 -0.722620666 0.666342914 0.985382676 0.0241559986 0.168633968 0.9528355 -0.0345407166 0.301515311 0.976788759 0.00429102732 0.214161813 0.995113015 0.0642593876 0.0749718323 0.95520395 0.271553129 0.117661752 -0.905440867 -0.107692562 -0.410583913 0.948056877 0.313549846 -0.0536154546 0.948014081 0.119960867 0.294751912 0.966608465 0.200944275 0.159026623 0.927623451 0.350049466 -0.130307943 -0.846932471 0.177418813 0.501226425 0.0483326986 -0.981793225 -0.18370077 -0.0639560148 0.995307267 0.0726162195 -0.689614117 0.371714085 0.621499062 0.9690364 -0.206818998 -0.134886324 0.502390504 -0.835392177 0.222988099 -0.130259365 -0.377446264 0.916824341 0.65658915 -0.753765643 0.0269827805 0.665964246 -0.745419443 0.0290074889 -0.900800049 0.1482995 0.408125669</float_array>
          <technique_common>
            <accessor source="#normals_array" count="123" stride="3">
              <param name="X" type="float" />
              <param name="Y" type="float" />
              <param name="Z" type="float" />
            </accessor>
          </technique_common>
        </source>
        <vertices id="vertices">
          <input semantic="POSITION" source="#positions" />
        </vertices>
        <triangles material="scout_1a1a1a" count="86">
          <input semantic="VERTEX" source="#vertices" offset="0" />
          <input semantic="NORMAL" source="#normals" offset="1" />
          <p>0 0 1 1 2 2 3 3 4 3 5 3 6 4 7 4 8 4 8 5 7 6 1 7 9 8 6 9 8 10 1 7 7 6 10 11 11 12 12 13 13 14 11 15 13 15 14 15 15 16 12 13 11 12 14 17 15 16 11 12 14 17 16 18 12 13 14 17 12 13 15 16 17 19 18 20 19 21 20 22 21 22 16 22 18 23 17 23 22 23 21 24 22 25 17 26 4 27 22 25 21 24 23 28 3 28 24 28 10 29 4 29 21 29 25 30 23 30 26 30 5 31 25 32 24 33 7 34 19 21 18 20 7 35 22 36 19 37 23 38 25 38 3 38 7 35 27 39 22 36 20 40 3 40 25 40 4 41 3 41 20 41 4 42 23 42 5 42 16 43 17 43 28 43 12 44 28 45 0 46 29 47 4 47 10 47 18 48 22 48 10 48 18 49 10 49 7 49 29 50 10 51 9 52 17 53 2 54 28 55 9 56 28 56 1 56 1 57 28 55 2 54 28 58 9 52 10 51 9 59 8 60 27 61 5 62 24 62 3 62 16 63 28 45 12 44 28 45 10 64 0 46 0 0 10 65 27 66 0 0 27 66 1 1 6 67 19 68 30 69 19 70 22 71 30 72 10 73 26 73 12 73 24 74 25 75 26 76 6 9 9 8 1 77 19 68 6 67 1 78 29 79 31 80 4 81 23 82 24 83 21 84 27 39 10 85 22 36 20 86 16 87 31 88 16 87 14 89 26 90 14 89 13 91 26 90 16 87 26 90 31 88 12 92 0 92 2 92 29 79 9 59 27 61 20 93 5 93 23 93 17 94 16 94 30 94 4 95 30 95 16 95 13 96 12 96 26 96 10 97 2 97 17 97 1 1 27 66 8 98 7 99 30 100 27 101 2 102 10 102 12 102 23 103 4 104 31 105 26 106 23 103 31 105 23 82 21 84 20 107 22 71 32 108 30 72 17 109 30 110 32 111 32 111 21 112 17 109 19 113 10 113 17 113 27 61 31 80 29 79 4 114 20 114 30 114 7 115 6 115 30 115 21 116 32 116 16 116 4 117 16 117 32 117 32 118 22 118 4 118 27 101 30 100 31 88 31 88 30 100 20 86 1 119 10 119 19 119 26 76 10 120 21 121 21 121 24 74 26 76 25 32 5 31 20 122</p>
        </triangles>
      </mesh>
    </geometry>
  </library_geometries>
  <library_visual_scenes>
    <visual_scene id="scene">
      <node id="right_shoulder_roll_link">
        <instance_geometry url="#geometry">
          <bind_material>
            <technique_common>
              <instance_material symbol="scout_1a1a1a" target="#scout_1a1a1a" />
            </technique_common>
          </bind_material>
        </instance_geometry>
      </node>
    </visual_scene>
  </library_visual_scenes>
  <scene>
    <instance_visual_scene url="#scene" />
  </scene>
</COLLADA>