<?xml version='1.0' encoding='utf-8'?>
<COLLADA xmlns="http://www.collada.org/2005/11/COLLADASchema" version="1.4.1">
  <asset>
    <created>2026-09-14T00:00:00Z</created>
    <modified>2026-09-14T00:00:00Z</modified>
    <unit name="metre" meter="1" />
    <up_axis>Z_UP</up_axis>
  </asset>
  <library_effects>
    <effect id="scout_1a1a1a_effect">
      <profile_COMMON>
        <technique sid="common">
          <lambert>
            <emission>
              <color>0 0 0 1</color>
            </emission>
            <ambient>
              <color>0.05 0.05 0.05 1</color>
            </ambient>
            <diffuse>
              <color>0.1 0.1 0.1 1</color>
            </diffuse>
          </lambert>
        </technique>
      </profile_COMMON>
    </effect>
  </library_effects>
  <library_materials>
    <material id="scout_1a1a1a" name="scout_1a1a1a">
      <instance_effect url="#scout_1a1a1a_effect" />
    </material>
  </library_materials>
  <library_geometries>
    <geometry id="geometry" name="right_elbow_link">
      <mesh>
        <source id="positions">
          <float_array id="positions_array" count="222">-0.0372294001 -0.0266875289 0.0138629135 -0.0370811336 -0.02485024 -0.0154210366 -0.028342437 -0.0297005009 -0.0246643648 -0.00977142807 -0.0313983895 -0.0328597501 -0.0127685517 -0.0260911379 -0.0383304767 -0.0240624435 -0.0299014095 0.0289990921 -0.0241296235 0.030800188 -0.0259770472 -0.0334346704 0.0234497301 -0.0230496135 -0.0391931273 0.0254524555 0.00932109077 -0.0092201205 0.030770516 0.0343249552 0.285390824 0.037072055 -0.0212315153 0.273332328 0.0253091976 0.00671360409 0.291785955 0.030323334 -0.000861339271 -0.0313813314 0.0246976521 0.0244387276 0.113786377 -0.0251066927 -0.00573103223 0.0703422949 -0.0293796491 0.00126885471 0.0588912293 -0.0297353417 -0.032194972 -0.00184203323 0.023523666 0.0407592617 0.0356918387 -0.0243781358 -0.0389763825 0.289709151 -0.0261114091 0.00657460792 0.288959324 -0.0374422707 -0.0200579911 0.30937162 -0.0215450376 -0.010534741 0.270566344 -0.0137563078 0.00871350337 0.185944989 -0.0129128713 0.00509288115 0.195549518 -0.0242106728 -0.00482848333 0.101007476 -0.0167461578 -0.0411556959 0.12293601 -0.0247154497 -0.0288033783 0.270051599 -0.0276460852 -0.0287940279 -0.00832875725 0.0244950205 -0.0394141562 0.0539746135 0.0292086136 -0.0318263583 0.117906272 0.0223784763 -0.000484377029 0.119006515 0.0235182252 -0.0302506313 0.0362279862 0.0222032405 -0.0400381498 0.118330047 0.0174617395 -0.0387035757 0.270033717 -0.0283308532 -0.00778248534 0.26788345 -0.020810226 -0.0396979302 0.273179114 -0.0310111009 -0.0375573784 0.272710741 -0.0356700644 -0.00985170808 0.269996107 -0.0105443355 -0.0457163677 0.270098418 0.0112056909 -0.0461443774 0.273279279 0.0131033873 -0.0534561947 0.278584778 -0.023486143 -0.04808506 0.306011111 -0.0237304736 -0.0311607048 0.29818064 -0.00745683629 -0.0509378761 0.3137784 -0.00515045412 -0.0330848023 0.314419687 0.00957641564 -0.00546715315 0.303567499 -0.00715451175 0.0103947278 -0.00914407428 -0.0253648534 0.0385845825 0.0158686917 -0.0294157341 0.0343555361 0.097214818 0.0113752885 0.00906968676 0.0695691183 0.0220802911 0.0108848391 0.0490731187 0.0236829277 0.0182685591 0.0633814931 0.0287274215 0.00310350838 0.0297973584 0.0244099312 0.0296914224 0.0680441558 -0.0233159624 0.0108885858 0.039038565 -0.0249811187 0.024073977 0.116301708 -0.0135940975 0.00724747684 0.273336232 -0.0206640717 0.011101922 0.27487874 -0.000778930786 0.0184473936 0.172135964 0.00464044465 -0.0433476306 0.21399647 0.0170206167 -0.0400763266 0.269916266 0.0257484186 -0.0319404602 0.27223888 0.03528421 -0.0226346962 0.292215824 0.0200104024 -0.0473276153 0.269568205 0.0266529359 -0.00873515941 0.27045536 0.0163381882 0.00731799565 0.308487266 0.022619538 -0.0282693934 0.293227732 0.0139039047 0.0130935097 0.180871338 0.0118903676 0.00506839482 0.010419691 0.0221110377 -0.0130520342 0.0089647593 0.0221339148 0.0142533323 -0.0171608012 0.0219668709 -0.00214521866 0.0524961054 0.021809509 -0.0133474357 0.0553584173 -0.023192361 -0.00928146299</float_array>
          <technique_common>
            <accessor source="#positions_array" count="74" stride="3">
              <param name="X" type="float" />
              <param name="Y" type="float" />
              <param name="Z" type="float" />
            </accessor>
          </technique_common>
        </source>
        <source id="normals">
          <float_array id="normals_array" count="453">-0.285891712 -0.958219767 0.00899052899 -0.529015839 -0.846775055 -0.0558053851 -0.172991723 -0.984796524 0.0157995448 -0.129122689 -0.747882843 -0.651151776 -0.318648845 -0.761610508 -0.564280331 -0.158185586 -0.750615895 -0.641524076 -0.0599684492 -0.994418085 0.0868127793 -0.209426001 0.970327199 -0.120854981 -0.642446935 0.749303281 -0.160643861 -0.295459002 0.9535079 0.059386082 0.00792267267 0.972526908 0.232655659 -0.144014552 0.932760417 0.330481142 -0.0255111381 0.726899803 0.686269581 0.333186179 0.827150702 0.452557892 -0.350029945 0.909003019 0.226257563 0.0911868066 -0.990739405 0.100599892 0.0539696403 -0.99852699 0.00557425432 0.0435960926 -0.99903512 0.00531282602 -0.0205114093 -0.999115944 0.0366958976 -0.0169984698 -0.999010623 -0.0410955809 -0.0897922665 -0.994904101 0.0458598882 -0.454662949 0.286018133 0.843489885 0.0284613259 -0.732407689 -0.680271268 0.0559503548 -0.697568595 -0.714330137 0.295862049 -0.809761941 0.506706238 0.247450337 -0.967062652 -0.0596499071 0.807210982 -0.545276523 0.22601743 -0.0181930698 -0.740161002 0.672183573 -0.0139789265 -0.666470468 0.745400369 -0.0244173817 -0.678997278 0.733734608 0.0215032864 -0.420208186 -0.907172918 0.00446442887 -0.836513758 -0.547927797 -0.0200092942 -0.99788481 0.0618508831 0.0338884033 -0.999400377 0.00710374676 -0.0492783412 -0.998734772 -0.0100259501 -0.521612883 0.350526094 -0.777850568 0.130460575 -0.966852129 0.219492674 0.0567456111 0.925239682 -0.375115246 0.0429230519 0.998730421 0.0263669249 0.0350079313 0.998604894 0.0395305529 0.0143101001 0.52630055 -0.850178182 0.0400923155 0.656921387 -0.752892375 -0.0564901084 -0.997871816 -0.0325690098 -0.865275264 -0.49128291 -0.0996984318 -0.869249165 -0.477854192 -0.126732782 -0.862446129 -0.491990834 -0.118876673 -0.906358659 -0.37317872 0.198120087 -0.919261813 -0.385455549 0.0798859745 -0.190156922 -0.590799153 -0.784089744 -0.318681419 -0.26152119 -0.911070168 -0.622769654 -0.371378928 -0.688647687 -0.91664362 -0.00355029828 -0.399689674 -0.919862032 0.15717122 -0.359375983 -0.91073823 0.168238118 -0.377162874 -0.20913519 -0.963762879 -0.165600851 0.098189801 -0.902154148 -0.420091182 -0.493343353 -0.282976121 -0.822518587 0.320572376 -0.752305567 -0.575560331 0.0339625105 0.00641444325 -0.999402523 0.672410071 -0.642589211 -0.367347032 0.53963834 -0.532664776 -0.65196532 0.924092054 -0.072384201 -0.375252515 0.911078513 0.260497987 0.319494456 0.609812915 -0.191781908 0.76899147 -0.056161914 -0.865827441 0.49718076 -0.000966558466 -0.997229755 0.0743763372 0.117151916 0.191278487 0.974519372 0.0659195706 0.599089265 0.797964096 0.166171432 0.623669744 0.763821423 0.357268929 0.731709301 0.5804829 0.140638083 0.959540188 0.243933573 0.206406549 0.879970014 0.427842379 0.284977555 -0.778707206 0.558930159 0.339592129 -0.756970704 0.558276415 0.241552413 -0.768745422 0.592184901 0.416201502 -0.0732839331 0.906314373 0.0527471527 -0.240547717 0.969203055 -0.000945823209 -0.0132234618 0.999912143 0.0578324832 -0.887723982 0.456729203 -0.107763588 -0.806754768 0.580976546 -0.0151689844 -0.749074221 0.662312388 -0.896337867 -0.250106692 0.366094291 -0.883918703 -0.154970512 0.441216379 -0.896135032 0.0158940479 0.443496704 0.137898758 -0.0238694828 0.990158677 0.169380575 -0.335208148 0.926793218 -0.0113477735 0.888488591 -0.458758444 0.374427944 0.0891032144 -0.92296499 -0.0206979066 0.141312882 -0.989748597 0.0381945409 0.80825758 -0.587589025 -0.0332463048 0.594462335 -0.803435922 -0.0201692972 0.361033112 -0.93233484 -0.681019127 0.579834878 -0.447218567 -0.651532769 0.605152249 -0.457488537 0.279064685 0.90157634 -0.330579758 0.0640019998 0.842855513 -0.534320414 -0.09669929 0.815683365 -0.570359468 -0.870865881 0.3492212 0.345886081 -0.948690534 0.315900952 0.0138880704 -0.828648448 0.523099065 0.199271634 -0.799126983 0.248031914 0.547609568 -0.161229968 0.932573199 0.322973847 0.55753392 0.825850725 -0.0844188482 0.521835744 0.221595854 -0.823761344 0.867221355 0.23847352 -0.437101215 0.197350159 0.755546629 0.624661624 0.348313183 0.383440197 0.85536629 -0.0467393063 0.817525148 0.573993087 0.0222697519 0.611645639 0.790818334 -0.0552454963 0.838624775 0.541900754 -0.00105277332 -0.660356522 0.750951469 -0.00167426467 -0.999280989 -0.0378773622 0.00385378161 -0.999144912 0.0411657728 -0.0614161454 -0.997507989 0.0347249582 -0.0168721024 -0.84865284 -0.52868104 -0.0302919578 0.998764813 -0.0393853001 -0.0283112098 0.9991557 -0.029771518 -0.0272240955 -0.999158502 0.030677164 -0.0589676984 -0.99686861 0.0526856072 -0.00982550997 -0.998344064 0.056679301 -0.0511306971 -0.998556733 0.0164341219 -0.0186993536 -0.998040915 -0.05970449 -0.0518837944 -0.998189867 -0.0304158162 0.0361818336 -0.994548142 0.0977999195 0.00801084936 -0.00283092842 0.99996388 0.168192476 0.983766139 0.0625735 -0.410967141 0.884452283 0.221020803 0.338314652 0.926243007 -0.16618377 0.126487374 0.991509497 -0.0301637221 -0.0288170259 0.997803211 -0.0596513152 -0.0798634216 0.996420681 0.0277062058 0.0111088706 0.999875665 0.0111911809 -0.0679168627 0.996807933 0.0419669636 -0.133762106 0.990786612 0.0212022495 -0.0684016496 0.997456908 0.0200238992 -0.0424167737 0.998561561 0.0327968001 -0.841549218 0.00645960588 0.540141821 -0.83500284 0.00818620063 0.550184727 -0.832806289 0.00617667241 0.553530037 -0.846074522 0.0284657627 0.532304108 -0.826693654 0.00889505167 0.562582016 -0.853548408 0.0216898099 0.520561814 -0.965523064 0.259154081 -0.024583878 -0.0307216812 -0.02242372 -0.9992764 -0.00674313726 0.704626739 -0.709546089 0.0713261142 -0.00767968409 0.99742347 0.138584957 -0.352607876 0.925452292 -0.039030157 0.036803484 0.998560011 -0.0422426686 0.0461242646 0.998042166 -0.0268363878 -0.99885118 0.0397002622 -0.0477448776 0.809976041 -0.584516227</float_array>
          <technique_common>
            <accessor source="#normals_array" count="151" stride="3">
              <param name="X" type="float" />
              <param name="Y" type="float" />
              <param name="Z" type="float" />
            </accessor>
          </technique_common>
        </source>
        <vertices id="vertices">
          <input semantic="POSITION" source="#positions" />
        </vertices>
        <triangles material="scout_1a1a1a" count="144">
          <input semantic="VERTEX" source="#vertices" offset="0" />
          <input semantic="NORMAL" source="#normals" offset="1" />
          <p>0 0 1 1 2 2 3 3 2 4 4 5 5 6 0 0 2 2 6 7 7 8 8 9 8 9 9 10 6 7 10 11 11 12 12 13 8 9 13 14 9 10 14 15 15 16 16 17 17 18 13 19 8 20 9 21 13 21 17 21 18 22 3 3 4 5 16 23 3 3 18 22 19 24 20 25 21 26 22 27 23 28 24 29 25 30 16 23 18 22 16 23 25 30 26 31 24 32 26 33 27 34 28 35 7 35 6 35 23 36 15 16 14 15 29 37 30 38 31 39 32 40 29 37 33 41 34 42 24 32 27 34 27 43 35 44 36 45 34 46 27 43 37 47 35 48 38 49 36 50 38 51 39 52 40 53 20 25 37 54 36 55 36 50 38 49 41 56 20 25 36 55 41 57 37 47 27 43 36 45 40 58 41 56 38 49 42 59 20 25 41 57 41 57 43 60 42 59 21 26 20 25 42 59 44 61 42 59 43 60 44 61 45 62 21 26 45 62 46 63 21 26 47 64 5 6 48 65 49 66 30 67 50 68 51 69 52 70 53 71 54 72 48 73 15 74 54 75 55 75 48 75 56 76 54 72 15 74 56 76 15 74 23 77 37 78 19 24 57 79 22 27 24 29 34 80 57 81 34 46 37 47 22 82 34 46 57 81 19 24 37 78 20 25 58 83 22 82 57 81 46 63 58 84 19 85 21 26 46 63 19 24 29 37 32 40 28 86 41 56 40 58 43 87 32 40 33 41 59 88 29 37 31 89 33 41 33 41 60 90 59 88 59 88 60 90 39 91 61 92 40 53 39 52 62 93 40 53 61 92 10 94 63 95 40 96 11 97 62 98 64 99 11 97 64 99 65 100 11 12 10 11 62 101 10 94 66 102 63 95 10 94 12 13 66 102 63 103 66 104 43 87 66 104 44 61 43 87 12 13 45 62 66 102 53 71 9 10 17 105 53 71 52 70 9 10 51 69 50 68 52 70 50 68 30 67 52 70 26 31 25 30 35 48 58 84 67 106 11 12 64 107 68 108 65 109 43 87 40 58 63 103 58 83 65 100 22 82 11 97 65 100 58 83 23 28 14 110 24 29 67 106 58 84 46 63 12 13 67 106 45 62 45 62 67 106 46 63 69 111 70 112 71 113 27 114 26 31 35 48 64 115 61 116 30 38 49 66 68 108 30 67 38 49 25 30 59 88 14 15 26 33 24 32 35 48 25 30 38 49 29 37 28 86 6 7 72 117 50 118 51 119 72 117 51 119 69 111 32 120 72 117 28 121 72 117 69 111 28 121 69 111 71 113 28 121 28 121 71 113 7 122 8 20 7 122 71 113 8 20 71 113 70 112 17 18 8 20 70 112 17 18 70 112 53 123 59 88 25 30 32 40 42 59 44 61 21 26 23 77 68 124 56 76 61 116 31 39 30 38 6 7 9 10 29 37 0 125 5 125 1 125 5 126 47 126 1 126 1 127 47 128 2 129 2 129 47 128 4 130 47 128 48 131 4 130 18 132 4 130 48 131 48 131 55 133 18 132 18 132 55 133 73 134 73 134 55 133 54 135 18 136 73 137 72 138 73 137 54 139 50 140 50 140 72 138 73 137 72 138 32 141 18 136 44 61 66 104 45 62 48 65 16 17 15 16 64 99 62 98 61 142 29 37 9 10 52 70 25 30 18 143 32 40 38 49 59 88 39 91 52 70 30 38 29 37 31 89 60 90 33 41 60 90 31 89 61 144 70 112 69 111 51 119 51 119 53 123 70 112 54 145 49 66 50 68 57 146 19 85 58 84 16 17 26 33 14 15 65 147 23 77 22 148 39 91 60 90 61 144 3 149 48 65 2 2 2 2 48 65 5 6 40 96 62 150 10 94 49 66 54 145 56 76 68 124 49 66 56 76 64 107 30 67 68 108 3 149 16 17 48 65 67 106 12 13 11 12 23 77 65 147 68 124</p>
        </triangles>
      </mesh>
    </geometry>
  </library_geometries>
  <library_visual_scenes>
    <visual_scene id="scene">
      <node id="right_elbow_link">
        <instance_geometry url="#geometry">
          <bind_material>
            <technique_common>
              <instance_material symbol="scout_1a1a1a" target="#scout_1a1a1a" />
            </technique_common>
          </bind_material>
        </instance_geometry>
      </node>
    </visual_scene>
  </library_visual_scenes>
  <scene>
    <instance_visual_scene url="#scene" />
  </scene>
</COLLADA>