<?xml version='1.0' encoding='utf-8'?>
<COLLADA xmlns="http://www.collada.org/2005/11/COLLADASchema" version="1.4.1">
  <asset>
    <created>2026-09-14T00:00:00Z</created>
    <modified>2026-09-14T00:00:00Z</modified>
    <unit name="metre" meter="1" />
    <up_axis>Z_UP</up_axis>
  </asset>
  <library_effects>
    <effect id="scout_1a1a1a_effect">
      <profile_COMMON>
        <technique sid="common">
          <lambert>
            <emission>
              <color>0 0 0 1</color>
            </emission>
            <ambient>
              <color>0.05 0.05 0.05 1</color>
            </ambient>
            <diffuse>
              <color>0.1 0.1 0.1 1</color>
            </diffuse>
          </lambert>
        </technique>
      </profile_COMMON>
    </effect>
  </library_effects>
  <library_materials>
    <material id="scout_1a1a1a" name="scout_1a1a1a">
      <instance_effect url="#scout_1a1a1a_effect" />
    </material>
  </library_materials>
  <library_geometries>
    <geometry id="geometry" name="right_ankle_link">
      <mesh>
        <source id="positions">
          <float_array id="positions_array" count="249">-0.0297874454 -0.0144743724 -0.0628758371 -0.0988690481 -0.0139541142 -0.0685460567 -0.0492724963 -0.0135120265 -0.0689596385 -0.0733849257 -0.0133706033 -0.0454065092 -0.0454032198 -0.0100925965 -0.0292573869 -0.0465520695 0.0103673823 -0.0299748909 0.00743430108 0.00970395561 0.00815731939 -0.000841280271 -0.0100322012 0.0113165183 0.0116386786 -0.00991492718 0.00181609439 0.00392147945 -0.00731470902 0.00495971879 0.00596701587 2.77402287e-05 -0.00213165255 0.00527895289 -0.0110968063 -0.00656562718 -0.00164559018 0.00576736405 -0.00591933494 -0.0067051691 -0.000553983671 0.000515276042 -0.0113356011 -0.0103506092 0.00139537698 -0.00538406055 -0.00972053595 0.00562691083 -0.0783666596 0.0147589371 -0.0484689474 -0.0679517239 0.0104027502 -0.0419366062 0.125841275 0.0144825298 -0.0464097597 0.198787794 0.0319334641 -0.0564145148 0.19901529 -0.0313511118 -0.0572391897 0.198223546 0.0158327222 -0.0594265759 -0.0979442149 -0.0143498024 -0.0595788248 -0.0987840667 0.014041286 -0.059844099 -0.0460760891 0.0143291699 -0.0682885572 -0.0219674595 0.0142479902 -0.0601140745 -0.0094117457 0.0105263758 0.00228055287 0.0095947599 0.010478287 -0.00235254364 0.000188033431 0.0105440896 0.00983163808 0.0560954548 -0.0103613259 -0.0315796845 0.0227001254 -0.00990116969 -0.0324617028 0.0844671652 -0.0119250063 -0.044024799 -0.0185973812 -0.0103338193 -0.0128988018 -0.0243999325 0.0101991287 -0.0169552639 0.0234651398 0.00334598287 -0.0294329878 0.0233504325 -0.00342899119 -0.0291672871 0.0235374924 -0.00356521341 -0.0149616487 0.0240720008 -0.00977129582 -0.0152029889 0.0368960239 -0.0111994389 -0.0262883846 0.0296470039 -0.00469009299 -0.0207966287 0.0348136351 -0.00396982674 -0.0194237195 0.0319899805 -0.00478431536 -0.0153356148 0.0372805297 -0.00993048958 -0.0123966653 0.0557114743 -0.00196869508 -0.0306627303 0.0347784683 -0.00437176088 -0.00894340221 0.0552919284 0.0102357967 -0.0302497949 0.0828993097 -0.0144615155 -0.0673780218 0.0503816269 0.0143344151 -0.0571535565 0.0822343156 0.0142789697 -0.0675018653 0.0831581578 0.0104374774 -0.0434845872 0.0285777152 0.00321644451 -0.00900821481 0.0293893497 0.00448968727 -0.017106818 0.0330943428 0.00475953612 -0.015232807 0.126232222 -0.0149525749 -0.0458403304 0.130193293 -0.0188122522 -0.0411415361 0.154570132 -0.0340916552 -0.0444556996 0.152533844 -0.0321699791 -0.0411994457 0.130399466 0.0205271356 -0.0417597517 0.17616348 -0.0408564135 -0.0436962992 0.177009493 -0.0158355068 -0.0471847616 0.188879445 -0.038466163 -0.0515021682 0.0084054675 0.00994719379 -0.0360254943 0.00513056526 -0.0102337198 -0.0339199565 0.0241500251 0.00939532928 -0.0163077414 0.0235365089 0.0106862737 -0.031060325 0.0320993513 0.00415402325 -0.0214613359 0.0393976904 0.0105715822 -0.0222631972 0.0352410041 0.00981427822 -0.0101433313 0.0486331433 0.00399823114 -0.0238232594 0.0375701077 -0.0140649611 -0.0547282808 0.00119224703 0.0103353281 -0.0223370939 0.141043976 0.0262299888 -0.043901775 0.159611404 0.037411578 -0.0425241403 0.175917327 0.0409104116 -0.0437197536 0.199477106 0.014154681 -0.067693837 0.177003101 0.0157372728 -0.0471775569 -0.00448308093 -0.0143906875 -0.0561925657 0.00163410639 -0.0102887517 -0.0212320965 -0.0987699702 0.0138472365 -0.0687997267 0.0121426638 0.0142982556 -0.0542798676 0.198579833 -0.0154850055 -0.059543401 0.197868809 -0.0141616482 -0.0686470717 0.188306287 0.0386943445 -0.0512577556</float_array>
          <technique_common>
            <accessor source="#positions_array" count="83" stride="3">
              <param name="X" type="float" />
              <param name="Y" type="float" />
              <param name="Z" type="float" />
            </accessor>
          </technique_common>
        </source>
        <source id="normals">
          <float_array id="normals_array" count="720">-0.0058337464 -0.999634922 0.0263815764 -0.00324455719 -0.998636663 -0.0520986691 0.00727747101 -0.983834326 -0.178933129 -0.499703765 -0.00321599026 0.866190374 -0.506472707 0.00629224442 0.862233043 -0.500708997 -0.00175288401 0.865613878 0.378464639 -0.0105390111 0.925555766 0.524907053 -0.0845261291 0.84695214 0.601636648 -0.126013428 0.788767338 -0.979233325 0.17654638 -0.0996668413 -0.964257419 0.264939725 -0.00382399862 -0.980155766 0.122683048 -0.155703336 0.80053097 -0.0315587372 0.59845984 0.864590168 -0.24605228 0.438111931 0.870676577 -0.383908153 0.307468355 0.235739455 -0.941763222 -0.239810228 0.30376488 -0.906829536 -0.292210639 0.284159303 -0.917842984 -0.277160078 0.309658825 -0.428662419 -0.84874022 0.0611681268 -0.479382187 -0.875472009 0.309623063 -0.428672105 -0.848748386 -0.0045232242 0.828622043 0.559790194 -0.00439815084 0.826351285 0.563137829 0.0500223376 0.056153506 0.997168243 0.976211429 0.00633405847 -0.216728345 0.988749325 0.00967103057 -0.14926894 0.994793057 0.00789084658 -0.10160961 -0.994447887 -0.0284708831 0.10130579 -0.999815762 -0.00286429538 0.0189785063 -0.996404946 -0.0223740079 0.0817104653 0.174221486 0.00961661432 -0.984659553 0.254999429 -0.00257248827 -0.96693778 0.286304563 0.00717514753 -0.958111823 0.745760977 0.0767334327 0.661779821 0.142936051 -0.791226625 0.594583631 0.432872415 0.143634915 0.889938474 -0.729316473 -0.00247093849 0.684172094 -0.797474444 0.0649314448 0.599848688 -0.645120859 0.0478987992 0.762577772 0.595630109 0.266231865 -0.757855773 0.565590918 0.295138866 -0.77006495 0.55766803 0.302506 -0.772978961 -0.507069886 -0.10825716 0.855079234 -0.460176498 -0.0246764943 0.887484431 -0.583973706 -0.269133985 0.765860081 -0.200196207 -0.937656164 0.284116924 -0.00285216444 -0.997857213 0.0653673112 -0.0205964185 -0.991822183 0.125954479 -0.0361763835 -0.899643242 0.435124427 -0.730584741 -0.00695159519 0.682786703 -0.633788168 -0.0321250185 0.772839248 -0.994581699 -0.0125166615 0.103201911 -0.997538447 0.0338448323 0.0614131466 -0.994387686 0.0534350947 0.0913116336 -0.996811569 -0.0467859395 0.0646357313 -0.992881596 -0.0886089951 0.0795897916 -0.0976376161 -0.995105207 0.0152492551 -0.00143729022 -0.998612285 -0.0526440926 0.657029152 0.101460837 0.747006238 0.0665364265 -0.96448946 0.255603135 0.0113603482 -0.902429581 0.430687517 -0.0444042496 -0.806154609 0.590036392 0.138953492 0.987247169 -0.0776849836 -0.00907819439 0.999108374 -0.041231297 0.140741035 0.98909837 -0.043317534 0.5151546 -0.824182987 -0.235240534 0.192373589 -0.330014855 -0.924165905 -0.0908950269 -0.699360073 0.708966553 -0.944091082 -0.324926287 0.0558119453 0.0678780079 -0.993725538 0.0888939127 0.721714437 -0.0424634032 0.690887213 0.712037563 -0.0950249434 0.695681512 0.720252454 -0.0511938781 0.691820502 -0.265303612 -0.457707137 0.848597765 -0.399794281 -0.234506607 0.886098862 -0.17658554 -0.575530112 0.798487723 -0.466374159 -0.748598218 -0.471270502 -0.0334697999 0.999217272 -0.0210873354 -0.0579831116 0.996833086 0.0544219874 0.707959533 -0.114302918 0.696941972 0.988402009 0.028931722 0.149078533 -0.150223777 0.00326468842 -0.988646626 -0.20822528 -0.00516152754 -0.978067279 -0.163384587 -0.00508415233 -0.986549377 0.136641264 0.259113044 0.95613265 0.418334365 -0.0246211924 0.907959342 0.221409678 -0.00207919674 0.975178659 0.249196053 -0.96022284 -0.125989676 0.253669351 -0.964402795 -0.07469327 0.142094463 -0.979928136 -0.139821306 0.0448617376 0.0199177749 0.998794615 -0.539787591 -0.818670154 -0.195980847 -0.53951329 -0.814306855 -0.214078799 -0.362190336 -0.889175475 0.279616028 -0.450187534 -0.863341153 0.227976322 -0.942041397 0.328459799 0.0683533549 -0.723492265 0.0146377319 0.690177262 -0.726718843 0.0136814276 0.686798751 -0.756067574 0.00473112706 0.654476464 -0.763622463 0.00234845164 0.645658791 -0.291682631 -0.892416596 0.344258517 -0.276337415 -0.11497011 -0.954159081 -0.483686835 -0.107110113 -0.868662477 -0.26769039 -0.124162413 -0.955471396 -0.21163471 0.0230174195 0.977077782 -0.0843453407 0.116930313 0.989552021 -0.180560395 0.0463652238 0.982470453 0.227654755 -0.945318878 -0.233549863 -0.465336591 -0.632610083 -0.619085133 -0.934232652 -0.302879304 0.188344181 -0.897615433 -0.380634248 0.22227025 -0.99825418 0.0218694918 0.0548660159 0.04324615 -0.982994258 0.178471327 0.665573418 0.651554823 0.363989502 0.366686761 -0.307292163 0.878130019 -0.00113674521 -0.999401987 0.03456036 -0.042073302 0.995157599 0.0888321549 0.0265634675 0.998594999 0.0458526798 0.00421206048 0.993379116 -0.114805162 -0.421562821 0.549807429 0.7211079 0.374325007 0.548926473 -0.747369051 0.376004636 0.553073943 -0.743457913 0.358347684 0.510088921 -0.781918287 -0.36299625 0.9312222 -0.0325418897 -0.578640163 0.81133467 -0.0831364766 -0.593889117 0.804374099 0.016674079 -0.734629393 0.670379937 -0.104452714 0.0443986468 0.0383986458 0.998275638 0.063109979 0.994483471 0.083784312 0.00372198783 0.999992013 0.00144874072 0.38270089 0.569746017 -0.727275431 -0.787275016 0.570322931 -0.234371126 0.576072156 -0.378090322 0.724698961 0.547411978 -0.429247916 0.718391538 0.694445014 -0.0594970845 0.717081726 -0.116974622 0.00795176346 -0.993103087 0.699604154 -0.0107536931 0.714449704 0.694669127 -0.00045821711 0.719329298 0.937081516 -0.0169387907 0.34869951 0.879654706 -0.0941067487 0.466209769 0.916944623 -0.0475281365 0.396173805 0.533239067 0.324592501 -0.781214297 -0.493896425 0.845261157 -0.203960538 0.297180682 0.0192255899 0.954627693 0.0675421655 0.00796440057 0.997684658 0.329740345 -0.00835546479 0.944034696 -0.129040286 0.967826426 -0.216010794 -0.0620828122 0.987600744 -0.144189134 -0.0122273527 0.996878803 -0.0779942423 -0.474843204 -0.0749960095 0.876869142 0.137548566 0.985345244 0.100872099 0.00272517884 -0.996022522 0.0890603215 -0.00255201198 -0.999884546 -0.0149777513 0.00486343959 -0.990429699 0.13793236 0.428887695 -0.0415334515 0.90240252 -0.00119757676 -0.99998349 -0.00561821461 -0.00534859579 -0.974549115 0.22411032 0.00448694965 -0.999842644 -0.0171636268 0.0100801354 -0.990209997 0.139221355 -0.0232127998 -0.999601901 -0.0160379317 0.193976521 -0.975692987 -0.101962112 -0.00893311948 0.999725163 -0.0216758959 -0.00994474813 0.999558568 -0.0279959161 0.00332525745 0.999875963 -0.0153950145 0.143588588 0.00181624712 -0.989635825 -0.00985356327 -0.999921739 -0.00770508917 -0.00716855144 -0.99937582 -0.0345908105 -0.0159624983 -0.999841809 0.0078480076 -0.00249562552 0.00132956705 -0.999996006 -0.00825698581 -0.00909426063 -0.999924541 0.355252713 -0.924345911 -0.139212534 0.0499025881 -0.00576528674 -0.998737454 -0.685795128 0.0864555389 0.722641289 0.99628818 -0.00550450617 -0.08590471 0.000713245652 0.999971986 -0.00745314313 0.000413456582 0.999890149 -0.0148167321 -0.00376738654 0.999948859 -0.00938298274 -0.00373485079 0.999964535 0.00754609983 0.00215192582 0.999507546 0.0313054547 0.00549114496 0.999957383 -0.00742473593 -0.00160087773 0.0337354951 -0.999429524 -0.00301044178 0.0280112773 -0.999603093 0.152985767 0.0119843176 -0.988155723 -0.999992371 0.00354861165 -0.00165092014 0.569088697 -0.33638972 -0.750319898 -0.042199593 -0.873246849 0.485447347 -0.0544040725 0.995613933 0.07611233 0.00209886045 0.998594463 0.0529596657 0.0394388363 0.999180913 0.00906215608 0.000992352492 -0.989587486 -0.143929064 -0.00110719725 -0.993543625 -0.113445386 0.0138032194 -0.971955597 -0.234759048 0.0165932439 -0.964954615 -0.261891663 -0.00496221939 0.99985981 0.015990559 0.00562198507 0.99997431 0.0044433414 -0.508905232 -0.00933025219 0.860771954 -0.503749251 0.00483139977 0.863836408 -0.493296713 0.00107183028 0.86986047 -0.499603778 -0.00668537943 0.866228223 -0.309066325 -0.0520836115 0.949613214 0.00182346138 0.998904705 -0.0467554219 -0.0206055287 0.999265373 0.0323135592 -0.00123467599 0.999986172 -0.00511422241 -0.00265360065 0.999955833 -0.00901924539 -0.109905824 -0.802529097 0.586402416 -0.0841161087 -0.89890635 0.4299905 0.967821598 0.139773279 0.209248155 0.052224949 0.0133649791 0.998545885 0.0140680792 0.0172240902 0.9997527 0.0171316434 0.0156209311 0.999731183 -0.791542709 0.00123799697 -0.611112595 -0.0213319361 -0.122114368 -0.992286742 -0.0282717645 -0.113707557 -0.993111908 -0.469524175 -0.10841433 -0.876238167 -0.410164475 -0.142090857 -0.900874734 0.231178164 0.0585181676 0.971149981 0.919592321 0.00584428012 -0.392830551 0.919276118 0.00478227669 -0.393584192 0.921720564 0.0131428586 -0.387631804 0.963438332 0.0348741971 0.265650868 -0.352997869 0.142084405 0.92477268 0.917316914 -0.00167934084 -0.398154318 0.994039714 -0.000115233124 0.109018669 -0.02095378 -0.996497869 -0.0809505135 -0.314306855 0.108184807 -0.94313693 -0.127740324 -0.130841747 -0.983139277 -0.104955994 -0.0496055111 -0.993238926 -0.301974624 0.116934709 -0.946117103 -0.0617586151 0.161893919 -0.984873712 0.514708102 -0.0160800256 0.857214689 0.496005028 0.0190696586 0.86811024 0.532216132 -0.0784685984 0.842964232 0.535247564 0.204737037 0.819507658 -0.0270011872 0.622226119 -0.782371759 0.994893849 -0.0536288545 -0.0854998827 -0.470130771 0.112675928 -0.875374913 -0.451821595 0.119875409 -0.884017587 -0.335440606 0.184576482 -0.923802555 0.00387746817 0.999677837 -0.0250832438 -0.0083864294 0.999286294 -0.0368318558</float_array>
          <technique_common>
            <accessor source="#normals_array" count="240" stride="3">
              <param name="X" type="float" />
              <param name="Y" type="float" />
              <param name="Z" type="float" />
            </accessor>
          </technique_common>
        </source>
        <vertices id="vertices">
          <input semantic="POSITION" source="#positions" />
        </vertices>
        <triangles material="scout_1a1a1a" count="174">
          <input semantic="VERTEX" source="#vertices" offset="0" />
          <input semantic="NORMAL" source="#normals" offset="1" />
          <p>0 0 1 1 2 2 3 3 4 4 5 5 6 6 7 7 8 8 9 9 10 10 11 11 12 12 13 13 14 14 7 15 14 16 15 17 13 18 9 19 15 20 16 21 17 22 18 23 19 24 20 25 21 26 22 27 23 28 1 29 24 30 25 31 0 32 12 12 26 33 13 13 12 34 27 34 26 34 11 35 12 35 14 35 26 36 14 37 28 38 26 39 28 40 13 41 10 42 12 43 11 44 8 45 9 45 11 45 29 46 30 47 31 48 32 49 26 36 33 50 34 51 30 52 35 53 36 54 30 52 37 55 36 54 35 53 30 52 37 56 30 47 38 57 38 58 39 58 37 58 36 59 39 60 40 61 36 62 41 63 39 64 41 65 37 65 39 65 37 66 41 66 42 66 40 61 39 60 38 67 40 68 38 68 42 68 29 46 42 69 38 57 43 70 44 71 29 72 44 73 37 74 42 75 42 76 41 76 40 76 44 77 40 78 41 63 44 71 42 79 29 72 29 80 45 80 43 80 46 81 47 82 48 83 49 84 29 85 31 86 50 87 51 88 52 89 31 86 53 90 18 23 54 91 53 92 55 93 56 94 54 91 55 93 9 9 27 95 10 10 57 96 18 97 54 98 54 98 18 97 53 99 58 100 56 94 55 93 59 101 60 102 58 103 14 37 26 36 32 49 61 104 62 105 30 106 7 15 15 17 9 107 8 108 7 108 9 108 63 109 34 51 50 110 63 109 64 111 34 51 51 88 50 87 34 112 63 113 51 113 65 113 66 114 63 114 65 114 65 115 51 88 34 112 63 116 66 117 64 118 63 119 50 119 67 119 63 120 52 121 51 122 50 123 52 124 65 125 52 124 66 126 65 125 43 127 34 127 35 127 67 128 45 129 66 117 63 120 67 130 52 121 67 131 66 126 52 124 67 132 50 133 68 134 47 82 46 81 69 135 45 136 68 134 43 137 62 138 61 139 70 140 13 41 28 40 9 141 71 142 57 142 72 142 73 143 56 144 58 145 21 146 74 147 75 148 37 74 44 73 36 149 6 150 27 150 28 150 0 0 3 151 22 152 0 0 76 153 3 151 33 50 5 5 4 4 49 84 45 154 29 85 33 50 4 4 32 49 32 155 62 156 77 157 3 151 62 156 4 158 4 158 62 156 32 155 14 159 32 155 77 157 77 157 11 160 14 159 3 151 31 48 30 47 78 161 23 162 24 163 0 32 2 164 24 30 46 165 59 166 53 167 78 168 24 30 2 164 1 169 78 168 2 164 8 170 11 160 77 157 79 171 47 82 69 135 3 151 30 47 62 156 22 152 1 1 0 0 14 37 7 172 28 38 80 173 21 26 20 25 27 174 70 175 26 176 26 176 70 175 33 177 70 175 61 178 5 179 5 179 33 177 70 175 48 83 74 180 81 181 81 181 46 81 48 83 25 31 76 182 0 32 78 183 1 29 23 28 15 20 14 184 13 18 41 63 36 62 44 77 53 185 31 48 76 153 31 48 3 151 76 153 38 57 30 47 29 46 43 186 35 187 40 78 40 78 44 77 43 186 35 187 36 188 40 78 46 165 81 189 80 190 80 190 59 166 46 165 46 165 53 167 69 191 53 167 76 192 69 191 49 193 17 194 61 178 61 178 17 194 5 179 17 195 16 196 3 3 3 3 16 196 23 197 23 197 22 198 3 3 3 3 5 5 17 195 30 106 64 199 61 104 79 200 18 201 47 202 18 201 75 148 48 203 47 202 18 201 48 203 48 203 75 148 74 147 34 112 43 204 68 205 8 206 27 206 6 206 18 23 49 84 31 86 56 144 72 207 54 208 72 207 57 209 54 208 9 210 28 210 27 210 76 182 25 31 79 171 55 211 59 101 58 103 53 212 59 101 55 211 59 101 80 213 60 102 80 213 20 214 60 102 6 6 28 215 7 7 8 216 70 217 27 218 30 52 34 51 64 111 77 219 62 138 70 140 10 42 27 220 12 43 8 216 77 221 70 217 80 173 74 222 21 26 34 112 68 205 65 115 68 205 50 223 65 115 17 22 49 84 18 23 45 136 67 132 68 134 69 135 76 182 79 171 73 143 72 207 56 144 49 193 61 178 45 129 61 178 64 118 45 129 64 118 66 117 45 129 75 224 57 225 71 226 73 227 75 224 72 228 71 226 72 228 75 224 20 229 19 230 58 145 60 231 20 229 58 145 58 145 19 230 73 143 19 230 82 232 73 143 18 233 57 233 75 233 74 222 80 173 81 234 73 227 82 235 75 224 21 236 75 224 82 235 21 236 82 235 19 237 25 238 24 163 16 239 24 163 23 162 16 239 16 239 18 201 79 200 25 238 16 239 79 200</p>
        </triangles>
      </mesh>
    </geometry>
  </library_geometries>
  <library_visual_scenes>
    <visual_scene id="scene">
      <node id="right_ankle_link">
        <instance_geometry url="#geometry">
          <bind_material>
            <technique_common>
              <instance_material symbol="scout_1a1a1a" target="#scout_1a1a1a" />
            </technique_common>
          </bind_material>
        </instance_geometry>
      </node>
    </visual_scene>
  </library_visual_scenes>
  <scene>
    <instance_visual_scene url="#scene" />
  </scene>
</COLLADA>