<?xml version='1.0' encoding='utf-8'?>
<COLLADA xmlns="http://www.collada.org/2005/11/COLLADASchema" version="1.4.1">
  <asset>
    <created>2026-09-14T00:00:00Z</created>
    <modified>2026-09-14T00:00:00Z</modified>
    <unit name="metre" meter="1" />
    <up_axis>Z_UP</up_axis>
  </asset>
  <library_effects>
    <effect id="scout_1a1a1a_effect">
      <profile_COMMON>
        <technique sid="common">
          <lambert>
            <emission>
              <color>0 0 0 1</color>
            </emission>
            <ambient>
              <color>0.05 0.05 0.05 1</color>
            </ambient>
            <diffuse>
              <color>0.1 0.1 0.1 1</color>
            </diffuse>
          </lambert>
        </technique>
      </profile_COMMON>
    </effect>
  </library_effects>
  <library_materials>
    <material id="scout_1a1a1a" name="scout_1a1a1a">
      <instance_effect url="#scout_1a1a1a_effect" />
    </material>
  </library_materials>
  <library_geometries>
    <geometry id="geometry" name="right_hip_pitch_link">
      <mesh>
        <source id="positions">
          <float_array id="positions_array" count="234">-0.0216117818 -0.0207872279 -0.392010897 -0.0115397237 -0.020785287 -0.426135033 -0.000426668383 -0.0290421117 -0.434745014 -0.00724895624 -0.0280660763 -0.336335272 -0.00504264981 -0.0186746605 -0.107826926 -0.0538071729 -0.0234219767 -0.029049322 -0.0230497159 -0.0174356233 -0.0701826662 -0.0190702081 0.0294895358 -0.403743178 -0.0140381409 0.0207002163 -0.42474097 -0.0193955749 0.019721901 -0.389341503 -0.00578897819 0.0292362869 -0.338990629 0.00902563054 0.028244555 -0.442961127 0.0163586065 0.0266849156 -0.448713243 -0.00317817624 0.0205844957 -0.299846143 -0.0543015376 0.0464312658 -0.0303617697 -0.0235371236 0.0500918217 -0.0483313985 -0.0192954671 0.0468139574 -0.0618103296 -0.0486991182 0.0505042262 -0.0226336885 0.00105076481 0.0247875433 -0.155575499 -0.00357327284 0.0209846832 -0.115534484 -0.000534248713 0.0464510918 -0.118071467 0.025040023 0.0456497036 -0.0587807484 -0.0529886708 0.0472045951 0.0225689821 -0.0537130907 -0.0260576885 0.027266765 -0.0290502757 0.0474617854 0.0486517251 -0.0501056798 0.0942263752 -0.0255596228 0.0220928229 -0.0278938208 -0.440742671 0.0226461738 -0.0253975913 -0.41591385 -0.0034231029 0.0233900975 -0.397885978 0.00296786893 0.0236891396 -0.397617102 0.0222780481 0.0267965123 -0.377701223 0.0542476214 0.0267546065 -0.384074152 0.0550391525 -0.0265479069 -0.421990663 0.0541275367 -0.0261499006 -0.383819878 0.0578817949 0.0458331443 0.0266413316 0.0115060387 0.0474239551 0.0566114709 0.0415771529 -0.0256453715 0.0420271866 0.000436549366 -0.0302656852 -0.0191516969 0.0581505299 -0.0185948238 -0.0944550037 0.0587048195 -0.02573408 0.00375420437 0.0190071519 0.0261415802 -0.433211148 0.0257473085 0.0286467802 -0.438650995 0.0398566984 0.0286181364 -0.439068496 0.0309199393 0.0284745172 -0.43479389 -0.00314069446 -0.0254083835 -0.402243733 0.0049239262 -0.0298080407 -0.400578916 0.00514167594 -0.0202290658 -0.400168955 0.0533931553 0.0257640835 -0.422296673 0.0369029939 0.0301135778 -0.431528598 0.0581255704 0.0268902257 -0.409566998 -0.0143408747 0.0939650536 -0.054150641 0.0337373577 0.0941647515 -0.0449428223 0.0108175417 0.0505949892 -0.0525290631 0.0412808619 0.050601881 -0.0350517444 0.0560544543 0.034416955 -0.136880964 0.0554388203 0.0234933309 -0.145730779 0.0534505025 0.0457676575 -0.0358226635 -0.020282317 0.0924678892 0.052068036 0.0477517545 0.048546575 0.0259430185 0.00255635963 -0.0217439756 -0.358356386 0.00346010551 0.021793237 -0.358573109 0.016388623 0.0925900489 0.053242024 -0.0024652991 -0.0190702379 -0.294784576 0.0233570598 -0.0270053707 -0.376969934 -0.0524443164 0.0920001343 0.0220219605 -0.0274795275 0.0218121111 -0.0596968681 -0.0118577145 0.0223038252 -0.0886761472 0.054713916 0.093075417 -0.00805786718 -0.00535441516 -0.023743717 0.0612614229 0.0228045359 0.0252300166 -0.415590346 0.00279348367 0.0268116686 -0.403081745 0.0578584857 0.0221358314 -0.298465759 0.0530227199 -0.029473193 -0.330510288 7.61018891e-05 -0.0254620034 -0.396086901 0.0548272803 0.0495673753 -0.0753112808 0.0571730621 0.0237757917 -0.0314810611 0.0579883866 -0.0196759813 -0.29041478 0.0482144244 0.0916930437 0.0292602405</float_array>
          <technique_common>
            <accessor source="#positions_array" count="78" stride="3">
              <param name="X" type="float" />
              <param name="Y" type="float" />
              <param name="Z" type="float" />
            </accessor>
          </technique_common>
        </source>
        <source id="normals">
          <float_array id="normals_array" count="606">-0.424111634 -0.904915869 -0.0354489908 -0.67966485 -0.705546081 -0.200650036 -0.567758024 -0.813761652 -0.124268956 -0.394763738 -0.918601274 -0.0182563271 -0.530151367 0.800358057 -0.279940307 -0.969571233 -0.191873968 -0.152039483 -0.955735743 0.193505436 0.221641243 -0.9840433 0.0517166965 0.170247242 -0.929825723 0.313978225 0.1919422 -0.618236721 -0.00811376516 -0.785950065 -0.5689044 0.701142073 -0.429822654 -0.998928607 0.00397911854 0.0461065061 -0.984268904 0.0245234463 0.174966484 -0.378029734 0.902605951 -0.205903009 -0.196634382 0.937296331 -0.287768155 -0.0371272899 0.988111556 -0.14918825 -0.481623739 0.869556248 -0.109135538 -0.988740206 0.10763447 -0.103959799 -0.983257234 0.0484065153 -0.175675943 -0.97030735 0.093571566 -0.223042697 -0.015067731 0.985590994 0.168473467 -0.590602517 0.806957543 0.00285924319 -0.623897851 -0.0179677512 0.781299353 -0.505544722 0.0312605388 0.862233877 -0.736489117 0.0337463394 0.675607085 -0.664999485 -0.0150580527 -0.746692002 -0.456415951 -0.0598707311 -0.88774997 -0.713339984 -0.0696161166 -0.697351933 -0.244164258 0.522947967 -0.816645145 0.167425156 0.984107912 0.0591645949 0.107444607 0.994182765 -0.00750367483 0.0947112441 0.990299165 -0.101673022 0.241817325 -0.969869733 -0.0296155699 0.0706983283 -0.993740201 0.086499691 0.101251416 -0.994860888 0.000152660141 -0.999831498 -0.0178620927 0.00423810072 -0.999924183 -0.0111871082 -0.00514749484 -0.99971205 0.00215416634 -0.0238981619 0.88868475 0.0277837086 0.457676113 0.0863898993 0.046688024 0.995166838 0.676426411 -0.0496798307 0.734832823 -0.650779665 0.759260535 -0.00304355659 -0.0087235067 -0.999131918 -0.0407351032 0.0326373652 -0.997661591 -0.0600511283 0.0831459984 -0.996433675 -0.0143775176 0.179614499 -0.983364999 0.0270529613 0.198525995 -0.977720797 -0.0681868121 0.156907544 -0.984299123 -0.0808411166 0.254380316 -0.958812058 -0.12637271 -0.00528395688 0.999810815 -0.0187204592 0.079695262 0.986587882 -0.142453596 0.00842136517 0.998864532 -0.0468901433 -0.0400876999 0.997930288 -0.0502806418 -0.221191019 -0.0366802886 0.974540472 -0.483765095 0.0229211506 0.874897659 0.0184915308 0.970690548 -0.239620417 -0.368224412 -0.794821382 0.482358545 -0.377565473 -0.778757513 0.500980079 -0.379781604 -0.774798393 0.505424023 0.0900851861 0.983049035 -0.159685001 0.209681004 -0.921790123 -0.326093346 0.379384965 0.907202303 -0.181799322 0.493612409 0.830839515 -0.257006764 -0.250117004 0.011823019 -0.968143404 0.585630238 0.0150449295 -0.810438693 0.19570981 -0.0518290028 -0.97929126 -0.0271060579 0.753076553 -0.657374322 0.291690588 0.876661181 -0.382598758 0.169676855 0.903730631 -0.393040329 0.670501292 -0.0519328006 -0.740088522 0.116591103 0.843606412 -0.524151504 0.154399753 0.616677225 -0.771926105 0.0405512154 0.834675908 -0.54924655 0.317052603 0.86142081 -0.396776736 -0.999241769 -0.0313057043 0.0231493711 -0.376248598 0.0504340231 0.92514509 0.243293554 0.953738332 0.176610991 0.252379358 0.963937163 0.0844379961 0.259940594 0.96542865 -0.0194527656 0.81183064 -0.0197569262 -0.583558679 0.807786345 -0.0128389038 -0.589335501 0.807489872 -0.0123369992 -0.589752376 0.80289501 -0.00464466121 -0.596102417 -0.0513424948 -0.998224616 0.0301918909 -0.110024251 -0.990546584 -0.0819274709 0.0617039949 -0.604438126 -0.794258893 0.0429057181 0.997507989 0.0560079888 0.0822823495 0.993255436 -0.0816901177 0.267456472 0.962214351 -0.0510941818 -0.0321597643 0.0778129399 0.996449172 -0.998683393 -0.011574572 0.0499750562 -0.0302681066 0.999479711 -0.011144286 0.0131159145 0.999663413 -0.0223829038 0.105215944 0.994254172 0.0197029989 -0.995542705 0.0109540233 -0.0936734304 -0.99727869 -0.0116717098 -0.0727942809 -0.997362554 -0.0132151265 -0.0713671222 -0.718657136 0.0439486131 -0.693974435 -0.799516916 0.0962126032 -0.5928877 -0.776258886 0.0250172559 -0.629917681 -0.975588262 0.0267009679 -0.217978343 0.227130592 0.925749779 0.302322805 -0.928302288 0.0521085821 -0.368157029 -0.857261181 0.0530021451 -0.512146473 0.86910522 0.0385321938 -0.493124127 -0.816770315 0.166828752 -0.552317321 -0.705540836 0.0519866049 0.70675993 -0.00773294596 -0.997864008 -0.0648664907 -0.99988538 0.000529056881 0.0151311215 -0.9996683 -0.0066071297 0.0248917826 -0.999931693 0.00341780204 0.011179327 -0.999947488 0.0100246808 0.00213969988 0.023081962 -0.997960806 0.0595104955 -0.00794863049 -0.996830225 0.0791600794 0.203121006 -0.978313386 -0.0405551717 0.0565402806 -0.998255372 0.017011987 0.245594949 -0.965924025 0.0816942081 -0.349901199 -0.818132639 -0.456320167 0.988218307 0.137536123 0.0671444684 -0.107579626 -0.0126723554 0.99411571 0.0138478326 0.999818981 -0.0130489403 0.0157818105 0.999062121 0.0403220989 -0.027552465 0.994547069 0.100583315 0.050206095 -0.998397231 -0.0261223204 0.0545780063 -0.998215139 -0.0242448058 -0.219375834 -0.975531876 0.0145520456 -0.0316499881 -0.999346733 -0.0174466018 -0.0288501848 -0.996041298 0.0840799585 -0.0303854402 -0.99874562 -0.0397980623 -0.0345772989 -0.992406309 0.118043013 0.378680319 -0.426557899 0.821370542 0.00984318275 -0.999055028 -0.0423337705 0.0539450236 -0.997862816 -0.0368752703 -0.487148374 -0.871473134 0.0567536391 -0.998081863 -0.0355027802 -0.0507168695 0.228176802 -0.96045047 -0.159594148 0.216245845 -0.67579788 -0.704652369 0.0182935931 -0.999825358 0.0038175974 0.0139575778 -0.999310136 0.0344162621 0.186621815 -0.979740322 -0.0726718828 -0.966513336 0.0361354053 0.254059404 0.143672764 0.498054504 -0.855160713 0.994786084 0.101767026 0.00664332556 0.985984564 0.166836113 -0.000311296899 0.996994078 0.076237455 -0.0138095953 0.999574423 -0.0259973947 -0.013233182 -0.0217965115 -0.993924201 0.107886851 -0.0183764268 -0.993011832 0.116575368 0.999446273 -0.0332213752 -0.00185995782 0.884308517 -0.466880798 0.00456262659 0.995397687 -0.0657391176 -0.069726415 0.985452056 -0.0371106602 0.165852383 0.998913646 -0.0441006944 -0.0150538757 0.00242512976 0.999803007 -0.0196990184 0.310658902 0.949929297 0.0335466005 -0.655849457 0.047153458 -0.753417611 0.0295871776 0.966967106 -0.253178179 0.990271807 -0.0629524067 0.124091856 0.995539308 -0.0177990291 0.0926532522 0.990158141 -0.063704662 0.124613531 -0.450743914 -0.0107783265 -0.892588258 -0.66538769 0.0100965509 -0.746429741 -0.696816385 -0.0137675256 -0.717117369 -0.461824238 -0.0166188888 -0.886815786 0.936177194 0.0274065472 -0.350458413 0.98744607 -0.0135567021 -0.157373637 -0.323729604 -0.859401941 0.395761818 0.008354499 0.999635756 -0.0256634261 0.111950658 0.968728483 0.221432239 0.0779181272 0.787267327 0.611669004 0.0667484552 0.956907153 0.282618701 0.0111045912 0.99421972 0.106788501 -0.431461662 0.733878851 0.524654806 0.0566629879 0.867634594 0.493963063 -0.101044722 0.655504346 -0.748400986 -0.0790698603 0.992545009 0.0927489698 0.00902008265 0.999316812 0.03584015 -0.00819813088 0.999729514 0.0217651539 0.00309701706 0.999823272 0.0185431261 -0.00193855155 0.999931276 -0.0115625672 -0.0104512451 0.999906659 0.00880237762 0.00660524843 0.999905646 0.0120468345 0.0172263347 0.999541044 0.0249182116 0.06436342 0.996765077 0.0481325798 -0.209460452 -0.0130091924 -0.977730572 -0.195503473 -0.00426971028 -0.980693698 0.147807658 0.988995075 -0.0064484938 0.202521801 0.979262352 -0.00549519341 0.195334449 0.979493916 0.0493569821 0.225557134 0.973490238 -0.0379568823 -0.314770877 0.740979195 -0.593185604 0.182444409 0.97787112 -0.102382019 -0.375222445 0.768043816 0.518957436 0.167249724 0.980028868 -0.107568122 0.152878657 0.982450306 -0.106862053 0.62493521 -0.0363935418 0.779827893 0.625425339 -0.0370623097 0.779403329 0.645726442 -0.0654137507 0.760761678 0.601696908 -0.00546064787 0.798705816 0.999989629 0.00436471868 0.00128914369 0.999794662 0.0202400163 0.000995638431 0.978396654 -0.123453461 0.165828899</float_array>
          <technique_common>
            <accessor source="#normals_array" count="202" stride="3">
              <param name="X" type="float" />
              <param name="Y" type="float" />
              <param name="Z" type="float" />
            </accessor>
          </technique_common>
        </source>
        <vertices id="vertices">
          <input semantic="POSITION" source="#positions" />
        </vertices>
        <triangles material="scout_1a1a1a" count="164">
          <input semantic="VERTEX" source="#vertices" offset="0" />
          <input semantic="NORMAL" source="#normals" offset="1" />
          <p>0 0 1 1 2 2 2 2 3 3 0 0 4 4 5 4 6 4 7 5 8 5 9 5 9 6 10 7 7 8 11 9 12 9 8 9 7 10 11 10 8 10 13 11 10 7 3 12 14 13 15 14 16 15 17 16 15 14 14 13 18 17 19 18 20 19 15 14 21 20 16 15 14 13 22 21 17 16 23 22 24 23 22 24 25 25 15 26 17 27 1 28 26 28 2 28 1 29 27 30 26 31 28 32 29 33 30 34 31 35 32 36 33 37 34 38 35 39 36 40 18 41 13 41 19 41 37 42 38 43 39 44 8 45 12 46 40 47 41 48 40 47 12 46 41 49 42 50 11 51 41 49 43 52 42 50 44 53 45 53 46 53 47 54 48 54 43 54 11 51 42 50 12 55 47 56 41 57 12 58 48 59 42 50 43 52 42 60 47 60 12 60 48 59 49 61 42 50 49 61 47 62 42 50 50 63 51 64 52 65 52 66 53 67 21 68 51 64 53 69 52 65 54 70 55 71 18 72 53 67 56 73 21 68 31 35 47 74 32 36 24 23 35 39 57 75 58 76 34 77 56 78 59 79 0 80 60 81 60 81 0 80 9 82 23 83 5 84 37 42 29 85 28 85 7 85 10 86 29 87 7 88 52 65 15 26 50 63 35 39 61 89 57 75 13 11 3 12 62 90 50 63 15 26 25 25 33 91 32 92 63 93 63 93 32 92 27 30 26 31 27 30 32 92 22 94 64 95 17 96 14 97 65 98 5 99 62 90 4 100 13 11 4 100 19 18 13 11 35 101 34 77 58 76 4 100 66 102 19 18 6 103 66 102 4 100 53 69 51 64 67 104 14 97 16 105 65 98 64 106 22 24 24 23 4 107 37 42 5 84 19 18 16 105 20 19 22 108 14 109 5 110 5 110 23 111 22 108 36 112 68 113 23 83 9 114 8 45 28 32 8 45 69 115 70 116 69 115 30 34 29 33 70 116 28 32 8 45 29 117 70 117 69 117 44 118 3 118 2 118 23 22 68 119 24 23 57 75 64 106 24 23 18 120 71 121 13 122 24 23 68 119 35 39 26 123 32 124 45 125 26 123 45 125 2 126 3 127 32 128 72 129 45 130 32 130 73 130 32 128 3 127 73 131 3 127 44 132 73 131 45 125 44 133 2 126 25 134 17 96 64 95 40 47 41 48 48 135 48 136 47 136 40 136 47 137 31 138 69 115 40 47 47 137 69 115 31 138 30 34 69 115 69 115 8 45 40 47 65 98 6 103 5 99 30 34 60 139 9 114 28 32 30 34 9 114 10 7 9 6 3 12 3 12 9 6 0 140 53 141 67 141 56 141 74 142 56 143 75 144 75 144 54 145 74 142 37 42 4 107 38 43 76 146 62 147 3 127 76 148 72 149 32 150 34 38 39 151 75 144 54 145 75 144 55 152 36 112 37 42 39 44 21 20 74 153 16 15 68 119 36 40 35 39 19 18 66 102 16 105 71 121 10 86 13 122 46 154 63 93 27 30 46 155 45 155 73 155 74 153 20 156 16 15 77 157 58 158 56 159 63 160 59 161 60 162 30 163 63 160 60 162 32 150 47 164 49 165 41 57 47 56 43 166 37 42 36 112 23 83 29 87 10 86 49 167 7 168 28 169 70 170 11 51 7 168 70 170 11 51 70 170 41 49 41 49 70 170 49 171 41 172 49 172 48 172 70 170 29 173 49 171 10 86 71 121 49 167 6 103 65 98 66 102 18 72 20 156 54 70 15 174 52 66 21 68 74 153 21 20 56 175 25 176 64 177 51 178 50 179 25 176 51 178 64 177 57 180 51 178 57 180 61 181 67 182 51 178 57 180 67 182 67 182 61 181 77 183 38 43 4 107 76 146 4 107 62 147 76 146 63 160 30 163 33 184 30 163 31 185 33 184 55 186 75 187 71 121 55 186 71 121 18 120 27 30 1 29 44 188 44 188 1 29 0 189 46 190 27 190 44 190 73 191 44 188 0 189 46 192 73 192 63 192 59 193 63 194 73 191 59 193 73 191 0 189 77 195 35 196 58 197 35 196 77 195 61 198 20 156 74 153 54 70 16 105 66 102 65 98 75 144 56 143 34 38 76 146 3 127 72 129 76 148 32 150 49 165 76 148 49 165 71 199 71 199 75 144 38 200 38 200 75 144 39 151 76 148 71 199 38 200 34 38 36 40 39 151 67 201 77 157 56 159</p>
        </triangles>
      </mesh>
    </geometry>
  </library_geometries>
  <library_visual_scenes>
    <visual_scene id="scene">
      <node id="right_hip_pitch_link">
        <instance_geometry url="#geometry">
          <bind_material>
            <technique_common>
              <instance_material symbol="scout_1a1a1a" target="#scout_1a1a1a" />
            </technique_common>
          </bind_material>
        </instance_geometry>
      </node>
    </visual_scene>
  </library_visual_scenes>
  <scene>
    <instance_visual_scene url="#scene" />
  </scene>
</COLLADA>