<?xml version='1.0' encoding='utf-8'?>
<COLLADA xmlns="http://www.collada.org/2005/11/COLLADASchema" version="1.4.1">
  <asset>
    <created>2026-09-14T00:00:00Z</created>
    <modified>2026-09-14T00:00:00Z</modified>
    <unit name="metre" meter="1" />
    <up_axis>Z_UP</up_axis>
  </asset>
  <library_effects>
    <effect id="scout_1a1a1a_effect">
      <profile_COMMON>
        <technique sid="common">
          <lambert>
            <emission>
              <color>0 0 0 1</color>
            </emission>
            <ambient>
              <color>0.05 0.05 0.05 1</color>
            </ambient>
            <diffuse>
              <color>0.1 0.1 0.1 1</color>
            </diffuse>
          </lambert>
        </technique>
      </profile_COMMON>
    </effect>
  </library_effects>
  <library_materials>
    <material id="scout_1a1a1a" name="scout_1a1a1a">
      <instance_effect url="#scout_1a1a1a_effect" />
    </material>
  </library_materials>
  <library_geometries>
    <geometry id="geometry" name="right_knee_link">
      <mesh>
        <source id="positions">
          <float_array id="positions_array" count="210">-0.015137393 -0.0178419612 -0.408225358 -0.00632130262 -0.0252719596 -0.402406424 -0.00356468069 -0.0204806216 -0.314685762 -0.00201812363 -0.0143334307 -0.38212043 0.00049291848 -0.0187186524 -0.39887917 -0.0546661429 -0.0121698845 -0.135251984 -0.0275199991 -0.0157306176 -0.156355649 -0.0495029651 -0.034991622 -0.131926641 -0.0512745418 -0.0350800455 -0.0990654752 -0.054479856 -0.0109728863 -0.0973683 -0.0493212752 -0.0148151359 -0.114572927 -0.0325220786 -0.012793107 -0.0713539124 -0.0273915082 -0.0348080695 -0.0736055672 -0.0273556747 -0.0347711891 -0.157668814 -0.00188168255 -0.0140897529 -0.164404094 0.0058371583 -0.0305709392 -0.158047989 -0.0183163844 -0.0181482118 8.24508679e-05 -0.00569232274 0.0182670169 -0.00225772103 -0.000775269174 0.0185136832 0.0066932505 -0.0156657472 0.0171344951 -0.405503958 -0.0047939322 0.0225360766 -0.331779689 -0.00987366773 0.0235115439 -0.408270508 -0.00134289335 0.0214919839 -0.4007622 -0.050392814 0.0390689634 -0.143099383 -0.0230934042 0.0387789905 -0.16007024 -0.00340002263 0.00829326548 -0.169736728 -0.0332581103 0.0390768647 -0.0718003586 0.000966426451 0.00567502761 -0.057750158 0.00385674275 0.0219969898 -0.0672183931 -0.0415305384 0.0442738123 -0.111289531 -0.00726495311 0.0484816208 -0.145493671 0.00213673781 -0.0180018526 -0.00658100378 0.00667173602 0.0328489691 -0.161487132 0.00556603074 0.018171031 -0.00362142222 -0.018872641 0.0172832068 -0.000722645491 0.0145866377 0.0431479774 -0.133326769 0.00233267946 -0.0182847697 0.00564267766 0.020865947 0.0183594171 0.0497794375 0.0441074818 -0.0239828732 -0.409196317 -0.00192140066 0.01681461 -0.384750694 0.0504012443 -0.0149586899 -0.375316024 0.0501184613 -0.0158134773 -0.410244197 0.0465939902 -0.0213550553 -0.324341774 0.0005460307 -0.017289279 -0.214113325 0.00325960736 -0.0150342807 -0.0683681145 0.00677820342 -0.0326373801 -0.0730318651 0.00351123605 -0.0188594442 -0.0325362943 0.00387412473 0.0193265099 -0.0339400284 0.00258623483 0.0241027046 -0.400055021 0.00295644812 0.0153963361 -0.399717331 0.0463562049 0.021717716 -0.320953041 0.0503857099 0.0150099052 -0.375825554 0.0494339094 0.0203494076 -0.410675853 -0.000177223832 0.0158609897 -0.235072598 0.0479821749 0.0200092457 -0.200508431 0.00887449738 0.0389120728 -0.0695168748 0.0322554372 0.0330499224 -0.0899895132 0.0154927 0.0444641672 -0.0997770652 0.0313987173 0.0332853384 -0.14219223 0.000799075933 -0.0179922692 -0.401180476 0.0208989661 -0.0181570612 0.0491799563 0.0472342968 -0.017295327 0.00850637071 0.0471055917 0.017496882 0.00830518827 0.0480738655 -0.0199364517 -0.20199424 -0.0546054803 0.0387730971 -0.0964555964 -0.00942475256 0.0447983183 -0.0841219947 0.0477213711 -0.0224897899 -0.046337463 0.031675797 -0.0312104784 -0.132015333 0.0319936015 -0.0303200893 -0.0978424549 0.0478991121 0.0214853156 -0.0431474373</float_array>
          <technique_common>
            <accessor source="#positions_array" count="70" stride="3">
              <param name="X" type="float" />
              <param name="Y" type="float" />
              <param name="Z" type="float" />
            </accessor>
          </technique_common>
        </source>
        <source id="normals">
          <float_array id="normals_array" count="552">-0.666647255 -0.742829978 0.0615230948 -0.177300707 0.963261068 -0.201724112 -0.287110001 0.946044683 -0.150224298 -0.583022058 0.760335982 -0.286311835 -0.618935585 -0.154880419 -0.770019948 -0.513871372 -0.039585948 -0.856953382 -0.668990552 -0.157704741 -0.726347625 -0.988574862 -0.0191268362 -0.149512365 -0.958599985 -0.108934149 -0.263095856 -0.996753633 -0.0682496428 -0.0427106097 -0.532280743 -0.846058965 0.0293500703 -0.513106644 -0.155801624 0.844066024 -0.750537932 -0.090418011 0.654612422 -0.739831507 -0.200556234 0.642204404 -0.50356704 -0.0302900989 -0.863425016 -0.172503039 -0.231570125 -0.957401693 0.0330856554 -0.346102834 -0.93761301 0.834574878 -0.318220615 -0.449689209 -0.726611376 0.684681296 0.0569857173 0.232924372 0.972490013 -0.00306661776 0.147935688 0.98426187 0.0966621414 0.149399474 0.984204233 0.0949834809 -0.547548413 -0.043338012 -0.83565098 -0.527136147 -0.0720418766 -0.84672159 -0.431040674 -0.0900506675 -0.897827864 0.0261600073 0.311655492 0.949835002 0.11516577 0.483101338 0.867957354 0.0430854931 0.345142156 0.937560916 -0.215601116 0.976418674 0.0110761318 -0.343714565 0.909862816 -0.232400432 -0.250451148 0.946963906 -0.201329648 0.176912963 -0.0787557885 0.981070518 0.309733629 -0.0463446714 0.949693263 0.274966121 -0.0550634265 0.959875822 0.0169737414 0.312154502 -0.949879706 -0.119596697 0.0555501468 -0.991267264 0.519456208 0.334117353 -0.786467314 0.259997696 0.0494903624 -0.96434015 -0.0801039189 0.996329963 0.0301662162 0.00367125659 0.999991775 0.00173640728 -0.0410881005 0.998991072 0.0181271266 -0.0817941576 -0.672862113 -0.735232115 0.140714616 -0.0616893098 -0.988126397 0.154029101 -0.039512068 -0.987275958 0.127289325 -0.0838524774 -0.988314807 -0.0274102148 -0.107310794 -0.993847609 0.810344756 -0.585935712 -0.00455135712 0.844183266 -0.536040723 -0.00387290004 0.805128336 -0.5930776 -0.00522609195 -0.959212124 -0.281222016 -0.0287454762 -0.996756554 -0.0775757656 -0.0214086939 -0.903022885 -0.429276496 -0.0164717715 -0.987434983 -0.157715157 -0.00990234409 -0.981200278 -0.192508131 -0.0136603853 -0.996034443 -0.0785636008 0.0417507775 -0.998359978 0.0407436155 0.040215183 -0.257478863 -0.225269377 0.939658642 -0.0999420956 -0.359715313 0.927694142 -0.0653390512 -0.211851403 0.97511524 -0.721008003 -0.143590003 0.677886009 -0.827633142 -0.0188043099 -0.560954332 -0.827953875 -0.0194388013 -0.560459137 -0.824645519 -0.0129513238 -0.56550163 -0.196123019 0.0296761952 0.980130136 -0.254848301 -0.0140129682 0.966879487 -0.258991629 -0.0171326287 0.965727627 -0.950927377 -0.0522640459 -0.304968208 0.847529709 0.530741394 -0.00264242012 0.972402751 0.232282817 0.0218526162 0.93881619 0.343361288 0.0269671995 -0.0300482884 0.998570919 -0.0441955179 0.158503234 0.941191852 -0.298386633 0.0966031849 0.986611187 -0.131400749 -0.925007761 0.379944831 -0.00161923829 -0.999572158 0.026520215 0.012337002 -0.988627851 0.148046017 -0.0264076963 -0.994107544 0.0746431649 0.0786041543 -0.983016908 0.182885334 0.0151894037 0.267718047 0.956053853 -0.119532585 0.163418993 0.91083312 -0.379047811 0.643701792 -0.0876457691 0.760240912 0.291972131 0.946212232 0.139408469 0.457176894 0.880701303 -0.123913281 -0.996770799 0.000281306508 0.0802988708 -0.994082272 0.0143801197 0.107673541 -0.993933141 -0.0664384067 0.0876517668 -0.957111716 -0.183918163 0.223855481 0.675026417 -0.699673891 0.234085083 -0.991729796 -0.0101437708 0.127941653 -0.992219806 -0.0244860481 0.122066632 0.84173888 -0.0024460142 0.539879322 0.839459836 -0.00816104002 0.543360472 0.960392833 0.00217982731 0.278641135 0.960593104 0.00313167018 0.27794075 0.944791555 -0.327580363 0.00774662755 0.999952435 -0.00665527256 0.00712579815 -0.138059288 0.982837558 -0.12235187 -0.272601038 0.955351114 0.113986723 -0.133506596 0.966347814 0.21988149 0.0257315878 0.981895983 0.18766506 0.13495782 -0.291487753 0.947006464 -0.152691483 -0.977305591 -0.146830291 -0.187446073 -0.929287612 -0.318258584 -0.0885997415 -0.995917082 -0.0172984172 0.688208222 -0.725290239 0.0179886855 -0.0356578939 -0.99924916 0.0151538029 -0.0130782723 -0.99965924 0.02259182 -0.0372415222 -0.996733248 -0.0716650337 0.0449311286 -0.994756401 -0.0918741748 0.0676294714 -0.992192805 -0.104783952 0.0874684975 -0.985861838 0.142918512 -0.0212287102 -0.997780085 0.0631205067 -0.0573054291 -0.995286465 0.0782362297 -0.997879982 0.0401789583 -0.0511980504 -0.993598759 0.0691899061 -0.0892986059 -0.998702824 0.0315970406 -0.0399279632 -0.999984086 -0.00261695427 0.00499995332 0.356644809 -0.900149405 -0.250070989 0.0190835521 -0.938973486 -0.343459815 0.0638172776 -0.982759118 -0.173527777 0.0064928988 -0.981590211 -0.190888613 -0.300533444 -0.0486939251 0.952527463 0.832848728 0.0554304831 -0.550718129 0.862914681 0.0131184831 -0.505179346 0.870714724 0.00107255147 -0.491787225 0.894946933 -0.0403016247 -0.444348693 0.285747558 -0.957639933 -0.0356941558 0.0877887979 -0.991576493 0.0952323526 0.254199088 -0.96651125 0.0351968519 0.174921989 0.867941499 0.464843869 -0.0491384789 0.996902645 -0.0614043325 -0.125011191 0.98567152 -0.113242708 -0.0147873396 0.999884546 0.00348888361 0.997767329 0.0451275557 0.0492329597 -0.00661054207 0.999694943 0.0237976611 -0.158526957 0.47330302 -0.866518021 0.0601050854 0.978954673 0.195025921 0.118962839 -0.0921639577 0.988611996 0.999921381 0.010604796 0.00669300603 -0.0529226996 0.149855644 0.987290442 -0.903969824 -0.0282476004 -0.426662147 -0.995511174 0.0928958058 0.0181077942 -0.993634105 0.0646904409 -0.09222994 -0.831071973 -0.0256714821 -0.555572093 -0.0567184612 -0.353548557 -0.933695018 -0.781353414 0.00191401772 0.624085903 -0.784338772 -0.00677293958 0.620295763 -0.782837331 -0.00237602252 0.622221828 -0.785717964 -0.0108640417 0.618489504 -0.0570193082 0.990188003 0.127579451 -0.0913384706 0.977930248 0.187908828 -0.0359030478 0.997858465 0.054675892 0.0439812429 -0.993668854 -0.103382029 -0.0477976799 -0.99574542 0.0787812173 -0.0131247621 0.998726785 -0.0487090014 0.0422008 0.996349633 -0.0742055178 0.0183356609 0.996961713 0.0757042915 0.0867964402 0.980659723 -0.175422147 0.0151142795 0.999583483 -0.0245847963 -0.644875467 -0.0062580118 0.764262021 -0.0100866193 -0.104068503 0.994518995 0.109049067 0.967472911 0.228264034 0.0401368178 -0.99224329 0.117653407 0.00385220395 -0.99915576 0.0409020111 0.0089970734 -0.999939501 -0.00632965285 0.0157709811 -0.999868453 -0.00379250082 -0.0083630532 -0.999943912 0.00649970118 0.608206034 0.793750405 -0.00675822608 0.53282994 0.844015002 0.061081823 0.167617097 -0.0166723058 -0.985711217 0.999954104 -0.00415684935 0.00863489509 0.999970913 -0.00305772829 0.00698627112 0.201371923 0.969673932 0.138498366 0.0587229617 -0.998269856 0.00297674187 0.126034692 -0.986974537 0.0999826714 0.0459593721 -0.998904884 -0.00876085833 0.0641492978 -0.996710479 -0.0495285727 -0.143107042 0.948679149 0.282007575 -0.755842388 -0.0139190927 0.654605687 -0.851344645 -0.0570149794 -0.521499395 0.00768638356 0.999386609 0.0341668054 -0.0098262839 0.999594927 0.0267090499 -0.0315581597 0.998708248 0.0398231708 -0.0729696378 0.99725455 0.0126025779</float_array>
          <technique_common>
            <accessor source="#normals_array" count="184" stride="3">
              <param name="X" type="float" />
              <param name="Y" type="float" />
              <param name="Z" type="float" />
            </accessor>
          </technique_common>
        </source>
        <vertices id="vertices">
          <input semantic="POSITION" source="#positions" />
        </vertices>
        <triangles material="scout_1a1a1a" count="148">
          <input semantic="VERTEX" source="#vertices" offset="0" />
          <input semantic="NORMAL" source="#normals" offset="1" />
          <p>0 0 1 0 2 0 3 1 4 2 1 3 5 4 6 5 7 6 8 7 9 8 10 9 10 10 9 10 5 10 11 11 9 12 12 13 13 14 14 15 15 16 16 17 17 17 18 17 19 18 20 18 21 18 20 19 22 20 21 21 23 22 24 23 25 24 26 25 27 26 28 27 29 28 30 29 24 30 17 31 16 32 31 33 25 34 24 34 32 34 17 35 33 35 34 35 30 36 35 36 24 36 16 37 18 37 36 37 34 38 37 39 18 40 38 41 1 41 0 41 39 42 40 43 3 44 0 45 41 45 38 45 41 46 42 47 38 48 14 49 43 50 15 51 44 52 45 53 46 54 27 55 44 52 46 54 27 56 11 11 44 57 11 11 45 58 44 57 9 12 8 59 12 13 46 60 34 61 47 62 48 63 22 64 49 65 39 66 48 66 49 66 50 67 51 68 52 69 53 70 32 71 54 72 32 73 53 74 25 75 47 76 28 77 27 55 35 78 32 71 24 79 55 80 28 80 56 80 57 81 58 82 35 78 2 83 53 74 20 84 7 6 6 5 13 14 7 85 10 9 5 86 59 87 3 87 1 87 2 83 19 88 0 89 37 90 60 91 61 92 37 90 61 92 62 93 20 84 19 88 2 83 8 7 10 9 7 85 40 94 63 95 42 47 29 28 24 30 23 96 23 96 64 97 29 28 64 97 26 98 29 28 65 99 29 28 26 98 59 100 1 100 38 100 4 101 59 102 38 103 1 104 4 104 2 104 4 101 38 103 2 105 38 103 42 106 2 105 13 14 6 5 14 15 42 47 41 46 40 94 43 107 63 108 15 109 5 4 23 22 6 5 66 110 16 111 46 112 64 113 23 114 5 115 5 115 9 116 64 113 39 117 19 117 22 117 19 118 52 119 49 120 19 121 49 65 22 64 19 122 39 123 0 124 3 125 0 124 39 123 67 126 15 109 63 108 66 110 45 127 68 128 63 108 66 110 67 126 67 126 66 110 68 128 52 129 48 129 39 129 52 130 39 131 20 132 39 133 22 133 20 133 50 134 52 130 20 132 6 5 25 24 14 15 52 135 22 135 48 135 52 136 21 21 22 20 14 49 25 75 43 50 43 50 25 75 53 74 53 74 2 83 43 50 31 33 33 137 17 31 51 68 54 138 63 95 63 95 40 94 51 68 28 27 55 139 26 25 46 54 47 76 27 55 33 140 31 141 36 142 34 61 46 60 16 143 52 144 19 144 21 144 16 145 60 146 34 147 34 147 60 146 37 148 69 149 28 150 47 151 51 152 39 153 49 120 52 119 51 152 49 120 41 154 0 155 59 156 0 155 3 157 59 156 41 154 59 156 4 2 41 154 4 2 3 1 41 154 3 1 40 158 11 11 26 159 9 12 46 112 45 127 66 110 11 11 12 160 45 58 30 161 29 28 35 78 35 78 29 28 65 99 35 78 65 99 57 81 16 111 66 110 31 162 31 162 66 110 61 163 36 164 31 162 61 163 36 164 61 163 60 165 16 166 36 164 60 165 69 167 54 72 58 82 69 167 58 82 56 168 39 42 51 169 40 43 20 132 53 70 50 134 54 72 32 71 58 82 54 138 69 170 63 95 63 95 69 170 66 171 69 170 62 93 66 171 62 93 61 92 66 171 54 138 51 68 50 67 57 81 65 99 56 168 58 82 57 81 56 168 58 82 32 71 35 78 56 168 65 99 55 172 55 172 65 99 26 98 15 109 67 126 7 173 45 127 67 126 68 128 13 174 15 109 7 173 8 175 7 173 45 127 7 173 67 126 45 127 8 175 45 127 12 176 69 149 56 177 28 150 54 72 50 134 53 70 42 106 63 108 2 105 63 108 43 107 2 105 26 159 64 178 9 12 27 56 26 159 11 11 23 22 25 24 6 5 36 142 18 179 33 140 62 180 69 149 33 181 37 39 62 180 18 40 47 151 33 181 69 149 18 40 62 180 33 181 33 181 47 151 34 182 34 38 18 40 17 183</p>
        </triangles>
      </mesh>
    </geometry>
  </library_geometries>
  <library_visual_scenes>
    <visual_scene id="scene">
      <node id="right_knee_link">
        <instance_geometry url="#geometry">
          <bind_material>
            <technique_common>
              <instance_material symbol="scout_1a1a1a" target="#scout_1a1a1a" />
            </technique_common>
          </bind_material>
        </instance_geometry>
      </node>
    </visual_scene>
  </library_visual_scenes>
  <scene>
    <instance_visual_scene url="#scene" />
  </scene>
</COLLADA>