<?xml version='1.0' encoding='utf-8'?>
<COLLADA xmlns="http://www.collada.org/2005/11/COLLADASchema" version="1.4.1">
  <asset>
    <created>2026-09-14T00:00:00Z</created>
    <modified>2026-09-14T00:00:00Z</modified>
    <unit name="metre" meter="1" />
    <up_axis>Z_UP</up_axis>
  </asset>
  <library_effects>
    <effect id="scout_1a1a1a_effect">
      <profile_COMMON>
        <technique sid="common">
          <lambert>
            <emission>
              <color>0 0 0 1</color>
            </emission>
            <ambient>
              <color>0.05 0.05 0.05 1</color>
            </ambient>
            <diffuse>
              <color>0.1 0.1 0.1 1</color>
            </diffuse>
          </lambert>
        </technique>
      </profile_COMMON>
    </effect>
  </library_effects>
  <library_materials>
    <material id="scout_1a1a1a" name="scout_1a1a1a">
      <instance_effect url="#scout_1a1a1a_effect" />
    </material>
  </library_materials>
  <library_geometries>
    <geometry id="geometry" name="right_shoulder_pitch_link">
      <mesh>
        <source id="positions">
          <float_array id="positions_array" count="123">-0.00283616129 -0.00740304915 -0.012279328 0.00183909363 -0.0150877675 -0.0462152921 -0.0288844891 -0.00613305764 -0.0147981588 -0.000326214329 -0.0103801116 -0.0351747833 -3.77910255e-05 -0.0338650979 0.0302424468 -0.00294787902 -0.0140023809 0.0107882302 -0.0286800396 -0.0338476934 0.0271000452 0.00235110405 -0.00599924522 -0.0133713428 0.00194541842 -0.0146580106 0.00307941204 0.00204748963 -0.0400725901 0.0239892211 -1.17445461e-05 -0.0735527873 0.0290192384 0.00468293671 -0.00238992833 0.0314637683 0.00453000236 -0.00571396435 0.011751458 0.00083254982 -0.0999334827 0.00400313642 0.0252368543 -0.0969907716 -0.0323541015 0.0249816459 -0.0969822481 -0.000768775877 0.0250926726 -0.0734646693 0.0230362397 0.023588201 -0.0390246063 0.0229532328 -0.0288364701 -0.0791988075 0.0272872616 0.025446739 -0.0164781213 -0.0317466967 0.0250336546 -0.0733274743 -0.0563876517 0.0243331026 -0.0391913354 -0.0559133776 0.0252912045 -0.016761262 -0.000138474279 -0.0286507681 -0.0934847817 -0.051471781 0.000232573206 -0.0753728524 -0.0596655421 0.00080627104 -0.101572715 -0.0368943252 -0.0278630219 -0.102468587 -0.000433573819 -0.0283101853 -0.0337963291 -0.0601203516 0.00185162504 -0.038503971 -0.0633367375 0.03560156 -0.00066231034 -0.0132094631 0.0104692476 -0.00182160409 0.00297877681 0.00110152073 -0.0027728728 -0.0100852121 -0.013756739 -0.00408924697 -0.0141927274 -0.0337140299 -0.0324337371 0.00423284201 -0.0348329656 -0.0611255169 -0.0473185144 -0.0342469178 -0.0818239525 0.00138161331 -0.0347100236 -0.0296212919 -0.0301466361 -0.0336880535 -0.0809575021 -0.0351619683 -0.00701662293 -0.00165624567 0.0294305161 -0.0350473747 -0.000978170312 0.000567623705 -0.0104805594 -0.00193537131 -0.0023997901</float_array>
          <technique_common>
            <accessor source="#positions_array" count="41" stride="3">
              <param name="X" type="float" />
              <param name="Y" type="float" />
              <param name="Z" type="float" />
            </accessor>
          </technique_common>
        </source>
        <source id="normals">
          <float_array id="normals_array" count="345">0.0451211408 0.998306155 0.0367270671 -0.119791016 0.818405986 -0.562015772 -0.128694549 0.991605282 0.0125149423 -0.957686663 -0.279507101 -0.0686438829 -0.0783456638 0.691689372 0.71793294 -0.154122666 0.830656588 0.535028815 -0.180018827 0.753325582 0.632529616 0.998506844 -0.0544767417 -0.00404974492 0.990677893 -0.104490831 -0.087401472 0.976905048 -0.198067531 -0.0801606774 0.965541363 -0.0462598875 0.256105363 0.902746379 -0.114461623 0.41466558 0.945768356 -0.00938702561 0.324706167 0.992958963 -0.117546931 0.0146712838 0.963692784 -0.266738862 -0.0121102501 0.113507666 -0.993114829 0.0289651938 0.15852876 -0.986998022 0.0265237819 0.121549696 -0.992584586 0.00125024817 0.164360255 0.0853860974 0.982697785 0.047820311 0.00449636765 0.998845816 0.121753119 0.0557444505 0.990993798 -0.0897825062 -0.0166914593 0.995821536 -0.0608228333 0.00433026673 0.998139203 -0.0780100748 -0.00813836604 0.996919334 -0.109024912 -0.0306940805 0.993565023 0.999947548 0.00140508811 -0.010144108 0.999792874 0.00153122738 -0.0202933494 0.997585356 0.0213909019 -0.0660744905 0.999684572 0.0064232857 0.0242807157 0.992377818 0.0436285399 0.11525093 0.99978739 0.00327196415 0.0203586016 0.191501409 -0.641460955 -0.742869496 0.192599609 -0.662113667 -0.724231243 0.229037911 -0.635693967 -0.737180352 0.0142913349 -0.998907983 -0.0444820113 -0.0235085003 -0.998797297 -0.0430264436 -0.182990879 -0.9687078 -0.167688698 0.177284166 0.982919395 0.0493943021 0.103510804 0.9891271 0.104465649 0.151318908 0.986077011 0.0689543635 -0.149407208 -0.113314688 -0.9822613 0.0886582434 -0.10254851 -0.990769148 -0.0203960836 -0.089933984 -0.995738864 -0.188127354 -0.139785841 -0.972146094 -0.149507597 0.733630836 -0.662897587 0.182580218 -0.978752375 0.0933177546 0.15732868 -0.983052015 0.0941084176 0.155161008 -0.972038805 0.176254541 0.243731439 -0.963771582 0.108348392 -0.511539042 0.858562469 0.0346163698 -0.567481101 -0.68505162 0.45680356 0.280459046 -0.946857691 0.157490298 0.242869496 -0.0613781884 -0.96811527 -0.238434196 -0.242815644 0.940313637 -0.978016436 0.149310812 0.145568103 -0.955126405 -0.0383313335 -0.293707728 -0.981453598 -0.159539759 0.106282026 -0.975739837 0.191559911 -0.106002457 -0.979003608 -0.192164361 -0.0680057779 -0.973055184 -0.0852289796 0.214241996 -0.971653283 0.0881734416 0.219351977 0.140084356 -0.6866557 0.713358462 0.20078972 -0.681064487 0.704155326 0.16749683 -0.701729 0.692474723 0.00604193704 0.590223789 -0.807217062 0.119813412 -0.70502615 0.698987007 -0.749306917 0.63585943 0.184991732 -0.791238189 0.577192247 0.20196858 -0.775866032 0.599788129 0.195668325 -0.740542889 0.647029102 0.181520194 -0.171966106 -0.0124297477 0.985024452 0.248012632 0.696754336 -0.673069894 0.244372919 0.695515871 -0.675677061 0.250362605 0.697546899 -0.671376824 -0.955523431 -0.225268498 -0.190339267 0.943181574 -0.195792034 0.268465966 -0.452955037 -0.785633981 0.421439111 -0.299461544 -0.924163043 -0.237161309 0.562138855 -0.42469281 -0.709673107 0.921310186 0.246239498 -0.30092141 0.103503339 -0.932562053 0.345854044 -0.183599889 -0.967725337 0.172623113 -0.0158249028 -0.960494876 0.277847379 -0.303606272 -0.948532403 0.0900530145 0.213278249 -0.661568761 -0.718915224 0.254275739 0.698854446 -0.668540478 0.040649455 -0.984849215 0.168581247 0.0150981536 0.998576105 -0.0511649512 0.069897607 0.992579579 -0.0994995087 0.128968611 0.990966737 -0.0367695391 -0.0666431859 0.959257603 -0.27456066 0.15270032 0.980301321 -0.125267655 -0.833756864 0.0295890365 -0.551338375 -0.0665037856 0.989492297 -0.128382996 -0.0954081416 0.969001293 -0.227889895 -0.0392689556 0.999228358 -0.000779041322 0.999981701 -0.00405021338 0.00448787678 0.999995232 -0.00261921016 0.0016370269 0.129677579 0.0164356884 -0.991419971 0.149818256 -0.70389837 -0.694320977 0.988961399 0.135822222 0.0592256263 -0.974434376 -0.21294111 -0.0716502145 0.0385198072 -0.721375287 0.691472232 0.158792332 0.704889774 0.69131428 0.101792261 0.681497037 0.724706888 0.0661730319 0.665299892 0.7436378 0.00622776011 0.635350525 0.772198796 0.228996307 0.973377466 0.00984614901 -0.960317791 0.278713077 0.0104260044 -0.943036795 0.149284229 -0.297314376 -0.95009619 -0.305612981 0.0625933781 0.229405522 0.130795717 0.964502752 -0.0315768532 -0.766082466 0.641966224 0.0571009591 0.997871101 0.0315084569 0.0378470272 0.998901844 0.027617868</float_array>
          <technique_common>
            <accessor source="#normals_array" count="115" stride="3">
              <param name="X" type="float" />
              <param name="Y" type="float" />
              <param name="Z" type="float" />
            </accessor>
          </technique_common>
        </source>
        <vertices id="vertices">
          <input semantic="POSITION" source="#positions" />
        </vertices>
        <triangles material="scout_1a1a1a" count="86">
          <input semantic="VERTEX" source="#vertices" offset="0" />
          <input semantic="NORMAL" source="#normals" offset="1" />
          <p>0 0 1 1 2 2 0 3 3 3 1 3 4 4 5 5 6 6 7 7 8 8 3 9 9 10 4 11 10 12 11 13 8 8 12 14 13 15 14 16 15 17 16 18 17 19 9 20 6 21 18 22 10 23 10 23 4 24 6 21 19 25 20 26 21 27 22 28 17 29 16 30 23 31 24 32 25 33 25 34 26 35 23 36 3 37 8 38 22 39 26 35 25 34 13 15 27 40 28 41 24 42 23 43 27 40 24 42 27 44 2 2 1 1 29 45 7 46 3 47 7 46 29 45 12 48 7 49 12 49 30 49 31 50 7 50 30 50 29 45 11 51 12 48 28 41 21 52 24 42 31 53 32 53 0 53 33 54 34 55 35 56 34 55 33 54 36 57 37 58 35 56 34 55 18 59 6 60 33 54 10 61 15 62 16 63 2 2 5 5 0 0 27 44 1 1 28 64 15 62 10 61 13 65 12 66 31 67 0 68 5 69 12 66 0 68 4 70 11 70 38 70 21 71 28 72 3 73 23 74 37 58 34 55 28 75 1 75 3 75 38 76 39 76 5 76 5 77 39 77 32 77 12 78 5 78 40 78 5 79 32 79 40 79 39 80 3 81 32 82 0 83 32 82 3 81 14 84 25 33 24 32 21 71 3 73 19 85 25 34 14 16 13 15 31 86 40 86 32 86 40 87 39 88 12 89 3 90 39 88 40 87 39 88 38 91 12 89 38 92 30 92 12 92 29 93 3 90 31 94 29 93 31 94 30 95 40 87 31 94 3 90 15 96 14 97 19 25 16 30 15 96 19 25 14 97 20 26 19 25 22 28 16 30 19 25 21 52 20 98 24 42 24 32 20 99 14 84 9 10 11 13 4 11 8 8 7 7 31 100 8 8 31 100 12 14 11 13 9 10 8 8 4 101 38 101 5 101 18 102 13 65 10 61 22 103 8 104 17 105 8 104 9 106 17 105 19 107 3 37 22 39 2 2 6 6 5 5 18 59 33 54 35 56 36 57 33 54 2 108 2 108 33 54 6 60 34 55 36 57 27 109 36 57 2 108 27 109 23 74 34 55 27 109 26 110 37 58 23 74 18 59 35 56 26 110 35 56 37 58 26 110 16 18 9 20 10 111 18 102 26 112 13 65 30 95 38 113 11 114 11 114 29 93 30 95</p>
        </triangles>
      </mesh>
    </geometry>
  </library_geometries>
  <library_visual_scenes>
    <visual_scene id="scene">
      <node id="right_shoulder_pitch_link">
        <instance_geometry url="#geometry">
          <bind_material>
            <technique_common>
              <instance_material symbol="scout_1a1a1a" target="#scout_1a1a1a" />
            </technique_common>
          </bind_material>
        </instance_geometry>
      </node>
    </visual_scene>
  </library_visual_scenes>
  <scene>
    <instance_visual_scene url="#scene" />
  </scene>
</COLLADA>