<?xml version='1.0' encoding='utf-8'?>
<COLLADA xmlns="http://www.collada.org/2005/11/COLLADASchema" version="1.4.1">
  <asset>
    <created>2026-09-14T00:00:00Z</created>
    <modified>2026-09-14T00:00:00Z</modified>
    <unit name="metre" meter="1" />
    <up_axis>Z_UP</up_axis>
  </asset>
  <library_effects>
    <effect id="scout_1a1a1a_effect">
      <profile_COMMON>
        <technique sid="common">
          <lambert>
            <emission>
              <color>0 0 0 1</color>
            </emission>
            <ambient>
              <color>0.05 0.05 0.05 1</color>
            </ambient>
            <diffuse>
              <color>0.1 0.1 0.1 1</color>
            </diffuse>
          </lambert>
        </technique>
      </profile_COMMON>
    </effect>
  </library_effects>
  <library_materials>
    <material id="scout_1a1a1a" name="scout_1a1a1a">
      <instance_effect url="#scout_1a1a1a_effect" />
    </material>
  </library_materials>
  <library_geometries>
    <geometry id="geometry" name="right_shoulder_yaw_link">
      <mesh>
        <source id="positions">
          <float_array id="positions_array" count="207">-0.0237495434 -0.0117694288 -0.113816053 -0.020417355 -0.0262008216 -0.164937034 -0.0133986901 -0.0235873461 -0.108693503 -0.0291532278 -0.0138781974 -0.00169019075 -0.0172617491 -0.0231246687 -0.0598946325 -0.017021507 -0.0283110719 -0.000737259455 -0.0117150713 -0.0209949221 -0.20429562 -0.00365092955 -0.017753493 -0.219438404 0.0158041306 -0.0237761606 -0.228954211 -0.0039618141 0.00945951696 -0.241568089 0.0149133932 -0.0163069051 -0.246837512 -0.0146922413 -0.01669899 -0.233175784 -0.0304291435 -0.0208589137 -0.199309871 -0.0289611164 0.0155227222 -0.204194486 -0.0285504237 -0.0145420376 -0.21007286 -0.0282610133 0.0210895687 -0.171313331 -0.0180678777 0.0280952472 -0.163123116 0.000124183513 0.0216231868 -0.154703259 -0.0181987751 0.02126568 -0.120296955 -0.0233669523 0.0121754184 -0.112382226 -0.011655177 0.0301060565 -0.00037843574 -0.0123657128 0.0249037948 -0.0723279491 -0.0290519372 0.015086907 -0.00100828812 -0.00939362403 0.0237341058 -0.0895001963 0.0190596152 0.0266665444 -0.141253263 0.0227186549 -0.0149360951 -0.0893519074 0.0223373305 0.0154463723 -0.102374509 0.0312345717 0.000461426156 -0.0139887212 0.0181712713 -0.0170619339 -0.229831532 -0.0247395113 0.00946047623 -0.219871208 0.012017535 -0.023968786 -0.0855915546 0.0269880109 -0.0240469594 -0.137800485 0.0326566584 0.0184487682 -0.138357565 0.0299537666 -0.0138438083 -0.131439582 0.0640363842 -0.0205676612 -0.176067486 0.0403996371 -0.0176556967 -0.220063791 0.00908107124 0.0245410092 -0.0891906396 0.0143776992 -0.0294144843 -0.00154039368 0.0278146472 -0.0171003062 -0.00143711816 0.0261325799 0.0100909155 -0.245936513 0.0475967117 -0.0161885172 -0.238034561 0.0359443203 0.00134109845 -0.00186580746 0.0485539213 -0.0210918784 -0.203514755 0.0652140751 0.00893234462 -0.211428314 0.0663734749 -0.0169315543 -0.206864268 0.00163379649 0.0175601654 -0.222516194 0.00731603336 0.0111232856 -0.226164579 -0.0117939916 0.0149800768 -0.203264818 0.0312224496 0.0183894727 -0.22708188 0.0191142168 0.0282989983 -0.198153749 0.0137042962 0.0206819102 -0.206496716 0.0230495613 0.0256804749 -0.196254387 0.00849497598 0.0114056915 -0.0713067874 -0.0087004276 0.011294215 -0.0713730305 0.0228503533 0.0243358798 -0.00115438341 0.009638994 0.0255302023 -0.0710016787 0.0348881632 0.011593027 -0.223399863 0.0232925098 0.0245852638 -0.200897947 0.0481249429 0.014150124 -0.204966903 0.0478659272 0.0102854976 -0.236643225 0.0677549392 0.020657504 -0.198854029 0.0591184869 0.0205863677 -0.169796556 0.00374921877 -0.0242993366 -0.151346192 -0.00219799159 -0.0226307176 -0.17312862 0.0414450057 -0.0227659196 -0.175580516 0.00567603717 -0.000161286211 -0.00492676115 0.0088384347 0.0113052344 -0.0884587839 -0.00859885849 0.0113549978 -0.0884519145 -0.00589669636 0.000148197156 -0.00435620174</float_array>
          <technique_common>
            <accessor source="#positions_array" count="69" stride="3">
              <param name="X" type="float" />
              <param name="Y" type="float" />
              <param name="Z" type="float" />
            </accessor>
          </technique_common>
        </source>
        <source id="normals">
          <float_array id="normals_array" count="474">-0.763066232 -0.64408797 0.0536713712 -0.769513845 -0.625965953 0.126550794 -0.756214023 -0.654102862 0.0170221925 -0.76090318 -0.64672035 -0.0527173616 -0.754336834 -0.654462457 -0.0515255034 -0.762496173 -0.644782603 -0.0534324087 -0.137125105 -0.981253982 -0.135415599 -0.446174294 -0.796482384 -0.40809837 -0.0179511402 -0.993218601 -0.114867613 -0.458244979 0.0130491378 -0.888730168 -0.0787349194 -0.0347088054 -0.996291161 -0.676066935 -0.0404256582 -0.735730469 -0.999449074 0.0186568815 -0.0274502393 -0.993560672 0.0392966084 -0.106268637 -0.954153776 -0.00806063786 -0.299208194 0.482196659 0.271990657 -0.832770944 0.48311767 0.277752697 -0.830331683 0.483871251 0.330177903 -0.810463548 -0.730916321 0.671252012 0.123215377 -0.626915634 0.769661367 0.12082319 -0.660911798 0.739501297 0.127802417 -0.811403751 0.579995513 0.0723126307 -0.651722312 0.756918669 -0.0482924432 -0.682390213 0.72971642 -0.0430985652 -0.653922856 0.754967809 -0.0490758233 0.00384894223 0.998269439 0.0586801618 -0.0267074239 0.998764396 0.0419087522 -0.00399948005 0.998512387 0.0543789752 0.441997945 0.434040904 -0.785013556 -0.633715808 0.764212191 0.119933464 0.912320256 -0.406630248 0.0482031927 0.994098961 0.0445674323 0.0988990739 0.985238791 0.0486289337 -0.164133444 -0.430616975 0.0339695588 -0.901895285 -0.882702947 0.0196513217 -0.469520301 0.650857866 -0.75860846 0.0299528744 0.749916852 -0.514965177 0.415253639 0.873598158 0.0119730579 0.48650068 0.906637549 -0.201292172 0.370796174 0.926374972 0.0105586732 0.376454443 0.383744001 -0.251395315 -0.888561189 -0.0441520065 0.998502433 0.0323031172 0.67032063 -0.739777684 -0.0583030395 0.837281227 -0.534785926 -0.113860302 0.151153758 0.0206280407 -0.988295019 0.609413087 -0.0174542703 -0.792660773 0.867640495 -0.38966763 -0.308802754 0.0801478624 -0.974935174 -0.207551867 0.170025423 -0.982155681 -0.0803841576 0.631139755 -0.534116745 0.562478423 0.932186425 -0.00651833182 -0.36191991 0.974180162 -0.0467769504 -0.220873043 0.182995155 -0.978427172 -0.0958801061 0.0269262213 -0.99500221 -0.0961541608 -0.749509335 -0.339537799 -0.568286777 -0.15135105 0.382913202 -0.911301434 -0.590956688 -0.367083549 0.718345225 0.560766041 0.827942193 -0.00729519175 0.603653252 0.790232778 0.105522126 0.519397795 0.831695914 0.196234003 0.0403217152 -0.0132684289 -0.999098659 0.00429020124 -0.0688428208 -0.997618318 0.0293154363 -0.0302795041 -0.999111474 0.128265828 0.991410375 -0.0255615041 0.208780497 0.977697372 -0.0227723923 0.328373075 0.941896856 -0.0707208365 0.909351468 0.39289093 -0.136808842 0.809726954 0.471876413 -0.348819375 0.097233057 -0.433034003 -0.896117866 0.13889429 0.684847295 -0.715326905 0.144720465 0.659446895 -0.737689495 0.150104493 0.671759963 -0.725401402 0.0624011382 0.59905231 -0.798274636 0.436154604 0.446316779 -0.781390071 0.473331124 0.856173635 0.207181811 0.636581242 0.0340180434 -0.770459056 0.799756169 0.1118154 -0.589819789 0.00550751155 0.675783098 -0.737079918 -0.0322225988 0.734229207 -0.678136528 0.995198846 0.018493142 0.0961109325 0.869676769 0.0288379639 0.492778599 -0.769160151 -0.626372576 0.126688629 -0.0501978584 -0.956024885 -0.288957804 -0.24341394 -0.917271614 -0.315218031 0.0136327501 -0.999805808 -0.0142304972 0.00821480621 -0.999938488 -0.00745560834 0.0583145693 -0.997668803 -0.0354457907 -0.999740183 0.0137742097 0.0181623492 -0.998084068 0.0133048147 0.0604251139 -0.999695599 0.0124504706 0.0213013552 -0.998694539 0.00659653079 -0.0506527536 -0.0660188198 -0.99320364 -0.0958539918 0.103725143 -0.989492357 -0.100727119 0.0427621678 -0.99635148 -0.0738589093 0.0695146471 -0.997366488 -0.0206825137 0.0950019807 -0.99272269 -0.0740015209 -0.0494933464 -0.118027531 0.991776168 -0.0153621491 -0.00835448503 0.999847114 -0.100206822 -0.00822303258 0.994932652 0.0417300873 0.113606051 0.992649138 -0.0263002887 0.107229561 0.993886352 -0.0960588902 0.0788696185 0.992246091 0.02589304 -0.578075767 -0.815572143 0.0512933843 -0.991764367 -0.117356122 -0.00175367121 0.999997795 -0.00115515268 -0.0064596138 0.999961197 -0.00598604884 -0.00182193494 0.999997616 -0.00122522877 0.00285522547 0.99998951 0.00357609172 0.952518106 0.266820937 0.146682665 0.97780931 0.188298687 0.0918291062 0.985543609 0.154904842 0.0686165914 0.997892916 0.0645888448 0.00616441434 -0.144133627 0.986025214 -0.0835452303 -0.22099942 0.974991322 -0.0234774724 -0.0403168723 0.997502446 -0.0579952821 0.18419221 0.98174578 0.0474184118 0.104273319 0.994305491 -0.0219918303 0.026239749 -0.998626173 -0.0453568585 -0.0362313055 -0.998334289 -0.0448989086 -0.024568662 -0.998548329 -0.0479337536 -0.998462498 0.0554281697 0.000622293679 -0.999363542 0.0199551508 0.0295689404 -0.9989205 0.0456461497 0.00861421227 -0.996492326 0.0811523348 -0.0204294957 -0.0261475239 0.997030079 -0.0724381357 0.00389713049 -0.998974919 -0.0450988673 0.00482606795 -0.998476505 -0.0549671315 0.0713356137 0.995038152 0.0693561658 0.357100636 0.924997747 -0.129839733 0.194765076 0.97396791 -0.115987487 0.0866746455 0.99583751 0.0281992983 -0.00529122259 0.995886922 0.0904501155 -0.11675635 0.991483212 -0.0576974191 -0.161054403 0.969413459 -0.185199842 -0.130915165 0.932796896 -0.335784465 -0.00652016513 0.995754242 -0.0918202847 0.158030257 0.980010211 -0.120856993 0.0630352423 0.992974997 -0.100135945 0.248394206 0.961283088 -0.119311124 -0.00600221101 0.997398376 -0.071836561 -0.0476561859 0.993818343 -0.100269884 -0.0502702147 0.996223092 -0.0707984865 -0.0404903926 0.97031039 -0.238449857 -0.0393803529 0.957004309 -0.287388235 0.048476737 0.935917079 -0.34886843 -0.998682499 0.00469523435 -0.051099617 -0.00757153518 0.0724606216 0.997342527 0.000632647949 0.0844199359 0.996430039 -0.0117069827 0.0664256513 0.997722685 -0.019152211 0.0555493385 0.99827224 0.0596794449 0.0167260375 -0.998077452 0.0442778431 0.99350518 0.104818508 0.0655059442 -0.0109604131 0.997792006 0.0826237425 0.0521667637 0.995214522 0.0936168358 -0.0773438662 0.992599547 0.0363504179 -0.131763935 0.990614414 -0.0240540393 0.997124732 -0.0718588904 0.597855091 0.786623418 -0.154249534</float_array>
          <technique_common>
            <accessor source="#normals_array" count="158" stride="3">
              <param name="X" type="float" />
              <param name="Y" type="float" />
              <param name="Z" type="float" />
            </accessor>
          </technique_common>
        </source>
        <vertices id="vertices">
          <input semantic="POSITION" source="#positions" />
        </vertices>
        <triangles material="scout_1a1a1a" count="134">
          <input semantic="VERTEX" source="#vertices" offset="0" />
          <input semantic="NORMAL" source="#normals" offset="1" />
          <p>0 0 1 1 2 2 3 3 0 0 4 4 3 3 4 4 5 5 6 6 7 7 8 8 9 9 10 10 11 11 12 12 13 13 14 14 15 15 16 16 17 17 18 18 16 19 15 20 19 21 18 18 15 20 20 22 21 23 22 24 16 25 23 26 24 27 24 28 17 17 16 16 18 18 23 29 16 19 25 30 26 31 27 32 7 33 28 33 8 33 13 13 29 34 14 14 30 35 31 36 25 30 32 37 33 38 34 39 28 40 35 40 8 40 23 26 36 41 24 27 33 38 25 30 31 36 37 42 25 30 38 43 25 30 37 42 30 35 4 4 2 2 5 5 39 44 40 45 10 10 41 46 38 43 27 32 35 47 42 48 8 8 34 49 33 38 31 36 40 45 43 50 44 51 44 52 42 48 40 53 45 54 46 54 47 54 45 55 48 55 46 55 49 56 50 56 51 56 36 57 26 58 24 59 52 60 53 61 21 62 20 63 54 64 55 65 33 38 32 37 26 31 26 31 54 66 27 32 27 32 54 66 41 67 48 68 56 68 46 68 49 69 57 70 50 71 57 70 58 72 50 71 24 28 32 73 17 17 24 59 26 58 32 74 14 14 29 34 11 11 36 57 55 65 26 58 26 58 55 65 54 64 39 44 59 75 40 45 48 76 58 76 56 76 58 72 60 77 43 78 34 39 44 51 60 79 61 80 34 39 60 79 1 1 0 0 12 81 19 21 22 24 21 23 6 6 12 82 14 83 31 84 2 85 62 86 10 10 9 9 39 44 19 87 15 88 0 89 19 87 0 89 3 90 38 43 25 30 27 32 14 83 11 91 6 6 62 86 1 92 63 93 31 84 62 86 63 93 64 94 31 84 63 93 34 95 31 84 64 94 44 52 34 95 64 94 12 82 6 6 63 93 1 92 12 82 63 93 64 94 42 48 44 52 54 96 65 97 41 98 5 99 37 100 65 97 41 98 65 97 38 101 65 97 37 100 38 101 9 9 11 11 29 34 18 18 19 21 21 23 47 102 13 102 50 102 0 0 2 2 4 4 61 80 32 37 34 39 11 91 7 103 6 6 53 104 52 105 66 106 66 106 67 107 53 104 21 108 53 109 23 110 67 111 23 110 53 109 1 92 62 86 2 85 45 112 47 113 50 114 50 114 58 115 48 116 48 116 45 112 50 114 31 84 30 117 2 85 12 12 0 89 15 88 5 118 2 85 37 119 55 120 36 121 66 122 52 123 55 120 66 122 21 124 23 124 18 124 11 91 10 125 28 126 28 126 7 103 11 91 42 48 64 94 8 8 8 8 64 94 63 93 63 93 6 6 8 8 61 127 57 128 51 129 57 128 61 127 60 130 17 131 61 127 51 129 15 132 17 131 51 129 15 132 51 129 13 133 51 129 50 134 13 133 15 88 13 13 12 12 35 47 28 126 40 53 28 126 10 125 40 53 56 135 58 136 59 137 58 136 43 138 59 137 59 137 39 139 56 135 56 135 39 139 46 140 39 139 9 141 46 140 9 141 29 142 46 140 29 142 47 143 46 140 47 143 29 142 13 144 25 30 33 38 26 31 59 75 43 50 40 45 42 48 35 47 40 53 22 145 19 87 3 90 60 79 44 51 43 50 23 146 67 147 66 148 23 146 66 148 36 149 55 150 52 60 21 62 58 72 57 70 60 77 17 131 32 151 61 127 5 99 65 97 68 152 3 153 5 99 68 152 3 153 68 152 22 154 22 154 68 152 20 155 68 152 65 97 20 155 65 97 54 96 20 155 21 156 20 63 55 65 30 117 37 119 2 85 57 128 49 157 51 129</p>
        </triangles>
      </mesh>
    </geometry>
  </library_geometries>
  <library_visual_scenes>
    <visual_scene id="scene">
      <node id="right_shoulder_yaw_link">
        <instance_geometry url="#geometry">
          <bind_material>
            <technique_common>
              <instance_material symbol="scout_1a1a1a" target="#scout_1a1a1a" />
            </technique_common>
          </bind_material>
        </instance_geometry>
      </node>
    </visual_scene>
  </library_visual_scenes>
  <scene>
    <instance_visual_scene url="#scene" />
  </scene>
</COLLADA>