<?xml version='1.0' encoding='utf-8'?>
<COLLADA xmlns="http://www.collada.org/2005/11/COLLADASchema" version="1.4.1">
  <asset>
    <created>2026-09-14T00:00:00Z</created>
    <modified>2026-09-14T00:00:00Z</modified>
    <unit name="metre" meter="1" />
    <up_axis>Z_UP</up_axis>
  </asset>
  <library_effects>
    <effect id="scout_1a1a1a_effect">
      <profile_COMMON>
        <technique sid="common">
          <lambert>
            <emission>
              <color>0 0 0 1</color>
            </emission>
            <ambient>
              <color>0.05 0.05 0.05 1</color>
            </ambient>
            <diffuse>
              <color>0.1 0.1 0.1 1</color>
            </diffuse>
          </lambert>
        </technique>
      </profile_COMMON>
    </effect>
  </library_effects>
  <library_materials>
    <material id="scout_1a1a1a" name="scout_1a1a1a">
      <instance_effect url="#scout_1a1a1a_effect" />
    </material>
  </library_materials>
  <library_geometries>
    <geometry id="geometry" name="right_hip_yaw_link">
      <mesh>
        <source id="positions">
          <float_array id="positions_array" count="153">-0.088022694 -0.050570365 -0.0207212362 -0.0964252353 -0.0361884758 0.0359743126 -0.101149559 -0.0382683836 -0.0284060966 -0.0949805602 0.000971253961 -0.0518047065 -0.0545425303 -0.0585793108 0.00848644134 -0.0285431761 -0.0547944419 -0.0165324081 -0.0365346298 -0.0455147885 0.037656121 -0.0418501757 0.0608962215 0.0114091337 -0.0135124419 0.0434172042 0.0483716205 -0.0370850638 0.0463052318 0.0382908732 -0.0157223679 -0.0523044318 0.033313632 -0.0412193052 -0.0066438783 0.0618907101 -0.00254486711 -0.038892962 0.0629679263 -0.0325882509 -0.0352101661 0.0908868611 -0.0431999974 0.000131116365 0.0686563253 -0.0265789945 -0.0357607827 0.0576216243 -0.00409225421 -0.0388734415 0.0860223621 -0.0353769511 -0.00918337423 0.0849709064 -0.0644250885 0.0634224489 0.0211636703 -0.0553327873 0.0558684617 -0.0277210101 -0.0647644028 -0.0548640676 0.0365483724 -0.031474594 -0.00188688759 0.0629653558 -0.0371928513 0.00538060488 0.0594216809 -0.00537587935 0.00058814825 0.0709872544 -0.0907846391 0.0540349148 0.0044555543 -0.100178912 0.0455601029 -0.0189739037 -0.0959883779 0.0261606555 0.0428799652 -0.0259137191 0.0359676033 0.0578377694 -0.0651649758 0.0043793763 0.0699307993 -0.0669532716 0.0462928824 0.0324576981 -0.075348042 -0.011675382 0.0548282862 0.00425490877 0.0368423238 0.0768774077 0.0161924735 0.0459450446 0.0924570411 -0.0358449742 0.0142420316 0.0863192007 0.0170708653 -0.0366523042 0.0839522853 0.0163503475 -0.000118554977 0.0794526339 0.0384963937 0.00155060785 0.0829572231 0.0251429491 0.0319589972 0.076647602 -0.0548975244 -0.0547500663 -0.0307148211 -0.0618099459 0.00387711916 -0.0623686612 -0.0480405502 0.00833956897 -0.0611733831 0.000908132759 0.00504235784 0.0859549269 -0.0291313268 0.0487774946 -0.0246191174 -0.0514616966 -0.000769509876 0.0916006491 0.0381198786 0.0123109622 0.0962838456 -0.0126980897 -0.0473483205 0.0920034498 0.000275606086 -0.00321134808 0.0794874504 0.0570049249 0.00475765578 0.093392171 0.0316406935 -0.0458131991 0.0930242017 -0.0326177515 0.0380724967 0.0917788967 -0.0295199864 0.00305787846 -0.0564997941</float_array>
          <technique_common>
            <accessor source="#positions_array" count="51" stride="3">
              <param name="X" type="float" />
              <param name="Y" type="float" />
              <param name="Z" type="float" />
            </accessor>
          </technique_common>
        </source>
        <source id="normals">
          <float_array id="normals_array" count="387">-0.483188778 -0.873371184 0.0612480901 -0.470410556 -0.869460642 0.150838003 -0.70478493 -0.705497265 0.0745103285 -0.199998662 -0.504331768 -0.840029776 0.0198776796 -0.51436007 -0.857343912 -0.186283022 -0.525709629 -0.830016851 0.00546295336 -0.99539423 0.0957103893 0.155580997 -0.987747192 0.0122511107 0.332788318 -0.92008251 0.206639916 0.102758899 -0.866477489 -0.488525689 0.255670726 -0.589024425 -0.766604662 0.188047424 -0.735828996 -0.650533497 0.268028587 0.771990955 -0.576359868 0.180580556 0.85943526 -0.478290439 0.175968647 0.853308916 -0.490814567 0.446922332 0.511451483 -0.733946741 0.36607036 0.653484941 -0.662532985 -0.9136222 -0.374248147 -0.158848241 0.686861813 0.725363195 0.0454871543 0.673467994 0.739184737 0.00683896849 0.653320312 0.755710781 -0.045538757 0.639759004 0.764626443 -0.0778126121 -0.0221858434 0.941380203 0.336617172 0.167390898 0.985485435 0.028261913 0.210322067 0.957876384 -0.195544064 -0.24937138 -0.448393404 0.858345687 -0.224172384 -0.448327959 0.865302742 -0.271157682 -0.469841838 0.840072691 0.0707969293 -0.942050993 0.327914238 0.0733547583 -0.92053026 0.383722752 0.0654813945 -0.972577751 0.223169684 0.30544436 -0.212286353 -0.92824471 -0.879450142 0.433912724 0.195671231 -0.990460098 0.128749683 0.0491153337 -0.992596447 0.077399753 0.0936033055 -0.155808598 0.745156586 0.64843297 -0.483957559 0.1042016 0.86886543 -0.982272029 0.0222499352 -0.186135814 0.307832479 -0.43714878 -0.845068097 0.123039268 -0.669339716 0.732697487 -0.0938533172 0.877872169 0.469608396 -0.257278293 0.894104779 0.366584957 0.40664351 0.618119895 -0.672732353 0.236191317 0.749248683 -0.618740678 0.340659112 0.674418032 -0.655066133 0.368213594 -0.829096198 -0.420735389 -0.0124106677 -0.992980063 0.117628887 -0.0719327107 -0.995948315 0.0539692566 -0.0564924628 -0.995905221 0.0705786943 0.120469563 -0.0811948404 -0.989390969 0.310598701 -0.175516799 -0.934196055 0.288933575 -0.200893119 -0.936033845 0.0331434384 -0.138363346 -0.989826798 -0.0644041821 -0.229783446 -0.971108496 0.0958485007 -0.485301465 -0.869077444 0.00436839461 -0.488145322 -0.872751415 0.187172204 -0.492978215 -0.849669933 0.0947944447 0.346432447 0.933273077 -0.608972311 -0.0831017271 0.788826227 -0.939544439 -0.0904543176 -0.330263942 -0.455584019 -0.439339906 0.774224579 -0.717963099 0.44667387 0.533864617 -0.905873239 0.260166943 0.334225774 -0.437050581 -0.204058275 -0.875983477 0.0615701526 -0.986304879 0.153009072 0.0478607081 -0.0517945774 0.997510254 0.109220967 0.567854047 -0.815850854 -0.0322160535 0.587924778 -0.808273852 0.26943031 0.573405981 -0.773700774 -0.999815583 0.0117804026 -0.0151669625 -0.997315109 -0.00112178212 0.0732206181 -0.0222360864 0.0782019645 0.996689498 -0.0478873514 -0.00549994316 0.99883759 0.113347083 0.0738601685 0.990806282 -0.0367387757 -0.0390002653 0.998563588 0.31006071 -0.917468965 -0.249224856 0.122754835 -0.89917028 -0.420028627 0.236694425 -0.925442994 -0.295856327 0.447511047 -0.86952436 -0.20895274 0.132003188 -0.869300246 -0.476332128 -0.127768576 -0.991781592 -0.00666488241 -0.99177593 0.109256744 -0.0666593164 0.25206989 0.915289462 -0.314175099 0.858085454 -0.498954773 0.12138135 -0.214515895 0.556323051 -0.802799821 0.278828114 0.935666323 -0.216294631 0.849299908 0.512280285 0.127509102 0.99146688 0.112444848 0.0659513772 0.993587196 0.0640817508 0.0931556821 -0.354539275 0.779031277 0.51711911 -0.0612007864 -0.99345082 -0.0964879021 -0.97897321 0.0339673199 -0.201140866 0.101683721 -0.01766886 0.994659841 -0.023165103 0.00434464542 0.999722183 -0.0142684886 0.00233367248 0.999895453 -0.102495663 -0.0767225027 0.991770267 0.0323179699 0.458479971 0.888116956 0.978073478 0.00730209518 -0.208131954 0.999204576 0.023067357 0.0325280279 0.997447312 -0.00614214409 0.0711415112 0.986289918 0.104747266 0.127515405 -0.348498493 0.239792645 -0.906117141 -0.905824065 -0.00552121317 0.423618078 -0.157308415 0.98325026 -0.0920485705 -0.904601216 0.375380367 -0.201955914 0.164117783 0.924506247 -0.344025552 0.692020178 0.257518142 -0.674383044 0.021285871 -0.121799327 -0.992326498 -0.297602028 0.543310404 -0.785013914 -0.286000162 0.55209595 -0.783194721 0.363241822 -0.46050927 -0.809929967 0.0457148477 -0.567283034 -0.822253048 0.508026481 -0.248805076 -0.82462424 0.425869286 -0.246666268 -0.870511949 0.0247594137 -0.0512688495 -0.998377919 -0.108522676 -0.781290352 -0.614661098 -0.123011321 -0.164278448 -0.97871387 0.163549036 -0.855572343 -0.491169691 0.155170739 -0.509118557 0.84659338 0.923995912 -0.191698372 -0.330882519 0.176922545 0.784726799 -0.594055712 0.403217733 0.380652547 -0.832177341 -0.0156155657 0.0121638617 -0.99980408 0.896690726 0.421697974 0.13459754 -0.260938793 0.936532319 -0.234132707 -0.054074347 0.998533309 -0.00267824577 -0.065780811 0.997711778 -0.0156231318 0.10993401 0.978077412 0.176859051 0.346906424 0.534473598 -0.770709991</float_array>
          <technique_common>
            <accessor source="#normals_array" count="129" stride="3">
              <param name="X" type="float" />
              <param name="Y" type="float" />
              <param name="Z" type="float" />
            </accessor>
          </technique_common>
        </source>
        <vertices id="vertices">
          <input semantic="POSITION" source="#positions" />
        </vertices>
        <triangles material="scout_1a1a1a" count="98">
          <input semantic="VERTEX" source="#vertices" offset="0" />
          <input semantic="NORMAL" source="#normals" offset="1" />
          <p>0 0 1 1 2 2 0 3 2 4 3 5 4 6 5 7 6 8 7 9 8 10 9 11 6 12 10 13 4 14 11 15 12 16 6 12 13 17 14 17 15 17 16 18 12 19 17 20 17 20 12 19 11 21 18 22 7 23 19 24 12 25 15 26 20 27 10 28 12 29 20 30 12 16 10 13 6 12 21 31 22 31 23 31 24 32 25 33 26 34 27 35 18 22 28 36 18 37 19 37 29 37 9 11 8 10 22 38 30 39 1 39 4 39 8 40 7 23 18 22 27 35 8 40 18 22 27 35 31 41 8 40 27 42 32 43 31 44 31 45 33 45 8 45 34 46 13 47 12 48 35 49 36 50 34 51 31 52 37 53 36 50 38 54 0 3 39 55 0 3 3 5 39 55 39 55 40 56 38 54 29 57 26 57 30 57 26 58 1 58 30 58 30 59 4 59 20 59 20 27 28 36 30 60 28 36 18 22 29 61 30 62 28 36 29 61 35 63 41 63 31 63 35 49 31 52 36 50 10 28 20 30 4 64 15 26 28 36 20 27 27 35 28 36 14 65 40 66 19 67 42 68 2 69 1 70 26 34 2 69 26 34 25 33 32 71 43 72 44 73 44 73 43 72 45 74 21 75 23 76 17 77 21 75 17 77 11 78 23 76 46 79 17 77 12 48 13 47 15 80 16 81 46 81 12 81 22 82 33 82 23 82 22 83 8 83 33 83 19 67 40 66 39 84 19 24 7 23 42 85 7 86 9 87 42 88 4 6 1 1 0 0 26 89 29 89 24 89 14 65 28 36 15 26 38 90 4 6 0 0 3 91 2 69 25 33 44 73 45 74 47 92 48 93 47 92 45 74 43 72 32 71 49 94 32 71 44 73 47 92 45 74 43 72 13 95 9 96 22 96 21 96 9 87 21 97 6 98 9 87 6 98 42 88 50 99 6 98 5 100 42 88 6 98 50 99 38 90 5 7 4 6 33 101 31 101 23 101 14 102 13 102 49 102 49 103 32 103 27 103 49 104 27 104 14 104 23 105 41 105 35 105 34 106 12 106 46 106 35 49 34 51 46 107 3 108 25 109 39 84 38 54 40 56 5 110 5 110 40 56 50 111 36 50 47 112 48 113 36 50 48 113 34 51 48 114 45 114 13 114 13 115 34 115 48 115 16 116 17 116 46 116 46 79 23 76 35 117 11 118 6 118 21 118 31 119 41 119 23 119 31 44 32 43 37 120 36 121 32 121 47 121 43 122 49 122 13 122 37 123 32 123 36 123 25 124 24 125 19 126 19 67 39 84 25 109 29 127 19 126 24 125 42 68 50 128 40 66</p>
        </triangles>
      </mesh>
    </geometry>
  </library_geometries>
  <library_visual_scenes>
    <visual_scene id="scene">
      <node id="right_hip_yaw_link">
        <instance_geometry url="#geometry">
          <bind_material>
            <technique_common>
              <instance_material symbol="scout_1a1a1a" target="#scout_1a1a1a" />
            </technique_common>
          </bind_material>
        </instance_geometry>
      </node>
    </visual_scene>
  </library_visual_scenes>
  <scene>
    <instance_visual_scene url="#scene" />
  </scene>
</COLLADA>