<?xml version='1.0' encoding='utf-8'?>
<COLLADA xmlns="http://www.collada.org/2005/11/COLLADASchema" version="1.4.1">
  <asset>
    <created>2026-09-14T00:00:00Z</created>
    <modified>2026-09-14T00:00:00Z</modified>
    <unit name="metre" meter="1" />
    <up_axis>Z_UP</up_axis>
  </asset>
  <library_effects>
    <effect id="scout_1a1a1a_effect">
      <profile_COMMON>
        <technique sid="common">
          <lambert>
            <emission>
              <color>0 0 0 1</color>
            </emission>
            <ambient>
              <color>0.05 0.05 0.05 1</color>
            </ambient>
            <diffuse>
              <color>0.1 0.1 0.1 1</color>
            </diffuse>
          </lambert>
        </technique>
      </profile_COMMON>
    </effect>
  </library_effects>
  <library_materials>
    <material id="scout_1a1a1a" name="scout_1a1a1a">
      <instance_effect url="#scout_1a1a1a_effect" />
    </material>
  </library_materials>
  <library_geometries>
    <geometry id="geometry" name="torso_link">
      <mesh>
        <source id="positions">
          <float_array id="positions_array" count="828">-0.0707434416 -0.078677088 0.0190304611 -0.0632077679 -0.0939746499 0.00850634277 -0.0708707944 -0.102736823 0.0367927663 0.0323002562 -0.0431114733 0.493230551 0.0351658538 -0.0312000867 0.532356322 0.0157180298 -0.0258601662 0.562308431 -0.0678842366 -0.0311296824 0.0342495255 -0.0675822496 -0.0292378161 0.016534023 -0.0484872609 -0.0566259809 0.0341097899 -0.0489754416 -0.0350484066 0.0146697061 -0.0542007945 -0.0123888021 0.0110115306 -0.0511081815 -0.0303467065 -0.00308331847 -0.0389516652 -0.0398579761 0.0079399636 -0.0280256271 -0.101193808 0.0292651895 -0.0265396666 -0.0923552513 0.0053625037 -0.0240648407 -0.0702211261 0.0166877676 -0.0452304073 -0.0594386607 0.00978208799 -0.0111768823 -0.0541676916 0.0151072731 -1.81292762e-05 -0.0539355241 0.00999729149 -3.39632976e-07 -0.0540000349 0.00999995321 -0.0395170301 0.0205444265 0.481168389 0.0597001836 0.0395780765 0.48039344 0.0362546034 0.0281779468 0.490362048 -0.0347850993 -0.146342009 0.443827152 -0.0353284627 -0.140330508 0.40305984 -0.0350726545 -0.159569785 0.415352046 -0.0402429365 -0.10646379 0.389511764 -0.0383560769 -0.130243942 0.416055113 -0.0251106005 -0.144610688 0.382883221 -0.0364991762 -0.124837115 0.435327232 -0.0409851708 -0.114502624 0.445863605 -0.0406902023 -0.141781718 0.39368996 -0.0154727418 -0.123601258 0.36353144 -0.0348243229 -0.107839353 0.414568812 -0.018254701 -0.110170767 0.371360213 -0.0382832736 -0.109388515 0.437666833 -0.00552112656 -0.107379854 0.453110427 -0.0375118591 -0.0433415398 0.485569328 -0.0349689871 -0.0262295343 0.529619217 -0.0520420261 -0.0380792245 0.478889734 -0.0359749682 -0.0204435941 0.490363032 -0.0246085674 -0.0109062642 0.523745835 -0.0113652991 -0.14990826 0.382190973 -0.0149249388 -0.15029341 0.373206913 -0.0221553408 -0.140151396 0.39069128 -0.0164977405 -0.110517614 0.454259038 -0.0120331571 -0.111144863 0.460472286 0.0105034988 -0.144229323 0.379901022 0.0227208734 -0.146860689 0.373725086 -0.0110744033 -0.135233402 0.465699613 0.00234585186 -0.116401002 0.45375815 0.0240633879 -0.111577138 0.459321916 -0.0363481268 -0.10561502 0.371558636 -0.00580617785 -0.0232150611 0.560757279 0.00130275358 -0.0201000571 0.589490771 -0.017070571 -0.0022842458 0.565179348 -0.0290476158 0.0249032043 0.709690988 -0.0253839456 -0.0336165428 0.704427421 -0.0173047353 0.00343227061 0.736760914 0.0178664848 -0.068721354 0.697192192 -0.00172051368 -0.0466362387 0.697531104 -0.0081578074 0.00448358804 0.555817962 0.0149730835 -0.0283174682 0.746974885 0.00396333961 -0.048943866 0.725420177 -0.00146641629 0.0203226265 0.586069465 0.0187104624 0.0118366834 0.75274092 0.0456101447 -0.0594834425 0.00938749686 0.0544710644 -0.0587031841 0.0367676318 0.0660055354 -0.0781891271 0.0100149941 0.0253184307 0.0300068837 0.685824454 0.0584641509 0.0081344964 0.678662002 0.0381171964 0.0128476731 0.659663081 -0.0465390161 -0.0168879796 0.478341192 -0.0456553176 -0.0161090735 0.511234999 -0.0676048473 0.0713101178 0.0342137031 -0.0450142287 0.057625819 0.0257499218 -0.0673138648 0.0324319415 0.0344658121 -0.0704274252 0.0993184373 0.0223985072 -0.0396430232 0.103446499 0.00841218606 -0.0660265237 0.0803531781 0.00916692149 -0.0542877316 0.0640175641 0.00729021337 -0.0249529518 0.0709938407 0.010524204 -0.0476972125 0.0355787426 0.0151167801 0.00969090872 0.0553591028 0.0146681275 -0.0163386445 0.0510898344 0.00737088965 0.0227602161 0.112773195 0.457833439 -0.012490198 0.111876369 0.458824962 0.0712868497 0.101706825 0.475660205 -0.0429808684 0.0135956649 0.519382954 -0.0376219749 0.124591939 0.428873867 -0.0258437134 0.137156352 0.394191444 -0.0351647697 0.107592687 0.415018618 -0.0374543592 0.125464842 0.433793306 -0.0411526561 0.141508877 0.394534022 -0.0401666537 0.110563442 0.448666662 -0.00914583914 0.108261213 0.458113879 -0.0357566103 0.104557537 0.4351345 -0.0342356265 0.140366167 0.392808735 -0.0373760946 0.103164285 0.390213192 -0.0355639011 0.139828369 0.403877795 -0.0347025096 0.145980492 0.444648236 -0.0348435566 0.160209656 0.414684951 -0.020833075 0.112777695 0.442664891 -0.0152606089 0.149093151 0.372612357 -0.0348210484 0.106265374 0.36949724 -0.00856092572 0.107327521 0.365691245 -0.0154791549 0.124093086 0.363393903 -0.0108620878 0.150132045 0.381284803 -0.0117687685 0.170063868 0.393085092 -9.23129701e-05 0.143905595 0.380145699 -0.00677808328 0.147378474 0.372741759 -0.0476211533 0.033891622 0.500870645 0.000748451741 0.0235817526 0.567712545 -0.0383961797 0.0393805243 0.492491782 -0.00308573013 0.0534862541 0.702320576 -0.0100586833 0.0379009843 0.697069049 0.0757882074 -0.0218962207 0.545208097 0.0792476684 -0.046456445 0.567694008 0.0298033897 -0.0135770189 0.575908303 0.0275103487 -0.0472506881 0.0108502507 1.91001945e-07 -0.0540000349 0.00999995321 0.0702017769 -0.0994165763 0.0223319661 0.0551562048 -0.0992517769 0.00907456782 -0.04634903 0.0424195081 0.47819823 0.0454330258 -0.161591202 0.413875401 -0.0109209102 -0.170468852 0.392360151 0.0224173646 -0.167753607 0.39084965 0.0234353654 -0.150268883 0.380830616 0.0253397524 -0.148709476 0.372308195 0.0238826107 -0.125973195 0.36454764 0.025875289 0.150150523 0.373114884 0.0347707234 0.10646338 0.361433476 0.0236180481 0.126194194 0.364924312 0.0200715903 -0.108011685 0.365891188 0.0411724746 -0.137452036 0.398871422 0.045532845 -0.104128696 0.3896465 0.048175022 -0.108755745 0.381334484 0.0219124109 -0.136674419 0.465505928 0.0483188964 -0.125412464 0.433883578 0.0358552523 -0.106734499 0.43789506 0.0123298969 -0.109205067 0.454946995 0.0441926904 -0.121095747 0.437491804 0.0439083539 -0.105708674 0.444433928 0.0242767055 -0.0107194195 0.533059657 0.0309914257 -0.0299062934 0.482227981 0.0514730886 -0.14135839 0.393087924 0.0476663187 -0.139270544 0.404301822 0.0520313568 -0.133171543 0.405592561 0.0465668924 -0.145138994 0.443795085 0.0473252386 -0.106294237 0.372493505 0.0505581088 -0.109345309 0.449984789 0.0817053244 -0.071437791 0.671237171 0.107700124 -0.0622332692 0.675668716 0.0729726031 -0.0617146306 0.719945312 0.0470327288 -0.0331005007 0.488211632 0.0301725026 0.104182355 0.026716562 -0.0205858368 0.0780745223 0.0364846848 -0.0224426314 -0.0715185478 0.0344853401 0.0353012867 -0.0641500726 0.722350657 0.0240214802 -0.0258462448 0.596475244 0.00116205309 -0.00388555648 0.691119492 0.0319485739 -0.0286945868 0.683221817 0.070985429 -0.0561104454 0.676079333 0.0157025289 -0.0123761157 0.592578948 0.0100349598 0.0120762112 0.667090237 0.0124044847 -0.0155948475 0.668721974 0.0308734775 -0.0106845414 0.591060221 0.0542885959 -0.0161254033 0.679477692 0.0391046852 -0.0154806497 0.53385675 0.0381775796 0.0138670048 0.536965847 0.0330919884 -0.00826221611 0.656604409 0.0637913942 -0.0382712968 0.745347381 0.0508068204 0.0286887605 0.750397623 0.0660412386 -0.0682071969 0.68495661 0.073601678 -0.0420858935 0.586069942 0.0228576083 0.149715438 0.381542772 0.0375133082 0.0140319625 0.572283149 0.0766832829 -0.0151191922 0.564405382 0.0370578021 0.0108042043 0.588377893 0.079596296 0.00437508523 0.747783124 0.0820239857 -0.0448777676 0.60483408 0.0851719454 -0.0641185716 0.60893482 0.0944702253 -0.0651998445 0.645109236 0.0872217566 -0.031199988 0.558203161 -0.0700576976 0.102333136 0.475806177 0.0843024403 -0.0496496819 0.670098782 0.105962008 -0.0429622829 0.670817256 0.104229055 -0.0098276902 0.733455241 0.125670239 -0.0406826697 0.690823138 0.0574199855 0.098625198 0.0101767629 0.0265396945 0.0923552886 0.00536255771 0.0703839883 0.10296198 0.0371456593 0.0685964301 0.0799932405 0.0119493883 0.0676096603 -0.0292008277 0.0163038336 0.0278229788 0.143718943 0.387067318 0.0277553219 0.11065238 0.371583909 0.0676278025 -0.0302627981 0.0343572199 0.0230286475 0.136543185 0.46436736 -0.0111728022 0.135965794 0.465739429 0.0318921693 0.0432020277 0.492976278 0.0263281986 0.016866494 0.524179161 0.0434528887 0.107239306 0.446456552 0.0483874232 0.107296459 0.40941754 0.0228164904 0.110531114 0.451442689 0.0488413423 0.109725267 0.381953359 0.0441666096 0.140674382 0.38801381 0.0440081283 0.0449880138 0.488426805 0.0508610532 0.141802937 0.390788049 0.0520607643 0.106056862 0.38210243 0.0498584919 0.124083206 0.428522944 0.0468254127 0.12550813 0.435370415 0.0493436158 0.113188997 0.447499871 0.046063453 0.159350216 0.413086534 0.0517093055 0.138058603 0.403492749 0.0199774429 0.0132435719 0.591220737 0.087223731 0.0313517638 0.557132542 0.0761462897 0.0179406833 0.565889657 0.0170110054 0.0261243526 0.559693396 0.0213770904 0.0257700179 0.597155988 0.0236241762 0.0244230404 0.575513959 0.0935279876 0.035424266 0.731104553 0.0821872056 0.0458634309 0.607400954 0.0712417811 0.0393579938 0.584661901 0.0156538114 0.0530321226 0.7298913 0.0583587997 0.0627016425 0.725986362 0.0305626653 0.0717262924 0.694464087 0.0792182684 0.0466906279 0.568086982 0.0754527226 0.0235299282 0.545999765 0.0719819218 0.0718547553 0.684673727 0.0690621063 0.0554531328 0.676936388 0.0333929881 -0.0997544155 0.00849781279 0.020579068 -0.0779480711 0.0364615098 0.0767318159 0.054006286 0.641029298 0.0855077356 0.0647587031 0.612254381 0.100549035 0.0587755404 0.697460473 0.0998911336 0.064850308 0.66333288 -0.0699664578 -0.10265585 0.475817412 0.0701380894 -0.102510378 0.475710452 0.125395149 0.041349303 0.69053483 0.0925513357 0.0580377951 0.609229922 0.102884762 0.0443516746 0.669963539 0.0716973394 0.0461317375 0.393646002 0.0711980909 -0.00105511083 0.394748151 0.0718271881 0.0200188048 0.393862873 0.0243364088 0.0699516237 0.015974462 0.0224433616 0.0715159923 0.0344842486 -0.0676302537 0.0292717051 0.0163862705 -0.0556291081 0.0140277212 0.0111913197 0.0449780822 0.0596240312 0.00875911489 0.0679770038 0.0299302749 0.0283327755 0.0451105982 0.0313753858 0.0103530725 0.0519887209 -0.0170087088 0.0109477974 -0.0697118193 -0.101787157 0.085903123 -0.0715900362 -0.00392399495 0.341515452 -0.0692912191 0.101897836 0.0858025923 -0.0711200684 -0.0248899292 0.392003536 -0.070797883 -0.0528858304 0.391440779 -0.070152916 0.0617559105 0.386128515 0.0699208155 0.1019651 0.0858431309 0.0554585755 0.0593707152 0.0371123329 -0.00222335407 -0.0377550088 0.483464122 0.0242438819 -0.071822688 0.0124069983 0.0696736202 -0.101793043 0.0857946202 0.0707168356 -0.0602730922 0.381230861 0.0711453706 -0.00266641309 0.34101063 0.0703122988 -0.0383870043 0.391992986 0.0715849102 -0.020353429 0.393138856 -0.0725757703 0.0124744624 0.405759513 -0.0700841248 0.0315390602 0.39301607 -0.07133957 -0.00189626776 0.385389298 0.0457040556 0.146804079 0.444011211 -0.0507519878 0.0258195437 0.00405255007 0.0587608665 -0.0472407714 0.479923129 0.0215216223 0.170407191 0.392361075 -2.06801842e-09 0.0410000049 0.485511899 0.071100235 0.0691452175 0.389985383</float_array>
          <technique_common>
            <accessor source="#positions_array" count="276" stride="3">
              <param name="X" type="float" />
              <param name="Y" type="float" />
              <param name="Z" type="float" />
            </accessor>
          </technique_common>
        </source>
        <source id="normals">
          <float_array id="normals_array" count="2175">-0.992291272 -0.0753631592 -0.0983790904 -0.918398798 -0.231836632 -0.320617229 -0.997529924 -0.0382257476 -0.0589308217 0.535651922 -0.817964494 0.209788263 0.179479703 -0.953085303 0.243752912 -0.139279366 -0.988526642 0.0584490411 -0.793648064 -0.60336107 -0.0779627785 -0.799279392 -0.597653449 -0.0629503727 -0.803699315 -0.592871964 -0.0506973341 -0.974745154 -0.215069637 0.0601412021 0.765496671 0.473653048 -0.435508549 0.0117516723 -0.938103735 -0.346154958 -0.463779807 -0.87951231 -0.106613241 -0.495085567 -0.860136628 -0.12269976 -0.513015211 -0.843024015 -0.161635235 0.451824903 0.365802795 -0.813659966 -0.270377189 -0.796024561 -0.541517437 -0.249623835 -0.775181949 -0.580328286 -0.0404240713 0.0299236458 0.998734415 -0.0420399718 0.0295989141 0.998677373 -0.0143440161 0.0371865481 0.99920541 0.150526822 -0.807854712 -0.569835484 -0.998599708 -0.0526098981 0.00555195147 -0.999337792 -0.0354759581 0.00808832888 -0.999907315 -0.00527707674 0.0125489915 0.922182858 0.155814618 0.353978276 0.98425132 0.160585761 0.073901996 0.856588542 0.262615353 0.444172561 -0.577277839 -0.695723295 0.427456915 -0.204316348 -0.857355297 0.472436965 -0.263812095 -0.927031875 0.266486615 -0.347931653 -0.875728369 0.334728807 -0.996889114 -0.0787995011 0.0016672808 0.731382847 0.0239030197 0.681548059 0.0135809192 -0.998449206 -0.0539884977 -0.162330776 -0.986552417 -0.0190545507 -0.178566366 -0.983807445 -0.0153928436 0.0963038206 -0.991678476 -0.0854361355 0.163114145 -0.961543977 -0.220968246 -0.431239009 -0.83232826 0.34822771 -0.292477816 -0.892358065 0.343735099 -0.45577541 -0.820494533 0.345047086 0.946258307 0.00418882817 -0.323384732 0.906918347 0.0854059309 -0.412559003 0.931226909 0.0537924878 -0.360448122 -0.109799638 -0.989121675 0.0978896171 -0.112860978 -0.99119854 0.0691947192 -0.156506062 0.882005692 -0.444490552 -0.113345161 0.880633175 -0.460041404 -0.0839057639 0.878930688 -0.469511032 0.493144125 0.625171185 -0.604954422 -0.0256235767 -0.865198374 0.500774622 0.569630682 -0.32264477 0.755924106 -0.924536288 0.121783316 -0.361111373 -0.899232805 -0.0633191913 -0.432863802 -0.911013544 -0.00581383472 -0.412335515 -0.890547216 0.168414563 0.422566265 -0.252776176 0.950471342 0.180854619 0.222603068 -0.908333421 -0.354087919 -0.0312363636 0.895488262 -0.443987727 -0.00745970756 0.929394305 -0.369013011 -0.21652782 -0.405529618 -0.888066113 -0.221612945 -0.409097314 -0.885170639 -0.328589588 -0.481245458 -0.812669456 0.474556863 0.204665869 0.856100261 0.208055317 0.413735181 0.886304796 0.0943392664 0.355901986 0.92974937 0.0669318959 -0.875208437 0.479093224 0.0108047044 -0.776005626 0.630633414 0.121271834 0.518511295 -0.846427321 -0.093354784 -0.987448454 0.12739867 -0.257614583 -0.951722085 0.166912585 -0.817835093 -0.0628658831 0.572008431 -0.841867447 -0.0181123577 0.539380372 -0.878500462 -0.115963057 0.463453889 -0.937588096 -0.0889363885 0.336182773 -0.748420835 -0.448824883 0.488285214 -0.704549432 0.0344176851 0.708819807 -0.307577282 -0.293966353 -0.904975116 -0.34230575 -0.158698201 -0.926089466 -0.365133524 -0.206075549 -0.907860339 -0.633896887 0.772087395 -0.0453403704 -0.1807895 0.966751277 -0.180850968 -0.543621659 0.83596766 -0.0750573128 -0.288271844 -0.364867896 0.885308266 -0.502735734 -0.659709394 0.558605731 -0.824805737 0.0683582574 0.561268806 -0.215840831 0.151702836 0.964571893 0.661019027 0.712872028 -0.234237656 0.477165937 0.823549509 -0.30672273 -0.967371106 0.25191173 0.0270863064 -0.951096237 0.251629293 0.179161102 -0.967576563 0.251782179 0.0200320687 -0.355458558 -0.00872117095 -0.934651375 -0.418473333 0.452355623 -0.78756237 0.253491759 -0.867618561 -0.427761525 -0.276642501 0.814191937 0.510451198 -0.678991258 -0.720541358 -0.14068079 -0.677138507 -0.722566545 -0.139215812 -0.800026655 -0.546442688 -0.247704968 -0.339293063 -0.324060857 -0.883099556 -0.329687297 -0.35142681 -0.876245081 -0.612726867 -0.320451707 -0.722410142 0.0480787829 0.854326785 0.517507672 -0.0557550825 0.873797357 0.483083427 0.238863751 0.947097361 0.214361072 0.170135617 -0.9053756 -0.38903591 -0.0350237973 -0.976893246 -0.210838556 -0.0639780611 -0.980814517 -0.184145883 -0.952596545 0.097259894 -0.288271219 -0.967890382 0.221709162 -0.118461929 -0.959199131 0.277334988 -0.054976169 -0.877591968 0.409139991 0.249873638 0.657569647 -0.168259501 -0.734364331 0.888404667 -0.202081144 0.412189633 0.999915242 0.012991664 -0.000841298082 0.935016334 -0.000828061777 0.354603738 -0.211713433 -0.797114313 -0.565496385 -0.267017514 -0.873475909 -0.407113552 -0.214069948 -0.847815633 -0.485162526 -0.382400066 0.842157364 0.380185783 -0.306074739 0.888145328 0.34280622 -0.220597416 0.939745605 0.261180043 -0.995789707 0.0913802609 0.00724987872 -0.999508739 0.0262268446 0.0171599165 -0.997627854 0.067982018 0.0108194463 -0.550332129 0.808643281 0.207919613 -0.598004699 0.616768301 0.5118469 -0.522258878 0.845375419 0.112187929 -0.66282469 0.350842088 -0.661493242 -0.325873226 0.361542612 -0.873552263 -0.612900674 0.332076848 -0.71699214 -0.578734934 0.36261031 -0.730465353 -0.589016318 0.353198588 -0.726849735 -0.642939329 0.300576121 -0.704473615 0.580255866 0.340798676 0.739702225 0.702624083 -0.0688277334 0.708224654 -0.946868777 0.320468009 0.0271986388 -0.723051012 -0.567167699 0.3943578 -0.718873739 -0.587104797 0.37219426 -0.731999338 -0.500021935 0.462768912 -0.273918837 0.70393914 0.65531534 -0.252675086 0.941429853 0.223305061 -0.318615675 0.326796532 -0.889768541 -0.127933756 0.991619051 -0.0180156231 -0.160288617 0.986381531 -0.0368653648 -0.710818529 0.343247324 -0.613936663 -0.716336489 0.331053376 -0.614219606 -0.712902725 0.338681757 -0.614055634 -0.133401111 -0.188374266 -0.972994983 -0.596047819 0.527708709 0.605186284 -0.517068148 0.415441602 -0.748364091 0.0526872836 -0.874924064 -0.48138541 -0.00871736649 -0.90832144 -0.418181926 -0.835392952 0.236419171 0.496210277 -0.237796232 0.918064535 0.317191482 -0.0630724654 0.98352915 0.169387966 -0.144664645 0.949204326 0.279433846 0.919902265 0.119091555 -0.373626918 0.859220445 -0.0866607651 -0.504212439 0.862862706 -0.0405068956 -0.503812611 -0.111346915 0.990246177 0.0837515816 -0.48589015 0.46644783 -0.739146292 -0.518806696 0.262840718 -0.813482881 -0.602468073 0.112895794 -0.790118158 -0.510587871 -0.618636131 -0.597151101 -0.514770567 -0.6284163 -0.5831846 -0.522490084 -0.646978617 -0.555358291 -0.0233796705 -0.0584484525 -0.998016596 -0.000473329448 -0.0118134795 -0.999930084 0.0349290334 -0.0486909635 -0.99820298 0 -0.140057147 -0.990143418 -0.0383160263 0.0303317588 0.998805225 -0.0212331079 0.0351420566 0.999156713 0.203914866 -0.891380847 0.404794961 0.900276303 -0.0712186918 -0.429453641 0.783118248 -0.194993556 -0.590511084 0.630373895 -0.292600155 -0.719036758 -0.92746681 -0.337705821 -0.160499498 -0.930870771 -0.330692619 -0.155312777 -0.93921119 -0.312610477 -0.141975492 -0.0234797467 -0.900965333 0.433255315 0.0112111084 -0.921475887 0.388273686 0.0877892897 -0.980697513 0.174715206 0.183512658 -0.978872955 -0.0901712254 0.180379882 -0.97388339 -0.137892306 -0.0164655894 -0.461533368 -0.886970043 -0.0390617326 -0.495084047 -0.867966592 -0.0265077967 -0.476551831 -0.878746688 0.315106481 -0.331987828 -0.889096141 0.27335161 -0.201951429 -0.940475702 0.127696469 0.566480815 0.814121068 0.0685795471 0.492778659 0.867448032 0.000601666747 0.402231216 0.915537953 0.307077795 0.338511467 -0.889445484 0.629025578 0.256750792 -0.73376143 0.146686673 0.307608306 -0.9401384 -0.114916191 -0.331829607 -0.936313748 -0.22226882 0.949730456 -0.220473632 0.611745119 -0.354018658 -0.707416952 0.607949615 -0.358101308 -0.708633006 0.54235661 -0.423876137 -0.725381494 0.67771399 -0.277219266 -0.681067705 -0.478283912 -0.165988028 0.862376094 -0.628550529 0.141099736 0.764862835 -0.700287282 0.250981927 0.668285728 -0.292359322 0.2523413 0.922415257 -0.133477315 0.397291899 0.907933354 0.746369839 0.0982241184 0.658243239 0.729248345 0.158880591 0.665547788 0.714655578 0.203450382 0.669234931 0.541023016 0.291944146 0.788709521 -0.329680592 0.38318795 -0.862831235 0.129679888 -0.991547227 -0.00415595807 0.114789911 -0.993284643 0.0144534903 0.131076857 -0.991354585 -0.00590653857 -0.969125152 0.0188175086 -0.245850325 -0.985084832 -0.156757578 -0.070956938 -0.987894773 -0.109073952 -0.110303 0.269563168 -0.937256157 0.221103236 0.479086161 -0.819236159 0.315164417 -0.145958707 0.92424196 -0.352807105 -0.720679879 0.363532841 0.590308785 -0.753823996 0.399356335 0.521789074 0.995656908 -0.0907973647 0.0205711219 0.996137023 -0.0868028924 0.0132790487 0.995968282 -0.0882743672 0.0159641188 0.686836839 0.276685685 0.672086477 0.489137262 -0.168700472 -0.855736494 -0.248364195 -0.877769232 0.40967837 0.990610301 -0.135215059 -0.0202030558 -0.127239361 0.91687274 -0.378357679 0.299859375 -0.928462088 0.219186097 0.289771527 -0.697333455 0.655559659 0.251876742 -0.962565958 0.100124605 0.416445583 -0.876341283 0.242072284 0.29956764 -0.812095404 0.50075978 0.595679402 -0.779519796 0.193687737 0.0411423109 -0.419305146 -0.906912625 0.123188555 -0.548843563 -0.82679826 0.197728097 -0.656708062 -0.727762401 0.57984072 -0.742623925 0.335103571 -0.89649272 -0.4413113 -0.0393085219 -0.953613162 -0.296828419 -0.0501477756 -0.983819783 -0.0840834752 -0.158204332 0.145639911 -0.989041567 -0.0242036656 0.988828301 -0.144760892 -0.0355365537 0.990741432 -0.126722693 -0.0487116091 0.982953429 -0.18372789 -0.00683011534 -0.262559235 -0.92360121 0.279326677 -0.0862053558 -0.863560915 0.496821046 -0.213048786 -0.972507179 0.0940213427 -0.335461438 -0.118786059 -0.934534907 -0.287641644 -0.1425623 -0.947068274 -0.398884028 -0.201152116 -0.894667149 -0.323127687 0.00560288224 -0.946338773 -0.0356655419 0.0979082808 -0.994556129 0.0876524597 0.134423807 -0.987039685 -0.116444185 0.127757594 0.984946072 -0.262109667 -0.069759436 0.962513447 -0.251560003 0.083464615 0.964236081 0.0782972798 0.22532241 0.971132994 -0.909393668 -0.10165628 -0.403322667 -0.963653624 0.0324659273 -0.265174836 0.939152181 -0.24746643 0.238230139 0.979543269 -0.0409654342 0.197019726 0.971346736 -0.153287977 0.181626961 -0.607093632 -0.787404299 0.106919363 0.25733304 0.179441854 0.94951582 -0.187983647 0.00497720717 -0.982159555 0.30641374 0.904703081 -0.296011776 0.34521991 0.795851529 -0.497436941 0.303506225 0.905129254 -0.297699451 -0.526459038 -0.656826854 -0.539832652 0.0878175944 0.107686542 -0.990298808 0.113694489 -0.790446043 -0.601887524 0.330260456 -0.755527377 -0.565779507 0.160766274 -0.786242187 -0.596638441 0.214938149 -0.433131576 0.875327706 0.0844475478 0.322396606 0.942830324 -0.376936376 -0.442913949 -0.813477814 0.00142406696 -0.983265281 0.182174116 -0.281728894 -0.949338496 0.139230937 0.0128802378 0.509837151 -0.860174477 -0.00142475741 0.491550267 -0.87084806 -0.0096622007 0.480873644 -0.876736701 0.431101978 0.463582844 0.774107277 -0.422953874 -0.0099637229 -0.906096458 -0.563384831 0.0222012773 -0.825896263 -0.485710829 0.020894764 -0.873869777 0.525606334 0.123051964 0.841781557 0.338052362 -0.161368102 0.927189827 0.328640729 0.0466651767 0.943301439 -0.36495012 0.926709235 0.0895624235 -0.0435376354 0.987877548 0.149004936 -0.014521285 0.988037944 0.153525919 -0.666943252 -0.244048983 -0.704007626 -0.797877252 0.430324674 0.422152251 -0.830495715 -0.545984685 -0.11035189 -0.830079734 -0.546650708 -0.11018458 -0.827885628 -0.549752176 -0.111256175 0.288715184 -0.95349133 -0.0865898877 0.268448591 -0.958332121 -0.0976468176 0.462367743 -0.620229483 -0.633665085 0.864316463 -0.437140107 -0.248727798 0.655422032 -0.615158021 -0.438180953 0.875519216 -0.420717567 -0.237619057 0.717557192 0.308859944 0.6242733 -0.405488223 0.910528362 0.0807304829 -0.222974345 0.7843799 -0.578818262 0.547027111 0.794882894 0.262530982 0.816363275 0.576254964 0.0384871177 0.81455791 0.525794566 0.245021403 0.318870425 -0.615197718 -0.721008658 0.852163136 0.468791068 0.23249273 0.683834732 -0.134799078 0.717076838 0.918157816 -0.0168450307 -0.395856708 0.782878757 -0.0363963805 -0.62110883 0.844595551 -0.0578225255 -0.532273293 0.552611411 -0.631500721 0.543900251 0.707945883 -0.0213858858 -0.705942869 -0.940645695 0.33858186 0.023410514 -0.105177715 0.877411544 -0.468066871 -0.823857248 -0.554500639 -0.117423259 0.78542769 0.42866239 -0.44648841 0.986958265 0.0227537081 -0.159360081 0.173065439 0.378993452 -0.90907222 0.22176747 0.41313076 -0.883256555 0.161907598 0.371021628 -0.914400816 -0.99947226 0.0323541909 0.0029076119 0.0431196317 -0.265255898 0.963213384 0.0375677571 -0.272744447 0.961352766 0.0394892953 -0.270155907 0.96200645 0.116407 0.987546802 0.105833754 0.120556012 0.989442289 0.0804378986 0.120412469 -0.852530539 -0.508618236 -0.935544848 -0.169498429 -0.309880883 -0.917694211 -0.20751521 -0.338784307 -0.965769589 -0.0630415827 -0.251624346 -0.0203226414 0.919154465 -0.393372715 0.0204460584 0.99640882 -0.082167238 -0.0135049401 0.998935044 -0.0441175252 0.162952393 0.986360431 0.0232303943 -0.824136972 -0.393815249 -0.407072246 -0.381766438 -0.391994178 0.83701551 -0.416560173 0.262116253 0.870501399 -0.596588433 -0.0889899656 0.797598302 0.870824933 -0.475182503 -0.125958562 0.844395041 -0.503317595 -0.183489487 0.80993551 -0.531993747 -0.246955827 -0.186520875 -0.980086207 0.068124637 -0.122542523 -0.519796014 0.845455766 -0.411451042 -0.87954998 0.238955855 0.887598932 -0.428773254 -0.168290451 0.000472437649 0.996111572 0.0880996436 0.877463162 0.240917608 -0.414749384 0.886121511 0.268516183 -0.377740234 0.865977764 0.210611835 -0.453569293 0.666529179 0.272801459 -0.693771064 0.756450236 0.178291529 -0.629281461 0.676393807 -0.578346848 0.456077188 0.247346401 0.705002129 0.664674222 0.338560969 0.898418725 0.279678792 -0.274876088 -0.649890542 -0.708579898 -0.151119053 -0.922032058 -0.356398553 0.982692063 0.116801955 0.143783137 0.909414828 0.339703619 0.239929333 0.993612587 0.0772087276 0.0822971165 0.185772568 0.95013386 0.250467926 0.997521639 0.046342738 -0.0529429838 0.999874711 0.000403735117 0.0158245433 0.976123154 0.162403554 0.144251987 -0.0833261013 0.743533492 -0.663486779 0.22655873 0.120368987 -0.966531157 -0.80381006 0.587500691 0.0934469476 -0.786481559 0.505003452 -0.355553418 -0.812162399 0.582866132 0.0256773885 -0.0705091804 -0.17704311 0.981674194 0.602303922 -0.0116941435 0.798181176 0.578744709 -0.147488147 0.802060962 -0.437677979 -0.0343109816 -0.898476899 0.000577335304 -0.358504057 0.933528006 -0.478643537 -0.0924750268 -0.873125851 -0.382719815 0.0419417247 -0.922911942 -0.368965775 0.059905488 -0.92751044 -0.255705595 0.197978005 -0.946265996 -0.966352105 -0.0189747773 -0.256522179 -0.143337131 0.986021578 0.0849464759 -0.170737267 0.969537139 0.175631732 -0.193843722 0.977684677 -0.0809767544 0.60088253 0.799237311 0.0126462169 -0.179988146 0.779836178 -0.599549651 -0.0618822649 0.972017169 0.226612583 0.539125264 0.429944605 0.724217892 0.819037855 -0.524133086 0.233369857 0.802646697 -0.546795785 0.238270089 0.750198543 -0.639360785 0.168582276 0.673358858 -0.271454245 -0.687677622 0.952647746 0.143012509 0.26834619 0.938451052 0.138827011 0.316285819 0.924718678 0.260153651 0.277876586 0.452340156 -0.440624416 0.775395691 -0.0606966168 0.973492205 0.220519468 -0.351540834 0.696527183 0.625514925 0.133176729 0.802183509 0.582035661 -0.156105444 0.935830891 0.31599313 -0.538244545 0.613026023 -0.578352749 -0.544667959 0.623468816 -0.560913026 -0.528802454 0.597876906 -0.602421045 -0.170740619 0.928853571 0.328753263 -0.295280844 0.3267425 -0.897802055 -0.207047597 0.44731313 -0.870081723 -0.22505714 0.178951442 -0.957771182 0.232960016 0.954326868 0.187055677 -0.240809411 0.708777189 -0.663057804 -0.661186934 -0.574401021 0.482592225 0.179617524 -0.949044764 0.258943141 0.0660530627 -0.967286408 0.244936824 0.0853090361 -0.965115905 0.24753511 -0.861724794 0.498800367 -0.0928901434 -0.800343931 0.586188138 -0.125829577 -0.811013699 0.57465148 -0.10969238 -0.942307711 0.280598909 -0.182538807 0.488147289 0.799142241 0.350833207 0.346377909 0.937633157 0.0294349045 -0.0337479785 -0.923702896 0.381620198 0.187297329 -0.969588876 0.15753451 0.635473549 0.640066206 -0.431843311 0.560175061 0.789486825 -0.250827551 0.368551463 0.664832175 -0.64974463 0.751282036 0.470977068 0.462337494 0.753120124 -0.653070092 0.0794327334 0.762899816 -0.646137536 -0.0221378412 0.680860698 -0.0899022594 -0.726874352 0.716878772 -0.117597312 -0.687208652 0.699082255 -0.125602573 -0.703923285 -0.317217588 -0.947891891 -0.0295627527 0.695473433 0.00942481589 0.718489945 -0.0722039714 0.966654062 0.245695964 -0.63208884 0.755571067 -0.171976954 0.114063293 0.983599365 -0.139720663 0.0502570383 0.96136111 -0.270664155 0.0726834908 0.971512914 -0.225565448 0.147222281 0.986739814 -0.0683383718 -0.0887630507 0.0828709751 -0.992599368 -0.309829682 0.195649028 -0.930444539 -0.246516585 0.163607538 -0.955228865 -0.807415783 -0.588622689 -0.0400378667 0.34483707 0.267275304 -0.899806261 -0.60529995 0.545887589 0.579326093 -0.37549755 -0.0892549232 -0.92251569 -0.0330995806 0.097160995 -0.994718134 -0.194427654 -0.0466715135 -0.979805946 -0.227233887 0.223554283 -0.947833478 -0.544076204 0.0208369717 -0.838777065 -0.60694629 0.403954327 -0.684424698 -0.290971488 0.387338161 -0.874816954 0.0587532185 -0.13207522 -0.989496946 0.067134589 0.157057315 -0.985305011 0.0467170365 -0.15791063 -0.986347675 -0.705976129 0.37552166 -0.600484133 -0.102411389 0.190190524 -0.976391017 -0.169686303 0.0396601781 -0.984699786 0.615948319 -0.0415001363 -0.786692739 0.619107544 0.0897302106 -0.78016299 0.305148274 0.0318005122 -0.951773763 0.287392259 0.00654852949 -0.957790613 0.204361126 -0.0345244072 -0.978286564 0.955233693 -0.148280159 0.25601083 -0.00449646404 -0.443408549 -0.896308362 -0.999981165 0.00189694355 0.00583585817 -0.999997675 0.00143211021 0.00162900274 -0.999976456 0.00392276235 0.00562930619 -0.99993968 -0.0103245797 0.00374981645 -0.99990195 -0.0140019078 0.000256092608 -0.999825597 0.0161512233 -0.0093773203 0.393198729 0.9164325 -0.0744733065 -0.022959996 0.980157495 -0.196885958 0.325104713 0.939869046 -0.104657166 -0.57114315 0.0100862393 -0.820788503 -0.651581049 -0.33749491 -0.679366827 -0.703547776 0.123851903 0.699772298 -0.723922908 0.149447784 0.673499048 -0.736023724 0.16532962 0.65645659 -0.753248513 0.18897368 0.630004466 -0.902323306 -0.384335101 -0.195190251 0.0057919221 0.999982238 0.00141781918 0.210145444 0.977641106 -0.00753587065 -0.164412826 0.978004873 0.128354475 -0.0245459639 0.999682784 -0.00564341526 -0.10261482 0.994683206 -0.00868925732 -0.806776881 -0.17473045 -0.564429224 -0.887034714 -0.133650631 -0.44193539 -0.982054353 -0.0475730672 -0.182499573 0.434131473 0.893177032 -0.117322601 -0.0750088692 -0.974505246 -0.211455002 -0.144909039 -0.987696588 -0.0587946996 -0.115820952 -0.98554647 -0.12362729 -0.0545378588 -0.965613246 -0.254198104 0.720929861 -0.359157145 -0.592677176 0.727356791 -0.372583628 -0.576310217 0.716083527 -0.349380314 -0.604282916 0.709514737 -0.336543947 -0.619134128 -0.34876433 -0.93325907 -0.0859705955 -0.00636388734 -0.999979615 -0.000491155079 -0.173814833 -0.98477006 -0.00403950084 -0.490180224 -0.861319423 -0.133612022 0.014243735 -0.999640882 -0.0226973835 0.148238212 -0.988927484 -0.00692045735 0.0505600795 -0.998449266 -0.0232966449 -0.0876089782 -0.996064007 -0.0134608801 -0.0166750904 -0.36712423 0.930022418 0.999976218 -0.00391668826 0.00567945978 0.999995232 -0.00248687621 0.00181679241 0.999997556 -0.000504016178 -0.00213903445 0.99990046 -0.0139945559 -0.00180613471 0.999954522 -0.00619986188 -0.00724509964 0.999818742 -0.0159295518 -0.0104258778 0.999977052 -0.00142012071 -0.00662834477 0.999331474 -0.0312217493 -0.0190198589 0.0779588521 -0.952127635 -0.295593202 -0.223092526 0.0202106722 -0.974587739 -0.181370035 0.0194580816 -0.983222425 -0.223310888 -0.0136329308 -0.974651933 0.893849552 0.30044958 -0.33281076 -0.532401323 0.759206235 0.374372423 -0.943967521 -0.0101683885 -0.329881608 -0.953998923 -0.0123849269 -0.29955405 -0.917660832 -0.00253915461 -0.39735651 -0.999845743 0.00195394293 0.0174545608 0.569206715 0.749069452 -0.338967085 -0.526074469 -0.849909067 -0.0300031137 -0.761841178 0.640219331 -0.0985762104 0.192339242 -0.946173072 0.260311604 0.887180924 0.38504535 -0.254263788 -0.99932152 0.00992265809 -0.0354691148 -0.990944505 -0.0166840367 -0.133231297 -0.99985826 0.00543592824 -0.0159336533 0.883698702 0.0255313832 -0.467359334 -0.0121458275 -0.992942929 -0.117969371 -0.0409417786 -0.951231003 -0.305750519 0.0144433761 -0.997921348 -0.0628042892 0.0218619257 -0.999067545 -0.0372299552 0.995995462 0.0807315409 -0.0384111032 -0.98899889 -0.135462195 -0.0594240278 -0.991189659 0.132446736 0.000955882075 -0.859372914 -0.193407983 -0.473361969 -0.707495987 0.350428432 -0.613717616 -0.748566389 -0.228859887 0.622311473 -0.717949927 -0.189133734 0.669907749 -0.730412841 -0.204881027 0.651552618 -0.696066201 -0.162658557 0.699309647 0.594085932 -0.480865657 0.644848883 -0.422087669 -0.00282582967 -0.906550586 -0.988857925 0.144524589 -0.0356744789 -0.983468533 0.180859387 -0.00891542528 -0.993264794 0.0476575904 -0.105611823 -0.265907258 0.0666206554 -0.961693823 -0.732697189 -0.490458906 0.471810192 -0.970769227 0.237662762 0.0335190594 -0.744873345 0.013944611 -0.667060137 -0.748399317 0.0136862481 -0.663107216 -0.012562355 0.0532878339 -0.998500168 0.0228410773 0.145902053 -0.989035308 -0.0948047116 -0.0156637784 -0.995372653 -0.0402348973 0.0505535491 -0.997910559 0.0486394167 0.0195335001 -0.998625398 -0.0525082201 -0.969537318 0.239249527 0.034065228 -0.27745375 0.960134864 0.671947241 -0.0317441076 -0.739918411 0.0924226493 -0.170776606 -0.980965555 -0.000997179071 -0.0350787416 -0.999384046 0.108625136 0.103237882 -0.988707483 0.0166517757 0.998796642 -0.0461298823 0.052090548 0.981748402 -0.182911649 -0.0392622724 0.99911648 -0.01498996 -0.149537146 0.988044143 -0.0375158712 0.685283363 -0.109872751 -0.719940782 0.69519031 -0.0989048779 -0.711988926 0.658633769 -0.138231769 -0.73965776 0.712276757 -0.207929626 0.670393229 0.725871325 -0.225447431 0.649834096 0.717136145 -0.214117363 0.663226604 0.702692389 -0.195948377 0.683979273 -0.99479568 0.0878752246 -0.051570002 0.99780643 0.00789438933 0.0657270327 0.99971664 -0.0217459854 0.00967955682 0.999141932 -0.00514446618 0.0410968438 0.999385655 -0.0330320038 -0.0117152184 -0.479888558 0.719449103 -0.50209552 0.64263171 -0.330080748 -0.691426933 0.320699871 0.857689559 -0.401895702 0.998600304 0.0363386124 -0.0384308659 0.252068669 0.646075964 -0.720449328 -0.981737018 -0.170217916 -0.0849603415 -0.955503523 0.106458656 -0.275099248 0.997293472 0.0732215568 0.00666058576 0.994608283 -0.0933490023 -0.045169618 0.998906612 -0.0375417545 -0.0278596096 0.990942121 0.131933287 0.0250474866 0.37139371 0.679144979 -0.633110404 -0.703735948 -0.350530386 -0.617967725 -0.722017348 -0.379299223 -0.578638911 -0.711429179 -0.362389266 -0.602115095 -0.691451252 -0.332227021 -0.641498506 0.0202746559 -0.0557876155 -0.998236775 0.0370007008 0.0174805764 -0.999162316 0.0421442948 0.0401778594 -0.998303354 0.0696967021 0.163146257 -0.984136999 -0.891098261 -0.224562764 0.394354463 -0.889082491 -0.277499706 0.364041537 -0.0770670846 -0.789275467 -0.609183788 0.997942388 -0.063291572 0.0102523826 0.930178344 -0.258003473 0.261155993 0.719316363 -0.0711075589 -0.691033721 -0.263594329 -0.0528590195 -0.963184297 0.120112255 0.340675443 -0.932476938 0.427856922 -0.0938534662 0.898960531 -0.0244274903 -0.967510879 0.251646519 -0.822104394 -0.556496501 -0.120233282 0.211959988 0.0233921073 0.976998329 -0.053610526 0.00502675166 0.998549283 -0.022133369 0.0119986059 0.999683022 0.0539789088 0.00406088307 0.998533845 0.0484120958 -0.0659993291 0.996644557 0.0371651426 0.0578794517 0.99763155 0.194150597 -0.0354335606 0.9803316 -0.137411386 -0.0489432476 0.989304125 -0.0498945862 -0.10824021 0.992871881 -0.135640368 -0.0880297869 0.986839652 -0.172991782 -2.30125752e-05 0.984923244 -0.0037318042 0.0501598753 0.998734236 0.00121130515 0.040371567 0.999184012 -0.396753639 0.0665699542 0.915508032 -0.94070673 0.250224829 0.229037881 0.468713671 -0.153630868 0.869887948 0.84401989 0.536223412 0.00974117685 0.922083318 0.157605588 -0.353444248 0.699651659 0.00973097887 -0.714417815 0.746658802 -0.0114072319 -0.665109396 0.737684965 -0.00724115828 -0.675106227 0.0928362086 0.0973284841 -0.990913033 -0.132544175 -0.0306341071 -0.990703583 0.217498586 -0.877538264 -0.4273417 -0.933856428 0.353546113 -0.0540122278 0.0231142957 -0.999732375 -0.000932241557 0.0416874811 0.96350646 0.264419049 -0.0777708665 -0.213183865 -0.973911881 -0.458314031 -0.343255341 -0.819831669 0.839681804 0.44840768 -0.306373954 0.651749969 -0.716976583 -0.247318685 0.149419397 -0.0184163693 -0.9886024 0.151311412 -0.0118796509 -0.988414764 0.1515259 -0.0111370757 -0.988390565 0.154321402 -0.00142901321 -0.988019645 -0.936890543 -0.277030528 -0.213284403 0.0691707879 0.16019693 -0.98465848 0.420861363 -0.172907874 0.890493453 0.988786697 0.0238464177 -0.147418439 -0.996791899 -0.0134847527 -0.0788926184 -0.770506442 0.309199244 -0.557418704 -0.999850273 0.014568435 0.00933959056 -0.0240469351 0.46197319 -0.886567831 0.90645802 -0.421512842 -0.0257058963 -0.944462299 0.25846228 -0.202948779 0.015718272 0.90323472 0.428858966 0.0102845617 0.90540868 0.424416453 0.0024588753 0.905622125 0.424078435 0.0175814051 0.898487449 0.438647002 0.00187437492 0.904144824 0.427222013 -0.00718063582 0.913359165 0.407091469 0.00274130399 0.906308711 0.422607332 -0.0824391469 0.923823297 0.373837292 -0.831603587 0.258306473 0.491643429 0.998754025 0.0411130972 0.0282866806 0.648817718 0.448901266 -0.614429235 0.675547004 0.400237501 -0.61923027 0.66402179 0.421844751 -0.617350817 0.691074133 0.369424701 -0.621242225 -0.997873724 -0.0528817065 0.0380990505 -0.954563558 0.290012449 -0.0685649291 -0.983083785 0.179970086 -0.0340147391 -0.984075665 -0.162670851 0.0716468841 0.0222078189 0.980337322 0.196075484 -0.595282733 -0.79946965 -0.0805402771 -0.0543760173 0.970214546 0.23606573 0.0537330024 -0.996477604 0.0643824637 0.174294904 -0.514934182 0.83932358 -0.18283695 -0.149403423 0.971724868 -0.207199693 -0.225793406 0.951885283 -0.136469796 -0.0111681418 0.990581274 -0.123102836 0.0271717366 0.992021859 0.999997616 0.000745615689 0.00205959217 0.999832094 -0.0110137314 -0.0146449795 0.996265352 -0.0859988779 0.00771525502 0.523569763 0.014563445 0.851858318 -0.753386676 0.464199066 -0.465755045 0.179356247 0.946836531 0.267080337 -0.522809148 0.588371575 -0.616838276 0.993508041 -0.0624219775 -0.0951064229 0.175344616 0.622276366 0.762906551 0.680762947 0.017789619 -0.732287765 -0.0762936398 0.735581398 0.673126459 -0.113224901 0.646245241 0.754683495 -0.0831474364 0.720103979 0.688866258 -0.11990349 0.628464818 0.768540919 0.0913074613 -0.209919974 0.973445714 0.850282788 0.488104284 0.196909741 -0.999867439 -0.0131430272 0.00961286575 -0.515984833 0.298253179 -0.802997351 -0.0353910401 -0.875027061 0.482778549 -0.0114120599 -0.901800334 0.432002157 0.0123235127 -0.905683756 0.423774719 -0.00700318115 -0.906642497 0.421841621 0.0126486542 -0.902574599 0.430347592 -0.943354905 0.263219535 -0.201982707 0.035771884 -0.00851006992 -0.999323726 0.999997079 -3.32817726e-05 0.00242823339 0.999963164 -0.0084231887 0.00165700808 0.999941587 -0.0105367713 0.00240322389 0.999973297 0.00729592238 0.000461519521 0.999862075 0.0158314053 -0.00501752272 0.213393584 -0.0769390911 0.973932028 0.894690454 0.00456984667 0.44666326 0.99641186 -0.084204644 0.00854125619</float_array>
          <technique_common>
            <accessor source="#normals_array" count="725" stride="3">
              <param name="X" type="float" />
              <param name="Y" type="float" />
              <param name="Z" type="float" />
            </accessor>
          </technique_common>
        </source>
        <vertices id="vertices">
          <input semantic="POSITION" source="#positions" />
        </vertices>
        <triangles material="scout_1a1a1a" count="564">
          <input semantic="VERTEX" source="#vertices" offset="0" />
          <input semantic="NORMAL" source="#normals" offset="1" />
          <p>0 0 1 1 2 2 3 3 4 4 5 5 6 6 7 7 8 8 9 9 10 9 11 9 11 10 10 10 12 10 13 11 1 11 14 11 12 12 9 13 11 14 15 15 14 15 16 15 17 16 9 13 12 12 17 16 12 12 18 17 18 18 12 19 19 20 20 21 21 21 22 21 23 22 24 23 25 24 26 25 27 26 28 27 29 28 30 29 31 30 29 28 31 30 24 31 23 22 29 32 24 23 32 33 26 25 28 27 33 34 26 35 34 36 33 34 35 37 26 35 36 38 35 37 33 34 37 39 38 40 39 41 40 42 41 43 37 44 42 45 31 30 43 46 27 47 44 48 28 49 24 31 31 30 42 45 35 50 45 50 27 50 46 51 30 29 29 28 34 52 26 25 32 33 33 53 34 54 27 55 45 56 33 56 27 56 36 57 33 57 45 57 45 58 35 37 36 38 44 48 47 59 28 49 28 49 47 59 48 60 34 61 47 62 44 63 46 64 49 65 50 66 51 67 46 51 50 68 52 69 34 69 32 69 53 70 38 40 37 39 53 70 54 71 38 40 54 72 55 73 38 74 56 75 57 76 58 77 59 78 57 79 60 80 61 81 41 82 55 83 62 84 58 77 63 85 64 86 55 73 54 72 65 87 58 77 62 84 66 88 67 88 68 88 69 89 70 89 71 89 72 90 39 91 73 92 74 93 75 93 76 93 77 94 78 94 79 94 80 95 81 95 75 95 82 96 83 96 84 96 80 97 74 98 79 99 32 100 43 101 52 102 85 103 86 104 87 105 61 106 88 107 20 108 89 109 90 110 91 111 92 112 93 112 94 112 89 113 95 113 96 113 97 114 89 115 98 116 90 117 89 118 97 119 92 120 99 121 93 122 100 123 101 124 99 125 96 126 102 127 91 128 93 129 103 130 104 131 90 132 105 133 98 134 105 135 106 136 98 116 90 110 98 137 91 111 102 138 95 139 89 140 86 104 92 141 94 142 103 130 106 143 104 131 93 122 99 121 107 144 93 122 107 144 103 145 101 146 108 147 107 148 104 149 106 149 105 149 102 127 96 126 95 150 109 151 105 133 90 132 109 152 90 117 97 119 109 152 97 119 110 153 64 86 88 154 55 73 111 155 112 156 113 157 113 158 112 159 61 160 64 161 112 156 111 155 114 162 115 163 56 164 116 165 117 166 118 167 12 168 119 169 120 170 12 168 120 170 19 171 119 172 18 18 120 173 17 174 18 174 119 174 68 175 121 176 122 177 88 178 123 179 20 180 124 181 125 182 126 183 127 184 42 45 43 46 127 184 43 46 128 185 42 186 127 187 126 188 43 101 32 100 128 189 32 100 129 190 128 189 32 191 48 192 129 193 130 194 131 195 132 196 34 61 133 197 47 62 134 198 48 60 47 59 133 199 134 200 47 201 135 202 134 200 133 199 133 203 129 204 136 205 51 206 50 66 137 207 51 208 137 209 138 210 139 211 140 211 141 211 140 212 142 212 141 212 142 213 140 214 139 215 143 216 144 217 3 218 128 185 145 219 127 184 146 220 127 184 145 219 134 198 147 221 48 60 136 205 48 222 147 223 146 224 138 225 124 226 138 210 137 209 148 227 129 190 149 228 128 189 48 222 136 205 129 204 135 229 133 229 136 229 135 230 141 230 134 230 141 231 147 221 134 198 150 232 51 67 138 233 151 234 152 235 153 236 4 4 3 3 154 237 155 238 156 239 78 240 138 241 146 220 145 219 135 242 136 243 142 244 142 213 139 215 135 245 14 246 157 247 13 248 63 85 57 76 59 249 158 250 63 85 59 249 159 251 53 70 5 5 54 71 53 70 159 251 57 79 160 252 161 253 57 79 161 253 162 254 112 255 5 256 53 257 163 258 64 259 54 260 163 258 54 260 159 261 160 262 164 262 165 262 5 263 143 216 3 218 4 264 118 265 159 266 161 267 160 267 165 267 166 268 163 258 159 261 162 254 161 253 167 269 168 270 154 271 143 272 117 166 159 273 118 167 169 274 168 274 143 274 170 275 167 276 161 277 65 87 171 278 172 279 162 254 173 280 59 78 153 236 59 249 173 281 174 282 159 282 117 282 107 283 108 284 175 285 174 286 166 268 159 261 176 287 116 288 118 289 177 290 178 291 166 268 179 292 172 279 171 278 153 236 173 281 151 234 162 293 180 294 174 295 162 254 151 296 173 280 177 290 166 268 174 286 180 297 177 297 174 297 151 298 162 299 181 300 182 301 151 234 181 302 152 235 151 234 182 301 183 303 181 304 117 305 182 306 181 304 183 303 20 307 123 307 184 307 162 293 185 308 180 294 185 309 186 309 182 309 180 310 182 311 183 312 116 313 183 303 117 305 177 314 180 310 183 312 179 292 171 278 187 315 182 316 186 317 152 318 188 319 153 236 152 235 187 315 153 236 188 319 186 317 188 320 152 318 91 111 98 137 96 321 155 322 189 322 190 322 181 300 162 299 174 323 189 324 191 324 192 324 121 176 68 175 193 325 109 326 194 327 195 328 196 329 193 329 68 329 130 194 132 196 106 143 197 330 198 331 85 332 107 144 175 333 130 334 107 144 130 334 103 145 194 335 109 152 110 153 199 336 22 337 200 338 195 339 131 340 105 341 201 342 202 342 203 342 195 343 132 343 131 343 132 344 195 345 204 346 193 347 67 348 66 349 194 350 110 351 205 352 22 353 206 353 169 353 202 354 204 354 195 354 205 352 132 344 204 346 194 355 202 356 195 357 207 358 208 359 131 195 209 360 203 360 202 360 210 361 85 103 211 362 201 363 203 363 209 363 130 194 207 358 131 195 209 364 194 350 205 352 212 365 210 366 213 367 175 333 207 368 130 334 207 369 213 367 208 370 210 366 211 371 213 367 21 372 113 372 206 372 129 190 133 373 149 228 164 374 160 375 69 376 214 377 64 259 163 258 215 378 216 379 177 290 112 255 217 380 5 256 214 377 218 381 64 259 165 382 164 383 170 384 170 384 164 383 71 385 217 386 200 338 143 216 112 156 219 387 217 388 64 161 218 389 219 387 218 390 176 390 219 390 218 381 214 377 178 291 164 391 69 391 71 391 217 388 219 387 199 392 179 292 220 393 172 279 216 394 215 395 221 396 200 397 169 397 143 397 219 398 169 399 206 400 222 401 218 381 178 291 219 387 206 402 199 392 65 87 172 279 223 403 224 404 223 403 172 279 223 403 224 404 225 405 226 406 227 407 176 408 216 379 222 401 178 291 218 409 222 409 226 409 153 236 187 315 171 278 225 410 228 411 229 412 225 405 224 404 228 413 230 414 13 414 231 414 221 415 222 415 216 415 232 416 222 417 221 418 224 404 172 279 220 393 233 419 226 420 222 421 233 419 222 421 232 422 224 404 234 423 228 413 234 423 235 424 228 413 236 425 51 67 237 426 220 393 179 292 187 315 226 427 233 428 215 429 238 430 234 423 220 393 239 431 221 396 215 395 239 431 235 432 221 396 240 433 232 434 235 435 240 436 229 436 232 436 228 413 235 424 233 428 238 430 220 393 187 315 234 423 238 430 235 424 241 437 242 437 243 437 113 157 123 438 111 155 16 439 0 439 8 439 244 440 81 441 156 442 156 442 245 443 244 440 14 444 1 445 16 446 7 7 16 447 8 8 8 448 0 448 6 448 223 403 56 449 58 77 10 450 9 451 7 452 7 452 246 453 247 454 10 450 7 452 247 454 246 453 75 455 82 456 247 454 246 453 82 456 81 457 83 458 82 459 75 455 81 460 82 456 81 457 244 461 83 458 244 461 248 462 83 458 248 463 249 464 250 465 248 462 250 465 83 458 249 464 193 466 250 465 193 466 251 467 250 465 4 264 168 468 118 265 169 399 219 398 168 468 42 186 126 188 125 469 106 143 103 130 130 194 252 470 253 471 254 472 253 471 252 470 255 473 255 473 252 470 256 474 257 475 254 472 253 471 72 476 73 477 40 478 116 288 176 287 227 479 52 102 43 101 31 480 73 477 41 82 40 478 49 481 46 482 23 483 46 482 29 484 23 483 88 178 111 485 123 179 211 362 85 103 87 105 87 105 258 486 208 487 211 362 87 105 208 487 184 488 86 104 94 142 254 489 184 488 104 490 184 488 94 142 104 490 258 486 254 489 105 341 208 487 258 486 131 340 131 340 258 486 105 341 254 489 104 490 105 341 259 491 192 492 249 493 260 494 72 476 40 478 231 495 157 496 15 497 261 498 231 495 15 497 126 499 127 500 146 501 146 501 124 502 126 499 237 426 51 67 150 232 30 29 46 51 236 425 236 503 252 504 52 505 30 506 236 503 52 505 262 507 237 426 149 508 237 426 150 232 149 508 252 504 262 507 133 509 52 505 252 504 34 510 262 507 149 508 133 509 34 510 252 504 133 509 51 67 236 425 46 51 110 351 106 511 132 344 63 85 58 77 57 76 263 512 262 513 264 514 265 515 263 512 264 514 258 516 243 517 242 518 264 514 242 518 266 519 264 514 266 519 265 515 200 520 22 520 169 520 162 254 59 78 60 80 70 521 240 522 185 523 229 412 240 522 70 521 70 521 185 523 162 254 70 521 162 254 167 269 194 355 209 524 202 356 223 403 114 525 56 449 77 526 79 527 246 528 77 529 0 0 252 470 0 0 2 2 252 470 252 470 254 472 77 529 199 336 200 338 217 386 239 530 233 428 235 424 224 404 220 393 234 423 74 98 80 97 75 531 246 532 76 532 75 532 235 533 232 416 221 418 81 534 78 534 156 534 267 535 268 536 269 537 112 159 53 538 61 160 184 488 87 105 86 104 2 539 1 540 122 541 2 539 122 541 262 507 2 539 262 507 252 504 122 541 121 542 262 507 89 115 96 543 98 116 104 544 94 544 93 544 92 545 100 123 99 125 158 250 62 84 63 85 44 546 27 55 34 54 101 146 107 148 99 547 92 548 86 549 100 550 86 549 198 551 100 550 97 114 106 136 110 552 188 320 186 317 240 433 56 164 115 163 57 553 245 554 190 555 244 556 69 557 57 553 115 163 60 80 57 79 162 254 102 138 89 140 91 558 245 554 155 559 190 555 0 560 77 526 7 561 246 528 7 561 77 526 122 562 230 563 261 564 66 565 68 566 122 562 122 562 261 564 66 565 78 567 189 567 155 567 198 331 86 568 85 332 215 429 233 428 239 530 115 163 114 162 225 410 188 320 240 433 238 569 119 169 193 466 66 565 193 466 119 169 251 467 66 565 261 564 119 169 261 564 15 570 17 571 261 564 17 571 119 169 15 570 16 572 17 571 16 572 9 451 17 571 16 572 7 452 9 451 191 573 189 574 78 575 191 573 78 575 254 489 191 573 254 489 258 486 78 575 77 576 254 489 167 577 71 578 70 579 85 580 210 581 270 582 85 580 270 582 197 583 52 584 31 584 30 584 178 291 177 290 216 379 74 585 76 586 79 587 76 586 246 588 79 587 82 589 84 589 271 589 128 189 149 228 145 590 144 591 143 272 154 271 26 25 35 592 27 26 227 593 226 427 215 429 147 594 141 595 142 244 142 244 136 243 147 594 149 596 150 597 138 598 145 599 149 596 138 598 272 600 144 591 154 271 125 601 25 602 24 603 125 601 24 603 42 604 78 605 81 606 79 607 79 607 81 606 80 608 225 405 114 525 223 403 73 609 39 610 38 74 5 5 4 4 159 251 161 277 165 611 170 275 7 612 6 612 0 612 178 291 214 377 163 258 171 278 62 84 158 250 4 264 154 613 168 468 62 84 171 278 65 87 71 578 167 577 170 614 118 289 219 615 176 287 153 236 158 250 59 249 153 236 171 278 158 250 109 326 195 328 105 616 178 291 163 258 166 268 22 617 21 617 206 617 37 618 272 618 3 618 174 323 117 619 181 300 21 620 20 621 260 622 144 623 21 620 260 622 237 624 87 625 272 626 272 626 87 625 21 620 144 623 272 626 21 620 260 622 20 621 72 627 236 628 272 626 37 629 184 630 236 630 20 630 123 631 21 620 87 625 87 625 184 632 123 631 236 628 37 629 39 633 236 634 39 91 72 90 236 635 72 635 20 635 182 311 180 310 185 636 236 628 237 624 272 626 113 158 61 160 20 637 215 638 183 639 116 640 84 641 250 465 251 467 271 642 84 641 251 467 247 454 271 642 10 450 271 642 251 467 12 168 251 467 119 169 12 168 10 450 271 642 12 168 55 643 88 107 61 106 82 644 271 644 247 644 13 645 230 645 122 645 1 646 13 646 122 646 61 160 53 538 41 43 83 458 250 465 84 641 156 239 155 238 245 647 190 648 248 648 244 648 249 649 248 649 259 649 192 650 259 650 248 650 248 651 190 652 192 653 190 652 189 654 192 653 230 655 231 655 261 655 231 656 13 656 157 656 154 657 3 657 272 657 38 74 55 73 73 609 193 325 249 658 121 176 192 492 121 659 249 493 67 660 196 660 68 660 184 661 254 472 257 475 175 285 108 284 273 662 193 347 196 663 67 348 232 422 229 664 233 419 110 351 132 344 205 352 101 665 100 666 108 667 108 667 100 666 273 668 100 666 198 669 197 670 273 668 100 666 212 671 100 666 197 670 212 671 197 670 270 672 212 671 88 154 64 86 111 673 212 365 270 674 210 366 213 675 175 676 212 677 212 677 175 676 273 678 211 371 208 370 213 367 204 679 201 680 209 681 205 682 204 679 209 681 21 683 123 438 113 157 201 684 204 684 202 684 258 516 242 518 264 514 264 514 262 513 258 516 206 402 113 685 199 392 199 686 113 686 274 686 274 687 113 687 20 687 22 688 199 689 274 690 274 690 20 691 22 688 121 692 192 693 258 516 258 516 192 693 191 694 258 516 262 513 121 692 183 695 215 378 177 290 64 161 219 387 112 156 223 403 58 77 65 87 160 375 57 696 69 376 115 163 229 412 69 557 115 163 225 410 229 412 5 263 217 386 143 216 207 368 175 333 213 697 97 114 98 116 106 136 118 265 168 468 219 398 218 698 226 406 176 408 157 247 14 246 15 699 28 700 48 192 32 191 215 638 116 640 227 701 37 702 3 703 260 704 3 703 144 705 260 704 40 706 37 706 260 706 135 707 139 707 141 707 50 66 49 65 137 207 55 83 41 82 73 477 229 412 70 521 69 557 253 471 255 473 269 537 252 470 236 708 256 474 253 471 269 537 268 536 236 708 184 661 267 535 256 474 236 708 255 473 255 473 236 708 269 537 269 537 236 708 267 535 253 471 268 536 257 475 267 535 184 661 257 475 268 536 267 535 257 475 16 446 1 445 0 709 49 710 23 711 137 712 23 711 25 713 137 712 137 712 25 713 125 182 148 714 137 712 125 182 148 714 125 182 124 181 233 419 229 664 228 715 185 523 240 522 186 716 53 538 37 44 41 43 87 717 237 718 242 719 237 718 262 513 263 512 87 717 242 719 241 720 237 718 263 512 265 515 241 720 243 517 258 516 241 720 258 516 275 721 237 718 265 515 242 719 265 722 266 722 242 722 275 721 258 516 87 717 241 720 275 721 87 717 240 433 235 435 238 569 187 315 188 723 238 430 148 724 124 226 138 225 19 20 120 173 18 18</p>
        </triangles>
      </mesh>
    </geometry>
  </library_geometries>
  <library_visual_scenes>
    <visual_scene id="scene">
      <node id="torso_link">
        <instance_geometry url="#geometry">
          <bind_material>
            <technique_common>
              <instance_material symbol="scout_1a1a1a" target="#scout_1a1a1a" />
            </technique_common>
          </bind_material>
        </instance_geometry>
      </node>
    </visual_scene>
  </library_visual_scenes>
  <scene>
    <instance_visual_scene url="#scene" />
  </scene>
</COLLADA>