<?xml version='1.0' encoding='utf-8'?>
<COLLADA xmlns="http://www.collada.org/2005/11/COLLADASchema" version="1.4.1">
  <asset>
    <created>2026-09-14T00:00:00Z</created>
    <modified>2026-09-14T00:00:00Z</modified>
    <unit name="metre" meter="1" />
    <up_axis>Z_UP</up_axis>
  </asset>
  <library_effects>
    <effect id="scout_1a1a1a_effect">
      <profile_COMMON>
        <technique sid="common">
          <lambert>
            <emission>
              <color>0 0 0 1</color>
            </emission>
            <ambient>
              <color>0.05 0.05 0.05 1</color>
            </ambient>
            <diffuse>
              <color>0.1 0.1 0.1 1</color>
            </diffuse>
          </lambert>
        </technique>
      </profile_COMMON>
    </effect>
  </library_effects>
  <library_materials>
    <material id="scout_1a1a1a" name="scout_1a1a1a">
      <instance_effect url="#scout_1a1a1a_effect" />
    </material>
  </library_materials>
  <library_geometries>
    <geometry id="geometry" name="left_shoulder_pitch_link">
      <mesh>
        <source id="positions">
          <float_array id="positions_array" count="201">-0.037294779 0.0621106736 -0.046566166 -0.0300798789 0.0490024462 -0.045550447 -0.034290947 0.0288897902 -0.0284672938 -0.0375848189 0.0823144689 -0.0327295959 -0.0301650092 0.0796674117 -0.036537461 -0.0344177112 0.0838140249 -0.00543978112 -0.0283724554 0.100604571 -0.037828248 -0.0284274742 0.0106689781 0.00235340651 -0.00462133298 0.0395603813 0.0303228013 -0.0282313377 0.037802279 0.0280404054 -0.00360348471 0.00966534484 -0.0348449685 -0.00274504395 0.00727534667 -0.0132621359 -0.0288098715 0.0125769824 -0.0377643481 -0.00853040256 0.0284459647 -0.058531303 0.00464492803 0.00539252115 -0.0319945589 0.0190772656 0.00141771941 -0.0281059481 -0.0159304831 0.00160056585 -0.0283704381 -0.0332226641 0.038752161 0.00778294913 -0.0340056233 0.0289275162 -0.00747735798 -0.0286843963 0.078141965 0.02752712 0.000693139504 0.101193465 0.00165328465 -0.0283239875 0.102917962 -0.000406030449 0.00411737338 0.0377471857 -0.0620876588 0.00046976583 0.0747382566 -0.0621654131 0.00110663834 0.0548697822 -0.0558709987 0.000637652818 0.10073784 -0.0367667563 0.00146437564 0.0857744813 -0.0457043163 0.00238081417 0.0394204631 0.0241182558 0.000821396301 0.0742508098 0.029246971 0.00712437043 0.0184516963 0.0314546414 0.022756394 0.0743826553 0.0235388763 0.00258391164 0.0820370615 0.0121356826 0.00512709422 0.0168746356 -0.0463670902 0.0268295016 0.0950387716 -0.00627949554 0.020744592 0.0978514701 0.000670221401 -0.010499387 0.00208586245 0.00167441217 -0.00855063554 0.0027006059 0.0308094472 -0.0346571468 0.00187674502 0.00166116387 -0.00190791348 0.00287139625 -0.00986224972 0.00149423047 0.104979239 -0.0183567498 0.000533122278 0.0229402501 0.0103484942 0.00147469249 0.0139740286 -0.00136539817 0.02342101 0.0160223786 -0.000541548128 -0.00282765995 0.0159903839 0.0109003354 0.00170150038 0.0139378794 -0.0345720202 0.0152342431 0.00455493201 0.0125405947 0.00101128861 0.00140643155 0.0230182447 0.00146021834 0.00497825956 0.0345874876 0.0325350128 0.00137641293 0.0127940318 0.00313570513 0.00568211824 -0.0131042209 0.0104698939 0.00188638887 -0.00297583384 0.000892221229 0.0027855325 0.0101977391 -0.0279815998 0.0374873728 -0.0608423986 -0.0280926749 0.0758681074 -0.0608145818 0.000954292656 0.0882588923 0.0206003413 0.0262281634 0.0679873675 0.0216787998 0.0218198504 0.0389871784 0.0244550407 0.0240877271 0.0389770567 -0.0557051413 0.0269911587 0.0239155442 -0.0387605317 0.0267382972 0.0959450901 -0.027085105 0.0226540212 0.0976793617 -0.0330763683 -0.0340224318 0.0681435615 0.0119844349 0.0272650328 0.03467438 0.0168981664 -0.00831125677 0.00567971962 0.0128514785 0.0266261008 0.0681734532 -0.0544771776 0.0233948771 0.0156521685 -0.0323553979 0.0236545764 0.0739096105 -0.056710545</float_array>
          <technique_common>
            <accessor source="#positions_array" count="67" stride="3">
              <param name="X" type="float" />
              <param name="Y" type="float" />
              <param name="Z" type="float" />
            </accessor>
          </technique_common>
        </source>
        <source id="normals">
          <float_array id="normals_array" count="531">-0.650721669 -0.407795548 -0.640518665 -0.925454557 -0.170139998 -0.338505834 -0.976501107 -0.177473813 -0.122264698 -0.218013182 0.54931891 -0.80667156 0.295063168 0.951551497 -0.0865304321 -0.986242414 0.131959766 -0.0995617211 -0.991726518 0.0631460473 -0.111763418 -0.984529734 0.154007703 0.0835633576 -0.0622278489 -0.915883183 0.396592617 -0.0597385354 -0.668461561 0.741343677 -0.0190172344 -0.687290609 0.726133585 -0.107035182 -0.823964298 -0.556440771 -0.0663156733 -0.995474696 0.0680617616 -0.119550593 -0.902430594 -0.41391629 -0.0152544109 -0.687381923 -0.72613591 -0.0462045744 -0.703864455 -0.708829939 0.00178992271 -0.695984781 -0.718054295 -0.0193771701 -0.633849502 -0.773213625 -0.979129553 -0.101514049 0.176068932 -0.985688627 -0.158333465 0.0578659065 -0.963357925 -0.245643124 0.107707612 0.545191467 0.237788633 -0.803879857 -0.0502334088 0.421884447 0.905256927 -0.0131081128 0.903973341 0.427387834 -0.0168776829 0.9415012 0.336586773 -0.252206266 -0.0269026291 -0.967299461 -0.0440304242 -0.0696760416 -0.996597469 -0.0504137315 -0.029421404 -0.99829495 0.973799229 0.0964570343 0.205939546 0.976069152 0.148701891 -0.158672005 0.943053484 0.0580837205 -0.327530831 0.935384691 0.0921515524 -0.341414034 0.83952266 -0.000177205045 -0.543324649 0.104083307 0.901169062 0.420786083 -0.0283143446 0.806059241 0.591157138 0.0045582708 0.730748177 0.68263191 0.207047254 -0.582172096 -0.786261439 -0.036463201 -0.744186759 -0.666975617 0.845529079 0.377846807 0.377243161 0.971358359 0.176955596 0.158586338 0.741849422 0.499520868 0.447368175 0.0198081546 -0.999750316 -0.0103392983 0.167728528 -0.985786676 0.00958107319 0.0211763903 -0.99971348 0.0111568188 -0.00905468967 -0.999671578 0.0239736512 0.0219493955 -0.998409808 0.0519241802 -0.118543029 0.989449084 -0.0832953304 -0.0870437026 0.987874031 -0.128562495 0.0922923908 -0.711680174 0.696414709 0.0509496666 -0.791066229 0.609605134 0.103885807 -0.726160526 0.679631293 -0.0434618965 -0.784494162 0.618611276 0.902138591 0.36465317 0.230594903 0.93875134 0.327091515 0.108429916 0.888684571 0.312187046 0.335825861 -0.38634029 0.885429502 -0.258371323 0.178602859 0.979537487 0.092775628 0.18630445 0.982485354 -0.00362589187 0.18025507 0.983258605 0.0266569853 0.215793237 0.975578189 -0.0409933627 -0.750806272 -0.572734654 0.329036415 -0.0988374576 0.985332072 -0.139110953 0.230187327 0.972624302 -0.0318704545 0.263939828 0.964518547 0.00630069571 0.0352716893 -0.0623644181 -0.997429967 -0.0472180173 0.000587300165 -0.998884439 0.925397992 -0.370765448 0.0785593241 0.988009572 0.105790883 0.112451732 0.98797524 0.074315533 0.135580555 0.987762392 0.114206843 0.106218137 0.195236534 -0.0847465694 0.977087855 0.250063092 -0.142780975 0.957643986 0.252987057 -0.131883174 0.958438516 0.110284567 -0.0071929465 0.993874013 -0.0150659531 0.0975544676 0.995116174 -0.220820203 -0.658874333 -0.719112635 0.12337999 0.485708266 0.865369797 -0.0019186422 0.588410079 0.808560371 0.944006145 -0.0244887788 -0.329017758 -0.987147927 -0.0815345123 0.137445077 -0.96225369 -0.252795219 0.100809082 -0.978699088 -0.16669488 0.119836926 -0.956769466 -0.274623662 0.0957812071 0.976614654 0.143632919 0.159979343 0.188094273 -0.711429179 -0.677118242 0.216920555 -0.735585988 -0.641762197 0.159142986 -0.696914911 -0.699273229 -0.187301487 0.867541075 0.460750043 0.182119325 0.98155272 0.0581963249 0.099186942 0.971849978 0.213704437 0.173930317 0.984584033 0.0185066909 -0.00232755579 0.998092175 -0.0616979226 -0.964429557 0.105444856 0.242398351 -0.976402104 0.0354575515 0.213029906 0.199497163 0.979333043 -0.0332811363 0.221312255 0.974824727 -0.0271605328 0.995033503 -0.0331317484 -0.0938648582 0.996008694 0.0336050764 0.0826883614 0.99322921 0.0808157325 0.0834537596 0.994722605 0.064233616 0.0800062269 0.997605681 0.017273549 0.0669663921 0.123137578 0.69330138 -0.71004957 0.210635111 0.509834588 -0.834087253 0.106320433 0.628266931 -0.770698786 0.0760648921 -0.737980843 0.670520961 0.0727834105 -0.699655235 0.710763812 -0.0287504271 0.255036831 0.966503799 -0.0602985993 0.0377742536 0.997465372 -0.115533568 0.0811941028 0.989979565 -0.0278612953 -0.876684666 0.480257958 0.244623244 -0.743749917 -0.622089684 -0.285473108 -0.0294500552 -0.957934141 0.193597764 0.92231077 -0.334458947 -0.0865126625 0.72284317 0.685575187 -0.233119622 0.192952707 0.953113079 -0.400206178 0.363820165 0.841112316 -0.0330934152 -0.99903816 0.028768111 -0.0428355075 -0.998003304 0.0464172177 -0.0484380871 -0.998750627 0.012284724 -0.0291030332 -0.99653393 0.0779304206 0.063739717 -0.996321023 0.0572857484 -0.988092065 -0.0963439643 0.119966522 -0.996039391 -0.0494144522 0.0739170834 0.452510387 -0.889240801 -0.0669712946 0.895616353 0.294449747 0.33342275 0.00619580736 0.688894033 -0.724835575 0.00996939838 0.691091299 -0.722698748 0.0229608491 0.698531926 -0.715210378 0.16660355 0.00682865502 -0.986000299 0.141955301 -0.153125763 -0.977957666 0.12961866 0.177248657 -0.97559309 0.203735903 -0.285116822 -0.936589599 -0.372561485 0.927714705 -0.0233109817 -0.193852991 0.981030345 0.000713878719 -0.284330755 0.95831424 -0.0281040277 -0.500881016 0.857853234 0.114917502 -0.1849325 0.977311194 0.103260919 -0.206283242 0.965739846 0.157460451 0.679792821 -0.726484358 0.100509755 0.660604358 0.533407271 0.528278828 -0.957404435 0.274014592 0.0910644382 -0.96862042 -0.0813708529 0.234847218 -0.971919656 -0.193764135 -0.133520037 -0.993309438 -0.0347466096 -0.11013183 -0.994342327 0.0332075134 -0.100898795 0.127977297 -0.641788781 -0.756127596 0.0884116143 0.761257231 -0.642394602 0.160038725 0.815394521 -0.556344688 0.262121558 0.369728267 -0.891399622 0.97937429 -0.202052072 0.000981611083 0.998409808 -0.0553568341 0.0106538059 0.999028444 -0.00836638827 -0.0432692431 0.991316319 -0.130336195 -0.0174473058 -0.875507236 0.478439033 0.0676994547 -0.965026617 0.231614307 -0.122794159 -0.963941276 0.238618538 -0.117806688 -0.972030044 0.10081923 -0.212115824 0.986049414 0.143489346 0.0843647346 -0.080085367 0.030854119 0.996310353 -0.00772141712 0.680650413 -0.732567668 0.159980774 0.0102335513 -0.987067103 0.0872087628 -0.996159971 0.00774233975 0.0837478712 -0.996473014 0.0052774311 0.0924961567 -0.995646536 0.0115100285 0.21262601 -0.256911963 -0.942754686 0.792509615 -0.0623926073 0.606659412 0.979125798 -0.203249246 0.00156086613 0.942021132 -0.331197739 0.0538913049 0.969755352 -0.0745366737 -0.232419416 0.811077595 0.411039531 -0.416172653 0.80257535 0.417266041 -0.426335335 0.876920819 0.353917301 -0.325195998 0.888807416 0.341396987 -0.30572772 0.999990404 0.000272378675 -0.00437175017 0.0786132067 -0.996903896 0.00162225205 0.459295869 0.458005518 0.761103332 0.146497682 0.954916298 -0.258211732</float_array>
          <technique_common>
            <accessor source="#normals_array" count="177" stride="3">
              <param name="X" type="float" />
              <param name="Y" type="float" />
              <param name="Z" type="float" />
            </accessor>
          </technique_common>
        </source>
        <vertices id="vertices">
          <input semantic="POSITION" source="#positions" />
        </vertices>
        <triangles material="scout_1a1a1a" count="138">
          <input semantic="VERTEX" source="#vertices" offset="0" />
          <input semantic="NORMAL" source="#normals" offset="1" />
          <p>0 0 1 1 2 2 0 3 3 3 4 3 5 4 4 4 3 4 6 5 4 6 5 7 7 8 8 9 9 10 10 11 11 12 12 13 10 11 12 13 13 14 14 15 15 16 16 17 14 15 16 17 10 11 17 18 18 19 7 20 1 21 0 21 4 21 19 22 20 23 21 24 22 25 13 26 23 27 23 28 24 28 22 28 23 29 25 29 26 29 27 30 28 31 29 32 28 33 30 34 31 35 13 14 22 36 32 37 30 38 33 39 34 40 35 41 36 42 37 43 38 44 35 41 37 43 38 44 37 43 16 45 21 24 39 46 25 47 40 48 41 49 42 50 43 51 7 8 11 12 13 14 14 15 10 11 44 52 14 53 32 54 45 55 46 55 47 55 47 56 48 57 45 58 45 58 48 57 49 59 45 60 49 60 50 60 51 61 45 61 50 61 48 57 15 62 49 59 15 62 14 63 49 59 13 26 52 64 23 27 52 64 53 65 23 27 29 66 47 66 46 66 54 67 28 68 31 69 55 70 30 71 28 72 55 70 27 73 56 74 12 13 52 75 13 14 20 76 31 35 34 77 46 78 27 30 29 32 21 24 20 23 39 46 38 79 51 80 11 81 43 82 11 81 51 80 33 39 30 38 55 83 44 84 57 85 58 86 50 87 49 87 38 87 59 88 60 89 25 90 21 24 25 47 6 91 19 92 61 93 17 18 59 88 20 94 33 95 7 8 12 13 11 12 27 30 46 78 40 96 51 97 49 98 41 99 40 100 51 97 41 99 26 101 25 102 60 103 40 48 62 104 27 105 8 9 7 8 43 51 28 106 8 107 29 108 27 105 62 104 56 109 22 110 57 85 44 84 51 111 63 111 43 111 63 112 51 112 35 112 19 22 54 113 20 23 36 114 47 115 29 108 15 116 48 117 50 118 15 116 50 118 38 44 16 45 15 116 38 44 50 118 48 117 51 119 48 117 47 120 51 119 47 120 36 42 35 41 47 120 35 41 51 119 3 121 0 122 5 7 5 7 0 122 61 93 61 93 0 122 2 2 61 93 2 2 18 19 18 19 17 18 61 93 49 123 51 123 38 123 49 98 14 53 41 99 41 99 14 53 44 52 32 54 22 124 44 52 8 107 36 114 29 108 30 34 34 77 31 35 23 125 6 126 25 127 24 128 64 129 57 130 32 37 14 15 13 14 23 131 64 129 24 128 16 132 37 133 11 134 10 135 16 132 11 134 11 134 37 133 63 136 37 133 36 137 63 136 11 138 63 138 35 138 38 139 11 139 35 139 54 113 19 22 28 106 62 104 40 48 42 50 19 92 21 140 61 93 61 93 21 140 5 7 21 140 6 5 5 7 9 141 19 92 17 18 9 141 17 18 7 20 18 19 2 2 12 142 7 20 18 19 12 142 2 2 1 1 12 142 1 1 52 143 12 142 1 1 4 6 53 144 52 143 1 1 53 144 6 5 53 144 4 6 65 145 44 84 58 86 26 101 60 103 66 146 23 147 26 101 66 146 57 130 22 148 24 128 20 149 25 149 39 149 62 150 64 151 33 39 55 83 62 150 33 39 62 150 58 152 64 151 63 153 36 154 43 155 36 154 8 156 43 155 31 69 20 157 54 67 19 22 9 158 28 106 9 158 8 107 28 106 25 90 20 94 59 88 6 126 23 125 53 159 40 160 45 160 51 160 55 70 28 72 27 73 41 161 65 162 42 163 64 129 23 131 66 164 56 165 62 165 55 165 42 166 65 167 62 150 62 150 65 167 58 152 64 151 58 152 57 168 60 169 59 170 64 171 66 172 60 169 64 171 33 39 64 151 59 173 41 161 44 174 65 162 46 175 45 175 40 175 33 95 20 94 34 176</p>
        </triangles>
      </mesh>
    </geometry>
  </library_geometries>
  <library_visual_scenes>
    <visual_scene id="scene">
      <node id="left_shoulder_pitch_link">
        <instance_geometry url="#geometry">
          <bind_material>
            <technique_common>
              <instance_material symbol="scout_1a1a1a" target="#scout_1a1a1a" />
            </technique_common>
          </bind_material>
        </instance_geometry>
      </node>
    </visual_scene>
  </library_visual_scenes>
  <scene>
    <instance_visual_scene url="#scene" />
  </scene>
</COLLADA>