<?xml version='1.0' encoding='utf-8'?>
<COLLADA xmlns="http://www.collada.org/2005/11/COLLADASchema" version="1.4.1">
  <asset>
    <created>2026-09-14T00:00:00Z</created>
    <modified>2026-09-14T00:00:00Z</modified>
    <unit name="metre" meter="1" />
    <up_axis>Z_UP</up_axis>
  </asset>
  <library_effects>
    <effect id="scout_1a1a1a_effect">
      <profile_COMMON>
        <technique sid="common">
          <lambert>
            <emission>
              <color>0 0 0 1</color>
            </emission>
            <ambient>
              <color>0.05 0.05 0.05 1</color>
            </ambient>
            <diffuse>
              <color>0.1 0.1 0.1 1</color>
            </diffuse>
          </lambert>
        </technique>
      </profile_COMMON>
    </effect>
  </library_effects>
  <library_materials>
    <material id="scout_1a1a1a" name="scout_1a1a1a">
      <instance_effect url="#scout_1a1a1a_effect" />
    </material>
  </library_materials>
  <library_geometries>
    <geometry id="geometry" name="left_hip_roll_link">
      <mesh>
        <source id="positions">
          <float_array id="positions_array" count="234">-0.0614598915 -0.054195676 0.00763634313 -0.0633660555 -0.0560958534 -0.00924577564 -0.0639168248 -0.0424653776 -0.0321445614 0.0291854572 -0.0123140533 -0.056209784 0.0424685702 0.000466148427 -0.0449360982 0.0605841875 -0.01245574 -0.0109758861 -0.059657976 0.00722730486 0.00911855232 -0.0558111966 0.0295379777 -0.00623447262 -0.0635364354 0.027482044 0.00081502652 -0.00513155991 -0.0443163253 -0.0490464307 -0.0479771309 -0.0398071371 -0.0209756102 -0.0331002027 -0.0384704135 -0.0436133146 -0.0336797535 -0.0463930778 -0.034629032 0.0149036497 -0.0529335663 -0.0436532199 -0.0269228891 -0.0527679287 -0.0362036042 0.0256505813 -0.0419794098 -0.0453073271 -0.0527503639 -0.0237590745 0.0478609577 -0.0675679147 -0.00190708647 0.0531628318 -0.0641982257 -0.0345739797 0.0406513438 -0.0143175386 0.0109119592 0.0620144531 -0.0646283031 0.0307862647 0.0439614318 -0.0482979827 -0.0394366421 0.0208230074 -0.0460014716 -0.0494229347 -0.00741023198 -0.0422895662 -0.0493316576 0.0206280909 -0.0186627209 -0.0486994646 0.0439426377 -0.0630007163 0.0468485691 -0.0259881616 -0.0494058579 0.0204704423 -0.0493592136 -0.0684433728 0.00792540889 -0.0537293628 -0.0685749575 0.0577398911 0.000514687505 -0.0604227111 0.0549537949 0.00948119909 -0.064222075 0.0141828638 -0.0289991386 -0.0593258701 0.00671814382 -0.00964634959 -0.0483751036 0.0140063185 -0.0263439137 -0.0545593016 0.0202046689 -0.00432165852 -0.0594604053 -0.0178506374 0.00723798852 -0.0650594458 0.0134742763 -0.0501429215 -0.0595276654 0.0343761928 0.00362788071 -0.0292870011 0.0193008725 -0.0464871116 -0.0149006527 0.00725481799 -0.0555475838 -0.0131678879 0.0108316401 -0.063237384 -0.0660123304 -0.0119905807 -0.0506882779 -0.0131245665 -0.0189456679 -0.0613930784 -0.0648932159 0.0130414916 0.0507630408 -0.0475024357 0.0173280481 0.0267442726 -0.0175545085 0.0194675885 0.053197518 -0.0217477567 0.00962426886 0.050836578 0.0401455909 -0.0491697937 -0.02416295 0.0490876921 -0.0448431633 -0.00965430681 0.0284258481 -0.0510275736 0.0369445123 0.0476950966 -0.0415739827 0.020407239 0.0218082964 -0.0423282981 0.0465408787 0.029797649 -0.0124146491 0.0505956672 -0.00735409372 0.000555169303 0.057435412 0.0289786067 0.000630181283 0.0509093814 0.0562612191 0.000519803783 0.0204599313 0.0536903776 0.0191325452 -0.010817267 0.0476537384 0.0197706688 0.0274404101 0.043033693 -0.0135162799 -0.0362711251 -0.0211988818 -0.0174723025 -0.0528704487 0.05784522 -0.0123123825 0.0236419849 -0.0131034711 -0.0186546315 0.0618381873 -0.0188915282 -0.0174020119 0.0519724116 0.0253617968 0.0199024975 -0.050340496 -0.0588715151 -0.0178164709 -0.0062549673 0.0540705845 0.0010868425 -0.0193563569 0.0115309656 0.00111677242 -0.0570622981 -0.0604151599 0.00518952543 0.0318501107 -0.0614602119 0.00588164432 -0.0334636308 -0.0625798628 -0.0153235141 0.032236632 -0.060361594 -0.0151664587 -0.0315813832 -0.0678919703 -0.0546230152 0.0113443304 -0.0410768576 -0.00266538351 -0.0508947857 -0.059606839 -0.0274189766 0.000716420414 -0.0411065333 -0.003212763 0.050746832 -0.0583574884 -0.0217705704 -0.0469913706 -0.0239177514 -0.0387377143 0.0484460033 -0.0641761422 0.01461922 0.0275687519 0.0215551686 0.019377796 0.0497781858</float_array>
          <technique_common>
            <accessor source="#positions_array" count="78" stride="3">
              <param name="X" type="float" />
              <param name="Y" type="float" />
              <param name="Z" type="float" />
            </accessor>
          </technique_common>
        </source>
        <source id="normals">
          <float_array id="normals_array" count="606">0.996901691 -0.0786492378 0.00113396486 0.987479985 -0.123970009 -0.09754318 0.984368801 -0.174614891 -0.0229711439 0.780710876 -0.309446931 -0.54289335 0.806289554 -0.262613982 -0.530029297 0.948880851 0.0789955854 -0.305589288 0.555492699 0.404257149 0.726638854 -0.239410341 -0.947206736 -0.213265225 -0.397291183 0.591713428 -0.701452017 -0.16154182 -0.676010311 -0.718967557 -0.124740653 -0.718361557 -0.684394956 -0.378307909 -0.335551947 -0.862721324 -0.424649179 -0.234078676 -0.874574304 0.0250141192 0.742148817 -0.669768214 -0.190865532 -0.289278209 0.938023686 -0.175689861 -0.0620152727 0.982490301 -0.220489159 -0.368615597 0.903054297 -0.244716883 0.00596761657 0.96957624 -0.223113462 0.282627761 0.932921171 -0.804295361 -0.524023473 0.280193537 -0.965897381 -0.258603394 0.0129031185 -0.765159965 -0.473217994 0.436571896 -0.6626845 -0.649788499 -0.372322708 -0.656398773 -0.6572752 -0.370310724 -0.675117791 -0.634546161 -0.376254171 -0.615955949 -0.540714264 0.572910368 -0.207021996 0.586850643 -0.782782376 0.527857542 0.81885463 -0.225485027 0.0344724879 0.994805872 0.0957752615 -0.05179381 0.927278638 0.370771855 0.00938313641 0.999901056 0.0104822032 -0.868737936 0.48335731 -0.107981876 -0.647850633 0.666190445 -0.369431823 -0.894456923 0.397208631 -0.205358595 0.738789141 -0.638743877 -0.214934692 0.220336318 -0.580779433 0.783675432 0.174256414 -0.485835791 0.856503546 0.133034199 -0.399273843 0.907128572 0.628674626 -0.577884853 0.520401061 -0.680425406 -0.627856433 -0.377912104 -0.588014841 0.720352471 -0.367873371 -0.663567245 -0.266781032 -0.69893229 -0.305312783 0.194360182 -0.932206094 -0.243774161 0.0314601846 -0.969321609 -0.267649204 -0.248380139 -0.930951774 0.388357371 0.798977196 0.45914489 0.973858237 0.0154535454 0.22663039 0.994000494 -0.0484538153 0.0980572999 0.998896718 0.0397130176 0.0250633061 0.987661958 0.0429763794 0.150588453 0.987620354 -0.155355573 0.0216944944 -0.85776639 0.491824299 0.149484739 -0.798676014 0.554902852 0.23280786 0.188877836 -0.353925735 -0.916003108 -0.559699714 0.039898321 0.82773447 -0.662586451 0.104369029 0.741677999 -0.559910774 0.0400238931 0.827585638 0.116765849 -0.91313839 -0.390568852 0.40107879 -0.914299786 0.0564956777 0.139294386 -0.988781869 0.0539207198 0.213401064 -0.97690016 0.0112284804 0.885727882 -0.120258637 0.448356926 0.690009534 -0.258598 0.676028073 0.695650995 -0.223830611 0.682619631 0.796468437 -0.123884141 0.591853678 0.516064227 -0.848632097 0.116194859 0.140857622 0.23101674 0.962699533 0.318863153 0.16524148 0.933285356 0.484483391 0.122265115 0.866214216 0.967496216 0.243512467 0.068211101 0.954655528 0.20147559 -0.219181344 0.9218418 0.361619234 0.139424786 0.953947663 -0.131873608 0.269431233 0.0929151624 -0.987909794 -0.124100842 0.141620904 -0.961070418 0.237249255 0.0954523906 -0.991265535 -0.0910024717 0.124232031 -0.951291621 0.282153517 0.00825298205 -0.999954462 0.0047939294 0.816792309 -0.12323834 -0.56361568 0.136157826 -0.972189248 -0.190549612 0.299599767 -0.90856266 -0.291125208 0.0951900557 -0.979022563 -0.180148959 -0.301811427 0.79760766 0.52223736 0.0905886516 0.991766453 -0.0905154049 0.118934944 0.992176116 -0.0379608795 -0.0331894867 0.412742674 -0.910242796 -0.0647926405 0.549263418 -0.833133578 -0.00962870847 0.406739682 -0.913493335 -0.785594821 0.118284024 -0.607329965 -0.848923802 -0.0698807612 -0.523874998 -0.878758132 -0.0958896577 -0.467535406 -0.768049955 0.162202433 -0.619507551 0.912953496 0.197235137 -0.35723123 0.0888552666 0.235868603 -0.96771419 -0.988008142 -0.112672731 -0.105568714 -0.99273181 -0.108794078 -0.0514533073 -0.994411767 -0.0389076509 -0.098139897 -0.94754529 -0.00474818936 -0.319586247 -0.990859747 -0.0838388652 0.105678625 -0.99334389 0.0676207468 -0.0932487175 -0.992419124 0.058467146 0.108100966 -0.993163824 -0.0162544381 -0.115591645 -0.944189906 -0.0931590721 0.315953821 -0.990107 0.126056895 -0.0616264306 -0.959265769 0.222324729 -0.174301296 -0.997042179 0.0692290366 -0.0333806425 -0.974804461 -0.0153231379 -0.222534224 -0.946877539 0.117136829 0.29950273 -0.981630981 0.124865219 0.144254297 0.802877903 -0.243871719 -0.543979466 0.800352633 -0.247599095 -0.546013117 0.197250068 -0.963376105 -0.181656048 0.18498008 -0.967697203 -0.171302199 0.206168145 -0.946421742 0.248556912 0.341619402 -0.795204043 0.500945807 0.280827343 -0.878776014 0.38586098 -0.670677841 -0.100723699 -0.734878182 0.0370876119 0.998468578 -0.0410494693 -0.0492993817 -0.379376918 -0.923927903 0.121790633 -0.98776269 0.0974265188 0.0706437007 -0.265762478 0.961446702 0.647666633 -0.215325192 -0.730864584 0.6891011 -0.124230355 -0.713937342 0.0354745016 0.169025302 -0.984973073 0.273007274 0.300860733 -0.913755894 -0.211988121 -0.119047374 -0.969994187 -0.783567965 -0.0142819453 0.621141851 -0.854558945 -0.119371779 0.505449653 -0.900448442 -0.235478342 0.365708292 -0.884237766 -0.467029512 -0.00264786999 -0.728655577 -0.684880197 0.000477322639 -0.337283492 0.90744096 0.250580877 -0.0771570876 -0.937907755 -0.338194966 0.71955961 -0.140972942 -0.679971039 -0.906520307 -0.200355202 -0.371589512 0.132194102 -0.98443687 0.115796261 0.129556626 -0.9867751 0.0974167064 0.986963928 0.141050488 0.0775045156 -0.608599722 -0.570402145 0.551586628 0.61451745 0.625644088 -0.480559886 -0.432941973 -0.0316414386 0.90086627 0.0533579998 -0.465060771 0.883669257 0.0145054739 -0.455203593 0.89026922 0.0679774657 -0.715400875 0.695399642 0.342317551 0.395879954 -0.852113724 0.0186967403 -0.272337288 0.962020159 0.290488809 -0.109689586 -0.950570583 -0.880494356 0.199881628 -0.429856926 0.23783648 0.158951312 -0.958211005 -0.0461451896 0.145278633 0.988314092 -0.0533696897 -0.997336149 0.0497219153 -0.140590712 -0.989826977 0.021834854 -0.0332683884 -0.998868287 0.0339898802 -0.0393481106 -0.996982932 0.066908896 0.0485702753 -0.998699963 0.0154685751 -0.363561898 -0.9310413 0.0313821025 -0.00790415611 0.840955615 -0.541046381 0.835508645 0.0905789956 -0.54196012 0.940423846 -0.330575764 0.0795148835 -0.166174263 0.90064466 -0.401528746 0.513902664 0.035143245 0.857128382 0.71233511 0.16003792 0.68334955 -0.249819547 -0.507301748 -0.824763656 -0.741779625 0.0562010482 0.668284714 -0.739576578 0.0634771734 0.670072496 0.0604252294 0.995592356 -0.0717263818 0.00596339256 0.97988385 0.199479476 0.0788197666 0.996049404 0.0409021415 0.078150019 0.983157635 -0.165207699 -0.0130660906 0.999486566 -0.0292548127 0.0367640443 0.997680008 0.0572973005 0.000206000856 0.999998569 0.00167332462 -0.0139577445 0.999698639 0.0201940481 -0.02795 0.999582052 -0.00738651631 -0.00171524158 0.999985158 0.0051755188 0.0413104221 0.999094844 -0.0101461895 -0.00157348847 0.999996483 0.0021458359 -0.125131831 0.898373604 0.42103073 -0.263418972 -0.514616191 -0.815953851 0.436567396 0.589870393 -0.679309785 0.974122107 0.040303085 0.222400174 0.99974978 0.0223366711 -0.00122724054 0.987362623 -0.138093591 0.0777511299 0.995221734 -0.00325136562 -0.0975863487 0.972957194 0.105675831 -0.205394492 0.994445503 0.00444323663 -0.105158933 0.99868995 -0.033799462 -0.0384190381 0.03297038 -0.161103383 0.986386657 0.0428456739 -0.145426214 0.988440931 0.669404685 0.255603492 0.697541595 0.298891783 0.099282831 0.949108362 -0.67769295 0.0852777958 0.730383456 -0.330226809 -0.019185923 0.943706632 0.971192718 -0.235691398 0.0351323262 0.985961318 -0.162786976 -0.0371568017 0.996246696 -0.0846948698 -0.0178690553 0.994157493 -0.0536662936 0.0936527178 0.992051125 -0.0533277132 0.113976747 0.568336487 0.0184330661 0.822589695 0.08692424 0.0942591131 0.991745651 0.712095261 0.146992683 0.686522722 0.619890451 0.289463729 0.729346633</float_array>
          <technique_common>
            <accessor source="#normals_array" count="202" stride="3">
              <param name="X" type="float" />
              <param name="Y" type="float" />
              <param name="Z" type="float" />
            </accessor>
          </technique_common>
        </source>
        <vertices id="vertices">
          <input semantic="POSITION" source="#positions" />
        </vertices>
        <triangles material="scout_1a1a1a" count="152">
          <input semantic="VERTEX" source="#vertices" offset="0" />
          <input semantic="NORMAL" source="#normals" offset="1" />
          <p>0 0 1 1 2 2 3 3 4 4 5 5 6 6 7 6 8 6 9 7 10 7 11 7 10 8 9 8 12 8 9 9 13 10 14 11 12 12 9 9 14 11 9 13 11 13 15 13 16 14 17 15 18 16 19 17 20 18 17 15 21 19 22 20 23 21 22 22 10 23 12 24 17 15 16 14 19 17 21 19 23 21 24 25 25 26 26 26 27 26 28 27 29 27 25 27 30 28 31 29 32 30 33 31 32 32 31 33 34 34 16 34 18 34 25 35 35 36 26 37 36 38 8 38 7 38 12 24 14 39 22 22 33 31 37 40 32 32 37 41 38 41 32 41 26 42 39 43 40 44 39 45 26 45 38 45 39 46 38 46 41 46 42 47 29 48 20 49 7 50 6 50 31 50 6 51 33 31 31 33 33 31 6 51 43 52 20 53 19 53 42 53 44 54 43 55 45 56 46 57 9 57 15 57 47 58 48 59 46 60 49 61 50 62 48 63 51 64 50 62 49 61 49 65 48 59 47 58 44 66 52 67 53 68 54 69 55 70 56 71 5 72 51 64 49 61 57 73 58 74 3 75 58 74 41 76 3 75 51 77 5 77 59 77 3 3 5 5 57 78 60 79 61 80 51 81 28 82 20 82 29 82 32 30 38 83 30 28 30 28 38 83 35 84 38 85 37 86 62 87 11 88 10 89 63 90 63 90 58 91 11 88 5 5 64 92 54 69 65 93 38 85 62 87 20 94 28 95 66 96 20 94 66 96 17 97 66 96 28 95 67 98 68 99 66 96 69 100 67 98 28 95 25 101 67 98 25 101 27 102 66 96 67 98 69 100 68 99 69 100 1 103 68 99 1 103 70 104 18 105 17 106 68 99 70 104 18 105 68 99 40 107 2 108 69 100 69 100 2 108 1 103 57 78 47 109 15 110 61 80 60 79 34 111 60 79 16 112 34 111 0 113 18 114 70 115 69 116 67 116 71 116 64 117 4 117 65 117 11 118 58 118 15 118 1 119 0 113 70 115 35 36 38 120 26 37 64 92 65 121 62 122 38 85 65 93 41 123 3 124 41 123 65 93 40 44 39 43 41 125 54 69 64 92 55 70 21 126 34 127 72 128 10 129 21 19 72 130 40 131 69 131 71 131 73 132 17 132 66 132 6 133 8 133 36 133 72 134 63 90 10 89 74 135 41 76 58 74 58 74 63 136 74 135 54 69 59 137 5 5 24 25 75 138 21 19 45 139 19 139 52 139 52 140 44 54 45 56 50 141 24 142 48 143 4 144 3 124 65 93 75 145 24 142 50 141 40 146 27 146 26 146 36 147 7 147 31 147 55 70 64 92 62 122 58 148 57 148 15 148 71 149 27 149 40 149 23 150 22 151 14 152 48 59 23 150 14 152 24 153 23 150 48 59 13 154 48 59 14 152 71 155 67 155 27 155 17 156 73 156 68 156 15 110 47 109 46 157 49 61 47 158 5 72 76 159 43 159 6 159 51 160 54 161 53 68 74 162 40 44 41 125 34 127 21 126 75 163 34 127 75 163 61 164 45 165 76 166 42 167 19 168 45 165 42 167 37 169 33 170 62 171 33 170 43 172 62 171 43 172 44 173 62 171 62 171 44 173 77 174 55 175 62 171 56 176 62 171 77 174 56 176 45 165 43 177 76 166 74 162 2 178 40 44 9 179 46 179 13 179 6 180 36 181 76 182 42 47 76 182 36 181 42 47 36 181 29 48 25 183 29 48 36 181 36 181 31 184 30 185 36 181 30 185 25 183 35 186 25 183 30 185 57 78 5 5 47 109 50 141 61 187 75 145 61 187 50 141 51 188 59 189 54 161 51 160 5 5 4 4 64 92 53 68 60 190 51 160 66 191 68 191 73 191 52 67 60 190 53 68 10 129 22 20 21 19 19 17 16 14 60 192 13 154 46 60 48 59 74 193 63 194 2 2 63 194 72 195 2 2 72 195 0 0 2 2 72 195 34 196 0 0 0 0 34 196 18 197 60 190 52 67 19 198 53 68 77 199 44 66 53 68 54 161 56 200 53 68 56 200 77 201</p>
        </triangles>
      </mesh>
    </geometry>
  </library_geometries>
  <library_visual_scenes>
    <visual_scene id="scene">
      <node id="left_hip_roll_link">
        <instance_geometry url="#geometry">
          <bind_material>
            <technique_common>
              <instance_material symbol="scout_1a1a1a" target="#scout_1a1a1a" />
            </technique_common>
          </bind_material>
        </instance_geometry>
      </node>
    </visual_scene>
  </library_visual_scenes>
  <scene>
    <instance_visual_scene url="#scene" />
  </scene>
</COLLADA>