<?xml version='1.0' encoding='utf-8'?>
<COLLADA xmlns="http://www.collada.org/2005/11/COLLADASchema" version="1.4.1">
  <asset>
    <created>2026-09-14T00:00:00Z</created>
    <modified>2026-09-14T00:00:00Z</modified>
    <unit name="metre" meter="1" />
    <up_axis>Z_UP</up_axis>
  </asset>
  <library_effects>
    <effect id="scout_1a1a1a_effect">
      <profile_COMMON>
        <technique sid="common">
          <lambert>
            <emission>
              <color>0 0 0 1</color>
            </emission>
            <ambient>
              <color>0.05 0.05 0.05 1</color>
            </ambient>
            <diffuse>
              <color>0.1 0.1 0.1 1</color>
            </diffuse>
          </lambert>
        </technique>
      </profile_COMMON>
    </effect>
  </library_effects>
  <library_materials>
    <material id="scout_1a1a1a" name="scout_1a1a1a">
      <instance_effect url="#scout_1a1a1a_effect" />
    </material>
  </library_materials>
  <library_geometries>
    <geometry id="geometry" name="left_hip_pitch_link">
      <mesh>
        <source id="positions">
          <float_array id="positions_array" count="471">-0.0213951729 -0.0215485357 -0.385554731 -0.0248415861 -0.0207400825 -0.408507794 -0.0208059642 -0.0291688126 -0.402202785 -0.00143609056 -0.0294548012 -0.335464776 0.00758761447 -0.0269112475 -0.44233501 -0.0044492255 -0.0214232858 -0.43247363 0.0178492609 -0.0290565006 -0.442913353 0.00784478243 -0.0201201085 -0.423454165 -0.000805930176 -0.0270301383 -0.427509159 -0.0492152348 0.0205820948 -0.0356887393 -0.0271988381 0.0190089177 -0.063336052 -0.0278167389 -0.0183824692 -0.06268657 -0.010102991 -0.0237971749 -0.342258841 0.000804651354 -0.0217945967 -0.299795389 -0.00468067545 -0.0166673623 -0.298736244 -0.00295871333 -0.0474549197 -0.109923504 -0.00148093107 -0.0237818882 -0.120237753 0.000661515165 -0.0403326452 -0.134831443 -0.0545369834 -0.0484664552 -0.00243699574 -0.0593172088 -0.0461854376 -0.0150706731 -0.0491381958 -0.0458014086 -0.0357947648 -0.0450764485 -0.0484458059 -0.0296357535 -0.0213115141 0.020079663 -0.385757148 -0.0108950408 -0.0192012172 -0.382241964 -0.0509725846 -0.0727004707 -0.0195317902 -0.0330319777 -0.0736176223 -0.0435822122 0.0189669859 -0.029232325 -0.150798261 0.0375391543 -0.025195552 -0.149644151 -0.0199587904 -0.0485887863 -0.0504215062 -0.0349687748 -0.0461163819 -0.0505057052 -0.0231332127 -0.0260960329 -0.0589684732 -0.0145227518 -0.0452437252 -0.0602624528 -0.0202180278 -0.0468423478 -0.0654950216 0.0572841614 -0.0280889999 -0.326912314 0.0536545292 -0.0222368222 -0.296066135 -0.00943039544 -0.0245391596 -0.0904974937 -0.0242475141 -0.0942281038 -0.0490877219 -0.00408896245 -0.0729954615 -0.0545382872 0.00286889332 -0.0941536874 -0.054293897 0.000319908053 0.0260737445 -0.403938055 -0.00337126083 0.0247771926 -0.398239136 -0.00797588937 0.0217935424 -0.427348673 -0.0133887446 -0.0180130545 -0.0922431946 -0.00471617375 -0.0179450512 -0.129941419 -0.0585903451 -0.0461628102 0.0186794959 -0.0461568385 -0.0482266247 0.0289365873 -0.0339157283 -0.0937700942 0.0431529433 -0.0473462753 -0.0728878751 0.0268041454 -0.0505490452 -0.0942446142 0.0205147155 -0.0361840986 -0.046180997 0.0505320281 -0.0229850467 -0.0482444949 0.0489680022 -0.000167363498 -0.0482527204 0.0538892634 -0.000214539905 -0.0463682897 0.0613432489 -0.0173799172 0.0290092416 -0.410961986 -0.0202414989 0.0201978609 -0.413586915 -0.0257570874 0.0225532204 -0.399120808 -0.014462119 0.0278061777 -0.368861914 0.00638416177 0.0247474592 -0.443253845 0.0120190242 0.0290168449 -0.442033917 -0.0605751611 0.0184358265 -0.0118120564 -0.0564150102 0.0259014014 -0.00160540128 -0.0443503186 0.0275343135 -0.0270881858 -0.00264698779 0.0200009253 -0.102851152 -0.00457582437 0.0145832188 -0.134039059 -0.0132058077 0.0149035221 -0.091288656 0.0549201444 0.0271050669 -0.41024977 0.0552131385 -0.0239014365 -0.417912126 0.0547386557 -0.0259225573 -0.384034097 0.0111348638 0.0215550177 0.0592810921 0.0367768779 -0.0460827872 0.0498343557 -0.0541685373 0.0243002027 0.0242095776 -0.0142002646 0.0192185175 0.0591684952 -0.0382777154 0.021385802 0.0470780991 -0.00827230513 0.0269329026 0.0530732386 0.0199828781 -0.0236135013 -0.433104783 0.0239389967 -0.0260285884 -0.410575688 -0.00363097107 -0.024926072 -0.400471032 0.00528943585 -0.0201135781 -0.399695903 0.000778615125 -0.0293909926 -0.395576775 0.0205657836 -0.0240939204 -0.383077115 0.00749323843 -0.0242406819 -0.363241345 0.018014295 -0.0280583855 -0.37978816 0.025221454 -0.0273369327 -0.439046711 0.0396339819 -0.0277133305 -0.43972066 0.0266948752 -0.0260239411 -0.375413835 0.0495247059 -0.0940468907 0.0237888321 0.0542686656 -0.0733524039 0.00159100175 0.0485436097 -0.0728784949 0.0238614734 0.0492594056 -0.0282713939 -0.428184032 0.0474135131 -0.0241663065 -0.433175683 0.0590893216 -0.025464613 -0.403507292 0.0474488735 -0.0297511816 -0.414101869 0.0595075749 -0.0163537879 -0.296914846 0.0546897799 0.0225730129 -0.422759861 0.0233347956 -0.0457224026 -0.0597215779 0.0104145724 -0.0480477065 -0.0531855747 0.00157860969 -0.0241511855 -0.156517878 0.0282312017 -0.0481772982 -0.0463555194 -0.0263391603 -0.0735389367 0.0478504412 -0.013902938 -0.0940588638 0.0525256693 -0.00107195694 -0.0729568005 0.0541273504 0.024988167 -0.0941006765 -0.0486903265 0.030061245 -0.0723445937 -0.0460393578 0.0439811051 -0.0939481929 -0.0322885476 0.0493400246 -0.0728133097 -0.0221269466 0.0487932712 -0.0484316796 -0.0233699922 0.0556830987 -0.047251191 -0.0417215638 -0.0109529011 -0.0489700362 -0.0850071535 0.0534431599 -0.0491283759 -0.0838161707 0.047643166 -0.045264814 -0.0395663343 0.0460722968 -0.048458796 0.0280005317 0.0278354976 -0.0729281306 0.0475512482 0.0552477762 -0.0427261889 -0.115314506 0.0559314974 -0.0254157837 -0.0374318473 0.0519506074 -0.0285441801 -0.0337980762 0.0599264838 -0.0457217656 -0.00927007105 0.0540949851 -0.0481707864 0.00159427896 0.0602887869 -0.0189128462 -0.035276752 0.0268543884 0.0258939806 -0.37557295 0.0236722082 0.0231906623 -0.40938127 0.0142604839 0.0261675939 -0.422304571 0.021510791 0.0274398047 -0.384996474 0.0246751793 -0.0483830981 0.0482940152 0.0108208312 -0.0941075459 0.0535982326 0.0332812741 -0.0940736309 0.0429426096 0.0594480112 -0.046054773 0.0170456115 -0.00014679486 -0.0192866493 -0.356583565 0.00708591007 0.0205085687 -0.3622742 0.0197328348 0.0278282296 -0.442182451 0.0203212555 0.0225333106 -0.382712275 0.00798841659 0.0277975015 -0.365232527 -0.00423643598 0.0160068758 -0.299221277 0.00231356802 0.0201069303 -0.291882187 -0.0038710637 0.0290040262 -0.333006382 0.020238528 0.0238124263 -0.432257384 0.0421519428 0.0274160914 -0.43894878 0.0575468577 0.0272650775 -0.409729123 0.0530772507 0.0203372091 -0.288696915 0.0597513691 0.0150710279 -0.292860806 0.0538908206 0.0295912512 -0.33269304 0.0546343438 0.0265367776 -0.00986522622 0.0601795204 0.0148688368 -0.0643153712 0.0545385554 0.0200845357 -0.0829762667 0.018665852 0.0301413909 -0.00820826087 0.0600410774 0.0211640038 0.00871539395 0.0369283929 0.0261071604 0.0423593782 0.0429531634 0.0187214278 0.0447560549 -0.0118139684 0.019345073 -0.384298176 -0.0535862371 -0.0940330252 -0.00905243121 -0.0540132895 -0.0740461871 0.00535353646 -0.0460514314 -0.0940667763 -0.0296233054 0.00281276321 -0.0262290835 -0.402437598 0.00394150941 0.0235980265 -0.399127781 -0.00116551027 0.0190168265 -0.357685775 0.0554391928 -0.0237929057 -0.145751506 0.0541959777 -0.0941408053 -0.00788224954 0.0535709634 0.0270697325 -0.383897632</float_array>
          <technique_common>
            <accessor source="#positions_array" count="157" stride="3">
              <param name="X" type="float" />
              <param name="Y" type="float" />
              <param name="Z" type="float" />
            </accessor>
          </technique_common>
        </source>
        <source id="normals">
          <float_array id="normals_array" count="996">-0.813834488 -0.542502224 0.208242089 -0.928312063 -0.349410057 0.127079859 -0.903399765 -0.40109849 0.151620746 -0.644232213 -0.742260516 0.184429467 -0.305218279 -0.926526546 -0.219978124 -0.614789665 -0.63002938 -0.474443555 -0.296901911 -0.916858673 -0.266869575 -0.677172005 -0.474159002 -0.562682211 -0.0521847121 -0.997920394 -0.0378369465 0.585966825 -0.289414108 -0.756889939 0.562620401 -0.240122214 -0.791074932 0.578474879 -0.273160249 -0.768602788 -0.847761691 0.000403365673 -0.530377209 -0.815909326 0.258693695 -0.517077863 -0.83760649 -0.190513507 -0.51197654 -0.616846442 -0.774271965 0.141433552 -0.667375863 -0.736609399 0.109617636 -0.671008408 -0.736150801 0.0884857625 -0.970607042 -0.0238407943 -0.239486024 -0.919171989 -0.355463296 -0.169613317 -0.993594825 -0.0334416665 -0.107939705 -0.384819418 -0.922964096 -0.00716319215 -0.221381247 -0.970882475 -0.0915287957 -0.287686795 -0.938153505 -0.192624822 -0.325718582 -0.930195391 -0.169245183 0.301932395 -0.00524229789 -0.9533149 0.176357806 -0.0412416048 -0.983461797 0.281456888 -0.0112264818 -0.959508181 -0.930193722 0.0162280705 -0.366710156 -0.823004067 0.0526845045 -0.565587044 -0.607271969 0.0181288719 -0.794287145 0.148830533 -0.733555436 -0.663133442 0.101074822 -0.962097406 -0.253283262 0.0735973343 -0.904779494 -0.419472843 -0.375011593 0.0508229658 -0.92562592 -0.169512779 -0.958960652 -0.227288231 -0.113986485 -0.934988141 -0.335863471 -0.282909423 -0.550406218 -0.785503209 -0.519660294 -0.0532377623 -0.852712691 -0.422548771 -0.12939246 -0.897056401 -0.639822245 0.0541958101 -0.766609609 -0.592131734 -0.31635955 0.741145492 0.0242366567 -0.994275272 0.104063779 -0.00558285229 -0.996227384 0.0866016746 -0.0146932909 -0.99587208 0.0895710066 -0.89367938 -0.303810865 -0.330206186 -0.720493197 -0.602753103 -0.342896909 -0.43337661 -0.0104228398 -0.901152611 -0.0617661998 0.00596123282 -0.998072863 0.0726713538 0.0123786265 -0.997279108 -0.0454368964 -0.93706876 -0.34617576 0.0891825557 -0.994667113 -0.051805947 0.164799079 -0.984885156 -0.0533146672 0.207378924 -0.977233827 0.0448114835 -0.898105681 -0.292778403 -0.328156918 -0.792785943 -0.604033113 -0.081452392 -0.254476398 -0.963633358 0.0815626457 -0.307628155 -0.928436518 0.208255872 -0.640110135 0.00514445454 0.768265963 -0.861387193 0.0130130695 0.507782161 -0.930247307 -0.0321298949 0.365523815 -0.144449502 -0.97002244 0.19542475 -0.101993114 -0.926646352 0.361834079 0.00346362381 -0.965393782 0.260773629 0.00197834778 -0.969493628 0.245108485 -0.762151182 0.418895364 -0.493611455 -0.772931516 0.398179233 -0.493994057 -0.83905375 0.386543125 -0.382848859 -0.552739501 0.831040323 0.0620563664 -0.959691107 0.0615551285 0.274233311 -0.937462509 0.106152393 0.331505299 -0.943767548 0.0852051079 0.319441497 -0.71849519 0.382637709 -0.580820978 -0.512353539 0.717593908 -0.471754998 -0.475499958 0.756080389 -0.449713439 -0.931457162 0.319438875 -0.174202234 -0.870774329 0.491682202 -0.000813509221 -0.518077135 0.782651722 -0.345039636 -0.580112636 0.754762769 -0.30627194 -0.604682505 0.778982043 -0.165970042 -0.865063429 0.500663638 -0.0316416211 -0.870640695 0.310328007 -0.381682158 -0.999801993 -0.0129492618 -0.0151097365 -0.999949992 -0.00439428724 -0.00898366328 -0.999632657 -0.00918443408 -0.025498271 0.186710149 0.489113927 0.852001727 0.00734380726 -0.0190231521 0.999792099 0.587441027 -0.0193969123 0.809034526 -0.974915981 -0.00776161626 -0.222437948 -0.94783783 0.00382496649 0.318729967 -0.924937606 0.0527790636 0.376437008 -0.593114436 -0.00517387176 0.805101514 -0.232433379 0.0219139215 0.972365439 -0.2352577 0.913334131 0.332377106 -0.0811269879 0.898536742 0.43133536 -0.101203389 0.991144717 0.0859651268 -0.192367464 0.695118248 0.692679882 0.611406744 0.708802223 0.351825505 -0.157078341 0.987397194 0.0193184689 0.032963641 0.990152955 -0.136053383 -0.106180131 0.976644695 -0.186791077 0.556219757 -0.227245316 -0.799361706 0.274184734 -0.574546278 -0.771180511 0.346555442 -0.516239166 -0.78319627 0.297531396 -0.556495905 -0.775749564 0.832502961 -0.0811218992 0.548049331 0.0304218326 0.957717955 -0.286095798 0.0800321251 0.597852588 -0.797600865 0.00544196181 0.918079376 -0.396359205 -0.0856444985 0.957514465 -0.275374353 -0.438161016 0.723990858 0.532777727 0.898830831 0.0160975084 0.438000053 0.999094367 0.017783422 0.0386543684 0.89029938 0.0278557446 0.454522908 0.0775874183 -0.990600705 -0.112651728 0.131776661 -0.987215221 -0.0896717012 0.847290576 -0.242398903 -0.472590148 0.689145505 -0.413604289 -0.594987333 0.746526062 -0.351359844 -0.56501776 -0.0485002324 0.996709824 0.0649404153 -0.328208923 0.942022443 0.0698044151 -0.586487055 0.757577837 0.28654635 0.910944819 -0.292144269 -0.291258156 0.36742714 -0.92964375 -0.0275643449 0.167620316 -0.985357046 -0.0312232971 0.990934551 -0.0382586569 -0.128782749 -0.0581622124 0.998173714 -0.0163231604 0.712531269 -0.694821358 0.0975829735 0.714003563 -0.69346875 0.0964368507 0.707988143 -0.673915744 0.211164102 -0.999724686 -0.00899792369 0.0216690022 0.00524754589 -0.988345623 0.152136013 -0.0164327994 -0.951095998 0.30845809 0.00154285016 -0.983810902 0.179203093 0.0110278074 -0.949855328 -0.312495232 0.0915200189 -0.964637816 -0.247180119 -0.00129705959 -0.749556541 -0.661939025 0.15401037 -0.458300292 -0.875352263 0.190537155 -0.952598035 -0.23717615 -0.488153875 0.0261415765 0.872365952 -0.23769109 -0.00605263142 0.97132194 -0.0133215496 0.0218386371 0.999672771 0.425899208 0.012678409 -0.904681802 0.546386421 0.0121529764 -0.837445021 0.808533192 0.00737611391 -0.588404357 0.90729481 0.0227734018 -0.419878006 0.895093501 0.0108427638 -0.445746601 -0.00328352093 -0.998993933 0.0447245352 -0.0019213215 -0.999577343 -0.0290072039 0.0208974425 -0.998127818 -0.0574817024 0.557848275 0.0313927159 -0.829349041 0.251250803 -0.944728792 -0.210619345 0.855025113 0.0178757701 0.51827842 0.515265882 0.0152724199 0.856894255 0.999043226 -0.0428906903 -0.00854685716 0.999297142 -0.0369010754 -0.00659786444 0.912909985 -0.407025337 -0.0304267183 -0.19532603 -0.942561448 0.270971596 -0.174272895 -0.956998587 0.231910825 -0.346652806 -0.753225863 0.559001505 0.209921017 -0.190775752 0.958925307 0.875475526 -0.447991997 0.181234032 0.769329607 -0.426480263 0.475653768 0.768337011 -0.376494497 0.517600358 0.335090518 -0.940114737 -0.0624391399 0.399027288 -0.898390651 -0.183497936 0.336479753 -0.941683233 -0.00375074265 0.818116009 -0.571700752 0.0620033517 0.564162433 -0.578813493 -0.588808656 -0.294919401 -0.00267949165 -0.955518365 -0.419140607 0.00334796705 -0.907915175 -0.427441359 -0.0297196042 -0.90355444 0.440835088 0.89005816 -0.116021194 0.16975306 -0.960214674 0.221746743 0.119616494 -0.90405798 0.410330385 0.192764431 -0.0022559911 0.981242478 0.643226326 -0.00122276472 0.765675128 0.322682023 -0.922053516 0.21376057 0.999056399 0.00688514067 0.0428822078 0.26360178 -0.961957216 0.0717804357 -0.634743512 0.00486768456 -0.772707582 -0.525309622 -0.0777402297 -0.847352505 -0.583005428 0.0122507308 -0.812375903 0.208905905 -0.977906168 -0.00760599785 0.223263517 -0.97454077 0.0205831118 0.827852964 0.11990317 0.547980547 -0.672362685 0.716372073 0.186385319 -0.590702474 0.803748608 0.0711252689 -0.781883776 0.584640563 0.216455802 -0.680058658 -0.691028476 -0.244948804 0.108150654 0.138550073 -0.984432459 -0.133918077 0.246441856 0.959860623 0.9762339 -0.181657568 0.118185826 0.0975001827 -0.931873739 0.3494353 0.0922474116 -0.987982035 -0.124023706 0.185127914 -0.956455231 -0.225656822 -0.0179705303 -0.999834478 -0.00284051197 -0.633260667 -0.72385323 0.273892999 0.710250437 0.598177671 -0.371116996 0.64260751 0.763659835 0.0622840486 0.924283981 0.379327208 0.0425440967 0.884785652 0.464355439 0.0390939005 0.465123177 0.884927094 -0.0237595215 0.762571871 0.644977212 -0.0498852134 0.699019909 0.715010345 -0.0114605371 0.0318881758 0.99926728 -0.0211663656 0.0308480468 0.997364283 -0.0656723827 0.00770250335 0.998582244 -0.0526702031 0.49709326 0.857243657 0.134281725 0.3444888 0.850649416 0.397143543 0.676726699 0.315432191 0.665239394 0.99328208 0.0379938595 -0.109302938 0.974903703 6.19807979e-05 -0.22262688 0.147934914 -0.0491650738 -0.987774312 -0.990798056 -0.0260535143 -0.132817119 -0.994648099 0.000872919802 0.103316821 -0.828403533 -0.00259986217 -0.560125768 -0.998866796 0.0362618901 -0.0308260862 -0.861901045 0.00227277586 -0.507071376 0.0292918403 0.994010031 0.105290301 -0.0521745868 0.995981812 -0.0727879405 0.12712945 0.988815844 0.0779831782 0.140829667 0.963111103 0.229311928 -0.907946765 0.408891439 -0.0918721929 -0.906458318 0.410860002 -0.0976082608 -0.908393204 0.408288449 -0.0901236832 -0.00756468996 0.986525238 -0.163434297 0.0433240943 0.984270394 -0.171274215 -0.17017135 0.918729782 -0.356338829 -0.403336734 0.814722478 -0.416589499 -0.802851796 -0.595624387 -0.0257022381 0.16647093 0.00494232075 -0.986033976 -0.712735772 0.129987359 -0.689283013 0.977605999 0.0209120791 0.209401935 0.953583837 -0.00695271883 0.301047355 0.999881744 -0.00556752924 0.0143342447 0.0309025515 -0.985601246 -0.166238427 0.100096993 -0.935544372 -0.338729024 -0.93058449 -0.0148453824 -0.365776122 -0.902952313 0.0082871234 -0.429660827 -0.910575926 -0.0146442782 -0.413082421 0.0207503829 -0.990784705 -0.133847341 0.0581970327 -0.998303115 -0.00200254354 0.0834480599 -0.996020079 -0.0313120931 -0.074199222 -0.991871119 -0.103374086 0.00166311639 -0.997793257 -0.0663765669 -0.1319931 -0.98535502 -0.10795068 0.135038465 -0.953177333 -0.270587474 0.113318779 -0.989051521 -0.0945298374 0.140523002 -0.987711132 -0.0684102923 0.896494687 -0.442823678 -0.0142978886 -0.437976539 -0.898749053 -0.0206566304 -0.982174754 0.00988543499 0.187709928 -0.967585087 0.00317238714 0.2525253 0.140377924 -0.941544533 -0.306248128 -0.99352777 -0.00200718921 -0.113571629 -0.0184982996 0.9971295 0.0734207854 -0.030835731 0.999389648 0.0164177995 0.02960575 0.990987599 0.130640894 0.0687032863 0.995172739 -0.0700790063 0.17738387 0.98273623 0.0525779799 0.0301858597 0.997802496 0.0589825623 0.0531602316 0.975209594 0.214802727 0.0554909967 0.998168826 -0.0240777787 -0.99576664 -0.00665974384 -0.0916760415 0.00982804596 0.00868193991 0.99991399 -0.434387594 0.0266227201 0.90033251 -0.0358964019 0.999079883 -0.0234697033 -0.135133892 -0.990726531 -0.0141356466 0.094391726 -0.985117853 0.143642172 -0.84419322 0.0250193868 0.53545481 0.92075485 -0.107852519 -0.374937743 0.450893879 0.0310609248 0.892036974 -0.0121057406 0.99717176 0.0741751865 -0.00880365167 0.994780779 0.101654813 -0.00365602295 0.998055518 0.0622234605 -0.671772122 0.0170411058 0.740561843 -0.910211444 0.405769646 -0.0828622803 0.424021095 0.888650179 -0.174662516 0.299666703 0.953138769 -0.041549731 0.220035374 0.974430144 0.0455002561 0.243636861 0.969124913 0.0379206613 0.215388685 0.975689411 0.0404712185 0.320209742 0.946729839 0.0341804586 0.0964364558 0.99530983 -0.00763624953 -0.480390489 -0.0379904099 -0.876231551 0.759787619 -0.416591495 -0.499173582 0.1160625 0.993238151 -0.00274035824 -0.0170174874 -0.994468451 0.103647888 -0.0259126872 -0.999531329 -0.0163000356 0.870327413 -0.491462231 0.0315437727 -0.00985563826 -0.999950409 -0.00142450479 0.227054104 -0.60890156 -0.760056138 0.0105239153 -0.993501306 0.113333292 0.165450305 0.981075048 0.100588046 -0.355711401 -0.735373914 0.57679683 0.990942717 -0.0115846638 -0.133784771 0.317403197 -0.873327971 -0.369531393 -0.039076589 -0.977388084 0.207811341 0.0147289131 -0.99949801 0.0280495845 -0.0201145113 -0.992102325 0.123808086 0.0042110607 -0.999892175 -0.0140665425 -0.00596140651 -0.987328172 -0.158579916 -0.0103536965 -0.99935168 -0.0344829746 -0.997968674 0.0139423935 0.0621620864 -0.997534275 0.00766922161 0.0697605833 -0.297317117 -0.00409278926 -0.954770029 -0.0368986912 -0.998164058 0.0480316058 0.00828847196 -0.999958873 -0.00368636055 -0.00409582676 -0.99998039 0.00473909918 0.000501729781 -0.999999583 -0.000736500078 -0.000168338942 -0.999999642 0.000817429391 -0.0038495122 -0.999990284 0.00214084005 -0.000838095788 -0.999998808 0.00127525697 0.000898217899 -0.999999166 0.000943374296 0.00141828682 -0.999998987 -0.000193785178 0.00049533433 -0.999999821 0.000405038852 0.00226181652 -0.999997318 -0.000476200366 0.00500487676 -0.999977052 -0.00456540613 0.0232354458 -0.99957484 -0.01761337 -0.483157545 -0.277239591 -0.83047998 -0.998451591 -0.0218693707 -0.051148165 0.924824297 0.00890632439 -0.38029024 0.928442061 0.00231798389 -0.371470064 0.926041901 0.0067141694 -0.37736097 0.922277808 0.0134128649 -0.386294901 0.99999249 0.000176766989 0.00387715944 0.999996543 0.0024766901 -0.000881531625 0.998255491 -0.0589916706 0.00244247867 0.998977304 -0.00192239229 -0.0451735407 -0.788181067 0.577213407 0.213530481 -0.0117655164 0.993214071 0.115704112</float_array>
          <technique_common>
            <accessor source="#normals_array" count="332" stride="3">
              <param name="X" type="float" />
              <param name="Y" type="float" />
              <param name="Z" type="float" />
            </accessor>
          </technique_common>
        </source>
        <vertices id="vertices">
          <input semantic="POSITION" source="#positions" />
        </vertices>
        <triangles material="scout_1a1a1a" count="318">
          <input semantic="VERTEX" source="#vertices" offset="0" />
          <input semantic="NORMAL" source="#normals" offset="1" />
          <p>0 0 1 1 2 2 3 3 0 0 2 2 2 4 1 5 4 6 5 7 4 6 1 5 2 4 4 6 6 8 5 9 7 10 8 11 9 12 10 13 11 14 12 15 0 0 3 3 3 3 13 16 12 15 13 16 14 17 12 15 15 18 16 19 17 20 18 21 19 22 20 23 21 24 18 21 20 23 0 25 22 26 23 27 24 28 21 29 25 30 26 31 27 32 17 33 21 29 28 34 25 30 21 24 20 23 29 35 21 24 29 35 28 36 11 37 30 37 20 37 30 38 31 39 29 40 30 41 32 41 31 41 33 42 34 43 3 44 11 14 35 45 30 46 36 47 37 48 38 49 28 36 29 35 31 50 39 51 40 52 41 53 42 54 43 55 16 19 35 45 11 14 42 54 18 21 44 56 19 22 45 57 44 56 18 21 46 58 47 59 48 60 49 61 44 56 45 57 50 62 49 61 45 57 51 63 49 61 50 62 52 64 49 61 51 63 53 65 54 66 55 67 55 68 56 68 53 68 56 69 55 70 22 71 53 65 41 72 54 66 53 65 57 73 41 72 53 65 58 74 57 73 59 75 60 76 9 77 60 76 61 78 9 77 61 78 62 79 10 13 62 79 63 80 64 81 64 81 10 13 62 79 42 54 11 14 64 81 65 82 66 83 67 84 68 85 52 86 69 87 59 75 19 88 44 89 70 90 44 89 49 91 52 86 68 85 71 92 60 76 59 75 70 90 72 93 73 94 70 95 72 93 71 96 73 94 8 97 4 97 5 97 8 98 74 99 4 100 7 10 75 101 8 11 76 102 77 103 78 104 79 105 80 105 81 105 74 99 82 106 4 100 4 107 83 107 6 107 83 108 4 100 82 106 80 109 84 109 81 109 84 110 79 110 81 110 85 111 86 112 87 113 83 114 88 115 6 8 88 116 83 117 89 118 83 119 66 120 89 121 89 118 66 122 88 116 90 123 91 124 88 115 66 122 90 125 88 116 33 42 91 124 90 123 67 126 66 120 83 119 92 127 34 128 33 129 93 130 66 83 65 82 94 131 31 132 32 133 95 134 31 50 94 135 26 31 96 136 27 137 97 138 95 134 94 135 98 139 99 140 100 141 101 142 102 143 103 144 102 143 104 145 103 144 102 143 105 146 104 145 106 147 107 148 108 149 97 150 105 146 102 143 94 135 109 151 97 138 87 113 110 152 111 153 112 154 106 155 108 156 106 157 109 158 94 159 113 160 109 160 106 160 113 161 114 162 109 163 115 164 105 165 109 151 116 166 105 165 115 164 117 167 114 162 113 161 117 168 115 168 114 168 67 169 84 170 118 171 119 172 120 172 121 172 52 64 51 63 69 173 69 173 51 63 122 174 111 153 123 175 124 176 87 113 111 153 85 111 69 173 122 174 110 177 116 178 110 152 86 112 69 173 110 177 125 179 126 180 127 181 80 182 128 183 41 53 57 184 129 185 130 185 127 185 131 186 132 187 133 188 134 189 120 189 128 189 57 190 58 190 135 190 128 191 57 191 135 191 119 192 121 192 129 192 118 193 130 193 129 193 65 194 128 195 135 196 93 197 65 197 135 197 135 198 136 198 93 198 137 199 138 200 139 201 62 79 132 187 63 80 100 141 99 140 123 175 140 202 141 203 142 204 143 205 142 206 62 207 144 208 141 203 140 202 16 19 35 45 42 54 73 94 68 85 145 209 145 209 68 85 146 210 145 209 146 210 144 208 140 202 145 209 144 208 36 47 25 30 37 48 136 211 90 125 93 212 90 125 66 122 93 212 23 27 22 26 147 213 24 28 148 214 149 215 150 216 148 214 24 28 18 217 24 28 149 215 19 88 59 75 20 218 7 219 5 220 1 221 7 219 1 221 151 222 77 223 7 224 151 225 1 221 76 226 151 222 0 227 23 228 76 226 1 221 0 227 76 226 77 229 76 226 23 228 47 59 46 58 98 139 16 19 96 230 17 20 132 187 131 186 63 80 95 231 37 48 28 34 20 232 30 38 29 40 28 34 37 48 25 30 144 233 125 234 115 235 15 236 112 237 108 149 107 238 32 239 30 240 30 240 35 45 107 238 35 45 15 18 107 238 31 50 95 134 28 36 22 241 54 242 41 53 41 53 120 243 39 51 119 244 129 245 152 246 119 244 152 246 120 243 39 51 120 243 152 246 22 241 41 53 40 52 147 247 22 241 40 52 40 52 152 246 127 248 40 52 127 248 147 247 127 248 153 249 147 247 25 30 150 216 24 28 154 250 113 161 106 155 106 155 112 154 154 250 54 242 22 241 55 251 99 140 98 139 46 58 12 252 56 69 22 71 22 71 0 253 12 252 27 32 154 254 112 237 17 33 27 32 112 237 70 90 59 75 44 89 113 161 154 250 117 167 73 94 71 96 68 85 64 81 43 255 42 54 139 256 136 257 152 258 56 259 139 256 152 258 40 260 56 259 152 258 58 261 39 262 136 257 39 262 152 258 136 257 135 263 58 261 136 257 43 255 64 81 63 264 51 265 50 266 100 141 49 91 52 86 71 92 116 166 115 164 125 179 73 94 145 209 143 205 140 202 143 205 145 209 148 214 48 60 149 215 143 205 61 267 73 94 151 268 76 269 6 8 76 269 2 4 6 8 3 44 151 268 91 124 151 268 6 8 91 124 6 8 88 115 91 124 33 42 3 44 91 124 117 167 34 128 92 127 149 215 48 60 47 59 61 78 10 13 9 77 18 217 149 215 45 270 115 271 109 271 114 271 50 266 98 139 100 141 110 152 122 272 111 153 139 256 133 273 137 274 20 218 9 12 11 14 70 95 73 94 61 267 70 95 61 267 60 275 72 276 70 90 49 91 71 92 72 276 49 91 11 14 10 13 64 81 77 223 151 225 78 277 126 278 80 279 23 280 23 280 80 279 77 281 80 279 79 282 77 281 7 283 77 281 75 284 79 282 75 284 77 281 153 285 127 181 126 180 121 286 118 286 129 286 83 119 75 284 79 282 83 119 79 282 84 287 67 126 83 119 84 287 83 108 82 106 74 99 83 119 74 99 75 284 75 284 74 99 8 98 3 44 34 43 13 288 27 32 34 43 154 254 96 289 13 288 27 32 34 43 27 32 13 288 36 47 150 216 25 30 110 177 116 166 125 179 151 290 3 290 78 290 3 291 2 291 78 291 76 102 78 104 2 292 141 203 137 199 142 204 112 237 15 236 17 33 62 207 61 267 143 205 102 143 101 142 37 48 38 49 37 48 101 142 15 236 108 149 107 148 94 131 32 133 107 293 97 150 102 143 95 231 39 262 58 261 53 294 40 260 39 262 53 294 40 260 53 294 56 259 139 256 56 259 133 273 98 139 50 266 45 270 107 295 106 157 94 159 86 112 85 111 155 296 128 195 65 194 134 297 134 298 65 299 120 300 65 299 156 301 120 300 156 301 118 302 121 303 120 243 41 53 128 183 156 301 121 303 120 300 105 146 116 178 86 112 104 145 105 146 86 112 104 145 86 112 155 296 47 59 98 139 45 270 12 252 14 304 131 305 34 128 117 167 154 250 43 55 14 17 13 16 105 165 97 138 109 151 123 175 111 153 100 141 47 59 45 270 149 215 131 305 56 69 12 252 156 306 67 169 118 171 46 307 48 308 99 309 99 309 48 308 148 310 99 309 148 310 123 311 148 310 150 312 123 311 150 312 36 313 123 311 123 311 36 313 85 314 124 315 123 311 85 314 155 316 85 314 38 317 36 313 38 317 85 314 155 316 38 317 101 318 103 319 155 316 101 318 100 141 111 153 51 265 69 87 146 210 68 85 85 111 111 153 124 176 110 152 87 113 86 112 137 199 141 203 138 200 144 233 146 210 125 234 146 210 69 87 125 234 26 31 17 33 96 136 37 48 95 231 102 143 127 248 152 246 129 245 96 230 16 19 43 55 118 171 84 170 127 181 127 181 84 170 80 182 130 320 118 171 127 181 156 321 65 82 67 84 43 55 13 16 96 230 51 265 111 153 122 272 140 202 142 206 143 205 138 200 136 211 139 201 23 322 147 323 153 324 126 325 23 322 153 324 115 235 117 326 144 233 144 233 117 326 141 327 141 327 117 326 138 200 90 125 138 200 33 328 136 211 138 200 90 125 33 328 138 200 92 329 117 326 92 329 138 200 131 186 133 188 56 330 142 206 137 274 62 207 132 331 62 207 137 274 155 296 103 144 104 145 15 18 35 45 16 19 133 273 132 331 137 274 20 218 59 75 9 12 24 28 18 217 21 29 63 264 131 305 14 304 14 304 43 255 63 264</p>
        </triangles>
      </mesh>
    </geometry>
  </library_geometries>
  <library_visual_scenes>
    <visual_scene id="scene">
      <node id="left_hip_pitch_link">
        <instance_geometry url="#geometry">
          <bind_material>
            <technique_common>
              <instance_material symbol="scout_1a1a1a" target="#scout_1a1a1a" />
            </technique_common>
          </bind_material>
        </instance_geometry>
      </node>
    </visual_scene>
  </library_visual_scenes>
  <scene>
    <instance_visual_scene url="#scene" />
  </scene>
</COLLADA>