<?xml version='1.0' encoding='utf-8'?>
<COLLADA xmlns="http://www.collada.org/2005/11/COLLADASchema" version="1.4.1">
  <asset>
    <created>2026-09-14T00:00:00Z</created>
    <modified>2026-09-14T00:00:00Z</modified>
    <unit name="metre" meter="1" />
    <up_axis>Z_UP</up_axis>
  </asset>
  <library_effects>
    <effect id="scout_1a1a1a_effect">
      <profile_COMMON>
        <technique sid="common">
          <lambert>
            <emission>
              <color>0 0 0 1</color>
            </emission>
            <ambient>
              <color>0.05 0.05 0.05 1</color>
            </ambient>
            <diffuse>
              <color>0.1 0.1 0.1 1</color>
            </diffuse>
          </lambert>
        </technique>
      </profile_COMMON>
    </effect>
  </library_effects>
  <library_materials>
    <material id="scout_1a1a1a" name="scout_1a1a1a">
      <instance_effect url="#scout_1a1a1a_effect" />
    </material>
  </library_materials>
  <library_geometries>
    <geometry id="geometry" name="left_hip_yaw_link">
      <mesh>
        <source id="positions">
          <float_array id="positions_array" count="252">-0.102083005 -0.0479074046 -0.00453891046 -0.101256572 -0.0039735618 -0.0468832999 -0.0915062502 -0.0209724549 -0.0476465672 -0.0922469199 -0.046927698 -0.018391449 -0.0613947473 -0.0274399258 -0.052963376 -0.0613882616 -0.0558080561 -0.0193887874 -0.0486893766 0.0300702117 -0.0527303666 -0.0293641947 0.0193087477 -0.0536613502 -0.0485527292 -0.039926555 -0.0471431464 -0.0326938331 0.0442066453 0.0344983339 -0.0186253916 0.0558973178 0.0324784517 -0.0128623014 0.0446838513 0.0416526869 -0.0904726386 -0.0483125113 0.0234158188 -0.0661262199 -0.00170679938 0.0588983595 -0.0881017819 0.0187025797 0.0510453545 -0.0961945429 -0.0199124329 0.0453501642 -0.0412250161 -0.0048882626 0.0613038875 -0.0265873075 -0.0296229627 0.0616308786 -0.0428074487 -0.0430800095 0.0410107076 -0.0326885432 -0.0260930844 0.0877261683 -0.042525053 0.000565273222 0.0684365928 -0.0261623058 -0.0356660224 0.0586493984 -0.0237748157 -0.0294651557 0.0845790952 -0.0369294696 0.0171958096 0.0882337987 -0.0457964651 -0.0584364124 0.0103640156 -0.0145107526 -0.0482728817 0.036763005 -0.0274037961 -0.0616035461 0.0167882964 -0.0326212272 -0.0198125187 0.0948706791 -0.0412076525 -0.0353718698 0.0930600539 -0.0205312204 -0.0457482152 0.0919831693 -0.0292573962 -0.00776802097 0.0554688908 -0.0101470621 -0.000372930226 0.0604884885 -0.0218217839 -0.0036768429 0.0873020068 -0.0650499761 -0.0494403355 0.0453655943 0.00351435202 -0.0367869623 0.0714451373 0.0213921983 -0.0378772691 0.088087447 -0.000994676957 0.00238193455 0.0873345807 -0.00134653877 -0.00719783362 0.0654787868 -0.028208755 1.75198547e-05 0.0874451324 -0.034911219 0.00340618729 0.0595725477 -0.0917183682 0.0225154534 -0.0459015518 -0.098373726 0.0403853729 -0.0257031489 -0.0882775038 0.050928805 -0.0159968287 -0.0998871401 0.0294108614 0.0378575884 -0.0920714736 0.047068391 0.019422017 -0.0668865219 0.0478040539 0.0281969924 -0.00639167149 0.0029235757 0.0847205296 -0.00139107776 0.00692163641 0.0742171854 -0.0648875758 0.0299563892 0.0587616675 -0.0646346286 0.0634716451 0.0207052212 -0.0616945475 0.0544194467 -0.0203131009 -0.0314422026 0.0323148742 0.0597454496 -0.0433466807 0.0411718637 0.0439011306 -0.0262209289 0.0314946175 0.0602503009 -0.0257159658 0.0273968466 0.0845779702 -0.0433239602 0.0590784438 0.0109732086 0.00552108558 0.0382622369 0.0852406695 0.0153265344 -0.00179081166 0.0796816349 0.00387113611 0.0387812592 0.0692505315 0.0302336961 -0.0268673468 0.0797499046 0.00266385055 -0.00356963766 0.0856474489 0.0546327643 -0.0127710309 0.0936512575 0.0121876476 -0.0510894395 0.093909435 0.0351965912 -0.0437378511 0.0908472016 0.0361973122 0.00218884833 0.0828201771 0.0379692204 0.0179519188 0.0850744471 -0.0101551926 0.0412101783 0.0882244483 -0.0487593822 0.0556323044 -0.019409867 -0.0291956495 0.0554527007 -0.00518120592 -0.0658006221 -0.0543139577 0.01899896 -0.0293872133 -0.0549300164 -0.000230718331 -0.0296188332 -0.0365770236 -0.0410263091 -0.0330604389 -0.0452214107 0.0345909484 -0.0614713281 0.0303181075 -0.0526933968 -0.0310007799 0.00648175739 0.0842631012 -0.0546050295 -0.0106606362 0.0936220959 0.0389591716 -0.00733173685 0.0952039883 -0.0543428697 0.0146237593 0.0932805315 -0.0223110616 0.049320709 0.0933055878 -0.033429537 0.0262123048 0.0916502848 0.00307411025 -0.0359209776 0.084838286 0.00566166313 0.0379074141 0.0950689986 0.0527338795 0.0148254633 0.0935900211 0.0235320814 0.0487023219 0.0933615789</float_array>
          <technique_common>
            <accessor source="#positions_array" count="84" stride="3">
              <param name="X" type="float" />
              <param name="Y" type="float" />
              <param name="Z" type="float" />
            </accessor>
          </technique_common>
        </source>
        <source id="normals">
          <float_array id="normals_array" count="645">-0.703296781 -0.512427807 -0.492738605 -0.779838383 -0.426740646 -0.457978755 -0.575791001 -0.593255162 -0.562594831 -0.490097612 -0.645841122 -0.585400403 -0.318519771 -0.724093795 -0.611746073 -0.284780324 -0.724334061 -0.62788564 -0.0396183133 -0.0795824304 -0.996040702 -0.0257369131 -0.101101585 -0.994543135 0.278137088 -0.123170793 -0.952611506 0.401838481 -0.602684438 -0.689418077 0.374429852 -0.57611841 -0.726560295 0.303628832 -0.504981458 -0.807962418 0.04987422 -0.998135805 -0.0351785123 -0.181648567 -0.983049393 -0.0248529948 -0.196116135 -0.980534017 -0.00956282392 -0.381746471 -0.0560611747 0.922565341 -0.6108163 0.0112482607 0.791692436 -0.505389929 -0.0213085674 0.862627923 0.610352635 0.35181728 -0.709714234 -0.950290501 -0.304871887 0.0632545203 -0.98922807 -0.0365988687 0.141733184 -0.916279197 -0.393226057 -0.0761955008 0.856150925 0.505227149 -0.108402513 -0.907242894 0.372278392 0.195752874 0.283872902 0.732707739 -0.618510783 0.216605097 0.82863307 -0.516187429 0.346234441 0.661670268 -0.665067077 -0.0302838255 -0.0407017469 0.998712301 -0.0365891084 -0.095566608 0.994750381 -0.00931236707 -0.0779707879 0.996912122 0.0737979487 -0.991171777 0.110147171 0.351933926 -0.935253441 0.0379932709 0.163909957 -0.98254329 0.0879897699 0.0163039956 -0.870418608 0.492042243 -0.0914791375 -0.909515381 0.405479103 -0.0195018649 -0.925167263 0.379058242 -0.0589579791 -0.997037649 0.0493955463 0.239980206 0.90111196 -0.361118704 0.0929434747 0.882921994 -0.460228473 0.306037873 0.912071466 -0.272885382 0.242588967 0.969446123 -0.0363974161 -0.160831735 -0.969101965 0.187014639 -0.207049653 -0.94212079 0.263702273 0.685185015 0.662980258 -0.301626593 -0.147268265 -0.98548913 -0.084399581 -0.193131894 0.0383988023 -0.980421126 -0.149834186 0.0203882102 -0.988500893 -0.00838763639 0.0400518887 -0.999162376 -0.79128325 0.304576844 -0.530192137 -0.106953144 0.726910651 -0.678352416 -0.178849518 0.723457754 -0.666799605 -0.247504845 0.744830191 -0.619652629 -0.956138372 0.292914063 -0.000877997896 -0.994701862 0.096416913 0.0356640741 -0.870473027 0.489767343 0.0490374491 -0.211794868 0.714155436 0.667176902 -0.0815389231 0.736819446 0.671154559 0.0456596315 0.61293292 0.788814604 -0.122938253 0.666748703 0.73507303 0.18489331 0.519960165 0.83393997 -0.633481741 0.773725212 -0.0070822048 -0.252169311 -0.0690660477 0.965215266 -0.141784623 0.474481881 0.868771613 -0.359831512 -0.136771515 0.922938168 -0.991516888 0.124226637 -0.0382357091 -0.990852177 0.0981017277 -0.0926713049 -0.977638245 0.176857442 0.113775685 -0.0244681835 0.610648155 0.791523933 -0.0541753992 0.757492959 0.650591612 0.626154602 -0.175394967 -0.75971514 0.953501999 -0.293334514 -0.0692010373 0.95825696 -0.270364374 -0.0929877087 0.958370745 -0.269738823 -0.09362977 0.450712919 -0.648391604 -0.613552094 0.176422536 0.982647479 -0.0572629459 0.14881441 0.983612955 -0.101783276 0.117033117 0.985735655 -0.120947979 0.859717309 0.48907724 -0.147273794 0.220640317 0.181155726 -0.958384275 0.0849404931 0.14178431 -0.986246586 0.444397926 0.330489129 -0.8326388 0.221972719 -0.901778162 -0.370842576 0.073426567 -0.905259609 -0.418465704 0.18852897 -0.887442112 -0.420598775 0.304552048 -0.909922063 -0.281584591 0.802621245 -0.555773556 -0.216598362 -0.184345648 0.982725859 0.0163255315 -0.258975267 0.900395274 0.349600017 -0.213386655 0.96767056 0.134461179 0.222365245 0.683280289 0.69547236 0.0470875129 0.744464457 0.665999532 0.434413403 -0.738907337 -0.515073776 0.199863806 -0.970500588 0.134844631 0.483668923 0.461710274 -0.743564427 0.100336052 -0.050950624 0.993648171 -0.00245841872 -0.0382273383 0.999266028 0.19425036 -0.208711788 0.958491623 0.112769738 0.122501746 -0.986040711 -0.0521796942 -0.0337362178 -0.998067677 0.367627561 -0.172025159 0.913924158 0.713221908 -0.202807724 0.670957148 0.789969206 -0.204994172 0.577863395 0.436516315 0.874671221 0.21072188 0.0779081285 0.132551759 -0.988109469 0.144821763 0.895042658 -0.421811879 0.240833998 0.916447341 -0.319567233 0.389268756 0.733386993 -0.557326913 -0.24243784 -0.970165193 -0.00183384854 -0.20275411 -0.976569951 0.0721243694 0.271412164 -0.894070625 -0.356332988 0.142136663 -0.940234184 -0.309446007 0.420613289 -0.857534349 -0.296174526 -0.410568416 -0.696537971 -0.588445723 0.0543281138 -0.944414794 -0.324236304 0.28225109 -0.874282897 -0.394922405 -0.835344672 -0.431427747 0.34068957 0.801351011 0.00247197039 -0.598189354 -0.0113435881 -0.933054745 0.359555453 -0.0959703848 0.988560855 0.116348945 -0.0643006861 0.99277395 0.101318024 -0.0830968618 0.990424097 0.110249616 -0.998886704 -0.0322753526 0.0344036631 -0.993601203 0.0563481152 0.0978854671 -0.995339453 0.0393172689 0.0880542696 -0.195259333 -0.336984485 0.921040297 -0.248759955 -0.311128885 0.917233527 0.794430971 -0.205032066 0.571700394 0.372972041 -0.882830799 0.28548494 0.298346251 -0.457465023 0.837684453 0.391044199 -0.473256052 0.789375186 0.314871997 -0.460609436 0.829876244 -0.804153442 0.575100839 0.150320485 0.589071572 0.399621099 0.70235157 0.811660051 0.273190111 0.516309142 0.84109515 0.249286175 0.480015993 0.998691142 -0.0196899734 0.0472054221 0.999107659 -0.00405221386 0.0420409627 0.999849558 0.0172994323 0.00123901805 0.985108972 -0.00421642838 -0.17187959 0.999424458 -0.0175100248 0.0290552713 0.998479247 0.0263001472 0.0484508537 0.986653984 0.150518611 0.0621129945 0.528727889 0.423373222 0.735664248 0.220200643 0.774166763 -0.59344548 -0.0752010569 -0.27949807 -0.957196772 0.139567778 -0.197743446 -0.970267177 -0.00561187323 -0.369491607 -0.9292171 0.521601439 0.807688773 0.274901539 -0.645127892 0.719371259 0.25751701 -0.302471906 0.928335547 -0.216110751 -0.123971537 0.857839644 -0.498740613 -0.158661529 0.787838578 -0.595093966 -0.068977803 -0.0265806504 -0.997264028 0.205918387 0.00484708929 -0.978557169 -0.724061966 0.0502898954 0.687899172 -0.998529911 -0.0138012758 0.0524171256 -0.998875916 0.0362589136 0.0305318814 -0.993921936 0.0855158791 0.0693271309 -0.109584488 0.986364782 0.122783184 -0.721428037 0.692487061 -0.00180108636 0.333942652 -0.209309116 -0.919060409 -0.188311055 -0.981575906 0.0323673114 0.188634187 0.936677098 -0.295047671 0.962674677 -0.24140574 -0.122395955 -0.204801083 -0.167330399 -0.964394689 -0.352749795 -0.283728451 -0.891664624 -0.197637185 -0.16168803 -0.966848731 0.0200273562 0.00999029912 -0.999749541 -0.00436233869 -0.604306698 0.796739817 0.00500227511 -0.607401431 0.794379294 0.000116392948 -0.605794549 0.795621097 0.0120431092 -0.60968715 0.792550623 -0.0597793274 -0.00741404109 0.998184085 0.0481260233 -0.0165499616 0.998704135 -0.155696839 -0.974495173 0.16160953 -0.402507246 0.126216114 -0.906673849 -0.80937773 -0.425463557 -0.40483135 0.423158675 -0.111784734 -0.899133444 0.149391681 0.977224171 -0.150715172 0.149390474 0.977224171 -0.150716245 0.154519007 0.977114856 -0.146186352 0.978189528 -0.178202957 -0.106719173 -0.294417381 -0.258565992 -0.920033693 -0.291425675 -0.0453207977 -0.955519259 -0.247036979 -0.204493225 -0.947182775 -0.287776172 0.169213593 -0.942630172 -0.288039982 0.0772361085 -0.954498589 0.09714894 -0.974071503 -0.204320237 0.144190684 0.977288246 -0.15529561 -0.0337964334 -0.0181972831 0.999263048 0.0335142724 0.0280276239 0.999045193 0.0283332802 -0.0313162766 0.999107838 -0.911987782 0.0881770179 -0.400628388 -0.120221466 0.969628036 -0.212998301 0.278495133 -0.946132541 -0.165147513 -0.999550521 -0.0179932173 0.0239787418 0.991883636 0.111642204 -0.0608515218 0.98583442 0.166318282 0.0216510855 0.988169074 0.0557976142 -0.142858297 0.980047524 0.0173807163 -0.198001802 -0.239575535 -0.0603981838 -0.96899724 -0.428111076 0.0171706341 -0.903563023 -0.327488631 0.942132056 -0.0716821775 -0.00553883007 0.070211187 0.997516751 0.0588544495 0.0360790901 0.997614384 0.0452414826 0.0750982538 0.996149302 0.0520753264 -0.296750218 -0.953534186 0.41399169 0.248013407 -0.875842571 0.340864003 -0.0766948089 -0.936978996 0.518454432 0.160974368 -0.839816809 -0.0544612445 0.416227609 -0.907628 0.141195297 0.351905078 -0.925325155 -0.175501928 0.340887725 -0.92357707 0.408545285 -0.475710452 0.7789675 -0.530269921 -0.847392082 0.0272108316</float_array>
          <technique_common>
            <accessor source="#normals_array" count="215" stride="3">
              <param name="X" type="float" />
              <param name="Y" type="float" />
              <param name="Z" type="float" />
            </accessor>
          </technique_common>
        </source>
        <vertices id="vertices">
          <input semantic="POSITION" source="#positions" />
        </vertices>
        <triangles material="scout_1a1a1a" count="164">
          <input semantic="VERTEX" source="#vertices" offset="0" />
          <input semantic="NORMAL" source="#normals" offset="1" />
          <p>0 0 1 1 2 2 3 3 0 0 2 2 2 2 4 4 5 5 6 6 7 7 8 8 9 9 10 10 11 11 0 12 3 13 12 14 13 15 14 16 15 17 16 18 17 18 18 18 19 19 20 20 21 21 16 22 22 22 17 22 23 23 20 20 19 19 24 24 25 25 26 26 27 27 28 28 29 29 30 30 31 31 32 32 25 33 21 34 33 35 34 36 21 34 25 33 17 37 25 25 18 38 17 37 34 39 25 25 17 37 22 40 34 39 35 41 19 42 21 34 36 43 37 43 31 43 38 44 39 44 31 44 40 45 2 46 1 47 41 48 40 48 1 48 41 49 42 50 40 51 41 52 43 53 44 54 44 55 43 56 14 57 45 58 14 57 13 59 46 60 47 60 31 60 20 61 48 62 13 63 49 64 50 65 45 66 51 67 49 68 48 62 52 69 53 69 39 69 53 70 54 71 39 72 10 10 9 9 55 73 10 74 55 75 49 76 38 77 30 77 39 77 56 78 57 79 47 80 53 81 52 82 11 83 58 84 53 81 11 83 47 85 36 85 31 85 58 86 11 87 51 88 51 67 11 89 10 90 59 91 35 91 34 91 57 92 60 92 37 92 47 80 57 79 37 93 61 94 62 95 63 96 57 79 64 97 59 98 64 99 65 100 59 101 66 102 65 102 58 102 56 78 65 103 64 97 67 104 68 105 7 106 5 107 69 108 12 14 2 2 5 5 3 3 8 109 24 110 5 111 4 4 8 112 5 5 44 55 14 57 45 58 70 113 8 109 71 114 0 115 12 115 15 115 32 116 22 116 16 116 26 117 25 33 33 35 69 108 26 117 33 35 42 118 44 119 45 120 69 121 33 121 13 121 48 122 49 64 45 66 13 123 48 122 45 66 21 124 20 61 33 125 35 126 59 101 65 100 24 127 70 127 72 127 55 75 67 104 49 76 67 104 55 75 68 105 16 128 18 129 30 130 23 23 51 131 20 20 9 132 39 133 30 134 68 135 9 136 72 137 9 136 30 138 72 137 7 139 68 135 72 137 7 139 72 137 71 140 71 140 72 137 70 141 39 133 9 132 52 142 6 143 67 104 7 106 29 144 63 145 62 146 34 36 35 41 21 34 55 147 9 147 68 147 51 131 23 23 66 148 38 149 31 149 30 149 40 51 42 50 50 150 73 151 40 51 50 150 73 152 4 153 2 46 73 151 50 150 67 104 67 104 6 143 73 151 2 46 40 45 73 152 50 150 49 76 67 104 3 13 5 107 12 14 6 6 8 8 73 152 43 154 15 17 14 16 15 155 43 53 1 156 1 156 0 157 15 155 41 52 1 156 43 53 50 158 42 118 45 120 42 159 41 52 44 54 20 61 51 67 48 62 71 160 8 8 7 7 24 161 26 117 69 108 72 162 18 38 25 25 51 67 10 90 49 68 39 72 54 71 74 163 54 164 58 165 46 166 74 167 54 164 46 166 69 168 13 169 12 170 15 171 12 170 13 169 24 161 69 108 5 107 28 28 27 27 75 172 76 173 29 29 62 95 62 95 61 94 76 173 24 110 8 109 70 113 30 30 32 32 16 174 34 175 22 175 32 175 34 176 32 176 31 176 37 177 34 177 31 177 74 178 31 179 39 180 58 181 56 181 47 181 56 78 64 97 57 79 28 182 75 183 19 184 19 184 75 183 23 185 23 185 75 183 77 186 9 187 11 83 52 82 46 188 31 179 74 178 78 189 77 190 79 191 58 192 47 192 46 192 66 193 58 86 51 88 54 194 53 81 58 84 37 195 36 195 47 195 80 196 34 197 37 198 80 196 37 198 60 199 57 79 59 98 80 200 60 201 57 79 80 200 20 61 13 63 33 125 24 24 72 162 25 25 80 202 59 202 34 202 79 191 81 203 78 189 27 27 79 191 77 190 82 204 76 173 61 94 75 172 27 27 77 190 83 205 76 173 82 204 81 203 76 173 83 205 81 203 83 205 78 189 29 144 28 182 19 184 63 145 29 144 35 206 29 144 19 184 35 206 63 145 35 206 65 207 61 208 63 145 65 207 61 208 65 207 82 209 65 207 66 210 83 211 78 212 66 210 23 185 65 207 83 211 82 209 78 212 83 211 66 210 78 212 23 185 77 186 30 130 18 129 72 213 76 173 27 27 29 29 27 27 76 173 81 203 27 27 81 203 79 191 56 214 58 214 65 214 4 153 73 152 8 8</p>
        </triangles>
      </mesh>
    </geometry>
  </library_geometries>
  <library_visual_scenes>
    <visual_scene id="scene">
      <node id="left_hip_yaw_link">
        <instance_geometry url="#geometry">
          <bind_material>
            <technique_common>
              <instance_material symbol="scout_1a1a1a" target="#scout_1a1a1a" />
            </technique_common>
          </bind_material>
        </instance_geometry>
      </node>
    </visual_scene>
  </library_visual_scenes>
  <scene>
    <instance_visual_scene url="#scene" />
  </scene>
</COLLADA>