<?xml version='1.0' encoding='utf-8'?>
<COLLADA xmlns="http://www.collada.org/2005/11/COLLADASchema" version="1.4.1">
  <asset>
    <created>2026-09-14T00:00:00Z</created>
    <modified>2026-09-14T00:00:00Z</modified>
    <unit name="metre" meter="1" />
    <up_axis>Z_UP</up_axis>
  </asset>
  <library_effects>
    <effect id="scout_1a1a1a_effect">
      <profile_COMMON>
        <technique sid="common">
          <lambert>
            <emission>
              <color>0 0 0 1</color>
            </emission>
            <ambient>
              <color>0.05 0.05 0.05 1</color>
            </ambient>
            <diffuse>
              <color>0.1 0.1 0.1 1</color>
            </diffuse>
          </lambert>
        </technique>
      </profile_COMMON>
    </effect>
  </library_effects>
  <library_materials>
    <material id="scout_1a1a1a" name="scout_1a1a1a">
      <instance_effect url="#scout_1a1a1a_effect" />
    </material>
  </library_materials>
  <library_geometries>
    <geometry id="geometry" name="left_elbow_link">
      <mesh>
        <source id="positions">
          <float_array id="positions_array" count="420">-0.0368753895 -0.0235169549 0.0151286013 -0.0361961834 -0.0236120392 -0.0161245484 -0.0354022793 -0.0293915719 -0.0067754183 -0.011828091 -0.0233913474 -0.0379209779 -0.00520113017 -0.0271592755 -0.0377640091 -0.0254130699 -0.0244639553 -0.029885849 -0.0236587171 -0.0302203558 -0.0241551213 -0.00458331965 -0.0304700024 -0.0318831988 -0.0159642529 -0.0220626611 0.00386813004 -0.0092526637 -0.0221564099 -0.0135662211 -0.0323957615 -0.0295300148 0.013358566 -0.0148114087 -0.0303368308 0.029016586 -0.0257938951 -0.0240075085 0.0304832216 -0.0129062003 -0.023790054 0.0377227068 -0.00534100085 -0.022364486 0.0145312678 0.00474583032 -0.0276411772 0.0376001149 0.015427134 -0.0301298499 0.0296790674 -0.0356552489 0.0306263324 -6.35717515e-05 -0.0266628899 0.031141147 -0.020838188 -0.0372146815 0.0248624478 -0.0131695503 -0.0303227194 0.024891302 -0.0251411814 -0.0154459104 0.0242460985 -0.0374399759 -0.00580091961 0.0306716301 -0.0352063365 0.270451397 -0.00910930987 0.00936108362 0.272914618 -0.00819837954 0.0160859656 0.270757884 0.0104747163 0.00956168585 -0.028885765 0.0263138488 0.0265418272 -0.03728747 0.0245868806 0.0144474339 -0.0173639022 0.031217847 0.028750971 -0.015509123 0.0243148152 0.0369650349 0.00101217965 0.0286233965 0.037773937 0.0165474135 0.0310438816 0.0287563987 0.04779502 -0.027376119 -0.0350778848 0.0346529409 -0.0231221244 -0.0383718275 0.0386121199 -0.0203031208 -0.0334069915 0.0385522544 -0.0186014567 -0.0408629142 0.0469617359 -0.0223076995 -0.0198606532 0.0659031048 -0.0286456402 -0.0298650023 0.0853226855 -0.0203671623 -0.0387929641 0.102769211 -0.0121136559 -0.0418877974 0.084914282 -0.0252207052 0.00135046721 0.0515892506 -0.0295513701 0.00816436484 0.120242126 -0.0238408279 -0.00652419357 0.112568736 -0.0242814496 -0.027774306 0.211861715 -0.0183872115 -0.0384377241 0.208772391 -0.00919778086 -0.0436789282 0.125775054 -0.0211947858 -0.0347745977 0.302210033 -0.00931705628 0.00876239967 0.288093686 0.0039316141 0.0169821046 0.28745544 -0.0118093789 0.0150908595 0.288766205 0.0171214435 0.0129599255 0.273611814 0.0262918882 0.00633130269 0.273306489 0.014006638 0.0147500895 0.273002744 0.0321523324 -0.0340463184 0.282362223 0.0373861007 -0.020731084 0.287269294 0.0289561413 -0.0402925052 0.0553434193 0.0303106066 -0.0300442558 0.115538709 -0.0191067383 0.00281363004 0.206281751 -0.0234686956 -0.00631112931 0.194983572 -0.0172957201 0.0017800614 0.213449702 -0.025203811 -0.014378475 0.214647651 -0.0241812915 -0.0299259797 0.270340145 -0.026659755 -0.0314235762 0.270094991 -0.0158229098 -0.0437059738 0.272877574 -0.0214287266 -0.0458872132 0.270689636 -0.0274277255 -0.00805247389 0.269747466 -0.019633919 0.00369165535 0.272889107 -0.024205571 0.00700114202 0.270099044 -0.0065065166 -0.046789974 0.272719741 -0.00454113353 -0.053803809 0.285715759 -0.0341450088 -0.00686725695 0.272956163 -0.0331195369 -0.0314116031 0.287848115 -0.033183977 -0.0311205368 0.272762328 -0.0340061747 -0.010363684 0.283354729 -0.0215427596 -0.0472885966 0.285572737 -0.00686315214 -0.0539615788 0.299967915 -0.0164189301 -0.0445401743 0.305481553 -0.0218111165 -0.03236885 0.296817154 -0.0318235271 -0.0206714813 0.306415498 -0.0243062973 -0.0147817293 0.298470736 -0.0265150443 -0.00198047119 0.307855099 0.00228734827 -0.0427301899 0.313962281 -0.0124488007 -0.0222617462 0.311355889 -0.013699933 -0.00638676109 0.314972907 -0.000913825876 -0.0296261217 0.315258235 -0.000504317693 -0.00802469347 0.00980953407 -0.0219662357 0.0127328159 0.0137085682 -0.0220970344 -0.00879683066 0.270596057 0.0236435533 0.000849801057 0.21526213 0.0258262511 -0.0091932565 0.189087719 0.0221441146 -0.00258313236 0.0300160423 -0.023764452 0.0292239916 0.0420219153 -0.0236467328 0.0224770941 0.0140711693 -0.0234012753 0.0363694318 0.0551541299 -0.0241405312 0.0146352658 0.0690341368 -0.0222916156 0.010097703 0.0581827872 -0.0218950864 -0.00537514221 0.0991030112 -0.0112118702 0.00893445686 0.0714694411 -0.015115343 0.0128767537 0.160638899 -0.00779135013 0.00626710569 0.214628682 -0.0111634796 0.00628427183 0.286954433 -0.023873277 0.00800740253 0.30717963 0.00644992013 0.00569264777 0.0375312194 0.0247681774 -0.039292492 0.115063414 0.0185082592 -0.0390603095 0.106392264 0.010710883 -0.042297639 0.118452474 0.0226891711 -0.0337800384 0.0641694739 0.0297805183 0.00226303819 0.0916258395 0.024207022 0.00285881362 0.123082943 0.0250505563 -0.00940676406 0.124789573 0.0216906089 0.000737972732 0.21274063 0.0209144913 -0.0372582823 0.290077329 0.00637732493 -0.053258907 0.273014426 0.0197032113 -0.048743546 0.292696506 0.0189194717 -0.0478508137 0.121293359 0.0250489172 -0.0264585651 0.217583358 0.0259905662 -0.0271131024 0.223239571 0.0111852279 -0.0437931679 0.269161552 0.0295465067 -0.0172858909 0.269860953 0.0233661626 -0.0382935144 0.270685822 0.0104369391 -0.0464439355 0.27282092 0.034850046 -0.00964935217 0.297392726 0.0307650398 -0.0290126335 0.302143753 0.028973652 -0.00996623002 0.308483034 0.0192612782 -0.032080669 0.28865841 0.0308823604 0.000265113078 0.313703805 0.014310563 -0.0158166718 0.304762363 0.0214818604 -0.000824136019 0.0127374576 0.0249617398 0.0371802673 0.0259720944 0.0252639744 0.0312143117 0.0441560782 0.0285222288 0.0175190102 0.0407323912 0.0242458191 0.0228313748 0.0582753383 0.0249565318 0.0134320967 0.053472355 0.023121357 -0.0119763911 0.070208557 0.021812262 0.0113285473 0.0927187279 0.0157053769 0.00900139287 0.119713366 0.0115259402 0.00730240392 0.187415674 0.0157291908 0.00344489235 0.191063493 0.00817360915 0.00612794468 0.0365208574 0.0232692342 -0.0371135734</float_array>
          <technique_common>
            <accessor source="#positions_array" count="140" stride="3">
              <param name="X" type="float" />
              <param name="Y" type="float" />
              <param name="Z" type="float" />
            </accessor>
          </technique_common>
        </source>
        <source id="normals">
          <float_array id="normals_array" count="648">-0.756907284 -0.590985656 0.278975576 -0.985366464 -0.169162929 -0.0208997317 -0.973198533 -0.229935348 -0.0037823692 -0.350659698 -0.645017922 -0.678962231 -0.0953231454 -0.556524277 -0.82534492 -0.45812279 -0.68806386 -0.562753618 -0.613417804 -0.683974326 -0.39483887 -0.307768255 -0.904794216 -0.294323206 -0.609625459 -0.696367979 -0.378719449 -0.068987757 0.996831775 -0.0395862386 -0.0375112556 0.99738878 -0.0617128387 -0.205415294 0.953627944 -0.219996065 -0.0534012094 -0.960094929 -0.274528861 -0.0266028345 0.999554992 0.0134963747 -0.0210391786 0.999437809 -0.0261034947 -0.46211949 -0.866847932 0.187137038 -0.178326845 -0.923773348 0.338883907 -0.0338625424 -0.999420583 0.00343592255 -0.426804781 -0.763862431 0.48409906 -0.228946716 -0.753288329 0.616555035 -0.0193622205 0.999159098 0.0361417532 0.0528913066 -0.883821726 0.464824289 0.169402182 -0.918507814 0.357276291 -0.623331487 0.740421772 -0.251462638 -0.554398656 0.697274923 -0.454367518 -0.63430208 0.718988478 -0.284106404 -0.555606246 0.667065144 -0.496312201 -0.384816855 0.730953336 -0.563580692 -0.367081732 0.744741678 -0.557324708 -0.920410812 -0.120558009 0.371900082 -0.93058455 -0.0649398491 0.360270977 -0.92073375 0.119165547 0.371549428 -0.442528158 0.827040195 0.346660256 -0.137580216 0.988113701 0.068578124 -0.548519373 0.792041898 0.267947882 -0.218801737 0.90894711 0.354881614 -0.283545405 0.701642931 0.653681278 0.0167487897 0.908160031 0.418287963 0.149247274 0.927091777 0.343840241 0.036184147 -0.778633058 -0.626435399 0.0421648547 -0.515127659 -0.856075704 -0.700416207 0.694601357 0.164152667 0.0098474063 -0.31516102 -0.948987126 -0.815176487 0.221420139 0.535219967 -0.818830788 0.207139388 0.535359085 -0.661980867 0.565665424 0.491735667 0.0820761472 -0.956767261 -0.279033929 0.0629609227 -0.640596151 -0.765292406 0.0205409788 -0.259902209 -0.965416431 0.220642909 -0.193870291 0.955892801 0.0401155129 -0.977874219 -0.205311388 -0.0262760222 -0.683769226 -0.729225039 -0.0246608183 -0.251378417 -0.967574656 -0.00166510395 -0.793141901 -0.609034598 0.611539543 -0.272511125 0.742803514 0.225635052 0.0798363984 0.970935106 0.197845355 -0.337104976 0.920444131 0.261873096 0.464298904 0.846078634 -0.00272812997 0.731859028 0.681450546 -0.0286259875 0.343652308 0.938660562 -0.510303319 0.778788149 -0.364800721 0.0358053483 0.997438371 -0.0619251318 0.18474336 0.790555596 -0.583859324 0.0560677536 0.949493408 -0.308737278 0.0070705507 0.999971807 -0.00252293423 0.0914106518 -0.7028777 0.705412626 0.0414071269 -0.97060883 0.237073794 -0.019361468 -0.91634196 0.399928123 -0.00916659459 -0.657708704 0.753216565 -0.0309043489 -0.998141766 0.0525161438 -0.0279141273 -0.946575165 -0.32127291 -0.0353379585 -0.931269348 -0.362613589 -0.0330172032 -0.550091982 -0.834451139 -0.914292395 -0.367551237 -0.170221806 -0.850756526 -0.240452856 -0.46732828 -0.889769316 -0.294243395 -0.348900199 -0.03847773 -0.962923884 0.2670151 -0.0353213549 -0.67534095 0.736659348 -0.867293656 -0.319903374 0.38139689 -0.924051285 -0.353239566 0.146119773 -0.884211957 -0.330773383 0.329785079 -0.915112138 -0.103243724 -0.389756948 -0.926589847 -0.0357926413 -0.374366373 0.129262805 -0.948114276 0.290466011 -0.0133273574 -0.941119611 -0.337810934 0.204804391 -0.914682388 -0.348441273 -0.0616999529 -0.979906559 0.189674154 -0.0793262869 -0.109377831 -0.990829885 0.0892349333 -0.620789409 -0.778882325 -0.110512659 -0.62139523 -0.77566421 -0.920113146 -0.372834831 -0.119941451 -0.926880836 -0.375352561 0.00152647088 -0.947914064 -0.315080225 0.046726875 -0.0619581342 -0.694256365 0.717056036 0.173008159 -0.206717223 -0.962982953 0.546309948 -0.44497332 -0.709608436 0.69837147 -0.601560831 -0.387816817 0.452938378 -0.889835 -0.0551409312 0.725975573 -0.680926502 0.0964290053 0.523927152 -0.716636598 0.460361034 0.73802942 0.0393927954 -0.673617661 0.928008854 -0.354556203 -0.114409469 0.846550643 -0.391119331 0.361078441 0.952596366 -0.035868749 -0.302115262 0.958433628 -0.0103364177 0.285128295 0.00872240961 0.999690771 0.023287544 0.00383711141 0.999962449 -0.00777114369 -0.0254610386 0.787603498 0.615656078 -0.0325516053 0.977835238 0.206829876 -0.010154603 0.805244684 0.592855692 0.337228656 -0.716540635 0.610611439 0.339790642 -0.714564681 0.611505985 0.339603662 -0.519305706 0.784213603 0.271518469 -0.788334072 0.552093387 0.270119876 -0.806649029 0.525692463 0.157083333 -0.822366416 0.546843886 0.0434641726 0.992073476 0.117902972 -0.100562215 0.990297735 0.0959044993 -0.014954322 0.998476088 0.0531212725 0.304430693 -0.587830544 0.749517977 0.124264345 -0.184815392 0.974885464 0.16479145 -0.223987803 0.960558832 0.18119517 -0.397287428 0.899628282 0.0185399391 -0.196235314 0.980381548 -0.0405306444 -0.292702883 0.955344081 0.182275146 -0.656273901 0.732175052 -0.0453523919 -0.236832842 0.97049129 -0.924276173 0.153585866 0.34946385 0.729754984 0.158225089 0.665148497 0.0283619575 0.605749786 -0.795149565 -0.0287502725 0.417582065 -0.90818429 0.0241242647 0.585562944 -0.810267866 0.0011733243 0.171548933 -0.985174894 0.0369415656 0.872482896 -0.487246275 0.126267895 0.966916144 0.221651927 0.176047876 0.752911687 0.634138048 0.0455847308 0.987087667 0.153557748 0.0491489433 0.786154211 0.616073012 -0.022529088 0.747169554 -0.664251566 0.262063652 0.145599946 -0.954003811 -0.0336786881 0.508389831 -0.860468209 0.363842696 0.498390108 -0.786909044 0.0390510634 0.985576451 -0.164663419 -0.0353755057 0.973741055 -0.224893257 -0.0373201631 0.290972143 -0.956003368 -0.0455706343 -0.139595672 -0.989159405 -0.0221398417 0.999536991 0.0208714083 -0.0299722962 0.785324812 -0.618357956 -0.0491448864 0.280090779 -0.958714724 -0.852564812 0.401805133 -0.334194303 -0.90458113 0.202406675 -0.375185907 -0.902161837 0.108951189 -0.417413116 -0.839297712 0.543421328 -0.0165130086 -0.518349886 0.823636532 0.230078921 -0.888649166 0.345722616 0.301294833 0.488319218 0.825755298 -0.28226316 0.589336514 0.788386285 0.176435545 -0.893561661 0.307339072 0.327246487 0.773032188 0.513630927 -0.372296274 0.217011094 0.834543288 0.506402671 0.92378664 0.377275825 0.0654308647 0.676141083 0.534383535 0.50721544 0.263178438 0.721762657 0.640152931 0.309201628 0.727001846 0.613076448 0.316073895 0.766839087 0.558618903 0.424599022 0.551773787 0.717817068 0.304708123 0.773235023 0.556112051 -0.0684942529 -0.994045734 0.0847443417 -0.051886078 -0.997817159 0.0408506021 -0.23428832 -0.965457678 0.114019729 0.23144117 0.380307257 0.895433605 -0.00358582684 -0.171218649 0.985226512 -0.0392154753 -0.238703489 0.970300376 0.14888677 0.31738466 0.936536014 0.0586947054 0.274217993 0.95987469 0.000796766137 0.52196902 0.852964044 -0.96532917 0.261035651 6.0403032e-05 -0.00934674963 -0.0580261201 -0.998271286 0.039744705 -0.999205828 -0.00283405883 -0.0146055361 0.158000454 0.987331033 0.0162742324 0.998203099 0.0576693378 0.0361015983 0.997263968 0.0645077229 -0.0297467094 0.998143315 0.0531509928 0.0318011642 0.997481585 0.0633967891 -0.0390962698 0.997761309 0.0542571917 -0.00424251519 0.999485791 -0.0317821912 -0.00445358688 0.999175489 -0.0403551683 -0.0521142483 0.998124123 0.0321298502 0.0562241897 0.997212648 0.0490492471 -0.955672622 -0.293669224 -0.021171689 -0.650185168 0.583131015 0.487049699 -0.803658128 0.0011590498 0.595090091 -0.809083104 0.00514392415 0.587671697 -0.822565973 -0.00116632087 0.568668485 -0.820762575 0.000822840142 0.571268857 -0.819654346 0.00938555505 0.572781503 -0.825237334 0.00108840014 0.564785063 -0.754344225 0.0017660486 0.656476676 -0.913984895 -0.0740133971 -0.398940563 -0.999717295 -0.0236314572 0.0026335977 -0.999527574 -0.0260918122 -0.016242858 -0.881484151 -0.0818682611 -0.465062708 -0.0360830054 0.376025498 -0.925906479 -0.0118545378 -0.821243107 -0.570455313 0.0466356315 0.18249546 0.98210007 -0.0269830432 -0.99932301 0.0250080694 -0.00921594631 -0.999898255 0.0108872587 -0.0210035816 -0.999599457 0.0189683903 -0.0326164849 -0.999260902 0.0203431826 -0.00528227119 -0.999723256 0.0229229312 -0.0727468356 -0.997321844 0.00755560026 0.0230635777 -0.999733627 0.000876981008 -0.013204514 -0.999862671 -0.0100116385 0.15798454 -0.98723489 0.0202025212 -0.0401360653 -0.999193847 0.000888709037 -0.036794886 0.278722405 0.95966661</float_array>
          <technique_common>
            <accessor source="#normals_array" count="216" stride="3">
              <param name="X" type="float" />
              <param name="Y" type="float" />
              <param name="Z" type="float" />
            </accessor>
          </technique_common>
        </source>
        <vertices id="vertices">
          <input semantic="POSITION" source="#positions" />
        </vertices>
        <triangles material="scout_1a1a1a" count="276">
          <input semantic="VERTEX" source="#vertices" offset="0" />
          <input semantic="NORMAL" source="#normals" offset="1" />
          <p>0 0 1 1 2 2 3 3 4 4 5 5 1 6 6 7 2 8 1 6 5 5 6 7 1 9 3 10 5 11 7 12 6 7 4 4 6 7 5 5 4 4 8 13 9 14 1 9 0 0 2 2 10 15 11 16 10 15 2 17 0 0 10 15 12 18 12 18 10 15 11 16 13 19 12 18 11 16 8 13 14 20 9 14 15 21 13 19 11 16 15 21 11 16 16 22 17 23 18 24 19 25 19 25 18 24 20 26 20 26 18 24 21 27 18 24 22 28 21 27 23 29 24 30 25 31 26 32 17 33 27 34 26 32 28 35 17 33 26 32 29 36 28 35 28 35 30 37 31 38 32 39 4 4 33 40 34 41 35 41 33 41 35 42 32 39 33 40 34 43 33 44 36 45 37 46 7 12 32 39 35 42 38 47 32 39 39 48 38 47 35 42 40 49 41 49 42 49 43 50 37 46 38 47 44 51 39 48 45 52 43 50 38 47 46 53 47 54 48 55 49 56 50 57 51 58 52 59 53 60 54 61 55 62 56 63 22 64 31 38 57 65 42 66 58 67 59 68 57 65 58 67 58 67 42 66 60 69 43 50 61 70 60 69 62 71 61 70 44 51 45 52 63 72 44 51 62 71 44 51 63 72 62 73 63 74 64 75 60 69 61 70 62 71 58 67 60 69 65 76 65 76 66 77 58 67 66 78 65 79 67 80 68 81 69 82 64 75 68 81 64 75 63 74 70 83 71 84 72 85 73 86 71 84 70 83 69 87 74 88 64 89 62 73 64 75 71 90 71 84 64 89 74 88 74 88 72 85 71 84 65 91 62 73 71 90 65 79 73 92 67 80 70 83 67 93 73 86 69 87 75 94 74 88 74 88 76 95 72 85 76 95 77 96 72 85 78 97 72 85 77 96 79 98 78 97 77 96 78 97 80 99 70 83 80 99 78 97 79 98 75 94 76 95 74 88 75 94 81 100 76 95 82 101 79 98 77 96 83 102 80 99 79 98 82 101 83 102 79 98 84 103 77 96 76 95 81 100 84 103 76 95 84 103 82 101 77 96 84 103 85 104 82 101 82 101 85 104 83 102 14 20 86 105 87 106 88 107 89 108 90 109 91 110 15 21 16 22 91 110 16 22 92 111 93 112 15 21 91 110 94 113 16 22 41 114 92 111 16 22 94 113 94 113 41 114 40 115 94 116 95 117 96 118 95 119 94 113 40 115 97 120 98 121 95 122 97 120 95 122 57 65 48 55 50 57 52 59 99 123 57 65 59 68 100 124 59 68 66 77 59 68 58 67 66 77 23 29 66 78 67 80 101 125 67 93 70 83 101 125 49 56 24 126 72 85 78 97 70 83 24 30 23 29 67 80 52 127 25 31 24 30 80 99 101 125 70 83 47 54 101 125 80 99 47 54 49 56 101 125 83 102 47 54 80 99 85 104 47 54 83 102 85 104 102 128 47 54 56 63 103 129 22 130 97 120 57 65 99 123 56 63 104 131 103 129 104 131 105 132 103 129 56 63 106 133 104 131 107 134 108 135 109 136 108 135 110 137 109 136 104 131 111 138 105 132 112 139 113 140 114 141 110 137 90 109 109 136 115 142 111 138 106 133 115 142 116 143 111 138 117 144 68 145 45 52 89 108 118 146 116 143 119 147 120 148 117 144 119 149 113 150 120 151 53 60 113 150 119 149 53 60 119 149 118 152 121 153 53 60 118 152 88 107 118 146 89 108 121 153 118 152 88 154 120 151 113 150 69 82 122 155 54 61 123 156 113 140 112 139 69 87 69 87 112 139 75 94 53 60 55 62 113 140 51 157 121 153 88 154 121 153 54 61 53 60 114 141 81 100 112 139 114 141 124 158 81 100 55 62 122 155 114 141 122 155 124 158 114 141 54 61 122 155 55 62 125 159 123 156 54 61 7 12 4 4 32 39 124 158 84 103 81 100 124 158 126 160 84 103 84 103 126 160 85 104 126 160 127 161 102 128 126 160 102 128 85 104 126 160 124 158 123 156 123 156 124 158 122 155 123 156 127 161 126 160 31 38 30 37 128 162 128 162 129 163 31 38 130 164 31 38 129 163 130 164 107 134 31 38 130 164 129 163 131 165 130 164 132 166 107 134 132 167 133 168 134 169 130 164 131 165 132 166 134 170 108 135 132 166 28 35 29 36 30 37 29 171 128 171 30 171 23 172 100 124 66 77 135 173 108 135 134 170 108 135 135 173 136 174 110 137 108 135 136 174 137 175 110 137 136 174 24 126 48 55 52 59 88 107 90 109 137 175 52 127 51 157 25 31 51 157 88 154 25 31 51 58 125 159 121 153 125 159 51 58 50 57 50 57 48 55 102 128 102 128 48 55 47 54 127 161 50 57 102 128 50 57 127 161 125 159 123 156 125 159 127 161 19 176 27 176 17 176 42 66 37 46 43 50 33 40 4 4 3 177 39 48 35 42 105 132 90 109 89 108 109 136 37 46 42 66 41 178 138 179 136 174 99 123 46 53 38 47 39 48 60 69 42 66 43 50 81 100 75 94 112 139 93 180 91 181 86 105 13 182 93 180 86 105 91 181 92 183 86 105 92 183 94 116 96 118 13 182 86 105 14 20 12 184 13 182 14 20 8 13 12 184 14 20 92 183 96 118 87 106 96 118 36 185 87 106 36 185 33 186 87 106 33 186 3 10 9 14 3 10 1 9 9 14 1 9 0 187 8 13 86 105 92 183 87 106 0 187 12 184 8 13 87 106 33 186 9 14 61 70 43 50 46 53 28 35 31 38 22 64 37 46 41 178 7 12 46 53 44 51 61 70 28 35 22 64 17 33 17 33 22 64 18 188 68 145 63 72 45 52 115 142 107 134 109 136 109 136 116 143 115 142 7 12 16 22 11 16 7 12 11 16 2 17 7 12 2 17 6 7 73 92 65 79 71 189 89 108 116 143 109 136 56 63 31 38 107 134 97 120 136 174 135 173 87 106 9 14 14 20 117 144 105 132 111 138 36 45 96 190 34 43 137 175 136 174 138 179 95 191 134 192 133 193 95 191 133 193 96 194 34 195 96 194 139 196 133 193 139 196 96 194 95 191 98 197 134 192 100 124 99 123 59 68 117 144 111 138 119 147 23 172 138 179 100 124 67 93 101 125 24 126 49 56 48 55 24 126 116 143 119 147 111 138 103 129 105 132 35 42 103 198 35 199 34 200 34 200 139 201 103 198 37 46 32 39 38 47 21 202 22 130 103 129 139 203 21 203 103 203 54 61 121 153 125 159 107 134 115 142 56 63 106 133 56 63 115 142 117 144 45 52 105 132 60 69 62 71 65 76 15 204 93 204 13 204 44 51 46 53 39 48 98 121 97 120 135 173 117 144 120 148 68 145 16 22 7 12 41 178 40 115 57 65 95 119 68 81 120 151 69 82 118 146 119 147 116 143 114 141 113 140 55 62 106 133 111 138 104 131 139 205 133 168 129 206 21 207 139 205 129 206 133 168 131 208 129 206 20 209 21 207 26 210 133 168 132 167 131 208 21 207 129 206 128 211 19 212 20 209 27 213 21 207 128 211 29 214 20 209 26 210 27 213 21 207 29 214 26 210 57 65 40 115 42 66 97 120 99 123 136 174 107 134 132 166 108 135 100 124 138 179 99 123 98 121 135 173 134 170 25 215 88 107 137 175 25 215 138 179 23 172 137 175 138 179 25 215 90 109 110 137 137 175 105 132 45 52 39 48</p>
        </triangles>
      </mesh>
    </geometry>
  </library_geometries>
  <library_visual_scenes>
    <visual_scene id="scene">
      <node id="left_elbow_link">
        <instance_geometry url="#geometry">
          <bind_material>
            <technique_common>
              <instance_material symbol="scout_1a1a1a" target="#scout_1a1a1a" />
            </technique_common>
          </bind_material>
        </instance_geometry>
      </node>
    </visual_scene>
  </library_visual_scenes>
  <scene>
    <instance_visual_scene url="#scene" />
  </scene>
</COLLADA>