<?xml version='1.0' encoding='utf-8'?>
<COLLADA xmlns="http://www.collada.org/2005/11/COLLADASchema" version="1.4.1">
  <asset>
    <created>2026-09-14T00:00:00Z</created>
    <modified>2026-09-14T00:00:00Z</modified>
    <unit name="metre" meter="1" />
    <up_axis>Z_UP</up_axis>
  </asset>
  <library_effects>
    <effect id="scout_1a1a1a_effect">
      <profile_COMMON>
        <technique sid="common">
          <lambert>
            <emission>
              <color>0 0 0 1</color>
            </emission>
            <ambient>
              <color>0.05 0.05 0.05 1</color>
            </ambient>
            <diffuse>
              <color>0.1 0.1 0.1 1</color>
            </diffuse>
          </lambert>
        </technique>
      </profile_COMMON>
    </effect>
  </library_effects>
  <library_materials>
    <material id="scout_1a1a1a" name="scout_1a1a1a">
      <instance_effect url="#scout_1a1a1a_effect" />
    </material>
  </library_materials>
  <library_geometries>
    <geometry id="geometry" name="left_ankle_link">
      <mesh>
        <source id="positions">
          <float_array id="positions_array" count="312">0.025882965 -0.0102323918 -0.012993956 0.0347784683 -0.00437176134 -0.00894340221 0.0235374924 -0.00356521341 -0.0149616487 -0.0751293823 -0.0147042023 -0.0468415655 -0.0883131772 -0.0136136916 -0.0537010171 -0.100061394 -0.0142675955 -0.0614765137 -0.0677860379 -0.0106002558 -0.0420246981 0.198223501 0.0158326812 -0.0594266765 0.199011013 -0.0313550085 -0.0572389439 0.198579893 -0.0154850045 -0.0595433563 -0.0461252257 -0.00950697251 -0.0293211248 -0.0205070395 -0.0103953825 -0.0140776476 0.000583054381 -0.0145131871 -0.0552736335 -0.0329982266 -0.0143402042 -0.064047575 -0.0167377666 -0.0134523455 -0.059143085 0.00147469598 0.0145149073 -0.0551130697 -0.00041892915 -0.000178597998 -0.0062413984 -0.00624259422 -7.32423796e-05 -0.00105940877 -0.0102082351 -0.0106490115 0.000373971503 -0.00725421403 -0.00968726352 0.00826540589 0.00034708553 -0.0104034375 0.0101525113 -0.00262802327 -0.00111753622 0.00574611407 0.000379597855 0.0105521344 0.00973664597 -0.00898595899 0.00990812946 0.00574607262 -0.0987449884 0.0145058297 -0.0685337484 -0.098013483 0.0142247127 -0.0593523644 -0.0492376611 -0.0141851194 -0.0687668845 -0.0459251069 0.013427278 -0.0685193688 0.0722399354 -0.00992473401 -0.0393937267 0.0672903806 0.00927077234 -0.0368114375 0.0527306721 0.00368484668 -0.028003566 -0.0263639148 0.014571582 -0.0613895543 -0.0192969795 0.0103366002 -0.013133835 0.00539926812 0.000212259256 0.00292529119 0.00694111409 -0.0101666041 0.0032154324 0.0143656479 -0.0103680892 -0.0362720378 0.00420745136 -0.0103424583 -0.0323690698 -0.00201577554 0.0106974626 -0.00746046379 -0.00779834623 0.00974777155 0.000519960129 0.0430227481 0.0141163496 -0.0559225418 0.0497857779 -0.0142601226 -0.0570153259 0.0257970225 -0.0129234977 -0.0545342416 0.0065452978 0.00804446824 -0.00200847886 0.00326490286 -0.0107242474 -0.00707018794 0.011189268 -0.00996138807 0.00262783282 0.00164993503 -0.0100375218 -0.0210619327 0.02348377 0.00335089304 -0.0293984655 0.0233235806 -0.00341940532 -0.0292204935 0.0238264315 -0.00961957499 -0.0300301109 0.0246760584 -0.00976184942 -0.0215480085 0.0296470039 -0.00469009299 -0.0207966287 0.0345836356 -0.00395758543 -0.0186074134 0.0319899693 -0.00478441315 -0.0153356446 0.0372811407 -0.00992968027 -0.0123963449 0.0376648046 -0.0103773121 -0.0230819713 0.0501535833 -0.0106710969 -0.0267572142 0.0524952076 -0.00384056102 -0.0273549724 0.091417864 -0.0120827397 -0.0447376892 0.0807787701 0.0100427717 -0.04223793 0.0951999873 0.0135400211 -0.0450959913 0.126181304 0.0146267712 -0.0459692664 0.0340035856 0.00350685185 -0.00959803257 0.0293893497 0.00448968727 -0.017106818 0.0336470976 0.00444029784 -0.0163242314 0.125631273 -0.0146206981 -0.0462841652 -0.0981125608 -0.0140557745 -0.0687634125 0.152533308 -0.0321710669 -0.0412013233 0.130018443 -0.0199304894 -0.0422348045 0.144733876 -0.0280582011 -0.0443006568 0.130399466 0.0205271356 -0.0417597517 0.160718173 -0.0374134295 -0.0444497541 0.176122546 -0.040855512 -0.0436693467 0.177009508 -0.0158355087 -0.0471847653 0.187420294 -0.037984997 -0.0523195155 0.189974472 -0.0371633917 -0.0498229004 0.00746570807 0.00971188582 0.00811261032 0.00844120886 0.010147824 -0.03614676 0.0503776111 0.0104392795 -0.0265611969 0.197868809 -0.0141616557 -0.0686470643 0.199480191 0.0141424984 -0.0676967651 0.0104254875 0.00996733177 -0.00285615493 0.0243998282 0.00971172471 -0.0198444575 0.0244637858 0.0037266959 -0.0132407676 0.0235365126 0.0106862737 -0.0310603175 0.0320993513 0.00415402325 -0.0214613359 0.0394036956 0.0105553735 -0.0222727675 0.0277460609 0.0103467051 -0.011109734 0.0373374261 0.0097274445 -0.0120679243 0.0829020292 -0.0144631593 -0.0673782304 0.189315915 0.0383627564 -0.051674407 0.177017152 0.0158220883 -0.0471379533 0.00120075082 0.0103124781 -0.0221258346 0.141043976 0.0262299888 -0.043901775 0.157897949 0.0355826765 -0.0412700698 0.161434934 0.0376323164 -0.0444585569 0.176626816 0.0400044434 -0.0422132164 0.174792632 0.0398153253 -0.0450614393 0.199060395 0.0318378955 -0.0566552877 -0.076638177 0.0146341436 -0.0474426039 -0.0673234686 0.0105082747 -0.0418359116 -0.0376907587 0.01047289 -0.0248380657 -0.0518052615 0.00998667441 -0.0326935835 0.0696884543 0.0145567618 -0.0628032535 0.0894486085 0.0135051198 -0.0689997375</float_array>
          <technique_common>
            <accessor source="#positions_array" count="104" stride="3">
              <param name="X" type="float" />
              <param name="Y" type="float" />
              <param name="Z" type="float" />
            </accessor>
          </technique_common>
        </source>
        <source id="normals">
          <float_array id="normals_array" count="837">-0.464408129 0.0964439735 0.880354285 -0.465274155 -0.197468147 0.862859368 -0.484403193 -0.343690455 0.804506302 -0.389467925 -0.658616543 0.643846989 -0.498098165 -0.0126656201 0.867028177 0.987149417 0.00498254085 -0.159722403 0.983905971 0.00814459566 -0.178501412 0.996397316 -0.00553814368 -0.0846268907 -0.507901669 0.0460377149 0.860183954 -0.670768082 0.00642632786 0.741639316 0.128428847 0.0132567137 -0.991630137 0.296186626 0.0138915889 -0.95502907 0.240586355 0.277771145 -0.930033028 -0.00175291812 -0.999679983 -0.025236953 -0.000239780042 -0.999763668 -0.0217373446 0.000525827287 -0.999802768 -0.0198528823 0.110204935 -0.0103274183 -0.993855238 0.604717612 0.0823422596 0.792171955 0.699531615 -0.0200137515 0.714321375 0.558265388 0.00224180752 0.829659402 -0.133992851 -0.976437986 0.169158846 0.840108216 0.0115749389 -0.542295337 0.749599874 -0.204917908 -0.629371643 0.644547701 -0.334846944 -0.687339604 0.856413364 0.0892022178 -0.508526444 -0.282844722 0.0370105617 0.95845139 -0.0750009343 0.0457028821 0.996135592 -0.39545387 0.0826600641 0.914758742 -0.998327255 0.051915098 0.0254462548 -0.980943441 -0.00277066999 -0.194273725 -0.994544685 0.0654268488 0.0812413767 0.130914152 -0.00697458535 -0.991369188 0.176701978 0.00254907436 -0.984261096 0.393695086 0.00254377886 0.919237554 0.4578318 -0.0039424533 0.889030099 0.57775557 0.0321591236 0.815576017 0.283574998 0.00636081584 -0.958928943 -0.711651921 -0.0121301524 0.702427566 -0.886434913 -0.0305954441 0.461840957 -0.716908753 -0.125671402 -0.68574667 -0.865290523 -0.142043099 -0.480724514 -0.748330355 -0.129356503 -0.650590956 0.00384884467 -0.836288452 0.548276186 -0.000507075631 -0.999792814 -0.0203477629 0.00648775604 -0.999887347 0.0135373408 -0.0344717018 0.998544157 0.0414877608 0.00933842082 0.999955773 -0.00113067485 -0.00613194099 0.999979317 0.00193626934 0.286910683 -0.953289866 0.0944496095 0.749190271 0.0955149755 0.655431807 0.807440042 0.0331842974 0.589015603 -0.0506624468 0.997826815 -0.0421297662 0.804956436 0.10189274 -0.584519506 0.746014059 0.0351326615 -0.665002763 -0.151308715 -0.00929602608 -0.988442838 -0.218438581 -0.014484779 -0.975743175 -0.0329718702 -0.00951788947 -0.999410987 -0.472971529 -0.0521828569 0.879531026 -0.402257293 -0.126108542 0.906799734 -0.336320281 -0.189975277 0.922387123 0.0739194527 -0.997194946 0.0117516518 0.0859377906 -0.994922638 -0.0523803197 0.0245501194 -0.999697983 0.00110069104 0.0513553806 -0.998424947 0.0225883462 -0.0274249669 0.744991779 -0.666509688 -0.712587059 0.127998099 0.689808786 -0.502815843 -0.0545678325 0.862669468 -0.606106699 -0.0253803153 0.794978321 -0.535914481 -0.151910096 0.830493212 -0.964257419 -0.249008983 0.0905659646 -0.989932001 -0.136884838 0.036017064 -0.95498836 -0.279899746 0.098251611 -0.99647814 -0.0826585218 0.0141039491 -0.0960856378 0.995025158 0.026314456 0.0417470485 -0.97203356 0.231101692 0.138964564 0.9872455 -0.0776862428 -0.0149174137 0.999151468 -0.0383903757 0.140752897 0.989097238 -0.0433050618 -0.947150648 -0.298609525 0.117209181 0.654142201 -0.728856981 -0.202152193 0.660753608 -0.724581122 -0.195925683 0.717458308 -0.682637691 -0.138778105 0.583840072 -0.76783216 -0.263750911 0.058671806 -0.449003369 -0.891601682 0.481622159 0.0998144299 0.870676279 -0.0689772144 -0.454172641 0.888239443 -0.0222551581 -0.399623781 0.916409016 0.102386117 -0.243248135 0.96454519 -0.235157713 -0.629209399 0.74080795 -0.905409455 -0.424283624 -0.0147347376 -0.0113051618 -0.999076784 0.0414464213 -0.0170027968 -0.999134481 0.0379628018 -0.000906025118 -0.999723256 -0.0235068016 0.575038552 -0.0629047006 0.815704405 0.732095063 -0.112873018 0.67178607 0.634170473 -0.142395183 0.759968042 -0.0299297683 -0.537168622 0.842943728 -0.42600292 -0.737469733 -0.524080038 0.00154140568 0.999855518 -0.0169284698 -0.0143999029 0.999268711 0.0354217365 0.740070462 -0.0814946517 0.667573452 0.0747980848 -0.313987076 0.946476281 0.276338845 -0.00991905108 0.961009085 0.103087217 -0.0069157891 0.994648278 -0.0211618207 0.933699369 0.357432038 -0.0208688937 0.997123241 0.0728678182 0.00512070907 0.999268055 0.0379099548 0.0258287266 -0.989046097 -0.145329535 0.0726938918 -0.996349216 -0.0447640195 0.01390862 -0.990310848 -0.138170078 0.0343411453 -0.0330192 0.998864591 -0.00204870314 -0.999653697 -0.0262343697 -0.00245958893 -0.999592066 -0.0284551214 -0.00264737592 -0.999553442 -0.0297638699 -0.498327881 -0.859537899 0.113419384 -0.478687793 -0.877038181 0.0407679491 -0.481381118 -0.875075459 0.0501508191 -0.705199361 -0.00168378395 0.709007084 -0.703026772 -0.00120961817 0.711162388 -0.681128561 0.00349062029 0.732155561 -0.500490725 -0.857086182 0.122116029 -0.0502662733 0.0371092334 0.998046219 -0.0602129363 0.0787918866 0.995070994 -0.0479339175 0.027381232 0.998475134 -0.194241405 -0.717660069 0.66875577 -0.0949454755 0.0158479474 -0.995356321 -0.035331618 -0.0809122846 -0.996094823 -0.0266012587 -0.105908401 -0.994019985 -0.53010565 -0.0529765449 -0.846275032 -0.507024586 -0.0817704126 -0.858044088 -0.590567768 -0.0917151645 -0.801759362 0.376472503 -0.922839761 -0.0814570561 0.2727997 -0.961348355 0.0372779593 0.34044382 -0.939450204 -0.0391316973 0.438921958 -0.884533048 -0.15795207 0.147581741 -0.0387245826 0.988291502 0.342680126 -0.0260377564 0.939091265 -0.0284124855 -0.62089622 -0.783377647 0.00383827859 0.999983788 0.00420560362 0.00791313127 0.999902427 -0.0115092564 -0.000121317062 0.999825418 -0.0186843686 0.994884133 -0.0537673198 -0.0855255052 0.994011104 -0.000132625122 0.109279238 0.050115183 -0.998651624 0.0135431578 -0.940301538 0.0748037845 0.332020164 0.35716334 0.0974665135 0.92894274 -0.206450611 0.712319553 0.670804679 -0.00235318881 0.999890089 0.0146386623 0.0023696397 0.999869823 -0.0159597136 0.020009974 0.97712487 -0.211722925 -0.983579934 0.123866878 0.131253466 -0.996763587 0.0344627462 0.0726271644 -0.947576702 0.232138485 0.219567984 -0.996569335 0.0250367913 0.0788841322 0.0974304378 -0.992650867 -0.0717745721 0.0505440012 -0.996260285 0.0700763613 0.598059773 0.736780226 0.31540367 0.162808031 -0.0609450713 0.984773695 -0.00469633471 -0.998873055 0.0472287089 -0.0414434709 0.995110273 0.0896551162 0.0181262866 0.998646379 0.0487534441 0.0273482241 0.987002969 -0.158357874 -0.886740685 0.338217139 0.315119237 0.762830913 0.554526865 -0.332549155 -0.0241560172 0.711886585 -0.701878846 0.0274539981 0.671084106 -0.740872681 0.0456488319 0.655731082 -0.753613234 -0.610568166 0.779397011 0.14052324 -0.661645532 0.744732499 0.0871706977 -0.638550878 0.754754603 0.15032725 -0.727743804 0.685848594 0.000788244419 0.0456826836 0.994896531 0.0899665132 0.157096252 0.550442278 -0.819959819 -0.773377657 0.62504071 -0.105882607 0.705534875 -0.0639795437 0.705781281 0.698398709 -0.092507109 0.709705353 -0.169742256 -0.0207965653 -0.98526901 0.569378138 -0.11900878 0.813415945 0.66252625 0.0715858415 0.745610118 0.252204657 -0.822437882 0.509890974 -0.43186602 0.0914351493 -0.897291124 -0.4582344 0.121779859 -0.880449235 -0.296328247 0.0658811852 -0.952811241 0.943294764 -0.0758549869 0.323173404 0.923313618 -0.0242115781 0.38328293 0.887886822 0.0435424075 0.457996756 -0.00444421079 -0.999510407 -0.0309709907 -0.479570448 0.876427889 -0.0434313752 -0.4790622 0.876520872 -0.047016874 -0.432623565 0.896719575 0.0934391767 -0.259119064 0.92423898 0.280427456 0.314561784 -0.0105193192 0.949178696 0.0326774344 -0.0126230791 0.999386251 0.0458617061 -0.00261769677 0.998944342 -0.0383509994 0.99912411 -0.0167398173 -0.0736919269 0.997104704 -0.0187526979 0.0536094345 0.993492544 -0.10049168 -0.126236975 0.967972755 -0.217009246 -0.0604958199 0.986831009 -0.15001601 -0.01195563 0.996449709 -0.0833372027 -0.362085581 0.383801162 -0.849464953 -0.475156248 0.775842249 -0.415084779 0.130722389 0.989702046 0.0583223514 -0.00123515911 -0.952625155 0.304144412 0.00372832688 -0.759205699 0.650840044 0.95400846 0.00202273158 -0.299772829 -0.934402287 -0.0370276533 0.354289919 -0.891272366 -0.0643121153 0.448884755 0.914225996 -0.0335467197 -0.40381363 0.901951969 -0.00266730017 -0.431828171 0.916332722 -0.0393229052 -0.398482174 -0.0200386494 -0.999287665 0.0319789127 -0.00435262546 0.999843359 0.0171565469 -0.00443408359 0.994834006 0.101418301 -5.03720985e-05 0.00803964492 -0.999967694 0.000116450239 0.00832685828 -0.99996531 -0.00660389056 -0.999978185 -7.17635048e-05 -0.00763364835 -0.999447525 -0.0323476568 -0.481702 -0.00709778443 0.876306355 -0.00294733513 0.801303446 0.598250866 -0.0324572809 0.5957461 -0.802516699 0.00498343771 0.999983072 -0.00301002874 0.00576332165 0.999969721 -0.00523345871 -0.505203187 0.01199299 0.862917066 -0.48849085 0.194354996 0.850648463 -0.518705428 0.0312382746 0.854382157 0.00454871263 0.999838412 -0.0173914284 0.0631350577 0.99792856 -0.0123494873 -0.500179052 0.0149074001 0.865793705 -0.505513072 -0.000989284483 0.86281836 -0.550897658 -0.0225993022 0.834266782 -0.220679402 -0.474949062 -0.851894379 0.925606072 -0.0670316368 -0.372505218 -0.00896444824 0.999943376 0.00573793938 -0.267162204 0.0301981568 -0.963178277 -0.135441497 -0.0181474201 -0.990619123 0.00408111373 0.62264818 0.782491267 0.00207237247 -0.998835087 -0.0482091755 -0.00109329901 -0.9935444 -0.113438867 0.00100675132 -0.989587545 -0.1439289 -0.0391515307 -0.9968853 0.0684609041 0.512509704 -0.00833093096 0.858641028 0.54300791 0.0242690388 0.839376807 0.124532752 0.701799929 0.701404572 0.592489421 0.320731342 0.738977432 0.324134052 0.00658277981 0.945988238 -0.439863741 -0.06930767 -0.895386159 -0.315271348 -0.14475207 -0.937897027 -0.356525511 -0.121433571 0.926360309 0.028570408 -0.0112989182 0.999527931 -0.67512989 0.00475410651 0.737683535 -0.0114360936 -0.01163272 0.999866962 -0.0363535024 0.000890323543 0.999338567 0.0081575904 0.019223921 -0.999781907 0.011643921 0.0328911841 -0.999391139 -0.0623137988 0.0876371115 0.994201541 0.0189234521 -0.139770508 -0.990003109 -0.0187106095 -0.999744356 0.0126917018 -0.038028203 -0.998106539 -0.0483449474 -0.1092913 0.0543987192 -0.992520094 0.012904305 0.999124765 0.0397892296 0.026307622 0.999394596 0.0227671247 0.0386737846 0.99920541 0.00963749364 -0.888524354 -0.144345462 -0.435532838 -0.965727568 -0.0193026774 -0.258839101 0.00550172618 0.995268583 -0.0970059931 -0.533449769 0.016466571 0.845671475 0.114400707 0.313038021 0.942825377 -0.88848865 -0.144387722 -0.435591638 -0.351049513 0.177549988 -0.919369459 -0.229308963 0.0628038943 -0.971325397 0.962200284 -0.157902852 0.221894711 0.00739602838 -0.999962986 -0.00439490471 -0.00358675467 0.983946204 -0.178429306 -0.126790971 -0.132573694 -0.98303014 -0.112608023 -0.0812892243 -0.990308762 -0.0642184466 0.0763569996 -0.995010376 -0.314722389 -0.0966493338 0.944250345 0.959111273 0.108672686 0.261334628</float_array>
          <technique_common>
            <accessor source="#normals_array" count="279" stride="3">
              <param name="X" type="float" />
              <param name="Y" type="float" />
              <param name="Z" type="float" />
            </accessor>
          </technique_common>
        </source>
        <vertices id="vertices">
          <input semantic="POSITION" source="#positions" />
        </vertices>
        <triangles material="scout_1a1a1a" count="216">
          <input semantic="VERTEX" source="#vertices" offset="0" />
          <input semantic="NORMAL" source="#normals" offset="1" />
          <p>0 0 1 0 2 0 3 1 4 2 5 3 6 4 4 2 3 1 7 5 8 6 9 7 10 8 6 4 11 9 12 10 13 11 14 12 3 13 13 14 12 15 14 12 15 16 12 10 16 17 17 18 18 19 19 20 18 20 20 20 17 21 20 22 18 23 17 21 21 24 20 22 19 25 22 26 23 27 24 28 5 29 25 30 13 11 26 31 27 32 28 33 29 34 30 35 31 36 14 12 13 11 32 37 11 9 18 38 20 39 33 40 34 41 6 42 35 43 36 44 23 45 37 46 32 47 23 48 38 48 37 48 37 49 17 18 16 17 37 49 38 50 17 18 23 51 22 51 38 51 38 52 22 53 21 24 39 54 40 55 41 56 42 57 16 58 43 59 44 60 43 61 45 62 44 60 34 63 43 61 12 64 41 64 40 64 46 65 35 66 47 67 47 67 35 66 48 68 2 69 48 70 49 71 2 69 47 72 48 70 49 73 48 73 35 73 2 74 50 74 51 74 2 75 52 76 50 77 0 78 2 69 49 71 50 79 0 80 49 81 52 82 0 80 50 79 0 83 52 83 53 83 43 84 16 17 18 19 54 85 50 86 49 87 51 88 50 86 54 85 51 89 54 89 53 89 53 90 54 91 55 92 56 93 1 94 55 95 1 96 0 96 53 96 53 97 52 97 51 97 1 98 51 99 52 76 1 94 53 100 55 95 28 33 56 93 55 95 30 35 56 93 28 33 57 101 58 102 28 33 59 103 58 102 57 101 59 104 60 105 15 106 61 107 62 108 63 109 59 103 57 101 64 110 26 111 5 112 65 113 66 114 67 115 68 116 69 117 60 118 67 119 66 114 68 116 70 120 47 121 30 122 46 123 71 124 66 124 70 124 68 125 72 126 70 127 72 128 73 129 71 130 74 131 71 132 73 133 17 21 38 52 21 24 74 131 73 133 8 134 22 26 20 135 75 136 67 137 64 137 72 137 76 138 77 139 58 140 78 141 79 142 9 7 44 60 20 143 34 63 20 135 22 26 19 25 34 144 42 144 43 144 76 145 36 145 35 145 37 146 42 146 80 146 24 147 31 148 27 149 81 150 46 151 82 152 81 150 83 153 46 151 62 108 82 154 46 155 81 156 62 156 84 156 85 157 81 157 84 157 84 158 62 108 46 155 81 159 85 160 83 161 86 162 81 150 82 152 86 163 62 163 81 163 61 107 82 154 62 108 86 164 87 165 62 166 11 9 32 37 10 8 61 167 63 168 84 169 63 168 85 170 84 169 87 171 77 139 85 160 87 165 63 172 62 166 87 173 85 170 63 168 87 174 61 175 30 35 39 54 88 176 40 55 75 136 20 135 44 177 29 34 77 178 30 35 77 179 29 179 58 179 89 180 7 181 90 182 77 178 87 174 30 35 45 183 76 184 91 185 43 61 18 186 45 62 92 187 69 188 93 189 93 189 94 190 92 187 71 191 93 192 66 193 93 189 95 194 94 190 94 190 95 194 96 195 95 194 89 196 96 195 7 197 79 198 90 199 22 200 33 200 21 200 22 201 80 201 42 201 75 202 80 202 22 202 6 42 28 203 35 43 64 110 57 101 3 204 97 205 8 6 7 5 27 32 31 36 13 11 26 111 3 13 5 112 3 13 26 111 13 14 14 12 31 36 15 16 18 38 19 206 23 207 45 208 91 209 80 210 64 211 3 13 12 15 25 212 98 213 31 148 31 148 24 147 25 212 98 213 15 106 31 148 26 31 65 214 24 215 24 215 27 32 26 31 88 216 72 217 64 211 35 66 46 65 83 218 99 219 59 104 98 213 41 56 12 10 15 16 60 220 69 220 90 220 76 138 99 221 100 222 99 223 101 224 100 225 91 226 76 138 32 47 76 138 100 222 32 47 37 46 80 227 91 226 37 46 91 226 32 47 99 223 98 228 4 2 98 228 25 229 4 2 5 230 4 2 25 229 99 223 4 2 6 4 101 224 99 223 6 4 100 225 101 224 10 8 6 4 10 8 101 224 100 225 10 8 32 37 29 34 28 33 58 102 20 231 21 231 33 231 32 37 18 38 23 207 80 210 44 232 45 208 90 199 102 233 60 105 88 176 102 234 103 235 77 139 76 138 83 161 77 139 83 161 85 160 99 219 58 236 59 104 52 76 2 75 1 98 64 211 12 15 40 237 72 217 88 216 9 238 88 216 78 239 9 238 64 211 40 237 88 216 35 43 28 203 55 92 54 91 49 240 35 43 35 43 55 92 54 91 8 241 97 242 71 191 74 243 8 243 71 243 97 242 89 244 95 245 71 191 97 242 95 245 72 128 9 246 73 129 9 246 8 247 73 129 98 213 59 104 15 106 61 248 86 248 82 248 64 110 60 249 59 103 60 118 64 250 67 119 93 192 69 251 67 252 67 252 66 193 93 192 78 253 88 176 103 235 103 235 79 254 78 253 47 121 56 255 30 122 70 127 72 126 71 256 30 257 61 258 84 158 46 155 30 257 84 158 67 259 72 126 68 125 56 260 47 261 51 99 51 99 1 98 56 260 47 261 2 262 51 99 9 7 79 142 7 5 34 41 33 40 42 263 15 16 39 54 41 56 24 28 65 264 5 29 102 233 90 199 79 198 15 106 60 105 39 265 60 105 102 233 39 265 16 58 42 57 37 266 61 267 87 267 86 267 39 54 102 234 88 176 33 40 22 268 42 263 58 140 99 221 76 138 28 203 6 42 57 101 89 180 97 269 7 181 90 182 96 270 89 180 45 183 36 271 76 184 11 272 6 42 36 44 11 272 36 44 45 62 18 186 11 272 45 62 3 204 57 101 6 42 103 273 102 233 79 198 90 182 69 274 92 275 71 191 95 245 93 192 96 270 90 182 94 276 92 275 94 276 90 182 35 66 83 218 76 277 44 278 80 278 75 278</p>
        </triangles>
      </mesh>
    </geometry>
  </library_geometries>
  <library_visual_scenes>
    <visual_scene id="scene">
      <node id="left_ankle_link">
        <instance_geometry url="#geometry">
          <bind_material>
            <technique_common>
              <instance_material symbol="scout_1a1a1a" target="#scout_1a1a1a" />
            </technique_common>
          </bind_material>
        </instance_geometry>
      </node>
    </visual_scene>
  </library_visual_scenes>
  <scene>
    <instance_visual_scene url="#scene" />
  </scene>
</COLLADA>