<?xml version='1.0' encoding='utf-8'?>
<COLLADA xmlns="http://www.collada.org/2005/11/COLLADASchema" version="1.4.1">
  <asset>
    <created>2026-09-14T00:00:00Z</created>
    <modified>2026-09-14T00:00:00Z</modified>
    <unit name="metre" meter="1" />
    <up_axis>Z_UP</up_axis>
  </asset>
  <library_effects>
    <effect id="scout_1a1a1a_effect">
      <profile_COMMON>
        <technique sid="common">
          <lambert>
            <emission>
              <color>0 0 0 1</color>
            </emission>
            <ambient>
              <color>0.05 0.05 0.05 1</color>
            </ambient>
            <diffuse>
              <color>0.1 0.1 0.1 1</color>
            </diffuse>
          </lambert>
        </technique>
      </profile_COMMON>
    </effect>
  </library_effects>
  <library_materials>
    <material id="scout_1a1a1a" name="scout_1a1a1a">
      <instance_effect url="#scout_1a1a1a_effect" />
    </material>
  </library_materials>
  <library_geometries>
    <geometry id="geometry" name="left_shoulder_roll_link">
      <mesh>
        <source id="positions">
          <float_array id="positions_array" count="180">-0.0489289276 0.00478971889 -0.126701161 -0.0358620547 -0.033704143 -0.128662035 -0.0451590605 -0.0185905658 -0.100760326 -0.0242807139 -0.0189025924 -0.0796931684 -0.0404388569 -0.0263356604 -0.0949769542 -0.0249679033 -0.0165574457 -0.0922691748 -0.00656163273 -0.0315977409 -0.0946301594 -0.00691416254 -0.0471618287 -0.0971356183 0.0360875577 -0.0311272256 -0.0166572556 0.0440337807 -0.0149155026 -0.0318513215 0.0451593585 -0.0139350202 0.00045528973 -0.0309725758 0.0384792909 -0.126585618 -0.0418547615 0.0219459515 -0.0927714407 -0.0252366848 0.0160264149 -0.0916392878 -0.0288617201 0.0143011408 -0.0997546017 -0.0345779173 0.0174165983 -0.0842991173 0.0441513248 0.0197229274 -0.0704710782 0.0251685902 -0.0188940819 -0.0958657116 0.00253796019 -0.049500417 -0.131095186 0.0277139265 -0.0400922261 -0.0965047032 0.0385930315 -0.00522290822 -8.92852258e-05 0.0390148871 -0.0103715966 0.00178417074 0.0471709967 -0.00159343285 -0.000411748333 0.0411880314 -0.0151882078 -0.0852200538 0.0284122489 -0.0138948709 -0.0859548599 0.0426877029 -0.0238712765 -0.0879748687 0.0320791863 0.0165977329 -0.100207262 0.0353192911 0.0215857029 -0.0881425813 0.0370775498 -0.0258290637 -0.0580826774 0.0362300165 -0.0193427298 -0.030763872 0.0465308987 -0.0016393991 -0.0917597711 0.0412807949 -0.0183806084 -0.0919294804 0.0475605205 0.0130061638 -0.0331712551 0.0459747054 -0.0103971455 -0.0589004196 0.0394120105 0.0178357027 -0.0324849784 0.0435666405 -0.0159792788 -0.0613812506 0.0481766984 -8.10897473e-05 1.55250916e-06 -0.0245752037 0.0434101149 -0.0978014246 0.047291398 0.00287985383 0.000557255757 0.0331103131 0.0257548299 -0.0976765826 0.00178577693 0.0335088037 -0.0951582268 0.0411405899 0.027111331 -0.126878768 0.0181845278 0.0449315794 -0.0951387882 0.0384170339 0.0282910913 -0.0607849173 0.0425605178 0.0145094134 -0.0865473896 0.0437422656 0.0157830305 -0.0570438243 0.0440351218 0.0143308332 0.00030739975 0.0387047231 0.0102504566 -0.00184877694 0.0265701748 -0.0181559697 -0.0591331869 0.0457686409 -0.020735275 -0.126715317 -0.020637298 -0.0241504256 -0.130967692 0.000480069983 -0.0330716074 -0.135045305 0.0138721289 0.0293115079 -0.130420148 -0.0262638479 0.0168497674 -0.131135598 0.00845417101 0.0477973782 -0.126712084 0.0262390692 -0.0197315458 -0.130185574 0.0361393839 0.0193108674 0.0288348105 0.0378293991 -5.03086267e-06 -0.0592673495 0.0360701829 -0.0215991791 0.0279259011 0.023458967 0.0188585073 -0.0613193214</float_array>
          <technique_common>
            <accessor source="#positions_array" count="60" stride="3">
              <param name="X" type="float" />
              <param name="Y" type="float" />
              <param name="Z" type="float" />
            </accessor>
          </technique_common>
        </source>
        <source id="normals">
          <float_array id="normals_array" count="549">-0.995544791 0.0937119052 0.0104210591 -0.694840968 -0.718860209 -0.0208800007 -0.95014751 -0.311799079 0.00101635803 -0.706494212 0.0932837948 0.701544046 0.0501576886 -0.0988739356 0.993835092 -0.0392500162 -0.188014612 0.981381655 0.0452421643 -0.111714371 0.992709935 -0.0789003745 0.982304335 0.169861481 -0.120438017 0.974691212 0.188339517 -0.177045509 0.965735495 0.189762697 -0.445257574 -0.89500165 0.0267907474 -0.704402089 -0.707343042 0.0590211377 0.884133518 -0.466226727 0.0306687225 0.947638988 -0.319000661 0.0147972805 0.847352326 -0.525204897 0.0784464478 -0.838798344 0.544429302 -0.00374751212 -0.915197372 0.398353994 0.0610560514 -0.911711991 -0.015456887 0.410539031 -0.24445276 -0.964600742 0.0989354998 0.00975187402 -0.984979689 0.172394574 0.0863141418 -0.990174234 -0.110022038 0.0181291141 -0.131713256 0.991122067 -0.130944923 -0.0561234355 0.989799798 0.383424163 -0.923148394 -0.0279820915 0.545645773 -0.837048769 -0.0402501449 0.196417078 -0.972942293 0.121670373 -0.105408967 0.332394749 0.937231362 -0.0907588154 -0.371590823 0.923949718 -0.0542407669 0.0312353093 0.998039246 -0.0790435374 -0.229671434 0.970053196 -0.440836817 -0.735093772 0.515072882 0.962712944 -0.208530262 -0.172333628 -0.530691803 -0.833422601 -0.154185057 -0.353155553 -0.926906288 -0.126987651 -0.478126556 -0.875941455 -0.0641991049 -0.999591708 0.0111145163 -0.0263223331 -0.999461949 -0.0194938667 -0.0263785701 -0.999967933 0.00342184049 -0.00723995734 -0.931847036 0.362718016 -0.00983855501 -0.989419758 -0.00309446105 0.145047992 -0.942292809 0.297072172 -0.154377237 -0.998763263 0.015879022 0.0471150614 -0.994242668 0.103302926 0.0284609199 -0.991140604 0.12279734 -0.050607536 -0.117950499 -0.0358449519 -0.992372334 -0.923308492 0.374183178 0.0865355209 -0.00842915475 -0.0687108561 -0.997601032 0.381859511 -0.0764429867 -0.921053648 0.0340496823 -0.0755616799 -0.99655962 0.329705596 0.0471819676 -0.942904055 -0.770228028 0.634702802 0.062458843 -0.450168878 0.200601622 -0.870118976 0.272527993 -0.0764919519 0.959102452 0.289141893 -0.0923722014 0.952819169 0.214354545 -0.0216822159 0.976515234 0.204453796 -0.0124720838 0.97879678 0.251656443 0.906792939 0.338224232 -0.019135505 -0.918031394 0.396045685 -0.0111162895 -0.894560039 0.44680953 -0.0446680598 -0.97378695 0.2230331 0.853449225 0.519034386 -0.0471987091 0.590940535 0.806318164 -0.0253031459 0.796462119 0.603930235 0.0302712806 -0.816543758 -0.532484949 0.222970903 -0.817356825 -0.562310874 0.125436321 -0.817133188 -0.563928425 0.119491175 0.996291935 -0.0491987169 -0.0705821365 0.995361626 -0.0496831499 -0.082382381 0.998871505 -0.0455641299 0.0134026445 -0.992753863 -0.120162353 0.000880915031 -0.850288868 -0.382987469 0.361011714 -0.733361363 -0.47042641 0.490795434 -0.995422781 -0.087592721 0.0382233821 -0.446500897 -0.894771397 -0.00459897704 -0.231817424 -0.971921682 0.0403606035 -0.510956585 -0.859396219 -0.0190131105 0.641487777 -0.747972965 -0.170381606 0.299366891 0.104608707 -0.948386252 0.301530749 0.106758259 -0.947460771 -0.0746232867 0.000538403343 0.997211635 0.959320486 0.274259925 0.0669751316 -0.463480234 0.864613116 0.193985254 -0.428983003 0.887323558 0.169205591 -0.390632093 0.909525752 0.142019451 -0.369565398 0.920452237 0.12723653 -0.382403135 -0.923000336 -0.0428745039 0.911843598 -0.40368101 -0.0747188479 -0.0889117792 -0.0184759609 -0.995868146 -0.01708881 -0.235764891 -0.971659839 0.024107838 -0.183303684 -0.982760668 -0.131384641 -0.045871079 -0.990269601 -0.16274178 -0.0492457226 0.985439003 -0.42787075 -0.0785178766 0.90042299 0.951067567 0.307925969 0.025536418 0.966243267 0.240610644 0.0920892879 0.990352035 0.0998385772 0.0960995331 0.999748766 -0.00472416822 0.0219109878 -0.592239797 -0.787903905 0.168699473 -0.590309441 -0.807126999 0.00898499042 0.340598077 0.13891384 -0.929890275 0.998392224 -0.0445760675 0.0350132808 0.0991082266 -0.983216643 -0.153175175 0.065325059 0.123579048 -0.990182221 -0.116355658 0.0856769755 -0.989505351 -0.113670222 0.178348005 -0.97737968 0.0131856212 0.200368091 -0.97963196 -0.0199962053 0.376084059 -0.926369786 0.134062082 -0.0137359109 -0.990877748 -0.513873398 -0.857694328 -0.0171647817 -0.257826537 -0.961168349 0.0983917117 0.738005102 0.671393514 0.0676695257 0.618235588 0.78525579 0.0340313725 0.925643921 0.375793278 0.0443026386 0.929494798 -0.366957635 0.0371693745 -0.0745705217 0.994658411 0.0713711083 -0.121045053 0.991627216 0.044983957 -0.073051326 0.993902028 0.082597129 0.163811967 -0.011895013 -0.986419857 -0.0198742989 0.0197170097 0.99960804 0.492697418 -0.29958573 0.817005277 0.937347233 -0.340981454 -0.0714965388 0.069602035 0.103969567 0.992142081 -0.0280881561 0.0364137031 0.998942018 -0.244672835 -0.122162506 0.961879194 0.0949716866 0.326323032 -0.940475225 0.0918528438 0.290424705 -0.952479184 0.0797404796 0.159931675 -0.983902097 0.0786309019 0.148570567 -0.985770762 -0.0525642075 -0.984762967 0.165767699 0.133293942 0.0597014055 -0.989276767 0.982612789 -0.050056085 0.178791776 0.917545199 -0.261444211 0.299595922 0.978760421 -0.107739083 0.174414381 0.995265841 0.0117252422 0.0964804739 0.975005925 0.142049968 0.170836926 -0.999649107 0.011893075 -0.0236681234 -0.992437005 -0.111988664 -0.0502720997 -0.999992669 0.00278615695 -0.00261621969 0.0871551931 0.877685905 -0.471244544 -0.200128108 0.0409946032 0.978911757 -0.152629718 0.987981081 -0.0244454667 -0.041779656 0.993795335 0.103079006 -0.114961334 0.993180931 0.0193783566 -0.000851183315 -0.995386481 -0.0959428474 -0.514573991 0.798271298 0.313012123 -0.53338933 0.84040153 0.0960264131 -0.331822574 0.938906133 0.0913732275 0.824631274 -0.553113043 0.118529305 0.799114048 0.599414468 -0.0460333601 -0.312491685 0.140137285 0.939526737 -0.287996113 0.148137912 0.946104348 -0.390909016 0.113331191 0.913425505 0.532391369 0.841947973 -0.0876532421 -0.120249175 0.828852892 0.546390891 0.364948243 -0.208570823 0.907364845 -0.39648667 0.168861568 0.90237689 0.523889244 0.759669065 0.385282934 -0.228832349 0.966680527 -0.114736632 -0.185604513 0.982462883 0.0178218596 -0.00138627784 0.994931579 0.100544572 0.026386017 -0.0395803489 0.998867929 0.0586851276 -0.0859421715 0.994570255 -0.0163470916 0.197622478 0.980141878 0.0116370684 0.219257057 0.975597739 -0.206426233 0.028321337 -0.978052199 -0.239041537 0.163624153 0.957123935 -0.413949907 0.0244756248 -0.909970582 0.0597480647 -0.0231311303 -0.997945428 -0.974549234 -0.219247401 -0.0467371382 -0.362900853 -0.369515091 -0.855430603 0.386599928 0.256092519 -0.885978043 0.492340535 0.285629928 -0.822202146 0.477527499 0.281639934 -0.832253814 0.355818272 0.247065544 -0.901305735 -0.677925467 -0.597042143 0.428902894 -0.122157149 -0.0687462091 -0.990127027 -0.160814226 -0.985505521 0.0540153682 -0.791715622 -0.605452836 -0.0813221782 -0.51099813 -0.859353602 -0.019807063 -0.0500918403 0.071177125 0.996205091 -0.893774211 -0.108041592 0.435309917 -0.407625049 -0.182829469 0.894659281 0.177425101 -0.112454638 -0.977688253</float_array>
          <technique_common>
            <accessor source="#normals_array" count="183" stride="3">
              <param name="X" type="float" />
              <param name="Y" type="float" />
              <param name="Z" type="float" />
            </accessor>
          </technique_common>
        </source>
        <vertices id="vertices">
          <input semantic="POSITION" source="#positions" />
        </vertices>
        <triangles material="scout_1a1a1a" count="140">
          <input semantic="VERTEX" source="#vertices" offset="0" />
          <input semantic="NORMAL" source="#normals" offset="1" />
          <p>0 0 1 1 2 2 3 3 2 3 4 3 5 4 4 5 6 6 3 7 5 8 2 9 7 10 4 11 1 1 8 12 9 13 10 14 11 15 0 0 12 16 13 17 14 17 5 17 15 18 13 19 16 20 7 21 17 22 6 6 18 23 19 24 7 25 20 26 21 26 22 26 5 27 23 28 24 29 24 30 17 30 25 30 26 31 27 31 17 31 25 32 8 33 28 34 29 35 28 36 8 37 23 38 30 39 31 40 32 41 33 42 9 43 34 44 9 44 29 44 33 42 30 39 35 45 20 46 22 47 10 48 22 47 36 49 10 48 11 15 12 16 37 50 38 51 22 51 21 51 36 52 38 53 21 54 36 52 21 54 10 55 39 56 40 56 27 56 3 57 4 58 25 59 41 60 42 61 43 62 43 63 42 64 27 65 44 66 16 67 23 68 16 69 44 70 30 39 44 70 26 71 30 39 16 69 30 39 33 42 45 72 16 69 33 42 32 41 45 72 33 42 34 73 45 74 32 75 34 76 46 76 47 76 47 77 46 78 36 49 47 77 36 49 22 47 46 79 20 79 38 79 46 80 38 80 36 80 29 81 9 82 48 83 9 82 33 84 48 83 1 1 18 85 7 10 18 23 49 86 19 24 50 87 51 88 18 89 50 87 18 89 1 90 19 91 17 22 7 21 4 5 7 21 6 6 25 92 17 22 19 91 20 93 9 94 34 95 34 95 47 96 20 93 28 34 29 97 48 98 27 99 44 99 31 99 44 66 23 68 31 100 16 20 13 19 27 101 52 102 53 103 11 104 54 105 52 102 11 104 51 106 50 87 55 107 55 107 50 87 53 103 52 102 55 107 53 103 12 108 14 109 15 18 14 109 13 19 15 18 56 110 46 111 32 112 43 62 56 110 32 112 8 12 25 113 9 13 2 2 1 1 4 11 48 114 35 115 23 116 48 114 23 116 3 7 18 89 51 88 55 107 49 117 18 89 55 107 3 7 23 116 5 8 48 118 33 118 57 118 45 119 48 119 57 119 57 120 16 120 45 120 13 121 5 4 40 122 6 6 40 122 5 4 27 123 40 122 17 22 40 122 6 6 17 22 24 124 25 125 5 126 25 125 4 127 5 126 25 32 28 34 48 98 3 57 25 59 48 128 54 105 41 129 52 102 20 130 46 131 56 132 20 130 56 132 58 133 58 133 21 134 20 130 49 86 25 113 19 24 25 113 32 112 9 13 56 135 34 136 29 35 56 135 29 35 58 137 8 37 58 137 29 35 31 138 17 138 24 138 48 139 45 139 59 139 37 140 42 141 54 142 59 143 12 143 16 143 34 144 43 145 59 146 10 14 58 147 8 12 9 94 20 93 10 148 26 149 31 150 30 151 41 60 54 152 42 61 16 153 12 153 15 153 12 16 0 0 2 2 32 112 25 113 49 86 12 154 2 154 14 154 14 155 2 155 5 155 21 156 58 156 10 156 37 140 54 142 11 157 43 145 27 158 59 146 12 159 59 146 27 158 42 160 40 122 39 161 40 122 42 160 37 162 37 162 13 121 40 122 37 162 12 163 13 121 50 87 1 90 53 103 53 103 1 90 0 164 31 150 26 149 17 165 31 166 24 166 27 166 30 39 23 38 35 45 27 167 13 167 12 167 43 168 34 136 56 135 49 117 55 107 52 102 49 117 52 102 41 129 59 169 16 169 57 169 35 170 59 171 57 172 57 172 33 173 35 170 44 70 27 174 26 71 32 112 49 86 41 60 35 175 48 175 59 175 32 112 41 60 43 62 45 74 34 73 59 176 27 65 42 64 39 177 34 73 32 75 46 178 53 103 0 164 11 104 27 179 24 29 23 28 23 180 16 180 27 180 22 181 38 181 47 181 20 182 47 182 38 182</p>
        </triangles>
      </mesh>
    </geometry>
  </library_geometries>
  <library_visual_scenes>
    <visual_scene id="scene">
      <node id="left_shoulder_roll_link">
        <instance_geometry url="#geometry">
          <bind_material>
            <technique_common>
              <instance_material symbol="scout_1a1a1a" target="#scout_1a1a1a" />
            </technique_common>
          </bind_material>
        </instance_geometry>
      </node>
    </visual_scene>
  </library_visual_scenes>
  <scene>
    <instance_visual_scene url="#scene" />
  </scene>
</COLLADA>