<?xml version='1.0' encoding='utf-8'?>
<COLLADA xmlns="http://www.collada.org/2005/11/COLLADASchema" version="1.4.1">
  <asset>
    <created>2026-09-14T00:00:00Z</created>
    <modified>2026-09-14T00:00:00Z</modified>
    <unit name="metre" meter="1" />
    <up_axis>Z_UP</up_axis>
  </asset>
  <library_effects>
    <effect id="scout_1a1a1a_effect">
      <profile_COMMON>
        <technique sid="common">
          <lambert>
            <emission>
              <color>0 0 0 1</color>
            </emission>
            <ambient>
              <color>0.05 0.05 0.05 1</color>
            </ambient>
            <diffuse>
              <color>0.1 0.1 0.1 1</color>
            </diffuse>
          </lambert>
        </technique>
      </profile_COMMON>
    </effect>
  </library_effects>
  <library_materials>
    <material id="scout_1a1a1a" name="scout_1a1a1a">
      <instance_effect url="#scout_1a1a1a_effect" />
    </material>
  </library_materials>
  <library_geometries>
    <geometry id="geometry" name="left_knee_link">
      <mesh>
        <source id="positions">
          <float_array id="positions_array" count="411">-0.00133980869 -0.0176168587 -0.399746597 -0.0115046483 -0.0235390589 -0.406109095 0.0015235591 -0.0237423554 -0.401785195 -9.27126748e-05 -0.0154203502 -0.402956575 -0.0143925697 -0.0149748363 -0.396999329 -0.0136597566 -0.0163182393 -0.410582185 -0.000444810576 -0.0263311155 -0.395447165 -0.00351388543 -0.0150454883 -0.293354064 -0.0443608314 -0.0399403684 -0.148671687 -0.044640027 0.0126415389 -0.149182469 -0.0268694088 -0.0390038379 -0.160685614 -0.000339547929 -0.0184215903 -0.289713025 -0.0020271109 -0.0143302856 -0.382116437 0.00183064456 -0.0155956335 -0.398269296 -0.0404005833 -0.0406445041 -0.118287079 -0.0219597332 -0.0408364907 -0.144003689 -0.0353748426 -0.0478047654 -0.128518313 -0.0345136635 -0.0477336459 -0.10043022 -0.0247794464 -0.0407487899 -0.0867792889 0.0472880118 -0.0175313521 0.00708806701 0.0471032262 0.0175123289 0.00832364894 0.0273768436 -0.0174274258 0.0449177586 -0.0512808077 -8.08270488e-05 -0.139756739 -0.0290223546 -0.0142636113 -0.0702193677 -0.0447811782 0.012342602 -0.0807021409 -0.03888781 -0.0400454067 -0.076281406 -0.0185348131 -0.0473972298 -0.0865486562 -0.0262796115 -0.0388575196 -0.0705445856 -0.0120159844 -0.0399430804 -0.0664961338 -0.0176515412 -0.0103396606 -0.0666084215 0.00844981987 -0.0476757884 -0.1408685 -0.0193553641 -0.0475144461 -0.143780127 0.000115408198 -0.047699146 -0.0866958797 -0.000992713147 -0.040749602 -0.0856048688 0.00364426291 -0.0105236601 -0.0623581298 0.00619424554 -0.0275289286 -0.0690265596 -0.00477045309 -0.0181337167 0.0197742041 -0.0158797428 -0.0170894191 -0.00652177772 -0.00666726148 -0.0180675145 0.000460705953 0.00382217159 -0.0182043351 -0.00535490038 -0.00550224399 -0.0123104025 -0.164276361 -0.0217625927 -0.00850941706 -0.163426012 0.000528567587 -0.0127670085 -0.171832472 0.00431819353 -0.00843247864 -0.0543751642 -0.0155917332 -0.0154023441 0.00770278182 0.00233268132 -0.0182847679 0.00564267719 -0.00979585107 0.0238517933 -0.406852603 -0.00420378288 0.0155804567 -0.414563626 -0.0152580328 0.0155637758 -0.400451303 -0.00195077574 0.0243154168 -0.398301214 -0.000631502306 0.0181839112 -0.401147395 -0.00895730406 0.0198830329 -0.357680559 -0.000227401339 0.0153409066 -0.39719674 -0.00198845658 0.0234874934 -0.335844636 -0.00252615521 0.0174174402 -0.288849831 -0.0490795299 0.0146905771 -0.114676982 -0.0552298576 0.0135865258 -0.131771177 -0.0555649325 0.0125433728 -0.0985725671 -0.0509506762 -0.000135066526 -0.0897761434 -0.0381818339 0.0144837173 -0.0873830169 -0.0368619487 0.0140270265 -0.144715503 -0.0285441764 0.0144939991 -0.158588246 0.0148724122 0.0173434429 0.0462632068 -0.0138827851 0.0145914927 0.0107788071 -0.052086588 0.0346785337 -0.132265195 -0.0390346572 0.035055317 -0.141031027 -0.02814156 0.0157574471 -0.0719638392 -0.0165202208 0.00840624049 -0.064030908 -0.0375522077 0.0350203738 -0.0880498812 -0.00941342767 0.0353146866 -0.152531892 -0.0278269909 0.0341314413 -0.158550933 7.88603502e-05 0.0135950344 -0.170612335 -0.0107914275 0.00795965549 -0.167644694 0.00323325396 0.0133271897 -0.0647447258 -0.0173213109 0.0172543954 -0.00417681132 0.00195094128 0.0180921629 -0.0302374102 -0.0519243032 0.0348722748 -0.0979433283 -0.00373444473 0.0181636084 -0.00541952578 -0.00546904095 0.0191897042 0.00628453027 0.0465821177 -0.02303092 -0.334255844 -0.00139261805 0.0138454279 -0.380853832 0.0388333723 -0.0140558807 -0.374648303 0.0355751775 -0.0283081904 -0.095930025 0.0340654887 -0.0392306671 -0.133454442 0.0329004489 -0.0284815915 -0.14043054 0.0337387919 0.0282751247 -0.132760391 0.0293032583 0.0281229615 -0.113750324 0.0329340175 0.0286504757 -0.0977213681 0.030704895 0.0351065397 -0.0986669436 0.00140179496 0.0188890435 -0.399963558 0.0475234799 0.0232289527 -0.407515585 0.0471461453 -0.0231182035 -0.408479124 0.0507307127 -0.0154455965 -0.378134936 0.0485759303 -0.0179727059 -0.289912164 0.0477204733 -0.015277274 -0.411538631 0.00727084093 -0.041482836 -0.138933897 0.0189710911 -0.0406151637 -0.124885187 0.0148011437 -0.040690273 -0.0971535221 0.0171899442 -0.0475590974 -0.105677411 0.0500657633 0.0147598097 -0.380172104 0.0226510148 -0.028440373 -0.0782020018 0.0111426683 -0.0393783487 -0.0721162707 0.0473306291 -0.0261500757 -0.17047973 0.00515356427 -0.0280132703 -0.162489414 0.000876691367 -0.0184917357 -0.205958664 0.00723912288 -0.0387036763 -0.16023837 0.00258458592 -0.0184668563 -0.0321876109 0.0250551347 -0.039790649 -0.147925109 0.0341680311 -0.0389495231 -0.09570162 0.0138546275 -0.0170798041 0.0454066806 0.00665985793 0.0181807391 0.000493124069 0.047164835 0.0153688751 -0.412531406 0.0487256646 0.0179053266 -0.296212226 0.00437016739 0.00886822958 -0.0542011708 -0.000224876945 0.0179656446 -0.155830562 0.000540272973 0.0176795349 -0.214541361 0.00331647927 0.0249210391 -0.179429784 0.00817981921 0.0294544753 -0.159165144 0.0067661549 0.0279297065 -0.0708835572 0.00226810086 0.0165975224 -0.0737269744 0.0184297878 0.0350859948 -0.140634343 0.0142423138 0.0283166226 -0.147847906 0.00747343805 0.034786012 -0.0730163231 0.0477165133 -0.0258344151 -0.0582785569 0.0320383497 0.0347280055 -0.132377014 -0.0546956025 -0.03893378 -0.133251145 -0.0537598394 -0.0391324759 -0.0947244763 0.0478909202 0.0257906262 -0.0597522184 -0.0274239797 0.0346723124 -0.0724697635 0.0484164655 0.0174883343 -0.213005453 0.0478290506 0.0248253644 -0.178955257 0.0483656079 -0.0174661558 -0.211464107 0.0480299108 0.0183004681 -0.0309293512 0.0482451245 -0.0180946514 -0.030723514 0.0435476564 0.0239904039 -0.341676503 0.0376175828 0.0142707787 -0.374882013 0.0282934234 0.0167056061 0.0438039824</float_array>
          <technique_common>
            <accessor source="#positions_array" count="137" stride="3">
              <param name="X" type="float" />
              <param name="Y" type="float" />
              <param name="Z" type="float" />
            </accessor>
          </technique_common>
        </source>
        <source id="normals">
          <float_array id="normals_array" count="1032">-0.291499943 -0.421965778 0.858471155 0.842519879 0.232056826 0.486117095 -0.964716792 -0.246579185 0.0923047364 -0.954189539 -0.298395216 -0.021967588 -0.838465989 -0.543671429 0.0373657718 0.607886016 -0.300237149 -0.73507297 0.624134839 -0.293209493 -0.724212587 0.589230835 -0.308013707 -0.74695015 -0.94275558 -0.323817432 0.0797133148 -0.708782256 -0.0148390448 -0.705271244 -0.693363786 0.0217439253 -0.720259547 -0.331327915 -0.0572741255 -0.94177568 -0.13844645 -0.989700496 -0.0364082269 -0.406356037 -0.912516236 0.0467858538 -0.0755321681 0.994159102 -0.0770877078 -0.166024283 0.982763171 -0.0813170671 -0.467983156 0.865305066 -0.179552048 -0.784677744 0.255973727 -0.564586878 -0.700764358 -0.183133185 -0.689486384 -0.782775402 0.190284446 -0.592498481 -0.80033803 -0.598982573 0.0260550939 -0.837641478 0.353436023 0.416461021 0.969279647 -0.00356043293 0.24593547 0.967088223 -0.00271575036 0.254426718 0.884150088 -0.0099628577 0.467096746 -0.854690611 0.00869004428 -0.519064963 -0.423130661 -0.0207924042 0.905830085 -0.692342699 0.0294490084 0.720967591 -0.621552229 -0.0316198766 0.782734275 -0.56050396 -0.503655553 0.657393694 -0.339514405 -0.050283365 0.939255834 -0.0306830592 -0.0392869264 0.998756766 -0.259662539 -0.102075189 0.960289538 0.116489723 0.0635953546 -0.991153777 0.16008994 0.277570277 -0.947272897 0.104185075 0.00733715249 -0.994530857 -0.0107206572 -0.0264035668 0.999593854 0.0085775815 0.0427137017 0.999050558 -0.0383349881 -0.125413284 0.991363704 -0.0486624837 -0.162475273 0.985511899 -0.184007436 -0.382631779 0.905391753 0.194073156 -0.120170303 0.973598838 -0.0479796752 -0.998506904 0.0261124484 -0.117841527 -0.992991269 0.00904011261 -0.0730969012 -0.997044146 -0.0236591604 -0.0134274783 -0.999909103 -0.00123079808 -0.232070729 -0.964379311 -0.126947626 -0.0597592331 -0.964383125 0.257670343 -0.363739043 -0.924127817 0.11696893 0.00372414012 -0.999977469 0.00558811286 -0.786551595 0.0425561629 -0.616056502 0.653619409 0.429798603 -0.622940421 -0.646032572 0.759729028 0.0738497302 -0.793565392 0.605278373 0.0623859987 -0.811221957 0.581571579 0.0607736856 0.980433166 0.193026349 0.0386211313 -0.0732944608 0.997223318 0.0131749539 -0.00375709636 0.997281373 0.0735915676 -0.0386678837 0.999226987 0.00708515942 -0.659462571 0.746661186 0.0872134045 -0.662231386 0.744051337 0.0885278806 -0.25113979 0.967549622 0.027867185 -0.969890416 0.00415397435 0.243506432 -0.843804836 -0.00279294606 0.536642909 -0.213080332 0.971803606 0.100967854 -0.214112595 0.971686006 0.0999104902 -0.189275533 0.973914862 0.12515834 -0.129539996 0.988263369 -0.080962427 -0.145112887 0.987954021 -0.0537504777 -0.122486956 0.988085449 -0.0931882113 -0.107504666 0.987062097 -0.118958436 -0.935299277 -0.0377591625 0.351837277 -0.783754289 -0.00220492273 0.621067047 -0.893908381 0.00496434281 0.44822219 -0.987375021 -0.00940760039 0.158120513 -0.933738708 0.146798834 0.326469183 -0.999445319 0.0297241136 -0.0150187667 -0.568231404 0.0752197877 -0.819423616 -0.70026505 0.0458791144 -0.712407112 -0.742269516 0.0489882529 -0.668308437 -0.238153487 0.968320787 0.0750848874 -0.341924131 0.298331559 0.891115129 -0.408702612 0.328932226 0.85133177 -0.838004589 0.0447408706 0.543825865 -0.710704505 0.0521032102 0.701558471 -0.699450254 0.0446060263 0.71328789 -0.014508618 0.999819517 -0.0122636771 0.0276708379 0.996455252 -0.0794435591 -0.0387442112 0.996253252 -0.0773196816 -0.473554522 0.0609538369 -0.878652811 -0.310924053 0.102149688 -0.944929481 -0.361522526 0.11135447 -0.925689816 -0.121804915 0.892880559 0.433506489 -0.807964802 0.0123835113 -0.589100599 -0.804113805 0.00683521805 -0.594436109 -0.942901134 0.0099845482 -0.332923084 -0.0325380564 0.999455452 -0.00548775354 -0.0138955154 0.99990344 9.07969879e-05 0.483376443 0.101982079 0.869452059 -0.327838778 0.0118151307 -0.94465977 -0.373472065 -0.0040319399 -0.927632689 -0.365809888 0.900217474 0.236202478 -0.200362042 0.974206924 0.103807248 -0.159914017 0.986639678 0.0311388224 -0.00527763786 0.998142779 0.0606887676 -0.919400632 -0.1261262 0.372551501 0.00242096628 -0.997559667 0.0697770044 0.986962795 -0.055364646 0.15112637 0.168789566 0.0241955165 -0.985355079 -0.0927327052 -0.0248551294 -0.995380759 0.179389298 0.0400087573 -0.982964277 0.995294333 -0.0961450487 -0.0120573621 0.975936472 -0.052857507 -0.211551711 0.883548737 -0.0566856377 -0.464896053 0.158096552 0.987196326 -0.0211865138 -0.0886185467 0.995984614 -0.0127048548 0.143199399 0.989631593 0.0110988319 -0.922829688 0.160333633 -0.350254834 -0.987322211 -0.00771690393 -0.158541054 0.93148607 0.289321661 -0.22051464 -0.1402632 0.937769413 -0.317670852 0.98471874 -0.156301782 -0.076803349 0.962007821 -0.272957444 0.00593006518 0.89899826 -0.437853277 0.00930553209 0.999660432 -0.0228146631 0.0125892265 0.990138352 -0.107551686 -0.0897700936 0.168658614 0.32301724 -0.93124336 0.715613186 0.328757048 -0.616292596 0.650820494 -0.427646786 0.627336323 0.618262827 -0.142047137 0.77302891 0.648337483 -0.493729979 0.579559445 0.590015709 -0.0325700715 0.806734562 -0.363644093 -0.0366828516 -0.930815399 -0.288126022 -0.07075008 -0.954975307 0.663018823 -0.235883072 0.710468352 0.452624351 -0.148581952 0.879235208 0.0330783129 -0.990010798 -0.137056276 0.0135822007 -0.987262785 -0.158517331 0.0102966186 -0.993787766 -0.110814542 -0.0384961069 -0.119322248 -0.992109001 -0.190619916 -0.237740457 -0.952440798 -0.0243402403 -0.162660077 -0.986381888 -0.988574147 -0.149979591 0.0150748026 -0.999101341 -0.0379376672 0.0189003684 -0.962171078 -0.270123541 0.0354984775 -0.68209219 -0.521227777 -0.512905359 -0.951187134 -0.0041903141 -0.30858621 -0.998103976 -0.0410482325 -0.0458633974 -0.990240276 -0.122231059 -0.0669607371 -0.992339432 0.120466463 -0.0273913126 0.585531354 -0.0129126478 -0.810546935 0.683094203 -0.018485738 -0.73009634 0.564819813 -0.0630657747 -0.822800875 0.719025731 -0.672237217 -0.176349476 0.976576865 0.156872496 0.147270575 0.772682607 -0.171124771 0.611291945 0.804828823 -0.0938471034 0.586040318 -0.554165006 0.0552651249 0.830570221 0.121715225 -0.992365241 -0.0199142992 -0.848843873 0.017878769 -0.528341174 -0.857684731 0.0322991312 -0.513160527 -0.0281486083 -0.516411781 -0.855877638 -0.00836399011 -0.362959951 -0.931767225 -0.0102304528 -0.377813011 -0.925825417 0.00144372066 -0.99965477 0.0262346789 -0.0235542841 -0.998029947 0.0581501238 -0.43475312 -0.0751396194 -0.897409499 -0.986251295 0.098271735 -0.132857203 -0.460254401 -0.404799521 -0.790128589 -0.693053544 -0.217667595 -0.68723911 -0.488351196 -0.386039048 -0.782615483 0.994083881 0.079284437 -0.0742372349 0.98152113 0.191342607 0.00207662676 0.995960116 0.0113953101 -0.0890706256 0.999082088 0.0402577445 0.0146373026 -0.207923129 0.892650068 0.399929762 0.497616649 0.118315332 -0.859289944 -0.882075608 0.470012397 0.0321096666 -0.999456763 0.0258715581 0.0204163138 -0.999698937 -0.0215831324 -0.0116691645 -0.891283572 0.453446358 -0.000104011844 -0.797786534 0.600222051 0.0571852997 0.0168069806 0.0965965539 -0.99518168 -0.355929881 -0.0108383438 -0.934449792 -0.143967226 0.110723741 -0.983368516 -0.986334264 0.163379192 0.0212589055 -0.920519888 0.243624955 0.305434078 -0.921107292 0.304862171 0.242116481 -0.989523113 -0.136370018 -0.0474054143 0.0379246473 0.996753871 -0.0710173324 0.165340066 0.914459407 -0.369359791 0.879263997 -0.0379254781 -0.474822551 0.679969251 0.307970583 0.665429115 0.733931899 0.131570488 0.666358113 0.726837099 0.160650536 0.667756855 0.0277927443 -0.984409392 0.17368269 0.190354183 -0.981710553 0.00311740045 0.551858544 0.385544509 -0.739464402 0.529795408 0.25609991 -0.808535516 0.555870473 0.420355499 -0.717153609 0.513341784 0.18506068 -0.837993324 0.0428547971 -0.0249668453 0.998769283 0.0290759783 0.000867117895 0.999576807 0.0593312867 -0.0559213385 0.996670783 -0.00608318439 0.939429224 0.342689008 -0.966778159 0.0141386911 -0.25522545 -0.957800865 -0.0215764027 -0.28662172 -0.93601799 -0.0273682903 0.350886405 0.0734628066 -0.997166693 -0.0161786489 0.025343569 -0.993890405 -0.107422337 -0.150925308 -0.979707599 0.131888434 0.00940123945 -0.998203278 0.0591758005 -0.0131821409 0.995731413 0.0913518146 0.0321521536 0.986522615 0.160435051 0.00791965052 0.987018108 0.160413682 -0.993467689 0.02415739 0.111527331 0.00931583066 -0.999956131 0.00100192602 -0.00980502646 -0.999950051 -0.00193978811 0.00169012533 -0.999996364 -0.00211462053 -0.00107374485 -0.999988854 0.00459478376 0.00868262257 -0.999931931 0.00779432664 0.00213318132 -0.999993622 -0.00287384517 -0.00343236979 -0.999738216 -0.0226206519 0.17409724 -0.983718932 -0.0445775278 0.0829198658 -0.979115069 0.185628459 0.217300922 -0.97553426 0.0333645977 -0.0129415849 -0.974107206 0.225715891 0.0670187697 -0.978317261 0.195969045 -0.0898014158 -0.995917678 -0.00915035978 -0.0290997513 -0.997981131 0.0564519987 -0.0726524666 -0.997273088 0.0129635576 -0.0893622413 0.954622686 -0.2840949 -0.46048221 -0.0447181948 0.886541843 0.789672196 -0.0125625003 -0.6134004 0.813847244 -0.0424431972 -0.579526722 0.798420787 -0.0230873544 -0.601657093 -0.989091039 -0.0114302132 0.146861553 -0.0168376397 -0.998876452 0.0442984439 -0.0456236973 -0.99272418 0.111432299 -0.00834474247 -0.99895519 0.0449321382 0.0428285673 -0.997312844 0.0594369583 -0.0788024142 -0.99682188 -0.0116740856 0.0148457754 -0.996018708 0.087899752 -0.0385880694 -0.999233127 -0.00664544338 -0.0178431682 -0.996215284 -0.0850689858 -0.00383482943 -0.994134188 -0.108085491 0.0873781443 -0.995772004 0.0283397958 0.0794518813 -0.995953619 0.0419971347 0.0656013638 -0.991951287 -0.108301073 0.0926955715 -0.995691597 0.00240985444 -0.788342834 -0.0134592149 0.615088999 -0.997634292 0.0212848615 0.0653661415 -0.557673573 0.06372381 -0.827610731 0.768868268 0.0113342172 -0.639306724 0.194394276 0.105075225 -0.97527951 0.31124258 -0.00956142042 -0.950282395 -0.837041557 0.0463370904 0.545173705 0.999944746 -0.00128519512 0.0104355766 0.999962687 0.00500097778 0.00704271952 0.999972403 -0.00427550543 0.00608045654 0.999988794 -0.00112778845 -0.00460073259 0.999956429 -0.00474146707 -0.00804425497 0.999941051 0.00596409105 0.009074606 0.999990225 0.00198225095 0.00395479938 -0.485990405 -0.00732915848 0.873933434 -0.985011518 0.0104623595 0.172171012 -0.998723745 -0.043655321 0.0253991541 -0.0165655892 -0.978795707 -0.204167828 0.0541830882 -0.997862756 -0.0365247428 0.991363823 -0.13112919 -0.0017161906 0.0431196168 0.988206387 -0.14693138 0.0727322549 0.993576825 -0.0866897106 0.0883628875 0.995953798 -0.0163726248 -0.00196778052 0.998313367 0.0580220819 0.0051476513 0.998005331 0.0629191101 0.00273793726 0.997560799 0.069749251 0.00813508872 -0.995462239 -0.0948090255 -0.862618864 0.229253337 0.450922996 0.0445813276 0.99875623 -0.0223277304 0.0160709452 0.999203384 -0.0365291722 0.114482902 0.993411005 -0.0053110267 -0.018217966 0.996223807 -0.084889479 -0.0105003091 0.999068975 -0.0418444984 -0.309507251 0.836514354 0.452160418 0.170890808 0.976988554 -0.127630949 0.159839898 0.971529007 -0.174878716 0.168395817 0.975943863 -0.138478875 0.179971218 0.979799509 -0.0871971473 0.640357316 0.767499089 0.0297928583 -0.0104441242 -0.980753124 0.194972351 -0.0129978517 -0.993902326 0.109495386 0.0301178116 -0.999314904 -0.0215090849 0.0095505137 -0.999285817 -0.0365593731 0.000330948998 -0.999577343 -0.0290701296 0.0245366711 -0.995696843 -0.0893630683 0.00975484122 -0.997876585 -0.0643981546 0.163503662 -0.965978324 -0.200380683 -0.959719896 -0.265226513 -0.092696704 -0.263615787 -0.514995873 -0.815650642 0.0706235096 -0.0131968791 0.997415721 0.146520332 0.014419036 0.989102542 0.0354562216 -0.0259065181 0.999035418 0.00469418941 -0.998122275 -0.0610732771 0.0047241156 -0.990059435 0.140570164 -0.566146016 0.0691601634 0.821398497 0.00218005199 0.669639349 -0.742683232 -0.00105788966 0.681514204 -0.731804073 0.0305717848 0.557633579 -0.82952404 0.99118346 -0.132461712 -0.00303622824 0.00544748735 0.994655013 -0.103110313 0.00640981272 0.977275908 -0.211874351 0.00440486148 0.995484293 -0.0948240682 -0.712475717 -0.452498257 0.536305547 0.0130917467 -0.999841154 0.0120941661 0.0355656147 0.536445975 -0.843184888 0.883566976 -0.00844815094 0.468228668 0.0158475414 0.721945167 0.691768765 0.0200263597 0.999745846 -0.0103530996 -0.175876692 0.187395185 -0.966411114 -0.659412444 -0.280517429 -0.69748491 -0.121224374 -0.0133919055 -0.992534816 0.181420594 0.0272049811 0.983029246 0.00255573494 0.990960598 0.134128973 0.0369858257 -0.995802879 0.0837180167 -0.491802722 -0.100651063 0.864869595 -0.00370509713 0.999970078 0.00678649545 -0.0028780573 0.999702871 0.0242046006 0.00025873573 0.999890268 0.0148126334 0.00375254615 0.999990344 0.00229144376 0.0323248878 0.999427974 -0.00994405709 -0.733911157 -0.679170549 0.0100886682 0.973488092 -0.21924898 0.0651983321 0.945906043 0.236037999 0.222593382 0.973581076 0.12872082 0.188602343 0.958779752 -0.281164646 0.0410832576 0.671663702 0.329122335 0.663736641 -0.0303470362 -0.532902479 -0.845632315 0.55995822 -0.319623977 -0.764386833 -0.960348845 0.140201777 -0.240984455 0.0155695491 0.0261443872 0.999536932 0.0570795238 0.996965647 0.0529287346 0.0236398317 0.999527574 0.0196410995 0.0179411937 0.998914778 -0.0429811291 -0.0464962423 0.99836421 -0.0332713425</float_array>
          <technique_common>
            <accessor source="#normals_array" count="344" stride="3">
              <param name="X" type="float" />
              <param name="Y" type="float" />
              <param name="Z" type="float" />
            </accessor>
          </technique_common>
        </source>
        <vertices id="vertices">
          <input semantic="POSITION" source="#positions" />
        </vertices>
        <triangles material="scout_1a1a1a" count="282">
          <input semantic="VERTEX" source="#vertices" offset="0" />
          <input semantic="NORMAL" source="#normals" offset="1" />
          <p>0 0 1 0 2 0 3 1 0 1 2 1 4 2 5 3 1 4 6 5 1 6 0 7 4 2 1 4 7 8 8 9 9 10 10 11 6 12 11 13 1 4 7 8 1 4 11 13 12 14 13 15 0 16 14 17 15 18 16 19 14 20 16 20 17 20 18 21 14 21 17 21 19 22 20 23 21 24 22 25 9 10 8 9 23 26 24 27 25 28 18 29 17 29 26 29 23 26 27 30 28 31 29 32 23 26 28 31 15 33 30 34 31 35 18 36 26 37 32 38 33 39 18 36 32 38 34 40 29 32 35 41 36 42 37 43 38 44 39 45 38 44 37 43 40 46 41 46 42 46 43 47 29 47 34 47 36 42 44 48 37 43 36 42 38 44 45 49 46 50 47 50 48 50 49 51 50 51 46 51 51 52 46 53 48 54 50 55 49 55 52 55 46 56 53 57 49 58 51 52 53 59 46 53 53 59 51 52 54 60 55 61 56 61 57 61 24 27 57 62 58 63 24 64 59 65 57 66 60 67 61 68 9 69 56 70 60 67 9 69 44 71 62 72 63 73 64 74 56 75 55 76 56 77 65 78 60 79 24 64 66 80 59 65 24 27 67 81 66 82 66 83 68 84 59 85 65 86 69 87 70 88 61 89 71 90 72 91 66 82 67 81 73 92 37 93 74 94 75 95 64 96 76 97 65 86 77 98 38 98 39 98 42 99 41 100 72 91 63 101 78 102 74 103 62 104 78 102 63 101 13 105 3 105 2 105 11 13 6 12 79 106 78 107 38 107 77 107 80 108 81 109 12 110 82 111 83 112 84 113 85 114 86 115 87 116 55 76 57 117 76 118 86 119 88 119 87 119 89 120 90 120 50 120 91 121 92 122 79 123 92 122 93 124 79 123 94 125 92 122 91 121 15 33 95 126 30 34 95 127 96 127 30 127 97 128 32 129 98 130 97 128 33 131 32 129 99 132 92 133 81 109 100 134 35 41 101 135 102 136 103 137 104 138 40 139 103 140 105 141 42 142 104 143 103 144 40 145 42 145 103 145 106 146 34 147 35 148 43 149 34 147 106 146 103 150 107 151 105 152 30 153 96 153 98 153 96 154 97 154 98 154 100 134 101 135 108 155 82 156 100 134 108 155 68 84 57 157 59 85 102 136 84 158 103 137 60 79 70 159 61 160 5 161 94 162 91 163 21 164 109 165 36 42 45 166 78 166 110 166 45 167 110 167 39 167 52 168 49 169 89 170 90 171 99 172 111 173 112 174 99 172 90 171 113 175 73 92 67 81 38 176 78 176 45 176 114 177 115 178 71 179 114 177 116 180 115 178 117 181 116 180 114 177 69 182 117 183 114 184 73 185 118 186 119 187 75 95 73 185 113 188 118 186 73 185 75 95 120 189 117 190 69 87 120 191 121 191 117 191 88 192 122 193 118 194 123 195 82 196 84 158 120 197 85 198 121 199 120 197 124 200 85 198 122 201 66 202 119 203 119 204 66 82 73 92 56 205 22 25 125 206 125 206 126 207 57 62 56 205 125 206 57 62 83 208 105 209 107 210 25 28 24 27 58 63 93 211 11 13 79 106 41 100 40 139 10 11 41 100 9 10 61 89 75 212 127 213 118 214 4 2 7 8 51 215 98 216 32 217 30 218 30 218 32 217 26 219 30 218 17 220 16 221 17 220 30 218 26 219 31 222 30 218 16 221 48 223 47 224 50 225 47 224 111 226 89 227 47 224 89 227 50 225 14 228 18 229 126 230 22 25 56 205 9 10 61 231 114 231 71 231 67 81 24 27 23 26 29 32 67 81 23 26 113 232 67 81 29 32 4 233 48 234 80 235 51 215 48 236 4 2 76 118 64 74 55 76 25 237 126 230 18 229 27 238 25 237 18 229 28 239 27 238 18 229 101 240 28 239 18 229 126 230 125 241 14 228 101 240 18 229 33 242 125 241 8 243 15 244 10 245 15 244 8 243 15 244 14 228 125 241 83 208 108 246 97 247 105 209 83 208 95 248 10 245 105 209 15 244 95 248 83 208 96 249 95 248 15 244 105 209 96 249 83 208 97 247 97 247 108 246 101 240 107 151 103 150 84 113 44 71 109 250 62 72 115 178 54 251 7 8 104 143 115 178 7 8 42 142 71 179 104 143 71 179 115 178 104 143 64 252 65 78 56 77 12 253 4 233 80 235 69 182 61 254 70 255 66 83 128 256 68 84 129 257 130 258 131 259 130 258 127 260 123 261 131 259 130 258 123 261 127 260 132 262 133 263 123 261 127 260 133 263 132 262 20 23 133 263 20 23 19 22 133 263 29 32 43 264 113 232 69 182 114 184 61 254 72 91 71 90 42 99 131 259 93 124 129 257 93 124 112 174 129 257 74 265 37 266 44 71 6 12 2 267 91 268 91 268 79 106 6 12 61 89 72 91 41 100 82 111 108 269 83 112 130 270 117 271 121 272 87 116 118 214 127 213 121 272 85 114 130 270 127 213 130 270 87 116 87 116 130 270 85 114 53 57 54 273 134 274 112 275 134 274 54 273 93 211 131 276 11 13 131 276 104 138 11 13 22 25 8 9 125 206 41 100 10 11 9 10 122 277 119 187 118 186 12 14 81 278 94 279 81 278 92 280 94 279 12 14 94 279 13 15 94 279 5 281 3 282 3 282 13 15 94 279 3 283 5 283 0 283 4 284 12 285 0 286 5 287 4 284 0 286 134 288 112 174 90 171 35 289 123 195 106 290 83 112 107 151 84 113 99 291 135 292 111 293 135 292 80 294 52 295 80 296 48 223 50 225 80 297 50 297 52 297 135 292 52 295 111 293 52 168 89 170 111 298 21 299 62 300 109 301 131 276 102 136 104 138 74 265 44 71 63 73 1 302 91 268 2 267 25 28 58 63 126 207 133 303 106 290 123 195 40 139 105 141 10 11 68 84 76 304 57 157 99 172 112 174 92 122 112 174 93 124 92 122 106 146 37 93 75 95 47 305 46 306 90 307 54 251 51 215 7 8 28 31 35 41 29 32 123 261 102 308 131 259 130 270 129 309 116 310 129 309 115 311 116 310 60 79 65 78 70 159 44 71 36 312 109 250 37 43 106 290 39 45 106 290 133 303 39 45 39 45 133 303 19 313 45 49 39 45 19 313 45 49 19 313 36 42 19 313 21 164 36 42 47 305 90 307 111 314 20 23 136 315 21 24 90 316 46 316 50 316 49 58 53 57 134 274 134 274 90 317 49 58 90 318 89 318 49 318 15 18 31 319 16 19 117 271 130 270 116 310 81 109 135 320 99 132 80 108 135 320 81 109 106 146 75 95 43 149 113 188 43 149 75 95 62 300 21 299 136 321 127 213 75 212 132 322 123 195 35 289 100 323 39 324 110 324 77 324 65 86 76 97 68 325 69 87 65 86 120 189 120 189 65 86 68 325 68 325 128 326 122 327 68 325 122 327 88 328 68 325 88 328 120 189 88 328 124 329 120 189 126 207 58 63 57 62 104 330 7 8 11 13 28 31 101 135 35 41 123 195 100 323 82 196 102 136 123 195 84 158 86 331 85 332 124 333 124 333 88 334 86 331 118 194 87 335 88 192 129 309 112 275 115 311 115 311 112 275 54 273 25 28 27 30 23 26 97 247 101 240 33 242 1 336 5 161 91 163 6 5 0 7 13 337 2 338 6 338 13 338 122 201 128 339 66 202 62 104 136 340 20 341 62 104 20 341 78 102 78 102 20 341 110 342 20 341 132 322 110 342 77 343 110 342 132 322 77 343 132 322 75 212 75 212 74 103 77 343 74 103 78 102 77 343</p>
        </triangles>
      </mesh>
    </geometry>
  </library_geometries>
  <library_visual_scenes>
    <visual_scene id="scene">
      <node id="left_knee_link">
        <instance_geometry url="#geometry">
          <bind_material>
            <technique_common>
              <instance_material symbol="scout_1a1a1a" target="#scout_1a1a1a" />
            </technique_common>
          </bind_material>
        </instance_geometry>
      </node>
    </visual_scene>
  </library_visual_scenes>
  <scene>
    <instance_visual_scene url="#scene" />
  </scene>
</COLLADA>