<?xml version='1.0' encoding='utf-8'?>
<COLLADA xmlns="http://www.collada.org/2005/11/COLLADASchema" version="1.4.1">
  <asset>
    <created>2026-09-14T00:00:00Z</created>
    <modified>2026-09-14T00:00:00Z</modified>
    <unit name="metre" meter="1" />
    <up_axis>Z_UP</up_axis>
  </asset>
  <library_effects>
    <effect id="scout_1a1a1a_effect">
      <profile_COMMON>
        <technique sid="common">
          <lambert>
            <emission>
              <color>0 0 0 1</color>
            </emission>
            <ambient>
              <color>0.05 0.05 0.05 1</color>
            </ambient>
            <diffuse>
              <color>0.1 0.1 0.1 1</color>
            </diffuse>
          </lambert>
        </technique>
      </profile_COMMON>
    </effect>
  </library_effects>
  <library_materials>
    <material id="scout_1a1a1a" name="scout_1a1a1a">
      <instance_effect url="#scout_1a1a1a_effect" />
    </material>
  </library_materials>
  <library_geometries>
    <geometry id="geometry" name="left_shoulder_yaw_link">
      <mesh>
        <source id="positions">
          <float_array id="positions_array" count="384">-0.0160518084 -0.0210839454 -0.166625693 -0.0172010958 -0.0282767657 -0.162705004 -0.028498603 -0.019557124 -0.169577435 -0.0132543519 -0.0244435538 -0.118522979 -0.0189388264 -0.0206659026 -0.0744737014 -0.0243541505 -0.0129522067 -0.125176549 -0.0101221614 -0.0252833106 -0.0711242259 -0.0234900005 -0.0199293494 -0.0339428596 -0.0293163713 -0.0138085121 -0.000844393857 -0.0162317306 -0.0274395216 -0.000367924193 0.0471637473 0.02304863 -0.205665067 0.0661222488 0.0204090215 -0.203337103 0.065250285 0.0148627441 -0.207990646 -0.0255872384 -0.0103551829 -0.0675523281 0.000407326355 -0.0275159497 -0.15183489 0.00651509687 -0.0213058181 -0.152381673 -3.41329405e-06 -0.0307807811 -0.000559096225 -0.0292594153 -0.0204471368 -0.203804255 -0.0280731078 -0.0106527321 -0.206000298 -0.0151303709 -0.0129143558 -0.204067901 -0.00508273579 -0.0107046748 -0.216856152 -0.00513112778 -0.0177757069 -0.21375373 -0.0104573518 -0.0192974657 -0.203695819 0.00649161031 -0.0180953946 -0.224465951 -0.0111675914 -0.0118999351 -0.199478284 -0.0249526836 -0.00945049804 -0.218753174 -0.0151699604 0.0164118465 -0.232725233 -0.0169497691 -0.00993731245 -0.230836272 -0.0286152642 0.0144121302 -0.209472984 0.00222810567 0.0151431169 -0.243464276 0.0186779611 0.0172526427 -0.229448259 0.0193471611 0.016633546 -0.246546656 0.0663588494 -0.020160839 -0.203191757 0.0651440844 -0.0102530932 -0.20804064 -0.0194133669 0.0273411423 -0.164326176 -0.0140169738 0.0222904552 -0.163659096 -0.0279552881 0.0204589535 -0.169248477 -0.0178686492 0.0230258536 -0.132549733 -0.0242724083 0.0126715647 -0.124668263 -0.0192131493 0.0203100387 -0.0805779472 -0.0267137494 0.00967503246 -0.0527003855 -0.0132544804 0.0294241104 -0.00106787612 -0.0281230602 0.0154612642 -0.000707359577 -0.000687260646 -0.00962455571 -0.242300704 0.00128911866 0.00607142737 -0.000692744274 -0.00558660226 -0.00215698523 -0.000758204493 -0.0049268459 0.000344576139 -0.00986177567 -0.00434351899 0.017479891 -0.219400376 0.00085610518 0.0162787326 -0.223458141 -0.00643492071 0.0235523712 -0.212502927 0.00776020763 0.0234144758 -0.225373745 -0.029070938 0.0207214393 -0.203405023 -0.0115214903 0.0164132081 -0.206459537 -0.014135926 0.0218658429 -0.200095847 -0.00789085776 0.0239008088 -0.185980752 0.000154522379 0.0217154603 -0.171118051 -0.00428826734 0.0282863732 -0.153519541 0.0118214209 0.0241271537 -0.169910491 -0.00879748259 0.0251645464 -0.11549814 0.0135045387 0.0245783031 -0.11421597 -0.0118108215 0.0250221975 -0.0714004487 0.0114804786 0.0245234147 -0.0770473033 0.00992180407 0.0291351136 -0.0199843384 0.0163208563 0.0276621319 -0.000541300804 0.0173128322 -0.021512473 -0.189720362 0.0120154181 -0.0219095051 -0.202089742 0.0148647493 -0.0282278154 -0.20157966 0.0172788873 -0.0264338274 -0.19489722 0.019490974 -0.0266232044 -0.141388178 0.0207620524 -0.0209794696 -0.118469954 0.0096816374 -0.0245497972 -0.0893527046 0.0194671676 -0.018709911 -0.0885503963 0.0183961969 -0.026894575 -0.000736738089 0.00915044453 -0.0253309105 -0.0707904622 0.00808629673 -0.0114235245 -0.225930214 0.023507718 -0.0181090366 -0.228422403 0.0230483282 -0.0287655313 -0.199085519 0.0234057568 -0.0283953696 -0.196447462 0.0195835494 -0.020317506 -0.208046526 0.0229314081 -0.0269720443 -0.197309524 0.0299808402 -0.0211207476 -0.137820065 0.0434217565 -0.0212075133 -0.154285461 0.0261722822 -0.0118478192 -0.116949469 0.0273882411 -0.0175991543 -0.00127788214 0.0239530709 0.00990389753 -0.0883182213 0.0301131196 -0.0052537811 -0.013950428 0.0239153132 -0.0120933522 -0.0808194429 0.0248194207 -0.0115276547 -0.225942463 0.0356284454 -0.0175475925 -0.222940058 0.0366904885 -0.0130399931 -0.14208509 0.0305483658 -0.00401049992 -0.000820329995 0.0368231162 -0.0112378672 -0.22228691 0.0481562503 -0.0116375461 -0.203688949 0.046747949 -0.0196144357 -0.204506725 0.0394384079 -0.00401755283 -0.0040604989 0.0652821288 -0.0207001939 -0.180632219 0.0565493852 -0.0206727684 -0.166536361 0.0186199583 -0.00994760916 -0.246172175 0.0213931315 0.0266376194 -0.13983193 0.0326022804 -0.00932274386 -0.244063467 0.0251096245 0.0150152789 -0.114349343 0.01833212 0.021302687 -0.0722424164 0.030105304 0.00479075871 -0.0135490242 0.0269299112 0.0174640007 -0.000792739505 0.0307521801 0.00417816918 -0.000858185987 0.0255536363 0.0171681345 -0.0365391821 0.034109015 0.0235743802 -0.222586125 0.0398497842 0.0172200575 -0.22098057 0.0294598937 0.0216895379 -0.167965218 0.00723570073 0.0217505656 -0.151860312 0.0296057872 0.0211659074 -0.138295919 0.0362470224 0.0123690553 -0.141294271 0.046561487 0.0149005344 -0.237541288 0.0466632918 -0.0101874927 -0.237107232 0.0040309811 -0.00394031033 -0.000459507137 0.00518594729 -0.000297246967 -0.00924108457 0.0565719567 0.0158039592 -0.227923408 0.0461509638 0.0223231837 -0.182936102 0.0596102588 0.0194212385 -0.16994305 0.0657564998 0.0211006347 -0.183245137 0.0595416911 -0.00976255815 -0.223295644 -0.0090596145 -0.0244882014 -0.0889101923 -0.00872348435 -0.0113865612 -0.0715227574 0.00874277856 -0.0112303765 -0.0716422945 -0.00863772724 -0.0113251116 -0.0887573808 0.0477613918 0.0165684447 -0.206784621 0.0403733514 0.00295510562 -0.00260472251 0.00861519575 -0.0113865575 -0.0885368213</float_array>
          <technique_common>
            <accessor source="#positions_array" count="128" stride="3">
              <param name="X" type="float" />
              <param name="Y" type="float" />
              <param name="Z" type="float" />
            </accessor>
          </technique_common>
        </source>
        <source id="normals">
          <float_array id="normals_array" count="837">0.300337821 -0.496379554 -0.814496517 0.361153245 -0.490127653 -0.793311536 0.143483728 -0.491226137 -0.859132886 -0.707321346 -0.705709577 0.0408726446 -0.681658328 -0.719164014 0.134703785 -0.652211487 -0.747965932 0.123154692 -0.673775911 -0.738736868 -0.0171432551 -0.936810315 -0.343323708 0.0671959519 -0.321223199 -0.946196496 -0.0390879437 -0.73952359 -0.669732749 -0.0675492808 -0.93748486 -0.347066522 -0.0258267988 -0.469114006 -0.88256526 -0.031791117 0.00938085932 0.292390674 -0.956252933 0.179917723 0.615518332 -0.767311394 0.136120647 0.537232578 -0.832377493 -0.960666955 -0.274139941 -0.0443425626 0.451749325 -0.502736628 -0.737006426 0.446571589 -0.491690397 -0.747538865 0.00117748394 -0.998663485 -0.0516705699 0.072199516 -0.187869251 -0.979536831 0.10435646 -0.229605466 -0.967673004 0.0362150483 -0.102718651 -0.99405098 -0.756983519 -0.181679338 -0.627669156 -0.782639444 -0.245598927 -0.571976125 -0.932041466 0.0299049243 -0.361115545 -0.452137619 -0.133936346 -0.881834805 0.635308683 0.427621305 -0.643057525 0.232248619 -0.972549438 0.0144289797 0.0385722108 -0.989309609 -0.140636876 -0.0389162861 -0.996726871 -0.0708596334 -0.941641569 0.0938908309 -0.323257834 -0.907407045 0.00186078367 -0.420248687 -0.708451092 0.0236988254 -0.705361962 -0.724377394 -0.000493504514 -0.689403474 -0.97616291 -0.00406736508 -0.217001125 -0.0417797565 0.997768283 -0.0520858951 -0.00947611313 0.998307109 -0.0573856048 -0.0117378933 0.999259591 -0.0366404429 0.963240921 0.0110936407 -0.268409789 0.999751627 -0.00361354859 -0.0219902769 0.95851779 -0.00348609034 -0.285011321 0.397480667 0.310649037 -0.863427103 0.448087692 0.405839443 -0.796562433 0.334596723 0.237037733 -0.912062585 -0.695909202 0.703943908 0.142032996 -0.561054647 0.82234633 0.0946793482 -0.522843182 0.840917885 0.139614314 -0.957209051 0.286107361 0.0435131937 -0.681660414 0.73132807 -0.0223232247 -0.974036992 0.219640717 -0.054862868 -0.357382119 0.933658063 -0.0236768927 -0.909576297 0.41388458 -0.0370207354 -0.346094102 0.00210752524 -0.938197434 -0.397137195 -0.0121111758 -0.917679369 0.762328267 -0.636056066 -0.119533606 -0.0200530402 0.9977687 -0.0636825785 0.0218293723 0.995384514 -0.0934511945 -0.0241536759 0.999024749 -0.036962226 -0.533924878 0.496079266 -0.684711337 -0.519089103 0.366437852 -0.772185087 -0.379068077 0.634519875 -0.67356658 -0.427797377 0.175902799 -0.886593223 0.0554988831 0.717996538 -0.693830609 0.0687294751 0.747999728 -0.660130799 0.0453786738 0.694173396 -0.71837604 -0.85863167 0.185754612 -0.477751911 -0.835676849 0.261049241 -0.483215749 -0.849615157 0.217610285 -0.480416268 -0.871289074 0.133429617 -0.472283691 -0.0661179647 0.99758637 0.0212086495 -0.0491433069 0.998660386 -0.0161974505 -0.254683644 0.966656327 -0.0266802944 -0.858519614 -0.291498601 0.421867996 0.428671628 0.53693527 -0.726595581 -0.012294583 0.997570693 0.0685679317 -0.221116498 0.940506876 0.257981122 -0.116599098 0.987449884 0.106523879 -0.154190093 0.987199843 0.040766526 0.318368345 0.942472577 0.101916686 -0.253250539 0.966008067 -0.0518900715 0.254391134 0.966237068 -0.040879339 0.189962551 0.980775952 -0.0446401499 0.425351679 0.905022681 -0.0031360595 -0.839537382 -0.379884571 0.388413131 -0.855139792 -0.355151176 0.377628893 -0.84728533 -0.367809981 0.383175403 -0.810782492 -0.42157647 0.406084925 0.474776208 -0.429556161 -0.768159568 0.704985619 -0.683089972 0.190744326 0.508456469 -0.861005843 0.0118747531 0.456266254 -0.869576514 0.188832566 0.686870813 -0.726683378 0.0118200323 0.479418159 -0.875823557 -0.0555991679 0.0887837559 -0.994737387 -0.0511371568 -0.0786508098 0.996849716 0.0102294805 -0.115060218 0.993338883 -0.00624178909 -0.0648492053 0.997893631 0.00171339407 -0.348782957 -0.0437827446 -0.936180294 0.135429427 0.252271444 -0.958132565 -0.180142835 -0.943756878 0.277257025 -0.155587316 -0.938523054 0.308167309 -0.212623134 -0.948425889 0.235116318 -0.0574977063 -0.723378539 0.688053429 -0.547068298 -0.309498608 -0.77777046 0.171555877 -0.682870567 -0.710110068 0.843951046 0.532253563 0.0667291358 0.908290207 0.414786488 0.0544162542 0.961388409 0.222728401 -0.161630526 0.79169482 0.588919044 0.162461251 0.931573212 0.355773598 0.0748094097 0.00306437304 -0.999965131 0.00777089596 -0.00285967789 -0.999983549 0.0049689794 0.0145090204 -0.999893248 -0.0017227045 0.48135668 -0.418096244 -0.770383835 0.69381094 -0.615650356 0.373632133 0.933028758 -0.270729989 0.236986548 0.87119025 -0.4886325 -0.0476005711 0.983238518 0.179830864 0.0300484058 0.983514607 -0.170555234 -0.0600823984 0.958563745 -0.282578111 -0.0361270979 0.213556916 0.269665003 -0.938975096 0.321767658 0.108644076 -0.940564752 0.820502281 -0.184649274 0.540999651 -0.0641495138 -0.974629819 -0.214433193 -0.0144536924 -0.988893867 -0.147919029 -0.0829408541 -0.931441784 -0.354311973 0.974031568 -0.226151094 -0.0108738178 0.642477691 -0.423997521 0.638316929 0.290070921 0.0440376736 -0.955991387 0.846756339 -0.104093887 -0.521697342 0.84901917 -0.09664087 -0.519448698 0.848506868 -0.0983450934 -0.519965708 0.84612596 -0.106136985 -0.522308111 0.0331525952 -0.995102167 0.0931266844 -0.0451534316 -0.998640835 -0.0260305833 0.0159029178 -0.999693692 -0.0189630724 -0.00188483321 -0.999893546 -0.0144689046 0.804247379 -0.0546637252 0.591775298 0.0506119467 0.0178376921 -0.998559058 -0.0244234502 -0.0180208888 -0.999539256 -0.320864022 0.0566463321 -0.945429802 0.264853835 0.951362789 0.157357246 0.302315444 0.0122587187 -0.953129113 0.874379933 0.436435729 0.212093353 0.661238551 0.74736619 -0.0648636818 -0.998954892 0.00501394132 -0.0454304405 -0.999947011 -0.00164307514 -0.0101645542 -0.930579245 -0.0129453177 -0.365861624 0.981449366 0.183455095 -0.0556896888 0.85524869 0.516946375 -0.0362774841 0.960363448 0.276467443 -0.0356064476 0.854747236 0.515864134 -0.0573697872 0.0768915787 0.641142547 -0.763559997 0.369603842 0.100514442 -0.92373687 -0.106930047 0.0195481759 0.994074345 0.456113786 0.496475965 -0.738560617 0.422734708 0.547513247 -0.722166657 0.462428331 0.485867292 -0.741682529 0.708756804 0.607198596 0.359129071 0.825398564 0.182389721 0.534276366 0.547176838 0.00467319414 -0.837004006 0.599672139 -0.0114102857 -0.800164461 0.0984029025 0.938580275 0.330732465 0.15551722 0.905026138 0.395906627 0.101652466 0.936900556 0.334490895 -0.99827373 0.0130831823 0.057257615 -0.998440504 0.00862494018 0.0551558882 0.0588730536 0.995390654 -0.0757061392 0.0659191012 0.996448219 -0.0523990951 0.0471034646 0.993565857 -0.102996036 0.694807291 0.49616918 -0.52063328 0.831359744 0.254681051 -0.493941814 0.732402921 0.441942751 -0.517950356 0.0559296496 0.995488048 0.0766512975 0.0754514113 0.995026767 0.065029487 0.843440652 0.0247611124 0.536651373 0.0348651931 0.99893117 0.0303464737 0.336690515 0.902232051 0.269475073 0.0827245936 0.996229172 0.0261558332 0.807111025 -0.0130894342 -0.590254605 0.854602754 -0.00210340251 -0.519278049 -0.0832316577 -0.981649816 -0.171569645 -0.0692343041 -0.987716317 -0.140082419 -0.0614486188 -0.994434118 -0.0855852216 0.0343314856 -0.994278193 -0.10115432 0.0636901408 -0.991235852 -0.115737185 -0.0367760323 -0.998762488 0.0334811546 0.124924563 -0.992116511 -0.00993121602 0.209616616 -0.977286816 -0.0311662965 0.0266374629 -0.347215176 -0.937407076 0.0223485567 -0.274826884 -0.961233974 0.0691205114 0.0896561816 -0.993571401 0.0115424367 -0.999837101 -0.0138739282 0.031980522 -0.998802364 -0.0370276161 -0.0482313633 -0.99882257 0.00521244993 -0.0459502302 -0.998912573 0.00789341237 -0.0373597741 -0.998146534 0.0480386391 -0.00659029931 -0.0280028321 -0.999586105 0.00771979662 -0.0471863523 -0.998856246 0.00377591513 -0.0419014581 -0.999114633 0.0171368122 -0.0597988851 -0.998063326 -0.119123049 0.992742479 0.0164954588 -0.118765607 0.992786109 0.01644581 0.955440342 -0.0107388776 0.29498893 0.976512372 0.00834394619 0.21529983 0.997493327 -0.0611900911 0.0355359726 0.994975805 -0.100010231 0.00459426129 0.997043252 -0.0719502866 0.0269803833 0.997773767 -0.0326547176 0.0581480041 0.865133166 0.161805272 -0.474724889 -0.0868298411 -0.817442536 0.569428027 -0.261544526 -0.950319171 0.168783605 -0.128391758 -0.99131012 0.0286313891 0.0802163035 0.772969902 -0.629351139 -0.0172352158 -0.997941434 0.06177276 -0.00235444261 -0.999221861 0.0393711068 -0.00731181772 -0.9960168 0.0888651609 -0.0109128226 -0.996113777 0.0873972327 0.732230127 0.0437178314 -0.679652691 0.729878724 0.0381467529 -0.682511449 0.727660835 0.0329600833 -0.685144782 0.725532949 0.0280433837 -0.687615871 0.99891752 0.00566033693 -0.0461706519 0.0640357584 -0.996255636 -0.0580869243 0.0437201746 -0.996753454 -0.0676100627 0.064016223 -0.996760726 -0.0486826971 0.0667039305 -0.996170163 -0.0565294847 0.0202328861 -0.998151422 -0.0573090464 0.0322223939 -0.995209336 -0.0923042372 0.032545086 -0.995472372 -0.0893063471 -0.0533390604 -0.99597615 -0.0720172003 0.01084569 -0.996000409 -0.0886881426 -0.0428744219 -0.996653378 -0.0695976689 -0.0565920025 -0.996222138 -0.0658692569 -0.0357831083 -0.999060094 -0.0244633108 0.101019792 0.994868934 0.00554638589 0.013591052 0.999904692 0.00242544222 0.0703957155 0.997255027 0.0229526758 0.0250434875 0.999636412 -0.00999198481 -0.0243041553 0.999629438 -0.0122584393 0.00275253342 -0.99999243 0.00273990072 -0.00367983151 -0.99995023 0.00927167665 0.00261498359 -0.99999243 0.00287958095 0.00891756453 -0.999954045 -0.00352084544 0.0446529537 0.962464094 0.267710656 -0.936806262 -0.261960417 -0.231885165 0.0093434481 -0.0320485532 0.999442637 0.0235637929 -0.0123601751 0.999645948 0.00230815168 -0.0417792685 0.999124169 -0.0129823908 -0.0629056692 0.997935057 -0.998609185 -0.0505727567 -0.0149038155 -0.996658623 -0.0812590569 0.00827769283 -0.998227477 -0.0588843375 -0.0086327279 -0.999082148 -0.0306900218 -0.0298820119 -0.186972246 -0.450230151 -0.873117507 0.0434902646 -0.989589214 -0.137192443 0.0645144358 0.760498464 -0.646126926 0.0120491665 0.999916494 0.00466868328 -0.00441898685 0.999868751 -0.0155859319 0.133322701 0.990224123 0.0410026871 0.0913360193 0.995818019 0.00205469341 0.0973828137 0.995236397 0.00459595956 -0.0517838523 0.165375963 -0.984870136 -0.00910660159 0.0059173489 0.999941051 -0.00826130528 0.00942849647 0.999921441 0.000981873716 0.0150215896 0.999886692 0.00679243682 0.00580276223 0.999960065 0.00684894668 0.00189672899 0.999974728 0.000329472183 0.00505748903 0.999987185 -0.00387742114 0.0087037608 0.999954581 -0.0064625931 0.00733357575 0.999952197 -0.00144768681 -0.00600625854 0.999980927 0.0281441063 0.00554054603 0.999588549 0.0291570798 -0.0100269392 0.999524534 0.093487151 -0.042808827 0.994699717 0.0673349053 0.00243353192 0.997727454 0.00755145634 -0.00821905676 0.999937713 0.332659066 -0.23527199 0.913227797 0.265782326 -0.130189866 0.955201745</float_array>
          <technique_common>
            <accessor source="#normals_array" count="279" stride="3">
              <param name="X" type="float" />
              <param name="Y" type="float" />
              <param name="Z" type="float" />
            </accessor>
          </technique_common>
        </source>
        <vertices id="vertices">
          <input semantic="POSITION" source="#positions" />
        </vertices>
        <triangles material="scout_1a1a1a" count="252">
          <input semantic="VERTEX" source="#vertices" offset="0" />
          <input semantic="NORMAL" source="#normals" offset="1" />
          <p>0 0 1 1 2 2 3 3 2 4 1 5 4 6 5 7 3 3 6 8 7 9 4 6 8 10 7 9 9 11 10 12 11 13 12 14 5 7 4 6 13 15 8 10 13 15 7 9 0 0 14 16 1 1 0 0 15 17 14 16 16 18 9 11 6 8 17 19 18 20 19 21 20 22 21 23 22 24 20 22 23 25 21 23 19 26 24 26 22 26 24 27 19 28 20 29 24 30 20 22 22 24 25 31 26 32 27 33 28 34 26 32 25 31 29 35 30 36 31 37 12 38 32 39 33 40 5 7 2 4 3 3 34 41 35 42 36 43 36 44 37 45 34 46 37 45 36 44 38 47 39 48 38 47 40 49 5 7 13 15 40 49 41 50 39 48 42 51 26 32 29 52 43 53 44 54 45 54 46 54 47 55 48 56 26 57 49 58 48 59 47 60 49 58 50 61 48 59 51 62 52 63 28 64 53 65 49 66 47 67 53 65 47 67 52 68 54 69 49 70 53 71 55 72 54 72 53 72 34 41 56 73 35 42 57 74 54 69 55 75 37 45 56 76 34 46 58 77 56 76 37 45 39 48 58 77 37 45 59 78 60 79 61 80 60 79 41 50 62 81 39 48 41 50 60 79 41 50 63 82 62 81 64 83 65 84 66 85 67 86 64 83 66 85 15 17 68 87 14 16 69 88 70 89 68 90 71 91 70 89 69 88 72 92 73 93 70 89 51 94 36 95 53 96 72 92 16 18 73 93 20 22 74 97 23 25 74 97 75 98 23 25 67 99 66 100 76 101 64 102 67 102 77 102 65 103 78 103 66 103 66 104 78 104 76 104 78 105 79 106 76 107 79 106 64 108 77 109 64 108 79 106 78 105 80 110 15 111 81 112 80 113 68 87 15 17 69 88 68 90 80 114 80 114 82 115 69 88 82 115 71 91 69 88 71 91 72 92 70 89 7 9 13 15 4 6 83 116 72 92 71 91 84 117 85 118 86 119 74 97 87 120 75 98 87 120 88 121 75 98 89 122 82 115 80 114 82 115 86 119 71 91 22 123 78 124 65 125 85 118 90 126 83 116 89 122 80 114 81 127 87 120 91 128 88 121 91 129 92 130 93 131 91 129 93 131 88 132 94 133 90 133 85 133 95 134 96 135 32 136 96 137 89 122 81 127 29 52 31 138 97 139 50 61 30 140 48 59 58 77 59 78 98 141 31 138 99 142 97 139 100 143 82 115 89 122 100 143 101 144 84 117 17 145 51 146 18 147 73 93 16 18 6 8 102 148 103 149 104 150 105 151 103 149 102 148 50 152 106 152 30 152 30 153 106 153 107 153 55 154 108 154 57 154 56 73 98 155 109 156 98 155 110 157 109 156 59 78 110 158 98 141 59 78 100 143 110 158 110 158 100 143 111 159 61 80 100 143 59 78 56 76 58 77 98 141 61 80 101 144 100 143 105 151 84 117 101 144 62 81 63 82 101 144 31 138 112 160 99 142 112 160 113 161 99 142 45 162 114 163 115 164 36 165 51 146 2 166 107 167 116 168 112 169 106 170 10 171 107 172 108 173 117 174 57 74 118 175 110 158 111 159 110 176 118 177 119 178 112 160 116 179 120 180 60 79 58 77 39 48 20 29 19 28 18 181 6 8 9 11 7 9 118 175 111 159 96 137 96 137 111 159 89 122 27 33 26 32 43 53 78 124 21 182 23 183 23 183 75 184 78 124 78 124 75 184 88 185 109 156 35 42 56 73 3 186 121 187 6 188 65 189 17 19 22 190 93 191 92 191 32 191 96 135 81 112 64 192 96 135 64 192 78 193 81 112 15 111 64 192 15 111 0 194 64 192 78 193 32 136 96 135 0 194 17 195 64 192 17 195 65 196 64 192 42 51 40 49 8 10 33 40 120 180 12 38 19 21 22 190 17 19 122 197 123 198 6 199 123 198 73 200 6 199 26 57 28 201 52 202 52 202 47 55 26 57 29 35 48 56 30 36 2 166 38 47 36 165 2 166 5 7 38 47 95 203 119 204 118 175 8 10 40 49 13 15 38 47 39 48 37 45 40 49 42 51 39 48 124 205 122 206 6 207 124 205 6 207 121 208 38 47 5 7 40 49 4 6 3 3 6 8 125 209 107 172 10 171 115 210 44 210 46 210 76 101 77 211 67 99 2 212 17 195 0 194 51 62 53 213 52 63 68 214 70 215 121 187 121 187 3 186 68 214 68 214 3 186 14 216 3 186 1 217 14 216 126 218 94 219 102 220 94 219 85 221 102 220 32 39 12 38 11 222 62 81 61 80 60 79 71 91 86 119 83 116 82 115 84 117 86 119 84 117 102 148 85 118 92 223 91 224 120 225 33 226 92 223 120 225 113 227 120 225 91 224 91 224 99 228 113 227 91 224 87 229 99 228 87 229 74 230 97 231 97 231 99 228 87 229 97 231 74 230 43 232 74 230 20 29 43 232 20 29 18 181 25 233 20 29 27 234 43 232 20 29 25 233 27 234 119 178 11 235 117 174 110 176 119 178 108 173 110 176 108 173 109 236 11 235 10 237 117 174 119 178 117 174 108 173 109 236 108 173 55 238 35 239 109 236 55 238 35 239 55 238 53 96 36 95 35 239 53 96 113 161 112 160 120 180 124 240 127 241 123 242 123 242 122 243 124 240 46 244 45 162 115 164 114 245 44 245 115 245 124 246 121 247 70 248 70 248 127 249 124 246 86 119 85 118 83 116 123 250 127 251 70 252 123 250 70 252 73 253 43 53 29 52 97 139 33 254 32 254 92 254 25 31 18 147 28 34 48 56 29 35 26 57 88 185 93 255 78 124 101 144 61 80 62 81 89 122 111 159 100 143 112 169 31 37 30 36 112 169 30 36 107 167 32 256 78 256 93 256 105 151 102 148 84 117 105 151 63 82 103 149 51 146 28 34 18 147 58 77 60 79 59 78 101 144 63 82 105 151 100 143 84 117 82 115 51 146 17 145 2 166 57 74 117 174 10 237 57 74 10 237 54 69 10 237 106 257 54 69 54 69 106 257 49 70 106 257 50 258 49 70 22 123 21 182 78 124 126 259 102 259 104 259 107 167 125 260 116 168 125 260 12 261 116 168 116 179 12 38 120 180 118 175 96 137 95 203 125 262 10 12 12 14 95 203 32 39 119 204 32 39 11 222 119 204 45 263 8 264 9 265 42 266 8 264 45 263 9 265 16 267 45 263 16 267 114 268 45 263 41 269 42 266 45 263 41 269 45 263 44 270 63 271 41 269 44 270 114 268 72 272 83 273 114 268 16 267 72 272 114 268 83 273 90 274 114 268 90 274 104 275 44 270 114 268 104 275 63 271 44 270 103 276 90 274 94 277 126 278 104 275 90 274 126 278 103 276 44 270 104 275 77 109 76 107 79 106</p>
        </triangles>
      </mesh>
    </geometry>
  </library_geometries>
  <library_visual_scenes>
    <visual_scene id="scene">
      <node id="left_shoulder_yaw_link">
        <instance_geometry url="#geometry">
          <bind_material>
            <technique_common>
              <instance_material symbol="scout_1a1a1a" target="#scout_1a1a1a" />
            </technique_common>
          </bind_material>
        </instance_geometry>
      </node>
    </visual_scene>
  </library_visual_scenes>
  <scene>
    <instance_visual_scene url="#scene" />
  </scene>
</COLLADA>