<?xml version='1.0' encoding='utf-8'?>
<COLLADA xmlns="http://www.collada.org/2005/11/COLLADASchema" version="1.4.1">
  <asset>
    <created>2026-09-14T00:00:00Z</created>
    <modified>2026-09-14T00:00:00Z</modified>
    <unit name="metre" meter="1" />
    <up_axis>Z_UP</up_axis>
  </asset>
  <library_effects>
    <effect id="scout_1a1a1a_effect">
      <profile_COMMON>
        <technique sid="common">
          <lambert>
            <emission>
              <color>0 0 0 1</color>
            </emission>
            <ambient>
              <color>0.05 0.05 0.05 1</color>
            </ambient>
            <diffuse>
              <color>0.1 0.1 0.1 1</color>
            </diffuse>
          </lambert>
        </technique>
      </profile_COMMON>
    </effect>
  </library_effects>
  <library_materials>
    <material id="scout_1a1a1a" name="scout_1a1a1a">
      <instance_effect url="#scout_1a1a1a_effect" />
    </material>
  </library_materials>
  <library_geometries>
    <geometry id="geometry" name="pelvis">
      <mesh>
        <source id="positions">
          <float_array id="positions_array" count="411">-0.0642857403 -0.0992791802 -0.0296855625 -0.0691670179 -0.108156502 -0.0542447604 -0.0568629839 -0.129889488 -0.0417364202 -0.020771971 -0.150274411 -0.0455656089 0.021473743 -0.150137842 -0.0453135036 0.0127343638 -0.140225202 -0.039663706 0.0460617803 -0.0834592059 -0.0127964327 0.0589901842 -0.0883903652 -0.0197999477 0.0469283909 -0.0646744519 -0.0058171358 -0.0673390254 0.11268127 -0.0749820769 -0.0671353787 -0.113529213 -0.0745349154 -0.0497837365 -0.0726586282 -0.0786203742 -0.0470555276 -0.105590805 -0.0783236101 -0.0458246805 -0.123682804 -0.0761375427 -0.0478675775 -0.0917044878 -0.0176702738 -0.051041346 -0.107829764 -0.0292212274 -0.0433580689 -0.115660958 -0.0220081508 -0.0501887351 -0.0715741962 -0.00850041024 -0.048600778 0.0478706732 -0.0766522139 0.067674309 0.112247534 -0.0416703336 0.0571581163 0.130488306 -0.074448064 0.0427248739 0.142729819 -0.0470908843 0.0220336467 0.050572142 -0.00162795186 0.0416868329 0.0348081142 -0.00161232706 0.0530927032 0.0759230852 -0.0105804456 -0.0462684706 -0.140567243 -0.0749711245 -0.0256418213 -0.136485696 -0.040047951 -0.0258522164 -0.12605086 -0.0764999464 -0.000222223316 -0.144400403 -0.0772531256 -0.0255936477 -0.133278266 -0.0226737391 -0.0154547011 -0.128220424 -0.0106230183 -0.0331351236 -0.116782323 -0.0108034378 -0.0427925996 -0.0973854661 -0.00974930171 -0.0465579294 -0.0558023304 -0.0788115039 -0.0160863344 -0.043357674 -0.0765299648 -0.0317452438 -0.0441287719 -0.0777063295 -0.0370222107 -0.0415110551 -0.0851246342 -0.0396819711 -0.0393804386 -0.0764358416 -0.0197129529 -0.0517992452 -0.0018565706 -0.0420001224 -0.034704946 -0.0018023022 -0.00400158158 -0.0312921777 -0.0768669099 0.00271883467 -0.153370678 -0.0721890405 0.00408265507 -0.135250613 -0.0164320022 0.00639023911 -0.141221687 -0.0242912658 -0.0230329223 -0.0487748981 0.00526413321 -0.0414571874 -0.0316057429 0.00518917851 -0.0585028455 -0.0106114121 0.00486825407 -0.0533644557 -0.0115009816 0.00124137232 0.0560788214 -0.130680576 -0.07516893 0.0686709732 -0.112503834 -0.0728783756 0.0542306229 -0.134563521 -0.0456360243 -0.037693046 0.0186843984 0.00318781286 -0.00228006276 -0.0440895781 0.00305354898 -0.0333723165 -0.0177308656 0.00543248374 0.00471111527 -0.035536591 0.00793545227 0.0170236081 -0.0512821339 0.00533843227 0.0489962064 0.103924111 -0.0786869973 0.0486799143 0.116984561 -0.0767386854 0.0509739704 0.0538476966 -0.0760071203 -0.0576406159 0.0869616196 -0.0762285292 -0.0452178605 0.11113397 -0.078714624 -0.0433782227 0.0586496964 -0.0787389874 -0.0517531894 0.100320391 -0.0240552519 -0.0649520978 0.103655174 -0.0308970995 -0.0481644832 0.0665071234 -0.0064731976 -0.0439180881 0.0776640698 -0.00975186285 -0.04228618 0.125220761 -0.0761575699 -0.0605302751 0.121026613 -0.0377064981 -0.0376225933 0.126932099 -0.0382452682 -0.0461391062 0.142275065 -0.0523249358 -0.0474018566 0.137966543 -0.0746817663 -0.0298468452 0.0467342176 -0.0777404532 -0.0407480448 0.0430809669 -0.0854613185 -0.0423389561 0.112353086 -0.0177915897 -0.0454936773 0.0917348787 -0.075758405 -0.0384689942 0.125282258 -0.024202954 -0.0375895388 0.111048736 -0.00958631374 -0.0273498464 0.126657248 -0.016784586 -0.00722810766 0.152681068 -0.0456175618 -0.0205949266 0.150243655 -0.0736393929 -0.0143353157 0.130129367 -0.00959245767 -0.0171315428 0.135719016 -0.0779563859 -0.00755221723 0.141920924 -0.0403727442 -0.0124810459 0.137072206 -0.0197168756 0.00841830764 0.0370657444 -0.079264164 -0.00339977606 0.029687535 -0.0763222724 0.0670386106 0.110190496 -0.0752099827 0.023486834 0.150400713 -0.0744083375 -0.0529440418 0.0128699234 0.00444461685 -0.0285337884 0.0460108332 0.00527783995 -0.0416331924 0.0348531827 -0.0012746416 -0.016880976 0.0521620028 -0.00187471753 -0.000973929418 0.0415277816 0.00398999499 0.0210044943 0.0506453924 0.00544255227 0.0317615867 -0.120854713 -0.00940427929 0.0267117638 -0.127628461 -0.0174203068 0.0340339392 -0.042739667 -0.078179583 0.0293182172 -0.0507352464 -0.0759505779 0.0330873169 -0.146293685 -0.0730162263 0.0371247455 -0.127433077 -0.038320601 0.0385967903 -0.125073373 -0.024217844 0.0126424097 -0.132360965 -0.0759862587 0.0444216095 -0.102276154 -0.0756840929 0.0299293268 -0.130503118 -0.0786310658 0.0504121557 -0.101967342 -0.0784742087 0.0425449312 -0.111360379 -0.0179003049 0.0438434668 -0.0576732382 -0.0796005875 0.0405092649 -0.0370299183 -0.000972607697 0.0369853079 -0.0407292135 -0.0848942101 0.049333401 -0.0518386252 -0.0845332369 0.0502518937 -0.0521087833 -0.0759045631 0.0175399724 -0.0518729575 -0.00145597721 0.0643179491 -0.110112175 -0.0330705382 0.0385895446 -0.0178482514 0.00315860659 0.0486647412 -0.0250495188 0.00352969719 0.0586579479 -0.00988792814 0.0049791513 0.0296593141 0.0463160016 -0.0780169964 0.0131483339 0.138613954 -0.0227960199 0.0179880802 0.127486989 -0.0114039183 0.0114297429 0.139158607 -0.07836207 0.0292450842 0.133640587 -0.0391690731 0.0336861163 0.116241753 -0.00951061212 0.0424755216 0.108684249 -0.0166295916 0.0290097799 0.130689248 -0.022615511 0.0587167144 0.122148991 -0.0378688537 0.0472428799 0.0540520474 -0.0850854367 0.0380408242 0.0402225889 -0.0791985765 0.0432647467 0.0601432584 -0.078337051 0.0460457988 0.0848649368 -0.0124918222 0.0510789566 0.107899837 -0.0293628946 0.042699866 0.117376782 -0.0225050002 0.0213667266 0.0299059059 0.00777912559 0.0317197591 0.0273762383 0.00301138638 0.0500565358 0.019456448 0.00552318525 0.0584164523 0.0096081309 0.00273667066 -0.0683845356 0.113126606 -0.0557193421 -0.0606484227 0.0109769711 0.00421213359</float_array>
          <technique_common>
            <accessor source="#positions_array" count="137" stride="3">
              <param name="X" type="float" />
              <param name="Y" type="float" />
              <param name="Z" type="float" />
            </accessor>
          </technique_common>
        </source>
        <source id="normals">
          <float_array id="normals_array" count="774">-0.948409319 -0.090109095 0.303973943 -0.972171962 -0.217036322 0.088186577 -0.770611584 -0.627689421 0.110289536 -0.0665565431 -0.406772822 0.91110158 0.111680947 -0.43115592 0.895339012 0.0496888608 -0.445122927 0.894089818 0.239637226 -0.237166256 0.941448987 0.779911637 -0.13591823 0.61095345 0.401033342 -0.17869699 0.898465157 -0.998376787 0.0029230169 -0.0568795949 -0.939503968 -0.338478416 -0.052580189 -0.987919629 -0.0830220431 -0.130851671 -0.403205842 -0.417643189 0.814247608 -0.402966529 -0.418032497 0.814166367 -0.402861744 -0.418202758 0.814130783 0.824101031 -0.427993476 0.371051371 -0.853636563 -0.298948795 0.426537514 -0.785924673 -0.250317544 0.565387964 -0.749467075 -0.251936793 0.612231135 -0.40333268 -0.417436898 0.814290643 -0.596656799 -0.00724771619 0.80246383 0.902387023 0.310640663 0.298663795 0.749809682 0.661593914 -0.00888116192 0.538371742 0.841745257 0.0402597971 0.0554372109 0.271403551 0.960867763 0.49849689 0.0504780859 0.86542058 0.55181098 0.193884045 0.811118722 -0.252233118 -0.967449188 0.0205062702 -0.55785346 -0.829939425 0.000151207685 -0.110770956 -0.411505729 0.904650688 -0.142755359 -0.450041801 0.881523311 0.311398536 0.39956063 0.862196147 -0.14441435 -0.459172368 0.87653023 -0.737094641 -0.673647106 0.0537692569 -0.429583967 -0.896361172 0.109518327 -0.685550869 -0.697154582 0.209751204 -0.464085221 -0.794825315 0.390995651 -0.176337346 -0.51212424 0.840615213 -0.504537642 -0.773848355 0.382884532 -0.773652494 -0.301972657 0.55702275 -0.875681937 -0.395022631 0.277737796 -0.88697803 -0.272211194 0.373056412 -0.0208714101 0.000499535061 -0.999782026 0.045828037 -0.042583365 -0.998041332 0.0355702825 -0.000326201785 -0.999367118 0.0183766559 -0.00673269015 -0.99980849 0.526316583 -0.611958861 -0.590336502 -0.842139184 0.404242337 -0.356916934 0.505957127 0.860726953 -0.0561824478 -0.0407943167 -0.263393879 0.963825464 -0.497317582 -0.0469284579 0.866298437 -0.469739288 -0.0835290924 0.878844619 -0.00728265336 0.00111602747 -0.99997288 0.018996235 -0.486792028 -0.873311341 -0.0719268695 -0.103340238 -0.992042005 -0.0105132954 -0.420410603 -0.907273054 0.0427867956 -0.719271779 0.693409979 0.0996458605 -0.94795078 0.302423537 -0.615995586 -0.781777561 0.0968155414 -0.7682634 -0.560982227 0.308334619 -0.730596602 -0.616122901 0.294314861 -0.587712646 -0.217215329 -0.779366016 -0.581128299 -0.337471873 -0.740542114 -0.562438428 -0.46708253 -0.682273388 -0.851349294 -0.45190388 0.266434282 0.712868154 -0.699695587 -0.0473828763 0.957495153 -0.279327989 0.0719644874 0.721665859 -0.691275716 0.0365549363 0.037762247 -0.0297818482 0.998842835 0.0276075993 0.030357521 0.999157786 0.0209917799 0.0121168327 0.999706209 -0.607653975 -0.792414963 0.0532457717 -0.0522264056 0.0894900486 0.994617462 0.0767168477 0.126796097 0.988957644 -0.0685955286 0.00765640102 0.997615159 -0.0679800361 -0.132889941 0.988796711 0.269384623 -0.949129879 0.163047373 -0.0587913468 -0.928399444 0.366903275 -0.0538013354 -0.938113511 0.342123389 -0.0525013879 0.138181031 0.989014447 0.000802087074 -0.999976575 0.00679403776 0.996548712 0.0353388377 -0.0751119107 -0.20535183 -0.0241610613 -0.978389919 -0.184942141 -0.0060262722 -0.982730925 -0.370769233 0.0121671446 -0.928645313 -0.511953413 0.390866011 0.764936209 -0.334665507 0.413096845 0.846965134 -0.103485979 0.279654771 0.954507113 -0.239035517 0.265626043 0.933972597 -0.134405211 0.124138117 -0.983120024 -0.373478085 0.137030855 -0.917462051 -0.65665561 0.264843047 -0.706159711 -0.191768304 0.513190448 0.836576641 -0.0844968408 0.394138485 0.91515851 -0.59505403 0.802543938 -0.0428241007 -0.633904934 0.765304804 -0.111682683 -0.787756443 0.61273253 -0.063234508 -0.0272070449 -0.888187587 0.458674818 0.427462488 0.418270051 -0.801452398 -0.307655692 0.0499566682 -0.950185418 -0.755858302 0.402562588 0.516354203 0.951253891 0.0332004055 0.306616724 -0.669917107 0.673421979 0.312592208 -0.737603307 0.423563063 0.525866628 -0.485906273 0.673406959 0.557151794 -0.882768869 0.469803274 0.00198800303 -0.0500930585 0.483411759 0.873958647 -0.296441972 0.669412374 0.681182206 -0.207380995 0.977148473 -0.0466254354 -0.248851836 0.794634879 0.553740144 -0.0399213098 0.999140322 0.0111777894 -0.0384273939 0.153370842 -0.987421274 -0.092736423 0.114050232 -0.989137232 -0.0518184416 0.438823372 0.897077978 -0.428848773 0.898884177 0.0899777561 -0.212313861 0.901246548 0.377726734 -0.145830736 0.983035088 0.111245051 -0.0513495393 0.273254931 -0.960570157 -0.0170723274 -0.048804298 -0.998662472 -0.0270923637 0.0501160286 -0.998375893 -0.0350332595 -0.0736714825 -0.996667027 0.0835875571 0.0279890448 -0.99610728 0.129736856 0.133962139 -0.982457399 0.0841739625 0.219195068 -0.972043335 0.0552982688 -0.0110271145 0.998408973 -0.686843872 0.492462337 0.534533799 0.0432494804 -0.103085913 0.993731737 -0.561317086 0.794692576 -0.23105602 -0.0284109917 -0.0773931518 0.99659574 0.975149572 0.219234794 -0.0319287032 -0.0781813115 0.815279603 0.573765516 -0.0954353139 -0.990033567 -0.103564583 0.402485251 -0.49019134 0.773122251 0.422549933 -0.775903583 0.468428463 -0.0288438424 -0.0704031214 -0.997101545 -0.111164063 -0.11460939 -0.987171352 0.236357734 -0.970688283 0.0435811765 0.398762494 -0.916904032 -0.0165965464 0.102830216 -0.307679147 -0.945917249 0.175980449 -0.446639299 0.877236664 0.669420302 -0.66411829 0.332901359 0.62564522 -0.776972532 0.0698698536 0.454840422 -0.880943894 0.130606428 -0.0753409415 0.137079686 -0.987690687 -0.259108812 0.0859465227 -0.962016523 -0.185760528 0.208316773 -0.960258901 0.165478453 -0.131536067 -0.97740227 0.175075784 -0.468437046 0.865976453 -0.424121112 0.0690852404 -0.902966499 0.66794461 -0.352910995 0.65521276 0.712153018 -0.689168811 0.133732632 0.713167548 -0.212111771 0.668132246 -0.29030326 -0.0894224569 -0.952747405 0.46279934 -0.0480190963 0.885161519 -0.758036256 -0.453316659 -0.468919009 -0.655636489 -0.45389241 -0.603425562 -0.470128298 -0.430925936 -0.770248175 -0.337120146 -0.402365029 -0.851147652 0.68344897 -0.723736405 -0.0954105407 0.613397002 0.784828663 0.0882502571 0.491098404 0.815163672 0.307132751 0.408433676 0.809442103 0.421883106 0.668841183 0.741856098 -0.0479686856 0.0133663248 -0.294816822 0.95546031 0.14811109 -0.492481261 0.857627749 0.145794436 -0.489483923 0.859737992 0.205804959 0.00291486946 -0.9785887 0.274154246 -0.00324208848 -0.961680293 0.468129843 0.0469830148 -0.882409811 -0.08336512 -0.074600786 -0.993722796 -0.678619146 0.191523656 -0.70908016 0.284509122 -0.952961922 0.104489855 0.0224188361 -0.00018247799 0.999748647 0.530935585 -0.618302464 0.579490662 -0.0353734531 0.00200842205 0.999372125 0.440786481 -0.688807905 0.575544059 0.52265662 -0.587840557 0.617473543 -0.0149501497 -0.0250613652 0.999574125 -0.015453985 0.0315778032 -0.99938184 0.199070841 0.916581094 0.346770585 0.303464293 0.695818007 0.6509583 0.0071527604 0.197600454 -0.980256557 0.135131672 0.507130086 0.851210058 0.372884691 -0.790804207 -0.485371679 -0.0780855045 0.145856038 0.986219406 -0.0157145094 0.274549395 0.961444557 0.587688625 0.799636126 -0.123305365 0.545344293 0.737136841 0.399034917 0.148712084 0.515141547 0.844105363 0.126338825 0.473368287 0.871757388 -0.155602679 -0.0225322861 -0.987562716 -0.284061164 -0.209286064 -0.935686171 -0.0073890714 -0.0479398705 -0.998822868 -0.500106156 0.475328147 -0.723848701 0.656668305 0.710156679 -0.253898054 0.729078829 0.292529285 0.618765414 0.721836269 0.222060949 0.655470312 0.276141614 0.271371841 0.922010362 0.0381524079 0.0315174907 -0.998774767 0.394416302 0.510035694 0.76439476 0.716209114 0.5665645 0.407491267 0.50745821 0.858764112 0.0707836822 0.248366639 0.968635678 0.00767846266 0.724546075 -0.614757478 -0.311618775 0.257868618 -0.0414737575 -0.965289414 0.107864454 -0.023999881 -0.993875861 0.650946081 0.325616211 0.685742915 0.758345187 0.641386271 0.11634554 0.973932743 -0.152137324 0.168253377 0.264508307 -0.020401461 -0.964167595 -0.0439348519 -0.136743024 0.989631772 0.378180772 0.848020315 0.371269196 0.0265445039 -0.0773181394 0.99665302 0.105279841 0.0495138317 0.993209183 0.643915653 0.605518878 0.467674524 0.747394741 0.567812502 0.344949365 0.76614815 0.562323272 0.311142325 0.635795653 0.751099646 0.177801192 0.62351495 0.777424932 0.082701765 -0.0590551086 -0.029613506 0.997815371 0.427079588 0.108542852 0.897675574 -0.083394587 -0.0158093497 -0.996391177 -0.0749982819 0.0299729854 -0.996733129 -0.804797769 0.00308430986 0.593541145 -0.962065637 0.0900414139 0.257530957 -0.0418764018 -0.00606163265 -0.99910444 0.0825518817 0.0149508575 -0.996474624 0.0930261835 -0.00216838415 -0.995661318 0.123899311 -0.285176635 -0.950433195 0.0294634346 0.0518119819 -0.998222113 -0.0809753314 -0.124992043 -0.988847792 -0.629117608 -0.0022005348 0.777306974 -0.285154521 0.0201535448 -0.958269656 -0.614712715 0.113201983 -0.780585408 -0.451162785 0.0658718124 -0.890007317 0.0310252961 -0.0180675965 -0.999355316 0.00270652189 -0.0647242814 -0.997899532 -0.862644672 0.477550596 0.166702241 -0.94781965 0.315487087 0.0458891317 -0.00648477674 0.111497007 -0.993743598 -0.58419472 -0.0825994313 -0.807399452 -0.00210924144 0.130351976 -0.991465509 0.0168798715 -0.0242929924 0.999562383 -0.0665133595 -0.0871344656 0.993973613 0.438960642 -0.0322458856 -0.897927463 0.243670776 -0.054776039 -0.968309939 0.172779858 -0.0710943639 -0.982391298 0.501061916 -0.0159186218 -0.865265012 -0.242205963 0.00863736775 -0.970186412 -0.0447129756 -0.0636029616 -0.996973097 0.0181098152 0.0487829372 -0.998645186 -0.000274466409 -0.00570145994 0.999983728 -0.0205500126 0.0586283505 0.998068333 0.0457321852 -0.0288200974 0.998537898 0.00513111474 -0.00593134435 0.999969244 0.297614396 -0.105451643 -0.948844373 0.040848542 0.999155641 -0.00440631574 -0.0367076173 0.0267127175 0.998968959</float_array>
          <technique_common>
            <accessor source="#normals_array" count="258" stride="3">
              <param name="X" type="float" />
              <param name="Y" type="float" />
              <param name="Z" type="float" />
            </accessor>
          </technique_common>
        </source>
        <vertices id="vertices">
          <input semantic="POSITION" source="#positions" />
        </vertices>
        <triangles material="scout_1a1a1a" count="270">
          <input semantic="VERTEX" source="#vertices" offset="0" />
          <input semantic="NORMAL" source="#normals" offset="1" />
          <p>0 0 1 1 2 2 3 3 4 4 5 5 6 6 7 7 8 8 9 9 10 10 1 1 11 11 12 11 13 11 14 12 0 13 2 14 14 15 2 15 15 15 14 16 15 17 16 18 17 19 0 13 14 12 18 20 11 20 13 20 19 21 20 22 21 23 22 24 23 25 24 26 3 27 2 2 25 28 26 29 2 30 3 3 12 31 27 31 28 31 15 32 2 30 26 29 15 33 26 34 16 35 29 36 16 35 26 34 30 37 16 35 29 36 31 38 16 35 30 37 14 16 16 18 31 39 32 40 14 16 31 39 17 41 14 16 32 40 33 42 34 43 11 44 33 42 35 45 34 43 35 46 33 46 36 46 37 47 36 47 33 47 37 48 35 48 36 48 38 49 39 50 17 51 40 52 34 43 35 45 41 53 25 54 28 55 5 5 26 29 3 3 30 37 29 36 42 56 42 56 29 36 43 57 44 58 45 59 39 60 46 61 47 62 45 63 45 59 47 64 39 60 48 65 49 66 50 67 51 68 46 69 45 70 44 58 39 60 38 71 52 72 45 70 44 73 53 74 45 70 52 72 54 75 53 74 52 72 55 76 44 77 38 78 52 72 44 73 55 79 3 27 25 28 41 80 56 81 57 81 58 81 59 82 60 83 61 84 62 85 63 86 64 87 65 88 62 85 64 87 66 89 60 90 59 91 67 92 63 86 62 85 68 93 67 92 62 85 69 94 70 95 9 96 71 97 18 97 72 97 61 98 71 98 72 98 59 82 61 84 18 99 73 100 62 85 65 88 60 101 74 101 61 101 75 102 62 85 73 100 76 103 73 100 65 88 76 103 77 104 73 100 75 102 68 105 62 85 75 102 73 100 77 104 78 106 69 107 67 92 69 94 79 108 70 95 76 103 80 109 77 104 79 108 69 94 78 110 66 89 81 111 60 90 70 112 81 111 66 89 78 106 67 92 68 93 82 113 78 106 68 93 68 114 83 115 82 116 75 102 83 115 68 114 83 115 75 102 77 104 70 112 79 117 81 111 71 118 84 119 85 120 86 121 57 122 87 123 80 109 83 115 77 104 79 117 87 123 81 111 51 68 88 124 46 69 89 125 90 125 88 125 89 126 88 124 51 68 2 2 10 10 25 28 89 127 91 127 90 127 89 126 51 68 92 128 19 21 86 129 20 22 89 130 93 130 91 130 5 131 43 57 26 34 94 132 30 37 42 56 94 132 42 56 95 133 96 134 97 135 34 43 4 136 41 80 98 137 28 55 98 138 41 53 99 139 5 5 4 4 95 133 42 56 43 57 95 133 43 57 100 140 99 141 43 57 5 142 100 140 43 57 99 141 101 143 102 144 103 145 48 146 98 138 28 55 50 67 98 137 48 65 50 147 99 139 4 4 102 144 104 148 103 145 105 149 95 133 100 140 7 7 100 140 99 141 94 132 95 133 105 150 50 67 4 136 98 137 6 6 94 151 105 149 106 152 104 148 102 144 107 153 24 26 23 25 97 135 106 152 102 144 96 154 108 155 106 156 108 155 109 157 106 156 110 158 106 158 109 158 96 134 106 152 97 135 110 159 108 160 96 161 108 160 110 159 109 162 107 153 111 163 8 8 112 164 99 139 50 147 7 7 105 149 100 140 7 7 6 6 105 149 112 164 7 165 99 139 110 166 104 167 106 168 28 55 25 54 13 169 72 170 18 99 61 84 55 76 38 78 111 171 55 79 113 172 52 72 55 76 111 171 107 173 114 174 113 172 55 79 113 175 54 175 52 175 114 176 55 76 107 173 115 177 113 172 114 174 71 118 116 178 84 119 117 179 83 115 118 180 80 109 118 180 83 115 87 123 119 181 81 111 78 106 82 113 120 182 84 183 116 183 85 183 64 87 90 184 91 185 118 186 121 186 122 186 87 123 57 122 119 181 123 187 117 179 118 180 21 188 78 106 120 182 21 188 120 182 124 189 116 190 125 191 126 192 127 193 125 193 116 193 127 194 58 194 125 194 122 195 121 196 128 197 119 181 57 122 56 198 124 189 120 182 129 199 130 200 118 180 122 195 130 200 123 187 118 180 123 187 130 200 120 201 120 201 130 200 129 199 21 23 20 22 87 202 125 203 58 203 126 203 56 198 58 204 127 205 124 206 24 26 19 21 130 200 122 195 129 199 129 199 122 195 128 197 129 199 128 197 24 26 129 199 24 26 124 189 21 23 124 207 19 21 49 66 19 21 112 208 17 51 8 8 38 49 110 166 86 121 49 209 93 210 89 126 92 128 131 211 132 211 92 211 93 210 92 128 132 212 132 212 131 213 113 172 23 214 133 215 134 216 93 217 23 214 22 218 23 214 93 217 133 215 93 210 132 212 133 219 133 219 113 172 115 177 134 220 133 219 115 177 10 221 9 222 18 99 53 74 51 68 45 70 43 57 29 36 26 34 8 8 17 51 6 6 96 134 34 43 40 52 17 51 64 223 63 224 13 169 25 54 10 221 10 221 18 99 13 169 18 99 9 222 59 82 9 222 70 112 66 89 59 82 9 222 66 89 18 225 33 42 11 44 35 45 37 226 71 118 18 225 37 226 33 42 40 52 35 45 85 120 37 226 18 225 71 118 35 45 71 118 85 120 96 134 40 52 85 120 110 166 96 134 126 192 96 134 85 120 126 192 85 120 116 190 126 192 126 192 58 227 110 166 103 228 104 167 48 146 48 146 104 167 49 209 110 166 49 209 104 167 86 121 58 227 57 122 87 123 20 229 86 121 12 230 28 55 13 169 24 26 7 7 112 208 64 223 17 51 90 231 41 80 4 136 3 27 47 232 88 233 90 234 97 135 102 144 34 43 11 44 101 143 12 235 34 43 102 144 11 44 11 44 102 144 101 143 12 235 101 143 27 236 1 1 10 10 2 2 117 179 123 187 120 201 63 224 67 237 135 238 101 143 103 145 28 239 46 61 136 240 47 62 47 241 136 241 88 241 63 224 0 0 17 51 79 108 78 110 87 202 69 94 135 238 67 237 82 116 117 179 120 201 6 6 17 51 32 242 94 132 32 242 30 37 31 243 30 37 32 242 114 244 23 245 134 246 1 1 135 238 9 9 107 247 23 245 114 244 38 49 8 8 111 163 1 1 63 224 135 238 39 248 47 232 90 234 27 236 101 143 28 239 87 202 78 110 21 23 24 26 107 153 8 8 128 197 64 87 24 26 135 238 69 94 9 96 119 181 56 198 81 111 81 111 56 198 127 205 81 111 127 205 60 90 60 90 127 205 74 249 74 249 127 205 116 178 74 249 116 178 61 250 61 250 116 178 71 118 49 66 112 208 50 67 49 66 86 129 19 21 28 55 103 228 48 146 113 172 131 213 54 75 131 213 53 74 54 75 92 128 51 68 53 74 92 128 53 74 131 213 117 179 82 116 83 115 128 197 65 88 64 87 63 224 1 1 0 0 121 251 118 252 65 88 65 88 80 253 76 254 80 253 65 88 118 252 24 26 8 8 7 7 32 242 94 132 6 6 90 231 17 51 39 50 115 255 114 244 134 246 24 26 64 87 91 185 91 185 22 24 24 26 112 208 19 21 24 26 91 256 93 256 22 256 46 69 88 124 136 257 110 166 58 227 86 121 128 197 121 251 65 88 113 172 133 219 132 212</p>
        </triangles>
      </mesh>
    </geometry>
  </library_geometries>
  <library_visual_scenes>
    <visual_scene id="scene">
      <node id="pelvis">
        <instance_geometry url="#geometry">
          <bind_material>
            <technique_common>
              <instance_material symbol="scout_1a1a1a" target="#scout_1a1a1a" />
            </technique_common>
          </bind_material>
        </instance_geometry>
      </node>
    </visual_scene>
  </library_visual_scenes>
  <scene>
    <instance_visual_scene url="#scene" />
  </scene>
</COLLADA>