<?xml version='1.0' encoding='utf-8'?>
<COLLADA xmlns="http://www.collada.org/2005/11/COLLADASchema" version="1.4.1">
  <asset>
    <created>2026-09-14T00:00:00Z</created>
    <modified>2026-09-14T00:00:00Z</modified>
    <unit name="metre" meter="1" />
    <up_axis>Z_UP</up_axis>
  </asset>
  <library_effects>
    <effect id="scout_1a1a1a_effect">
      <profile_COMMON>
        <technique sid="common">
          <lambert>
            <emission>
              <color>0 0 0 1</color>
            </emission>
            <ambient>
              <color>0.05 0.05 0.05 1</color>
            </ambient>
            <diffuse>
              <color>0.1 0.1 0.1 1</color>
            </diffuse>
          </lambert>
        </technique>
      </profile_COMMON>
    </effect>
  </library_effects>
  <library_materials>
    <material id="scout_1a1a1a" name="scout_1a1a1a">
      <instance_effect url="#scout_1a1a1a_effect" />
    </material>
  </library_materials>
  <library_geometries>
    <geometry id="geometry" name="right_hip_yaw_link">
      <mesh>
        <source id="positions">
          <float_array id="positions_array" count="252">-0.088022694 -0.050570365 -0.0207212362 -0.0911457688 -0.0428861938 0.0309284478 -0.0990565196 -0.0421124436 -0.0219401699 -0.091489546 -0.0166360624 -0.0485686623 -0.102290913 -0.017306095 -0.040775504 -0.0965377018 0.0133709973 -0.0469160117 -0.100031815 -0.0299828835 0.0375769995 -0.0449745916 -0.0566423833 0.0107347239 -0.0285431761 -0.0547944419 -0.0165324081 -0.0365346298 -0.0455147885 0.037656121 -0.0874926001 -0.00427723676 0.0539360233 -0.0289190914 0.061645925 0.0152484123 -0.0142813679 0.0485838763 0.037173219 -0.0320944712 0.0466347858 0.034416303 -0.045214422 -0.00044639589 0.0926285759 -0.0603773184 0.000137788011 0.090874739 -0.041099105 -0.0354521424 0.0928302631 -0.026549682 -0.0606292002 0.0178211741 -0.0644250885 0.0634224489 0.0211636703 -0.0447263345 0.0564084314 0.0116351265 -0.0423289463 -0.0192733742 0.0551097244 -0.00254486711 -0.038892962 0.0629679263 -0.0264471006 -0.0351548865 0.0880711973 -0.0431999974 0.000131116365 0.0686563253 -0.0265789945 -0.0357607827 0.0576216243 -0.0393874086 -0.0026034019 0.0611718707 -0.0289479289 -0.00779584935 0.0545793697 -0.0149405906 -0.0480959564 0.0367904641 -0.0353769511 -0.00918337423 0.0849709064 -0.00409225421 -0.0388734415 0.0860223621 -0.0489940606 0.0540064014 -0.0270712581 -0.0282058809 1.32692185e-05 0.0874453783 -0.00970325153 0.000595256162 0.0601720735 -0.0647644028 -0.0548640676 0.0365483724 -0.0300449785 0.00757128233 0.0553845391 -0.102038354 0.0461660214 -0.00683022244 -0.092604287 0.0372555628 -0.0340004414 -0.0907846391 0.0540349148 0.0044555543 -0.0876215845 0.0320352726 0.0428062305 -0.0989119187 0.0227571763 0.0421907715 -0.0259137191 0.0359676033 0.0578377694 -0.0650344938 0.0324319266 0.0570066758 -0.0614355952 0.0527779907 -0.0276764352 -0.0669532716 0.0462928824 0.0324576981 -0.0352732502 0.0434275791 0.0931915492 -0.0438202918 0.0422437489 0.0429283567 -0.0250760708 0.0309004132 0.0599967428 -0.0409627259 0.00317021413 0.0591220409 -0.0234306343 0.0290786549 0.084877722 -0.0328445472 0.00758234318 0.0846372023 -0.0664515868 -0.0170451757 0.0535167344 -0.0651268959 -0.0553922988 0.0119264377 0.00277040852 0.0370719545 0.0702036172 0.0139332432 0.0391202979 0.0882018656 0.0245870855 0.0486545078 0.0934187993 -0.00636619097 0.0422990769 0.0918547586 0.0268791728 -0.0306457467 0.0833377242 0.0159770846 -0.00389702385 0.0795177296 0.00358435512 -0.00306671741 0.085643366 -0.000404329505 -0.00620542979 0.0744066536 0.0213867445 0.00648963125 0.0821010843 0.0384963937 0.00155060785 0.0829572231 0.00879532006 -0.0384065881 0.0862763971 0.0251429491 0.0319589972 0.076647602 0.00553838024 0.0368288308 0.0850285515 -0.0613648295 -0.0536932386 -0.0262430236 -0.0614974126 -0.0214801636 -0.0547421984 -0.0480405502 0.00833956897 -0.0611733831 -0.0488242395 -0.0516134761 -0.031755168 -0.061357528 0.0221991669 -0.0548077561 -0.0648501217 -0.00883070659 0.0664983094 0.000908132759 0.00504235784 0.0859549269 0.0275179278 0.0269323383 0.0944033265 -0.0291313268 0.0487774946 -0.0246191174 -0.000602591492 -0.0388798751 0.0945008323 0.0349635482 -0.0134935705 0.094238773 -0.00639084028 0.00292321527 0.0847180486 0.0316406935 -0.0458131991 0.0930242017 -0.0173958056 -0.0503178947 0.0937530175 0.0513056181 0.0169996917 0.0934897512 0.0558950119 -0.0102963336 0.093404144 -0.0295199864 0.00305787846 -0.0564997941 -0.0315105207 0.0296476651 0.0882652551 -0.000176388523 0.000306224189 0.0877419487</float_array>
          <technique_common>
            <accessor source="#positions_array" count="84" stride="3">
              <param name="X" type="float" />
              <param name="Y" type="float" />
              <param name="Z" type="float" />
            </accessor>
          </technique_common>
        </source>
        <source id="normals">
          <float_array id="normals_array" count="618">-0.406127334 -0.912828445 0.0424838141 -0.670270324 -0.733589351 0.112180315 -0.898637652 -0.436269552 0.0460350625 -0.294409364 -0.629503012 -0.719061255 -0.389405012 -0.607744396 -0.692105889 -0.276419073 -0.626371145 -0.728870153 0.840919912 -0.253417552 -0.47815609 -0.912945628 -0.13232635 -0.386031061 -0.972229779 -0.226520851 0.0588014834 0.454070359 -0.864628494 0.215029463 0.00930510461 -0.641930699 0.766706169 -0.23339127 -0.481383145 0.844866157 -0.088483274 -0.503711998 0.85932821 0.31276384 -0.772265077 -0.552978694 0.188259304 -0.827896595 -0.528342366 0.193518981 -0.882338464 -0.428986311 -0.0734769106 0.00678223884 0.997273862 -0.114789017 0.00291399448 0.993385613 -0.0519843511 -0.00128841889 0.998647094 0.252571613 0.776990175 -0.576622844 0.247316286 0.826666355 -0.505427897 0.350661963 0.821565866 -0.44951719 -0.0794343054 0.71729821 -0.692223549 0.455442995 0.706651568 -0.541493535 0.508628964 0.793514669 -0.334112227 -0.905902624 -0.423305988 0.0123470156 0.354917049 -0.374189645 0.856747329 0.394670516 -0.422420949 0.815963089 0.376937985 -0.40086779 0.834998667 0.0877434537 0.886459708 -0.454412043 0.975928783 -0.102134608 -0.192695394 0.686861813 0.725363195 0.0454871543 0.549310327 0.795800865 -0.254870772 0.207810268 0.970410764 -0.12295457 0.41107136 0.911321342 -0.0226662289 0.121343084 0.981748641 -0.146442845 -0.338764459 0.917078018 -0.210253492 -0.24937138 -0.448393404 0.858345687 -0.19990705 -0.45708096 0.866668403 -0.19756721 -0.521054268 0.830343127 0.124338865 -0.92789942 0.351486176 0.128129512 -0.953046381 0.274381816 -0.021833308 -0.979413748 0.200678796 -0.27377069 -0.939523637 -0.205778822 -0.994516015 0.0698057935 -0.0778784007 -0.838763416 0.359343201 -0.409082323 -0.945692182 0.175682485 -0.273499399 -0.287588388 0.721955419 -0.62934351 -0.245235145 0.892763734 -0.377932131 -0.308208346 0.877192676 -0.36815837 0.107439265 0.291697055 0.950457573 -0.280446678 0.280373901 0.918008804 0.14268288 0.306589544 0.941086829 -0.630783737 0.67045033 0.390651107 -0.739689946 0.587701857 0.32781902 -0.624143779 0.662281036 0.414521813 -0.492711246 0.736658275 0.463217288 -0.105132855 0.833099484 0.543039918 0.0215230044 0.823827267 0.566432118 -0.0932527035 0.528266788 0.843942046 -0.991934299 0.120523445 -0.0392483361 -0.992359936 0.0930448323 -0.0810207427 -0.966650188 0.20833151 0.148947805 0.0222170372 -0.0395765789 0.998969495 0.544228852 -0.286922306 -0.788346708 0.881053865 -0.449360043 -0.147714764 0.894993901 -0.389513552 -0.217405453 0.882157505 -0.445701033 -0.152146861 0.373406142 -0.759375513 -0.532838285 -0.142789602 -0.570519328 0.80877614 0.143111616 -0.725346923 0.673343062 -0.00380587927 0.869134605 0.494560957 0.119017787 0.885907412 0.448333353 0.236000434 -0.887927949 -0.394826174 0.0829470679 -0.8534742 -0.514491558 0.306569487 -0.907298684 -0.287791938 0.0268866438 0.998084486 -0.0557178706 0.113069713 0.983957291 -0.137997583 0.245828599 -0.965406179 -0.086943537 -0.0226368494 0.018733995 0.999568224 -0.000567161362 -0.153915718 0.988083839 0.103046931 -0.964841545 0.241789326 -0.0173359755 -0.991218388 0.131093726 0.0143011902 -0.986919701 0.160577118 0.058445964 -0.966668844 0.249269843 -0.00544547942 0.16429916 -0.986395538 0.0952862203 0.0135388048 -0.995357871 0.0488842987 0.0468266867 -0.997706175 -0.182854548 0.0543772653 -0.981635034 -0.00736170541 -0.0773451999 -0.99697721 -0.230098665 -0.972792447 0.0270085726 -0.441102773 -0.363925427 -0.820357621 -0.221286789 -0.646696687 -0.729942203 -0.238480836 -0.637355089 -0.732738256 0.489663571 -0.389238566 -0.780206978 0.255364656 -0.502199054 -0.826187015 0.51115489 -0.383991778 -0.768941462 -0.259406179 -0.000618788355 -0.965768099 -0.0920404866 0.417559624 -0.903975964 -0.431247085 2.69056654e-05 -0.902233899 0.24175556 0.294495732 0.924568295 -0.761325181 -0.0404437892 0.647107601 0.206702977 0.310164601 0.927939534 -0.984510005 -0.0790861398 0.156478211 -0.99854064 -0.0516394898 0.0158087537 -0.997879088 -0.0578809157 0.0297854878 -0.991760433 -0.00863938127 0.127814814 -0.993382335 0.0452383459 0.105569869 -0.190972775 0.10276369 -0.976201296 -0.103255928 0.0419521071 -0.993769705 0.0353740938 -0.947040141 0.319160789 -0.181573972 -0.983363628 0.00518731028 -0.00776360137 -0.995994747 -0.0890738666 -0.0618993416 -0.973746955 -0.219055668 0.0355978161 -0.9920578 -0.120640598 -0.126297876 -0.179017469 0.975705683 -0.268801808 0.236506253 -0.933707833 -0.211076587 0.00674087787 -0.977446258 -0.0701164752 0.0412060693 0.996687412 0.00827469956 0.0336530767 0.999399304 0.299189687 0.557963729 -0.774055541 0.136450574 0.621893167 -0.771122634 0.269261152 0.573485255 -0.773700953 -0.999141216 -0.00145681959 -0.0414089151 -0.999146461 -0.0012358703 0.041289378 -0.213959977 -0.647762299 -0.731180668 0.000365926186 -0.0403233878 0.999186635 0.0336207189 -0.0245445855 0.999133229 0.389471948 -0.920152783 0.0403793827 0.982526898 -0.00230451697 -0.186106309 0.997463107 0.0708431602 0.00697336392 0.996516526 0.0732312575 -0.0398994088 -0.51345253 -0.845396399 -0.147212207 -0.0450928248 -0.912532032 -0.406511843 -0.133640468 -0.990822077 0.0202946737 -0.993839502 0.0884505734 -0.066780217 -0.0854455829 0.972389638 -0.217157528 0.317910343 0.947643936 0.0300667193 0.241062999 0.969281673 -0.0488019772 0.251350015 0.967131913 -0.0384576432 0.865174651 -0.492716402 -0.0932920873 -0.16886586 0.738250792 -0.653046727 0.337919831 0.939713061 -0.052435983 0.543775022 0.837246418 0.057681635 -0.314004481 0.812132955 0.491773546 -0.367307991 0.916306555 0.159584239 -0.949561059 0.29722631 0.0999514386 0.199204385 0.400459021 0.894399345 0.409182161 0.448114246 0.794835567 0.374174833 0.441614181 0.815456986 -0.384532839 0.92236346 -0.0371497087 0.0360140428 -0.0451401547 0.998331308 -0.0282262359 -0.0238936786 0.999315977 0.0436478332 0.0126475627 0.998966932 0.0403901339 -0.0133051444 0.99909538 0.154692724 0.387887955 0.908632517 0.999135554 -0.0407795534 -0.00806957111 0.999989331 -0.00324374647 -0.00328297378 0.997718871 -0.045250047 0.0500950702 0.997447312 -0.00614214409 0.0711415112 0.986289918 0.104747266 0.127515405 0.172625959 0.978125751 -0.116061665 -0.072328791 -0.991211534 -0.110762097 0.00466687465 0.00914465077 -0.999947309 -0.239946589 -0.150465846 -0.959054589 -0.220373675 -0.137674183 -0.965650678 -0.409663171 -0.261552453 -0.873937309 -0.810973287 -0.0651075467 0.581449389 -0.201092601 0.965811491 0.163615108 -0.9070822 0.413077295 -0.0810496435 0.384476691 0.870124519 -0.308319688 0.0103303259 0.898474693 -0.438903779 0.901482463 0.102549031 -0.420491487 0.894429088 0.0943995342 -0.437133104 0.913482368 0.117371164 -0.389581829 0.922495306 0.129511118 -0.363633454 -0.446027786 -0.0817334577 -0.89127934 0.427339375 -0.430260718 -0.79514575 0.0457148477 -0.567283034 -0.822253048 0.456200182 0.0566351227 -0.888073087 0.448773772 -0.1216278 -0.885329723 0.52807647 -0.24899666 -0.811871886 0.659619749 -0.246397838 -0.710063338 -0.0190141387 -0.504707575 -0.863080919 -0.043022424 -0.372982979 -0.926840186 -0.179867029 -0.344699353 -0.921319842 -0.0283911433 -0.544336557 -0.838386357 -0.291467369 -0.279558897 -0.914818883 -0.252564549 -0.29872188 -0.920313179 0.80365175 0.529220819 -0.272156537 -0.219793394 -0.973328471 0.065746367 0.409704387 -0.440747052 0.79867661 0.952591717 -0.17706196 -0.247422919 0.971905649 -0.146933615 -0.183874741 0.931810856 -0.202350065 -0.301302046 0.914898753 -0.21972999 -0.338642895 0.290672064 0.913623273 -0.284257352 0.0906289741 0.402962804 -0.910718083 0.405167192 0.238595456 -0.882559776 0.169838294 0.320191503 -0.932004452 -0.162802458 0.310614288 -0.936490297 -0.190786019 0.225050271 -0.955485761 -0.146536782 -0.00129289238 -0.989204407 0.765948296 0.43464914 0.473712295 0.174768239 0.977095544 0.121409953 0.346906424 0.534473598 -0.770709991</float_array>
          <technique_common>
            <accessor source="#normals_array" count="206" stride="3">
              <param name="X" type="float" />
              <param name="Y" type="float" />
              <param name="Z" type="float" />
            </accessor>
          </technique_common>
        </source>
        <vertices id="vertices">
          <input semantic="POSITION" source="#positions" />
        </vertices>
        <triangles material="scout_1a1a1a" count="164">
          <input semantic="VERTEX" source="#vertices" offset="0" />
          <input semantic="NORMAL" source="#normals" offset="1" />
          <p>0 0 1 1 2 2 0 3 2 4 3 5 4 6 5 6 2 6 5 7 3 7 2 7 6 8 2 2 1 1 7 9 8 9 9 9 1 10 10 11 6 12 11 13 12 14 13 15 14 16 15 17 16 18 9 19 17 20 7 21 18 22 11 22 19 22 20 23 21 24 9 19 22 25 23 25 24 25 25 26 20 27 26 28 9 19 27 29 17 20 25 30 28 30 20 30 29 31 21 24 28 32 28 32 21 24 20 23 18 33 19 34 30 35 26 36 31 36 32 36 21 37 24 38 33 39 27 40 21 41 33 42 21 24 27 29 9 19 31 43 34 43 32 43 35 44 36 45 5 46 36 47 35 48 37 49 38 50 39 51 10 52 37 53 35 54 39 55 38 56 37 53 39 55 40 57 18 58 41 59 18 60 42 61 43 62 44 63 15 17 14 16 45 64 46 64 47 64 48 65 49 66 47 67 13 15 19 68 11 13 50 69 1 10 51 70 12 71 11 72 18 58 12 14 46 73 45 74 52 75 46 73 12 14 40 57 12 71 18 58 40 57 52 76 12 71 40 57 53 77 52 76 52 75 48 78 46 73 54 79 44 63 55 80 56 81 22 82 21 83 57 84 58 84 59 84 60 85 61 86 57 87 61 86 56 88 62 89 57 87 61 86 62 89 63 90 64 90 52 90 64 91 63 91 61 91 65 92 0 3 66 93 0 3 3 5 66 93 66 94 67 95 68 96 66 97 69 98 67 99 43 100 38 50 10 52 39 101 6 101 10 101 43 100 10 52 50 102 50 103 51 104 33 105 33 105 70 106 50 103 70 106 41 107 50 103 41 107 18 60 43 62 50 103 41 107 43 62 60 85 71 108 64 109 60 85 64 109 61 86 17 110 33 42 51 111 51 111 65 112 7 113 65 112 68 114 7 113 24 38 70 115 33 39 5 116 69 98 3 117 69 98 66 97 3 117 40 57 41 59 23 118 72 119 54 79 55 80 67 120 30 121 73 122 4 123 6 8 39 124 4 123 39 124 35 44 2 2 6 8 4 123 65 92 66 93 68 125 55 80 14 16 72 119 72 119 14 16 74 126 72 119 74 126 75 127 26 128 32 128 28 128 26 129 34 130 31 131 26 132 28 132 25 132 17 110 27 40 33 42 32 133 59 133 28 133 21 83 22 82 24 134 29 135 59 135 21 135 42 136 18 33 30 35 34 137 49 138 32 139 47 67 46 140 48 65 30 121 67 120 69 98 30 121 69 98 42 141 30 35 19 34 73 142 19 34 13 143 73 142 51 111 1 1 0 0 10 11 1 10 50 69 38 56 43 144 37 53 56 145 21 145 62 145 70 115 23 118 41 59 52 146 32 146 76 146 23 118 70 115 24 38 51 111 7 113 17 110 65 112 51 111 0 0 34 147 13 148 45 149 49 150 34 150 47 150 5 46 4 123 35 44 77 151 74 126 78 152 79 153 72 119 80 154 72 119 75 127 80 154 75 127 74 126 80 154 77 151 80 154 74 126 14 16 55 80 44 63 54 79 72 119 79 153 74 126 14 16 16 18 74 126 16 18 78 152 12 14 45 74 13 15 47 155 34 147 45 149 13 156 34 130 26 129 13 156 26 129 9 157 13 156 9 157 73 158 81 159 9 157 8 160 73 158 9 157 81 159 76 161 32 139 49 138 68 114 8 162 7 113 49 163 48 164 76 165 48 164 52 166 76 165 23 167 22 167 82 167 82 168 53 77 40 57 82 169 40 169 23 169 32 170 71 170 57 170 59 171 83 171 57 171 62 172 21 173 59 174 58 175 62 172 59 174 57 176 62 176 58 176 5 116 36 47 69 98 68 96 67 95 8 177 8 177 67 95 81 178 61 179 80 180 77 181 61 179 77 181 56 182 77 183 78 184 22 185 22 185 56 186 77 183 22 185 78 184 16 187 29 188 28 188 59 188 83 189 59 189 32 189 83 190 32 190 57 190 20 27 9 191 26 28 52 192 64 193 71 194 52 192 71 194 32 195 52 76 53 77 63 196 61 179 53 197 79 198 80 180 61 179 79 198 53 197 54 199 79 198 44 200 54 199 53 197 44 200 53 197 82 201 15 202 44 200 82 201 15 202 82 201 22 185 16 187 15 202 22 185 63 203 53 203 61 203 60 85 57 87 71 108 36 47 37 49 42 141 42 141 69 98 36 47 43 204 42 204 37 204 73 122 81 205 67 120</p>
        </triangles>
      </mesh>
    </geometry>
  </library_geometries>
  <library_visual_scenes>
    <visual_scene id="scene">
      <node id="right_hip_yaw_link">
        <instance_geometry url="#geometry">
          <bind_material>
            <technique_common>
              <instance_material symbol="scout_1a1a1a" target="#scout_1a1a1a" />
            </technique_common>
          </bind_material>
        </instance_geometry>
      </node>
    </visual_scene>
  </library_visual_scenes>
  <scene>
    <instance_visual_scene url="#scene" />
  </scene>
</COLLADA>