<?xml version='1.0' encoding='utf-8'?>
<COLLADA xmlns="http://www.collada.org/2005/11/COLLADASchema" version="1.4.1">
  <asset>
    <created>2026-09-14T00:00:00Z</created>
    <modified>2026-09-14T00:00:00Z</modified>
    <unit name="metre" meter="1" />
    <up_axis>Z_UP</up_axis>
  </asset>
  <library_effects>
    <effect id="scout_1a1a1a_effect">
      <profile_COMMON>
        <technique sid="common">
          <lambert>
            <emission>
              <color>0 0 0 1</color>
            </emission>
            <ambient>
              <color>0.05 0.05 0.05 1</color>
            </ambient>
            <diffuse>
              <color>0.1 0.1 0.1 1</color>
            </diffuse>
          </lambert>
        </technique>
      </profile_COMMON>
    </effect>
  </library_effects>
  <library_materials>
    <material id="scout_1a1a1a" name="scout_1a1a1a">
      <instance_effect url="#scout_1a1a1a_effect" />
    </material>
  </library_materials>
  <library_geometries>
    <geometry id="geometry" name="right_shoulder_pitch_link">
      <mesh>
        <source id="positions">
          <float_array id="positions_array" count="201">-0.00283616129 -0.00740304915 -0.012279328 -0.00707170414 -0.0134565355 -0.0428969264 -0.0283920765 -0.0120950677 -0.0348619781 0.00102208392 -0.100582749 0.00528867077 0.000905166147 -0.102321066 -0.0331816338 0.00238208636 -0.0940651149 -0.0151797859 -0.0012486428 -0.0029133074 0.0101069855 0.0104692476 -0.00182160409 0.00297877681 0.015356007 -0.00449354015 0.0124493213 0.000869695854 -0.0058184471 -0.0322394371 0.0266438089 -0.0217305254 -0.0360524505 0.00197134051 -0.0138095031 -0.0350822099 0.0228396486 -0.01531683 -0.0317251161 -0.0349100903 -0.0700539872 0.00966378953 -0.0334906876 -0.0836748332 -0.0051679872 -0.0288364701 -0.0791988075 0.0272872616 -0.00508271484 -0.0411483571 0.0301603861 -0.00258642994 -0.0184711572 0.0141517678 -0.0286800396 -0.0338476934 0.0271000452 -0.00692138169 -0.0360657498 -0.0619350411 0.0053592464 -0.021297859 -0.0517623238 0.00387705583 -0.0390859842 -0.0623590834 0.00235110405 -0.00599924522 -0.0133713428 0.00251376582 -0.013649947 -0.000162581346 -0.0159187838 -0.00213344442 -0.0294556655 0.0215229932 -0.000959856668 -0.0258842576 0.000931061222 -0.0570962615 0.0226824209 0.00682103075 -0.0189068913 0.031402763 0.000297850434 -0.0732731372 0.029812146 0.023588201 -0.0390246063 0.0229532328 0.0028949182 -0.0390908122 0.0266391095 0.000911958341 -0.00135270355 0.0231128056 0.000671918096 -0.0230761766 0.0100761764 0.0263811629 -0.0212416966 0.00297719729 0.0231634304 -0.0156655312 -0.000190237741 0.0270548016 -0.094791688 -0.0273052081 0.0264550932 -0.0957162306 -0.00574379507 0.0250926726 -0.0734646693 0.0230362397 -0.0152710397 -0.00448127836 0.0131120961 -0.0375473462 -0.0826750472 -0.0327684879 -0.0302214436 -0.0795013532 -0.0369370505 0.0234677177 -0.0974189937 -0.033515241 0.0250336546 -0.0733274743 -0.0563876517 0.0243331026 -0.0391913354 -0.0559133776 0.00193668378 -0.0288210679 -0.0439537615 -0.0282065067 -0.0751331523 -0.0609620437 0.000151880871 -0.0747525021 -0.0615550056 -0.028510144 -0.100621335 -0.0393837132 0.00107414671 -0.0939571932 -0.0475258417 -0.0278630219 -0.102468587 -0.000433573819 -0.0283101853 -0.0337963291 -0.0601203516 0.0325729176 -0.00218491629 0.00911060721 0.00110152073 -0.0027728728 -0.0100852121 0.00502820592 -0.00321403751 0.0338597707 0.00167013309 -0.0587193407 -0.0549802333 -0.013756739 -0.00408924697 -0.0141927274 -0.0340463854 -0.0426769741 0.0107098576 -0.0335706361 -0.0286831371 -0.00764843775 -0.0348329656 -0.0611255169 -0.0473185144 -0.0347100236 -0.0296212919 -0.0301466361 0.00245758495 -0.0795351341 0.0145946164 0.023022091 -0.0974344239 0.000574135222 -0.0283932965 -0.00963920634 -0.00136901694 -0.0108340913 -0.00230586156 0.0301377401 -0.00122385984 -0.00143787893 0.021513436 -0.0350473747 -0.000978170312 0.000567623705 -0.0104805594 -0.00193537131 -0.0023997901</float_array>
          <technique_common>
            <accessor source="#positions_array" count="67" stride="3">
              <param name="X" type="float" />
              <param name="Y" type="float" />
              <param name="Z" type="float" />
            </accessor>
          </technique_common>
        </source>
        <source id="normals">
          <float_array id="normals_array" count="510">-0.014018517 0.996576607 0.0814772546 -0.0436622165 0.8140769 -0.579113483 -0.115309417 0.929152191 -0.351254761 0.982212305 -0.187693357 0.00549605954 -0.0578180514 -0.968218565 -0.243330836 -0.648781717 0.758587122 -0.0602318048 0.0870073587 0.651272357 -0.753839493 0.136275157 0.527207911 -0.838737667 0.168186069 0.617943347 -0.768023133 -0.980979085 -0.0846196637 0.174698442 -0.959958971 -0.272648901 0.0643529594 -0.959275484 -0.134416088 0.248440862 0.0702270716 0.570116699 0.818556726 -0.00647876924 0.779575408 0.626274824 -0.0260946285 0.669445038 0.74240315 -0.0273855627 0.316161633 -0.948310018 -0.0498302691 0.654514432 -0.754405618 0.0237688851 0.221842498 -0.974792778 0.995287061 0.0930967107 0.0271423906 0.977207363 0.144824162 0.155214936 0.991817653 0.0532912388 0.116007872 0.0434210785 0.720585346 -0.692005277 0.972573161 -0.102301061 -0.208892316 0.86121273 0.0274455827 -0.507503033 0.97926271 -0.112569459 -0.168441772 0.0656193495 -0.0971514955 0.993104041 0.171400234 -0.229249448 0.958157957 0.126756325 0.0738139078 0.989183664 0.460193306 -0.460577607 0.759006143 0.125574529 0.689714849 0.713109016 0.109922953 0.667991996 0.736005187 0.0514671206 0.515544951 0.855315447 0.0734282732 -0.99702996 0.0232294034 0.0916300565 -0.97895968 0.182323456 0.0153441541 -0.986315727 -0.164151981 0.0953846574 0.162028894 0.982165158 -0.113086753 -0.0147775132 0.993475199 -0.0872300491 0.00441326015 0.996178448 -0.0966418311 -0.00908917375 0.995277703 -0.0958054215 -0.0252201632 0.995080531 -0.178780988 -0.233136892 -0.955868483 0.354524493 -0.9310987 -0.0858345628 0.862084031 -0.377265304 -0.338351846 0.994012594 -0.0311665162 -0.104726367 0.988056183 -0.111642845 -0.106211618 0.987372577 0.15702799 -0.0209185164 0.990627706 0.0222025812 -0.134773254 0.860531151 0.509397149 -0.000849296455 0.866965294 0.498356968 -0.00339090102 0.986913264 0.158830985 0.0278375167 0.983412743 0.0433835462 0.176117122 0.996721566 -0.0220338628 0.0778503492 0.958764017 -0.162454695 0.233195201 0.989363074 0.143920273 -0.0211584028 0.953006327 -0.182831511 0.241560787 -0.00728686666 -0.64607352 -0.763240397 -0.0449394993 -0.620928764 -0.782577693 -0.0298234615 -0.893034339 -0.448999137 -0.0314926542 -0.714335382 -0.699094534 0.0220158827 -0.972517729 -0.231785595 0.0132000996 -0.999887705 0.00709166843 0.080595389 0.996738613 0.00406941492 0.0971370861 0.995252609 -0.00605645264 0.087955758 0.996124268 -0.000433685782 0.056223914 -0.997408152 0.044897981 -0.11842747 -0.0541658625 0.991484225 -0.0418228209 0.0021943613 -0.99912262 -0.0599636696 -0.00670598401 -0.998178005 -0.0211729296 0.0202999376 -0.999569714 -0.0761101916 0.689440012 -0.72033304 0.211416766 -0.97497642 -0.0687311962 0.200698584 -0.978148162 -0.0542792082 0.237036616 -0.971099555 -0.027915949 0.159040436 -0.987267911 0.00286423578 0.102299936 -0.993244529 0.0547725521 -0.891890466 -0.0323096663 0.451095849 -0.567481101 -0.68505162 0.45680356 -0.128565997 -0.991697133 -0.00275214971 -0.259346932 -0.96342063 -0.0675270408 0.114445761 0.0424929708 -0.992520273 0.0376772732 0.155364722 -0.987138391 0.169883609 0.360082388 -0.917322338 0.176260546 -0.908280253 0.379419535 0.207923099 -0.938160479 0.276808321 0.992811441 0.0979377106 0.0688015148 0.278068066 -0.365163088 -0.888444781 0.106673934 -0.170606926 -0.979547858 -0.238434196 -0.242815644 0.940313637 -0.981806934 0.097230792 0.163099125 -0.985771775 0.153228626 0.0691012144 -0.980424821 -0.0205334462 -0.195820078 -0.984165132 0.161911651 -0.0721357092 -0.995988429 0.0811172873 0.0377754048 -0.963046968 0.126266345 0.237902075 0.0683132783 -0.737854004 0.671494424 0.0844975561 -0.552464366 0.829242587 -0.018855013 -0.787083924 0.616557717 -0.0602047555 0.948138714 0.312103212 -0.659751654 -0.0981232896 -0.745050013 0.246667862 -0.405903548 0.879998446 -0.161679104 -0.0971109793 0.982053638 -0.739859521 0.667810559 -0.0814674571 -0.993831336 0.0986372903 0.0506947935 -0.4313173 -0.328633308 0.840217531 -0.234421551 -0.176458716 0.955985785 0.994392157 -0.103353493 0.0224110316 0.0671371967 0.812624872 -0.578907073 0.152295992 0.869911075 -0.469106168 0.0936714038 0.70936203 -0.698592305 -0.962561488 -0.144388705 -0.229406312 -0.984499872 -0.155750781 -0.0806332156 0.953622162 -0.208685279 0.216922045 0.0616503768 0.788943768 -0.611364782 -0.176734179 -0.976756096 0.121295169 0.163318262 -0.983071744 0.0830486119 0.031505581 -0.992442548 0.118596859 -0.19456701 -0.980889201 0.000295124948 -0.226132989 -0.971042573 -0.0770723522 0.0810312107 -0.98724997 -0.13700901 0.174555749 -0.978843927 -0.10674651 0.308141142 -0.950954795 0.0270930044 0.170633331 -0.9765926 0.130962566 -0.234329388 -0.96658808 -0.103909656 -0.231741399 -0.965388954 -0.119666614 -0.252269626 -0.962155402 -0.103038929 0.158636674 -0.699189723 -0.69711411 0.143569678 -0.707867861 -0.691600144 0.169472978 -0.692784965 -0.700947881 0.040649455 -0.984849215 0.168581247 -0.239359662 -0.52242583 -0.818399787 0.0586958602 -0.956276894 -0.286512226 0.0933580473 -0.972421825 -0.213728979 0.0458568558 0.99889344 0.0104400795 0.045365572 0.998968959 0.00173894688 -0.0622441769 0.99669528 -0.0521939248 0.0152409235 0.999786675 0.0139405522 0.0329944938 0.999361455 0.0137119908 -0.0230156854 0.999525785 0.0204578824 -0.0376758277 0.998687088 0.0347076282 -0.0268405098 0.99952507 0.0151396124 0.98545742 -0.111219652 0.128467515 -0.888650596 -0.00384504558 0.458568811 0.185836643 -0.682851732 -0.706525505 0.967277467 -0.154838651 0.200995803 0.0997046232 -0.915097475 0.390711576 0.899629951 0.102370314 -0.424483478 0.963557422 0.237461239 0.123163335 0.969197512 0.163243085 0.18441239 0.994868875 0.0437516347 -0.0912234262 0.962074459 0.0912470669 0.257073283 0.846088231 -0.401573569 0.350532949 0.930956304 0.157902583 -0.329221964 0.141061291 0.0149489725 -0.989888012 -0.995502472 0.0910077468 -0.0263144262 0.00788141042 -0.711663425 0.702476382 -0.0128200296 -0.72563535 0.687960029 0.0709385276 -0.665408552 0.74310106 0.131289884 0.722589791 0.678695023 0.126294151 0.726688206 0.675258517 0.119140938 0.721728325 0.681845725 0.0703893453 0.997466326 0.0103069022 -0.964396298 0.249323577 0.0881901532 -0.943754971 0.307537973 -0.121436849 -0.950876057 0.139147907 -0.276536703 -0.971143484 -0.235454172 0.037969958 -0.996638954 -0.0777748153 -0.0257279687 0.246284768 0.382791102 0.890401483 -0.0767351612 -0.764985859 0.639459431 0.00554573769 0.999215484 0.0392127633 0.0322164297 0.998194933 0.0506852381</float_array>
          <technique_common>
            <accessor source="#normals_array" count="170" stride="3">
              <param name="X" type="float" />
              <param name="Y" type="float" />
              <param name="Z" type="float" />
            </accessor>
          </technique_common>
        </source>
        <vertices id="vertices">
          <input semantic="POSITION" source="#positions" />
        </vertices>
        <triangles material="scout_1a1a1a" count="138">
          <input semantic="VERTEX" source="#vertices" offset="0" />
          <input semantic="NORMAL" source="#normals" offset="1" />
          <p>0 0 1 1 2 2 3 3 4 3 5 3 6 4 7 4 8 4 0 5 9 5 1 5 10 6 11 7 12 8 13 9 14 10 15 11 16 12 17 13 18 14 19 15 20 16 21 17 22 18 23 19 11 20 24 21 25 21 9 21 26 22 27 23 28 24 29 25 30 26 26 27 31 28 32 28 8 28 23 29 33 30 34 31 5 32 35 33 36 34 37 35 29 25 26 27 18 36 15 37 28 38 28 38 16 39 18 36 17 40 38 40 6 40 39 41 40 41 14 41 41 42 42 43 35 44 10 45 42 43 43 46 12 47 34 48 33 49 10 45 12 47 33 49 33 49 29 50 37 51 11 20 20 52 9 53 44 54 20 52 11 20 45 55 46 56 47 57 47 57 46 56 48 58 4 59 49 60 47 57 11 61 23 62 34 63 49 60 4 59 3 64 27 65 16 39 28 38 46 66 19 15 21 17 50 67 19 15 46 66 45 68 50 67 46 66 50 69 2 2 1 1 25 70 22 71 9 72 22 71 25 70 51 73 22 71 51 73 8 74 22 75 8 75 7 75 52 76 22 76 7 76 51 73 53 77 8 74 53 77 31 78 8 74 54 79 42 80 46 81 4 82 41 83 35 33 46 84 4 84 48 84 21 85 43 86 54 79 11 20 9 53 22 18 52 87 55 87 0 87 56 88 57 89 58 90 56 88 58 90 13 9 58 90 57 89 59 91 39 92 13 9 58 90 14 10 13 9 39 92 15 11 18 93 56 88 60 94 61 95 37 96 62 97 17 13 0 0 1 1 20 16 19 15 50 69 1 1 19 15 63 98 64 98 16 98 61 95 60 94 3 99 63 100 16 39 27 65 6 101 52 101 0 101 17 102 6 102 0 102 64 103 38 103 17 103 27 65 53 104 63 100 21 105 54 105 46 105 43 106 21 107 44 108 45 109 40 110 58 90 21 111 20 52 44 54 9 112 20 16 1 1 0 0 2 2 62 97 38 113 64 114 63 115 63 115 65 116 38 113 38 113 65 116 55 117 6 118 38 119 66 120 38 119 55 121 66 120 65 116 24 122 55 117 24 122 9 123 0 124 0 124 55 117 24 122 41 125 4 126 46 127 43 106 44 108 10 6 4 82 35 33 5 32 52 128 66 120 55 121 39 129 58 129 40 129 3 130 36 34 61 131 66 132 65 133 6 134 24 135 65 133 66 132 65 133 63 136 6 134 63 136 7 137 6 134 25 138 24 135 52 139 25 138 52 139 7 137 66 132 52 139 24 135 36 140 35 44 10 45 37 51 36 140 10 45 35 44 42 43 10 45 33 49 37 51 10 45 43 86 42 80 54 79 31 141 26 141 30 141 46 127 42 142 41 125 48 58 4 59 47 57 44 108 11 7 10 6 28 143 3 143 60 143 37 96 28 144 60 94 26 22 31 145 27 23 23 19 22 18 52 146 23 19 52 146 6 147 31 148 30 148 32 148 6 147 32 149 23 19 37 51 61 150 36 140 5 32 36 34 3 130 31 145 53 151 27 23 8 152 32 152 6 152 16 153 64 153 17 153 15 154 3 155 28 156 33 30 32 157 29 158 32 157 30 159 29 158 12 160 11 61 34 63 62 97 18 14 17 13 23 29 32 157 33 30 15 11 56 88 13 9 59 91 57 89 62 161 57 89 56 88 18 93 62 161 57 89 18 93 59 91 62 161 2 162 58 90 59 91 50 163 59 91 2 162 50 163 45 109 58 90 50 163 49 164 40 110 47 165 45 109 47 165 40 110 15 11 14 10 49 164 14 10 40 110 49 164 37 35 26 27 28 166 15 154 49 167 3 155 25 138 7 137 51 168 7 137 63 136 53 169 53 169 51 168 7 137</p>
        </triangles>
      </mesh>
    </geometry>
  </library_geometries>
  <library_visual_scenes>
    <visual_scene id="scene">
      <node id="right_shoulder_pitch_link">
        <instance_geometry url="#geometry">
          <bind_material>
            <technique_common>
              <instance_material symbol="scout_1a1a1a" target="#scout_1a1a1a" />
            </technique_common>
          </bind_material>
        </instance_geometry>
      </node>
    </visual_scene>
  </library_visual_scenes>
  <scene>
    <instance_visual_scene url="#scene" />
  </scene>
</COLLADA>