<?xml version='1.0' encoding='utf-8'?>
<COLLADA xmlns="http://www.collada.org/2005/11/COLLADASchema" version="1.4.1">
  <asset>
    <created>2026-09-14T00:00:00Z</created>
    <modified>2026-09-14T00:00:00Z</modified>
    <unit name="metre" meter="1" />
    <up_axis>Z_UP</up_axis>
  </asset>
  <library_effects>
    <effect id="scout_1a1a1a_effect">
      <profile_COMMON>
        <technique sid="common">
          <lambert>
            <emission>
              <color>0 0 0 1</color>
            </emission>
            <ambient>
              <color>0.05 0.05 0.05 1</color>
            </ambient>
            <diffuse>
              <color>0.1 0.1 0.1 1</color>
            </diffuse>
          </lambert>
        </technique>
      </profile_COMMON>
    </effect>
  </library_effects>
  <library_materials>
    <material id="scout_1a1a1a" name="scout_1a1a1a">
      <instance_effect url="#scout_1a1a1a_effect" />
    </material>
  </library_materials>
  <library_geometries>
    <geometry id="geometry" name="right_ankle_link">
      <mesh>
        <source id="positions">
          <float_array id="positions_array" count="312">-0.0297874454 -0.0144743724 -0.0628758371 -0.0988690481 -0.0139541142 -0.0685460567 -0.0492724963 -0.0135120265 -0.0689596385 -0.0677019805 -0.0104628392 -0.0419346392 -0.0527447127 -0.0095512988 -0.0332466178 -0.0465520695 0.0103673823 -0.0299748909 -0.0385638811 -0.0102708908 -0.0254246704 0.00743430108 0.00970395561 0.00815731939 -0.000841280271 -0.0100322012 0.0113165183 0.0116386786 -0.00991492718 0.00181609439 0.00689503038 -0.0101426709 0.00320651941 0.00596701587 2.77402287e-05 -0.00213165255 0.00527895289 -0.0110968063 -0.00656562718 -0.00578276394 -0.0108625796 -0.00465291459 -0.0157933738 -0.00953490473 -0.00818562973 -0.0243552607 -0.0104694646 -0.01712518 -0.00895783305 -0.00934721995 0.00606476935 -0.00538406055 -0.00972053595 0.00562691083 -0.00164559018 0.00576736405 -0.00591933494 -0.0067051691 -0.000553983671 0.000515276042 0.00264004059 -0.000108305343 0.00558934454 -0.0783666596 0.0147589371 -0.0484689474 -0.0679517239 0.0104027502 -0.0419366062 0.125841275 0.0144825298 -0.0464097597 0.199181631 0.0305977277 -0.0552229509 0.19901529 -0.0313511118 -0.0572391897 0.198223546 0.0158327222 -0.0594265759 0.0755560622 -0.0128285764 -0.0445088446 -0.0762632862 -0.014620997 -0.0471056625 -0.0979442149 -0.0143498024 -0.0595788248 -0.0987840667 0.014041286 -0.059844099 -0.0243999325 0.0101991287 -0.0169552639 -0.0460760891 0.0143291699 -0.0682885572 -0.0219674595 0.0142479902 -0.0601140745 -0.00877414178 0.0106132524 0.000563859707 0.0103464797 0.010005964 -0.00286230678 -0.00912533235 0.00995496847 0.00526161911 0.000188033431 0.0105440896 0.00983163808 0.0682552382 -0.0100203855 -0.037349619 0.0147678768 -0.0103260372 -0.0361440405 -0.00448308093 -0.0143906875 -0.0561925657 0.0257952157 -0.0129233822 -0.0545341559 0.0497854389 -0.0142601235 -0.0570152551 0.0234651398 0.00334598287 -0.0294329878 0.0233504325 -0.00342899119 -0.0291672871 0.0241772309 -0.0104261097 -0.0303100869 0.0368960239 -0.0111994389 -0.0262883846 0.0235374924 -0.00356521341 -0.0149616487 0.0243051872 -0.00974251982 -0.0194820613 0.0296470039 -0.00469009299 -0.0207966287 0.0348136351 -0.00396982674 -0.0194237195 0.0319899805 -0.00478431536 -0.0153356148 0.025882965 -0.0102323974 -0.012993956 0.0372805297 -0.00993048958 -0.0123966653 0.0516668148 -0.0104506444 -0.0279030409 0.0509292521 -0.00399634521 -0.0258788392 0.0347784683 -0.00437176088 -0.00894340221 0.0580972172 0.000717173563 -0.0316276662 0.0552919284 0.0102357967 -0.0302497949 0.0828993097 -0.0144615155 -0.0673780218 0.0503816269 0.0143344151 -0.0571535565 0.0729686245 0.0143680749 -0.0640180409 0.0895616859 -0.00849577785 -0.0442239381 0.0757638738 0.0100154569 -0.0405440144 0.0340036042 0.00350685464 -0.00959803164 0.0293893497 0.00448968727 -0.017106818 0.0330943428 0.00475953612 -0.015232807 0.0914623737 0.00967446156 -0.04443359 0.126232222 -0.0149525749 -0.0458403304 0.130193293 -0.0188122522 -0.0411415361 0.144733876 -0.0280582011 -0.0443006568 0.152533844 -0.0321699791 -0.0411994457 0.00690822164 0.00998704322 -0.00318527664 0.130399466 0.0205271356 -0.0417597517 0.160718173 -0.0374134295 -0.0444497541 0.17616348 -0.0408564135 -0.0436962992 0.189974457 -0.0371634029 -0.0498228855 0.187420294 -0.037984997 -0.0523195118 0.177009493 -0.0158355068 -0.0471847616 0.0084054675 0.00994719379 -0.0360254943 0.00513056526 -0.0102337198 -0.0339199565 0.0241500251 0.00939532928 -0.0163077414 0.0244637858 0.0037266959 -0.0132407676 0.0235365089 0.0106862737 -0.031060325 0.0320993513 0.00415402325 -0.0214613359 0.0393976904 0.0105715822 -0.0222631972 0.0352410041 0.00981427822 -0.0101433313 0.0486331433 0.00399823114 -0.0238232594 0.00119224703 0.0103353281 -0.0223370939 0.141043976 0.0262299888 -0.043901775 0.157897726 0.0355839506 -0.04127267 0.176597208 0.0399980433 -0.0421890654 0.161434934 0.0376323164 -0.0444585569 0.174792632 0.0398153216 -0.045061443 0.188306287 0.0386943445 -0.0512577556 0.199477106 0.014154681 -0.067693837 0.177003101 0.0157372728 -0.0471775569 0.197193339 0.0321884528 -0.0577788539 0.00163410639 -0.0102887517 -0.0212320965 -0.0987699702 0.0138472365 -0.0687997267 0.0121426638 0.0142982556 -0.0542798676 0.198579833 -0.0154850055 -0.059543401 0.0892593637 0.0141534051 -0.0687857047 0.197868809 -0.0141616482 -0.0686470717</float_array>
          <technique_common>
            <accessor source="#positions_array" count="104" stride="3">
              <param name="X" type="float" />
              <param name="Y" type="float" />
              <param name="Z" type="float" />
            </accessor>
          </technique_common>
        </source>
        <source id="normals">
          <float_array id="normals_array" count="861">0.00271831942 -0.999873519 -0.01566967 -0.00324455719 -0.998636663 -0.0520986691 0.00727747101 -0.983834326 -0.178933129 -0.505706787 -0.00514840009 0.862690091 -0.490878403 -0.102711491 0.865152419 -0.496083409 0.000391827285 0.868274748 -0.497469127 -0.00588545483 0.867461681 0.378464639 -0.0105390111 0.925555766 0.524907053 -0.0845261291 0.84695214 0.601636648 -0.126013428 0.788767338 -0.986525416 -0.00417150836 0.163554862 -0.0836693347 -0.995740592 0.0387309566 -0.219349205 -0.937794864 0.269122213 -0.0168230496 -0.999854922 0.00266771903 -0.113534011 -0.99001354 0.0835653692 -0.0832230896 -0.995524466 0.0447761118 0.78006351 0.012426286 0.625576913 0.814061105 -0.0639842004 0.577243924 0.849791229 -0.173505008 0.497745782 -0.0402585715 -0.999168217 -0.00649050856 0.454843283 -0.382836848 -0.804085493 -0.0045232242 0.828622043 0.559790194 -0.00281683309 0.878138661 0.478397846 -0.00376689481 0.814705253 0.579863012 0.842088342 0.0964357927 -0.530648053 0.985846639 0.00878073834 -0.167419448 0.990393043 0.0122579895 -0.137736768 0.174894422 -0.84380722 0.507347345 -0.00139768282 -0.84203428 0.539422214 -0.00155983062 -0.778033793 0.628220499 -0.994447887 -0.0284708831 0.10130579 -0.999815762 -0.00286429538 0.0189785063 -0.996404946 -0.0223740079 0.0817104653 -0.733725369 -0.0181658901 0.679203272 -0.629263878 -0.0144728553 0.777056932 -0.616559207 -0.00780463219 0.78726989 0.174221486 0.00961661432 -0.984659553 0.254999429 -0.00257248827 -0.96693778 0.286304563 0.00717514753 -0.958111823 0.713837266 0.129259393 0.688279271 0.0947464854 -0.744610786 0.660740376 -0.186139375 0.151591659 -0.970758498 0.170961946 0.0324594527 0.98474282 -0.441976547 0.0334632918 0.89640224 -0.509436667 0.071847342 0.857503474 -0.47085309 0.0496930629 0.880810976 -0.125276551 0.983766615 0.128487334 0.712777197 0.135051802 -0.688265741 0.583983839 0.277627915 -0.762814224 0.587530911 0.274183035 -0.761335075 -0.520344079 -0.133536413 0.843451321 -0.460545063 -0.0253030099 0.887275636 -0.583973706 -0.269133985 0.765860081 0.113220133 -0.992142677 0.0532364175 0.057573095 -0.995942235 0.069169499 0.207232311 -0.97427237 -0.0885895565 0.05050366 -0.934025407 0.353618383 -0.0109909466 -0.986864328 0.161177024 -0.0103465933 0.835114956 -0.549978137 -0.745616257 -0.0293396935 0.665729344 -0.723227978 0.126846313 0.678860247 -0.219766557 -0.0194360558 0.975358844 -0.612460792 -0.0366426185 0.789651215 -0.101777799 -0.985972643 0.132284492 0.0207868051 -0.999009073 -0.0393544883 -0.518120646 -0.197153375 0.832274914 -0.973475635 -0.199697152 0.111652076 -0.992146194 -0.1242752 0.0141986823 -0.980132997 -0.181060433 0.0809717923 -0.992791533 -0.119259037 0.0119294552 -0.0806378275 -0.994702697 0.0637500808 0.439995438 -0.240053311 0.865319848 0.0665364265 -0.96448946 0.255603135 0.0113603482 -0.902429581 0.430687517 -0.0444042496 -0.806154609 0.590036392 0.138953492 0.987247169 -0.0776849836 -0.00907819439 0.999108374 -0.041231297 0.140741035 0.98909837 -0.043317534 -0.940257132 -0.269294918 0.208318949 0.609479904 -0.754900634 -0.242196843 0.618305266 -0.750124216 -0.234546781 0.643487453 -0.735508382 -0.212017149 0.583851397 -0.767826796 -0.263741583 0.0586180985 -0.448944509 -0.891634881 -0.0908950269 -0.699360073 0.708966553 -0.944091082 -0.324926287 0.0558119453 0.019069057 -0.999560535 -0.0226962566 0.0601457469 -0.994200468 0.0891511366 0.632620573 -0.104591876 0.767366767 0.725834489 -0.104165748 0.679936647 0.589836478 -0.177171066 0.787847281 -0.0345725641 0.89460659 0.445515186 -0.0540405326 0.804157078 0.591955245 0.0186384395 0.994544327 0.102636009 -0.0299466755 -0.537150204 0.842954814 -0.466374159 -0.748598218 -0.471270502 0.00459589018 0.999767542 -0.0210643932 -0.00524192071 0.999473929 0.0320057608 0.72827667 -0.0938972235 0.678819895 0.427949548 0.00266505382 0.903798699 0.592541575 0.0238600895 0.805186391 0.560480058 0.0665970743 0.825485885 -0.172088787 -0.0152411638 -0.984963536 -0.194114074 -0.00513437483 -0.980965555 -0.286869764 0.0128220459 -0.957883775 0.235798329 -0.798619926 0.553719521 0.34289965 -0.0012965895 0.939371169 0.103931352 -0.0507514328 0.993288755 0.0944260135 -0.977994919 -0.18603684 0.0977714807 -0.993834317 -0.0522882156 0.191865876 -0.951019108 -0.242384195 0.13993302 -0.0032131162 0.990155756 0.0452027395 0.00664373813 0.998955727 0.050204806 0.0157275032 0.998615086 -0.554789901 -0.814488828 -0.169753104 -0.556091487 -0.807950318 -0.194880903 -0.512510657 -0.850199163 0.120391861 -0.501301467 -0.856078565 0.125802651 -0.901940465 -0.106266677 -0.418581814 -0.902233779 0.00666816812 -0.431195766 -0.914320588 -0.0870960131 -0.395515054 -0.723492265 0.0146377319 0.690177262 -0.726718843 0.0136814276 0.686798751 -0.756067574 0.00473112706 0.654476464 -0.763622463 0.00234845164 0.645658791 -0.500470519 -0.85705477 0.122418679 -0.192368388 -0.716147184 0.670915544 0.376727849 -0.922708511 -0.0817626342 0.273314029 -0.961224079 0.0367107838 0.34077093 -0.939315736 -0.0395113714 -0.530080736 -0.052961804 -0.846291602 -0.507080376 -0.0818322524 -0.858005226 -0.590690553 -0.0917965621 -0.801659584 -0.901643455 0.0101660481 0.432360649 -0.96256125 0.222403273 0.154959917 -0.929755688 0.068503961 0.36174798 -0.170939311 -0.0593971163 0.983489573 0.22498326 0.0649226084 0.972197294 0.438988268 -0.884484828 -0.158037707 -0.879356563 -0.281725645 -0.383878469 0.0826568156 0.418471664 -0.904460788 -0.998273849 -0.0118068429 0.0575324073 -0.998818636 0.0098302355 0.0475883558 -0.99783802 -0.0216586683 0.0620503463 -0.998878837 0.0192956254 0.0432289205 0.0974951237 -0.992650449 -0.0716920346 0.0356243812 -0.992219269 0.119296998 0.665573418 0.651554823 0.363989502 0.366686761 -0.307292163 0.878130019 0.00157048588 -0.998662829 0.0516731143 -0.042073302 0.995157599 0.0888321549 0.0265634675 0.998594999 0.0458526798 0.00421206048 0.993379116 -0.114805162 -0.456039906 0.403837293 0.793059289 -0.429689407 0.333806187 0.83901161 -0.392121971 0.242721125 0.887314379 0.374325007 0.548926473 -0.747369051 0.376004636 0.553073943 -0.743457913 0.358347684 0.510088921 -0.781918287 -0.987391293 -0.00499691861 0.158219665 -0.744282901 0.65607512 -0.124933735 -0.734629393 0.670379937 -0.104452714 -0.658017695 0.752323151 0.0319785737 0.0660702214 0.0379852839 0.997091711 0.063109979 0.994483471 0.083784312 0.00640852284 0.999783218 -0.0198096652 0.38270089 0.569746017 -0.727275431 -0.787275016 0.570322931 -0.234371126 0.698600233 -0.0669611543 0.712372065 0.696462989 -0.0749342963 0.713669538 0.694030643 -0.00539639127 0.719925225 -0.202435628 -0.000515812368 -0.979295433 0.142348513 -0.754504323 0.640671611 0.937081516 -0.0169387907 0.34869951 0.879654706 -0.0941067487 0.466209769 0.916944623 -0.0475281365 0.396173805 0.418119818 0.417530447 -0.806749105 -0.479597121 0.876401782 -0.0436641872 -0.479090363 0.876493573 -0.0472382531 -0.432683498 0.896728098 0.0930793807 0.312203288 0.0353389643 0.949357808 0.0584531762 -0.0102616753 0.998237431 0.313083559 -0.0232414622 0.949441135 -0.259439081 0.924348533 0.279769748 -0.0371901952 0.00159648445 -0.999306917 -0.0469489768 0.998857141 -0.0089549236 -0.0778469667 0.996859789 -0.014505595 0.0415515676 0.995127976 -0.0894081295 -0.129040286 0.967826426 -0.216010794 -0.0616746582 0.987690508 -0.143748924 -0.0126902917 0.996849179 -0.0782984421 0.81624943 0.108577296 -0.567404449 0.60323298 0.797113359 0.0268374588 -0.464408159 0.0964438841 0.880354285 0.099441506 0.994339287 0.0374267735 0.0375518054 0.999218881 -0.0123082483 -0.00141324149 0.999053121 -0.0434835814 0.128892243 0.989769042 0.0611889251 -0.00147708715 -0.999931335 -0.0116241099 -0.00360566936 -0.999316871 -0.0367807262 0.00882072467 -0.998438895 0.055154521 -0.349773675 0.148586601 0.924975872 0.000524229836 -0.999725521 0.0234228037 0.0154119972 -0.999569535 -0.0249636974 0.00113560597 -0.999998271 0.0014653973 -0.00893311948 0.999725163 -0.0216758959 -0.00994474813 0.999558568 -0.0279959161 0.00332525745 0.999875963 -0.0153950145 0.143588588 0.00181624712 -0.989635825 -0.940938175 0.337795734 -0.0230073519 -0.00854813028 -0.99990958 -0.0103829894 -0.00716855144 -0.99937582 -0.0345908105 -0.0163043439 -0.999675632 0.0195655003 -0.00249562552 0.00132956705 -0.999996006 -0.00825698581 -0.00909426063 -0.999924541 0.0464779027 -0.00931826606 -0.998875856 -0.535951734 0.0874080658 0.839711607 0.99628818 -0.00550450617 -0.08590471 0.0320720673 0.999483883 0.00182782242 0.00674347812 0.999880135 -0.0139357839 0.0102109518 0.999918282 -0.00769127579 -0.00396987889 0.999971449 0.00642861798 0.00349080074 0.999867678 0.0158869475 0.00549114496 0.999957383 -0.00742473593 -0.126964271 -0.0136629734 -0.991813183 0.00990007911 0.0330814011 -0.999403656 0.00661285315 0.0204706099 -0.999768615 0.160417795 0.00803658832 -0.987016499 -0.999992371 0.00354861165 -0.00165092014 0.992110431 0.114438735 -0.0511926636 -0.0289677847 -0.94532758 0.324833214 0.0394388363 0.999180913 0.00906215608 0.000992352492 -0.989587486 -0.143929064 -0.00110719725 -0.993543625 -0.113445386 9.16451245e-05 -0.998046815 -0.0624700934 -0.00337916519 0.856322587 0.516430259 -0.510048151 -0.0026701421 0.860141695 -0.505235434 0.0038727324 0.862972856 -0.506113112 -0.00222824141 0.862464249 -0.492183447 0.000151688189 0.870491505 -0.498721927 -0.00665441807 0.866736531 -0.4768444 -0.0136448406 0.878881812 0.00182346138 0.998904705 -0.0467554219 -0.0196299199 0.999652863 0.0175735075 -0.00136389339 0.999990225 -0.00420671375 0.00231581647 0.999723434 -0.0234022439 -0.000299447274 0.999984264 -0.0056007565 -0.0502164029 -0.94098407 0.334704757 -0.0379153863 -0.971410871 0.234357238 0.958696008 0.122476026 0.256713092 0.0274336375 0.00155364 0.999622405 -0.00343438657 0.00415978255 0.999985456 -0.0263803285 0.015845729 0.999526381 -0.888739049 -0.0222256426 -0.457874388 -0.0272315852 -0.105436847 -0.994053066 -0.021095315 -0.123017244 -0.992180288 0.017397197 -0.138642311 -0.990189731 -0.0373247303 -0.135073707 -0.990132272 -0.028863946 -0.156728402 -0.98721987 -0.439787596 -0.0693592653 -0.895419538 -0.315081447 -0.14486365 -0.937943637 0.231178164 0.0585181676 0.971149981 0.910884857 -0.0216234718 -0.412093729 0.911881924 -0.0186462607 -0.410028845 0.903962314 -0.0413174704 -0.425611287 0.963438332 0.0348741971 0.265650868 -0.360179305 0.131742164 0.923533916 0.917316914 -0.00167934084 -0.398154318 0.994039714 -0.000115233124 0.109018669 -0.0168048013 -0.998517454 -0.0517737679 -0.297973633 0.0649664924 -0.952360809 -0.127740324 -0.130841747 -0.983139277 -0.11343354 -0.0795589611 -0.990355074 -0.231960475 0.0640082285 -0.970616937 -0.0646665245 0.0775682032 -0.99488765 0.518577576 -0.0292049255 0.854531646 0.517374039 0.0432563499 0.854665399 0.122847363 0.702881575 0.700618327 0.579277456 0.442980945 0.684255481 -0.0270011872 0.622226119 -0.782371759 0.994893849 -0.0536288545 -0.0854998827 -0.476324826 0.0614436455 -0.877119899 -0.517718971 0.0797856376 -0.851822376 -0.56837219 0.0469528921 -0.821430743 0.0205280688 -0.131526217 0.991100132 0.00387746817 0.999677837 -0.0250832438 -0.0083864294 0.999286294 -0.0368318558</float_array>
          <technique_common>
            <accessor source="#normals_array" count="287" stride="3">
              <param name="X" type="float" />
              <param name="Y" type="float" />
              <param name="Z" type="float" />
            </accessor>
          </technique_common>
        </source>
        <vertices id="vertices">
          <input semantic="POSITION" source="#positions" />
        </vertices>
        <triangles material="scout_1a1a1a" count="216">
          <input semantic="VERTEX" source="#vertices" offset="0" />
          <input semantic="NORMAL" source="#normals" offset="1" />
          <p>0 0 1 1 2 2 3 3 4 4 5 5 4 4 3 3 6 6 7 7 8 8 9 9 10 10 11 10 12 10 13 11 14 12 15 13 16 14 14 12 13 11 17 15 16 14 13 11 18 16 19 17 13 18 8 19 16 14 17 15 19 20 20 20 17 20 21 21 22 22 23 23 24 24 25 25 26 26 27 27 3 28 28 29 29 30 30 31 1 32 14 33 31 34 15 35 32 36 33 37 0 38 18 16 34 39 19 17 18 40 35 40 34 40 17 41 20 41 10 41 12 42 18 42 13 42 36 43 16 44 37 45 36 46 37 46 34 46 34 47 37 48 19 49 11 50 18 51 12 52 9 53 10 54 12 55 38 56 39 57 27 27 40 58 41 58 42 58 14 33 34 59 31 34 43 60 39 61 44 62 45 63 39 57 46 64 44 62 39 61 45 65 47 66 45 67 48 68 47 66 44 69 45 67 48 70 45 63 46 64 46 71 49 71 48 71 47 72 49 73 50 74 47 75 51 76 49 77 52 78 47 66 48 68 49 79 52 80 48 81 51 82 52 80 49 79 52 83 51 83 53 83 50 74 49 73 46 84 50 85 46 85 53 85 54 86 53 87 46 64 55 88 56 89 54 90 55 91 57 92 44 93 56 94 52 94 53 94 53 95 51 95 50 95 56 96 50 97 51 76 56 89 53 98 54 90 38 99 58 100 57 101 38 99 55 88 54 90 57 101 55 88 38 99 59 102 60 103 61 104 62 105 38 56 27 27 63 106 38 99 62 107 64 108 65 109 66 110 67 111 63 106 62 107 62 107 68 112 23 113 69 114 68 115 70 116 71 117 69 114 70 116 20 118 72 119 11 120 73 121 23 122 69 123 69 123 23 122 68 124 71 117 70 116 74 125 75 126 71 126 74 126 76 127 75 128 77 129 78 130 77 131 75 132 16 133 36 134 14 135 79 136 80 137 39 61 76 127 77 129 25 138 8 19 17 15 10 54 9 53 8 19 10 54 20 118 11 120 10 139 18 140 72 140 35 140 81 141 43 142 82 143 81 141 83 144 43 142 65 109 82 145 43 146 81 147 65 147 84 147 85 148 81 148 84 148 84 149 65 109 43 146 81 150 85 151 83 152 81 153 82 154 86 155 64 108 82 145 65 109 81 156 66 157 65 158 64 159 66 159 84 159 66 160 85 161 84 162 57 163 43 163 44 163 86 164 58 165 85 151 81 156 86 166 66 157 86 167 85 161 66 160 86 168 64 169 87 170 60 103 59 102 42 171 58 100 87 170 57 101 23 172 63 172 67 172 80 173 79 174 88 175 19 49 37 48 20 176 89 177 73 178 90 179 91 180 71 181 75 182 90 179 92 183 89 177 60 103 42 171 41 184 90 179 91 185 92 183 92 183 91 185 93 186 91 185 94 187 93 186 26 188 95 189 96 190 24 24 26 26 97 191 97 192 94 192 24 192 52 193 56 193 47 193 37 194 35 195 72 196 7 197 35 195 37 194 0 0 28 198 29 199 0 0 40 200 28 198 31 34 5 5 6 6 5 5 4 4 6 6 64 201 86 155 82 154 63 106 58 100 38 99 31 34 6 6 15 35 15 13 80 202 98 203 3 28 80 202 6 204 6 204 80 202 15 13 13 11 15 13 98 203 98 203 12 55 13 11 3 28 27 27 39 57 99 205 30 206 32 207 0 38 2 208 32 36 14 135 36 134 34 209 59 210 78 211 68 212 99 213 32 36 2 208 1 214 99 213 2 208 9 53 12 55 98 203 100 215 60 103 41 184 3 28 39 57 80 202 29 199 1 1 0 0 16 44 8 216 37 45 101 217 26 26 25 25 35 218 88 219 34 220 34 220 88 219 31 221 88 219 79 222 5 223 5 223 31 221 88 219 102 224 95 225 103 226 103 226 59 102 102 224 33 37 40 227 0 38 99 228 1 32 30 31 17 229 13 229 19 229 51 76 47 75 56 96 68 212 27 230 40 200 27 230 28 198 40 200 46 64 39 57 54 86 39 57 38 56 54 86 55 91 44 93 50 97 50 97 56 96 55 91 44 93 47 231 50 97 59 210 103 232 101 233 101 233 78 211 59 210 59 210 68 212 42 234 68 212 40 200 42 234 63 235 22 22 79 222 79 222 22 22 5 223 22 236 21 237 28 238 28 238 21 237 30 239 30 239 29 240 28 238 3 3 22 236 28 238 3 3 5 5 22 236 39 61 83 241 79 136 100 242 23 243 60 244 23 243 96 190 102 245 60 244 23 243 61 246 102 245 96 190 95 189 61 246 23 243 102 245 43 146 57 247 87 248 9 249 35 249 7 249 23 113 67 111 62 107 71 181 90 250 69 251 90 250 73 252 69 251 20 118 37 253 72 119 40 227 33 37 100 215 74 254 78 255 75 256 74 254 70 257 78 255 68 258 78 255 70 257 78 130 101 259 77 131 101 259 25 260 77 131 7 7 37 261 8 8 9 262 88 263 35 264 39 61 43 60 83 241 59 102 61 104 102 224 98 265 80 173 88 175 11 50 72 266 18 51 9 262 98 267 88 263 101 217 95 268 26 26 43 146 87 248 84 149 87 248 64 269 84 149 22 22 63 235 23 23 58 100 86 168 87 170 41 184 40 227 100 215 91 180 90 250 71 181 63 235 79 222 58 165 79 222 83 152 58 165 83 152 85 151 58 165 96 270 73 271 89 272 93 273 96 270 92 274 89 272 92 274 96 270 25 275 24 276 75 182 76 277 25 277 75 277 75 182 24 276 91 180 24 276 94 278 91 180 23 279 73 279 96 279 95 268 101 217 103 280 93 273 94 281 96 270 26 282 96 270 94 281 26 282 94 281 97 283 62 107 27 284 68 112 33 285 32 207 21 286 32 207 30 206 21 286 21 286 23 243 100 242 33 285 21 286 100 242</p>
        </triangles>
      </mesh>
    </geometry>
  </library_geometries>
  <library_visual_scenes>
    <visual_scene id="scene">
      <node id="right_ankle_link">
        <instance_geometry url="#geometry">
          <bind_material>
            <technique_common>
              <instance_material symbol="scout_1a1a1a" target="#scout_1a1a1a" />
            </technique_common>
          </bind_material>
        </instance_geometry>
      </node>
    </visual_scene>
  </library_visual_scenes>
  <scene>
    <instance_visual_scene url="#scene" />
  </scene>
</COLLADA>