<?xml version='1.0' encoding='utf-8'?>
<COLLADA xmlns="http://www.collada.org/2005/11/COLLADASchema" version="1.4.1">
  <asset>
    <created>2026-09-14T00:00:00Z</created>
    <modified>2026-09-14T00:00:00Z</modified>
    <unit name="metre" meter="1" />
    <up_axis>Z_UP</up_axis>
  </asset>
  <library_effects>
    <effect id="scout_1a1a1a_effect">
      <profile_COMMON>
        <technique sid="common">
          <lambert>
            <emission>
              <color>0 0 0 1</color>
            </emission>
            <ambient>
              <color>0.05 0.05 0.05 1</color>
            </ambient>
            <diffuse>
              <color>0.1 0.1 0.1 1</color>
            </diffuse>
          </lambert>
        </technique>
      </profile_COMMON>
    </effect>
  </library_effects>
  <library_materials>
    <material id="scout_1a1a1a" name="scout_1a1a1a">
      <instance_effect url="#scout_1a1a1a_effect" />
    </material>
  </library_materials>
  <library_geometries>
    <geometry id="geometry" name="right_elbow_link">
      <mesh>
        <source id="positions">
          <float_array id="positions_array" count="420">-0.0378638469 -0.0274456404 0.00831374992 -0.0370811336 -0.02485024 -0.0154210366 -0.0285051223 -0.03119619 -0.0186192002 -0.0276722051 -0.0242978763 -0.027648313 -0.0157741606 -0.0243198145 -0.0370796286 -0.00977142807 -0.0313983895 -0.0328597501 -0.00460714474 -0.0275286082 -0.0383708142 -0.0287078805 -0.0307988077 0.0199263282 -0.0351742879 -0.0246720873 0.018318614 -0.0250855722 -0.0250523631 0.030363692 -0.0128758484 -0.0309732854 0.0317099839 -0.00914407428 -0.0253648534 0.0385845825 -0.0302062817 0.0298950933 -0.017959645 -0.0365623757 0.0234112777 -0.0155808534 -0.0395441093 0.0234139711 0.00615575351 -0.0338145234 0.0294605829 0.0100702439 -0.0244185533 0.0237246528 -0.0311091617 -0.00703712786 0.0304476377 -0.0318452269 -0.00770296063 0.0266660713 -0.0380263515 -0.0184901636 0.0302423369 0.0295335427 0.010419691 0.0221110377 -0.0130520342 -0.0138376579 0.0219527408 -0.00767475087 -0.0168876909 0.0228167772 -0.0117343199 -0.0345557295 0.0244421549 0.0187173598 0.283486098 0.0357012041 -0.012830358 0.273311734 0.0288252179 0.0014754578 0.284581333 0.0267354213 0.00518098334 -0.011174568 0.0217066947 0.0102566313 -0.0254126117 0.0244640037 0.0298857093 0.113786377 -0.0251066927 -0.00573103223 0.0550295003 -0.0304656271 0.00558576593 0.0543276258 -0.0304346364 -0.0291926693 -0.0133101409 0.0234755389 0.0369545184 0.00274966937 0.0222374927 0.0157104209 0.00886635017 0.0238600243 0.0387914963 0.00801720377 0.0301138833 0.0328507647 0.0376204252 -0.0248331539 -0.0392396748 0.0368122943 -0.0233341418 -0.0365415663 0.295082241 -0.0279379413 0.000142375531 0.29298681 -0.0339025892 -0.00968522113 0.30937162 -0.0215450376 -0.010534741 0.270182461 -0.0171292573 0.00645354297 0.199860975 -0.0113519346 0.00584589457 0.22584039 -0.0216721166 4.28578314e-05 0.0701944828 -0.0178616289 -0.0414909534 0.0718607381 -0.0274312813 -0.0340457745 0.273021549 -0.0363164432 -0.0165275335 0.27298221 -0.0322717503 -0.00271414756 0.104777046 -0.0198763125 -0.0383591056 0.12293601 -0.0247154497 -0.0288033783 0.204327539 -0.0258337371 -0.0119354874 0.213837773 -0.025794249 -0.0279288087 0.159371808 -0.0164645426 0.00331784994 0.0913930461 -0.0233369842 0.003660972 0.182714134 -0.0229451004 -0.0035290441 0.270654947 -0.0283245519 -0.0287640542 0.270033717 -0.0283308532 -0.00778248534 0.0539746135 0.0292086136 -0.0318263583 0.120944172 0.023770811 -0.00722137699 0.118286073 0.0238498822 -0.0290206037 0.207012892 -0.0184844825 -0.0393693224 0.270225048 -0.0221615024 -0.039527785 0.0367337279 0.0235029664 -0.0392247215 0.118330047 0.0174617395 -0.0387035757 0.27040109 -0.00984153431 -0.0464391671 0.273179114 -0.0310111009 -0.0375573784 0.270098418 0.0112056909 -0.0461443774 0.273334265 0.00198489032 -0.0545910448 0.288024217 -0.0349602215 -0.0285175163 0.274627507 -0.0174809229 -0.0504105203 0.287211567 -0.0247312803 -0.0448263474 0.287497133 -0.00895436388 -0.0531097502 0.301926851 -0.0265092701 -0.0320976898 0.3012999 -0.0139910867 -0.0450212546 0.298993766 0.00190437131 -0.0496943779 0.310349584 -0.0178466365 -0.0286728181 0.3137784 -0.00515045412 -0.0330848023 0.316165358 0.0031001328 -0.010760678 0.306806922 -0.014416744 0.00176192576 0.0131699629 -0.0311038066 0.0307274498 0.0166541748 -0.0249142386 0.0359810218 0.097214818 0.0113752885 0.00906968676 0.09961088 0.0209729113 0.00416334299 0.069429867 0.0220531411 0.0103668896 0.0490731187 0.0236829277 0.0182685591 0.0633814931 0.0287274215 0.00310350838 0.0333758332 0.0260316711 0.0262423232 0.0331207588 -0.0252418499 0.0275236629 0.0602790825 -0.0252536703 0.0124851754 0.0470203795 -0.024522312 0.0191027094 0.0708536059 -0.0205330644 0.0118397465 0.0595591776 -0.0231052004 -0.00329974433 0.0871299729 -0.0159811247 0.00989112258 0.116301708 -0.0135940975 0.00724747684 0.285662919 -0.0239006691 0.0091560185 0.273336232 -0.0206640717 0.011101922 0.270962477 -0.0073324237 0.0100663509 0.275158674 -0.00654883403 0.0174008682 0.296349674 -0.00909319147 0.0134332776 0.30761835 0.00139083038 0.00519575365 0.0387888141 0.0176529307 -0.0409600399 0.0381444208 0.0208273306 -0.034284886 0.0493693389 0.0218865015 -0.017857518 0.109077476 0.00910390634 -0.0423719399 0.210329473 -0.00788860209 -0.0439617075 0.129519865 0.0188594349 0.00215513981 0.152799666 0.0217721276 -0.0335923806 0.21399647 0.0170206167 -0.0400763266 0.215060771 0.00810989365 -0.043904148 0.20329456 0.0240322053 -0.00704174116 0.218830019 0.0246717837 -0.0289221201 0.270957738 0.0278650429 -0.0267610326 0.270614117 0.023025794 -0.0370204188 0.273152292 0.0199889112 -0.048109524 0.27287823 0.0319387726 -0.0327695012 0.270262122 0.0201929789 0.00350302644 0.270615041 0.0275680516 -0.00960725732 0.286801964 0.0325145982 -0.0325500965 0.288973749 0.0196494833 -0.0485128425 0.272684336 0.0340716206 -0.0119712045 0.298030406 0.0195515696 -0.0433439575 0.303336948 0.0279397238 -0.0217076782 0.310462296 0.0156000545 -0.0319042318 0.29752636 0.0285303257 -0.00423726439 0.307180643 0.0185650196 -0.00321485358 0.0128382407 0.0221275333 0.0106288837 0.0266800132 0.0234954637 0.031018205 0.0646537691 0.0236559678 0.010505653 0.0598558187 0.0205831639 -0.00301135005 0.072101593 0.0153868152 0.012771206 0.274432182 0.00334870745 0.0179660097 0.29009831 0.0128067583 0.0144470427 0.274104208 0.0184643604 0.0117566884 0.192325875 0.015757842 0.00276931864 0.270706445 0.00816805381 0.00966744032 0.298728704 0.0148092136 0.00876973756 0.1788605 0.00767644634 0.00581573322 0.11380896 -0.012080566 -0.0420993641 -0.009327095 0.0232806355 -0.038256865 0.0490745865 -0.0232819058 -0.0182189532</float_array>
          <technique_common>
            <accessor source="#positions_array" count="140" stride="3">
              <param name="X" type="float" />
              <param name="Y" type="float" />
              <param name="Z" type="float" />
            </accessor>
          </technique_common>
        </source>
        <source id="normals">
          <float_array id="normals_array" count="651">-0.467531532 -0.881418705 0.0671962872 -0.633419394 -0.736708641 -0.236728311 -0.383784801 -0.886630237 -0.258062214 -0.501130164 -0.664725244 -0.554083824 -0.388910204 -0.689030826 -0.611543477 -0.160007298 -0.9036538 -0.397249937 -0.0547663793 -0.79230392 -0.607663631 -0.3974711 -0.872065067 0.285515726 -0.677222967 -0.604820311 0.419000566 -0.460703373 -0.674390793 0.577017725 -0.255542517 -0.705059171 0.66150558 -0.0948354155 -0.729842424 0.67700541 -0.454651594 0.849274695 -0.268373698 -0.735771954 0.632017374 -0.243297487 -0.737699866 0.674752057 0.0225516912 -0.710668504 0.678700745 0.185244635 -0.420265377 0.736209095 -0.530446231 -0.0927209035 0.94919771 -0.300710112 -0.14455685 0.840461791 -0.522233009 -0.0606534407 0.998129427 0.00766480342 -0.0126016429 0.999913335 0.00381236407 -0.00223298767 -0.999891102 -0.0145881549 -0.13970606 -0.989155114 -0.0453253798 -0.0470900759 -0.998120368 -0.0392209291 -0.604554713 0.704912603 0.370960623 0.0968288705 0.986766875 0.13005878 -0.0527155995 0.841880441 0.537083268 0.134888887 0.751870334 0.645365 0.027877856 -0.999451876 -0.017854711 -0.162353829 -0.976763964 0.139905035 -0.184032232 -0.97100848 0.152560577 -0.0484182462 -0.998520732 0.0247385427 -0.365400344 0.65177685 0.664582193 -0.515247464 0.651223779 0.557160318 0.0741142929 -0.973314226 0.217178494 0.137488738 -0.967040539 0.214311659 0.0382347628 -0.968086839 -0.247681201 -0.0336655453 -0.997708678 0.0586859956 -0.154026851 0.674214721 0.722295105 -0.0641723201 0.995691597 0.0669335276 0.00208682334 -0.999546766 0.0300323963 0.103521682 0.690766215 0.71562928 0.0695592389 0.896397829 0.437758446 0.0427202955 -0.822729886 -0.566824913 0.00233521848 0.380283862 -0.924866855 0.406529605 -0.737927079 0.538699687 0.340880483 -0.915045142 0.215622157 0.810730159 -0.556228936 0.182554096 -0.0266891252 -0.573968351 0.818442464 -0.0157530829 -0.269860804 0.962770462 -0.0483221188 -0.771878302 0.633931279 0.0111939423 -0.315005988 -0.949023664 0.0676667988 -0.821500778 -0.566178083 0.0128094358 -0.998647273 0.0503938049 0.0249857325 -0.891713917 0.451909244 0.0616915487 -0.652787149 -0.755025268 0.0254185535 -0.966748059 -0.254464358 -0.0141052902 -0.986777663 0.16146493 -0.0330883078 -0.960034668 -0.277918339 0.0176564287 -0.675147057 0.737471819 0.170666233 -0.705430388 0.6879251 -0.00495258579 -0.863258541 0.504737735 -0.0467654541 -0.965324044 -0.256831646 -0.0315334275 -0.948936343 0.313887715 0.055864349 0.929762423 -0.363896966 0.0553129278 0.975884378 0.211163789 0.0406820066 0.957929015 -0.284107268 -0.021216372 -0.650526464 -0.759187162 -0.0403303355 -0.708603382 -0.704453528 0.0344988108 0.640794098 -0.766937256 0.0176163986 0.635864079 -0.771599948 -0.0380283669 -0.243060037 -0.969265521 -0.908577442 -0.401897699 -0.113864861 -0.73852849 -0.371755987 -0.562470615 -0.899106741 -0.365695685 -0.240569696 -0.904901147 -0.394427538 0.159940168 -0.928371191 -0.3715446 -0.00903049577 -0.85669446 -0.180462733 -0.483226448 -0.889390051 0.160391659 -0.428088665 -0.908962369 -0.00542460475 -0.416842818 0.219876885 -0.940038323 -0.260733843 -0.0180438869 -0.859927297 -0.510097504 -0.898203135 -0.373121142 0.232404366 -0.862978339 -0.24885264 -0.439705342 0.21061115 -0.666675568 -0.714973211 0.00361595652 -0.46567902 -0.884946287 0.202558637 -0.206070721 -0.957342625 0.58988291 -0.726822436 -0.351805866 0.585046291 -0.370160729 -0.721596718 0.520490527 0.085153006 -0.849610865 0.85492301 -0.462192744 -0.235551387 0.920584202 -0.102983303 -0.37672165 0.979661882 0.0923685208 0.178131148 0.741671205 -0.374290407 0.556624174 0.110905699 -0.905698001 0.409159034 0.216172889 -0.699678957 0.68096894 0.124239266 0.202307001 0.971409559 0.151790723 0.671930254 0.724892616 0.199204296 0.695501328 0.690358996 0.397418708 0.681480348 0.61452657 0.143142775 0.955806017 0.256797612 0.378710538 0.636116028 0.67226088 0.314131409 -0.753412008 0.57766062 0.237629384 -0.818259001 0.523435295 0.365135789 0.657678485 0.658889055 -0.10744185 0.984461606 0.138894051 -0.396318138 0.907136798 0.141544014 -0.0981784984 0.992658496 0.0706401989 0.230773345 -0.362110525 0.903116643 0.160242453 -0.285791457 0.944799244 0.0581756048 -0.48066774 0.874970913 0.160850495 -0.641829908 0.749787629 -0.0222473983 -0.576009989 0.817139864 -0.881758988 -0.238018408 0.407244831 -0.87888968 -0.249434575 0.406614393 -0.0500911884 -0.150613919 0.987322807 -0.871172965 -0.0869322941 0.483218879 -0.858963132 -0.100218959 0.502133906 0.426155776 -0.224449039 0.876363993 0.140871659 -0.201848179 0.969232917 0.754859746 0.0560626313 0.653485835 0.0714800507 0.0916136652 -0.993225813 -0.933376193 -0.350621998 0.0766358972 -0.994422853 -0.0914720073 -0.0524976961 -0.987005353 -0.158624038 -0.0256689787 -0.82202661 0.0203246716 0.569086254 -0.736916602 0.483558595 0.472361118 -0.797031522 0.29779017 0.525415778 0.00187859091 0.180245519 -0.983619869 -0.0285392329 -0.189704463 -0.981426358 -0.0349605344 0.325919926 -0.944750726 0.0433447659 0.730124712 0.681937754 -0.00666680932 0.840088606 -0.542408228 -0.0265417304 0.634355187 -0.772585988 -0.033903487 0.202053115 -0.978787541 -0.0246529244 0.942056239 0.334547818 -0.0378902443 0.957212865 -0.286893487 -0.0515586697 0.978106499 -0.201616868 -0.0332244746 0.785751104 -0.617649794 -0.902283728 0.258236557 -0.345250517 -0.906194985 0.332986861 -0.260634691 -0.939185143 0.33808288 -0.060260158 -0.935111582 0.330145627 -0.128725171 -0.0359539054 0.689170301 0.723706841 -0.0455271602 0.968014777 0.246727958 0.191404656 0.904512703 -0.381078839 0.210658863 0.528983533 -0.822070122 -0.012860477 0.58890146 -0.808102489 -0.894118488 0.372599244 0.248439014 -0.943401396 0.328184396 0.0478409939 -0.932875216 0.340826631 0.116537526 -0.856204748 0.33724153 0.391384125 -0.136058405 0.979653478 0.147537112 -0.0508196503 0.91690141 -0.395865083 0.54173249 0.549263716 -0.636266649 0.639908373 0.763185859 -0.0898028016 0.839380383 0.418027431 -0.347409904 0.465783983 0.796458125 0.385616034 0.775682867 0.504053891 0.379797071 0.0181896947 -0.999592483 0.022000758 0.360230356 0.514404535 0.778217196 0.273051262 0.814843774 0.511343956 -0.332013518 -0.887480974 0.319600612 -0.618553519 -0.689743161 0.376358777 -0.590544701 -0.715956151 0.372375786 -0.782822013 0.00127373217 0.622244418 -0.79468447 -0.00557483966 0.606997132 -0.663846195 0.00367137277 0.747860074 -0.294374734 -0.904015481 0.309999228 0.177387148 0.226858944 0.957637072 0.125536412 0.121268414 0.984649479 0.273023576 0.333258897 0.902439296 -0.0124562141 0.540498137 0.841252983 -0.00839257799 0.5842821 0.811507225 -0.890507579 0.0238654241 0.454342008 -0.879260659 0.130539492 0.458104938 -0.85405004 0.241086259 0.46095112 0.53565073 0.411775619 0.737237513 -0.0654176772 0.863829553 -0.499518842 0.814601362 -0.0383314975 -0.578753293 0.00444879755 0.183974102 0.982921004 -0.00395365059 -0.227587596 -0.973749578 -0.15864107 0.142629027 -0.976980031 -0.271398127 0.194384575 -0.94263339 -0.407713979 0.255291283 -0.876695871 0.00309275906 -0.999963343 0.00798258092 0.0231050197 -0.998489857 0.0498408712 0.0221419334 -0.998930216 0.0405980647 0.00318794325 -0.997002006 -0.0773101822 -0.0247688517 -0.999037027 -0.0362143144 -0.0266323555 -0.999478638 -0.0182519034 -0.0355043337 -0.998824418 -0.0330030583 0.0113142189 -0.997832 0.0648325682 0.0213192292 -0.99839282 0.0525096282 -0.00819176529 0.160071328 -0.987071455 0.0522627085 -0.0253606085 0.998311281 0.0471270308 0.998857379 -0.00793754775 0.024387734 0.999700606 -0.00197633356 -0.0171881057 0.999671996 0.0189871751 -0.00619775336 0.999910474 0.011858697 -0.787555039 0.61486125 0.0412634015 -0.000747578277 0.999866605 0.0163164418 -0.00611791248 0.999871194 0.0148388557 -0.00111084734 0.999789238 0.0204998944 -0.0212256778 0.999549747 0.0212090369 0.0134013277 0.999419332 0.031328246 -0.0468238555 0.998507559 0.0281102806 -0.00810739212 0.998738587 0.0495533869 -0.824738443 0.000856724393 0.56551373 -0.811369061 -0.00118673069 0.584533036 -0.829595387 -0.000337194739 0.558364868 -0.0606464818 -0.0387196653 -0.997408032 -0.0500993319 0.235893458 0.970486641 -0.949949205 0.0444571041 -0.309225023 -0.958147466 0.0417289212 -0.28321746 -0.00832364708 -0.999940753 0.00701350579 -0.0213206541 0.078094691 -0.99671793</float_array>
          <technique_common>
            <accessor source="#normals_array" count="217" stride="3">
              <param name="X" type="float" />
              <param name="Y" type="float" />
              <param name="Z" type="float" />
            </accessor>
          </technique_common>
        </source>
        <vertices id="vertices">
          <input semantic="POSITION" source="#positions" />
        </vertices>
        <triangles material="scout_1a1a1a" count="276">
          <input semantic="VERTEX" source="#vertices" offset="0" />
          <input semantic="NORMAL" source="#normals" offset="1" />
          <p>0 0 1 1 2 2 2 2 1 1 3 3 2 2 3 3 4 4 5 5 2 2 4 4 5 5 4 4 6 6 7 7 8 8 0 0 7 7 0 0 2 2 9 9 8 8 7 7 10 10 9 9 7 7 11 11 9 9 10 10 12 12 13 13 14 14 15 15 12 12 14 14 12 12 16 16 13 13 12 12 17 17 18 18 15 19 19 20 12 12 20 21 21 22 22 23 23 24 15 15 14 14 24 25 25 26 26 27 27 28 22 23 21 22 28 29 23 30 14 31 19 32 23 24 28 33 15 15 23 24 19 32 29 34 30 35 31 36 32 37 28 29 14 31 19 32 28 33 32 38 27 39 33 39 22 39 33 40 27 28 21 22 19 32 32 38 34 41 35 42 19 32 34 41 36 43 5 5 6 6 4 44 37 44 6 44 31 36 5 5 36 43 38 45 39 46 40 47 41 48 42 49 43 50 44 51 45 52 36 43 46 53 39 46 47 54 44 51 48 55 45 52 45 52 48 55 49 56 50 57 49 56 51 58 18 18 16 16 12 12 52 59 53 60 29 34 54 61 29 34 50 57 51 58 55 62 56 63 57 64 58 65 59 66 51 58 60 67 61 68 62 69 57 64 63 70 56 63 43 50 50 57 56 63 50 57 51 58 55 62 51 58 61 68 64 71 61 68 60 67 55 72 61 73 65 74 56 75 55 72 46 76 61 73 64 77 65 74 64 77 66 78 67 79 68 80 46 53 65 81 47 82 56 75 46 76 39 46 46 53 68 80 65 74 64 77 69 83 68 80 65 81 70 84 46 76 55 72 65 74 67 79 69 83 64 77 69 85 71 86 70 84 72 87 68 80 70 84 70 84 73 88 72 87 39 46 68 80 72 87 40 47 39 46 72 87 71 86 73 88 70 84 71 86 74 89 73 88 75 90 40 47 72 87 74 89 76 91 73 88 73 88 75 90 72 87 76 91 75 90 73 88 76 91 77 92 40 47 77 92 78 93 40 47 11 11 10 10 79 94 80 95 11 11 79 94 81 96 82 97 83 98 84 99 85 100 86 101 80 95 79 94 87 102 88 103 79 94 30 35 88 103 87 102 79 94 89 104 87 104 88 104 88 105 90 106 91 107 88 103 30 35 53 60 90 108 88 103 53 60 53 60 30 35 29 34 92 109 90 108 53 60 93 110 92 109 53 60 93 110 53 60 52 59 52 59 54 61 43 50 42 49 52 59 43 50 47 54 94 111 95 112 41 48 43 50 56 63 95 113 56 75 47 82 41 114 56 75 95 113 96 115 42 49 41 48 96 116 41 114 95 113 94 111 47 54 39 46 97 117 96 116 95 113 98 118 97 119 94 111 94 111 39 46 38 45 98 118 94 111 38 45 78 93 98 118 38 45 40 47 78 93 38 45 99 120 98 118 78 93 77 92 99 120 78 93 57 64 62 69 18 18 69 85 67 121 71 86 62 122 100 123 101 124 102 125 62 126 101 127 62 69 63 70 103 128 104 129 66 130 64 71 57 64 59 66 63 70 85 100 82 97 58 65 82 97 105 131 58 65 59 66 106 132 63 70 63 70 107 133 103 128 103 128 107 133 108 134 105 131 109 135 58 65 108 134 107 133 66 130 110 136 111 137 112 138 113 139 67 79 66 78 112 140 113 139 66 78 111 141 114 142 112 140 109 135 115 143 116 144 67 121 74 89 71 86 114 142 113 139 112 140 117 145 118 146 113 147 25 148 119 149 116 150 25 148 116 150 115 151 119 149 114 142 111 141 119 152 24 25 114 153 25 26 24 25 119 152 120 154 74 89 118 146 117 145 120 154 118 146 117 145 121 155 120 154 120 154 121 155 122 156 26 27 123 157 24 25 24 25 121 155 117 145 24 25 123 157 121 155 120 154 122 156 74 89 122 156 76 91 74 89 124 158 99 120 77 92 122 156 121 155 77 92 123 157 124 158 121 155 121 155 124 158 77 92 125 159 33 40 20 21 86 101 35 42 34 41 86 101 34 41 126 160 86 101 126 160 84 99 86 101 85 100 35 42 84 99 127 161 85 100 127 162 102 163 128 164 83 165 90 166 129 167 83 168 127 162 128 164 127 161 83 98 85 100 129 169 81 96 83 98 83 98 82 97 85 100 49 56 48 55 60 67 130 170 131 171 132 172 109 135 133 173 115 143 74 89 67 121 118 146 130 174 134 175 96 116 132 176 134 175 130 174 97 117 130 174 96 116 132 176 115 151 134 175 132 176 25 148 115 151 132 172 26 27 25 26 52 59 29 34 54 61 99 120 131 171 98 118 135 177 131 171 99 120 131 171 130 170 98 118 135 177 26 27 131 171 26 27 135 177 123 157 123 157 135 177 124 158 124 158 135 177 99 120 20 21 33 40 21 22 105 131 82 97 81 96 6 178 37 178 36 178 97 119 98 118 130 170 51 58 49 56 60 67 102 179 83 179 128 179 109 135 110 136 58 65 133 173 105 131 136 180 81 96 136 180 105 131 103 128 108 134 104 129 104 129 137 181 103 128 114 153 24 25 117 145 18 182 138 183 16 184 29 34 49 56 50 57 60 67 137 181 104 129 36 43 45 52 31 36 57 64 18 18 17 17 17 17 12 12 19 20 43 50 54 61 50 57 116 144 110 136 109 135 102 185 127 186 84 187 102 185 84 187 20 21 62 188 102 185 138 189 102 185 20 21 138 189 20 21 22 23 138 189 22 23 13 190 16 191 138 189 22 23 16 191 14 31 13 190 22 23 14 31 22 23 33 40 32 37 14 31 33 40 34 192 32 37 33 40 34 192 33 40 125 159 34 192 125 159 126 193 64 71 60 67 104 129 103 128 44 51 100 194 75 90 76 91 40 47 42 49 136 180 93 195 110 136 59 66 58 65 52 59 42 49 93 110 110 136 112 138 107 133 17 17 35 42 57 64 137 181 48 55 44 51 8 196 9 197 1 198 9 197 11 199 1 198 0 200 8 200 1 200 1 198 11 199 3 201 3 201 11 199 4 202 11 199 80 203 4 202 37 204 4 202 80 203 80 203 87 205 37 204 37 204 87 205 139 206 139 206 87 205 89 207 139 206 89 207 91 107 91 107 89 207 88 105 139 208 91 209 102 125 37 210 139 208 102 125 91 209 90 166 83 165 83 165 102 125 91 209 102 125 101 127 37 210 76 91 122 156 77 92 79 94 31 36 30 35 116 150 119 149 111 141 57 64 35 42 85 100 44 51 36 211 100 194 103 128 100 194 62 69 104 129 108 134 66 130 85 100 58 65 57 64 110 136 106 132 59 66 49 56 31 36 45 52 69 85 70 84 65 81 106 132 107 133 63 70 107 133 106 132 110 136 125 159 20 21 84 187 84 187 126 193 125 159 90 108 81 96 129 169 95 112 94 111 97 119 31 36 49 56 29 34 134 212 42 49 96 115 37 213 101 124 36 214 36 214 101 124 100 123 116 144 111 137 110 136 67 121 113 147 118 146 66 130 107 133 112 138 5 5 79 94 2 2 2 2 79 94 10 215 10 215 7 7 2 2 17 17 19 20 35 42 113 147 114 153 117 145 137 181 60 67 48 55 81 96 92 109 93 195 136 180 81 96 93 195 109 135 105 131 133 173 5 5 31 36 79 94 103 128 137 181 44 51 62 216 138 183 18 182 133 173 136 180 115 143 131 171 26 27 132 172 136 180 134 212 115 143 81 96 90 108 92 109 42 49 134 212 136 180</p>
        </triangles>
      </mesh>
    </geometry>
  </library_geometries>
  <library_visual_scenes>
    <visual_scene id="scene">
      <node id="right_elbow_link">
        <instance_geometry url="#geometry">
          <bind_material>
            <technique_common>
              <instance_material symbol="scout_1a1a1a" target="#scout_1a1a1a" />
            </technique_common>
          </bind_material>
        </instance_geometry>
      </node>
    </visual_scene>
  </library_visual_scenes>
  <scene>
    <instance_visual_scene url="#scene" />
  </scene>
</COLLADA>