<?xml version='1.0' encoding='utf-8'?>
<COLLADA xmlns="http://www.collada.org/2005/11/COLLADASchema" version="1.4.1">
  <asset>
    <created>2026-09-14T00:00:00Z</created>
    <modified>2026-09-14T00:00:00Z</modified>
    <unit name="metre" meter="1" />
    <up_axis>Z_UP</up_axis>
  </asset>
  <library_effects>
    <effect id="scout_1a1a1a_effect">
      <profile_COMMON>
        <technique sid="common">
          <lambert>
            <emission>
              <color>0 0 0 1</color>
            </emission>
            <ambient>
              <color>0.05 0.05 0.05 1</color>
            </ambient>
            <diffuse>
              <color>0.1 0.1 0.1 1</color>
            </diffuse>
          </lambert>
        </technique>
      </profile_COMMON>
    </effect>
  </library_effects>
  <library_materials>
    <material id="scout_1a1a1a" name="scout_1a1a1a">
      <instance_effect url="#scout_1a1a1a_effect" />
    </material>
  </library_materials>
  <library_geometries>
    <geometry id="geometry" name="right_knee_link">
      <mesh>
        <source id="positions">
          <float_array id="positions_array" count="411">-0.00976784248 -0.0165296756 -0.413229704 -0.010212725 -0.0238807648 -0.404190302 -0.0149069643 -0.0154017229 -0.39769727 -0.000112917645 -0.0242033545 -0.397299111 -0.00158592465 -0.0227880422 -0.40116474 -0.00368472072 -0.0236006584 -0.343012542 -0.00288001029 -0.0179260746 -0.29661867 -0.00201812363 -0.0143334307 -0.38212043 0.00183064549 -0.0155956373 -0.398269296 -0.0519541316 -0.0347959921 -0.132154688 -0.0402458608 -0.0148114404 -0.1403272 -0.039273724 -0.035145808 -0.140587717 -0.0556346029 -0.0121785952 -0.131131589 -0.0512745418 -0.0350800455 -0.0990654752 -0.0552889667 -0.0135629093 -0.0983804613 -0.0493212752 -0.0148151359 -0.114572927 -0.0515919551 0.0010918763 -0.139042109 -0.0475469716 -0.0120373107 -0.145566046 -0.0510423817 0.000150180538 -0.0898877606 -0.0438975319 -0.0126906037 -0.0804304481 -0.029529715 -0.0146464417 -0.15900363 -0.0382504873 -0.0145637076 -0.0876937062 -0.0281006303 -0.0160188209 -0.0719870478 -0.0273915082 -0.0348080695 -0.0736055672 -0.0156883523 -0.00844444986 -0.0636285916 0.00350891473 -0.0132630104 -0.0645872355 -0.0273556747 -0.0347711891 -0.157668814 -0.000627504953 -0.0167331751 -0.155817255 0.0075401119 -0.0348207206 -0.156940773 -0.00566183729 -0.01818626 0.00228805235 -0.0163071547 -0.0179167185 -0.00542234583 0.00213673781 -0.0180018526 -0.00658100378 -0.0201087594 -0.016544437 -0.155862868 -0.000811483362 -0.0138169397 -0.16698277 4.67238424e-05 -0.00728061004 -0.174768418 0.0169308428 -0.0173667669 0.0477761254 -0.0149102705 -0.0166747365 0.0083920015 -0.00569232274 0.0182670169 -0.00225772103 -0.000775269174 0.0185136832 0.0066932505 0.0506303124 0.0154016539 -0.380393654 0.0506914742 -0.015619101 -0.378125429 0.0388315096 -0.0140564386 -0.374648362 -0.0147911506 0.017468337 -0.398049682 -0.00987366773 0.0235115439 -0.408270508 -0.0107153971 0.015475695 -0.411636084 -0.00173702277 0.0155492779 -0.401851207 -0.00213929615 0.0244407654 -0.401573628 3.52199131e-05 0.0206237845 -0.398536086 -0.00115443452 0.0241807997 -0.342983633 -0.00548881432 0.0186729915 -0.322964877 -0.043743398 0.0391832627 -0.14965491 -0.0263699014 0.0388324708 -0.161120176 -0.0258405264 0.0133926114 -0.161024272 -0.0366752967 0.0476431772 -0.125961512 -0.0314348973 0.0410430841 -0.137272775 -0.038257163 0.0405398943 -0.102330394 -0.0352687351 0.0476964936 -0.101880342 -0.0265940726 0.0389624871 -0.0695801005 -0.0225106776 0.0107051115 -0.067767784 0.00175402069 0.0125341956 -0.0655110478 -0.0204130914 0.0474965498 -0.143269539 -0.0180641077 0.0472268797 -0.0864411741 -0.0186303519 0.0405882932 -0.0854540244 -0.00126091531 0.0110193044 -0.167536616 -0.000385832856 0.0066286521 -0.174609303 0.00217548246 0.026901383 -0.162860021 0.00405834382 0.0083390167 -0.0542540736 -0.0161625128 0.0167415142 0.00632401044 -0.0157209542 0.0172310341 -0.00704815658 0.00439732429 -0.00808164291 -0.0541981347 0.00622980855 0.0242786184 -0.0523220897 0.00556603074 0.018171031 -0.00362142222 -0.00405461108 0.0439024009 -0.143414184 0.0100579606 0.0410403498 -0.138185844 -0.000585177389 0.0406866781 -0.0858037025 0.000136515882 0.0472772494 -0.0868504122 0.00672594178 0.0476107746 -0.139919773 0.00233267946 -0.0182847697 0.00564267766 0.0018775363 0.0179024264 0.0291065685 -0.000395882322 -0.0153608164 -0.402748585 0.00266713044 -0.0240129214 -0.399985969 0.0441074818 -0.0239828732 -0.409196317 -0.00140642782 0.0138404043 -0.380852729 0.0501184613 -0.0158134773 -0.410244197 0.0459472202 -0.0235905033 -0.349285096 0.047026705 -0.0186194424 -0.297892362 0.0005460307 -0.017289279 -0.214113325 0.0032931834 -0.0276732147 -0.160059065 0.0119821606 -0.0287952367 -0.150970697 0.0305449944 -0.0351148248 -0.131542608 0.00229574437 -0.0168224573 -0.0738483295 0.00695888232 -0.0280763712 -0.0705341846 0.0326850936 -0.0280859917 -0.0976668522 0.00637155958 -0.0348972492 -0.0741975754 0.00627563056 -0.0239170548 -0.0518894196 0.0311432332 -0.0347948186 -0.0975067616 0.0330204703 -0.0284182038 -0.132862091 0.000102612918 -0.0179756805 -0.0270423926 0.000147087761 0.0177848265 -0.0276726652 0.0268266089 0.0170191079 0.0455859415 0.0282273144 -0.0179674756 0.0427474156 0.00258623483 0.0241027046 -0.400055021 0.00295644812 0.0153963361 -0.399717331 -0.00190923747 0.0173762944 -0.281360656 0.0459140278 0.0237461664 -0.407823831 0.0459511317 0.0235456768 -0.33853209 0.0503853485 0.0160688348 -0.411360353 0.0470031984 0.0182275269 -0.289493263 0.000489777303 0.0177978855 -0.212112233 0.04807337 0.0246972255 -0.178753346 0.00617553666 0.0275993682 -0.0690154508 0.00789667293 0.0390720814 -0.159592524 0.0168793742 0.0471879579 -0.124945901 0.0147981476 0.0409875438 -0.0974713564 0.0161903705 0.047629565 -0.103183918 0.0170972012 0.0399355441 -0.0751637518 0.00308521627 0.0392105319 -0.0686128289 0.0219679829 0.0285646915 -0.0778934211 0.0333348624 0.0393924788 -0.137485325 0.0337138698 0.0390950665 -0.0950949043 0.0359410048 0.0283089206 -0.0973582119 0.0355284885 0.0281395204 -0.134980768 0.0128642945 0.0151069239 0.0449648239 0.0472342968 -0.017295327 0.00850637071 0.0471055917 0.017496882 0.00830518827 -0.0537467226 0.0391696505 -0.135448277 0.0206291899 0.0284341667 -0.153393 0.0484297127 -0.0173729043 -0.213271394 -0.0546054803 0.0387730971 -0.0964555964 -0.0415429436 0.0397803523 -0.0784362257 0.0482664369 -0.0180977117 -0.030654639 0.0474086553 -0.0258063525 -0.173442349 0.0477500409 -0.0259300768 -0.0593767762 0.0481874086 0.017451765 -0.213969126 0.0466846488 0.0263903495 -0.0602430478 0.0377279297 0.0142639987 -0.374858767 0.0482462384 0.0182616003 -0.0320773572</float_array>
          <technique_common>
            <accessor source="#positions_array" count="137" stride="3">
              <param name="X" type="float" />
              <param name="Y" type="float" />
              <param name="Z" type="float" />
            </accessor>
          </technique_common>
        </source>
        <source id="normals">
          <float_array id="normals_array" count="1074">-0.914467752 -0.290748 -0.28145051 -0.907230616 -0.397974432 -0.136194557 -0.948990464 -0.313150048 0.0367985032 0.0191543885 -0.998257399 -0.0558144413 0.038772773 -0.993888915 -0.103351243 0.256701857 -0.871885121 -0.417037755 -0.82136488 -0.564188719 0.0839688927 -0.996381938 -0.026802348 0.080651395 -0.836704195 0.493253082 -0.237965301 -0.538233757 -0.0291145109 -0.842292607 -0.709030569 -0.0357675403 -0.704270065 -0.718368113 -0.0492974184 -0.693914235 -0.518163204 -0.0456860177 -0.854060709 -0.990340471 -0.0103534013 -0.138269693 -0.929784656 -0.162960455 -0.330067307 -0.99844718 -0.0549961366 0.00886983518 -0.860810041 -4.67592909e-05 -0.508926332 -0.747104406 -0.0144591443 -0.66454947 -0.97286427 0.00273642642 -0.231360361 -0.253368735 -0.955238521 -0.15272063 -0.254082382 -0.955209732 -0.151711792 -0.2535007 -0.955233335 -0.152534187 -0.300662309 -0.953008473 -0.0371084362 -0.84355092 -0.0112939291 0.536930382 -0.965016901 -0.0169574562 0.261638731 -0.676575303 -0.0341810137 0.735579669 -0.252816707 -0.9552598 -0.153500512 -0.194834441 -0.975710452 0.100143403 -0.145172834 -0.979489982 0.139729127 -0.188722953 -0.976393223 0.10507106 -0.840615928 -0.0778966099 0.536000907 -0.709866941 -0.0192208737 0.704073489 -0.786623359 0.00769997062 0.617385089 -0.238575727 -0.968986154 0.0644012094 -0.469942361 -0.00489772996 0.882683516 -0.49003315 -0.145430535 0.859486759 -0.138801798 -0.693614185 0.706847548 -0.0798113272 -0.773350716 0.628934681 -0.113347091 -0.877469957 0.466046035 0.102688238 0.0508453175 -0.99341327 0.0155805973 0.0792257264 -0.996734917 0.0209063906 0.0713841766 -0.997229755 -0.0371918529 -0.999092042 0.0207804292 -0.041646257 -0.998938739 0.0196724031 0.0031668134 -0.999957442 -0.00866740383 -0.0588229373 -0.941119075 -0.332918584 -0.099406749 -0.887457848 -0.450041026 -0.104062892 -0.85725987 -0.504258335 -0.157633707 -0.747679174 -0.645079374 -0.00878267176 -0.967541337 -0.252560079 -0.0454814285 -0.998170912 0.0398275368 -0.149409831 -0.983341873 0.103515662 0.87561959 -0.0590468943 -0.479378581 -0.365211099 -0.0351532176 -0.930260777 -0.289162964 -0.0703767315 -0.954689443 -0.0940080062 -0.0243112873 -0.995274544 -0.923261046 0.22662966 -0.310206443 0.843235373 0.0548439361 -0.534739435 -0.693776429 0.71520102 0.0846269578 -0.649205685 0.757390678 0.0699378997 -0.69683665 0.712083638 0.0857648104 -0.124828048 0.992157102 0.00650054216 -0.0560019538 0.9973104 -0.0472838581 -0.0649986938 0.995887399 -0.0631150529 -0.628905237 0.773689508 0.0766991228 -0.00589444907 -0.999965012 -0.00593338162 -0.00296924589 -0.999991715 0.0027789548 -0.0328287743 -0.999429703 -0.00790519733 -0.69253099 -0.00114120624 -0.721387208 -0.308543891 0.0232347492 -0.950926304 -0.410940409 0.0301322751 -0.911164105 -0.897422671 -0.402328432 -0.181009278 -0.922661364 0.381945223 0.0530461818 -0.319509655 0.0287812594 0.94714582 -0.365561485 0.0333668664 0.930188954 0.000725784048 0.0854865238 0.996339083 -0.622320235 0.515458524 -0.589084089 -0.644083142 0.176218688 0.744381547 -0.647429228 0.224551752 0.728293836 -0.646746874 0.212455615 0.732517004 -0.643167615 0.166013926 0.7475124 -0.0593250059 0.844799936 -0.531783402 0.0620953478 0.167871222 -0.983851314 -0.213965908 0.31824106 -0.923548162 -0.10374672 0.924851358 0.365905136 0.747539937 0.0828076974 0.659034789 -0.115183279 0.992710173 0.0354866013 -0.0512878299 0.998417497 0.0230674855 -0.073859252 0.997236907 -0.0079611782 -0.557926714 -0.00253262185 0.829886377 -0.761141419 -0.0217361394 0.648221672 -0.688905537 -0.0030107135 0.724844933 -0.0675127134 0.994982243 -0.073839806 -0.00352973468 0.999835312 -0.017801553 -0.0261394382 -0.856583655 -0.515345633 -0.0101569965 -0.888422251 -0.458914757 -0.0920726359 -0.680233836 -0.727189481 -0.12793 -0.549019516 -0.825960934 0.0210408345 0.152538016 0.988073587 0.0191241559 0.147495463 0.988877833 0.0183747895 0.14552319 0.989184201 0.0217827763 0.154489204 0.987754345 0.103573389 0.50586623 -0.856371343 0.386876076 0.05894747 -0.920245707 -0.0233157147 0.998089254 0.0572211929 -0.19634752 0.234490007 0.952083051 -0.059657529 -0.773016393 -0.63157475 -0.88516891 -0.175818756 0.430771142 0.168899819 0.0244761389 -0.98532927 0.179519787 0.04032984 -0.982927322 0.0510737188 -0.163942933 -0.985146761 0.80800873 -0.588836551 -0.0198328793 0.888244748 -0.458940566 0.0198717751 0.804009676 -0.594252408 -0.020797465 0.842941701 -0.53793633 -0.00858903956 0.656203747 -0.75458169 0.00175526447 -0.976134062 -0.215404972 -0.0276213884 -0.999731958 -0.021599967 0.00833689142 -0.919744134 -0.369134873 0.133454904 -0.942781568 -0.333192319 -0.0120751429 -0.876327336 -0.41129294 0.250775814 0.72838527 0.129633427 -0.672792733 0.724444091 0.135586038 -0.675867736 0.730619073 0.0832416564 -0.677692115 0.637128234 -0.304841012 -0.707912147 -0.970912993 -0.207797959 0.118945263 -0.911881447 -0.293280989 0.287155896 -0.908983052 -0.232212469 0.34616071 0.680251479 -0.177864254 0.711071134 0.666075468 -0.396624595 0.631690145 0.66970259 -0.371432692 0.643067837 -0.978905737 -0.160226196 0.126771942 -0.196030617 -0.870720506 0.451018691 0.678949773 -0.138836503 0.720937967 0.611254454 -0.364386857 -0.70255971 0.943212032 -0.332046539 -0.00980623346 0.974588215 -0.223713905 0.0113984775 0.970735252 -0.240010202 0.00825472176 0.0310519356 -0.0601230897 0.997707844 0.044807151 -0.0350842811 0.998379409 0.0609719902 -0.00553690549 0.998124123 -0.640549362 -0.0188813936 0.767684817 -0.906771362 -0.00773558207 -0.421551734 -0.794084013 -0.0117838066 -0.607693791 -0.908741355 -0.0062449621 -0.41731295 0.0523674823 0.048461467 0.997451305 0.303477257 -0.0266699195 0.952465355 0.403425932 -0.0579363108 0.913176239 -0.343453348 -0.023565894 0.938874006 -0.308494747 -0.0436213613 0.950225294 -0.379820377 -0.00228070817 0.925057471 -0.41333127 0.0177356303 0.91040796 -0.455644369 -0.0538375862 -0.888532341 -0.625790715 0.776078105 0.0780306533 -0.970670462 -0.00305068376 -0.240394562 -0.970682383 -0.00308055733 -0.240346119 0.864325523 0.502931833 0.000992353191 0.912108421 0.409336239 0.0224072002 0.865562379 0.500799477 0.00128652761 0.875246167 0.483655512 0.00463172561 0.615589917 0.788066685 6.4269756e-05 -0.00119267113 0.995110214 -0.098763451 -0.0113111092 0.985493183 -0.169337794 0.0293038841 0.988680601 -0.147145927 -0.977001786 0.213147953 -0.00595819997 -0.999872029 0.0156403761 0.00335360062 -0.99258399 0.119773224 -0.0207696017 -0.967132628 0.21352084 0.138070107 -0.968229115 0.19913739 0.151250243 -0.96623522 0.103004605 0.236176923 -0.953738153 0.294252634 0.061635375 0.0482251607 0.996515572 -0.0680518821 0.0208996534 0.995352745 -0.0940009058 -0.0631055087 0.99524349 -0.0742162541 0.332053214 -0.0796443149 -0.939892232 0.801530778 0.265021205 -0.536015034 0.643728971 0.362746388 0.673816025 0.6192981 0.138610646 0.772823989 0.602450013 0.0604280382 0.795865834 0.643717289 0.416965961 0.641691029 0.582637668 0.0840404034 0.808375239 0.213283211 0.100526311 0.971804857 0.437430501 0.0685805082 0.896633327 0.68232739 0.0930807218 0.725096762 0.788115978 -0.610553384 -0.0780879855 0.942477107 -0.334246397 -0.00403853552 0.756500423 -0.647920609 -0.0889158696 0.0857970044 0.99335593 0.0766999349 0.07703159 0.996516526 -0.0319521278 0.983718276 -0.176330939 0.0347235948 0.79952085 0.0804907009 0.595220685 0.811800361 0.0454634465 0.582162619 0.981367111 0.191972077 -0.00808171835 0.979421139 0.201538086 -0.0107978713 0.978787541 0.204546213 -0.0116529781 -0.998378396 0.000412154419 0.0569243245 -0.993697286 0.00956806727 0.111687601 -0.142408073 0.953202486 0.266692549 -0.0249902774 0.9955194 0.0911954418 -0.840825319 -0.0811273679 -0.535192549 -0.812322974 -0.125529602 -0.569538176 -0.986160874 -0.015315867 0.16508235 -0.92991668 -0.166164383 0.328092068 0.986529171 -0.140036613 0.0845570713 -0.992835939 0.00760409515 0.119243123 0.876253545 0.000452012318 0.481850117 0.874356747 -0.00436527934 0.485264063 0.965207219 0.00272861356 0.261471927 0.966444373 0.00451545836 0.256836325 -0.946730733 0.0206259359 -0.321365088 0.360795259 0.170808673 -0.916870296 0.618999779 0.209263816 -0.756999254 -0.53241241 -0.125980034 0.837057948 -0.00268851058 -0.933309138 0.359063774 0.641969323 -0.766730011 0.000650793896 -0.0820901543 0.996530294 0.0137328999 -0.0801688656 0.996420205 -0.0268276855 -0.0217907298 0.995765388 -0.089311257 -0.102846645 0.99461329 0.0129213296 -0.0408329554 0.998056591 0.047071442 -0.00583386933 0.995257258 0.0971028507 -0.00974359922 0.996639848 0.081326738 0.00289749424 -0.972230971 0.234005377 0.00559839141 -0.989934921 0.141412422 0.00383567577 -0.996390343 0.0848034173 -0.0662745088 -0.951225162 -0.301294446 -0.109940782 -0.860484958 -0.497472286 -0.000248838507 -0.999923706 -0.0123510258 0.000196302994 -0.998160422 0.0606282353 0.00633007707 -0.998804569 0.0484700613 0.13255094 0.0454029255 -0.990135789 -0.000211433755 -0.996214807 -0.0869255364 -0.00718350103 -0.995481372 -0.0946849287 -0.00295466534 -0.986325145 -0.164784759 0.0183763169 -0.989304125 -0.144705489 -0.66473639 0.00444344431 0.747064769 -0.533690035 -0.00736550847 -0.84564811 -0.999711752 -0.0240079742 -0.00023061852 -0.997633219 0.00728299655 0.0683737174 -0.998624384 -0.0395527184 -0.0344232209 -0.952557027 0.0248621982 0.303342938 -0.167024598 -0.982913077 -0.0773606822 -0.143019259 -0.989683509 0.0084885275 -0.0998376682 -0.994269073 0.0382295772 -0.0630867034 -0.99625808 0.059075024 0.0198760126 -0.999074519 -0.038145449 0.00160931353 -0.999823987 -0.018691428 0.95115459 -0.30612722 -0.039887622 0.788149893 -0.00937505532 -0.615411937 0.7819435 -0.00193864282 -0.623346269 0.777764022 0.0029883387 -0.628549218 0.769992173 0.0119869746 -0.637940705 0.135947272 -0.990619779 -0.0138127217 0.0257402901 -0.995442808 -0.0918209404 0.0289436895 -0.986453354 0.161468253 0.0141878091 -0.990244269 0.138617992 0.0940313339 -0.995386958 0.0190491807 0.99088645 -0.13466391 -0.00311167864 0.999974966 -0.000765748962 0.00703236368 0.999921858 -0.012322952 -0.00210913597 0.171397895 0.285950154 0.942791224 -0.0379521661 0.998692632 -0.0342444442 -0.0809304044 0.994570792 -0.06541536 -0.0103918891 0.999145508 0.0400030501 0.873073816 0.487427443 -0.0125130909 0.00789318886 0.998232841 0.0588977188 -0.471779913 -0.00458539603 -0.88170445 -0.470951617 -0.00325005455 -0.882153034 0.00568485586 0.997725189 -0.0671724677 0.0306436997 0.991633654 0.125394106 -0.999182165 0.0343045816 -0.0214066152 -0.997024238 -0.0678132698 -0.0366606824 0.0388539284 0.99884367 0.0283141639 0.118962839 -0.0921639577 0.988611996 0.99989754 0.00355932163 0.0138643058 0.999943793 0.00711488724 0.00785719138 0.999901056 0.00297670625 0.0137501033 -0.903969824 -0.0282476004 -0.426662147 -0.995511174 0.0928958058 0.0181077942 -0.993634105 0.0646904409 -0.09222994 -0.796476483 -0.0146778477 -0.604491353 0.00482560787 0.416496843 -0.909124374 0.000412445981 0.386270523 -0.922385454 0.000837147003 0.389197826 -0.921153784 -0.777522087 0.00977561995 0.62877959 -0.791329086 -0.025394991 0.610862851 -0.78640759 0.00553647848 0.617683113 -0.799798667 -0.0249945577 0.599747777 -0.695614517 0.0765547231 -0.714324713 0.00549126789 0.421019107 -0.907035172 0.0238765907 -0.960089684 0.278671235 0.0343482681 0.984838367 0.170040116 -0.00685771508 0.98584199 0.167536855 0.00109361554 0.971669078 0.236343041 0.0784033462 -0.996676862 -0.022093758 0.0321898349 -0.998750687 -0.0382214598 0.064148441 -0.933476686 -0.352854371 -0.527213693 -0.456563115 0.716656029 0.0242808312 0.998594344 -0.0471139289 -0.0208611637 0.995506585 -0.092365779 -0.00976143964 0.998328626 -0.0569624417 -0.0254041366 0.997568309 -0.0649010763 -0.0206915997 0.998466015 -0.0513558947 -0.0011441838 0.999739349 -0.0228008814 0.128236771 0.991708934 -0.00828942657 0.0483240932 0.998254478 -0.0339517295 -0.00779347727 0.997725606 -0.0669543892 0.743557215 0.0980645493 -0.661442399 0.777404189 0.011572768 -0.628894866 0.872864127 -0.244672522 -0.422188967 0.937036097 -0.348983347 -0.0131888557 0.0172429942 -0.0851641446 0.996217728 -0.00608356157 -0.998062372 0.0619230941 0.310787231 -0.0294384118 -0.950023532 0.00627010269 0.999976993 -0.00258036912 0.0117324796 0.999916673 0.00538315065 0.00588926859 0.999976099 0.003615906 -0.00218191883 0.99999392 0.00272941613 0.00634241896 0.99994117 0.00879999995 -0.00839181989 0.999389708 0.0339092538 -0.00233359192 0.99981159 0.0192713011 -0.0192209519 0.99969846 -0.0152803306 0.016003456 -0.99986136 0.00460285181 -0.00178319379 -0.999975741 0.00673724012 -0.0107589336 -0.999813199 0.0160581693 0.0371389464 0.993648112 -0.10622704 0.191314623 0.981285989 -0.0218303241 0.16599004 0.986123085 0.0029262777 0.0307534207 0.996346474 0.079674013 -0.0102062896 -0.997680485 0.0673010871 -0.127019837 -0.0123183765 -0.991823673 -0.00375270192 0.998640895 0.0519829132 -0.00606739521 0.997905135 0.0644088909 -0.994892299 0.0211584438 0.0986996219 0.999917984 0.0128049357 -8.55531994e-07 0.999849558 0.0135171674 0.0108692367 0.999993801 0.00116731401 0.00332013424 0.596972227 0.802261114 -0.00111988198 0.0117119029 0.997134864 0.0747317895 0.0827791989 0.996279478 0.0239754021 0.0249847341 0.999266446 0.0290219635 -0.0108451461 0.996074975 0.0878468454 -0.00131563121 0.995085359 -0.0990122929 0.00171908271 -0.999886692 -0.0149560925 0.00281229313 -0.999996006 -0.000351394207 0.00228518154 -0.999979556 0.0059701018 0.0127691468 -0.99987638 0.00917658582 -0.000947815191 -0.999744415 -0.0225875359 -0.00241411151 -0.999913275 0.0129466215 0.981807232 0.189734399 -0.00744704716 -0.749060869 0.326427966 0.576500356 -0.0103035374 0.996425152 0.083849512 0.00554051204 0.989079654 0.147277594 0.976253867 0.216468841 0.00834726728 -0.839647591 -0.19910188 0.505322099 -0.851344645 -0.0570149794 -0.521499395 0.0156067945 0.999722064 0.0176693443 -0.055132091 0.0792631656 0.995328009</float_array>
          <technique_common>
            <accessor source="#normals_array" count="358" stride="3">
              <param name="X" type="float" />
              <param name="Y" type="float" />
              <param name="Z" type="float" />
            </accessor>
          </technique_common>
        </source>
        <vertices id="vertices">
          <input semantic="POSITION" source="#positions" />
        </vertices>
        <triangles material="scout_1a1a1a" count="282">
          <input semantic="VERTEX" source="#vertices" offset="0" />
          <input semantic="NORMAL" source="#normals" offset="1" />
          <p>0 0 1 1 2 2 3 3 1 4 4 5 2 2 1 1 5 6 6 7 2 2 5 6 7 8 8 8 4 8 9 9 10 10 11 11 12 12 10 10 9 9 13 13 14 14 15 15 16 16 17 17 12 18 10 19 12 20 17 21 15 22 14 22 12 22 18 23 14 24 19 25 10 19 17 21 20 26 19 27 14 28 21 29 22 30 21 31 23 32 22 33 19 27 21 29 24 34 19 25 22 35 24 36 22 37 25 38 26 39 27 40 28 41 29 42 30 43 31 44 32 45 20 46 33 47 34 48 33 47 20 46 27 49 32 45 33 47 35 50 36 51 30 43 29 52 37 52 38 52 39 53 40 54 41 55 42 56 43 56 44 56 45 57 46 57 47 57 42 58 48 59 43 60 48 61 46 62 43 63 42 58 49 64 48 59 11 65 13 66 9 67 50 68 51 69 52 70 53 71 54 71 55 71 56 72 53 72 55 72 57 73 58 74 59 75 53 76 60 76 54 76 61 77 56 78 55 79 61 77 55 79 62 80 52 81 63 81 64 81 65 82 63 83 52 70 66 84 59 84 58 84 37 85 29 85 31 85 52 70 51 69 65 82 67 86 38 87 68 88 66 89 69 90 70 91 37 92 71 93 68 88 72 94 73 95 54 96 60 97 72 94 54 96 74 98 61 99 62 100 75 101 61 99 74 98 60 102 76 102 72 102 29 103 38 103 77 103 67 86 78 104 38 87 79 105 4 105 80 105 81 106 1 106 0 106 8 107 79 107 80 107 82 108 41 55 7 109 0 110 83 110 81 110 83 111 84 112 81 113 40 114 85 115 84 112 33 116 86 117 87 118 27 119 33 116 87 118 27 119 87 118 28 120 28 121 87 122 88 123 88 123 89 124 28 121 25 125 90 126 91 127 92 128 91 129 93 130 25 125 91 127 94 131 69 90 25 125 94 131 69 132 24 36 25 38 92 128 93 130 95 133 88 123 96 134 89 124 96 135 92 136 95 137 22 138 93 139 90 140 21 31 13 141 23 32 97 142 68 143 98 144 99 145 35 146 100 147 101 148 46 149 45 150 101 148 45 150 102 151 47 152 101 152 102 152 49 64 103 153 48 59 94 154 98 144 70 155 104 156 105 157 106 158 105 157 39 159 106 158 105 157 107 160 39 159 108 161 65 162 109 163 65 164 108 165 63 166 70 167 59 168 66 169 70 167 110 170 59 168 73 171 111 172 54 173 76 174 73 174 72 174 76 175 112 175 73 175 113 176 75 177 74 178 114 179 75 177 113 176 115 180 116 181 110 182 115 180 110 182 117 183 112 184 113 185 73 186 113 187 118 188 73 171 114 189 113 185 112 184 119 190 117 183 120 191 121 192 119 193 120 194 6 7 103 195 49 196 122 197 99 198 78 104 11 11 20 199 26 200 9 201 15 15 12 202 79 203 7 203 4 203 6 7 42 204 2 2 99 205 100 206 123 207 99 205 123 207 124 208 125 209 16 16 12 18 49 196 42 204 6 7 65 82 111 210 126 211 13 13 15 15 9 201 13 141 21 31 14 212 22 37 90 213 25 38 40 114 127 214 85 115 55 215 54 173 125 216 51 217 125 216 54 173 125 216 128 218 55 215 128 218 129 219 55 215 129 219 57 220 62 221 62 221 55 215 129 219 94 222 130 223 97 224 80 225 4 226 81 227 3 3 80 225 81 227 1 4 3 3 5 228 3 3 81 227 5 228 81 227 84 229 5 228 26 39 32 230 27 40 84 112 83 111 40 114 86 231 127 232 87 233 127 232 131 234 87 233 129 235 58 74 57 73 17 17 50 68 20 236 130 223 30 43 97 224 66 89 24 34 69 90 68 237 36 238 67 239 128 240 125 209 12 18 12 18 14 24 128 240 82 241 42 242 45 243 42 242 44 244 45 243 44 244 106 245 102 246 45 247 47 247 82 247 44 244 102 246 45 243 42 248 82 249 2 250 7 251 2 250 82 249 96 252 88 253 131 234 132 254 91 255 92 256 131 234 132 254 96 252 96 252 132 254 92 256 131 257 127 258 132 259 104 260 101 260 47 260 104 261 47 262 48 263 47 264 46 264 48 264 105 265 104 261 48 263 16 16 125 209 50 68 119 190 115 180 117 183 52 70 64 266 34 267 20 236 52 70 34 267 104 268 46 62 101 269 104 268 43 63 46 62 116 181 59 75 110 182 86 117 33 116 34 270 34 270 64 271 86 117 86 117 64 271 108 165 108 165 64 271 63 166 108 165 103 195 86 117 103 195 6 7 86 117 125 216 51 217 50 272 31 273 71 273 37 273 39 274 133 275 127 258 127 258 40 276 39 274 59 75 116 181 57 73 94 131 70 91 69 90 71 277 31 278 77 279 68 143 97 142 30 280 111 210 65 82 51 69 106 281 44 282 43 283 36 284 35 285 67 286 67 286 35 285 122 287 80 288 3 288 8 288 43 283 104 289 106 281 1 290 81 290 4 290 134 291 110 292 70 293 39 294 135 295 106 245 135 296 82 296 47 296 135 297 47 297 102 297 106 245 135 295 102 246 83 298 0 299 79 300 0 299 2 301 79 300 2 301 7 302 79 300 83 298 79 300 8 303 40 304 83 298 41 305 83 298 8 303 7 306 83 298 7 306 41 305 19 25 129 235 18 23 126 211 118 307 121 308 50 68 17 17 16 16 3 309 4 309 8 309 89 310 96 135 95 137 94 222 91 255 132 254 22 138 23 311 93 139 84 229 85 312 5 228 32 230 26 39 20 313 18 23 128 240 14 24 53 314 56 315 60 316 60 316 56 315 112 317 112 317 56 315 61 318 112 317 76 319 60 316 61 318 75 320 114 321 112 317 61 318 114 321 30 43 130 223 31 44 31 44 130 223 123 322 77 323 31 44 123 322 77 323 123 322 100 324 29 42 77 323 35 50 35 50 77 323 100 324 29 42 35 50 30 43 126 325 121 326 109 163 120 327 117 328 134 291 134 291 109 163 121 326 134 291 121 326 120 327 6 329 5 228 85 312 82 108 135 330 41 55 48 263 103 331 107 332 105 265 48 263 107 332 109 163 65 162 126 325 135 330 39 53 41 55 130 223 94 222 132 254 68 237 30 333 36 238 94 154 97 142 98 144 109 334 136 335 127 258 133 275 109 334 127 258 127 258 136 335 132 259 132 259 136 335 130 336 136 335 124 208 130 336 124 208 123 207 130 336 133 337 39 159 107 160 113 187 74 338 119 339 118 188 113 187 119 339 74 338 62 221 57 220 111 172 51 217 54 173 118 188 111 172 73 171 119 339 74 338 115 340 116 341 115 340 74 338 116 341 74 338 57 220 109 163 133 342 108 161 28 343 89 344 11 65 93 345 89 344 95 346 26 347 28 343 11 65 13 66 11 65 93 345 11 65 89 344 93 345 13 66 93 345 23 348 134 291 117 328 110 292 111 210 118 307 126 211 108 161 133 342 103 331 133 342 107 332 103 331 131 234 88 253 87 233 85 312 127 232 6 329 127 232 86 231 6 329 121 192 118 349 119 193 129 235 128 240 18 23 67 286 122 287 78 350 98 351 136 352 70 293 58 74 129 235 24 34 129 235 19 25 24 34 66 89 58 74 24 34 50 68 52 70 20 236 134 291 70 293 136 352 136 335 109 334 134 353 90 126 93 354 91 127 77 279 38 355 71 277 99 198 124 356 78 104 124 356 136 352 71 93 78 104 124 356 38 87 98 351 71 93 136 352 38 87 124 356 71 93 71 93 98 351 68 88 68 88 38 87 37 92 35 146 99 145 122 357 11 11 10 10 20 199</p>
        </triangles>
      </mesh>
    </geometry>
  </library_geometries>
  <library_visual_scenes>
    <visual_scene id="scene">
      <node id="right_knee_link">
        <instance_geometry url="#geometry">
          <bind_material>
            <technique_common>
              <instance_material symbol="scout_1a1a1a" target="#scout_1a1a1a" />
            </technique_common>
          </bind_material>
        </instance_geometry>
      </node>
    </visual_scene>
  </library_visual_scenes>
  <scene>
    <instance_visual_scene url="#scene" />
  </scene>
</COLLADA>