<?xml version='1.0' encoding='utf-8'?>
<COLLADA xmlns="http://www.collada.org/2005/11/COLLADASchema" version="1.4.1">
  <asset>
    <created>2026-09-14T00:00:00Z</created>
    <modified>2026-09-14T00:00:00Z</modified>
    <unit name="metre" meter="1" />
    <up_axis>Z_UP</up_axis>
  </asset>
  <library_effects>
    <effect id="scout_1a1a1a_effect">
      <profile_COMMON>
        <technique sid="common">
          <lambert>
            <emission>
              <color>0 0 0 1</color>
            </emission>
            <ambient>
              <color>0.05 0.05 0.05 1</color>
            </ambient>
            <diffuse>
              <color>0.1 0.1 0.1 1</color>
            </diffuse>
          </lambert>
        </technique>
      </profile_COMMON>
    </effect>
  </library_effects>
  <library_materials>
    <material id="scout_1a1a1a" name="scout_1a1a1a">
      <instance_effect url="#scout_1a1a1a_effect" />
    </material>
  </library_materials>
  <library_geometries>
    <geometry id="geometry" name="right_shoulder_yaw_link">
      <mesh>
        <source id="positions">
          <float_array id="positions_array" count="384">-0.0198410489 -0.0222827066 -0.168681905 -0.0285399277 -0.0185682494 -0.171280846 -0.0293054171 -0.0208477192 -0.203001574 -0.0187281966 -0.028200889 -0.163606837 -0.0244616345 -0.0138313714 -0.129008278 -0.0172812287 -0.0220521707 -0.123324119 -0.0233872421 -0.0142023554 -0.0826935545 -0.0270617548 -0.0141177615 -0.0327844881 -0.0276450198 -0.0155552598 -0.206882149 -0.0112570925 -0.0161347426 -0.206854343 -0.0105807623 -0.0230868459 -0.204832509 -0.0172617491 -0.0231246687 -0.0598946325 -0.0227696858 -0.0227629207 -0.000499086047 -0.0133752432 -0.029399991 -0.00144628366 -0.0278512593 0.010990032 -0.206388414 -0.0259052273 -0.0147678675 -0.217566058 0.00799280778 -0.0218052287 -0.167636409 -0.00581624405 -0.0228852425 -0.178967744 0.0331005901 -0.022416899 -0.170317933 -0.00365092955 -0.017753493 -0.219438404 0.00451988494 -0.0234966017 -0.223764107 -0.00876606535 -0.0252545178 -0.118858479 0.000337058213 -0.0276307147 -0.151738837 0.00437872857 -0.0219179578 -0.153003827 -0.0246565696 0.0137352459 -0.0719293058 -0.0244725551 0.0123007623 -0.126167655 -0.00900589954 0.0101096565 -0.237842217 0.00202924083 -0.0151868537 -0.243190214 -0.0146922413 -0.01669899 -0.233175784 -0.00350566767 0.00312626851 -0.00909129903 -0.00377514842 -0.00378689775 -0.00262938277 0.0050444752 -0.000322135777 -0.00963406544 -0.0270600319 0.0214076322 -0.172444254 -0.0292318687 0.0203536991 -0.203823566 -0.028450489 0.0196309481 -0.166837156 -0.0180678777 0.0280952472 -0.163123116 -0.00826715026 0.020908488 -0.159876198 -0.0181987751 0.02126568 -0.120296955 -0.0160124451 0.0278669111 -0.0004815477 -0.0153378295 0.0235468335 -0.0705185235 -0.0266977306 0.0184934717 -0.000324240187 -0.0108088339 0.0190236103 -0.203775302 -0.0132137984 0.0131071731 -0.198926777 -0.00740376348 0.0111708846 -0.21346879 -0.00392467901 0.0176946726 -0.215949327 0.000536712236 0.0239003375 -0.153138742 -0.01016453 0.0250572115 -0.117414638 0.019124601 0.027046863 -0.142211705 -0.00252041407 0.0307932626 -0.000559344189 -0.00928920228 0.025204299 -0.0708625168 0.0240377132 -0.00928014331 -0.0905440524 0.0241972562 0.0114679327 -0.0782610327 0.030097302 -0.0046465341 -0.0142250806 0.0181712713 -0.0170619339 -0.229831532 0.0212199762 -0.02637209 -0.140387475 0.0390774012 0.00379191875 -0.00338844024 0.0399497151 -0.0029195759 -0.0022648084 -0.0247395113 0.00946047623 -0.219871208 0.012017535 -0.023968786 -0.0855915546 0.0193932001 -0.0185777545 -0.0933782756 0.01802288 -0.0270825792 -0.000733009772 0.00913632661 -0.0300794207 -0.00570431398 0.0340608843 0.0118363546 -0.138407975 0.0354756564 -0.0117608951 -0.139791235 0.0552087128 -0.0204203948 -0.164841145 0.00629828358 2.4677589e-05 -0.00118225999 0.029266201 -0.0234311391 -0.224952802 0.0352026001 -0.0161702633 -0.223448634 0.00908107124 0.0245410092 -0.0891906396 0.0154455733 0.0247739945 -0.11933244 0.0308772326 -0.020875521 -0.139737442 0.0268491842 -0.0140225124 -0.119570889 0.0278146472 -0.0171003062 -0.00143711816 -0.00915268902 -0.0254430585 -0.0692685246 0.0186205823 0.0100049758 -0.24617976 0.0362876765 -0.0149986204 -0.243158326 0.0188676585 -0.0169686507 -0.246317893 -0.030060824 0.00932442117 -0.00337235769 0.031804435 -0.0015755255 6.5119144e-05 0.0407261476 -0.0180149209 -0.219653904 0.0474330857 -0.0232472066 -0.204080686 0.0478475057 -0.016504718 -0.206647724 0.0524624884 -0.0167584121 -0.232304394 0.0625333264 0.00922364555 -0.217766792 0.0624782071 -0.014987411 -0.21771118 -0.0296761394 -0.0105791455 -0.00116066355 0.00731603336 0.0111232856 -0.226164579 0.00845145341 0.0179586243 -0.225847512 0.0228433907 0.0181629639 -0.228562936 0.017598968 0.018919671 -0.212300465 0.0120551111 0.0218562651 -0.20190157 0.0137692671 0.0282025188 -0.200086951 0.0170210991 0.0212415997 -0.189459294 0.016837243 0.0264680069 -0.193854988 0.0169085972 0.0221461356 -0.146729693 0.0180970263 0.0202446524 -0.0910691172 0.00849497598 0.0114056915 -0.0713067874 -0.0087004276 0.011294215 -0.0713730305 0.0160392728 0.0279730465 -0.000617605809 0.009638994 0.0255302023 -0.0710016787 0.0248867571 0.011586356 -0.108870387 0.0302634705 0.0206352193 -0.138341039 0.0232989956 0.0202938914 -0.0350067466 0.0302266274 0.00645773998 -0.0129936002 -0.0040344554 0.00394346518 -0.000446422666 0.0273615532 0.016277777 -0.000365289772 0.0348881632 0.011593027 -0.223399863 0.0353290029 0.0179031864 -0.223044261 0.0253974069 0.021926336 -0.202739269 0.0234057549 0.0283953752 -0.199552566 0.0230483375 0.0287655201 -0.196914494 0.0240370017 0.0280026253 -0.198000878 0.0469873585 0.0187103227 -0.204793498 0.0496222675 0.0210387092 -0.160439044 0.0048749526 0.00948361494 -0.244297758 0.0320752189 0.00973000284 -0.244051009 0.0478659272 0.0102854976 -0.236643225 0.0488923676 0.0108702788 -0.205334738 0.0662791803 0.0202698354 -0.203334108 0.0649551004 0.0108403256 -0.205784768 0.0608721711 0.0208176766 -0.172218964 0.0654215217 -0.0206318144 -0.180924952 0.0660964996 0.020492781 -0.185018942 0.0661415085 -0.0187778901 -0.203668296 -0.00888087973 0.0242892541 -0.089341484 0.0447520688 -0.0229121912 -0.182190597 0.0088384347 0.0113052344 -0.0884587839 -0.00859885849 0.0113549978 -0.0884519145</float_array>
          <technique_common>
            <accessor source="#positions_array" count="128" stride="3">
              <param name="X" type="float" />
              <param name="Y" type="float" />
              <param name="Z" type="float" />
            </accessor>
          </technique_common>
        </source>
        <source id="normals">
          <float_array id="normals_array" count="813">-0.151664585 -0.98800391 0.0290879421 -0.410509914 -0.908749163 0.0752097294 -0.148089677 -0.988764346 0.020360129 -0.055172544 -0.655930459 -0.752802253 0.121802703 -0.631271362 -0.765937686 0.362036288 -0.566643476 -0.740165412 -0.773784578 -0.627549946 0.0862462968 -0.574049532 -0.808188856 0.131521523 -0.605280817 -0.792664051 0.0729307905 -0.0997347161 -0.994997978 -0.00565642025 -0.117482558 -0.499723405 -0.858180881 -0.00826804247 -0.279985964 -0.959968507 -0.0441155471 -0.354173332 -0.934138656 -0.936438084 -0.344473571 -0.0664954707 -0.799879968 -0.59998107 -0.0146537656 -0.572421968 -0.818010092 -0.0565033667 -0.736776471 -0.675039172 -0.0385040753 -0.319762826 -0.94727385 -0.0205903482 -0.928181946 0.000997045776 -0.372125328 -0.925085306 -0.00562148681 -0.379717797 -0.951879561 -0.00169527333 -0.306467682 0.0205462985 -0.998424709 0.0522107109 -0.0214613378 -0.999580204 0.0194639433 0.0247738753 -0.998293161 0.0528865121 -0.846718788 -0.222871855 -0.483110189 -0.698743701 -0.498151124 -0.513422489 -0.805957079 -0.318798959 -0.498798937 -0.658541262 -0.550248027 -0.513371706 -0.168649286 -0.984743893 0.0428590104 0.462799042 -0.49403134 -0.736036718 0.44884795 -0.496770203 -0.742802024 -0.916921437 0.398272365 -0.0251836125 -0.963236511 0.259044796 0.0712122768 -0.590943098 0.0122533841 -0.806620181 -0.347705752 -0.0244391784 -0.937285125 -0.682611942 -0.00954002701 -0.730718791 0.304330319 0.644113123 0.701784432 -0.994225025 0.00031423333 -0.107314989 -0.712697923 0.700021327 0.0450752266 -0.741102874 0.670775056 0.0287642889 -0.909073293 0.407934964 0.0847041681 -0.48767817 0.866657376 0.105237707 0.523821056 0.36705941 -0.768686473 0.519222736 0.343465239 -0.782585025 0.495568693 0.359055459 -0.790879786 -0.658328056 0.750000894 0.0640530735 -0.448246717 0.891938508 -0.0593349226 -0.502571404 0.863618791 -0.0398067348 -0.803792775 0.592445374 -0.0540890135 0.411188066 -0.671936512 -0.61597538 -0.0628620163 0.985697329 -0.156362325 -0.0635726601 0.992116928 -0.107992917 -0.0567377619 0.988721967 -0.138599038 -0.904304087 0.115262598 -0.411033601 -0.802962959 0.157553449 -0.574828148 -0.92355901 0.0658411831 -0.377761483 -0.720506132 0.139325097 -0.679308057 0.437093675 0.370615333 -0.819508016 -0.206438124 0.977312803 0.047359664 0.192808732 0.974281013 0.116624758 0.466939867 0.456888497 -0.75711298 -0.0365040973 0.997664928 -0.0577247068 -0.190265313 0.979865313 -0.0605236888 0.976630032 -0.21441929 0.0147716645 0.9599424 0.274956793 -0.053938508 0.98488301 -0.157228708 -0.0726950094 -0.430757761 0.0651218519 -0.900114954 0.388687968 -0.573328376 -0.72126013 0.752585232 0.0429452509 -0.657092988 0.761823952 0.0207327567 -0.647452235 0.77225256 -0.00598741556 -0.635287404 -0.894306779 0.0236117933 -0.446830988 0.309341341 -0.950834453 -0.0148942312 0.502665818 -0.849473536 0.160380125 0.776871562 -0.624367237 0.0814622492 0.502185464 -0.864275157 0.0289507713 0.130901426 -0.981670678 0.138518929 0.855384827 0.168477222 0.489828765 0.833414197 -0.165294155 0.527350545 0.805613995 -0.0373410359 0.591262817 -0.355666786 0.934501648 0.0144158937 -0.0349474438 -0.645374954 -0.763066053 0.353724867 -0.0964673087 -0.930361629 0.456566334 -0.193380192 -0.868418813 0.437916458 -0.252608597 -0.862796664 0.274591982 0.961505294 0.010334569 0.353240788 0.924215734 0.14507331 0.381284505 -0.585274398 -0.715594888 0.479911923 -0.862300813 0.161622718 0.959479868 -0.125671178 0.252200693 0.804878414 -0.371604502 0.462688714 0.873253703 -0.483413488 -0.0611501075 -0.137798801 -0.989715695 -0.0383972414 0.0145985903 0.000518512621 -0.999893308 0.361943841 -0.00539967697 -0.932184279 0.00520544033 -0.00368571864 -0.999979675 -0.983014166 0.171193883 -0.0661498606 0.96803695 -0.242635965 -0.0635002479 0.601432204 -0.560771286 -0.569047332 0.794952214 -0.382519901 -0.470881641 0.865598619 -0.223755047 -0.447965115 -0.0431407131 -0.992151916 -0.117360398 0.0203325916 -0.999029458 -0.0390736833 0.00249578408 -0.995325446 -0.0965454504 0.711291611 -0.00768813258 -0.702854991 0.912028968 0.0197170395 -0.409651607 0.91281575 -0.00301603321 -0.408360511 0.0402307399 -0.995707512 -0.0833545774 0.0567940474 -0.99610132 -0.0675021708 -0.963824153 -0.261731654 -0.0503936224 -0.476471424 0.106528759 -0.872712195 -0.395631313 0.108024344 -0.912034333 -0.185912266 0.076321803 -0.979597688 -0.0107640838 0.98597163 -0.166565582 -0.054084219 0.979870617 -0.192167923 -0.0673212782 0.950217724 -0.304227024 -0.895941257 0.192559913 0.400262415 -0.917053044 0.14105168 0.372985393 -0.870570481 0.244889423 0.426774174 -0.780497372 0.386084646 0.491693556 0.405486405 0.516951263 -0.753884733 0.657608032 0.753243327 0.0132699423 -0.00317179831 0.0280960537 -0.999600172 0.00361179514 0.0368286818 -0.999315083 -0.00135880429 0.0304303393 -0.999535978 0.447445273 0.893643558 -0.0345536247 0.307802171 0.949613333 -0.0590958558 0.933056891 0.327908814 0.147921264 0.726991832 0.572250187 0.379489869 0.764583886 0.641229689 -0.065084748 0.972506285 0.227315336 -0.0505890399 -0.358948499 -0.929898322 0.0802814364 -0.349645197 -0.934486985 0.0669497252 -0.357089281 -0.930840671 0.0776072443 0.872690678 0.488160789 -0.0104922093 0.969734311 0.242088526 0.0317572579 0.0947570875 -0.501902223 -0.859718084 0.634437442 0.0290146936 -0.772429466 0.639421701 -0.00134345284 -0.768855035 0.404566914 0.0232555233 -0.914212644 -0.0304879602 0.340635687 -0.939700902 -0.000296544575 0.388803214 -0.921320796 -0.0614931621 0.289715677 -0.955135286 0.0403928645 0.451520234 -0.891346097 -0.034919709 0.958221555 0.283887357 0.135418043 0.640521884 0.755905867 0.776162684 -0.232559845 0.586077929 0.839092314 -0.155712038 0.521227241 0.813589096 -0.188893676 0.549901724 0.824845195 0.528080702 -0.201893866 0.733733296 0.666947484 -0.129678741 0.880536258 0.397937447 -0.257491201 0.450752646 -0.483987182 0.750052273 0.0609271377 0.928205192 -0.367046267 0.0384399742 0.600221872 -0.798909307 0.0056292722 0.999984086 0.000410546432 0.0172999203 0.99907285 -0.0394225121 0.0147288246 0.999890745 -0.00122799759 0.511768937 0.445697278 -0.734470248 -0.280077159 0.000661447528 -0.959977269 0.278742611 0.0128175048 -0.960280299 0.623278856 0.0202847328 -0.781736493 0.814362228 0.187644273 -0.54918462 0.0417300127 0.133559018 -0.990161896 0.0036435856 0.245351925 -0.969427228 -0.0266060084 0.254945338 -0.966589391 -0.331157833 0.785301805 0.523101866 0.74278748 0.0652476028 -0.666340411 -0.418593496 0.889839351 -0.181563973 0.814489067 0.234542012 -0.530657709 0.676488459 0.374367714 0.634202063 0.855782866 0.0371817164 0.515997291 0.955243707 -0.0098728966 0.295655161 0.0219078492 0.999757528 -0.00222931919 0.0331551693 0.999380171 -0.0118346708 0.0395777486 0.999159038 -0.0107144322 0.99530673 0.000506357348 -0.0967691094 0.998286843 -0.00996118225 -0.0576559156 0.982228756 0.00256118434 0.18767035 -0.748515129 -0.647131145 0.144728497 -0.146420673 -0.554650307 -0.819099545 0.00803266931 -0.997981608 0.06299337 0.000162967321 -0.997395575 0.0721248314 -0.999158442 -0.00433720415 0.0407877043 -0.0413715355 0.998880327 0.0229447559 -0.998435378 -0.00414928282 0.0557641052 -0.102604799 -0.994716227 0.00344816735 -0.0350935347 -0.996245861 -0.0791370347 -0.0850328133 -0.996318996 -0.0108546633 -0.0623392351 -0.997368634 -0.0370081738 0.0345133767 -0.999336421 0.0116415722 0.0292388517 -0.998731971 0.0409820117 0.102064259 -0.994733334 -0.00940854382 0.075307712 -0.995420694 0.0588759407 0.0731166676 -0.995842874 0.0543227419 0.175200939 -0.984418213 -0.0150124151 -0.056901861 -0.998212755 0.0182622503 0.0974231735 -0.994899571 0.026144119 -0.0140315033 -0.0153086493 0.99978435 -0.0251764748 0.0063412562 0.999662936 -0.0389645435 0.000268919452 0.999240577 -0.0511452444 -0.0372700207 0.997995555 0.0302155241 0.0169389807 0.999399841 0.00680968678 0.0195148829 0.999786377 -0.0023131601 -0.0177861731 0.999839127 0.299371839 0.195269719 0.933941245 0.0283429194 0.358718485 -0.933015406 0.0224281326 0.27576822 -0.960962474 0.0294925682 0.374876946 -0.926605344 0.021809563 0.267110229 -0.963419139 -0.0762639418 -0.996971309 -0.0152326273 0.92320323 0.00952585414 -0.384194016 -0.00175367121 0.999997795 -0.00115515268 -0.0064596138 0.999961197 -0.00598604884 -0.00182193494 0.999997616 -0.00122522877 0.00285522547 0.99998951 0.00357609172 0.998935997 0.0415475853 0.0200157408 0.999313891 0.0340444967 0.0145856496 0.999457061 0.030638352 0.0121208597 0.999735117 0.0222126506 0.00602453016 -0.039629411 0.994197011 -0.100009039 0.0273137763 0.998406231 -0.0493855923 0.0105732186 0.999015868 -0.0430752337 -0.0391288474 0.998247445 -0.0443958752 0.998090446 0.0166851636 0.0594737083 -0.998087466 0.000548505224 -0.0618153363 -0.367382377 -0.925461173 0.0924759805 -0.998462498 0.0554281697 0.000622293679 -0.999363542 0.0199551508 0.0295689404 -0.9989205 0.0456461497 0.00861421227 -0.996492326 0.0811523348 -0.0204294957 -0.0312375948 -0.994312286 -0.101819642 0.0189016555 -0.998650908 -0.0483639464 0.00624529645 -0.999965966 -0.00539422454 -0.00135782419 -0.999900401 0.0140480865 0.00294543942 -0.999976158 0.00624829764 0.00799808558 0.999603033 0.0270143989 -0.00857303105 0.999699891 0.0229484551 9.44583589e-05 0.99995476 -0.00951286219 -0.0142856166 0.999773145 -0.015799392 -0.0393116362 0.997113943 0.0649491102 -0.0971732736 -0.970603883 0.220194235 0.032025516 -0.998601079 -0.0420740768 0.0611838363 0.996445835 -0.0578989163 -0.0018875188 0.991068721 -0.133338839 0.0611410588 0.996021032 -0.0648371428 0.0330819748 0.99764061 -0.0601559617 0.0509858169 0.997257829 -0.0536398292 0.00695711793 0.997057199 -0.0763447434 0.00221817754 0.998509288 -0.0545367934 -0.0260714274 0.997463167 -0.0662380978 -0.0259404462 0.995908737 -0.0865616053 -0.0319577083 0.998605847 -0.042012047 -0.0557291135 0.994600773 -0.0875419378 0.106314845 -0.359494299 -0.927071214 -0.0811253861 -0.967388093 -0.2399562 -0.00344806234 0.0631418973 0.997998595 0.000588647963 0.0686269477 0.997642219 -0.00528475409 0.0606451705 0.998145401 -0.00916047301 0.0553745255 0.998423636 -0.00773333805 0.0222216994 -0.999723136 -0.75297457 0.0582824089 0.655463576 0.0652534589 0.995021045 0.0753331706 -0.0274035726 -0.0347194932 0.999021351 0.0721801817 0.0396307148 0.996603966 0.0278583039 0.000195881919 0.999611855 0.0519560985 -0.0623502173 0.996701062 -0.000615528843 -0.00935580675 0.999956071 0.00711935153 0.00503268791 0.999961972 0.0109378975 -0.00644492125 0.999919415 0.58687979 0.808960259 -0.0339907147</float_array>
          <technique_common>
            <accessor source="#normals_array" count="271" stride="3">
              <param name="X" type="float" />
              <param name="Y" type="float" />
              <param name="Z" type="float" />
            </accessor>
          </technique_common>
        </source>
        <vertices id="vertices">
          <input semantic="POSITION" source="#positions" />
        </vertices>
        <triangles material="scout_1a1a1a" count="252">
          <input semantic="VERTEX" source="#vertices" offset="0" />
          <input semantic="NORMAL" source="#normals" offset="1" />
          <p>0 0 1 1 2 2 1 3 0 4 3 5 4 6 3 7 5 8 4 9 6 9 7 9 8 10 9 11 10 12 7 13 6 14 11 15 7 13 11 15 12 16 13 17 12 16 11 15 14 18 15 19 8 20 16 21 17 22 18 23 9 24 19 25 10 26 10 26 19 25 20 27 21 28 5 8 3 7 0 4 22 29 3 5 0 4 23 30 22 29 7 13 24 31 25 32 26 33 27 34 28 35 29 36 30 36 31 36 2 37 14 18 8 20 32 38 33 39 34 40 35 41 32 38 34 40 32 42 35 43 36 44 37 45 35 41 34 40 25 32 37 45 34 40 37 45 25 32 24 31 38 46 39 47 40 48 41 49 42 49 14 49 42 50 43 51 14 52 41 53 43 54 42 55 41 53 44 56 43 54 35 43 45 57 36 44 35 41 46 58 47 59 47 60 45 57 35 43 37 45 46 58 35 41 39 47 48 61 49 62 38 46 48 61 39 47 50 63 51 64 52 65 19 66 53 66 20 66 23 30 54 67 22 29 52 68 55 69 56 70 14 18 57 71 15 19 58 72 54 73 59 74 60 75 61 76 58 72 62 77 63 78 64 79 30 80 65 80 31 80 53 81 66 81 20 81 53 82 67 83 66 84 46 58 68 85 69 86 70 87 54 67 23 30 59 74 54 73 70 88 71 89 59 74 70 90 60 75 59 74 72 91 59 74 60 75 58 72 11 15 73 92 13 17 74 93 75 94 76 95 63 78 71 89 70 90 71 89 50 63 59 74 50 63 72 91 59 74 24 31 77 96 40 48 78 97 72 91 52 65 79 98 80 99 66 84 67 83 79 98 66 84 81 100 80 99 79 98 67 101 82 102 79 103 64 79 63 78 70 90 82 104 83 105 84 106 84 107 81 108 82 102 85 109 77 96 7 13 44 56 86 110 43 54 44 56 87 111 86 110 87 111 88 112 86 110 89 113 41 114 90 115 91 116 90 117 92 118 93 119 91 116 92 118 45 57 94 120 36 44 47 60 94 120 45 57 68 85 95 121 69 86 96 122 97 123 49 124 48 61 98 125 99 126 71 89 62 77 100 127 101 128 100 127 62 77 51 64 102 129 103 130 65 131 104 132 29 133 103 130 105 134 78 135 88 136 106 136 86 136 107 137 106 138 88 139 91 140 108 141 90 142 91 140 109 143 108 141 93 144 109 144 91 144 110 145 93 145 92 145 110 146 92 147 108 148 109 149 111 150 108 151 111 152 110 146 108 148 108 153 112 154 89 113 36 155 94 156 113 157 47 60 101 158 94 120 69 86 100 127 101 128 69 86 101 128 47 59 15 19 57 71 28 35 69 86 95 121 100 127 68 85 99 126 95 121 95 121 99 126 102 129 102 129 51 64 95 121 27 34 114 159 76 95 102 129 105 134 103 130 115 160 116 161 75 94 107 137 117 162 106 138 117 163 118 164 119 165 78 166 55 166 103 166 103 167 55 69 52 68 93 168 110 168 109 168 107 137 112 169 117 162 113 170 101 128 62 77 120 171 64 79 121 172 120 173 122 174 118 175 113 170 62 77 120 171 121 172 123 176 118 177 120 171 121 172 122 178 95 121 51 64 100 127 3 7 4 6 1 179 24 31 40 48 39 47 63 78 62 77 71 89 10 12 2 180 8 10 54 181 21 28 22 182 76 95 114 159 74 93 25 32 34 40 4 183 124 184 46 58 39 47 85 109 7 13 12 16 34 40 2 37 1 185 21 28 73 92 11 15 25 32 4 183 7 13 27 34 26 33 114 159 13 17 61 76 60 75 72 91 50 63 52 65 9 186 8 187 15 188 15 188 28 189 9 186 23 190 0 0 17 22 23 190 17 22 16 21 70 191 23 190 16 21 121 192 64 193 18 23 121 192 18 23 125 194 18 23 70 191 16 21 64 193 70 191 18 23 123 195 121 192 125 194 2 2 10 196 17 22 0 0 2 2 17 22 125 194 80 197 123 195 98 198 65 199 105 200 105 200 65 199 78 201 13 202 60 203 65 199 78 201 65 199 72 204 65 199 60 203 72 204 56 205 55 205 78 205 26 33 28 35 57 71 108 153 89 113 90 115 37 45 24 31 39 47 41 206 33 207 90 208 6 14 5 8 11 15 5 8 6 14 4 6 120 171 62 77 64 79 14 209 33 207 41 206 28 189 19 210 9 186 84 106 83 105 123 176 83 105 119 211 123 176 97 212 96 213 126 214 126 214 127 215 97 212 49 216 97 217 124 218 127 219 124 218 97 217 3 7 22 182 21 28 44 220 41 114 89 113 89 113 112 154 107 221 89 113 107 221 88 222 44 220 89 113 87 223 88 222 87 223 89 113 30 224 29 224 104 224 2 37 33 225 14 18 31 226 65 131 29 133 54 181 58 72 21 28 1 185 4 183 34 40 13 17 73 92 61 76 99 227 68 228 126 229 96 230 99 227 126 229 39 47 46 58 37 45 28 189 27 231 53 232 53 232 19 210 28 189 27 231 76 233 53 232 80 197 125 194 20 234 66 235 80 197 20 234 125 194 18 23 20 234 20 234 18 23 17 22 17 22 10 196 20 234 49 62 124 184 39 47 120 173 108 236 92 237 108 236 120 173 118 175 36 155 113 157 92 237 92 237 113 157 120 173 32 238 36 155 92 237 32 238 92 237 33 239 92 237 90 240 33 239 34 40 33 225 2 37 52 241 56 241 78 241 67 101 75 242 82 102 67 101 53 232 75 242 53 232 76 233 75 242 117 243 119 244 83 245 106 246 117 243 116 247 117 243 83 245 116 247 116 247 115 248 106 246 115 248 74 249 86 250 106 246 115 248 86 250 74 249 114 251 86 250 114 251 26 252 86 250 26 252 57 253 86 250 57 253 43 51 86 250 43 51 57 253 14 52 21 28 11 15 5 8 50 63 71 89 100 127 116 161 82 104 75 94 51 64 103 130 52 65 80 254 81 254 123 254 116 161 83 105 82 104 81 108 79 103 82 102 123 255 81 108 84 107 77 96 24 31 7 13 118 177 123 176 119 211 124 184 68 85 46 58 46 58 69 86 47 59 99 126 98 125 102 129 124 256 127 257 126 258 124 256 126 258 68 259 99 260 96 122 49 124 115 160 75 94 74 93 100 127 51 64 50 63 73 92 21 28 58 72 102 129 98 125 105 134 112 154 108 153 118 164 85 261 40 261 77 261 94 156 101 262 113 157 13 202 65 199 30 263 13 202 30 263 12 264 85 265 12 264 30 263 30 263 104 266 85 265 85 265 104 266 40 267 40 267 104 266 38 268 104 266 65 199 48 269 38 268 104 266 48 269 65 199 98 198 48 269 49 62 48 61 99 126 117 163 112 154 118 164 118 177 122 178 121 172 58 72 61 76 73 92 110 270 111 150 109 149</p>
        </triangles>
      </mesh>
    </geometry>
  </library_geometries>
  <library_visual_scenes>
    <visual_scene id="scene">
      <node id="right_shoulder_yaw_link">
        <instance_geometry url="#geometry">
          <bind_material>
            <technique_common>
              <instance_material symbol="scout_1a1a1a" target="#scout_1a1a1a" />
            </technique_common>
          </bind_material>
        </instance_geometry>
      </node>
    </visual_scene>
  </library_visual_scenes>
  <scene>
    <instance_visual_scene url="#scene" />
  </scene>
</COLLADA>