<?xml version='1.0' encoding='utf-8'?>
<COLLADA xmlns="http://www.collada.org/2005/11/COLLADASchema" version="1.4.1">
  <asset>
    <created>2026-09-14T00:00:00Z</created>
    <modified>2026-09-14T00:00:00Z</modified>
    <unit name="metre" meter="1" />
    <up_axis>Z_UP</up_axis>
  </asset>
  <library_effects>
    <effect id="scout_1a1a1a_effect">
      <profile_COMMON>
        <technique sid="common">
          <lambert>
            <emission>
              <color>0 0 0 1</color>
            </emission>
            <ambient>
              <color>0.05 0.05 0.05 1</color>
            </ambient>
            <diffuse>
              <color>0.1 0.1 0.1 1</color>
            </diffuse>
          </lambert>
        </technique>
      </profile_COMMON>
    </effect>
  </library_effects>
  <library_materials>
    <material id="scout_1a1a1a" name="scout_1a1a1a">
      <instance_effect url="#scout_1a1a1a_effect" />
    </material>
  </library_materials>
  <library_geometries>
    <geometry id="geometry" name="right_hip_pitch_link">
      <mesh>
        <source id="positions">
          <float_array id="positions_array" count="465">-0.0253138579 -0.0235903766 -0.398853511 -0.0207757596 -0.0208692513 -0.414765716 -0.0177756287 -0.0295674391 -0.407135189 -0.0213879142 -0.020128632 -0.386007339 -0.0129775293 -0.0236776303 -0.35757643 -0.00289612939 -0.0289721657 -0.332868755 -0.0107556861 0.0191890784 -0.382068872 -0.0116794445 -0.0192969926 -0.383907378 -0.00808179565 -0.0215876885 -0.42756173 0.00657565426 -0.0269223079 -0.44165343 0.0444002151 0.0941245556 -0.031532269 0.044819165 0.0739444792 -0.0312690474 0.0259096324 0.094130449 -0.0485339984 -0.00448592752 -0.013960233 -0.293928474 -0.0578683689 -0.0247028843 0.0117843188 -0.0558201745 -0.0199463665 -0.027078582 -0.0454580635 -0.025789097 -0.0322070271 -0.0230497159 -0.0174356233 -0.0701826662 -0.0113190366 -0.0222184043 -0.0796395242 -0.00606708322 -0.0126938643 -0.117117323 -0.0466324836 -0.0194833279 0.0396837629 -0.036266651 -0.0270348489 0.0374166258 -0.0179306045 -0.0227877814 0.0574903041 0.0131305093 -0.0242660102 0.0576773174 -0.0190702081 0.0294895358 -0.403743178 -0.0225790981 0.0206229892 -0.411791831 -0.0225242097 0.0208870843 -0.38762483 -0.0142469136 0.0284718797 -0.372536808 -0.00568376482 0.0289019849 -0.333902955 0.0512854569 0.073302567 0.0183151979 0.0382086523 0.0727006793 0.0381179079 0.0477517545 0.048546575 0.0259430185 0.00902563054 0.028244555 -0.442961127 -0.00777646713 0.02297589 -0.427615196 0.00521592051 0.0243076198 -0.442029774 -0.00450496702 0.0180665124 -0.304013282 -0.0478883088 0.0458632074 -0.037797574 -0.022903733 0.0270230025 -0.0584415421 -0.0289396737 0.018592963 -0.0609989166 -0.0298673045 0.0485153124 -0.044885505 -0.0161768217 0.0453904755 -0.060394071 -0.0508678406 0.0484396443 -0.0194561537 -0.0593896024 0.0463204123 -0.0146151241 -0.0479861312 0.0721651241 -0.0264533032 -0.0253837891 0.0735532343 -0.0480950437 0.0600390472 -0.0145223904 -0.0808159187 0.0536917858 -0.0201863069 -0.0840903074 0.0591848977 -0.0154677546 -0.278736651 -0.0109949876 0.0241355095 -0.086896725 -0.0109053478 0.0180211253 -0.0975915045 -0.020233674 0.0468870215 -0.0651736856 -0.049781803 0.0941508561 0.0247846507 -0.0528791584 0.0942010656 -0.0136913611 -0.0540286787 0.0731859207 0.00690458762 -0.00179159828 0.0238965247 -0.119281739 -0.00435729558 0.0187134128 -0.137066498 0.000398068456 0.0293260086 -0.151852354 -0.000534248713 0.0464510918 -0.118071467 -0.0116011249 0.0483776815 -0.0525667146 0.025040023 0.0456497036 -0.0587807484 0.00361152994 0.0723413676 -0.0545367301 -0.0531038828 0.048120968 0.00967091601 -0.0573365837 0.0461322777 0.0235114265 -0.0458402634 0.0481436029 0.0289553236 -0.0328889973 0.0461795107 0.0520158112 -0.0241077598 0.0483979098 0.0486685 -0.0408518352 0.0941325873 -0.0360337757 -0.0201695412 0.0742852315 0.051418364 -0.0433381982 0.0724953339 0.0326437615 -0.0208659004 0.0942150503 0.0506698117 0.00150062575 0.0481031276 0.0541777909 0.012798625 0.0462844521 0.0613612309 0.0170488153 -0.0276666842 -0.439389348 0.0225010272 -0.0271519683 -0.416531295 0.0106304558 -0.0201382432 -0.422631353 0.0112629179 -0.0266809296 -0.363711774 0.0266111195 -0.0262176357 -0.375652045 0.0199535787 -0.0242868084 -0.382665992 0.00721253315 -0.0221155863 -0.367234975 -0.000446520426 -0.0194490571 -0.356744438 0.0289511867 -0.0281814858 -0.443306863 0.0439537652 -0.0272332951 -0.434821218 0.0212266501 -0.0236941297 -0.4327043 0.0248251073 -0.0199485105 -0.405308217 -0.0034231029 0.0233900975 -0.397885978 0.00296786893 0.0236891396 -0.397617102 0.0199654493 0.0227885507 -0.383737087 0.0587156937 -0.0228702687 -0.415308833 0.0527528971 -0.0289902445 -0.413858831 0.0548474491 -0.0236880705 -0.421378046 0.0541275367 -0.0261499006 -0.383819878 0.0520655513 -0.0206031352 -0.290300161 0.0530227199 -0.029473193 -0.330510288 0.05959896 -0.0221404415 -0.324094027 0.0542476214 0.0267546065 -0.384074152 0.04698392 0.0460653678 0.0394404829 0.0433065593 -0.0196730681 0.0438368134 0.0390013643 0.0258806273 -0.441374749 0.0257473085 0.0286467802 -0.438650995 0.002720549 0.0243488811 -0.154685795 0.000684528204 0.0218950771 -0.299643338 0.000436549366 -0.0302656852 -0.0191516969 0.0547776595 -0.0268884227 0.000427407678 0.0604571737 -0.020609349 0.00776591804 -0.000270127377 0.0190441012 -0.356158644 0.0389441028 -0.0266210083 0.0384343304 0.0155275855 0.0280222334 -0.43471083 0.0181987546 0.0279077012 -0.380174339 0.00866329856 0.0237520356 -0.362582743 0.020863561 0.0235547163 -0.432530224 0.0398566984 0.0286181364 -0.439068496 0.0309199393 0.0284745172 -0.43479389 0.0264182109 0.0262894221 -0.375782669 -1.29610471e-05 -0.0197152514 -0.112843998 -0.00314069446 -0.0254083835 -0.402243733 0.0049239262 -0.0298080407 -0.400578916 0.00514167594 -0.0202290658 -0.400168955 0.0468452051 0.027883105 -0.425103426 0.0369029939 0.0301135778 -0.431528598 0.0547773317 0.0230415482 -0.422195524 0.0522336438 0.0224897098 -0.297367007 0.054799322 0.0289936904 -0.328952402 0.0581255704 0.0268902257 -0.409566998 0.0181842726 0.073513642 0.0516136251 0.023419762 0.0484621711 0.0485864617 0.0596397221 0.0173713844 -0.305897206 0.00201158272 0.0940020531 -0.0543061346 0.0335527919 0.0309164356 -0.147140995 0.0150811411 0.0484716035 -0.0520453043 0.0335184224 0.0480949692 -0.0421511494 0.0285709109 0.0728812516 -0.0458385609 0.0554811992 0.0231978539 -0.144803405 0.0472677201 0.0454061329 -0.0398840755 0.0480093956 0.048389513 -0.0247926638 0.0551905818 0.0470352247 -0.0412104614 0.056597244 0.0289427973 -0.140507162 0.055366978 0.0247288682 -0.0341968611 0.0596539639 0.0212362222 -0.0220561177 0.0142443944 0.0940860659 0.0532464869 0.0397824049 0.0938772485 0.03744784 0.0583421513 0.0461391918 -0.0199543629 0.0536764748 0.0491106287 -9.17544676e-05 0.0517467447 0.0941536501 0.0164676886 0.0601433963 0.0462397337 0.0118463831 0.0542378947 0.0940972343 -0.00916352775 0.0536487848 0.0728278756 -0.0068677594 0.00241992529 -0.0202209949 -0.293357342 -0.0223030597 0.0939386263 -0.0502820089 0.0555969849 0.0417224392 -0.117371835 -0.0112974513 0.0490058325 -0.0832486376 0.00279348367 0.0268116686 -0.403081745 0.0112688392 0.0251815524 -0.423214108 0.0253272075 0.0257984046 -0.407518029 7.61018891e-05 -0.0254620034 -0.396086901 0.0548272803 0.0495673753 -0.0753112808</float_array>
          <technique_common>
            <accessor source="#positions_array" count="155" stride="3">
              <param name="X" type="float" />
              <param name="Y" type="float" />
              <param name="Z" type="float" />
            </accessor>
          </technique_common>
        </source>
        <source id="normals">
          <float_array id="normals_array" count="1035">-0.685958505 -0.727233827 0.0243285336 -0.676843107 -0.588399589 -0.442345202 -0.686544716 -0.680200219 -0.256873637 -0.9585917 0.00867240131 0.284652054 -0.937964499 -0.242765501 0.247563079 -0.770106673 -0.606416404 0.197977051 0.254397094 0.0280404817 -0.966693282 0.393638909 -0.0143760843 -0.919152737 0.207817182 0.0416971594 -0.977278531 -0.708910823 -0.105808929 -0.69731617 -0.657853305 -0.5097211 -0.554448783 0.811586678 0.00922946725 -0.584159076 0.824045777 -0.0049945768 -0.56650126 0.472181439 -0.0196872149 -0.881281495 -0.68490088 -0.718591988 0.120566823 -0.201231688 -0.978963435 0.0337103084 -0.561287284 -0.795729637 -0.227532342 -0.381986767 -0.887614548 -0.2573452 -0.626331687 -0.626658082 -0.463689923 -0.573406577 -0.75642246 -0.314690143 -0.711965799 -0.693352282 -0.111208431 -0.47346589 -0.775375187 0.417879581 -0.257833928 -0.925049067 0.278937161 -0.100886248 -0.950684488 0.293293417 -0.00437349593 -0.989295542 0.145860329 -0.904027462 0.42614302 0.0337108932 -0.929233313 0.369488418 -0.00192730408 -0.914220929 0.356824756 0.192031592 -0.815962017 0.552591681 0.169848025 -0.982328713 0.0916801915 0.163171813 0.945607066 -0.00269338698 0.325299859 0.703070462 -0.0227833763 0.71075511 0.870871782 -0.0450199507 0.489444077 -0.649140894 0.549522102 -0.5259673 -0.655145705 0.534712732 -0.533728778 -0.608234346 0.64811635 -0.458253384 -0.66169548 0.510371447 -0.54925406 -0.605944276 0.652664423 -0.454819351 -0.996969044 0.0450733528 0.0634118468 -0.498853713 0.248307198 -0.830354452 -0.442757279 0.327465475 -0.834704936 -0.318051606 0.476391047 -0.819691837 -0.233865678 0.951485336 -0.199956283 -0.261334777 0.887761712 -0.378923774 -0.0847831964 0.937359154 -0.33788994 -0.293691665 0.946205378 -0.135795906 -0.277182281 0.959630013 -0.0477522537 -0.874550581 -0.0205149706 -0.48450014 -0.591832697 -0.033589676 -0.805360615 -0.935541093 -0.0263311025 -0.352235079 -0.473103017 -0.0185288321 -0.880812228 0.679928124 -0.732195318 -0.0398461074 0.671860695 -0.740234852 -0.0256027002 0.560868442 -0.827575922 0.0233388152 -0.878273368 0.32258305 -0.352953404 -0.828442335 0.49602434 -0.26008305 -0.704715192 0.613075972 -0.357091486 -0.704774857 0.612970114 -0.357155532 -0.67172724 0.317179799 0.669462085 -0.887571633 0.00848067738 0.460591704 -0.977157593 0.0109324874 -0.212234542 -0.994509816 0.0025248637 0.104613133 -0.91333133 0.376377434 -0.155453771 -0.722257972 0.687352717 -0.0767442882 -0.959040761 -0.261822283 -0.108120114 -0.976047993 0.0655433163 -0.207447246 -0.0431424491 0.941082299 -0.33541438 0.114650756 0.95807761 -0.2625691 0.0566448495 -0.00833705161 -0.998359561 -0.200175971 -0.0275208112 -0.979373336 -0.321046203 0.946559072 0.0309066847 -0.242525101 0.965272307 0.0971128941 -0.250849426 0.94818598 0.194981754 -0.766045213 -0.0393035896 0.641583979 -0.506234884 0.023426 0.862077415 -0.938228667 -0.00962396525 0.345881999 -0.160634384 0.958029926 0.237434819 -0.107435562 0.935047925 0.337850571 -0.745848238 -0.00784455333 -0.666069686 -0.360056728 0.0154203167 0.932802975 -0.77799511 0.00745787425 0.628226042 -0.666979492 0.00467940699 0.745061338 -0.0497537851 0.946049154 0.320180476 0.0134415161 0.974152446 0.22549133 0.179524139 0.976361215 -0.120373651 0.0997004658 0.988223433 -0.11607866 0.113724209 0.971800745 -0.206567347 0.203092083 0.976623118 -0.0704338253 0.264180094 -0.338389635 -0.903161883 0.508249402 0.810411215 0.2914038 0.105013609 0.993028939 0.0535322055 0.286104709 0.956731379 0.0530017242 0.401794165 0.910587907 0.0969080254 0.356855124 0.933872521 0.0231624749 0.00942765735 0.994731963 -0.102075629 0.0405382067 0.943707943 -0.328286499 0.0791514292 0.834467351 -0.54534328 0.616511881 0.598370433 -0.511728346 0.887147665 -0.449438155 0.104758479 0.1604027 -0.971130192 -0.176570311 0.0546719395 -0.992777646 -0.106787056 0.0956644863 -0.994856954 -0.0332856178 0.689964712 -0.707964957 -0.150779292 0.518735111 -0.844400048 -0.133800104 0.633486748 -0.704378009 -0.320228279 -0.052862227 0.998544872 -0.0106665259 -0.36840111 0.92811048 0.0537734553 -0.0443891995 0.997258663 0.059200678 0.47881639 -0.87072295 0.1121445 0.722990394 -0.689276874 0.0467144102 0.667727828 -0.734581292 0.120539822 -0.999871612 -3.98467528e-05 -0.0160235055 -0.999856532 0.000627609785 -0.0169258546 -0.999816716 0.00217790878 -0.0190216638 0.760039628 0.000830623962 0.649876237 0.185576871 0.00836634077 0.982594132 0.699163318 -0.0233962908 0.714579046 0.215522721 -0.951467931 0.219678685 0.0162277129 -0.660974026 0.750233293 0.0420263521 -0.730015814 0.682136834 -0.644610763 0.764374077 -0.0144642629 -0.635587871 0.767788529 0.0808014274 -0.00442847097 -0.99922204 -0.0391880944 0.0392062441 -0.997038186 -0.066163972 0.447808117 -0.893907726 0.0199230462 0.647122204 -0.745339215 0.160319254 -0.504225552 0.015450418 -0.863433778 -0.568989754 -0.00768031087 -0.822308719 -0.578796983 -0.00492009986 -0.815456867 0.528274119 -0.702500761 0.476884842 0.38160333 -0.704698324 0.598146439 0.336287051 -0.891557932 0.303373516 0.176147923 -0.983105123 0.0497617871 0.18105641 -0.97440654 0.133231074 0.881287336 -0.024317842 0.471954674 -0.67719686 0.713722229 0.178899601 -0.70708096 0.655405581 0.265480757 -0.401909381 -0.741961598 -0.536620736 -0.241056472 -0.642811239 -0.727107644 -0.367047369 -0.723667026 -0.584450364 -0.00528395688 0.999810815 -0.0187204592 0.48610422 0.770927072 -0.41155082 0.00440248335 0.999574125 0.0288486611 0.0307431873 -0.258179724 -0.965607643 -0.0400876999 0.997930288 -0.0502806418 -0.0528812148 -0.96505928 -0.256640196 -0.463872492 -0.608313084 0.64403218 -0.691393137 -0.702244639 -0.169788003 -0.221191019 -0.0366802886 0.974540472 -0.507605612 0.170334131 0.844584405 0.0903229862 0.625006378 -0.775376499 -0.515328586 -0.815453112 0.263576746 -0.152845636 -0.971104443 0.183287755 -0.229990572 -0.946270287 0.227325484 0.0900851861 0.983049035 -0.159685001 -0.555107713 -0.817596793 0.152940899 -0.00363921979 0.997399688 0.0719761997 0.308947474 0.948306739 0.0725659654 -0.00880855974 0.9959777 0.0891675502 0.843747318 -0.00812262949 -0.536679149 0.955754578 0.0382351466 -0.291669756 0.957527518 0.00579715986 -0.288283706 0.672965467 0.630538642 -0.38670218 0.764454901 0.258639723 -0.590520322 0.547473133 0.783808649 -0.293116331 -0.539236248 -0.838878095 0.074214831 0.312182605 -0.00179001945 0.950020432 0.0178001989 0.00146352081 0.999840498 0.472216517 -0.0537600517 0.879841685 0.884688675 0.463702857 0.0480173826 0.928625107 0.365727633 0.0624399111 -0.924262285 -0.361599028 -0.122414671 -0.018216677 0.94964236 0.312805921 -0.0474591665 0.987655103 0.149281889 -0.000532857201 0.981069684 0.193654284 0.0276178159 0.0126808407 -0.999538124 0.0583341122 0.746717691 -0.662578166 0.154897124 0.646209836 -0.747274876 0.106450304 0.492540032 -0.863754988 0.0436382182 0.942804575 -0.330477238 0.208136439 0.949532866 -0.234662727 0.521236122 -0.0111905159 -0.853339136 0.261474669 0.491217434 -0.830864847 0.234393269 0.949052513 -0.210616201 0.270822883 0.947465181 -0.170190111 -0.119809568 0.984516382 0.127957866 -0.164011151 0.964846194 0.205358475 0.626350641 -0.0319344103 -0.778887033 0.489013255 0.872227192 -0.00926155038 0.243410155 0.741832972 -0.624848247 -0.999904275 -0.00174029381 -0.0137245376 0.648243666 0.76136899 -0.00986941159 0.649167955 0.76058054 -0.00991343241 0.989498734 -0.144427896 0.00572610367 0.999930024 0.0117862932 -0.00102332188 0.981121063 -0.1933593 0.00368962879 0.224096328 -0.0119288443 0.97449398 0.722272694 -0.00365991308 0.691598713 0.852978349 0.201703757 -0.48139751 0.965870678 0.10738638 -0.235715941 0.911819696 0.131939441 -0.388814569 0.0973834917 0.29921937 0.949201882 0.263339102 0.957580209 -0.117015496 0.250090867 0.964436889 -0.0855335668 0.994040906 5.9384507e-05 0.10900785 0.974027634 0.0416722745 0.222561553 0.0337193236 0.980197728 0.19512929 0.258266449 0.913879931 0.313244134 0.308140934 0.936386168 0.168018177 0.482636929 0.703816414 0.521252394 -0.467805207 -0.0394149721 0.882952273 0.956810772 0.00458773086 0.290675253 0.194290563 0.980890214 0.0102735115 0.169030875 0.985529065 -0.0126900999 0.168223083 0.967758119 0.187470675 0.977683485 -0.00466159731 0.210031718 0.977172375 0.00186486822 0.212439686 0.987566233 -0.0243283343 -0.155309707 0.992517591 -0.0179037265 -0.120781943 0.423964143 -0.0239582006 -0.90536201 -0.672302902 -0.730812788 0.117989011 0.924102306 0.00158083043 -0.382141918 0.925256073 -0.000789120095 -0.379342318 0.925779223 -0.00187311193 -0.378059953 0.926953375 -0.00432791794 -0.375151545 0.0617039949 -0.604438126 -0.794258893 0.0546684824 0.99705112 -0.0538553074 0.0136433644 0.983888805 -0.178259999 0.256639481 0.966472864 -0.00814943109 -0.390750617 -0.021659838 -0.920241714 -0.0730193481 0.0348848812 0.996720254 0.11057657 0.944760025 -0.308547139 -0.998659432 0.0150055522 0.0495390929 0.0583327226 0.997526288 0.0392254703 -0.814679801 0.550637186 0.181921735 0.168525696 0.966543674 0.193371102 -0.943691671 0.00368965976 -0.330805689 -0.985120118 -0.0209799781 -0.170581833 -0.850720227 0.0169675108 -0.525344849 -0.987348437 -0.0190557633 0.157416299 -0.826875687 -0.00729075912 -0.562337518 -0.984924912 0.0178605784 -0.172058061 -0.998427749 0.0214627478 -0.0517822206 -0.836648345 -0.007277817 0.54769206 -0.949999988 0.000125682156 -0.312249839 -0.872502089 0.0154568832 -0.488365889 -0.574568331 0.12443696 -0.808941722 -0.0961214006 -0.988947392 -0.112888373 -0.928478539 0.0492433794 -0.368106961 -0.912663817 0.0191999283 -0.408259839 -0.989843071 -0.01595621 0.141266167 0.0655405968 -0.990650773 -0.119647369 0.198119864 -0.980177522 0.000704792386 0.215055108 -0.975914836 -0.036627274 0.125904903 -0.990867853 -0.048258245 0.0595678352 -0.981631696 -0.181248263 0.0754283518 -0.996693194 -0.0302196499 -0.0109980833 -0.998733282 0.0491003208 -0.786888301 -0.546276331 -0.28703478 0.24583064 -0.969290555 0.00656413753 -0.00685084751 -0.996831894 0.0792413428 0.264001846 -0.964060664 0.0298343431 -0.267762929 -0.033488322 0.962902665 0.0161717627 0.99984175 -0.00741629116 -0.016044518 0.9944942 0.10355597 0.213937253 -0.961866856 -0.170420244 0.00120679697 -0.997885287 -0.0649887249 -0.259645104 -0.963371694 -0.0670771599 -0.110596165 -0.991100848 -0.0740782768 -0.0489878692 -0.998239517 -0.0334371701 -0.0134389875 -0.994120061 0.10744606 0.242024228 -0.965433717 0.0967576802 0.229931012 -0.563584626 0.793412924 0.0101032527 -0.998437285 -0.0549628325 -0.464478195 -0.881905675 -0.0806371644 0.356343776 -0.796934485 -0.487764895 0.367791086 -0.83779192 -0.403527528 0.322167784 -0.688646317 -0.64959538 0.30743739 -0.644983709 -0.699627221 0.103765756 -0.994560421 0.00906828791 0.0938591287 -0.995585084 -0.000867819646 0.0458377041 -0.995648682 0.0811333582 -0.498861492 -0.780122936 -0.377551824 0.11189945 -0.939811289 0.322851807 0.62600565 -0.688687384 0.36582312 0.113458425 -0.992208838 -0.0514669009 0.040049497 0.966140568 -0.254889041 0.896591187 -0.0369165465 -0.441317886 0.999393821 0.0340120383 0.00742900511 0.999935985 0.0046664658 -0.0103065381 0.998583138 0.0515283048 0.013289107 -2.92244276e-05 -0.999014854 -0.0443763956 -0.0135512641 -0.994203031 0.106661864 -0.0149878776 -0.992745101 0.119300202 0.995730758 0.0329865776 -0.0862100199 0.207634583 -0.0500351265 0.976925969 -0.0111281388 0.999926269 -0.00485587539 0.000115512805 0.998843193 0.0480859652 0.011235496 0.995185852 0.0973596349 -0.169160664 0.984880447 -0.037352819 -0.272011667 0.94898814 0.159471333 -0.0856082886 0.952210903 0.293198973 -0.655849457 0.047153458 -0.753417611 -0.591463387 -0.00862798188 -0.806285739 -0.455622017 -0.00757307513 -0.890141129 -0.440986812 -0.00404291274 -0.897504449 0.99243927 0.0429272912 -0.114984989 -0.0540371127 -0.998149276 0.0278926101 -0.0182685535 0.997338176 -0.0705890432 0.111950658 0.968728483 0.221432239 0.0779181272 0.787267327 0.611669004 0.0667484552 0.956907153 0.282618701 0.0111045912 0.99421972 0.106788501 -0.431461662 0.733878851 0.524654806 0.0566629879 0.867634594 0.493963063 0.271487087 -0.0277758669 -0.962041199 0.00150049652 0.999998689 -0.000589905307 -0.00217449828 0.999959588 -0.008724357 0.0138137015 0.999895036 0.00437152572 -0.000118291908 0.99999994 -0.000400631136 -0.0004836476 0.999996662 -0.0025264034 0.000764846336 0.999999702 2.78775969e-05 -0.00373235648 0.999969959 -0.00679030735 0.00470605819 0.999980152 0.00418329844 0.000957871496 0.999999523 0.000103399274 0.00121203449 0.999999285 -0.000138583535 -0.00136531657 0.999998987 0.000445943268 0.0252088737 0.999302745 0.0275414679 -0.284849018 -0.00359991286 -0.958565652 -0.28547436 -0.00395822665 -0.958378196 -0.0493465774 0.993276596 -0.104721181 0.116223402 0.99058342 0.0723646507 0.00887901057 0.991782665 0.127625734 0.17760773 0.983694911 0.0282814242 0.116750531 0.975582898 -0.186030537 -0.504630089 0.854976118 -0.119851239 0.159678131 0.959110141 -0.233689129 0.257692844 0.952900648 -0.159921184 -0.387524068 0.770242274 0.506509542 0.0228623487 0.99241823 -0.120761462 -0.922691226 -0.00661938544 -0.385482907 0.999980628 0.00312454486 -0.00538816256 0.999906361 -0.013682439 0.000200915572 0.999940336 0.0108729918 -0.00102972391 -0.597388566 0.801258147 -0.0333509594</float_array>
          <technique_common>
            <accessor source="#normals_array" count="345" stride="3">
              <param name="X" type="float" />
              <param name="Y" type="float" />
              <param name="Z" type="float" />
            </accessor>
          </technique_common>
        </source>
        <vertices id="vertices">
          <input semantic="POSITION" source="#positions" />
        </vertices>
        <triangles material="scout_1a1a1a" count="318">
          <input semantic="VERTEX" source="#vertices" offset="0" />
          <input semantic="NORMAL" source="#normals" offset="1" />
          <p>0 0 1 1 2 2 3 3 0 0 4 4 5 5 4 4 0 0 3 6 6 7 7 8 8 9 9 10 1 1 2 2 1 1 9 10 2 2 5 5 0 0 10 11 11 12 12 13 13 14 4 4 5 5 14 15 15 16 16 17 15 16 17 18 16 17 18 19 16 17 17 18 17 18 19 20 18 19 20 21 14 15 21 22 20 21 21 22 22 23 22 23 21 22 23 24 24 25 25 26 26 27 26 27 27 28 24 25 27 28 26 27 28 29 29 30 30 31 31 32 32 33 33 34 25 35 32 33 34 36 33 34 24 37 32 33 25 35 35 38 28 29 4 4 36 39 37 40 38 41 36 42 39 43 40 44 41 45 39 43 36 42 42 46 41 45 36 42 43 47 39 48 41 49 43 47 44 50 39 48 45 51 46 52 47 53 48 54 49 55 38 56 37 57 48 54 38 56 40 58 50 58 37 58 51 59 52 60 53 61 49 55 54 62 55 63 48 54 54 62 49 55 56 64 54 62 57 65 58 66 59 67 40 44 44 50 60 68 58 69 42 46 61 70 41 45 62 71 61 70 42 46 62 71 63 72 61 70 20 73 64 74 62 75 62 71 64 76 63 72 64 76 65 77 63 72 66 78 44 50 43 47 67 79 51 59 68 80 69 81 51 59 67 79 64 76 70 82 65 77 71 83 70 82 64 76 8 84 72 85 9 86 8 84 73 87 72 85 8 88 74 88 73 88 75 89 76 90 77 91 75 89 77 91 78 92 79 93 75 89 78 92 72 85 80 94 9 86 72 85 81 95 80 94 82 96 81 95 72 85 74 97 83 97 73 97 83 98 77 98 73 98 84 99 85 100 86 101 87 102 88 103 89 104 90 105 89 106 81 107 91 108 92 109 93 110 47 53 91 108 93 110 94 111 89 112 90 113 95 114 71 115 96 116 34 117 97 118 98 119 99 120 100 121 55 63 101 122 46 123 102 124 45 51 103 125 102 124 79 126 104 127 75 128 96 129 23 130 105 131 103 125 105 131 102 124 103 125 96 129 105 131 33 132 34 117 106 133 107 134 108 134 86 134 35 135 100 121 28 136 106 137 98 138 109 139 98 119 106 133 34 117 98 140 110 141 32 142 32 143 97 143 34 143 98 140 111 144 110 141 112 145 108 145 107 145 107 146 86 146 112 146 13 14 113 147 19 20 114 148 115 148 116 148 117 149 118 149 111 149 32 150 110 150 97 150 117 151 98 152 97 153 118 154 110 141 111 144 119 155 117 151 97 153 28 156 120 157 121 158 89 159 119 160 87 161 110 141 119 162 97 163 118 154 122 164 110 141 122 164 119 162 110 141 119 155 94 165 117 151 123 166 70 167 124 168 121 169 120 157 125 170 99 171 54 62 56 64 40 172 59 173 50 174 126 175 12 13 60 68 56 176 127 177 99 178 128 179 129 180 59 67 58 66 40 44 39 43 12 13 130 181 60 68 127 177 131 182 99 178 129 180 132 183 59 67 133 184 132 183 129 180 134 185 59 173 132 186 130 181 11 12 129 187 120 157 131 188 125 170 127 177 135 189 131 182 94 111 119 190 89 112 131 188 136 191 137 192 135 193 136 194 131 195 138 196 123 166 139 197 132 198 140 199 136 200 132 201 136 201 134 201 133 184 140 202 132 183 141 203 140 202 133 184 141 204 31 32 140 205 138 196 67 79 123 166 71 83 124 206 70 82 71 207 31 208 124 209 139 197 123 166 30 31 65 210 70 167 67 79 139 197 30 31 29 30 142 211 139 197 29 30 31 208 143 212 140 213 95 214 143 212 31 208 103 215 143 216 95 114 144 217 29 30 145 218 3 6 26 219 6 7 146 220 13 14 5 5 79 221 7 222 104 223 104 223 7 222 6 224 14 15 16 17 101 122 85 225 84 225 24 225 27 226 85 227 24 228 60 68 44 50 147 229 69 230 67 79 138 196 47 53 46 52 91 108 70 167 123 166 67 79 127 177 148 231 135 189 35 38 4 4 13 232 147 229 44 50 66 78 90 105 81 107 76 90 76 90 81 107 73 233 77 91 76 90 73 233 72 234 73 234 82 234 82 235 73 233 81 107 15 236 42 237 36 238 61 239 53 61 41 49 43 47 41 49 53 61 36 238 38 240 15 236 35 135 55 63 100 121 13 232 19 241 35 38 19 241 55 242 35 38 43 47 52 60 66 78 63 243 53 61 61 239 63 243 68 80 53 61 71 207 95 214 31 208 19 241 49 244 55 242 17 245 49 244 19 241 11 12 10 11 144 217 36 39 40 246 37 40 68 80 63 243 65 210 18 247 101 122 16 17 54 62 149 248 57 65 48 54 50 249 149 248 62 75 42 237 15 236 15 236 14 250 62 75 105 131 23 24 21 22 14 250 20 73 62 75 26 251 25 252 84 99 25 252 33 132 150 253 33 132 151 254 150 253 84 99 6 255 26 251 152 256 86 101 85 100 150 253 84 99 25 252 151 257 152 256 85 100 85 258 150 258 151 258 114 259 5 260 2 261 20 73 22 262 64 74 67 79 68 80 65 210 99 263 120 157 100 264 64 74 22 262 71 115 81 265 88 103 80 266 80 266 88 103 115 267 80 266 115 267 9 268 5 260 88 269 92 270 2 261 9 271 114 259 115 272 88 272 153 272 88 269 5 260 153 273 5 260 114 259 153 273 115 267 114 274 9 268 52 60 43 47 53 61 109 275 98 276 118 277 118 277 117 278 109 275 117 279 94 280 152 256 109 281 117 279 152 256 106 137 109 139 151 282 109 281 152 256 151 257 94 280 112 283 86 101 94 280 86 101 152 256 151 254 33 132 106 133 38 240 17 245 15 236 86 284 108 284 104 284 86 101 104 285 6 255 84 99 86 101 6 255 28 29 26 27 4 4 4 4 26 27 3 3 54 62 99 120 55 63 127 177 57 286 148 231 133 287 145 218 141 204 154 288 134 289 136 194 136 194 148 290 154 288 18 247 113 291 101 122 102 124 46 52 45 51 101 122 113 291 46 123 91 292 146 293 5 260 21 22 14 15 101 122 113 147 13 14 146 220 93 110 92 109 88 103 143 216 103 215 137 294 148 290 136 194 135 193 105 131 101 122 102 124 22 262 23 295 71 115 59 173 154 296 149 297 19 20 113 147 18 19 23 295 96 116 71 115 54 62 48 54 149 248 120 157 28 156 100 264 83 298 74 299 116 300 116 300 77 301 83 298 116 302 115 302 153 302 68 80 51 59 53 61 154 296 57 286 149 297 29 30 31 32 141 204 104 127 108 303 75 128 76 304 75 128 108 303 112 305 76 304 108 303 87 161 119 160 122 306 98 152 117 151 111 307 101 122 105 131 21 22 60 68 147 229 126 175 122 306 121 169 125 170 27 226 28 156 122 308 85 227 27 226 122 308 24 309 84 310 150 311 32 142 24 309 150 311 32 142 150 311 98 140 98 140 150 311 122 312 98 313 122 313 118 313 150 311 85 314 122 312 28 156 121 158 122 308 17 245 38 240 49 244 56 176 57 286 127 177 59 173 149 297 50 174 58 66 128 179 59 67 128 315 58 69 60 68 145 218 11 12 144 217 130 181 129 187 128 315 60 68 130 181 128 315 154 296 59 173 134 185 11 12 133 287 129 187 12 13 11 12 130 181 52 316 147 317 66 318 52 316 51 319 12 320 147 317 52 316 12 320 51 319 69 321 12 320 147 317 12 320 126 322 69 321 138 323 144 324 12 320 69 321 10 325 10 325 69 321 144 324 144 324 138 323 142 326 139 327 142 326 138 323 46 123 113 291 91 292 113 291 146 293 91 292 44 50 58 69 39 48 76 304 112 305 90 328 112 305 94 329 90 328 131 188 137 192 125 170 81 265 89 104 88 103 131 188 120 157 99 263 8 330 1 331 74 332 74 332 1 331 114 333 114 333 1 331 3 334 116 300 74 299 114 335 114 333 3 334 7 336 153 337 114 333 7 336 116 300 153 338 77 301 78 92 77 339 153 337 78 92 153 337 7 336 7 336 79 93 78 92 30 31 124 168 31 32 124 168 30 31 123 166 88 103 87 102 93 110 57 286 154 296 148 231 50 249 48 54 37 340 144 217 142 211 29 30 137 294 140 199 143 216 136 200 140 199 137 294 145 218 133 287 11 12 91 292 5 260 92 270 93 341 87 161 122 306 93 341 122 306 125 170 93 341 125 170 47 342 125 170 137 294 45 343 45 343 137 294 103 215 47 342 125 170 45 343 95 114 96 116 103 215 0 344 3 344 1 344 145 218 29 30 141 204</p>
        </triangles>
      </mesh>
    </geometry>
  </library_geometries>
  <library_visual_scenes>
    <visual_scene id="scene">
      <node id="right_hip_pitch_link">
        <instance_geometry url="#geometry">
          <bind_material>
            <technique_common>
              <instance_material symbol="scout_1a1a1a" target="#scout_1a1a1a" />
            </technique_common>
          </bind_material>
        </instance_geometry>
      </node>
    </visual_scene>
  </library_visual_scenes>
  <scene>
    <instance_visual_scene url="#scene" />
  </scene>
</COLLADA>