<?xml version='1.0' encoding='utf-8'?>
<COLLADA xmlns="http://www.collada.org/2005/11/COLLADASchema" version="1.4.1">
  <asset>
    <created>2026-09-14T00:00:00Z</created>
    <modified>2026-09-14T00:00:00Z</modified>
    <unit name="metre" meter="1" />
    <up_axis>Z_UP</up_axis>
  </asset>
  <library_effects>
    <effect id="scout_1a1a1a_effect">
      <profile_COMMON>
        <technique sid="common">
          <lambert>
            <emission>
              <color>0 0 0 1</color>
            </emission>
            <ambient>
              <color>0.05 0.05 0.05 1</color>
            </ambient>
            <diffuse>
              <color>0.1 0.1 0.1 1</color>
            </diffuse>
          </lambert>
        </technique>
      </profile_COMMON>
    </effect>
  </library_effects>
  <library_materials>
    <material id="scout_1a1a1a" name="scout_1a1a1a">
      <instance_effect url="#scout_1a1a1a_effect" />
    </material>
  </library_materials>
  <library_geometries>
    <geometry id="geometry" name="right_hip_roll_link">
      <mesh>
        <source id="positions">
          <float_array id="positions_array" count="234">-0.0317420438 -0.0193228889 0.0442962125 -0.013098334 -0.00689262664 0.0554468967 -0.0481172986 -0.0148548475 0.0265342221 -0.013007029 -0.00965808798 -0.0596157908 -0.0645328611 -0.0113645373 -0.0508559979 -0.0436039381 -0.0186570268 -0.0504552685 -0.0553388409 -0.0188011583 0.00314995274 -0.0594643205 -0.00751419691 -0.00867254846 -0.0490136184 -0.0158018004 -0.0263948869 -0.064698942 -0.0059347637 -0.0510833971 -0.0261013079 -0.0199005678 -0.0478530787 0.014385215 -0.0191809349 -0.0533073321 -0.0594697781 -0.0339467116 -0.000858512067 -0.0118163442 0.015706839 -0.0632200241 -0.00566535397 -0.000884292589 -0.0567155071 -0.0650808737 -0.029430937 0.0449273698 -0.0621446781 -0.0447167642 0.0274853334 -0.0649423227 -0.0131965466 0.050603006 -0.0643483698 -0.0146803278 0.0274316147 -0.0649054497 -0.00783316139 0.0107049234 -0.0619379394 0.0156068467 0.0321033373 -0.0678098872 -0.00638327794 0.0351496898 -0.0469349325 -0.00812157523 0.0443328619 -0.0317402035 -0.0123786703 0.0554332919 -0.0126315607 -0.00808007549 0.0651897714 -0.0662773922 0.00404578913 0.0523088723 0.00320191449 -0.0197515637 0.0543216839 -0.0123001672 0.0179114919 0.0618595593 -0.0640548244 0.0157225467 -0.0319593288 -0.0449640527 0.015302348 -0.0471713357 -0.05964946 -0.00591490883 -0.0337443538 -0.0638151094 0.0241837539 0.00089184742 -0.0534684099 0.0224325024 0.00629387796 -0.0593518913 0.0177846793 -0.0072000972 -0.0475193076 0.0424885154 -0.0210401323 -0.0480468757 0.0464430563 0.00191569387 -0.0183537416 0.0511069708 -0.043467842 -0.0468866453 0.0528783575 -0.00697418116 -0.0631444976 0.0215594806 -0.047692962 -0.0269708578 0.0392374583 -0.0457382649 0.0198614188 0.0394610949 -0.0492638797 -0.0643330067 -0.0366358273 -0.0392713994 -0.044200927 0.0141562484 0.0488711111 -0.0648367777 0.0403172448 -0.0352851488 -0.0568646342 0.052401904 0.0150586814 -0.0616067573 0.054914251 -0.00453034602 -0.0685363412 0.058097519 0.000625619665 -0.0477608591 0.0414652713 0.0205856636 -0.0649554878 0.033241082 0.0412404202 -0.064223595 0.0195011646 0.0453045405 -0.0228407141 0.0496709235 0.0419414751 -0.0116744414 0.0165075697 0.0531741939 -0.0401375704 0.0189697407 0.0370260216 0.0160713177 0.0511044078 -0.0436469801 0.0417915173 0.0435690917 -0.0282874983 0.0310680531 -0.000931026065 -0.0505101234 0.0575607643 -0.00126815971 -0.00483279722 0.0539260395 -0.0193903577 0.00769867841 0.0467552021 -0.0193509907 -0.0289170835 0.0233705267 0.0524077639 0.039168518 0.015991617 0.0434821248 0.048424758 0.0443892479 0.0489367656 0.0153230838 0.0574572906 0.00489719724 0.0289602987 0.0343846343 0.0125679662 0.0472017489 0.0308165066 -0.00113507255 0.0488104708 -0.0627513155 -0.0538895242 0.0108035803 -0.0640361831 -0.0556222498 -0.00990121439 -0.0641745999 -0.0151345022 -0.026736673 -0.010907134 0.0154865766 -0.0540565774 -0.043676883 -0.00558108976 -0.0510301404 0.034624707 0.0127399303 -0.0468974002 0.0566045158 0.0126534598 -0.0184266139 0.0497182906 0.0391057953 0.0200327951 0.0425046384 0.0505516753 -0.018417947 -0.0263306201 0.0387818478 0.0467090458 0.0383940451 -0.0196341369 0.0391610637 -0.0321929976 0.0210031066 -0.0528163388 -0.0389218032 0.0190596823 -0.0383126102</float_array>
          <technique_common>
            <accessor source="#positions_array" count="78" stride="3">
              <param name="X" type="float" />
              <param name="Y" type="float" />
              <param name="Z" type="float" />
            </accessor>
          </technique_common>
        </source>
        <source id="normals">
          <float_array id="normals_array" count="597">-0.642160773 0.352523774 0.680702925 0.136323899 0.440012783 0.887583554 0.129358813 0.420594484 0.89797914 0.133474097 0.432071567 0.891907394 -0.812574446 -0.536241829 -0.22840187 -0.220327139 -0.144545078 -0.96465677 -0.172434464 -0.170911759 -0.970080137 -0.180465296 -0.344714224 -0.921197236 -0.680496156 0.0291212015 -0.732172728 -0.0824689493 -0.704308689 -0.705087304 0.891806304 -0.128426984 -0.433806509 0.993114889 -0.0734833181 -0.0912304297 0.954648435 -0.0845876262 -0.285466701 -0.539491475 -0.786956966 0.29941231 -0.552543223 -0.776943445 0.301753074 -0.589189708 -0.746982515 0.308014035 -0.20371592 -0.0505169779 -0.977725863 0.301608026 -0.120550387 -0.945780218 0.36113134 0.00606260868 -0.932495236 0.301046848 -0.176679477 -0.937099338 0.965072572 -0.0937604755 0.244630039 0.996321321 -0.00261198031 0.0856564194 0.996373892 0.0300577078 0.0795963779 -0.0308368914 -0.925380588 -0.377782792 -0.546358347 0.0840403438 0.833324552 -0.376580834 0.225047022 0.898632705 -0.55304879 0.0778413117 0.82950455 0.138483971 -0.468411893 -0.872589529 0.128208503 0.326320201 -0.936524272 -0.306651264 -0.48954165 0.816280544 -0.214148507 -0.271832913 0.938214958 -0.277392745 -0.418812752 0.864667058 -0.256993651 -0.402646214 0.878538728 0.998556614 -0.0191604961 -0.0501754023 -0.622803688 -0.0624643229 -0.779880643 -0.68429929 0.0122362813 -0.729098558 -0.676749647 0.00251114601 -0.736208975 0.369344324 0.817175746 -0.442502558 -0.672640741 0.595842898 -0.438777477 -0.39394784 0.904233575 -0.164823413 -0.568308592 0.666072369 -0.483086854 -0.665184736 -0.560913265 -0.492854536 -0.273061067 0.132928088 -0.952768505 -0.468396038 0.294719309 -0.832913995 -0.0639400259 0.268537581 -0.961144745 0.043627128 0.206583291 -0.977455914 -0.186643079 -0.354709446 -0.91615802 0.324174017 -0.849426031 -0.416397214 0.986770988 0.141437158 -0.0792370439 0.993871808 0.0990307406 -0.0491089784 0.929877162 0.353453845 0.101974688 0.425415069 0.904903948 0.0130715808 0.218463987 0.933914244 -0.282980025 0.319740474 0.935864091 -0.148069009 -0.996182561 -0.086934261 -0.00791784469 -0.945468843 0.318072677 0.0701315105 -0.821195066 0.458054483 0.340330333 0.286337852 -0.257708043 -0.92282027 -0.330275476 0.124097943 0.935691059 -0.197854474 0.291832119 0.935781837 -0.271206677 0.202019796 0.941081822 -0.642446816 0.565156937 0.51755172 -0.636095583 0.690227985 0.344917059 0.0960439891 0.987618566 -0.124036714 0.118655853 0.981523633 -0.150107041 0.0449109338 0.998414755 0.033925578 0.127055034 0.414164692 0.901290536 0.593218625 0.400142819 -0.698553741 0.542605281 0.539182723 -0.644097447 0.755735219 0.43604359 -0.488600314 0.525540173 0.00781147089 -0.850732923 0.185401186 0.0201684423 -0.982455909 0.905397236 -0.251554698 -0.342017621 0.931875944 -0.313334227 -0.182835653 0.902016699 0.0341652147 -0.430347145 -0.00465764944 0.433262587 -0.901255727 -0.00102998875 0.720254362 0.693709254 -0.0710333735 0.473814517 0.877755105 0.0268759448 0.428309977 0.903232098 -0.141167209 0.356528938 0.923557758 0.667141616 0.30630672 0.679042101 0.602785945 0.522309184 0.603193283 0.753058374 0.0571822822 0.655464172 0.605598629 -0.0645771772 0.793145716 0.470941722 -0.0190874375 0.881957829 0.372724742 -0.114754602 0.920819044 -0.98454845 -0.157874897 0.0757621899 -0.806265533 -0.505490243 0.307271093 -0.99127084 -0.119830951 0.0549791791 0.988389432 -0.151343152 -0.0134748481 0.995920122 -0.0708614141 -0.0558732226 0.996886432 -0.0157490913 -0.077261813 -0.0460025035 -0.993915737 0.100076631 -0.0271099154 -0.999580741 0.0101680495 -0.0492958315 -0.91558516 0.399091065 -0.137667567 0.137675762 -0.980863392 -0.0168309622 0.999851286 0.00375657342 -0.0448068604 -0.15351595 0.987129748 -0.000455691625 -0.122361965 0.992485464 -0.0341503248 -0.146063447 0.988685608 -0.732886076 0.0796771124 -0.67566967 -0.011202666 -0.985104561 -0.171591192 0.00202342961 -0.983713865 -0.179730162 0.00675274199 0.999843836 -0.0163309276 0.106492519 0.994206429 -0.0145933032 0.0166958887 0.999860287 0.000791038736 -0.00980059896 0.99987644 0.0122906342 0.155224428 -0.00172792224 -0.987877727 0.894592583 -0.018217301 -0.446511209 0.912151039 0.402514726 -0.0772161931 0.978673637 0.151776165 -0.138426527 0.884198487 0.466326445 -0.027067611 0.0792263597 -0.988368154 0.129813403 0.0768516213 -0.987989783 0.13405247 0.00404746691 -0.9653458 0.260942757 0.595220387 0.498539716 0.63021493 0.293797582 0.804960907 -0.515481234 0.280030251 -0.951236725 -0.129351407 0.114322506 -0.991221964 0.0664033219 0.0520653054 0.996493697 0.065494515 0.0959853232 0.990258276 0.100872986 0.112310126 0.988087654 0.105210632 0.996984661 -0.0750951022 -0.0195519608 0.999476373 0.0225758683 0.0231805872 0.995375514 0.0823857039 0.0493982472 0.998218 0.0576875992 0.015263292 -0.444786817 0.274461627 0.852546453 -0.139402881 0.0979454219 0.985379875 0.0883067623 0.896254897 -0.434659749 0.887487948 0.131672725 0.441619068 0.888390422 0.12857154 0.440717429 0.887141407 0.132854149 0.441961378 -0.190209806 -0.217871562 0.957262874 -0.296262473 -0.889754117 -0.347226441 -0.0922247618 -0.186421782 0.978131652 0.552277327 -0.392092288 -0.735699296 -0.0800584406 0.816141069 -0.57227999 -0.701177597 0.0972983986 -0.706316471 0.629892111 0.347283542 0.694715798 0.165113404 -0.132921711 0.977276504 0.204027921 -0.195347026 0.959276915 -0.98840636 -0.123039573 -0.0889612436 -0.99309355 -0.117325142 2.50011326e-05 -0.995243311 -0.018405363 -0.0956663117 -0.971150517 -0.0448244102 -0.23421663 -0.999706566 0.0241632573 -0.00170127221 -0.997452796 0.0202802066 0.0683859885 -0.999917865 0.00150427571 -0.0127258822 -0.98988694 -0.0633656085 0.12691997 -0.992686629 -0.119928971 -0.0137935849 -0.995961726 -0.0423686728 -0.079152666 -0.982599616 0.12510252 0.137285456 -0.996460199 -0.0415621661 -0.073072806 -0.95574224 0.0956522152 0.278221875 0.200788841 -0.00783741474 0.979603171 0.378059536 -0.301683277 0.875247478 0.668979883 0.114720523 -0.734373927 -0.68832463 -0.0627459511 0.722684026 -0.839428365 0.508910358 0.190709904 -0.944567442 0.279248416 0.172663346 -0.741134465 0.0643361136 0.668266833 -0.600472867 -0.737176538 0.309843659 -0.833905995 0.0948205739 -0.543700159 0.336409539 -0.926241159 0.170017496 -0.246435881 0.8168118 0.521620393 0.32859531 -0.324384272 0.887017488 -0.0445451587 -0.999006867 0.000992449583 -0.0551628955 -0.997630954 0.0411042757 -0.00699229632 -0.999947727 -0.00746024074 0.0142755872 -0.999562204 -0.0259152818 0.00949207414 -0.999931753 -0.00681343162 0.0183948185 -0.99731034 -0.0709485337 0.00967760105 -0.99994874 -0.00297036348 -0.00528027024 -0.999919772 -0.0115116825 -0.0060281246 -0.999745548 -0.0217366591 0.131792858 0.0392271504 0.990500808 0.410351008 0.901100516 0.140106916 0.0642612278 0.985865057 -0.15472731 0.0573361255 0.998187125 0.0183048248 0.158135995 0.987384558 0.00804341584 0.160279959 0.986326396 0.0383473672 0.511257112 0.683744848 -0.5206815 -0.0261251088 0.998444915 0.0492466129 0.0418043733 0.998850584 0.0234507844 -0.000178642425 0.998817265 -0.0486219674 -0.248715714 0.222554117 -0.942661226 0.992821455 0.00948705431 -0.119229145 0.999891758 0.0011840784 -0.0146670304 0.993062556 0.104372203 0.0541585051 0.981743455 0.185253546 0.0431376062 0.925286055 -0.214193791 0.312996328 0.0920907408 0.985130966 0.145038977 0.19577527 0.962048054 0.190093577 0.0606216006 0.992311537 0.10790208 0.0691990852 0.993874431 0.0861691162 0.998122275 0.0607254431 -0.00802273862 0.88916707 0.125873417 0.439929247 -0.674296319 0.637187481 0.373251319 0.713798881 -0.651735008 -0.256383866</float_array>
          <technique_common>
            <accessor source="#normals_array" count="199" stride="3">
              <param name="X" type="float" />
              <param name="Y" type="float" />
              <param name="Z" type="float" />
            </accessor>
          </technique_common>
        </source>
        <vertices id="vertices">
          <input semantic="POSITION" source="#positions" />
        </vertices>
        <triangles material="scout_1a1a1a" count="152">
          <input semantic="VERTEX" source="#vertices" offset="0" />
          <input semantic="NORMAL" source="#normals" offset="1" />
          <p>0 0 1 0 2 0 3 1 4 2 5 3 6 4 7 4 8 4 9 5 3 6 5 7 8 8 3 8 10 8 10 9 3 9 11 9 6 10 12 11 7 12 0 13 2 14 6 15 3 6 9 5 13 16 14 17 3 18 13 19 15 20 16 21 17 22 2 23 18 23 19 23 20 24 21 25 22 26 17 27 1 27 23 27 17 28 23 28 15 28 24 29 25 30 23 31 1 32 0 32 26 32 1 33 27 33 24 33 28 34 29 35 30 36 31 37 32 37 33 37 34 38 35 39 36 40 37 41 36 41 35 41 38 42 13 16 9 5 34 38 36 40 39 43 36 44 40 45 39 43 41 46 9 5 5 7 25 47 20 47 42 47 38 48 43 49 33 50 44 51 45 52 46 53 35 54 34 55 47 56 48 57 27 57 49 57 27 58 48 59 24 60 47 56 50 61 35 62 27 63 51 64 52 65 5 3 4 2 41 66 40 67 53 68 54 69 14 17 55 70 11 71 56 72 57 73 58 74 36 44 53 75 40 45 59 76 50 77 60 78 48 59 25 79 24 60 60 80 61 81 59 82 62 83 63 84 64 85 65 86 16 87 15 88 65 89 66 90 41 91 67 92 8 93 7 94 39 43 40 45 68 95 69 96 9 96 30 96 38 97 9 98 69 99 69 100 30 36 29 35 4 101 3 102 8 93 8 93 67 92 4 101 14 17 11 71 3 18 59 103 61 104 53 105 59 103 53 105 50 106 70 107 68 95 40 45 71 108 54 69 72 109 72 109 54 69 73 110 73 110 61 111 72 109 1 112 18 113 2 114 60 80 72 115 61 81 22 116 21 116 25 116 1 117 24 117 23 117 17 118 18 113 1 112 27 63 52 65 49 119 52 65 32 120 49 119 49 119 32 120 31 121 45 122 48 123 31 124 48 123 49 125 31 124 31 124 43 49 45 122 31 124 33 50 43 49 60 78 74 126 51 127 58 74 55 70 56 72 43 128 46 53 45 52 75 129 56 130 64 131 15 132 23 31 25 30 38 133 29 133 28 133 38 97 69 99 29 134 11 135 55 135 58 135 38 136 76 136 13 136 34 38 39 43 77 137 74 126 60 78 50 77 60 80 63 138 72 115 1 139 64 85 27 140 48 141 46 142 20 143 20 143 25 144 48 141 21 145 20 143 30 146 21 145 30 146 66 147 21 145 66 147 65 86 25 148 21 145 15 88 15 88 21 145 65 86 20 143 46 142 28 149 20 143 28 149 30 146 46 142 43 150 28 149 41 151 66 147 30 146 43 150 38 152 28 149 9 153 41 151 30 146 77 137 39 43 68 95 64 85 26 154 75 155 71 108 70 156 54 69 22 26 42 157 20 24 33 158 32 159 34 55 32 159 47 56 34 55 32 159 52 160 47 56 74 126 47 56 52 160 51 127 74 126 52 160 6 15 2 14 19 161 33 162 34 38 77 137 62 163 64 163 56 163 70 156 71 108 55 70 64 85 1 139 26 154 46 164 48 164 44 164 19 165 12 165 6 165 40 67 54 69 70 156 8 166 10 167 75 168 10 167 11 169 58 170 10 167 58 170 75 168 6 171 8 166 75 168 58 170 57 172 75 168 0 173 6 171 75 168 26 174 0 173 75 168 51 127 63 175 60 78 55 70 14 17 13 19 74 126 50 61 47 56 62 176 71 176 63 176 51 64 27 63 63 177 70 178 13 179 68 180 54 69 53 68 73 181 53 105 61 104 73 182 50 106 53 105 37 183 36 184 37 183 53 105 42 185 22 185 25 185 65 89 41 91 12 11 41 91 67 186 12 11 41 91 4 187 67 186 16 21 65 89 12 11 12 11 67 186 7 12 17 22 16 21 18 188 16 21 12 11 18 188 12 11 19 189 18 188 63 190 71 190 72 190 55 70 71 108 56 72 77 191 68 180 76 192 68 180 13 179 76 192 77 191 76 192 38 193 33 194 77 191 38 193 56 195 71 195 62 195 27 140 64 85 63 84 56 130 75 129 57 196 35 62 50 61 37 197 45 198 44 198 48 198 55 70 13 19 70 156</p>
        </triangles>
      </mesh>
    </geometry>
  </library_geometries>
  <library_visual_scenes>
    <visual_scene id="scene">
      <node id="right_hip_roll_link">
        <instance_geometry url="#geometry">
          <bind_material>
            <technique_common>
              <instance_material symbol="scout_1a1a1a" target="#scout_1a1a1a" />
            </technique_common>
          </bind_material>
        </instance_geometry>
      </node>
    </visual_scene>
  </library_visual_scenes>
  <scene>
    <instance_visual_scene url="#scene" />
  </scene>
</COLLADA>