<?xml version='1.0' encoding='utf-8'?>
<COLLADA xmlns="http://www.collada.org/2005/11/COLLADASchema" version="1.4.1">
  <asset>
    <created>2026-09-14T00:00:00Z</created>
    <modified>2026-09-14T00:00:00Z</modified>
    <unit name="metre" meter="1" />
    <up_axis>Z_UP</up_axis>
  </asset>
  <library_effects>
    <effect id="scout_1a1a1a_effect">
      <profile_COMMON>
        <technique sid="common">
          <lambert>
            <emission>
              <color>0 0 0 1</color>
            </emission>
            <ambient>
              <color>0.05 0.05 0.05 1</color>
            </ambient>
            <diffuse>
              <color>0.1 0.1 0.1 1</color>
            </diffuse>
          </lambert>
        </technique>
      </profile_COMMON>
    </effect>
  </library_effects>
  <library_materials>
    <material id="scout_1a1a1a" name="scout_1a1a1a">
      <instance_effect url="#scout_1a1a1a_effect" />
    </material>
  </library_materials>
  <library_geometries>
    <geometry id="geometry" name="right_shoulder_roll_link">
      <mesh>
        <source id="positions">
          <float_array id="positions_array" count="180">-0.0443801656 -0.0194640402 -0.0993364975 -0.0192062054 -0.0189508609 -0.0781958327 -0.0232256632 -0.0170439426 -0.0912886709 -0.0182944555 -0.0252103508 -0.0932256281 -0.0257441122 0.0180412158 -0.0938963294 0.0478799194 -0.0022504665 -0.000492526742 0.0443909094 0.0147336358 0.000304833957 0.0478215739 0.003201599 0.000624088454 -0.0327430554 0.0368864164 -0.0978336856 -0.0314040519 0.038623143 -0.128027096 -0.0446557179 0.018443279 -0.10098809 -0.0292009879 0.0187762119 -0.0807853863 0.0372268222 0.023571657 -0.0880080536 0.0358646214 0.00125796755 -0.0844759271 0.00162631657 0.0318961777 -0.0934581533 0.0230119228 0.042995777 -0.0966118425 0.0118312156 0.047806792 -0.129963651 -9.25261556e-05 0.0337362587 -0.134186953 0.0396009237 -0.0227272566 -0.0875723064 0.0396049283 -0.024669379 -0.0552380979 0.0281537101 -0.0186249278 -0.0582128949 0.0339036286 -0.0296371467 -0.0209628604 0.0339022875 -0.0310887638 -0.0209580157 0.0339019708 -0.0252821762 -0.0209770314 0.033899799 -0.0267621912 -0.0209811255 0.0347575732 -0.0180401634 -0.0312305447 0.0442396998 -0.0214232057 -0.071168609 0.0374757051 0.000455973204 -0.0857920423 0.0434479751 0.014893801 -0.085361518 0.0268385801 -0.0203242097 -0.096014604 0.0461298451 0.00895830151 -0.0592104718 0.0463641249 -0.0100168986 -0.0920883417 0.0375747681 0.0145327775 -0.0336241499 0.0453620218 -0.0173044074 -0.031607084 0.0438204855 -0.0134564545 -0.0585627705 0.046923589 0.0109064737 -0.0325582474 0.0385970287 -0.00530095445 -9.8356737e-05 0.0447648913 -0.0143269235 0.000178889284 0.0427033119 -0.0249929409 -0.126404718 0.0468953587 -0.00183434482 0.000409666565 0.0380418561 -0.0211854447 0.020885393 0.0188977811 0.0251940321 -0.131629273 0.0357217602 0.0306907129 -0.128789246 0.0287427995 -0.0136568323 -0.13106899 0.0390028469 0.0103163878 -0.00175829395 0.0299060456 0.0175772328 -0.0964295715 0.0378140099 0.0277994256 -0.0236072335 0.0423026048 0.0165957734 -0.057085447 -0.0140374545 -0.0294646751 -0.130392119 0.0351887196 0.0163623262 0.0330239721 -0.0339718498 -0.0350399315 -0.127193674 -0.0498962849 -0.00123229611 -0.126616269 -0.0258513056 0.0186317898 -0.130356237 0.0472526103 0.0140762478 -0.125682369 0.0061505097 -0.0492097996 -0.126424909 0.00327675929 -0.0478042923 -0.0978782251 0.0287899021 -0.0385934338 -0.0933557376 -0.0295100715 -0.0396209508 -0.0968707874 0.0347894281 0.0212355517 -0.058135163 0.0378293507 -5.68235328e-06 -0.059267588</float_array>
          <technique_common>
            <accessor source="#positions_array" count="60" stride="3">
              <param name="X" type="float" />
              <param name="Y" type="float" />
              <param name="Z" type="float" />
            </accessor>
          </technique_common>
        </source>
        <source id="normals">
          <float_array id="normals_array" count="546">-0.185104236 0.962760687 0.197048843 -0.0166937169 0.992435634 0.121625669 -0.121488363 0.976231098 0.179480866 -0.145708844 -0.916394532 0.372813553 -0.104162313 -0.939001024 0.327761054 -0.279617667 -0.892220318 0.354622126 0.0105963871 -0.0863604546 0.996207595 0.00852506142 0.0169725213 0.999819636 0.502726674 0.099904269 0.858653069 0.412149608 0.127024159 -0.902218163 0.315113634 0.108994164 -0.942774475 0.621250212 0.163600519 -0.766343951 -0.832670689 0.495564073 0.247135192 -0.877567053 0.473247647 -0.0768944845 -0.918726027 0.365906864 0.148508206 0.0291470699 0.688162506 0.724970937 0.106210731 -0.165409386 -0.980489194 0.105992727 -0.162361547 -0.98102206 0.10616897 -0.164824575 -0.980592191 -0.737400055 0.380889207 0.557821274 0.105950616 -0.161774173 -0.981123626 -0.451426268 0.88957727 0.0697607249 -0.179294169 0.11757005 -0.976745069 0.0815286264 0.203221247 -0.975732625 -0.0286459848 0.136096895 -0.990281284 -0.139623314 -0.982329071 0.124639168 -0.476185352 -0.877973616 0.0490902029 -0.318944961 -0.945333302 0.0679641291 -0.986500561 -0.000870619086 -0.163755551 -0.983426571 -0.0750209391 -0.165057838 -0.986454785 0.000360238075 -0.164033026 -0.063395083 -0.00328806974 -0.997983098 -0.997840762 0.000143485566 0.0656793118 -0.997169912 0.0751465037 -0.00227400754 -0.996838629 -0.0216289107 -0.0764523447 0.671417117 -0.257007152 -0.695087314 0.620585442 -0.234394103 -0.748286784 0.373461038 -0.127082646 -0.918899834 -0.566334963 -0.191699967 0.801570892 -0.241201177 -0.0162757281 0.970338643 -0.560352206 -0.0796802342 0.824412763 -0.993768632 0.088497825 -0.0677648336 -0.994458854 -0.10115052 0.0286375452 -0.999934196 -0.0114607513 -0.000510900049 -0.0305021554 -0.0706286207 -0.997036219 0.807789683 0.479185283 0.343303561 -0.994593263 0.101891816 -0.0200566873 -0.995917797 0.0775926486 0.0461213775 -0.738606572 -0.668564618 -0.0864964351 -0.0263919272 -0.0487041622 -0.998464525 0.994550467 -0.104141571 -0.00488736713 0.95806396 0.286512613 0.00490012299 0.998153031 -0.0560418144 -0.0234491099 -0.348335773 0.751792848 0.559883595 -0.865843594 0.138780192 0.480681777 0.150319338 0.0604908578 -0.986785173 0.180161566 0.0497449227 -0.982378364 0.139061049 -0.107016057 -0.984484434 0.595776975 -0.791195452 0.138056114 0.282830596 -0.0885142758 -0.955076993 -0.657485604 -0.224467561 0.719254434 -0.342925906 -0.0546922721 0.937768936 -0.667080045 -0.266004503 0.695877671 -0.266831785 0.730809093 -0.628266513 -0.299884111 -0.106758103 0.947983265 0.852229357 0.522274315 0.0305718426 0.762909949 0.6321311 0.135567918 -0.704217494 -0.709269762 -0.0318452418 0.184990779 -0.130039006 -0.974098682 -0.0527587719 -0.129777491 -0.990138531 -0.988342047 -0.13480705 0.0707603246 -0.683011353 -0.532794237 -0.499625623 0.281254798 0.102571964 -0.954135597 -0.081220299 0.00343030714 0.996690273 0.720604539 0.67238456 0.169198617 0.0546151102 0.987842143 -0.145551071 0.0491106585 0.994403064 -0.0935452208 -0.863882661 -0.50192827 -0.0421286896 -0.929004192 -0.368612289 0.0328053199 -0.999943495 -0.00822476484 0.00673463382 -0.140985176 0.00508205267 -0.989998639 0.276672453 0.00199037115 -0.960962236 0.958510518 0.28416431 0.0225435235 -0.660145164 -0.105783179 -0.743651986 -0.662780404 -0.117957979 -0.7394647 -0.655518591 -0.0855314285 -0.750319779 -0.654001832 -0.0791652724 -0.752339363 -0.350150466 0.0382317156 0.935912907 -0.356420428 0.0417127348 0.933394074 -0.353341401 0.040002156 0.934638798 -0.359573692 0.0434668064 0.932103753 0.0474686995 -0.149889261 -0.987562597 -0.139677256 0.984625578 0.104893938 -0.109905288 0.992569387 0.0522186384 -0.161351189 0.976396441 0.143581867 0.689322829 -0.13826853 0.711137056 -0.00687421206 -0.102936119 0.994664192 -0.322487563 0.102507629 0.941006899 -0.141063958 -0.138180435 0.980309725 -0.239878789 -0.0584239028 0.969043255 0.073616229 0.00252479431 0.997283459 0.724667966 -0.687412202 0.048173964 0.62764883 -0.778483689 0.0044860295 0.624570012 -0.77884376 -0.0575739294 -0.0444661751 -0.99644506 0.0715541914 -0.0402916633 -0.980523288 0.192225486 -0.0386056677 -0.975845575 0.215023354 -0.73574537 -0.672836959 -0.077260606 0.113106035 -0.993075967 -0.0317357294 0.0395993851 -0.997803032 0.0531135052 -0.297591418 -0.953396201 -0.0497496165 -0.808327794 0.588557839 0.014349564 -0.723413408 0.688855469 -0.0463808775 -0.741348505 0.670233428 -0.0344897024 0.89455384 -0.420637816 0.151119947 0.952664495 -0.167157114 0.253946632 0.873121023 -0.4656941 0.144182742 -0.0384090245 -0.99821049 0.045832295 -0.0445938408 -0.998027325 0.0441913642 -0.123510122 -0.100595348 -0.987231374 -0.13709867 -0.0205053929 -0.99034512 -0.831555903 0.554435611 0.0334045589 -0.806083322 -0.591075659 0.0293124188 -0.0693786889 0.997579634 -0.00463959901 -0.153109387 0.986941278 0.0500445142 -0.250621796 0.961303473 0.114386931 -0.306610972 0.939672709 0.151673719 -0.490223438 -0.860501409 0.138629973 -0.329963684 -0.939365447 -0.0933626071 0.955601692 0.29461357 0.00530973729 0.825599551 0.563026845 -0.0372306518 0.946063459 0.312926382 0.0839105546 -0.999646008 0.0136198653 0.0228557605 -0.99979949 -0.0158599839 0.0122256186 -0.996060193 -0.0642063096 0.0611688271 -0.999678254 -0.0190866552 0.0167059731 -0.995148242 0.000267762429 0.0983866155 0.0720287189 0.151616037 -0.985811591 0.0816474855 0.276422441 -0.957561672 0.0787276253 0.23713389 -0.968281746 -0.194683135 0.959487617 0.203671396 0.176686361 -0.108568624 -0.978261113 -0.612896144 0.103558637 -0.783347905 -0.126728788 0.0191632174 0.991752267 0.846972644 -0.530002594 0.0416477881 -0.348856479 -0.930984378 -0.107550919 -0.339650631 -0.925270557 -0.16885452 -0.292700946 0.294046104 0.90986979 -0.232917354 0.426711053 0.873880565 -0.289357066 0.402661115 0.868410349 -0.0422386639 0.189277783 0.981014669 0.124913841 0.0409882627 0.99132061 -0.676252365 -0.178290635 0.714769363 0.724140882 0.68939501 -0.0188271515 0.737432122 0.674599648 0.03330452 0.583140671 0.808534741 -0.0788578913 -0.777669728 -0.618646681 -0.111830898 -0.947135448 -0.30715856 0.0926715583 -0.852425754 -0.521732569 -0.0341394544 0.0709671006 0.138575971 -0.987805843 0.981663346 -0.0967124775 0.164267465 0.92265147 -0.2723203 0.273049355 0.982104897 -0.0945357531 0.162889242 0.996277452 0.053974025 0.067216523 0.983948588 0.165119246 0.0676816627 0.998320282 -0.0311346352 -0.0488596931 -0.0438156575 0.0469318032 -0.997936666 0.942928851 0.324278831 -0.0756863505 0.948014081 0.119960867 0.294751912 0.962220967 0.169677004 0.212933049 0.896196127 0.387892753 -0.215340823 -0.243542343 0.197117746 0.949648201 -0.46694091 -0.874439538 -0.131611824 -0.0639560148 0.995307267 0.0726162195 -0.0897887945 0.498524249 -0.862213194 0.00439296942 0.0542785861 0.998516142 0.256992728 -0.193697214 0.946803093 0.580548465 -0.257940441 0.772288918 0.528632998 -0.249102861 0.811477005 0.18418996 -0.176718682 0.966873586 -0.115660027 0.128291965 0.98496902 -0.256295234 0.0059822374 0.966580033</float_array>
          <technique_common>
            <accessor source="#normals_array" count="182" stride="3">
              <param name="X" type="float" />
              <param name="Y" type="float" />
              <param name="Z" type="float" />
            </accessor>
          </technique_common>
        </source>
        <vertices id="vertices">
          <input semantic="POSITION" source="#positions" />
        </vertices>
        <triangles material="scout_1a1a1a" count="140">
          <input semantic="VERTEX" source="#vertices" offset="0" />
          <input semantic="NORMAL" source="#normals" offset="1" />
          <p>0 0 1 1 2 2 3 3 1 4 0 5 3 6 4 7 2 8 5 9 6 10 7 11 8 12 9 13 10 14 11 15 12 15 8 15 8 16 12 17 4 18 10 14 11 19 8 12 4 18 12 17 13 20 14 21 15 21 4 21 9 22 16 23 17 24 18 25 19 26 20 27 21 28 19 29 22 30 21 31 22 31 23 31 24 32 19 29 21 28 23 33 24 32 21 28 23 33 25 34 19 29 23 33 19 29 24 32 26 35 27 36 28 37 13 38 29 39 18 40 26 41 30 42 31 43 32 44 33 44 25 44 27 45 26 45 31 45 34 46 30 42 26 41 30 42 34 46 33 47 35 48 30 42 33 47 36 49 5 49 37 49 38 50 35 51 33 52 39 53 36 53 40 53 7 54 39 54 37 54 41 55 42 56 43 57 44 58 35 58 6 58 12 59 28 37 27 36 12 60 31 61 28 62 36 63 39 63 5 63 12 60 45 64 31 61 46 65 6 66 35 51 30 42 35 48 47 67 38 68 48 69 43 57 28 70 31 43 30 42 44 71 5 71 39 71 6 10 5 9 44 72 6 73 36 73 7 73 46 65 49 74 6 66 20 75 26 76 1 1 50 77 0 78 51 79 17 24 52 80 9 22 18 25 1 4 3 3 43 57 53 81 38 68 53 82 35 51 38 50 27 83 31 84 13 85 27 83 13 85 12 86 52 80 43 57 48 69 43 57 52 80 17 24 41 55 43 57 17 24 26 76 2 2 1 1 10 87 0 88 4 89 4 89 0 88 2 90 0 78 10 14 51 79 10 14 9 13 51 79 48 69 38 68 54 91 9 92 8 93 15 94 7 95 37 95 5 95 20 27 1 4 18 25 55 96 56 97 29 39 18 40 29 39 56 97 57 98 55 96 3 6 3 6 0 99 57 98 55 96 29 39 3 6 3 6 29 39 45 64 3 6 45 64 14 100 3 6 14 100 4 7 33 101 56 102 38 103 11 104 28 105 58 106 28 107 30 107 58 107 54 108 55 109 57 110 56 111 40 112 19 113 37 114 39 115 40 116 11 104 10 117 4 118 52 80 48 69 50 119 51 120 52 80 50 119 28 105 11 104 4 118 18 121 56 111 19 113 53 82 46 65 35 51 54 91 50 119 48 69 0 78 50 77 57 122 56 102 55 109 54 108 25 123 33 124 20 125 33 124 34 126 20 125 25 127 20 27 19 26 50 128 54 108 57 110 36 129 37 130 33 131 45 64 29 39 31 61 43 57 42 56 53 81 32 132 25 34 49 133 25 34 23 33 40 134 46 135 32 132 49 133 23 33 22 136 40 134 25 34 40 134 49 133 18 137 3 138 2 139 16 140 9 92 15 94 44 141 7 141 36 141 17 24 16 23 41 55 16 23 42 56 41 55 26 142 20 142 58 142 47 143 58 143 20 143 22 144 19 144 40 144 44 145 32 146 35 48 13 147 2 148 26 149 4 150 15 150 8 150 14 100 45 64 15 151 45 64 12 60 15 152 15 153 42 154 16 155 42 154 15 153 53 82 12 156 58 157 15 158 2 139 13 159 18 137 36 160 6 161 49 162 40 163 36 160 49 162 36 129 33 131 32 164 32 164 44 165 36 129 30 166 59 166 58 166 26 167 58 168 59 169 59 169 34 170 26 167 28 171 13 147 26 149 15 153 46 65 53 82 47 67 35 48 58 172 35 48 32 146 58 172 12 173 11 173 58 173 29 174 13 174 31 174 34 175 59 175 20 175 47 176 20 177 59 178 59 178 30 179 47 176 15 158 58 157 46 135 46 135 58 157 32 132 51 120 9 22 52 80 56 102 54 108 38 103 4 180 13 147 28 171 40 116 56 102 33 101 33 101 37 114 40 116 39 181 7 181 44 181</p>
        </triangles>
      </mesh>
    </geometry>
  </library_geometries>
  <library_visual_scenes>
    <visual_scene id="scene">
      <node id="right_shoulder_roll_link">
        <instance_geometry url="#geometry">
          <bind_material>
            <technique_common>
              <instance_material symbol="scout_1a1a1a" target="#scout_1a1a1a" />
            </technique_common>
          </bind_material>
        </instance_geometry>
      </node>
    </visual_scene>
  </library_visual_scenes>
  <scene>
    <instance_visual_scene url="#scene" />
  </scene>
</COLLADA>