<?xml version='1.0' encoding='utf-8'?>
<COLLADA xmlns="http://www.collada.org/2005/11/COLLADASchema" version="1.4.1">
  <asset>
    <created>2026-09-14T00:00:00Z</created>
    <modified>2026-09-14T00:00:00Z</modified>
    <unit name="metre" meter="1" />
    <up_axis>Z_UP</up_axis>
  </asset>
  <library_effects>
    <effect id="scout_1a1a1a_effect">
      <profile_COMMON>
        <technique sid="common">
          <lambert>
            <emission>
              <color>0 0 0 1</color>
            </emission>
            <ambient>
              <color>0.05 0.05 0.05 1</color>
            </ambient>
            <diffuse>
              <color>0.1 0.1 0.1 1</color>
            </diffuse>
          </lambert>
        </technique>
      </profile_COMMON>
    </effect>
  </library_effects>
  <library_materials>
    <material id="scout_1a1a1a" name="scout_1a1a1a">
      <instance_effect url="#scout_1a1a1a_effect" />
    </material>
  </library_materials>
  <library_geometries>
    <geometry id="geometry" name="torso_link">
      <mesh>
        <source id="positions">
          <float_array id="positions_array" count="1188">-0.0691681206 -0.0778424516 0.0151378466 -0.0567411222 -0.101991899 0.0149550512 -0.0708707944 -0.102736823 0.0367927663 0.0323002562 -0.0431114733 0.493230551 0.0351658538 -0.0312000867 0.532356322 0.0157180298 -0.0258601662 0.562308431 -0.0657280013 -0.0893289372 0.00629393617 -0.0678842366 -0.0311296824 0.0342495255 -0.0675822496 -0.0292378161 0.016534023 -0.0484872609 -0.0566259809 0.0341097899 -0.0489754416 -0.0350484066 0.0146697061 -0.0542007945 -0.0123888021 0.0110115306 -0.0511081815 -0.0303467065 -0.00308331847 -0.0442035794 -0.0309898518 0.0079383105 -0.0347802788 -0.0990643278 0.00569193531 -0.0310460702 -0.0993769318 0.0158532634 -0.0471169502 -0.0584127791 0.0166333206 -0.0240648407 -0.0702211261 0.0166877676 -0.0452748984 -0.0615548752 0.00564400572 -0.0248810016 -0.0812877566 0.00793968514 -0.0182085056 -0.0497593172 0.00794501137 -0.0111768823 -0.0541676916 0.0151072731 -1.81292762e-05 -0.0539355241 0.00999729149 -3.39632976e-07 -0.0540000349 0.00999995321 -0.0457885154 0.018082723 0.478273451 0.0567455105 0.0329827964 0.479452133 0.0440050215 0.0303842258 0.487508714 -0.0721258149 -0.044956442 0.392538071 -0.0717033073 -0.0591802001 0.38180235 -0.0715372041 -0.0596708916 0.401123792 -0.0723273978 -0.024583878 0.399797767 -0.0714696795 -0.0329107977 0.381153107 -0.0347850993 -0.146342009 0.443827152 -0.0353284627 -0.140330508 0.40305984 -0.0350726545 -0.159569785 0.415352046 -0.0402429365 -0.10646379 0.389511764 -0.0409348533 -0.132599041 0.406335413 -0.0251106005 -0.144610688 0.382883221 -0.0363834351 -0.12793313 0.419997543 -0.0221553408 -0.140151396 0.39069128 -0.0364991762 -0.124837115 0.435327232 -0.040763393 -0.118457101 0.443902761 -0.0412765257 -0.142510191 0.393767387 -0.0421096347 -0.105910681 0.383715659 -0.0376959927 -0.13111186 0.387402922 -0.0183394589 -0.119906716 0.364726037 -0.0431666337 -0.106477417 0.444714755 -0.0396623053 -0.119507916 0.433746964 -0.0348243229 -0.107839353 0.414568812 -0.0279314723 -0.105767563 0.382270426 -0.0387676656 -0.10557954 0.429556936 -0.00552112656 -0.107379854 0.453110427 -0.0375661515 -0.0407776795 0.490861803 -0.0349689871 -0.0262295343 0.529619217 -0.0520420261 -0.0380792245 0.478889734 -0.0359749682 -0.0204435941 0.490363032 -0.0246085674 -0.0109062642 0.523745835 -0.0113652991 -0.14990826 0.382190973 -0.0156979878 -0.151506141 0.373981565 -0.0130390516 -0.110094234 0.369773418 -0.00485380506 -0.129963323 0.364064544 -0.0211676192 -0.115587145 0.445819855 -0.0105839185 -0.113422826 0.459613979 -0.0189033151 -0.106960826 0.455647737 0.0670231506 0.0697249025 0.0343496427 0.0675858632 0.0292504337 0.0165732298 0.0678505674 0.030641567 0.0341839716 -0.0179381818 -0.105879746 0.466219813 0.00555603299 -0.142205849 0.379213631 -0.0149750514 -0.140093803 0.369447798 0.00508420728 -0.146635532 0.372441053 -0.0110744033 -0.135233402 0.465699613 0.00234585186 -0.116401002 0.45375815 0.0248438325 -0.110392325 0.460986674 -0.0273296218 -0.105876975 0.364652634 -0.0203131326 -0.0273245629 0.533071876 0.00130275358 -0.0201000571 0.589490771 -0.0204128344 -0.00725495303 0.560179234 -0.0290476158 0.0249032043 0.709690988 -0.0246425793 -0.0341945812 0.707314789 -0.0187944993 -0.00749220327 0.732074976 -0.0235111751 -0.0153967896 0.700437069 0.0037070082 -0.0585816912 0.69968015 -0.00172051368 -0.0466362387 0.697531104 0.0019230399 -0.0241595041 0.567922175 -0.00613665534 0.00176017208 0.55730778 -0.0198656768 0.0066201156 0.561664939 0.0149730835 -0.0283174682 0.746974885 0.00396333961 -0.048943866 0.725420177 -0.00146641629 0.0203226265 0.586069465 0.0187104624 0.0118366834 0.75274092 0.0475417189 -0.0612626262 0.00662637549 0.0676047951 -0.0713101178 0.0342136957 0.0660055354 -0.0781891271 0.0100149941 -0.026336275 -0.0501344875 0.479858994 0.0361022614 0.0275603123 0.682457507 0.0584641509 0.0081344964 0.678662002 0.0381171964 0.0128476731 0.659663081 -0.0465390161 -0.0168879796 0.478341192 -0.0456553176 -0.0161090735 0.511234999 -0.0516110212 0.0281200167 -0.00227261661 -0.0448317043 0.0290303435 0.00768407248 -0.0556291081 0.0140277212 0.0111913197 -0.0676048473 0.0713101178 0.0342137031 -0.0467398614 0.0574004613 0.034008611 -0.0673138648 0.0324319415 0.0344658121 -0.0713677183 0.0888404697 0.0170899332 -0.0518074557 0.100998484 0.00989789143 -0.0660265237 0.0803531781 0.00916692149 -0.0476972125 0.0355787426 0.0151167801 -0.022988027 0.0714093819 0.0161017776 -0.0542877316 0.0640175641 0.00729021337 -0.0274392497 0.0712952092 0.0060164528 -0.0451463684 0.0571754277 0.0166144744 0.00969090872 0.0553591028 0.0146681275 -0.0163386445 0.0510898344 0.00737088965 -0.0316201486 0.0981880873 0.00965761859 -0.0725757703 0.0124744624 0.405759513 -0.071750477 -0.00195601746 0.379806697 -0.0728363544 -0.00280850893 0.40308252 -0.0724036843 0.0622780882 0.409602821 -0.0698933601 0.0415785573 0.392124265 -0.0704086348 0.0244079418 0.390126616 0.0146064702 0.0238266531 0.68930769 0.0269832816 0.107676603 0.463903695 -0.0155077195 0.107968129 0.464155763 0.0712868497 0.101706825 0.475660205 -0.0244499352 0.010986154 0.523308694 -0.0429808684 0.0135956649 0.519382954 -0.0372129194 0.0201671105 0.488778621 -0.0487962216 0.0366624705 0.493714631 -0.0331278369 0.0337107442 0.504231513 -0.0306664016 0.0476133265 0.489312232 -0.0366845429 0.0272559486 0.525505483 -0.0404329784 0.10641633 0.390184164 -0.0351647697 0.107592687 0.415018618 -0.0263534617 0.106706128 0.380369455 -0.0356885046 0.141996264 0.389374673 -0.024632534 0.107165731 0.363175362 -0.0411964096 0.106449828 0.382278383 -0.0363631882 0.127723336 0.418830305 -0.0258437134 0.137156352 0.394191444 -0.0374543592 0.125464842 0.433793306 -0.042430412 0.141959265 0.394861788 -0.0413617715 0.11621552 0.445224047 -0.0397342779 0.122811891 0.431529731 -0.0189927444 0.10898719 0.455859244 -0.0357566103 0.104557537 0.4351345 -0.0342356265 0.140366167 0.392808735 -0.0355639011 0.139828369 0.403877795 -0.0347025096 0.145980492 0.444648236 -0.0348435566 0.160209656 0.414684951 -0.020833075 0.112777695 0.442664891 -0.0429638587 0.105848834 0.445667386 -0.0183837134 0.12141069 0.365442395 -0.0190576874 0.149331376 0.377156854 -0.00856092572 0.107327521 0.365691245 -0.010910959 0.115861647 0.45688343 -0.00630023237 0.130957603 0.36344111 -0.0108620878 0.150132045 0.381284803 -0.0117687685 0.170063868 0.393085092 0.000155208501 0.107455961 0.453611612 -9.23129701e-05 0.143905595 0.380145699 -0.0132721569 0.147305205 0.370926052 -0.00677808328 0.147378474 0.372741759 -0.00732932752 0.0229900759 0.736164451 0.000748451741 0.0235817526 0.567712545 -0.00308573013 0.0534862541 0.702320576 -0.0100586833 0.0379009843 0.697069049 0.0757882074 -0.0218962207 0.545208097 0.0792476684 -0.046456445 0.567694008 0.0380551182 -0.0172570981 0.573492944 0.0267160144 -0.0464629717 0.0078215627 1.91001945e-07 -0.0540000349 0.00999995321 0.0292705931 -0.0470987447 0.0151607711 0.0255543105 -0.0691624805 0.0161901116 0.0249490645 -0.0805678889 0.00765579613 0.0451071486 -0.0571898781 0.0165494755 0.050816182 -0.0170432217 0.00786955934 0.0532711223 -0.0159996301 0.0152597595 0.0713473409 -0.088968873 0.0172726084 0.0551562048 -0.0992517769 0.00907456782 0.0473637544 -0.0568531565 0.0343031101 0.0676278025 -0.0302627981 0.0343572199 -0.04634903 0.0424195081 0.47819823 0.0368748605 -0.165489167 0.408159345 -0.0109209102 -0.170468852 0.392360151 0.0224173646 -0.167753607 0.39084965 0.0234353654 -0.150268883 0.380830616 0.0223683026 -0.144433856 0.369753271 0.0238826107 -0.125973195 0.36454764 0.0234637074 0.149246424 0.372131675 0.0347707234 0.10646338 0.361433476 0.0236180481 0.126194194 0.364924312 0.0200715903 -0.108011685 0.365891188 0.0208495129 -0.145647809 0.384873569 0.0267686564 -0.150337249 0.37439847 0.0341500603 -0.143721238 0.381186008 0.036649704 -0.13982743 0.394670218 0.0372594111 -0.10702949 0.379494309 0.048175022 -0.108755745 0.381334484 0.0219124109 -0.136674419 0.465505928 0.0280843209 -0.116266236 0.451941252 0.050807938 -0.125329241 0.432935655 0.0123298969 -0.109205067 0.454946995 0.0491596237 -0.11896418 0.436693966 0.037831381 -0.117798366 0.440160424 0.0358552523 -0.106734499 0.43789506 0.0318546295 -0.105458274 0.453036487 0.0242767055 -0.0107194195 0.533059657 0.030814074 -0.0277853198 0.49039036 0.0518493019 -0.142322049 0.392553449 0.0476663187 -0.139270544 0.404301822 0.0464803986 -0.16032432 0.413727969 0.0520313568 -0.133171543 0.405592561 0.0444911607 -0.129055768 0.426696479 0.0465668924 -0.145138994 0.443795085 0.0396676175 -0.106473766 0.366095781 0.0503678061 -0.129683822 0.390511245 0.0254326817 -0.0985369086 0.0344954617 0.0230540261 -0.0698886961 0.0341047011 0.0456732251 -0.107176766 0.408949643 0.0451993719 -0.129500538 0.411547393 0.052504342 -0.118057989 0.445316434 0.0817053244 -0.071437791 0.671237171 0.107700124 -0.0622332692 0.675668716 0.0618830137 -0.065887548 0.717848003 0.0220157076 0.115350544 0.456812501 0.0503201894 -0.106553167 0.429755181 0.0505470671 -0.106240548 0.451117665 0.0458935089 -0.0428727865 0.486679643 0.0452448092 -0.0296867657 0.491632342 0.032299228 0.101060875 0.015345661 -0.0254001301 0.09857779 0.0345123149 0.0534374267 -0.106057599 0.386766165 0.0717620999 -0.0278158262 0.400119603 0.0721174255 -0.0456561409 0.402535081 0.0715073571 -0.0314144157 0.379304081 0.0715401247 -0.0513820276 0.383252323 -0.0224426314 -0.0715185478 0.0344853401 -0.0252722465 -0.0984644741 0.0343481526 0.0700337887 -0.0134852985 0.386532217 0.071833916 -0.00618142122 0.404675424 0.0719350353 0.00721049355 0.378727973 0.0353012867 -0.0641500726 0.722350657 0.0223398488 -0.0263202526 0.58966285 0.00116205309 -0.00388555648 0.691119492 0.0319485739 -0.0286945868 0.683221817 0.0674926043 -0.0555936731 0.677233279 0.0157025289 -0.0123761157 0.592578948 0.0255363975 -0.023933107 0.597106397 0.0100349598 0.0120762112 0.667090237 0.0124044847 -0.0155948475 0.668721974 0.0376486108 -0.0721222609 0.692217886 0.0281231981 -0.0125802336 0.571612179 -0.0677553713 -0.0727121532 0.0341792852 0.0228655878 -0.0146855973 0.57943517 0.0342801809 -0.0108552473 0.590018332 0.0309461635 0.0117304344 0.589575112 0.0497577637 0.00959504116 0.580273509 0.0542885959 -0.0161254033 0.679477692 0.0391046852 -0.0154806497 0.53385675 0.0381775796 0.0138670048 0.536965847 0.0236241762 0.0244230404 0.575513959 0.0297725312 0.149708107 0.376678079 0.0228576083 0.149715438 0.381542772 0.0330919884 -0.00826221611 0.656604409 0.0566747114 -0.026192788 0.749937057 0.0508068204 0.0286887605 0.750397623 0.0639450476 -0.0713108853 0.685015559 0.0662118644 -0.0622182973 0.687017977 0.0668784529 -0.0377070941 0.586058259 0.0375133082 0.0140319625 0.572283149 0.0714682639 -0.0176107604 0.564332664 0.079596296 0.00437508523 0.747783124 0.0964972302 -0.0505609177 0.714054525 0.0747301131 -0.0553407483 0.648303211 0.0820239857 -0.0448777676 0.60483408 0.07534834 -0.0471744686 0.59733963 0.0784502178 -0.0176115353 0.570224643 0.0135971708 0.108798012 0.454558372 0.0389791578 0.106765799 0.431337148 0.0358719528 0.116741695 0.44265911 0.0783337802 0.0177627578 0.569473147 0.0851719454 -0.0641185716 0.60893482 0.097369276 -0.0628680587 0.655650973 0.0872217566 -0.031199988 0.558203161 0.0927042067 -0.0594121478 0.614519477 -0.0700576976 0.102333136 0.475806177 0.0843024403 -0.0496496819 0.670098782 0.105962008 -0.0429622829 0.670817256 0.0637434945 -0.0455698408 0.740337491 0.102405153 -0.0222250223 0.730310678 0.125670239 -0.0406826697 0.690823138 0.106548399 0.00474606361 0.729420185 0.03478029 0.0990643129 0.00569192739 0.0248808917 0.0812880024 0.00793973263 0.048499357 0.0264806841 0.0151644116 0.044435095 0.0311313607 0.00764647406 0.0473732911 0.0583871193 0.0172754824 0.0243364088 0.0699516237 0.015974462 0.0452748016 0.0615548566 0.0056440155 0.0574199855 0.098625198 0.0101767629 0.0719957277 0.0866964534 0.0169575009 0.0652700961 0.0763582587 0.0101099843 0.0703839883 0.10296198 0.0371456593 0.0676096603 -0.0292008277 0.0163038336 0.0278229788 0.143718943 0.387067318 0.0277553219 0.11065238 0.371583909 0.0230286475 0.136543185 0.46436736 -0.0111728022 0.135965794 0.465739429 0.0318921693 0.0432020277 0.492976278 0.0308276862 0.0275901519 0.490990758 0.0263281986 0.016866494 0.524179161 0.0304297078 0.106874175 0.454940915 0.0488413423 0.109725267 0.381953359 0.0504693724 0.117783524 0.444223404 0.029290719 0.144426182 0.378260523 0.0438695587 0.0433254503 0.487987339 0.053646218 0.0487490296 0.490712792 0.0458249636 0.105923161 0.398928106 0.0493725911 0.10577178 0.431386948 0.0505543277 0.120010473 0.434298187 0.0498779491 0.107887633 0.450014055 0.0508610532 0.141802937 0.390788049 0.0520607643 0.106056862 0.38210243 0.0469648428 0.128566086 0.416484505 0.0468254127 0.12550813 0.435370415 0.0480993465 0.137775764 0.394850165 0.046063453 0.159350216 0.413086534 0.0523079038 0.138854861 0.401171714 0.0409408286 0.140776485 0.400288403 0.0577069335 0.0481829531 0.478286535 0.0711275786 0.0299431309 0.384940356 0.0724682584 0.0349683128 0.398038477 0.0717883036 0.0159200318 0.39926514 0.0712732673 0.0510948002 0.390890658 0.016022196 0.0119358962 0.592732489 0.0856184438 0.0177407432 0.551302969 0.0170110054 0.0261243526 0.559693396 0.020481877 0.023261454 0.598255336 0.029458208 0.0289275274 0.591411352 0.0213365182 0.0147021264 0.580301404 0.0935279876 0.035424266 0.731104553 0.0891546756 0.0426081158 0.573623657 0.0821872056 0.0458634309 0.607400954 0.0712417811 0.0393579938 0.584661901 0.0223837532 0.0465177111 0.737525702 0.0583587997 0.0627016425 0.725986362 0.0098112179 0.0553425699 0.721429348 0.0305626653 0.0717262924 0.694464087 0.0792182684 0.0466906279 0.568086982 0.0754527226 0.0235299282 0.545999765 0.0713604912 0.0183052681 0.565706849 0.0439375192 -0.0301204547 0.478594095 -0.0230539795 0.069888711 0.0341047272 0.0631860718 0.0724840388 0.685756862 0.0691667274 0.0556813069 0.676620245 0.0661399812 0.0624791197 0.687151313 0.0333929881 -0.0997544155 0.00849781279 0.0762552693 0.0537474826 0.620863557 0.0855077356 0.0647587031 0.612254381 0.0809017345 0.0715992898 0.673163056 0.100549035 0.0587755404 0.697460473 0.0998911336 0.064850308 0.66333288 -0.0699664578 -0.10265585 0.475817412 0.0701380894 -0.102510378 0.475710452 0.125395149 0.041349303 0.69053483 0.0925513357 0.0580377951 0.609229922 0.0830717906 0.0509607904 0.656022787 0.0971862152 0.0460828915 0.668279409 0.0724364296 0.0433136038 0.677612662 0.106613114 0.044325646 0.672682166 0.0224433616 0.0715159923 0.0344842486 -0.0676302537 0.0292717051 0.0163862705 -0.0709780082 -0.0146045359 0.340874285 -0.0721495152 0.00405268837 0.340699077 -0.0697118193 -0.101787157 0.085903123 -0.0692912191 0.101897836 0.0858025923 -0.0711454898 0.0616305545 0.378611982 0.0699208155 0.1019651 0.0858431309 -0.0210456196 -0.0295477398 0.480575472 0.0696736202 -0.101793043 0.0857946202 0.0702083483 -0.0674521104 0.386778265 0.071282275 -0.0140686315 0.340438694 0.071066983 0.00493883854 0.341071069 -0.0709850043 0.10245873 0.036675334 0.070957996 -0.102538414 0.0369361751 0.0252556149 0.0983856469 0.0343527943 0.0457040556 0.146804079 0.444011211 0.0587608665 -0.0472407714 0.479923129 0.0465694144 0.056783393 0.0339969099 0.0215216223 0.170407191 0.392361075 -6.04280181e-10 -0.0410000049 0.485633582 -2.06801842e-09 0.0410000049 0.485511899 0.071100235 0.0691452175 0.389985383</float_array>
          <technique_common>
            <accessor source="#positions_array" count="396" stride="3">
              <param name="X" type="float" />
              <param name="Y" type="float" />
              <param name="Z" type="float" />
            </accessor>
          </technique_common>
        </source>
        <source id="normals">
          <float_array id="normals_array" count="2964">-0.766718566 -0.390686899 -0.509417713 0.15255487 -0.948509932 0.27758944 0.121938117 -0.960172534 0.251395702 -0.149325833 -0.987628937 0.0478626676 -0.861747444 -0.445284009 0.24313274 -0.793648064 -0.60336107 -0.0779627785 -0.802309632 -0.59440589 -0.0545976497 -0.812012732 -0.583044529 -0.0263514314 -0.974745154 -0.215069637 0.0601412021 0.755836725 0.479832649 -0.445501387 -0.2192287 -0.652022183 -0.725813925 0.103378728 -0.992279351 -0.0685170516 0.449187815 0.876090884 -0.175200254 0.362619102 -0.88917774 -0.279052556 0.843562365 -0.42888996 -0.323196381 0.959275424 -0.227431387 -0.167527974 0.863414705 -0.417903095 -0.282616436 0.551691473 0.491804481 -0.673620701 -0.434191644 -0.601579905 -0.670506656 -0.244673908 -0.914370716 -0.322584599 -0.447799236 -0.88773632 -0.106770925 -0.387465715 -0.904825985 -0.176522583 -0.162719011 -0.903549731 -0.396384209 -0.0345751904 0.0319129042 0.998892426 -0.109671153 0.0107677486 0.993909597 -0.0404297262 0.0299821794 0.998732448 0.23971343 -0.970755279 -0.0131023591 0.144237354 -0.985463977 -0.0897573978 0.135872677 -0.977508128 -0.161296323 -0.99989748 -0.010870751 -0.0093217399 -0.998986423 -0.0448911339 -0.00330819539 -0.99946177 -0.0321723595 0.00640719151 -0.999778688 -0.016567355 -0.0129650701 -0.999551773 -0.00844013877 -0.0287221894 -0.998599708 -0.0526098981 0.00555195147 -0.999337792 -0.0354759581 0.00808832888 -0.999907315 -0.00527707674 0.0125489915 0.938129067 0.134491786 0.319101483 0.975162685 0.0976443067 0.198804855 0.660235226 0.36942476 0.653922617 0.105892897 0.922073245 -0.372246772 0.295072854 0.858951926 -0.418489665 -0.0640356839 0.886054099 -0.459137917 -0.34058708 -0.828729212 0.444081485 -0.204079509 -0.820153713 0.534508646 -0.17684637 -0.930218399 0.321588457 -0.245619535 -0.896956205 0.367614806 -0.996889114 -0.0787995011 0.0016672808 -0.640017748 -0.211418331 -0.738701284 -0.756427824 -0.222472131 -0.615079761 -0.658873618 -0.240706414 -0.712703288 0.612693548 0.352108508 0.707549453 -0.973397672 -0.202533633 0.107131004 -0.989733756 -0.13140291 0.056217242 -0.998778582 -0.049363099 -0.00214156299 0.185925588 0.839908898 -0.50988692 -0.293769449 -0.954889655 0.0434192531 -0.0168763697 -0.998547494 -0.0511678234 0.0214812588 -0.998001158 -0.0594326407 -0.155441314 -0.983967066 0.0874459743 -0.0633587837 -0.997904062 0.0131584164 -0.408041894 -0.851435006 0.32948488 -0.170867532 -0.936810136 0.305272162 -0.425419986 -0.845040381 0.323920608 0.950357735 -0.0817317143 -0.300233364 0.902338803 -0.00887481403 -0.430936068 0.943388104 -0.0479071699 -0.328213006 -0.0652910322 -0.97144562 0.228101805 -0.0828995407 -0.969086409 0.232377335 -0.0980583876 0.874994993 -0.474097311 -0.825380385 -0.224412769 -0.518059969 -0.394730061 -0.356267393 -0.84691304 -0.702080548 -0.348071486 -0.621231914 0.219403595 0.496891528 0.839619458 0.186600357 0.737337828 -0.649240494 -0.0567634217 -0.724854708 0.6865592 0.00181382766 0.751347303 -0.65990448 0.437086284 -0.568402886 0.697046399 0.441827118 -0.564955533 0.696860135 0.422198147 -0.579033017 0.697473645 0.415867895 -0.583464324 0.697583914 -0.978043854 0.0198406745 -0.207452446 -0.951485813 -0.119668521 -0.283468127 0.768606365 -0.229055047 -0.597308993 -0.882819474 0.185129553 0.431690723 -0.567615986 0.70623368 0.423138291 -0.0360987633 -0.999025226 -0.0254053883 -0.998031378 -0.0363287255 0.051123295 -0.999110699 -0.0278096106 0.0316920877 -0.999634981 -0.0212336015 0.0167026762 -0.122201264 -0.718643069 0.684557557 -0.635848701 -0.178454354 0.750899732 0.11765565 0.831758559 -0.542526364 -0.398592621 -0.319679737 -0.859609663 -0.100310467 -0.329488218 -0.938815892 -0.406755328 -0.323055238 -0.854508877 0.0801214576 0.831629872 -0.549520075 -0.377913088 -0.270115554 -0.885561585 -0.0467395112 -0.429546803 -0.901834249 0.445079684 0.231368616 0.865085363 0.182113677 0.430711985 0.883924067 0.0505718812 0.351836443 0.934694409 0.0401699282 -0.762234211 0.646053731 0.0509568155 -0.840224802 0.539838552 0.390402019 0.245526999 -0.887300849 -0.0982563272 0.759033322 -0.643594623 -0.127155662 -0.965705037 0.226373971 -0.244148985 -0.948379219 0.20240587 -0.814694941 -0.0615004897 0.576619327 -0.824071527 -0.120070919 0.553614616 -0.879366815 -0.137780428 0.455774665 -0.781406581 0.344056755 0.520604193 -0.739488959 -0.461668104 0.489916921 -0.740150809 -0.120274104 0.661597252 -0.947531283 -0.0579874292 -0.314359576 -0.351238817 -0.313164264 -0.88236016 -0.502835751 -0.284591854 -0.816188514 -0.406964004 -0.263129115 -0.874724746 -0.404907107 -0.0787940398 -0.910956502 -0.161387801 -0.977743506 0.134058312 -0.537050903 0.843245387 -0.0226613544 -0.222878635 0.969254136 -0.104266539 -0.477559 0.877979994 -0.0329936333 -0.26401177 0.11297825 -0.957879782 -0.298731416 -0.363343894 0.882462919 -0.474527031 -0.679804742 0.559186518 -0.817543924 0.0550454259 0.573229432 -0.236773014 0.125909328 0.963371873 0.647363126 0.742617726 -0.171580404 0.627425492 0.757487118 -0.180417806 0.679439187 0.692734718 -0.241828486 -0.413575858 -0.857200861 0.306857765 0.555161893 0.720319033 -0.415855527 -0.967371106 0.25191173 0.0270863064 -0.951096237 0.251629293 0.179161102 -0.967576563 0.251782179 0.0200320687 0.68955946 -0.593353689 -0.41525799 -0.0142213004 -0.00659023458 -0.999877155 -0.654776156 0.43294704 -0.619536161 -0.252861917 0.318672925 -0.913514316 -0.544290185 0.107906431 -0.831928134 0.536747634 0.724915922 -0.4317393 0.255747706 -0.961348176 -0.101994097 0.344460577 -0.563282192 -0.751039386 -0.276642501 0.814191937 0.510451198 0.932078719 0.233884975 -0.276635259 0.959555924 0.172836468 -0.222216129 0.89679122 0.193305746 -0.397993028 -0.676571608 -0.724014401 -0.13436535 -0.667384505 -0.732999623 -0.131565183 -0.800026655 -0.546442688 -0.247704968 -0.999559224 0.0214101858 -0.0205665752 -0.998575151 0.0349841081 -0.0402967408 -0.999988198 0.00306624407 -0.00376586267 -0.998634279 0.0449948832 -0.0265536234 -0.996991038 -0.00150041515 -0.0775026605 -0.996603608 0.0408305489 -0.0715132579 -0.683130682 -0.28170225 -0.673777699 0.279319823 0.135820299 0.950543702 0.0894385576 0.845246851 0.526838183 -0.0616589077 0.858660758 0.508822024 0.159408823 0.977555513 0.137746409 -0.137663007 -0.981471658 -0.133275285 -0.0528191254 -0.982592821 -0.178105325 0.217849851 -0.975113451 -0.041172564 -0.301580369 0.857494116 0.416837066 -0.129438594 0.909458041 0.395135015 -0.374541581 0.805027127 0.460054308 -0.156356961 0.954163849 0.25519377 -0.0466138348 0.998212814 -0.0373950079 -0.649280131 0.271465182 -0.710451961 -0.632682145 0.290321946 -0.717932045 -0.723109245 0.241254985 -0.647231817 -0.922044694 0.018320065 -0.386649638 -0.950403571 0.0898929909 -0.297745377 -0.946118057 0.0766551942 -0.31461814 -0.476414114 0.760005355 0.44206506 -0.181060284 0.922251821 0.341568172 -0.273750454 0.781996787 0.559947968 0.977573812 0.0159767736 -0.209986061 0.7722404 0.0431012698 -0.633866787 0.902305961 0.114544466 -0.415600121 -0.612812936 0.244942904 -0.751307666 0.983812273 -0.179081813 -0.00657052221 0.956071854 -0.283387691 0.0749537349 0.994222105 -0.107018091 -0.00833551306 -0.206145898 -0.788547158 -0.579393923 -0.256890297 -0.860849917 -0.43925485 -0.207220048 -0.838577151 -0.503833532 -0.205281377 0.905886829 0.370443851 -0.995789707 0.0913802609 0.00724987872 -0.999508739 0.0262268446 0.0171599165 -0.997627854 0.067982018 0.0108194463 -0.531701863 0.83962065 0.111041814 -0.522258878 0.845375419 0.112187929 -0.613229275 0.783526599 0.100179516 -0.560843289 0.121696286 0.818929076 0.555561244 0.424597383 0.714890778 0.498335302 0.469677269 0.728742182 0.51705569 0.455448002 0.724721014 -0.615510106 0.258961558 -0.744369686 -0.547282636 0.390298218 -0.74037087 -0.565495491 0.374462962 -0.734841704 -0.606085658 0.337154031 -0.720407724 0.571498513 0.411162019 0.710165679 -0.960339069 0.128422111 -0.247500747 -0.282282174 -0.926740468 -0.24792929 -0.249703318 -0.891036034 -0.379081905 -0.231907859 -0.88495934 -0.403813899 -0.172146007 -0.952888846 -0.249737024 -0.107194051 0.715250373 0.690598547 -0.463544428 0.300412774 -0.833593845 -0.111888312 0.944629669 0.308473408 -0.222966015 0.939383566 0.260470033 -0.0596365482 0.989877343 -0.12878792 -0.1238776 0.990840256 0.0537583604 -0.710818529 0.343247324 -0.613936663 -0.716336489 0.331053376 -0.614219606 -0.712902725 0.338681757 -0.614055634 0.153161213 0.0894365907 -0.984145701 -0.458622515 0.0187380649 0.888433635 0.0485178307 0.968017161 -0.246147975 0.387415051 -0.308225304 0.868853688 -0.10732305 -0.959446192 -0.260662198 -0.517068148 0.415441602 -0.748364091 -0.732994199 -0.00115236582 -0.680233955 0.0526872836 -0.874924064 -0.48138541 -0.00660317158 0.965091288 -0.261830449 -0.0148652354 -0.922180176 -0.386474699 -0.862945557 0.187433019 0.469248116 -0.885864258 0.226949692 0.404646009 -0.867842734 0.204043463 0.453006864 -0.823402584 0.116515838 0.555366755 -0.351098001 -0.934123695 -0.0643673688 -0.303753972 -0.950038373 -0.0718374178 -0.578274012 0.345254719 0.739187658 -0.094257772 0.981822312 0.164743543 0.965254426 -0.06810835 -0.252279878 0.858322203 -0.0306871533 -0.512192667 0.891319335 -0.0350625776 -0.452018142 -0.154288292 0.981458604 0.113728449 -0.48589015 0.46644783 -0.739146292 -0.513998032 0.280926734 -0.810485125 -0.623455524 0.169664726 -0.763228118 -0.519744635 -0.615573823 -0.592397153 -0.50712502 -0.590794325 -0.627523959 -0.40176928 -0.607813656 -0.684940875 0.00190139678 -0.0416452363 -0.999130666 -0.00082480436 -0.0261964351 -0.999656498 0.0212745778 -0.360639364 -0.932462692 0 -0.437349021 -0.899291873 0.0644548163 0.0594121218 0.996150494 0.0353433341 0.0511655621 0.998064578 0.2664693 -0.79441607 0.545799613 0.170554206 -0.974797547 -0.143808857 -0.490654945 0.595241308 -0.636353254 -0.479354888 0.710519254 -0.515151739 -0.491255015 0.538398623 -0.684686363 -0.465332419 0.772897422 -0.431387603 0.775795639 -0.60199815 -0.189048484 0.74199456 -0.602986336 -0.293004394 0.736113727 -0.602508962 -0.308414549 0.779833376 -0.601276875 -0.174143627 0.581492364 -0.0476103462 -0.812157512 0.673889279 -0.392088503 -0.62621069 0.314379632 -0.247998103 -0.916330934 0.72050941 0.685513377 -0.104583152 0.594038904 0.795001924 -0.122840144 -0.00191952719 0.00349760498 -0.999992013 -0.997583091 -0.0227728449 0.0656460375 0.00777207687 -0.901969433 0.431729883 0.00103954552 -0.92285496 0.385146201 0.0837380439 -0.994668841 0.0601817258 -0.00264808396 -0.981311917 0.192405477 0.110183597 -0.874954402 -0.471502244 -0.0164655894 -0.461533368 -0.886970043 -0.0390617326 -0.495084047 -0.867966592 -0.0265077967 -0.476551831 -0.878746688 0.303173691 -0.306066185 -0.90244621 0.259115368 -0.224017248 -0.93950814 0.00321695185 0.527208209 0.849730074 -0.446172893 0.270050049 0.853230774 0.305951029 0.344933838 -0.887363851 0.629010141 0.260415584 -0.732482016 0.170714617 0.263836384 -0.949340224 0.289659798 -0.37496227 -0.880625069 0.367475986 0.766397357 -0.526874304 -0.624519229 -0.714204669 -0.316049665 -0.145694405 0.989291906 -0.00864133146 -0.194533184 0.966609716 -0.166800663 -0.122179851 0.989569247 0.0763200149 0.559191406 -0.303455085 -0.771504998 -0.618287623 0.401929319 0.675405979 -0.207464203 0.940600693 -0.268754482 0.434530586 -0.398416102 -0.807742357 0.769466281 -0.282296121 -0.572914124 0.763298392 -0.266881764 -0.588344932 -0.478283912 -0.165988028 0.862376094 -0.716405332 0.19110094 0.67100215 -0.347091615 0.196399495 0.917035818 -0.168146759 0.367702901 0.914615333 0.818041265 0.125660121 0.561264694 0.93165046 -0.0418496244 0.360937774 0.764662266 0.174760416 0.620282471 0.683098018 0.2402004 0.689696193 -0.186511725 0.658986151 -0.728663623 -0.0671725497 0.867435932 -0.492993653 -0.089772962 0.804088652 -0.58769232 0.548499823 0.260642618 0.794489384 -0.195933208 0.64389354 -0.739602149 0.176524848 -0.975820959 0.128889158 0.199427098 -0.970637798 0.134503067 0.0857865959 -0.991940022 0.0932504684 -0.968343556 0.0222669654 -0.248626068 -0.987743855 -0.115281574 -0.105224445 -0.987030625 -0.06286183 -0.147712439 0.21948041 -0.967701197 0.124027379 0.191548377 -0.937448859 0.290686816 0.204731509 -0.965892196 0.158547238 0.321470916 -0.879208088 0.351638466 0.697547138 -0.373131931 -0.61171937 0.604155302 -0.353725821 -0.714054883 0.692998469 -0.375759304 -0.615270734 0.00468246546 0.894390941 -0.447261512 -0.823970556 0.328540683 0.461663842 0.990450203 0.00588053791 0.137745366 0.998271644 0.0528378673 0.025726201 0.997712553 0.0412653647 0.053542912 0.749583423 -0.434299737 -0.499508202 0.686473727 0.231000543 0.689487219 0.539137423 -0.164125174 -0.826071262 -0.190710261 -0.952404022 0.237815499 -0.200393066 -0.925962806 0.320055515 -0.165355116 -0.982165396 0.0894917101 0.91337347 -0.00712405518 -0.407060385 0.737001896 -0.22098127 -0.638745189 -0.976090789 -0.160693467 -0.146370858 -0.966775775 -0.220128134 -0.129954606 -0.997795522 -0.0219565295 -0.0626257583 0.999685049 -0.000196187219 -0.0250954255 0.946974337 0.144352257 0.287057519 0.992283583 -0.0751591101 -0.0986123011 0.149767384 0.909139812 -0.388631642 0.0716281757 -0.864325583 0.497805923 0.311284781 -0.947138011 0.0776618794 0.421531826 -0.88259238 0.208186522 0.187502846 -0.876792192 0.442807108 0.108758107 0.71584475 0.689737558 -0.0775812268 -0.995980978 0.0447553135 -0.762457609 -0.259967357 -0.592516184 0.0250285603 -0.998944879 0.0385055393 0.248133868 -0.487161338 0.837319195 0.345664978 -0.72558552 0.595013738 0.319060832 -0.65889734 0.681215405 0.212127715 -0.402105659 0.890681148 0.150544599 -0.948765218 0.277814388 0.968474865 -0.0772816986 0.236820519 0.942685783 -0.224150985 0.247183785 0.970222354 -0.0418747813 0.238568753 0.0110935168 -0.995362282 -0.0955557302 0.0359649397 -0.999128759 -0.021170957 0.0444959886 -0.998999298 0.00452761585 0.0123108877 -0.158104733 -0.987345576 0.163869053 -0.893898308 0.417244166 0.109861821 -0.898343563 0.425334215 0.818514824 -0.192163199 -0.54139334 0.998159409 0.0267231725 -0.0544398017 0.999765038 -0.0212874226 -0.0040912265 0.999396086 0.0342811346 -0.00568394642 0.996853948 -0.0639384985 -0.0468414351 0.995007873 -0.0774966553 -0.0628772303 0.962709963 -0.233082205 -0.137339666 0.999556422 -0.00929802749 -0.0282928124 0.999761164 -0.0146839814 -0.0161847509 0.999820292 -0.018812852 -0.00232412666 -0.44461149 -0.848764777 0.286214858 -0.159398183 -0.841693521 0.515891731 -0.231818274 -0.930190206 0.284616292 -0.366621614 0.0332232788 -0.929776728 -0.294385701 -0.167557821 -0.940883338 -0.297007889 -0.151031315 -0.942855179 -0.427636266 -0.030729536 -0.903428435 -0.39247933 -0.0183202531 -0.919578373 -0.37830326 -0.01337176 -0.925585151 -0.157805666 0.0723421946 0.98481673 -0.361972004 -0.0684721693 0.929670811 -0.255019099 0.0905338749 0.962688386 -0.277254015 0.136648655 0.951029599 -0.909393668 -0.10165628 -0.403322667 -0.104778618 -0.971243024 0.213795438 -0.963653624 0.0324659273 -0.265174836 0.966692626 -0.0405141041 0.252713323 0.96784091 -0.110445917 0.226021275 -0.224205524 -0.895873725 0.383591145 -0.380731076 -0.598065019 -0.705238998 -0.22745356 -0.738351882 -0.634902656 -0.607093632 -0.787404299 0.106919363 0.999963701 -0.00630721776 -0.00572912302 0.998557806 -0.023557134 -0.0482432917 0.997365892 -0.0306534953 -0.0657390133 0.685411453 0.682567 0.253600866 0.110889114 -0.966780007 0.230304211 -0.621762156 0.651394129 0.434853375 0.349009097 -0.111212865 0.930496812 0.348489463 0.0295909736 0.936845481 0.506812751 -0.190822765 0.840670884 -0.172316104 -0.00163059193 -0.985040367 0.307752222 0.914424598 -0.262899607 0.162264362 0.967379987 -0.194541052 0.275156409 0.91923368 -0.2815997 0.0878175944 0.107686542 -0.990298808 -0.126653016 0.00424887519 -0.991937995 -0.341611862 0.00992660597 -0.939788699 0.243627086 0.130953729 -0.960987508 0.0989571288 0.985310733 0.139176875 -0.012935793 0.997125983 -0.0746486709 0.0630371943 0.995878041 0.065216586 0.113694489 -0.790446043 -0.601887524 0.330260456 -0.755527377 -0.565779507 0.160766274 -0.786242187 -0.596638441 0.15105857 -0.2519674 0.955873311 0.102305844 0.328625917 0.938902855 -0.232166559 -0.389015526 -0.891496301 -0.295714378 -0.290954053 -0.9098894 0.107313916 -0.979827106 0.16858983 0.971436799 -0.23512584 -0.0320371501 -0.212639749 -0.928290129 0.305060208 -0.213542044 -0.92997545 0.299241424 0.0128802378 0.509837151 -0.860174477 -0.00142475741 0.491550267 -0.87084806 -0.0096622007 0.480873644 -0.876736701 0.499330312 0.502051175 0.706125975 0.404509038 0.367578506 0.837411761 0.331240177 0.268742591 0.904465258 -0.411041975 -0.031047659 -0.911087573 -0.58341378 -0.00951893907 -0.812119305 0.565590024 -0.0315145999 0.824084222 0.364975125 0.0357981585 0.930328786 -0.581274092 0.310548156 -0.752117157 0.51131165 -0.666055679 0.543074846 -0.574295104 0.817271948 0.0474520735 -0.475196391 0.870262563 0.129735991 -0.454943746 0.880148947 0.135513946 -0.760861516 -0.555711389 -0.335073978 -0.788297534 -0.570413709 -0.230684265 -0.745258987 -0.502780914 -0.437950224 -0.0659557804 0.739404798 0.670022666 -0.792077541 -0.599880397 -0.112945698 -0.674667656 -0.730408192 -0.106430486 -0.742448688 -0.660192907 -0.113645099 0.537464023 0.559421599 0.631015003 -0.53192836 0.631701827 0.563919306 -0.696412146 0.497969031 0.516756177 -0.482767999 0.662990034 0.572170675 -0.726463735 0.467253089 0.503909707 0.537269831 -0.554204941 0.635765672 -0.644870996 0.0141113074 0.76416117 -0.504131258 -0.0275904536 0.86318624 -0.622780979 0.0071795145 0.782363236 -0.827693939 -0.546538949 -0.127349451 -0.830517113 -0.547075212 -0.10464257 0.401098788 -0.909176409 -0.111884199 0.640849233 -0.710942328 -0.289608926 0.434026092 -0.629907072 -0.644079566 0.655422032 -0.615158021 -0.438180953 0.631079018 -0.742152274 -0.225719556 -0.078782402 0.0106734168 0.996834695 -0.0585968234 0.017675953 0.998125255 -0.0233150031 0.0307229403 0.999255955 -0.435333639 0.899212778 -0.0436007157 -0.173852712 0.643199384 -0.745700896 0.747551203 0.633482039 0.199668989 0.766121924 0.638579845 0.072615236 0.881627619 0.316248834 0.350313336 0.318870425 -0.615197718 -0.721008658 0.900570571 0.210982308 0.38007772 0.971497536 -0.230661407 -0.0546609387 0.976873994 -0.0607427061 -0.205006301 0.22260192 -0.547142506 0.806897461 0.629524767 -0.268245608 0.729206979 0.888544083 -0.0350237899 -0.457452416 0.574842393 -0.0408373103 -0.81724447 0.82077384 -0.0687399134 -0.567102373 0.743041337 -0.442486614 0.502090752 0.710671425 -0.0259597953 -0.703045011 0.737525403 0.0628438666 0.67238903 -0.631393492 0.769308805 0.0974998772 -0.859354317 0.427513272 -0.280611157 -0.8473683 0.433026105 -0.307335943 -0.960797608 0.221821263 -0.166322678 0.586624801 0.791301847 0.172373965 -0.435321003 -0.885467827 -0.162610918 0.935066283 0.106444433 -0.338113248 0.905624092 0.116548896 -0.40775162 0.939264953 0.104773231 -0.326808631 0.902193129 0.117580578 -0.414996773 0.0563206822 0.980493665 -0.188308656 0.430353433 0.263018459 -0.863491297 0.671666682 0.319810599 -0.66827023 0.529466569 0.0372814573 -0.847511172 0.683506906 0.594103336 -0.424098551 0.834208369 0.0432577766 -0.54975003 0.173065439 0.378993452 -0.90907222 0.22176747 0.41313076 -0.883256555 0.161907598 0.371021628 -0.914400816 -0.999511063 0.0231678523 0.0209969077 -0.99947226 0.0323541909 0.0029076119 -0.998828351 0.00973208621 0.0474046804 0.0262301303 0.0651600584 -0.997530043 0.0434207246 -0.337311 0.940391362 0.0139538832 -0.378329515 0.925565839 0.0261724368 -0.361454785 0.932022214 -0.146403596 -0.97432518 -0.171045125 -0.988386214 0.0330903344 -0.148316368 -0.990814507 0.0813009292 -0.108059131 -0.972644508 -0.0354104117 -0.229583874 -0.0203226414 0.919154465 -0.393372715 0.0204460584 0.99640882 -0.082167238 0.00240669912 0.998737395 -0.050177671 0.110041671 0.99330008 0.0352953598 0.097388424 0.99508816 0.0177498683 0.112665854 0.992971599 0.0362470858 -0.824136972 -0.393815249 -0.407072246 -0.416560173 0.262116253 0.870501399 0.789216042 -0.611883461 -0.0523138382 0.781797409 -0.619347036 -0.0721249953 0.776042163 -0.6246804 -0.08679232 -0.0979754552 -0.754168212 -0.649331331 -0.0724126101 -0.761607051 -0.643980682 -0.165786579 -0.760325134 -0.628029108 0.334860027 0.690021574 0.641668916 -0.134797469 -0.985648453 -0.101620793 0.0922954381 -0.949993312 -0.298318982 0.113844126 -0.942088604 -0.315449744 0.992877185 0.00599253643 0.118991457 0.984753489 0.0725747049 0.158093333 0.942013383 0.141249821 0.304399937 0.196770206 -0.699788213 0.686715364 0.133008987 -0.62592715 0.768455446 0.256077886 -0.761089981 0.595958173 -0.504911542 0.857092857 0.102255397 -0.121794045 0.972953141 0.196286544 -0.0594206527 0.976296842 0.208119243 0.0951645449 0.995430887 0.00781408977 -0.760693729 0.190035805 -0.620670199 0.466442376 0.425807357 0.77531904 -0.489663482 -0.421590418 0.763211131 -0.356240124 -0.406859398 0.841164887 -0.675185561 -0.309128135 0.669749439 0.846282184 0.256567419 -0.466882885 0.848531485 0.259426653 -0.461185604 0.829036951 0.235740915 -0.507073879 0.867974877 0.190599442 -0.458575487 0.918363988 0.104815237 -0.381603688 0.951775789 -0.178786531 0.249315619 0.931767464 -0.104415677 0.34771648 0.944626331 -0.145706683 0.294024885 0.955721736 -0.208851531 0.207308978 -0.0765006691 -0.882614493 -0.463831067 -0.161786437 -0.90293777 -0.398156464 0.486937881 0.747505367 0.451804399 0.570988178 0.330855399 -0.751336932 -0.137548819 -0.924058914 -0.35664466 0.980558336 0.122837991 0.153023273 0.990329862 0.0911591128 0.104578868 0.961580098 0.165748835 0.218840271 0.161736995 0.949865878 0.267574281 0.154544294 0.53131932 -0.832956076 0.329376906 0.0166907068 0.944050968 0.949426591 -0.036134325 0.311902881 0.706404209 0.00958979968 0.707743704 0.0952301174 0.995438576 -0.00576598942 0.999270439 0.0123578189 -0.0361374766 0.598193169 0.709382832 0.372747779 0.142242178 0.95722878 0.251952767 0.162092224 0.948619008 0.271750003 -0.0168019198 0.996391833 -0.0831928775 -0.0492001027 0.93696481 -0.345942527 -0.0126282396 0.998688281 -0.0496211611 0.999375463 0.00963536929 -0.0339972787 0.998922706 0.00490114978 -0.0461458266 0.994008422 -0.0196954682 -0.107514255 0.999481559 0.0208145175 -0.024563564 0.00448028231 0.0755381286 -0.997132838 -0.899960876 0.433723301 -0.0442099385 -0.225062892 -0.084618926 0.970662832 0.907222867 -0.149733156 0.393098772 0.906631649 -0.254751891 0.336333871 -0.437677979 -0.0343109816 -0.898476899 -0.4454256 -0.244592205 0.861261129 -0.276917815 0.886497617 0.370727032 -0.189225882 0.917862415 0.348887086 -0.478643537 -0.0924750268 -0.873125851 -0.382719815 0.0419417247 -0.922911942 -0.368965775 0.059905488 -0.92751044 0.848442614 -0.460947663 0.260139108 0.0647463351 0.967850506 0.243050009 -0.255705595 0.197978005 -0.946265996 -0.966352105 -0.0189747773 -0.256522179 -0.163315386 0.986345589 0.0212239902 -0.170737267 0.969537139 0.175631732 0.487970054 0.776307225 -0.399039298 -0.558221817 -0.758945644 0.335245967 -0.219294444 0.848014772 -0.482473761 -0.22064051 0.848617375 -0.480797619 -0.166729912 0.821645498 -0.545068681 0.0689164251 0.971246779 0.227882013 0.523507416 0.444424689 0.726929665 0.853029549 -0.459126115 0.248080209 0.762778461 -0.632242262 0.13578923 0.673358858 -0.271454245 -0.687677622 0.947551847 0.114675127 0.298320383 0.365000278 -0.352107257 0.861855745 0.498379737 -0.467408776 0.730168939 -0.176923573 0.925479531 0.334941357 0.0854625106 0.969627142 0.229170963 -0.238742635 0.603756487 0.760578811 0.138108641 0.806316555 0.575134456 -0.424362183 0.771196723 0.474523276 -0.148469433 0.938294172 0.312347293 -0.534116507 0.606373429 -0.589093268 -0.544667959 0.623468816 -0.560913026 -0.518878758 0.582176328 -0.625967681 0.614049554 -0.306802154 0.727197111 0.0781479701 0.99094075 -0.10922154 0.0794526562 0.971390903 -0.223801151 -0.179414481 0.928709507 0.324513644 0.970898151 0.18732056 -0.149223939 0.996629775 0.0813533515 0.010522793 -0.304158956 0.322291106 -0.896446168 -0.245528698 0.394175738 -0.885630369 -0.243525848 0.0785477385 -0.966708541 0.952368677 0.292977303 0.0846063718 0.183171898 0.947780252 0.261075914 0.00121232518 0.998889744 -0.0470938236 0.000517966284 0.998815 -0.0486659035 0.00156153704 0.998926222 -0.0463031232 -0.477021068 -0.0350322537 0.878193378 -0.477109253 -0.605016768 0.637433469 -0.611285746 -0.612701416 0.500925839 -0.412533581 -0.610807538 0.675818205 -0.429183096 -0.8268345 0.363519639 -0.627746403 -0.767854035 0.127806753 -0.804646909 0.581059337 -0.122120224 -0.800343931 0.586188138 -0.125829577 -0.801108956 0.585385144 -0.124694318 -0.804667652 0.581164837 -0.121480115 -0.566091239 -0.27542749 -0.776968718 -0.806718111 0.545236528 -0.227866262 -0.793276846 0.515515089 -0.323969185 -0.745687306 0.44131583 -0.499190062 0.482282668 0.801290452 0.354029775 0.409277737 0.912027657 0.026406344 0.314308345 0.937449038 0.149664685 0.00127503381 -0.883250237 0.468900144 0.035674613 -0.922587276 0.384135425 0.143618435 -0.983184636 0.112790585 0.55852741 0.661924899 -0.499902546 0.577941358 0.214951679 -0.787260771 0.565034628 0.303012431 -0.767410815 0.560181022 0.622992933 -0.545964241 0.572466552 0.783049107 -0.243138134 0.753751099 0.476021469 0.453059405 0.754980028 -0.652505398 0.065129064 -0.357076079 -0.934074461 -0.00125754718 0.654018164 -0.754874706 0.0492391773 -0.328826487 -0.944374025 -0.00555481808 0.231094822 -0.141043216 -0.962653637 0.570335805 -0.285229504 -0.770299375 0.553791344 -0.241693214 -0.796805799 -0.324729502 -0.945803761 -0.00246117893 -0.182935745 -0.0307966564 -0.982642412 0.575079441 -0.0784414932 -0.814328253 -0.456930816 0.855044305 0.245180562 -0.631750107 0.743182302 -0.220390126 -0.643563211 0.751643121 -0.144426689 -0.63590163 0.761135459 -0.127678841 -0.0186374653 0.998801768 -0.0452507548 0.0309058744 0.995966077 0.0842400566 0.0153135778 0.998936296 0.0434938744 -0.0348752327 0.995535731 -0.0877057612 0.150782958 0.0409248769 -0.987719417 0.0547404252 0.0140398601 -0.99840188 0.0423374176 0.0105688469 -0.999047458 -0.0217645001 -0.00736685842 -0.999736011 -0.818645895 -0.574272513 -0.00547533436 -0.005004426 0.00167365198 -0.999986053 -0.309288293 -0.0375597067 -0.950226307 -0.111638054 -0.118005075 -0.986717641 0.0961904526 -0.0461955778 -0.994290411 -0.214929879 0.0555939525 -0.97504586 -0.313138455 0.0324258879 -0.949153781 -0.0759271309 0.0779047832 -0.994065344 -0.0866254345 0.107328266 -0.990442693 -0.0267102364 0.0562390201 -0.998059988 0.0183199216 0.0651515424 -0.997707188 0.0470772758 0.0420940518 -0.9980039 0.0642658025 0.0585625656 -0.996213019 0.0955407619 0.0135307396 -0.995333552 0.0676942617 0.0425444245 -0.996798635 0.203471407 -0.00761255994 -0.979051292 0.0656068474 -0.00765768485 -0.997816145 0.945489824 -0.163180038 0.281817824 -0.00449646404 -0.443408549 -0.896308362 0.00765938964 0.418985933 -0.907960415 -0.999815702 -0.0176536124 0.00754566072 -0.998314977 -0.0307754204 0.0491940826 -0.999989569 0.00418830477 -0.00181193603 -0.999935389 0.00318483333 0.0109112943 -0.999989629 0.00449344236 0.00075084233 0.402514994 0.911541581 -0.0841048658 -0.0364174657 0.98367244 -0.176244959 0.323466867 0.939731836 -0.110784605 -0.57114315 0.0100862393 -0.820788503 0.609529734 -0.730141044 -0.308816344 0.628563285 -0.731413066 -0.264467597 0.598541915 -0.772574663 -0.211839348 -0.713622212 0.203115389 0.67043829 -0.714531481 0.204442397 0.669065058 -0.715153873 0.205352932 0.668120563 -0.715955794 0.206528679 0.666898191 -0.763915658 -0.556379616 -0.326916695 0.211073652 0.975691259 0.0589449815 0.0057919221 0.999982238 0.00141781918 0.190596804 0.981662512 -0.00339482771 -0.0993010625 0.991809726 0.0803288445 -0.111544922 0.993636429 0.0156326536 -0.00281582423 0.999939442 -0.0106390165 -0.124816097 0.992176175 -0.00271463301 -0.0332469605 0.999354243 -0.0136269843 -0.997309327 -0.0406569578 0.0610010512 0.450157642 0.88276422 -0.134482056 -0.980036676 0.149811864 -0.130707696 0.0239281785 -0.998669863 -0.0456719361 0.035063792 -0.996503234 -0.0758408308 0.031619437 -0.99728483 -0.0665071756 0.0209387895 -0.99907434 -0.0375763848 0.729609668 -0.377431691 -0.57027626 0.727356791 -0.372583628 -0.576310217 0.174167275 -0.984658957 0.010606193 -0.112519145 -0.993332565 0.0250973217 -0.0465167612 -0.995526552 0.0822380707 -0.0957458019 -0.994756639 0.0359446369 -0.00634410279 -0.999979794 -0.000409952685 -0.104148813 -0.994548917 -0.00504321931 -0.00228659459 -0.999803722 -0.0196803305 0.187228084 -0.982311189 -0.00322698406 0.0581208542 -0.998019755 -0.0240521431 0.0600492507 -0.998142898 -0.0102396421 -0.145990744 -0.989256144 0.00768270809 -0.0792101249 -0.996768475 -0.0133551955 -0.15467748 -0.80931133 -0.566648126 -0.0247819908 -0.377198339 0.92580086 0.0446870774 -0.288793951 0.956347823 0.999136925 -0.039007511 -0.0142763341 0.999946415 -0.00171103689 0.0102106202 0.999976635 -0.00429009227 -0.00532713672 0.999759436 -0.0130301742 -0.0176418275 0.9999277 0.00499682454 0.0109370789 0.0793175846 -0.951658189 -0.296741277 -0.259386599 0.0181285106 -0.965603411 -0.213881478 -0.0209865998 -0.976634145 0.864147782 0.280468911 -0.417834699 -0.564029694 0.766894102 0.306176335 -0.850966632 -0.0472124778 -0.523093402 -0.999704897 -0.00484352792 0.0238054805 -0.999949217 0.00893919449 -0.00465800334 -0.999191582 -0.0211166814 0.0342085063 -0.995960593 0.0871001706 0.021819789 0.586826384 0.751105309 -0.302449375 -0.571083426 -0.81983161 -0.04171101 -0.558801234 -0.82795769 -0.0471929535 -0.774717808 0.625023901 -0.0956946611 -0.773432434 0.627326131 -0.0909073651 -0.771622598 0.630469263 -0.0843036771 -0.770063937 0.633089244 -0.0787366852 0.616625786 -0.784050107 0.0709790811 0.848466039 0.0218811538 -0.528797328 0.851312637 0.011155922 -0.524540126 -0.363269031 0.928000629 -0.082767278 0.0114316139 -0.999924183 -0.00457464391 0.023483362 -0.999545515 -0.0189027768 -0.0194484573 -0.999420941 -0.0279195849 -0.219025135 -0.975676537 0.00912672281 -0.999940693 -0.0108507592 -0.000943469408 -0.988099217 0.151585221 -0.0261135176 -0.995256007 0.0957104936 -0.0174636245 -0.999355972 -0.0357648358 0.00292336522 -0.991189659 0.132446736 0.000955882075 -0.707495987 0.350428432 -0.613717616 -0.685667813 -0.266443193 0.677397668 -0.697258174 -0.283291161 0.658465743 -0.692207217 -0.275878966 0.666888297 -0.704312146 -0.293837845 0.646222651 0.713698626 -0.309989274 0.628124893 0.698105872 -0.332025081 0.634355962 0.598527193 -0.45318529 0.660596907 -0.995374143 0.0702444613 -0.0655436739 -0.994743228 -0.0229529664 -0.0997950286 -0.277215987 0.0477741659 -0.959619164 -0.867697895 -0.141864792 0.476418644 -0.957048118 0.249392688 -0.147858724 0.733311296 0.679839134 -0.00856064726 0.700313389 0.71356988 -0.0194736738 0.348024189 0.0155703481 -0.937356234 -0.00177777745 0.00465088664 -0.999987602 0.027214149 -0.0318704136 -0.999121428 0.0142689692 -0.0527527742 -0.998505652 0.0614650771 -0.0519156046 -0.996758163 -0.412651956 0.760145307 -0.501893878 -0.0212984663 -0.940331101 0.33959353 0.0378117487 0.351575583 -0.935395598 0.0563600436 0.479699254 -0.875621021 -0.00428686803 -0.403169692 0.915115178 0.686788678 -0.0235796794 -0.726474583 0.0382553339 -0.0492946096 -0.998051405 0.053358037 -0.053485401 -0.997142017 0.020863479 -0.0573773459 -0.998134553 -0.0253969207 -0.0777332634 -0.996650636 -0.0144591257 -0.080094032 -0.996682465 -0.0519476868 -0.0842849165 -0.99508667 0.00454091467 0.998688161 -0.0510031544 0.0218416564 0.985381603 -0.168955728 0.00883302093 0.999619842 -0.0261170641 0.0875156447 0.996128082 0.00835526828 0.685283363 -0.109872751 -0.719940782 0.69519031 -0.0989048779 -0.711988926 0.658633769 -0.138231769 -0.73965776 0.700548708 -0.256593794 0.66587615 0.689216137 -0.240961879 0.683314323 0.696243048 -0.250597805 0.672641277 0.707868576 -0.266958892 0.653953373 -0.999465168 -0.0275774915 -0.0175750609 0.99780643 0.00789438933 0.0657270327 0.99971664 -0.0217459854 0.00967955682 0.999141932 -0.00514446618 0.0410968438 0.999385655 -0.0330320038 -0.0117152184 -0.452786207 0.57516712 -0.681298316 0.00282191904 0.981553972 -0.191164359 -0.00419894326 -0.99001503 -0.140899271 0.997937739 -0.0596364439 -0.0237440821 0.997576535 -0.0682085082 -0.0137366913 -0.996774554 -0.0786342919 0.016035933 -0.993716657 0.033156734 -0.106901042 -0.99867028 -0.0217887107 -0.0467217192 -0.992921889 -0.108229779 0.048912365 0.998495936 -0.0348597951 0.042316433 0.996130824 0.0673684403 -0.056434799 0.999954462 0.00172475784 0.00938433968 0.90704453 0.296822637 -0.298607737 0.998454034 -0.037123248 0.0413693413 0.756137908 0.647132397 -0.0973401964 -0.703735948 -0.350530386 -0.617967725 -0.722017348 -0.379299223 -0.578638911 -0.711429179 -0.362389266 -0.602115095 -0.691451252 -0.332227021 -0.641498506 -0.0415527113 0.0932235643 -0.994777739 -0.0654813498 0.0673216954 -0.995580196 -0.584730029 0.671353877 -0.455384135 -0.890992761 -0.233446717 0.389402837 -0.889082491 -0.277499706 0.364041537 -0.0770670846 -0.789275467 -0.609183788 0.999844372 0.00306929927 0.0173715856 0.878360152 -0.0407278091 -0.476261109 0.719316363 -0.0711075589 -0.691033721 0.120112255 0.340675443 -0.932476938 0.0866947845 -0.567676365 0.818674266 0.538008928 -0.0255298615 0.842552483 0.0315331779 -0.935139 0.352874905 -0.00508413464 0.00559771061 0.99997139 -0.021113405 0.0159497317 0.999649882 -0.0341385715 -0.00666015735 0.999394894 0.214116842 -0.0293189511 0.97636795 0.0484120958 -0.0659993291 0.996644557 0.0290272553 0.0411709361 0.998730361 -0.085044086 0.0037132802 0.996370256 -0.108027242 0.00424390519 0.994138896 -0.0162586272 -0.0627828166 0.997894764 -0.0180911664 -0.0617634729 0.997926831 -0.106949396 0.0011912043 0.994263768 -0.0530024022 -0.0327722505 0.998056471 -0.94070673 0.250224829 0.229037881 -0.687895715 -0.318137735 0.652370989 0.722135246 -0.0733237937 -0.687854886 0.69245398 -0.0611950085 -0.718862057 0.031953346 0.0916743651 -0.995276213 0.0262808558 0.0662527084 -0.997456729 -0.000247496471 -0.00313843624 -0.999995053 -0.0703254789 -0.00764958374 -0.997494757 -0.0574994609 -0.0039385506 -0.998337746 0.601419866 -0.779659569 -0.174427778 0.534547567 -0.843334794 -0.0551843718 -0.940230668 0.333569288 0.0685406178 0.0172753278 -0.97931689 0.201593533 -0.0530671142 0.74849695 -0.661011457 0.162260965 0.482199013 -0.860903859 0.00403425517 0.00816937815 -0.999958515 -0.00316621992 -0.00456082216 -0.999984562 0.000365980377 0.00168401864 -0.99999851 0.00780945644 0.0148437209 -0.999859333 -0.534959555 -0.471294671 -0.701212943 -0.635280073 0.604478061 -0.480651081 0.808585644 0.586354971 0.0487561598 0.774271846 0.62986815 -0.0613935664 0.790164411 0.612708688 -0.0151081802 0.819094479 0.56596154 0.0936580524 0.0143691432 0.00454264134 -0.999886453 0.0804583356 0.0237837061 -0.996474206 -0.150786057 -0.0409257561 -0.98771894 0.0600405857 0.0228823517 -0.997933626 -0.881793797 -0.399103343 -0.251308918 -0.00414310908 -0.00771608204 -0.999961674 0.00291192252 0.00478534494 -0.999984324 -0.000545922085 -0.00134192128 -0.999998927 -0.00785315968 -0.0142902136 -0.999867022 0.403080016 -0.195514917 0.894036055 0.43313247 -0.108188033 0.894813716 0.375207543 -0.267512798 0.887499988 0.355999082 -0.31318301 0.880443692 0.751455367 -0.0532868989 -0.657628536 0.212574497 0.000982916332 -0.977144361 0.115313359 -0.00220744545 -0.993326724 -0.997829378 0.00032894843 0.0658516511 0.0131485267 -0.221062973 -0.97517091 -0.999617457 0.0201476905 0.018946331 -0.0240469351 0.46197319 -0.886567831 0.79487139 -0.605683506 -0.0364274979 0.015718272 0.90323472 0.428858966 0.0102845617 0.90540868 0.424416453 0.0024588753 0.905622125 0.424078435 0.0175814051 0.898487449 0.438647002 0.00187437492 0.904144824 0.427222013 -0.00718063582 0.913359165 0.407091469 0.00274130399 0.906308711 0.422607332 -0.0824391469 0.923823297 0.373837292 0.998754025 0.0411130972 0.0282866806 0.752403319 0.220241681 -0.620792091 0.715925515 0.31521821 -0.622967184 0.726424515 0.290097177 -0.623017728 0.691074133 0.369424701 -0.621242225 0.998981714 -0.0364483148 0.0265914202 0.998637617 -0.0486660823 0.0188280474 -0.999193013 -0.017523814 0.0361418724 -0.996710062 0.0792363286 0.0170483086 -0.999013543 0.0363140702 0.0255574435 -0.99809593 -0.0455326177 0.0416093878 -0.0512333699 0.930546761 -0.362571239 -0.605713844 0.792606413 0.0698986799 -0.211531177 0.0622494109 0.975386858 -0.210180268 0.141902521 0.967309654 -0.212402418 0.0408843532 0.976326644 -0.0208766777 0.446825773 0.894377351 -0.0912634134 -0.779393077 0.619852722 -0.0459962636 0.144145966 0.988486886 0.113025248 -0.0462547913 0.992514908 0.0562851503 0.0557765402 0.996855557 -0.174810275 0.000412270223 0.984602034 -0.219452709 -0.108349048 0.969588041 0.99967128 0.000401138968 0.0256364048 0.999533117 0.0145049067 0.0268920511 0.999616086 0.00919468515 0.0261373073 0.996334016 0.0848102793 0.0112124914 -0.27982828 0.871268451 -0.403221279 0.629179776 -0.645489573 -0.432984918 0.787222922 -0.18907994 0.586965799 -0.506916225 0.56351757 -0.652291298 0.995859921 -0.00159881392 -0.0908871666 -0.22257255 0.0256113093 0.974579692 -0.217655897 0.14379853 0.96537447 0.576921463 -0.106993668 0.809761703 0.606169164 -0.182720363 0.774062157 0.572639823 -0.0967402607 0.814079165 0.538936019 -0.0215176269 0.842071831 0.000218472822 0.9987818 -0.0493439361 0.923060775 0.228261694 0.309605241 -0.999683797 -0.0183778498 0.0171638746 -0.6189273 0.657382667 -0.429856926 -0.55873698 0.394387215 -0.729569495 -0.0353910401 -0.875027061 0.482778549 -0.0114120599 -0.901800334 0.432002157 0.0123235127 -0.905683756 0.423774719 -0.00700318115 -0.906642497 0.421841621 0.0301455632 -0.900030136 0.434783906 0.213958785 -0.872194886 0.439883828 0.999978065 0.00414274959 0.00516740745 0.999863207 -0.0149804112 0.00700796675 0.999968469 0.00686598523 -0.00398774073 0.995686948 0.0816301182 -0.0440913029</float_array>
          <technique_common>
            <accessor source="#normals_array" count="988" stride="3">
              <param name="X" type="float" />
              <param name="Y" type="float" />
              <param name="Z" type="float" />
            </accessor>
          </technique_common>
        </source>
        <vertices id="vertices">
          <input semantic="POSITION" source="#positions" />
        </vertices>
        <triangles material="scout_1a1a1a" count="804">
          <input semantic="VERTEX" source="#vertices" offset="0" />
          <input semantic="NORMAL" source="#normals" offset="1" />
          <p>0 0 1 0 2 0 3 1 4 2 5 3 0 4 6 4 1 4 7 5 8 6 9 7 10 8 11 8 12 8 12 9 11 9 13 9 1 10 6 10 14 10 15 11 1 11 14 11 16 12 17 12 18 12 13 13 10 13 12 13 14 14 19 15 15 16 17 17 19 17 18 17 10 18 13 18 20 18 21 19 10 20 20 21 21 19 20 21 22 22 22 23 20 24 23 25 24 26 25 27 26 28 27 29 28 30 29 31 30 32 31 33 27 29 32 34 33 35 34 36 35 37 36 38 37 39 36 40 38 41 39 42 40 43 41 44 42 45 40 43 42 45 33 46 32 34 40 47 33 35 42 48 43 49 44 50 45 51 35 37 37 39 41 52 46 53 42 54 47 55 38 41 36 40 48 56 35 57 49 58 48 56 50 59 35 57 51 60 50 59 48 56 52 61 53 62 54 63 55 64 56 65 52 66 57 67 42 45 58 68 36 40 39 42 37 69 33 46 42 45 57 67 49 70 59 71 39 72 45 51 37 39 60 73 47 55 61 74 38 41 62 75 41 44 40 43 63 76 61 74 47 55 49 77 35 78 45 79 59 80 49 77 45 79 48 81 49 70 38 82 50 83 63 83 47 83 61 84 48 84 38 84 51 85 48 85 61 85 63 86 50 59 51 60 64 87 65 88 66 89 67 90 41 44 62 75 41 91 67 91 46 91 39 42 68 92 37 69 69 93 60 94 58 95 37 69 68 92 70 96 45 97 60 94 69 93 59 71 68 98 39 72 62 99 71 100 72 101 73 102 62 75 72 103 74 104 59 104 45 104 63 76 51 105 61 74 73 102 67 90 62 75 75 106 53 62 52 61 75 106 76 107 53 62 76 108 77 109 53 110 78 111 79 112 80 113 78 114 81 114 79 114 82 115 79 116 83 117 81 118 83 117 79 116 84 119 76 107 75 106 85 120 56 121 77 122 86 123 85 123 77 123 87 124 80 113 88 125 89 126 77 109 76 108 90 127 80 113 87 124 91 128 92 129 93 130 52 61 54 63 94 131 95 132 96 132 97 132 98 133 54 134 99 135 100 136 101 136 102 136 103 137 104 137 105 137 106 138 107 139 108 140 109 141 101 141 100 141 110 142 111 142 112 142 111 143 110 143 113 143 109 144 114 144 115 144 116 145 110 146 112 147 111 148 103 149 108 150 117 151 118 152 119 153 120 154 121 155 122 156 45 97 69 93 74 157 96 158 95 158 123 158 124 159 125 160 126 161 127 162 128 163 129 164 130 165 131 166 132 167 130 165 133 168 131 166 134 169 135 169 136 169 137 170 138 171 139 172 140 173 141 174 135 175 142 176 143 177 144 178 145 179 146 180 147 181 143 182 137 170 139 172 148 183 140 184 134 185 141 186 140 187 148 188 142 176 149 189 143 177 150 190 151 191 149 192 147 193 152 194 135 195 144 196 153 196 125 196 154 197 134 198 136 199 137 170 155 200 138 171 141 201 156 202 136 203 156 204 154 197 136 199 141 174 136 205 135 175 152 206 145 207 140 208 152 206 146 209 145 207 157 210 142 176 144 178 125 160 157 210 144 178 155 200 158 211 138 171 143 177 149 189 159 212 137 213 159 214 155 215 151 216 160 217 159 218 138 219 154 219 156 219 152 220 147 220 161 220 146 221 161 221 147 221 138 222 158 222 154 222 161 223 146 209 152 206 162 224 156 202 141 201 163 225 158 211 155 200 162 226 141 186 148 188 159 214 163 227 155 215 162 226 148 188 164 228 133 229 130 230 128 231 89 126 128 231 86 232 85 233 86 234 127 162 165 235 78 111 80 113 133 168 166 236 131 166 131 237 166 238 127 239 89 240 166 236 133 168 89 126 86 232 77 109 90 127 165 235 80 113 167 241 168 242 78 243 169 244 170 245 171 246 20 247 172 248 173 249 20 247 173 249 23 250 172 251 22 23 173 252 21 253 22 253 172 253 174 254 21 254 172 254 175 255 91 256 176 257 177 258 91 256 175 255 178 259 174 260 172 261 179 262 174 260 178 259 93 263 180 264 181 265 91 128 177 266 182 267 183 268 92 268 182 268 128 269 184 269 24 269 185 270 186 271 187 272 188 273 57 67 58 68 188 274 58 274 189 274 57 275 188 276 187 277 58 95 60 94 189 278 60 94 190 279 189 278 60 73 70 280 190 281 191 282 192 283 193 284 59 71 194 285 68 98 68 92 195 286 70 96 188 287 189 287 196 287 195 288 197 289 70 290 190 279 196 291 189 278 190 281 70 280 197 292 198 293 197 289 195 288 194 285 195 294 68 98 194 285 198 295 195 294 199 296 198 295 194 285 194 297 190 281 200 298 73 299 72 101 201 300 202 301 73 302 201 303 202 301 201 303 203 304 204 305 205 306 206 307 207 308 204 308 206 308 204 305 208 309 205 306 208 310 204 311 207 312 209 313 210 314 3 315 196 316 211 317 188 318 212 319 188 318 211 317 212 320 213 321 185 322 198 293 214 323 197 289 200 298 197 292 214 324 212 325 215 326 213 327 203 328 216 328 215 328 203 304 201 303 216 329 190 279 217 330 196 291 197 292 200 298 190 281 199 331 194 332 200 333 217 330 218 334 211 335 176 336 219 337 220 338 221 339 206 340 222 341 206 307 214 323 222 342 223 343 202 343 203 343 224 344 225 345 226 346 157 210 125 160 227 347 221 348 199 331 200 333 208 349 228 349 205 349 208 310 207 312 228 350 229 351 73 352 202 353 229 351 202 353 223 354 4 2 3 1 230 355 231 356 4 357 230 358 232 359 233 360 116 361 218 362 234 362 211 362 222 342 214 323 198 293 203 363 212 319 211 317 203 363 215 364 212 319 206 307 205 306 214 323 217 330 234 365 218 334 221 348 200 333 228 350 228 350 207 312 221 348 235 366 236 367 237 368 237 368 236 367 238 369 19 15 239 370 240 371 241 372 235 366 237 368 241 372 242 373 235 366 243 374 242 373 241 372 88 125 79 112 82 375 244 376 88 125 82 375 245 377 84 119 5 3 76 107 84 119 245 377 81 118 246 378 247 379 81 118 247 379 248 380 166 381 5 382 84 383 249 384 89 385 76 386 249 384 76 386 250 387 246 388 251 388 252 388 244 376 82 375 253 389 5 390 209 313 3 315 4 357 254 391 245 392 245 377 250 393 76 107 171 246 245 394 254 395 247 396 246 396 252 396 8 397 255 398 0 399 256 400 249 400 250 400 257 401 249 401 256 401 250 402 257 402 256 402 258 403 257 404 259 405 248 380 247 379 260 406 261 407 231 408 209 409 170 245 245 394 171 246 262 410 261 410 209 410 263 411 171 412 254 413 264 414 191 415 265 416 266 417 260 418 247 419 90 127 267 420 268 421 248 380 269 422 253 423 226 346 253 389 269 424 248 425 270 425 269 425 250 393 245 377 271 426 271 426 245 377 170 427 159 428 160 429 265 430 271 431 257 432 250 433 272 434 169 435 171 412 273 436 259 405 257 404 274 437 268 421 267 420 270 438 224 438 269 438 226 346 269 424 224 344 275 439 226 346 225 345 276 440 277 441 278 442 248 443 224 444 270 445 271 446 278 446 273 446 278 447 271 448 170 449 273 450 257 432 271 431 273 451 277 452 279 453 277 452 273 451 278 454 280 455 281 455 282 455 279 456 283 457 273 458 224 444 276 459 284 460 285 461 224 344 284 462 225 345 224 344 285 461 286 463 284 462 170 464 287 465 284 462 286 463 24 466 184 467 288 468 276 440 289 469 277 441 289 470 290 470 285 470 277 471 287 472 286 473 169 474 286 463 170 464 279 475 277 471 286 473 132 476 131 237 129 477 274 437 291 478 292 479 285 480 290 481 225 482 293 483 275 439 225 345 292 479 275 439 293 483 290 481 293 484 225 482 294 485 292 479 293 483 135 195 134 486 147 193 232 487 295 488 296 489 114 490 297 490 298 490 299 491 300 491 301 491 178 492 297 493 179 494 298 495 297 493 178 492 232 496 302 496 295 496 118 152 30 32 119 153 284 460 276 459 278 447 302 497 303 498 304 499 302 497 305 500 303 498 180 264 93 263 306 501 125 160 124 159 227 347 162 502 307 503 308 504 183 505 306 506 93 507 191 282 193 284 158 508 309 509 310 510 227 511 159 214 265 416 191 415 159 214 191 415 163 227 307 512 162 226 164 228 311 513 312 514 313 515 308 516 192 517 156 518 314 519 281 520 280 521 308 522 193 522 192 522 193 523 308 523 315 523 306 524 182 525 177 526 314 527 280 528 282 529 227 347 124 159 316 530 307 512 164 228 317 531 262 532 312 533 26 28 26 534 318 535 262 536 291 478 274 437 267 420 318 537 319 538 311 539 240 371 15 16 19 15 285 461 284 462 287 465 320 540 315 541 308 542 314 519 321 543 281 520 322 544 321 544 314 544 124 159 323 545 316 530 317 546 193 547 315 548 307 549 320 550 308 551 324 552 325 553 192 283 326 554 282 555 281 556 320 557 326 554 281 556 322 558 282 529 326 559 327 560 227 347 316 530 314 527 282 529 322 558 264 561 324 552 192 283 328 562 307 512 317 531 326 559 307 512 328 562 329 563 327 564 330 565 265 416 324 566 264 414 331 567 329 567 330 567 332 568 319 569 25 570 281 520 321 543 320 571 324 552 330 572 325 553 327 560 316 530 330 573 326 559 328 562 322 558 330 574 324 566 331 575 332 576 132 577 319 578 333 579 334 580 335 581 334 580 333 579 336 582 190 279 194 583 217 330 251 584 246 584 123 584 337 585 89 385 249 384 338 586 283 587 279 475 166 381 339 588 5 382 337 585 340 589 89 385 340 590 341 591 89 240 252 592 251 593 266 594 342 595 340 595 337 595 337 596 258 596 342 596 266 594 251 593 97 597 339 598 313 515 209 313 166 236 263 599 339 600 89 240 341 591 263 599 341 601 272 601 263 601 340 602 342 602 258 602 251 603 95 604 97 605 339 600 263 599 311 606 274 437 343 607 268 421 283 587 344 608 345 609 313 610 262 610 209 610 263 611 262 536 318 535 259 405 340 612 258 403 346 613 340 612 259 405 340 590 346 614 341 591 263 599 318 615 311 606 347 616 348 617 349 618 90 127 268 421 347 616 348 617 347 616 268 421 349 618 348 617 350 619 351 620 352 621 272 622 353 623 346 613 259 405 354 624 210 625 231 408 341 591 346 614 351 626 110 146 233 627 355 628 275 439 292 479 291 478 350 629 356 630 357 631 356 632 358 632 357 632 350 619 348 617 356 633 359 634 240 635 219 636 353 637 273 458 283 457 283 638 346 639 353 640 345 641 346 639 283 638 360 642 346 639 345 641 348 617 268 421 343 607 361 643 351 644 346 645 361 643 346 645 360 646 356 647 362 647 358 647 362 648 357 649 358 650 348 617 363 651 356 633 363 651 364 652 362 653 365 654 73 655 366 656 343 607 274 437 294 485 344 657 338 658 352 659 338 586 344 608 283 587 351 660 361 661 344 657 367 662 363 651 343 607 368 663 345 609 344 608 369 664 360 642 345 641 368 663 364 665 345 609 369 664 357 666 360 642 370 667 369 668 364 669 370 670 357 666 369 664 357 631 370 667 371 671 362 653 364 652 361 661 356 633 363 651 362 653 367 662 343 607 294 485 370 667 364 669 372 672 363 651 367 662 364 652 334 580 242 373 335 581 132 167 184 673 130 165 276 459 224 444 248 443 16 674 255 675 9 676 300 677 110 678 355 679 355 679 373 680 300 677 19 681 14 682 18 683 14 682 6 684 18 683 8 6 16 685 9 7 9 686 255 686 7 686 349 618 78 111 165 235 11 687 10 688 8 689 8 689 374 690 102 691 11 687 8 689 102 691 374 690 113 692 109 693 102 691 374 690 109 693 110 694 114 695 109 693 113 692 110 694 109 693 110 694 300 696 114 695 300 696 299 697 114 695 299 697 65 698 297 699 299 697 297 699 114 695 65 698 306 700 297 699 306 700 179 701 297 699 4 357 261 702 254 391 262 536 263 611 261 702 57 275 187 277 186 703 158 508 163 704 191 282 375 705 376 706 377 707 30 32 375 705 31 33 377 707 376 706 378 708 375 705 377 707 31 33 31 33 377 707 28 30 27 29 31 33 28 30 379 709 378 708 376 706 376 706 375 705 379 709 98 710 99 711 55 712 44 50 43 49 74 157 169 435 272 434 352 713 69 93 58 95 44 50 58 95 42 48 44 50 74 157 69 93 44 50 301 714 304 715 299 716 99 711 56 121 55 712 71 717 62 718 32 719 62 718 40 720 32 719 128 721 130 721 184 721 323 722 124 159 126 161 126 161 380 723 325 724 323 722 126 161 325 724 288 725 125 160 153 726 378 727 288 725 139 728 288 725 153 726 139 728 380 723 378 727 156 518 325 724 380 723 192 517 139 728 138 729 378 727 192 517 380 723 156 518 378 727 138 729 156 518 64 87 304 730 65 88 381 731 98 710 55 712 176 336 220 338 175 732 220 733 239 734 17 735 175 736 220 733 17 735 198 295 199 296 222 341 187 737 188 738 212 320 212 320 185 322 187 737 366 656 73 655 229 739 46 740 67 741 365 742 365 742 377 743 43 744 46 740 365 742 43 744 382 745 366 656 234 746 366 656 229 739 234 746 377 743 382 745 194 747 234 746 217 748 382 745 43 744 377 743 74 749 74 749 377 743 59 750 382 745 217 748 194 747 59 750 377 743 194 747 73 751 365 751 67 751 164 752 154 753 193 547 88 125 80 113 79 112 383 754 382 755 384 756 382 755 385 757 384 756 238 369 383 754 384 756 237 368 238 369 384 756 380 758 333 579 243 374 335 581 243 374 333 579 384 756 385 757 243 374 384 756 243 374 241 372 384 756 241 372 237 368 313 759 312 533 262 532 248 380 82 115 83 117 96 760 357 631 371 671 96 760 370 667 289 761 371 671 370 667 96 760 96 760 289 761 248 380 96 760 248 380 260 406 307 549 326 762 320 550 349 618 167 763 78 111 106 138 108 140 374 764 106 765 0 766 377 707 386 767 106 765 378 708 0 766 2 768 377 707 377 707 378 708 106 765 311 513 313 515 339 598 368 769 361 661 364 652 348 617 343 607 363 651 111 148 113 770 104 771 103 149 111 148 104 771 374 772 105 773 113 774 105 773 104 775 113 774 364 665 369 776 345 609 110 146 116 145 233 627 117 151 122 156 118 152 120 154 379 709 121 155 24 26 129 164 128 163 166 238 84 777 85 778 289 469 276 440 248 779 288 725 126 161 125 160 2 780 1 781 181 782 2 780 181 782 382 745 2 780 382 745 377 743 181 782 387 783 382 745 140 184 145 179 134 185 145 179 147 181 134 185 139 784 153 785 144 786 139 784 144 786 143 787 142 788 150 190 149 192 244 376 87 124 88 125 39 72 38 82 49 70 151 216 159 218 149 789 142 790 157 791 150 792 157 791 310 793 150 792 148 794 154 795 164 796 293 484 290 481 372 672 78 243 168 242 81 118 373 797 296 489 300 798 123 799 81 118 168 242 83 117 81 118 248 380 152 800 140 800 135 800 373 797 388 801 296 489 287 472 289 802 285 803 0 804 106 805 8 689 374 690 8 689 106 805 181 265 359 806 176 807 91 808 93 263 181 265 181 265 176 807 91 808 242 373 243 374 335 581 143 809 159 809 137 809 182 267 92 129 91 128 107 810 302 810 232 810 116 811 107 139 232 812 310 510 157 813 227 511 344 657 361 661 368 769 168 242 167 241 350 629 293 484 372 672 367 814 174 815 306 700 177 816 306 700 174 815 179 701 177 816 175 817 174 815 175 817 17 818 21 819 175 817 21 819 174 815 17 818 16 820 21 819 16 820 10 688 21 819 16 820 8 689 10 688 305 821 302 822 107 823 305 821 107 823 378 727 305 821 378 727 380 723 107 823 386 824 378 727 260 825 97 826 96 827 227 828 327 829 389 830 227 828 389 830 309 831 82 115 248 380 253 423 43 832 42 54 46 53 259 405 273 436 353 623 103 833 105 834 108 835 105 834 374 836 108 835 109 837 115 837 101 837 210 625 354 624 381 838 196 291 217 330 211 335 232 359 388 839 233 360 210 625 209 409 231 408 35 37 50 840 36 38 50 840 47 841 36 38 352 659 351 660 344 657 214 842 205 843 228 844 228 844 200 845 214 842 234 846 229 847 203 848 229 847 223 849 203 848 211 850 234 846 203 848 390 851 354 851 231 851 186 852 34 853 33 854 186 852 33 854 57 855 107 139 116 811 112 856 107 139 112 856 108 140 108 140 112 856 111 857 386 858 107 139 106 138 350 619 167 763 349 618 99 859 54 860 53 110 5 3 4 2 245 377 247 419 252 861 266 417 8 397 7 862 255 398 258 403 337 585 249 384 291 478 87 124 244 376 4 357 231 356 261 702 87 124 267 420 90 127 267 420 87 124 291 478 84 777 75 863 56 65 97 826 260 825 266 864 171 412 263 411 272 434 226 346 244 376 253 389 226 346 291 478 244 376 162 502 308 504 156 865 258 403 249 384 257 404 25 866 319 538 318 537 26 867 25 867 318 867 94 868 390 868 3 868 278 447 170 449 284 460 25 869 24 466 381 870 354 871 25 869 381 870 332 568 25 570 390 872 366 873 126 874 390 872 390 872 126 874 332 568 354 871 390 875 25 869 381 870 24 466 98 876 365 877 390 872 94 878 288 468 365 879 24 466 184 467 332 568 126 874 126 874 288 468 184 467 365 877 94 878 54 880 365 881 54 134 98 133 365 879 98 876 24 466 85 778 127 239 166 238 287 472 277 471 289 802 317 546 315 548 328 882 365 877 366 873 390 872 131 237 127 239 129 477 338 658 286 883 169 884 115 885 298 886 178 887 101 888 115 885 178 887 102 691 101 888 11 687 101 888 178 887 13 889 178 887 172 248 20 247 11 687 101 888 13 889 13 889 178 887 20 247 86 234 128 163 127 162 64 890 391 891 299 716 109 892 100 892 102 892 15 893 359 893 181 893 1 894 15 894 181 894 85 778 84 777 56 65 114 895 298 886 115 885 233 896 388 897 373 898 373 898 355 899 233 896 232 487 296 489 388 801 296 900 301 900 300 900 16 674 0 901 255 675 391 902 66 903 65 904 65 904 299 905 391 902 64 906 66 906 391 906 304 715 64 890 299 716 301 907 296 908 295 909 301 907 295 909 304 499 295 909 302 497 304 499 359 910 219 337 176 336 219 911 240 912 239 913 239 913 220 914 219 911 222 341 199 296 221 339 230 915 3 916 390 917 390 917 231 918 230 915 53 110 77 109 99 859 26 28 312 533 129 164 129 164 24 26 26 28 65 919 304 499 303 498 306 700 65 698 180 920 303 921 180 920 65 698 92 922 183 505 93 507 193 284 154 923 158 508 288 924 378 708 379 709 265 430 160 429 392 925 306 524 183 926 182 525 360 646 357 649 361 643 164 752 193 547 317 546 151 927 150 928 160 929 160 929 150 928 392 930 150 928 310 931 309 932 392 930 150 928 329 933 150 928 309 932 329 933 309 932 389 934 329 933 128 231 89 126 133 229 275 439 291 478 226 346 329 563 389 935 327 564 331 936 265 937 329 938 329 938 265 937 392 939 292 479 294 485 274 437 323 940 325 553 330 572 330 572 316 941 323 940 315 942 321 943 322 944 328 945 315 942 322 944 332 576 184 946 132 577 321 947 315 541 320 540 393 948 210 949 381 950 380 758 243 374 385 757 385 757 382 755 380 758 319 951 132 951 311 951 311 952 132 952 394 952 394 953 132 954 129 955 312 956 311 957 394 953 394 953 129 955 312 956 180 958 303 959 380 758 382 755 387 960 180 958 380 758 303 959 305 961 380 758 382 755 180 958 286 473 338 586 279 475 89 240 263 599 166 236 347 616 165 235 90 127 246 378 81 118 123 799 168 242 357 631 123 799 168 242 350 629 357 631 5 390 339 598 209 313 192 283 191 282 264 561 324 566 265 416 331 575 251 603 123 962 95 604 387 963 181 265 180 264 148 794 134 964 154 795 254 391 261 702 263 611 341 965 351 620 272 622 239 370 19 15 17 966 37 39 70 280 60 73 338 658 169 884 352 659 94 967 3 968 393 948 52 969 94 970 381 971 3 968 210 949 393 948 55 972 52 969 381 971 94 967 393 948 381 950 359 634 15 973 240 635 349 618 165 235 347 616 221 339 207 974 206 340 72 101 71 100 201 300 77 122 56 121 99 711 357 631 96 760 123 799 29 31 28 30 377 707 375 705 30 32 118 152 377 707 365 975 29 31 375 705 118 152 122 156 365 975 288 924 117 151 29 31 365 975 30 32 30 32 27 29 29 31 375 705 122 156 121 155 30 32 365 975 119 153 119 153 365 975 117 151 375 705 121 155 379 709 117 151 288 924 120 154 288 924 379 709 120 154 122 156 117 151 120 154 18 976 6 977 0 901 18 976 0 901 16 674 71 978 32 979 201 980 32 979 34 981 201 980 201 980 34 981 186 271 216 982 201 980 186 271 216 982 186 271 185 270 213 983 216 982 185 270 361 643 357 649 362 648 289 761 370 667 290 481 372 672 290 481 370 667 75 863 52 66 56 65 126 984 366 985 242 373 366 985 382 755 383 754 126 984 242 373 334 580 366 985 383 754 236 367 383 754 238 369 236 367 336 582 333 579 380 758 336 582 380 758 395 986 366 985 236 367 242 373 236 367 235 366 242 373 395 986 380 758 126 984 126 984 334 580 336 582 336 582 395 986 126 984 372 672 364 669 367 814 294 485 293 483 367 662 216 987 213 327 215 326 23 25 173 252 22 23</p>
        </triangles>
      </mesh>
    </geometry>
  </library_geometries>
  <library_visual_scenes>
    <visual_scene id="scene">
      <node id="torso_link">
        <instance_geometry url="#geometry">
          <bind_material>
            <technique_common>
              <instance_material symbol="scout_1a1a1a" target="#scout_1a1a1a" />
            </technique_common>
          </bind_material>
        </instance_geometry>
      </node>
    </visual_scene>
  </library_visual_scenes>
  <scene>
    <instance_visual_scene url="#scene" />
  </scene>
</COLLADA>